<svg width="353" height="456" viewBox="0 0 353 456" fill="none" xmlns="http://www.w3.org/2000/svg">
<g filter="url(#filter0_d_1303_3275)">
<path d="M318.982 1H30.018C22.2761 1 16 7.27607 16 15.018V406.982C16 414.724 22.2761 421 30.018 421H318.982C326.724 421 333 414.724 333 406.982V15.018C333 7.27607 326.724 1 318.982 1Z" fill="white"/>
</g>
<path d="M277.862 234.245V234.574C277.047 235.427 276.612 236.504 276.275 237.627C276.219 237.836 276.065 238.001 275.966 238.195C275.545 238.959 275.138 239.737 274.717 240.5C274.113 241.622 273.538 242.759 272.906 243.867C272.737 244.151 272.4 244.33 272.246 244.63C271.825 245.423 271.474 246.261 271.053 247.054C270.814 247.518 270.463 247.907 270.224 248.356C270.108 248.582 270.073 248.841 270.126 249.089C270.505 250.615 270.126 251.304 268.736 252.022C268.189 252.306 267.74 252.89 267.332 253.428C266.911 253.997 266.63 254.685 266.209 255.254C265.423 256.331 264.735 257.469 263.64 258.292C262.882 258.86 262.377 259.818 261.745 260.611C261.436 261 261.155 261.404 260.832 261.763C260.72 261.883 260.481 261.988 260.355 261.928C259.751 261.688 259.611 261.973 259.751 262.676C259.667 262.676 259.597 262.691 259.513 262.691C259.035 262.197 258.544 261.688 258.095 261.21C257.702 261.374 257.238 261.554 256.775 261.748C256.635 261.808 256.424 261.898 256.41 262.003C256.298 262.721 255.68 262.826 255.231 263.035C253.855 263.649 252.423 264.127 251.047 264.726C249.952 265.22 248.913 265.893 247.818 266.372C246.33 267.015 244.8 267.539 243.283 268.108C243.213 268.138 243.171 268.212 243.101 268.242C242.567 268.527 242.034 268.856 241.472 269.095C240.784 269.38 240.054 269.559 239.409 269.769C239.366 270.143 239.423 270.592 239.268 270.696C238.791 271.011 238.257 271.355 237.724 271.415C236.418 271.564 235.099 271.579 233.779 271.609C233.133 271.624 232.501 271.504 231.855 271.504C230.171 271.519 228.486 271.639 226.801 271.594C225.201 271.564 223.6 271.4 222 271.265C221.565 271.235 221.13 271.175 220.694 271.071C219.473 270.771 218.266 270.367 217.044 270.143C215.809 269.903 214.545 269.829 213.296 269.694C212.299 269.574 211.302 269.499 210.305 269.35C208.059 269.006 205.799 268.706 203.567 268.242C201.784 267.868 200.057 267.255 198.288 266.746C198.021 267.36 197.698 268.093 197.375 268.811C197.389 268.811 197.389 268.826 197.403 268.826C197.291 269.14 197.179 269.454 197.052 269.799C196.084 269.799 195.733 270.667 195.213 271.37C195.059 271.31 194.876 271.28 194.708 271.205C193.529 270.622 192.349 270.023 191.156 269.44C189.598 268.676 188.025 267.973 186.467 267.18C183.954 265.908 181.834 263.963 179.433 262.451C176.696 260.731 174.365 258.456 172.063 256.152C171.263 255.344 170.504 254.506 169.676 253.728C168.721 252.83 167.753 251.932 166.714 251.154C165.928 250.555 165.015 250.136 164.159 249.643C162.657 248.79 161.126 247.997 159.666 247.084C159.063 246.71 158.108 246.62 158.178 245.513C157.869 245.453 157.617 245.393 157.364 245.333V245.124C157.603 245.034 157.841 244.929 158.234 244.779C157.294 244.779 157.406 244.465 157.841 244.016C158.164 243.687 158.599 243.358 158.726 242.954C159.119 241.727 158.515 240.649 157.982 239.632C157.392 238.48 156.648 237.417 156.086 236.25C155.595 235.203 155.342 234.021 154.837 232.973C154.233 231.761 154.43 230.369 153.896 229.157C153.882 229.127 154.023 229.053 154.037 228.993C154.093 228.723 154.135 228.439 154.191 228.17L154.065 228.125C153.98 228.26 153.896 228.394 153.728 228.619C153.629 227.781 153.559 227.047 153.475 226.329C153.475 226.135 153.222 225.955 153.152 225.701C152.846 224.782 152.57 223.854 152.324 222.918C151.875 221.227 151.425 219.551 151.046 217.845C150.737 216.453 150.513 215.047 150.26 213.64C150.148 213.027 150.049 212.413 149.937 211.8C149.628 210.273 149.979 208.582 148.926 207.206C148.73 206.936 148.702 206.472 148.688 206.098C148.674 205.59 148.744 205.066 148.758 204.557C148.828 202.462 148.21 200.412 148.646 198.287C148.856 197.24 148.646 196.088 148.533 194.965C148.281 192.526 148.295 190.072 148.238 187.618C148.224 187.289 148.435 186.945 148.519 186.705C148.421 186.421 148.266 186.167 148.252 185.912C148.21 185.329 148.295 184.715 148.196 184.147C147.887 182.336 148.014 180.525 148.238 178.73C148.365 177.712 148.491 176.71 148.716 175.722C149.095 174.061 149.923 172.879 151.72 172.849C151.917 172.849 152.099 172.625 152.296 172.535C152.464 172.46 152.633 172.34 152.801 172.34C153.714 172.385 154.64 172.37 155.539 172.535C156.929 172.789 158.304 173.178 159.68 173.507C161.168 173.867 162.671 174.69 164.145 173.403C164.257 173.298 164.496 173.343 164.678 173.343C165.366 173.358 166.054 173.343 166.742 173.418C167.023 173.448 167.304 173.642 167.57 173.777C167.907 173.956 168.202 174.256 168.553 174.345C169.339 174.57 170.153 174.69 170.954 174.854C171.557 174.974 172.161 175.139 172.765 175.228C174.014 175.408 175.306 175.423 176.527 175.722C178.184 176.126 179.798 176.755 181.427 177.278C182.129 177.503 182.831 177.742 183.547 177.907C184.838 178.191 186.13 178.401 187.422 178.685C188.573 178.939 189.71 179.283 190.861 179.508C191.746 179.687 192.658 179.687 193.529 179.852C194.89 180.106 196.252 180.451 197.614 180.765C197.642 180.765 197.67 180.795 197.684 180.78C199.664 180.496 201.362 181.827 203.3 181.827C203.707 181.827 204.114 182.142 204.521 182.291C204.83 182.396 205.153 182.456 205.462 182.546C206.122 182.725 206.796 182.89 207.455 183.084C207.75 183.174 208.017 183.413 208.312 183.473C209.575 183.758 210.867 183.922 212.116 184.251C214.615 184.925 217.086 185.658 219.571 186.391C220.231 186.586 220.877 187.035 221.537 187.05C222.323 187.065 222.828 187.424 223.264 187.783C223.179 188.456 222.997 189.04 223.067 189.578C223.306 191.15 223.643 192.721 223.937 194.277C224.274 196.043 224.639 197.794 224.962 199.559C225.257 201.13 225.103 202.806 225.903 204.258C226.394 205.156 226.9 206.038 227.461 206.891C228.009 207.729 228.641 208.493 229.188 209.33C229.609 209.974 229.89 210.752 230.381 211.321C230.915 211.934 231.659 212.353 232.249 212.922C234.13 214.687 235.913 216.558 237.864 218.234C238.875 219.102 240.125 219.7 241.304 220.314C242.413 220.897 243.578 221.376 244.729 221.855C245.151 222.035 245.642 222.005 246.077 222.169C247.186 222.618 248.267 223.142 249.362 223.621C249.517 223.681 249.727 223.711 249.868 223.651C251.201 223.157 251.903 224.668 253.153 224.623C253.167 224.608 253.237 224.414 253.293 224.294C253.644 224.683 253.813 225.027 254.051 225.117C254.753 225.357 255.497 225.491 256.227 225.656C257.884 226.015 259.358 226.733 260.594 227.841C260.467 228.125 260.369 228.334 260.271 228.559C260.509 228.574 260.762 228.679 260.973 228.604C262.363 228.155 263.837 228.14 265.212 227.466C266.434 226.868 267.852 226.688 269.171 226.344C270.407 226.03 270.716 226.165 271.249 227.018C271.741 227.092 272.204 227.257 272.653 227.437C273.229 227.661 273.79 227.945 274.394 228.14C274.984 228.319 275.545 228.993 275.405 229.487C275.25 230.025 275.026 230.549 274.885 231.103C274.843 231.282 274.942 231.566 275.068 231.686C275.973 232.567 276.905 233.42 277.862 234.245V234.245Z" fill="url(#paint0_linear_1303_3275)"/>
<path d="M209.253 187.006L206.726 186.767C206.08 186.109 205.996 185.016 206.248 184.103C206.501 183.191 207.049 182.413 207.568 181.634C210.587 177.011 212.131 174.242 212.931 168.691L212.187 165.728C209.857 166.461 207.47 165.04 205.406 163.678C204.367 162.99 203.286 162.242 202.795 161.044C201.854 158.725 201.981 158.052 203.637 156.241L205.673 153.413C210.867 139.811 220.751 128.319 233.007 121.63L238.96 120.104C236.461 117.949 235.029 114.717 233.681 111.605C233.274 110.662 232.853 109.659 232.923 108.612C233.035 107.011 234.355 105.694 235.815 105.32C237.275 104.946 238.847 105.365 240.195 106.098C243.059 107.624 245.151 110.393 247.144 113.086" stroke="#1D1D1B" stroke-width="1.5" stroke-miterlimit="10"/>
<path d="M273.833 115.374C276.669 116.541 279.49 117.724 282.326 118.891C283.141 119.22 283.969 119.564 284.643 120.148C285.331 120.731 285.822 121.524 286.299 122.302C286.973 123.425 287.647 124.592 287.872 125.909L288.209 129.455C287.198 129.53 286.356 130.428 286.061 131.46C285.766 132.493 285.906 133.615 286.201 134.647C286.791 136.772 287.956 138.703 289.514 140.154C291.143 141.68 293.165 142.653 294.877 144.075C296.375 145.331 297.603 146.879 298.485 148.624C298.879 149.402 299.215 150.27 299.103 151.152C298.836 153.187 296.534 153.995 294.653 154.355C294.653 154.355 292.996 152.664 293.221 153.128C295.986 158.844 298.738 164.575 301.504 170.291C303.203 173.822 304.957 177.518 305 181.499C305.014 183.01 304.761 184.566 303.989 185.823L300.76 188.143C298.485 187.02 296.225 185.883 293.951 184.761C293.389 184.476 292.786 184.192 292.168 184.267C291.508 184.342 290.96 184.821 290.497 185.314C289.143 186.727 288.075 188.389 287.352 190.208C286.679 191.883 286.089 193.904 284.488 194.517C282.818 195.161 281.063 193.874 279.884 192.467C277.946 190.163 278.746 187.305 278.087 184.297L276.472 184.806C274.029 186.96 271.348 188.906 268.343 189.953C260.917 192.542 252.9 189.325 245.754 185.958C243.677 184.985 243.27 183.324 240.995 183.19L238.524 184.282C238.117 187.215 237.331 190.447 234.972 191.988C233.316 193.066 231.07 193.006 229.455 191.854C227.841 190.701 226.956 188.487 227.279 186.452L226.479 184.746C223.123 181.469 219.206 182.247 215.43 184.94C213.872 186.048 212.313 187.709 210.46 187.409C209.842 187.305 209.253 186.99 208.635 187.02M247.257 114.31C246.751 109.402 247.313 104.374 248.913 99.7349C249.629 97.6709 250.991 95.3659 253.055 95.4249C255.133 95.5009 256.368 97.9399 256.873 100.095C258.025 104.958 257.758 110.18 256.157 114.879" stroke="#1D1D1B" stroke-width="1.5" stroke-miterlimit="10"/>
<path d="M269.13 118.112C269.242 114.626 272.092 112.037 274.689 109.927C276.177 108.715 277.665 107.518 279.153 106.306C279.94 105.663 280.81 104.825 280.698 103.777C280.543 102.415 278.887 101.952 277.595 102.086C274.984 102.371 272.597 103.762 270.295 105.109C267.262 106.905 264.216 108.685 261.183 110.481C259.316 111.588 257.393 112.725 256.059 114.506M233.681 168.179C233.807 166.653 234.284 165.187 234.762 163.735C236.138 159.605 237.584 155.415 240.026 151.869C242.469 148.338 246.077 145.479 250.177 145.075M265.016 142.834C267.445 142.834 270.983 143.717 272.836 145.378C274.689 147.039 274.928 147.952 276.303 150.091C279.743 155.463 282.944 161.853 281.582 168.197C281.61 168.527 282.158 168.227 282.059 167.898M242.469 141.217C241.571 141.053 240.756 142.16 241.009 143.088C241.262 144.015 242.329 144.524 243.199 144.255C244.07 143.985 244.687 143.073 244.828 142.115C244.87 141.876 244.87 141.636 244.842 141.412C244.77 140.95 244.524 140.532 244.154 140.245C243.438 139.676 242.301 139.796 241.739 140.544C241.178 141.292 241.318 142.534 242.076 143.058C243.003 143.716 244.491 142.833 244.463 141.651C244.435 140.469 242.918 139.676 242.02 140.379C241.599 140.708 241.374 141.232 241.22 141.756C241.037 142.399 241.023 143.237 241.557 143.596C242.09 143.956 242.904 142.998 242.357 142.654M272.724 136.831C271.839 136.981 271.025 137.714 270.899 138.657C270.772 139.599 271.474 140.617 272.359 140.647C273.777 140.677 274.352 138.552 273.805 137.16C273.664 136.801 273.44 136.427 273.089 136.367C272.878 136.322 272.667 136.412 272.485 136.502C271.306 137.115 270.618 138.761 271.179 140.033C271.741 141.305 273.608 141.694 274.464 140.632C275.321 139.569 274.422 137.519 273.117 137.699" stroke="#1D1D1B" stroke-width="1.5" stroke-miterlimit="10"/>
<path d="M263.738 151.795C265.086 153.62 263.977 158.154 261.801 158.334C258.909 158.573 254.529 154.518 255.708 151.69C256.508 149.715 262.503 150.104 263.738 151.795V151.795Z" fill="#1D1D1B"/>
<path d="M257.239 167.177C257.8 168.015 258.376 168.868 258.937 169.706C259.766 170.933 260.805 172.295 262.237 172.31C262.925 172.31 263.57 171.981 264.188 171.637C266.589 170.245 268.737 168.359 270.492 166.13M151.159 172.597C149.404 171.415 147.635 170.248 145.88 169.066C144.953 168.437 143.985 167.809 142.889 167.644C141.879 167.495 140.854 167.749 139.871 168.003C137.611 168.602 135.365 169.185 133.118 169.784C131.925 170.098 130.732 170.412 129.51 170.472C128.134 170.547 126.759 170.308 125.397 170.068L118.77 168.901M118.63 168.689C111.779 166.864 104.198 165.113 97.936 168.6C88.853 173.672 86.859 187.364 78.253 193.335C73.27 196.791 66.994 197.031 61.153 198.228C55.313 199.44 50.273 199.619 48.49 205.665L47.044 208.134C43.914 215.496 44.405 224.489 48.336 231.417C49.164 232.884 50.189 234.305 51.636 235.053C53.081 235.801 55.019 235.682 56.058 234.38L58.304 230.669C59.174 228.888 59.539 226.868 60.368 225.058C61.266 223.082 62.684 221.451 64.13 219.895C65.506 218.414 66.98 216.962 68.82 216.244C70.658 215.526 71.065 214.837 72.357 216.394L73.649 217.441C74.926 217.965 75.937 219.042 77.159 219.73C79.222 220.883 81.749 220.763 83.953 219.985C86.157 219.192 88.137 217.8 90.06 216.409M128.19 238.989C129.679 240.127 131.77 239.842 133.469 239.109C135.168 238.376 136.726 237.224 138.495 236.715C141.275 235.907 144.307 236.745 146.778 238.316C149.249 239.902 151.271 242.162 153.222 244.421C156.072 247.713 159.217 251.275 163.387 251.933C164.973 252.187 166.601 251.993 168.202 252.187C169.802 252.397 171.487 253.115 172.231 254.641" stroke="#1D1D1B" stroke-width="1.5" stroke-miterlimit="10"/>
<path d="M155.202 246.664C154.009 250.539 151.903 256.061 150.709 259.952C149.628 263.438 148.561 266.94 147.944 270.561C147.284 274.406 147.817 276.486 146.315 280.048L145.711 282.621C144.055 285.689 144.911 289.565 146.119 292.872C147.326 296.164 148.926 297.899 148.561 301.416L148.632 303.286C148.295 305.232 149.109 307.551 147.845 309.017C147.129 309.855 145.95 310.05 144.897 309.915C143.844 309.781 142.833 309.377 141.795 309.197C139.955 308.898 138.046 309.317 136.207 308.928C134.761 308.628 133.427 307.79 132.458 306.623C131.63 305.621 130.535 305.366 131.069 304.169L131.462 302.418C132.079 295.505 132.683 288.592 133.301 281.679C133.708 277.07 134.115 272.476 134.424 267.867C135.042 258.59 135.238 249.103 132.908 240.14M111.302 212.16C113.365 214.48 115.415 216.799 117.479 219.118C119.402 221.288 121.382 223.548 122.266 226.376L123.853 233.064C124.442 235.997 126.534 238.317 127.517 241.115C128.724 244.601 128.106 248.462 127.475 252.113C126.534 257.485 126.043 260.313 125.116 265.685L124.555 268.319C123.895 274.439 123.221 280.559 122.561 286.664C122.336 288.729 122.112 290.824 121.424 292.769C120.525 295.358 118.827 297.663 118.504 300.401C118.293 302.137 118.672 303.902 119.037 305.608L120.469 312.252L120.89 314.332C121.129 317.609 120.876 317.639 120.624 320.916C120.455 323.011 120.09 325.3 118.602 326.677C117.226 327.949 115.233 328.114 113.408 328.009C109.856 327.784 107.202 327.979 105.251 324.822L103.875 323.146C101.165 320.018 100.435 315.529 99.8039 311.324C99.2699 307.673 98.7369 304.022 98.1889 300.386C97.6279 296.57 97.0659 292.71 97.2339 288.849C97.3889 285.632 98.0489 282.444 98.2589 279.227C98.4839 275.86 98.2029 272.494 97.9219 269.142L96.7429 254.822C96.4199 250.946 96.0549 246.891 94.1029 243.614C93.1909 242.073 91.9559 240.756 91.2399 239.11C88.5719 233.034 93.6259 224.879 89.8779 219.492M245.642 265.847C244.463 269.139 244.94 272.82 245.179 276.337C245.937 287.874 243.817 299.815 247.116 310.828L247.242 312.055C247.383 314.359 248.674 316.394 250.078 318.145C251.482 319.896 253.083 321.527 254.065 323.592C254.781 325.073 255.132 326.734 255.441 328.365C255.666 329.562 255.848 330.834 255.385 331.942L253.644 335.488C249.615 339.034 244.533 342.82 239.591 340.995C238.243 340.501 237.064 339.618 235.955 338.675C233.961 336.999 232.052 335.024 231.196 332.465C230.339 329.937 230.62 327.168 230.536 324.49C230.325 317.202 227.433 310.319 224.345 303.795C223.53 302.074 222.688 300.353 222.239 298.483C221.396 294.951 222.028 291.255 222.281 287.619C222.631 282.528 222.214 277.413 221.045 272.446M271.404 249.853C269.495 254.597 268.021 259.639 267.95 264.817C267.922 267.256 268.189 269.68 268.175 272.119C268.147 275.067 267.908 276.473 267.431 279.376L267.01 281.396C266.083 285.107 266.94 289.043 268.189 292.649C269.439 296.24 271.081 299.727 271.755 303.483C272.443 307.254 273.412 311.324 270.969 314.122L269.593 314.526C266.729 315.514 263.64 316.007 260.692 315.334C257.744 314.661 254.964 312.7 253.715 309.783C253.069 308.271 252.858 306.595 252.648 304.949C251.595 296.525 250.528 288.1 249.475 279.676C249.026 276.054 248.562 272.373 248.899 268.737M277.848 194.067C276.824 199.155 276.176 204.312 275.91 209.495C275.854 210.632 275.812 211.814 276.219 212.877C276.514 213.655 277.019 214.313 277.37 215.061C278.732 217.875 277.819 221.271 276.949 224.294C276.079 227.317 275.32 230.803 276.893 233.482M173.439 210.469C172.934 210.11 171.067 209.826 170.449 209.855C169.227 209.945 168.203 210.873 167.43 211.89C166.89 212.601 166.429 213.369 166.055 214.18C165.002 216.424 164.623 219.073 165.254 221.497C165.9 223.906 167.641 226.031 169.901 226.749C169.901 226.749 171.432 227.198 172.892 226.196M172.892 219.91C172.807 223.636 172.695 228.769 172.625 232.48M169.592 219.581C171.712 219.955 175.152 220 177.285 219.716M180.515 215.615C180.29 217.904 180.065 220.179 179.841 222.468C179.742 223.486 179.644 224.533 179.883 225.536C180.136 226.523 180.795 227.466 181.736 227.705C182.536 227.9 183.379 227.541 183.982 226.957C184.586 226.374 184.993 225.581 185.316 224.787C186.527 221.817 186.915 218.576 186.439 215.405M191.648 214.717C191.561 219.278 191.313 223.835 190.904 228.379M209.337 222.066C211.401 222.291 214.124 222.575 216.202 222.785M197.109 229.053C199.86 228.889 203.735 229.413 203.735 223.322C203.735 221.766 203.3 220.255 202.809 218.803C202.556 218.07 202.303 217.307 201.854 216.694C200.983 215.496 199.411 214.943 198.049 215.362L197.628 216.319C197.46 220.09 197.277 223.861 197.109 227.647C197.123 227.437 197.151 227.243 197.165 227.033L197.109 229.053Z" stroke="#1D1D1B" stroke-width="1.5" stroke-miterlimit="10"/>
<path d="M216.792 232.854C214.461 232.569 212.117 232.3 209.786 232.016L208.916 230.445C208.902 230.654 208.93 230.235 208.916 230.445C209.042 225.911 208.958 221.975 208.719 217.441C208.663 216.319 208.916 214.538 208.916 214.538C211.194 214.304 213.49 214.309 215.767 214.553M104.577 114.866C128.261 142.654 154.738 167.748 183.392 189.595M104.226 114.057C107.314 112.755 110.277 111.109 113.295 109.642C122.996 104.914 133.441 101.951 144.069 100.904M144.939 100.919C154.655 116.766 165.507 131.819 177.384 145.9C183.449 153.098 189.794 160.056 195.143 167.867C198.776 173.191 201.906 178.842 204.493 184.746M109.94 118.755C121.977 114.183 134.314 110.443 146.863 107.562" stroke="#1D1D1B" stroke-width="1.5" stroke-miterlimit="10"/>
<path d="M86.9299 94.933C90.4109 97.731 93.5279 100.993 96.6449 104.27L100.435 108.265C102.303 110.221 104.157 112.192 105.995 114.176C106.163 114.371 106.416 114.565 106.641 114.445C106.851 114.311 106.514 113.877 106.444 114.131M144.883 102.101C143.395 99.737 141.135 98.061 139.001 96.355C133.048 91.567 127.671 86.015 122.308 80.494M87.9549 94.006C91.2949 93.781 93.9209 91.028 96.9679 89.546C99.0029 88.559 101.222 88.156 103.398 87.631C109.735 86.0895 115.773 83.5111 121.269 80M232.164 239.437C230.199 238.749 228.556 240.904 228.332 242.011C227.948 243.865 227.704 245.746 227.602 247.637C227.503 249.283 227.546 251.019 228.29 252.471C228.57 253.009 228.964 253.503 229.497 253.713C230.311 254.027 231.21 253.608 231.898 253.054C233.526 251.752 234.607 249.702 234.79 247.532C234.748 250.316 234.748 253.099 234.804 255.867M231.631 245.724C233.617 247.078 235.89 247.953 238.271 248.282M204.171 251.168C204.171 251.168 204.606 256.255 204.901 256.435C205.196 256.615 205.561 256.6 205.897 256.54C208.719 256.121 211.204 253.712 211.85 250.749C212.496 247.786 211.288 244.464 208.93 242.743C207.287 241.546 205.532 240.648 204.185 242.22V251.168H204.171V251.168ZM216.918 242.086C215.374 244.421 215.107 247.428 215.065 250.286C215.051 250.99 215.065 251.738 215.416 252.336C216.005 253.309 217.269 253.474 218.35 253.429C219.359 253.391 220.364 253.271 221.354 253.07C221.972 252.95 222.59 252.785 223.109 252.411C224.05 251.738 224.499 250.466 224.485 249.254C224.471 248.042 224.078 246.875 223.643 245.767C223.179 244.6 222.646 243.403 221.719 242.595C220.793 241.787 220.161 241.188 218.56 241.413L216.918 242.086V242.086Z" stroke="#1D1D1B" stroke-width="1.5" stroke-miterlimit="10"/>
<defs>
<filter id="filter0_d_1303_3275" x="0" y="0" width="353" height="456" filterUnits="userSpaceOnUse" color-interpolation-filters="sRGB">
<feFlood flood-opacity="0" result="BackgroundImageFix"/>
<feColorMatrix in="SourceAlpha" type="matrix" values="0 0 0 0 0 0 0 0 0 0 0 0 0 0 0 0 0 0 127 0" result="hardAlpha"/>
<feOffset dx="2" dy="17"/>
<feGaussianBlur stdDeviation="9"/>
<feColorMatrix type="matrix" values="0 0 0 0 0.769141 0 0 0 0 0.769141 0 0 0 0 0.769141 0 0 0 0.35 0"/>
<feBlend mode="normal" in2="BackgroundImageFix" result="effect1_dropShadow_1303_3275"/>
<feBlend mode="normal" in="SourceGraphic" in2="effect1_dropShadow_1303_3275" result="shape"/>
</filter>
<linearGradient id="paint0_linear_1303_3275" x1="261.5" y1="279" x2="148" y2="155" gradientUnits="userSpaceOnUse">
<stop stop-color="#FA24BF"/>
<stop offset="0.71875" stop-color="#FE8EF3"/>
</linearGradient>
</defs>
</svg>
