<svg width="559" height="756" viewBox="0 0 559 756" fill="none" xmlns="http://www.w3.org/2000/svg">
<g filter="url(#filter0_d_2504_3088)">
<rect x="238.4" y="153.999" width="317" height="500" rx="14.0178" transform="rotate(16.6664 238.4 153.999)" fill="white"/>
</g>
<path d="M141.017 604.929C140.076 605.437 139.115 606.389 138.353 607.927L141.995 608.942C144.006 609.507 145.061 609.747 145.389 609.658C146.236 607.581 145.693 605.127 143.796 604.559C143.037 604.332 142.048 604.373 141.017 604.929ZM146.855 617.688C144.764 620.406 141.502 621.384 138.743 620.558C134.088 619.164 132.557 614.61 133.807 610.437C135.201 605.781 139.35 602.589 144.075 604.003C147.662 605.077 149.433 608.2 148.71 610.614C148.596 610.994 148.424 611.318 148.293 611.504L138.14 608.389C137.926 608.852 137.737 609.359 137.561 609.945C136.137 614.704 138.179 617.42 141.007 618.267C143.146 618.907 145.163 618.571 146.748 617.543L146.855 617.688ZM172.128 603.383C171.911 604.107 171.184 604.528 169.798 605.015L167.478 605.861C166.092 606.348 164.641 606.928 163.372 607.526L163.241 607.336C164.365 606.47 165.519 605.5 166.581 604.465L168.462 602.699C169.569 601.64 170.251 601.243 171.01 601.47C171.872 601.728 172.355 602.624 172.128 603.383ZM160.66 610.81C159.719 611.317 158.758 612.27 157.997 613.808L161.639 614.823C163.649 615.387 164.704 615.628 165.032 615.538C165.879 613.462 165.336 611.007 163.439 610.439C162.681 610.212 161.691 610.254 160.66 610.81ZM166.499 623.568C164.407 626.287 161.146 627.264 158.387 626.438C153.731 625.045 152.201 620.49 153.45 616.317C154.844 611.662 158.994 608.47 163.718 609.884C167.305 610.958 169.076 614.081 168.353 616.495C168.24 616.874 168.067 617.199 167.936 617.385L157.783 614.27C157.57 614.732 157.38 615.239 157.205 615.826C155.78 620.585 157.823 623.301 160.651 624.147C162.789 624.788 164.806 624.452 166.392 623.424L166.499 623.568ZM175.223 631.404C174.464 631.176 173.615 630.622 173.229 629.905C172.697 628.919 172.607 628.215 173.206 626.215L176.148 616.386C176.448 615.386 176.42 615.227 176.023 614.921L174.847 614.08L174.909 613.873L180.182 614.963L180.255 615.098C180.086 615.536 179.563 617.032 179.263 618.033L177.198 624.93C176.661 626.724 176.417 628.041 176.828 628.803C177.215 629.52 177.794 629.843 178.725 630.122C179.829 630.453 180.815 630.297 181.956 630L185.219 619.102C185.518 618.101 185.49 617.943 185.094 617.636L183.917 616.796L183.979 616.589L189.252 617.679L189.325 617.813C189.156 618.251 188.622 619.782 188.323 620.783L185.029 631.784C184.782 632.612 184.868 632.826 185.74 633.049L186.647 633.283L186.61 633.535L180.882 633.211L180.81 633.076C181.002 632.683 181.085 632.407 181.264 631.935L181.722 630.531L181.605 630.421C178.871 631.519 177.085 631.961 175.223 631.404ZM194.05 636.288L193.978 636.53L187.701 634.651L187.773 634.409L188.311 634.495C189.205 634.65 189.339 634.577 189.504 634.026L192.798 623.024C192.984 622.403 192.97 621.948 192.776 621.59L192.017 620.235L192.048 620.131L197.537 619.746L197.61 619.88C197.417 620.273 197.248 620.711 197.069 621.184L196.611 622.587L196.729 622.698C199.462 621.6 201.179 621.137 203.042 621.694C203.8 621.921 204.476 622.424 204.863 623.141C205.25 623.858 205.271 624.541 205.106 625.469C207.15 624.54 209.56 623.645 211.767 624.306C212.526 624.533 213.202 625.036 213.588 625.753C214.023 626.56 214.076 627.515 213.508 629.412L210.266 640.241C210.101 640.793 210.173 640.927 211.004 641.289L211.501 641.513L211.429 641.754L205.152 639.875L205.224 639.634L205.762 639.72C206.655 639.874 206.79 639.802 206.955 639.25L209.516 630.697C210.052 628.904 210.424 627.662 209.941 626.766C209.627 626.183 209.127 625.846 208.333 625.608C207.23 625.278 205.871 625.548 205.047 625.789C204.927 626.317 204.751 626.903 204.535 627.628L201.54 637.629C201.375 638.181 201.448 638.315 202.279 638.677L202.776 638.901L202.703 639.142L196.427 637.263L196.499 637.022L197.037 637.107C197.93 637.262 198.064 637.19 198.23 636.638L200.79 628.085C201.327 626.291 201.699 625.05 201.215 624.154C200.901 623.571 200.401 623.233 199.608 622.996C198.504 622.666 197.518 622.821 196.377 623.119L192.815 635.017C192.65 635.569 192.722 635.703 193.554 636.065L194.05 636.288ZM221.994 629.698C221.097 629.429 220.359 629.509 219.953 629.613L220.102 631.875C220.02 632.151 218.02 632.303 217.226 632.066C216.709 631.911 216.426 631.601 216.602 631.015C216.715 630.635 217.339 630.183 218.235 629.7C220.207 628.637 223.434 627.649 225.055 628.134C226.366 628.526 227.169 629.105 227.58 629.867C228.136 630.898 227.985 632.281 227.458 634.039L225.084 641.972C224.836 642.799 224.867 643.448 225.109 643.896C225.302 644.254 225.675 644.516 226.089 644.64C226.433 644.743 226.889 644.729 227.351 644.567L227.413 644.736C226.717 645.429 224.945 646.327 223.462 645.883C222.324 645.542 221.175 644.484 221.439 642.722L221.346 642.656L220.526 643.012C218.94 643.665 217.813 644.041 216.226 643.566C214.295 642.988 213.583 640.971 214.048 639.419C214.285 638.626 214.702 638.112 215.375 637.75C216.136 637.339 217.574 637.055 220.484 636.874L223.167 636.7L224.158 633.39C224.447 632.424 224.402 631.696 224.088 631.114C223.725 630.442 222.994 629.997 221.994 629.698ZM221.484 642.322L223.033 637.149C221.464 637.243 219.985 637.288 218.999 637.82C218.461 638.11 218.065 638.555 217.868 639.21C217.414 640.728 218.249 641.955 219.456 642.316C220.25 642.554 220.794 642.491 221.484 642.322ZM246.298 643.926C247.63 639.477 245.711 636.347 243.263 635.614C242.09 635.263 241.025 635.433 240.414 635.588L237.929 643.638C236.522 648.214 238.026 649.717 239.75 650.233C241.889 650.873 244.874 648.685 246.298 643.926ZM250.102 644.276C248.739 648.828 243.7 651.979 238.768 650.503C237.871 650.234 237.074 649.883 236.264 649.452L234.343 655.867C234.178 656.419 234.24 656.588 235.082 656.915L236.165 657.314L236.093 657.556L229.23 655.501L229.302 655.26L229.84 655.345C230.733 655.5 230.867 655.428 231.033 654.876L236.649 636.115C236.815 635.563 236.821 635.039 236.628 634.68L235.868 633.325L235.899 633.222L241.389 632.836L241.485 633.015C241.41 633.143 241.124 633.847 240.945 634.319L240.649 635.057L240.766 635.167C242.724 634.401 244.755 634.144 246.065 634.537C249.549 635.58 251.527 639.516 250.102 644.276ZM258.679 640.154C257.738 640.662 256.777 641.614 256.016 643.152L259.657 644.168C261.668 644.732 262.723 644.973 263.051 644.883C263.898 642.807 263.355 640.352 261.458 639.784C260.7 639.557 259.71 639.599 258.679 640.154ZM264.517 652.913C262.426 655.631 259.165 656.609 256.406 655.783C251.75 654.389 250.22 649.835 251.469 645.662C252.863 641.006 257.012 637.814 261.737 639.229C265.324 640.302 267.095 643.425 266.372 645.84C266.258 646.219 266.086 646.543 265.955 646.729L255.802 643.615C255.589 644.077 255.399 644.584 255.224 645.17C253.799 649.929 255.842 652.645 258.67 653.492C260.808 654.132 262.825 653.797 264.41 652.768L264.517 652.913ZM273.052 657.422C273.527 655.836 272.644 654.519 271.036 652.609C268.814 649.99 267.94 648.263 268.58 646.125C269.334 643.607 272.202 642.437 275.306 643.366C276.858 643.831 278.124 644.623 278.676 645.164C278.625 645.712 278.153 647.788 277.957 648.444L277.626 648.42C277.104 645.52 276.062 644.231 274.82 643.859C273.199 643.374 272.2 644.202 271.849 645.375C271.394 646.892 272.195 648.109 273.648 649.784C276.387 652.934 276.961 654.534 276.341 656.603C275.484 659.465 272.316 660.508 269.143 659.559C267.66 659.115 266.249 658.429 265.118 657.564C265.207 656.389 265.526 654.192 265.843 653.009L266.174 653.033C266.666 656.412 267.836 658.528 269.905 659.148C271.215 659.54 272.567 659.043 273.052 657.422ZM285.265 661.078C285.74 659.492 284.856 658.175 283.249 656.266C281.026 653.646 280.153 651.919 280.793 649.781C281.547 647.263 284.415 646.093 287.519 647.022C289.071 647.487 290.337 648.279 290.889 648.82C290.837 649.368 290.366 651.445 290.17 652.1L289.839 652.076C289.317 649.176 288.275 647.887 287.033 647.516C285.412 647.03 284.413 647.858 284.062 649.031C283.607 650.548 284.408 651.765 285.861 653.44C288.6 656.59 289.174 658.19 288.554 660.259C287.697 663.122 284.529 664.165 281.356 663.215C279.873 662.771 278.462 662.086 277.331 661.221C277.42 660.045 277.739 657.848 278.056 656.665L278.387 656.689C278.878 660.068 280.049 662.185 282.118 662.804C283.428 663.196 284.78 662.699 285.265 661.078ZM301.956 651.269C306.784 652.714 308.383 657.665 307.155 661.769C306.411 664.252 304.809 666.215 302.748 667.327C300.955 668.293 298.89 668.539 296.51 667.827C291.682 666.381 290.083 661.431 291.311 657.327C292.055 654.844 293.657 652.881 295.718 651.769C297.511 650.803 299.576 650.557 301.956 651.269ZM297.065 667.354C298.582 667.808 299.892 667.073 300.995 665.9C301.932 664.903 302.711 663.558 303.506 660.902C304.652 657.074 304.16 652.568 301.401 651.742C299.883 651.287 298.573 652.023 297.471 653.196C296.533 654.193 295.755 655.538 294.96 658.193C293.814 662.022 294.306 666.528 297.065 667.354ZM315.567 657.711C314.67 657.443 313.933 657.523 313.526 657.626L313.675 659.888C313.593 660.164 311.593 660.317 310.8 660.08C310.282 659.925 309.999 659.615 310.175 659.028C310.289 658.649 310.912 658.197 311.809 657.714C313.78 656.65 317.007 655.662 318.628 656.148C319.939 656.54 320.743 657.119 321.153 657.881C321.709 658.911 321.558 660.294 321.032 662.053L318.657 669.985C318.409 670.813 318.44 671.461 318.682 671.909C318.875 672.268 319.248 672.53 319.662 672.653C320.007 672.757 320.462 672.743 320.924 672.58L320.986 672.749C320.29 673.443 318.518 674.34 317.035 673.896C315.897 673.556 314.748 672.498 315.013 670.735L314.919 670.67L314.099 671.026C312.513 671.678 311.386 672.055 309.799 671.58C307.868 671.002 307.157 668.985 307.621 667.433C307.859 666.64 308.276 666.126 308.948 665.763C309.71 665.352 311.147 665.069 314.058 664.888L316.74 664.714L317.731 661.403C318.02 660.437 317.975 659.71 317.661 659.127C317.299 658.455 316.567 658.011 315.567 657.711ZM315.057 670.335L316.606 665.162C315.037 665.256 313.558 665.302 312.572 665.834C312.034 666.124 311.638 666.569 311.442 667.224C310.987 668.741 311.823 669.968 313.03 670.33C313.823 670.567 314.368 670.505 315.057 670.335ZM334.957 676.932C336.785 677.479 338.175 677.106 339.388 676.567L339.474 676.781C337.365 678.555 334.859 679.27 332.376 678.526C327.823 677.164 326.245 672.52 327.525 668.243C328.867 663.76 333.431 660.692 338.639 662.251C341.673 663.16 343.057 664.814 342.634 666.228C342.365 667.125 341.3 667.67 340.576 667.453C340.231 667.35 339.996 667.129 339.592 666.219L338.584 663.813C338.229 662.993 338.087 662.837 337.639 662.703C335.949 662.197 332.626 663.382 331.221 668.072C329.755 672.97 332.267 676.127 334.957 676.932ZM349.154 667.24C348.213 667.748 347.251 668.7 346.49 670.238L350.132 671.254C352.143 671.818 353.198 672.059 353.526 671.969C354.373 669.893 353.83 667.438 351.933 666.87C351.174 666.643 350.185 666.685 349.154 667.24ZM354.992 679.999C352.901 682.717 349.639 683.695 346.88 682.869C342.224 681.475 340.694 676.921 341.944 672.748C343.337 668.092 347.487 664.9 352.212 666.315C355.799 667.388 357.569 670.511 356.847 672.925C356.733 673.305 356.561 673.629 356.43 673.815L346.277 670.701C346.063 671.163 345.874 671.67 345.698 672.256C344.274 677.015 346.316 679.731 349.144 680.578C351.283 681.218 353.3 680.882 354.885 679.854L354.992 679.999ZM366.085 671.069C364.464 670.584 362.761 672.254 361.997 674.806C361.078 677.875 361.597 680.285 363.563 680.874C365.391 681.421 366.476 680.055 367.24 677.503C368.169 674.399 368.154 671.688 366.085 671.069ZM365.667 693.679C363.56 694.814 360.968 695.316 357.967 694.418C354.691 693.437 352.869 690.862 353.581 688.482C354.025 686.999 355.48 685.781 357.91 685.194C357.365 684.88 356.861 684.429 356.596 683.936C356.209 683.219 356.126 682.367 356.343 681.643C356.683 680.505 358.383 679.849 360.01 679.434C358.644 677.973 358.184 675.994 358.721 674.201C359.63 671.166 362.642 669.512 366.298 670.607C368.229 671.185 368.871 672.053 370.63 672.58C371.63 672.879 372.761 672.993 374.472 673.054C374.693 673.571 374.665 674.164 374.552 674.543C374.314 675.336 373.663 675.63 373.008 675.434C372.249 675.207 371.521 674.5 370.876 673.894L370.313 673.387L370.203 673.504C371.08 674.969 371.015 676.566 370.705 677.601C369.807 680.601 366.753 682.392 363.028 681.277C361.925 680.947 360.997 680.406 360.293 679.744C359.514 679.962 359.097 680.476 358.953 680.959C358.756 681.614 359.05 682.266 360.395 682.668C361.498 682.999 363.071 683.394 364.761 683.9C367.382 684.685 368.489 685.505 369.118 686.67C369.553 687.477 369.726 688.656 369.395 689.76C368.817 691.691 367.145 692.881 365.667 693.679ZM360.873 693.371C364.564 694.476 366.452 692.937 366.999 691.109C367.227 690.35 367.247 689.53 366.933 688.947C366.498 688.141 365.856 687.648 362.718 686.708C361.373 686.306 360.017 685.937 358.81 685.576C358.672 685.535 358.534 685.494 358.407 685.418C357.714 685.849 357.163 686.436 356.874 687.401C356.161 689.781 357.597 692.39 360.873 693.371ZM379.865 676.961C378.968 676.692 378.23 676.772 377.823 676.876L377.973 679.137C377.89 679.413 375.891 679.566 375.097 679.329C374.58 679.174 374.297 678.864 374.473 678.277C374.586 677.898 375.21 677.446 376.106 676.963C378.078 675.9 381.305 674.912 382.926 675.397C384.236 675.789 385.04 676.368 385.451 677.13C386.007 678.16 385.856 679.543 385.329 681.302L382.954 689.234C382.707 690.062 382.738 690.71 382.98 691.158C383.173 691.517 383.546 691.779 383.959 691.903C384.304 692.006 384.759 691.992 385.221 691.829L385.284 691.998C384.587 692.692 382.816 693.589 381.333 693.145C380.195 692.805 379.046 691.747 379.31 689.985L379.217 689.919L378.397 690.275C376.811 690.927 375.683 691.304 374.097 690.829C372.166 690.251 371.454 688.234 371.919 686.682C372.156 685.889 372.573 685.375 373.245 685.012C374.007 684.602 375.445 684.318 378.355 684.137L381.038 683.963L382.029 680.652C382.318 679.687 382.273 678.959 381.959 678.377C381.596 677.704 380.865 677.26 379.865 676.961ZM379.355 689.585L380.903 684.411C379.335 684.505 377.855 684.551 376.87 685.083C376.332 685.373 375.935 685.818 375.739 686.473C375.285 687.99 376.12 689.218 377.327 689.579C378.12 689.816 378.665 689.754 379.355 689.585Z" fill="black"/>
<path d="M409.089 491.017C409.059 491.117 409.025 491.23 408.995 491.329C407.982 491.906 407.265 492.803 406.628 493.77C406.515 493.953 406.322 494.065 406.174 494.221C405.559 494.824 404.953 495.446 404.338 496.049C403.448 496.94 402.58 497.854 401.668 498.724C401.428 498.945 401.058 499.02 400.827 499.259C400.203 499.891 399.633 500.585 399.01 501.216C398.652 501.588 398.21 501.857 397.856 502.214C397.695 502.367 397.566 502.652 397.555 502.881C397.482 504.434 396.928 504.978 395.408 505.264C394.809 505.378 394.218 505.803 393.68 506.198C393.12 506.617 392.659 507.189 392.099 507.608C391.049 508.406 390.075 509.287 388.805 509.756C387.926 510.08 387.176 510.843 386.352 511.415C385.95 511.696 385.569 511.999 385.162 512.248C385.021 512.329 384.766 512.361 384.663 512.268C384.159 511.87 383.946 512.1 383.879 512.806C383.8 512.782 383.729 512.776 383.649 512.752C383.337 512.149 383.016 511.528 382.726 510.947C382.307 510.992 381.818 511.031 381.324 511.083C381.174 511.1 380.949 511.126 380.906 511.221C380.596 511.869 379.982 511.793 379.497 511.864C378.02 512.055 376.528 512.103 375.056 512.279C373.879 512.436 372.704 512.78 371.531 512.923C369.94 513.11 368.342 513.172 366.745 513.281C366.67 513.289 366.609 513.348 366.534 513.357C365.949 513.475 365.35 513.635 364.75 513.703C364.018 513.777 363.276 513.74 362.605 513.755C362.459 514.097 362.385 514.538 362.209 514.594C361.668 514.756 361.066 514.931 360.543 514.836C359.265 514.608 358.011 514.248 356.753 513.902C356.137 513.733 355.572 513.441 354.961 513.258C353.361 512.794 351.732 512.43 350.15 511.91C348.643 511.428 347.174 510.818 345.696 510.237C345.293 510.085 344.898 509.905 344.515 509.683C343.443 509.053 342.415 508.328 341.322 507.769C340.22 507.192 339.044 506.763 337.899 506.282C336.989 505.886 336.067 505.532 335.165 505.108C333.136 504.145 331.08 503.221 329.098 502.149C327.516 501.289 326.054 500.219 324.524 499.236C324.097 499.741 323.583 500.344 323.074 500.932C323.087 500.936 323.083 500.95 323.096 500.954C322.901 501.22 322.706 501.486 322.488 501.776C321.571 501.501 320.993 502.224 320.301 502.742C320.172 502.642 320.008 502.562 319.869 502.443C318.918 501.556 317.971 500.655 317.007 499.764C315.747 498.6 314.458 497.488 313.207 496.295C311.188 494.379 309.732 491.935 307.887 489.824C305.782 487.418 304.22 484.604 302.693 481.769C302.165 480.777 301.684 479.768 301.121 478.797C300.471 477.676 299.808 476.551 299.045 475.52C298.47 474.73 297.725 474.075 297.054 473.364C295.873 472.131 294.649 470.946 293.525 469.668C293.06 469.142 292.181 468.787 292.562 467.758C292.286 467.614 292.064 467.486 291.841 467.357C291.863 467.286 291.88 467.23 291.901 467.159C292.152 467.141 292.408 467.11 292.823 467.08C291.932 466.813 292.127 466.547 292.667 466.246C293.066 466.025 293.571 465.837 293.805 465.49C294.526 464.44 294.259 463.248 294.043 462.134C293.811 460.875 293.407 459.658 293.207 458.394C293.038 457.263 293.134 456.072 292.952 454.937C292.724 453.618 293.305 452.356 293.143 451.057C293.139 451.024 293.293 450.993 293.323 450.941C293.453 450.702 293.573 450.444 293.703 450.205C293.667 450.179 293.631 450.153 293.596 450.127C293.478 450.23 293.36 450.334 293.137 450.499C293.281 449.678 293.422 448.963 293.546 448.259C293.601 448.075 293.413 447.833 293.419 447.573C293.385 446.621 293.395 445.667 293.423 444.702C293.477 442.974 293.527 441.259 293.652 439.537C293.754 438.131 293.94 436.736 294.099 435.332C294.167 434.719 294.248 434.11 294.315 433.498C294.455 431.965 295.267 430.463 294.66 428.861C294.551 428.55 294.656 428.103 294.748 427.745C294.879 427.259 295.094 426.783 295.252 426.305C295.912 424.341 295.908 422.225 296.923 420.336C297.419 419.404 297.546 418.253 297.758 417.159C298.21 414.778 298.919 412.458 299.562 410.118C299.642 409.802 299.939 409.536 300.086 409.333C300.074 409.036 300 408.751 300.059 408.507C300.184 407.942 300.438 407.385 300.506 406.819C300.727 405.017 301.36 403.338 302.082 401.701C302.49 400.773 302.894 399.86 303.386 398.988C304.216 397.523 305.336 396.638 307.046 397.12C307.232 397.175 307.468 397.014 307.68 396.985C307.861 396.962 308.054 396.896 308.214 396.944C309.065 397.245 309.947 397.494 310.751 397.905C311.995 398.539 313.187 399.298 314.397 400C315.704 400.762 316.893 401.967 318.654 401.166C318.79 401.099 319.003 401.209 319.176 401.261C319.823 401.47 320.479 401.651 321.109 401.917C321.367 402.024 321.577 402.288 321.792 402.491C322.06 402.757 322.254 403.124 322.561 403.308C323.242 403.744 323.979 404.088 324.69 404.471C325.228 404.755 325.753 405.082 326.299 405.338C327.431 405.863 328.65 406.243 329.722 406.873C331.176 407.725 332.527 408.778 333.92 409.735C334.522 410.147 335.118 410.573 335.75 410.931C336.892 411.567 338.056 412.131 339.198 412.767C340.216 413.334 341.196 413.982 342.222 414.521C343.009 414.942 343.873 415.201 344.65 415.603C345.868 416.23 347.06 416.942 348.26 417.626C348.287 417.634 348.305 417.67 348.322 417.66C350.278 417.952 351.509 419.694 353.343 420.244C353.729 420.359 354.025 420.772 354.368 421.029C354.631 421.216 354.92 421.364 355.187 421.537C355.761 421.894 356.352 422.241 356.922 422.612C357.176 422.781 357.36 423.083 357.623 423.223C358.738 423.851 359.915 424.373 361.005 425.039C363.18 426.385 365.312 427.779 367.457 429.178C368.027 429.549 368.511 430.158 369.132 430.359C369.872 430.596 370.249 431.079 370.559 431.543C370.289 432.156 369.95 432.657 369.864 433.187C369.645 434.743 369.518 436.326 369.356 437.883C369.175 439.651 369.024 441.412 368.829 443.176C368.663 444.747 368.042 446.29 368.388 447.892C368.599 448.881 368.827 449.86 369.117 450.827C369.398 451.776 369.78 452.678 370.061 453.626C370.277 454.355 370.322 455.172 370.627 455.849C370.958 456.582 371.544 457.189 371.941 457.895C373.222 460.1 374.38 462.377 375.753 464.517C376.464 465.625 377.477 466.546 378.42 467.462C379.305 468.329 380.272 469.113 381.227 469.892C381.575 470.182 382.049 470.293 382.414 470.572C383.337 471.311 384.212 472.114 385.113 472.878C385.243 472.978 385.434 473.066 385.583 473.049C386.986 472.96 387.223 474.59 388.419 474.902C388.436 474.891 388.558 474.727 388.645 474.63C388.867 475.098 388.929 475.471 389.129 475.624C389.726 476.05 390.393 476.388 391.037 476.751C392.504 477.561 393.696 478.659 394.552 480.058C394.352 480.291 394.2 480.461 394.043 480.646C394.265 480.728 394.474 480.899 394.695 480.888C396.138 480.857 397.539 481.26 399.032 481.013C400.359 480.792 401.752 481.024 403.099 481.072C404.358 481.125 404.613 481.34 404.876 482.299C405.32 482.509 405.712 482.796 406.087 483.094C406.568 483.469 407.019 483.898 407.536 484.253C408.043 484.59 408.384 485.387 408.111 485.815C407.812 486.281 407.451 486.714 407.161 487.198C407.07 487.356 407.083 487.653 407.169 487.802C407.787 488.929 408.431 489.971 409.089 491.017Z" fill="#E18CB7"/>
<path d="M357.512 426.835L355.187 425.892C354.762 425.086 354.992 424.027 355.49 423.235C355.988 422.442 356.727 421.86 357.44 421.271C361.609 417.748 363.856 415.564 366.187 410.534L366.323 407.518C363.908 407.552 362.051 405.529 360.483 403.654C359.694 402.708 358.883 401.693 358.757 400.42C358.523 397.957 358.834 397.355 360.916 396.111L363.645 394.01C372.42 382.602 385.037 374.522 398.539 371.662L404.609 371.904C402.853 369.156 402.413 365.689 402.019 362.36C401.901 361.351 401.787 360.283 402.15 359.311C402.71 357.826 404.333 356.954 405.822 357.013C407.31 357.073 408.681 357.915 409.749 358.992C412.028 361.249 413.224 364.463 414.349 367.579" stroke="#1D1D1B" stroke-width="1.5" stroke-miterlimit="10"/>
<path d="M438.972 377.312C441.327 379.221 443.664 381.14 446.018 383.05C446.696 383.592 447.383 384.153 447.855 384.896C448.341 385.644 448.582 386.534 448.813 387.407C449.133 388.66 449.44 389.957 449.28 391.267L448.593 394.721C447.615 394.505 446.563 395.117 445.991 396.011C445.419 396.905 445.234 398.007 445.22 399.069C445.176 401.248 445.733 403.406 446.797 405.222C447.906 407.129 449.545 408.623 450.764 410.455C451.812 412.035 452.54 413.859 452.891 415.786C453.042 416.634 453.115 417.551 452.759 418.355C451.929 420.207 449.52 420.319 447.637 420.126C447.637 420.126 446.547 418.055 446.629 418.558C447.627 424.755 448.608 430.962 449.607 437.159C450.214 440.984 450.828 444.982 449.739 448.763C449.324 450.198 448.644 451.6 447.556 452.571L443.841 453.852C442.006 452.145 440.188 450.427 438.352 448.72C437.901 448.291 437.41 447.851 436.804 447.747C436.158 447.63 435.504 447.929 434.925 448.265C433.267 449.205 431.773 450.471 430.56 452.007C429.447 453.403 428.316 455.149 426.626 455.276C424.862 455.411 423.565 453.695 422.847 452.029C421.665 449.298 423.233 446.818 423.461 443.783L421.788 443.807C418.864 445.155 415.774 446.237 412.632 446.377C404.865 446.723 398.186 441.404 392.374 436.19C390.682 434.68 390.767 432.992 388.652 432.219L386.003 432.553C384.786 435.215 383.125 438.053 380.454 438.844C378.58 439.394 376.47 438.701 375.268 437.152C374.066 435.603 373.856 433.256 374.739 431.42L374.465 429.578C372.216 425.523 368.287 425.15 363.947 426.63C362.157 427.237 360.211 428.368 358.541 427.559C357.986 427.285 357.516 426.82 356.923 426.673" stroke="#1D1D1B" stroke-width="1.5" stroke-miterlimit="10"/>
<path d="M414.108 368.77C415.021 363.979 416.978 359.377 419.808 355.439C421.072 353.686 423.015 351.89 424.952 352.532C426.898 353.192 427.377 355.852 427.244 358.035C426.956 362.967 425.223 367.836 422.375 371.832" stroke="#1D1D1B" stroke-width="1.5" stroke-miterlimit="10"/>
<path d="M433.742 378.571C434.837 375.302 438.27 373.658 441.327 372.397C443.08 371.671 444.829 370.959 446.581 370.233C447.508 369.847 448.57 369.3 448.761 368.276C449 366.943 447.563 366.034 446.302 365.796C443.749 365.325 441.094 365.966 438.532 366.588C435.152 367.429 431.762 368.251 428.381 369.092C426.299 369.611 424.156 370.143 422.388 371.451" stroke="#1D1D1B" stroke-width="1.5" stroke-miterlimit="10"/>
<path d="M385.981 415.932C386.534 414.523 387.401 413.269 388.265 412.03C390.738 408.509 393.296 404.952 396.614 402.286C399.928 399.635 404.155 397.951 408.152 398.731" stroke="#1D1D1B" stroke-width="1.5" stroke-miterlimit="10"/>
<path d="M422.839 400.815C425.139 401.503 428.239 403.342 429.523 405.441C430.807 407.539 430.774 408.471 431.47 410.887C433.204 416.949 434.424 423.907 431.336 429.529C431.269 429.849 431.872 429.72 431.873 429.381" stroke="#1D1D1B" stroke-width="1.5" stroke-miterlimit="10"/>
<path d="M401.947 392.892C401.143 392.482 400.058 393.3 400.034 394.25C400.01 395.2 400.876 395.984 401.777 395.976C402.677 395.968 403.521 395.278 403.926 394.411C404.033 394.196 404.101 393.97 404.138 393.749C404.203 393.29 404.083 392.822 403.818 392.449C403.301 391.708 402.19 391.499 401.446 392.048C400.702 392.597 400.483 393.813 401.053 394.524C401.743 395.41 403.403 394.996 403.711 393.868C404.02 392.741 402.809 391.56 401.759 391.972C401.267 392.164 400.905 392.596 400.611 393.048C400.256 393.606 400.005 394.395 400.408 394.887C400.811 395.378 401.854 394.702 401.433 394.221" stroke="#1D1D1B" stroke-width="1.5" stroke-miterlimit="10"/>
<path d="M431.839 397.316C430.959 397.207 429.98 397.67 429.593 398.527C429.206 399.384 429.583 400.546 430.412 400.825C431.746 401.256 432.893 399.407 432.769 397.934C432.738 397.554 432.632 397.136 432.316 396.98C432.129 396.878 431.905 396.903 431.706 396.936C430.416 397.183 429.298 398.547 429.469 399.91C429.64 401.274 431.298 402.172 432.41 401.408C433.522 400.645 433.252 398.449 431.965 398.249" stroke="#1D1D1B" stroke-width="1.5" stroke-miterlimit="10"/>
<path d="M419.089 408.938C419.847 411.049 417.512 415.028 415.4 414.581C412.594 413.988 409.596 408.906 411.514 406.563C412.832 404.919 418.398 406.987 419.089 408.938Z" fill="#1D1D1B"/>
<path d="M408.573 421.662C408.867 422.615 409.17 423.585 409.465 424.538C409.901 425.935 410.499 427.519 411.851 427.939C412.502 428.134 413.207 428.005 413.889 427.854C416.557 427.217 419.126 426.041 421.42 424.427" stroke="#1D1D1B" stroke-width="1.5" stroke-miterlimit="10"/>
<path d="M306.585 396.721C305.259 395.105 303.915 393.498 302.588 391.881C301.889 391.023 301.15 390.153 300.159 389.687C299.245 389.259 298.202 389.209 297.199 389.172C294.889 389.098 292.597 389.013 290.3 388.943C289.081 388.903 287.862 388.862 286.688 388.572C285.364 388.253 284.129 387.636 282.908 387.024C280.931 386.03 278.94 385.033 276.964 384.04" stroke="#1D1D1B" stroke-width="1.5" stroke-miterlimit="10"/>
<path d="M276.891 383.8C270.921 380.129 264.238 376.322 257.321 377.848C247.281 380.077 241.512 392.477 231.67 395.691C225.971 397.551 219.96 395.999 214.091 395.477C208.217 394.969 203.393 393.71 199.991 398.929L197.922 400.857C192.87 406.941 190.786 415.596 192.544 423.271C192.913 424.895 193.48 426.532 194.637 427.65C195.795 428.768 197.663 429.204 199.016 428.266L202.195 425.389C203.524 423.949 204.442 422.14 205.74 420.66C207.151 419.044 208.956 417.902 210.766 416.838C212.489 415.825 214.297 414.869 216.242 414.71C218.187 414.551 218.768 414.015 219.549 415.855L220.476 417.213C221.537 418.071 222.189 419.378 223.15 420.376C224.778 422.052 227.205 422.655 229.512 422.543C231.824 422.417 234.093 421.66 236.309 420.888" stroke="#1D1D1B" stroke-width="1.5" stroke-miterlimit="10"/>
<path d="M266.015 453.079C267.101 454.578 269.163 454.902 270.979 454.689C272.796 454.477 274.598 453.827 276.417 453.847C279.279 453.87 281.913 455.523 283.807 457.711C285.697 459.914 286.971 462.626 288.178 465.319C289.944 469.245 291.912 473.508 295.674 475.314C297.104 476.005 298.701 476.282 300.162 476.92C301.618 477.572 303.009 478.73 303.281 480.386" stroke="#1D1D1B" stroke-width="1.5" stroke-miterlimit="10"/>
<path d="M289.417 468.004C287.188 471.336 283.629 475.967 281.396 479.313C279.384 482.308 277.381 485.321 275.769 488.575C274.054 492.03 273.97 494.151 271.538 497.097L270.237 499.363C267.798 501.798 267.51 505.711 267.716 509.185C267.926 512.644 268.95 514.742 267.607 517.968L267.143 519.759C266.273 521.506 266.386 523.933 264.774 524.963C263.859 525.554 262.687 525.404 261.728 524.978C260.769 524.552 259.926 523.883 258.994 523.418C257.337 522.613 255.41 522.469 253.779 521.579C252.494 520.886 251.469 519.714 250.883 518.334C250.382 517.15 249.418 516.599 250.262 515.616L251.131 514.07C253.676 507.699 256.207 501.324 258.752 494.952C260.444 490.703 262.132 486.469 263.731 482.192C266.946 473.582 269.821 464.654 270.155 455.506" stroke="#1D1D1B" stroke-width="1.5" stroke-miterlimit="10"/>
<path d="M257.628 422.886C258.924 425.668 260.208 428.445 261.505 431.226C262.711 433.826 263.945 436.527 263.981 439.456L263.587 446.239C263.313 449.184 264.637 451.973 264.774 454.901C264.929 458.545 263.25 462.026 261.616 465.304C259.203 470.124 257.936 472.663 255.535 477.487L254.257 479.822C251.897 485.43 249.524 491.035 247.168 496.629C246.37 498.52 245.564 500.441 244.361 502.088C242.776 504.284 240.514 505.985 239.432 508.486C238.741 510.07 238.599 511.85 238.461 513.569C238.285 515.801 238.11 518.033 237.934 520.266L237.743 522.355C237.04 525.526 236.792 525.482 235.624 528.514C234.87 530.45 233.876 532.514 232.076 533.396C230.413 534.21 228.478 533.801 226.78 533.185C223.48 531.965 220.912 531.397 219.96 527.854L219.132 525.877C217.453 522.147 218.034 517.69 218.628 513.529C219.158 509.92 219.687 506.312 220.2 502.713C220.75 498.941 221.312 495.126 222.566 491.518C223.625 488.515 225.153 485.684 226.265 482.697C227.432 479.573 228.12 476.305 228.805 473.051C229.786 468.42 230.767 463.788 231.748 459.157C232.541 455.395 233.344 451.452 232.426 447.795C231.998 446.077 231.202 444.48 230.99 442.718C230.187 436.209 237.285 429.92 235.262 423.756" stroke="#1D1D1B" stroke-width="1.5" stroke-miterlimit="10"/>
<path d="M369.62 511.809C367.57 514.592 366.978 518.213 366.207 521.61C363.655 532.75 358.262 543.456 358.264 554.821L358.036 556.018C357.515 558.24 358.162 560.534 358.995 562.589C359.828 564.645 360.881 566.643 361.226 568.877C361.484 570.483 361.346 572.156 361.176 573.788C361.049 574.985 360.861 576.241 360.109 577.158L357.455 580.023C352.634 582.239 346.748 584.383 342.586 581.253C341.45 580.404 340.584 579.233 339.801 578.026C338.388 575.874 337.14 573.462 337.054 570.797C336.96 568.159 338.011 565.617 338.691 563.057C340.557 556.097 339.77 548.759 338.695 541.705C338.411 539.845 338.102 537.977 338.206 536.078C338.41 532.495 340.056 529.175 341.326 525.803C343.101 521.085 344.161 516.091 344.458 511.085" stroke="#1D1D1B" stroke-width="1.5" stroke-miterlimit="10"/>
<path d="M398.549 503.967C395.396 507.917 392.57 512.274 391.036 517.157C390.318 519.459 389.884 521.83 389.179 524.136C388.317 526.919 387.692 528.183 386.417 530.797L385.445 532.59C383.516 535.842 383.211 539.811 383.372 543.58C383.537 547.335 384.104 551.103 383.678 554.85C383.26 558.616 383.023 562.745 379.917 564.702L378.5 564.694C375.508 564.818 372.443 564.41 369.842 562.936C367.241 561.463 365.165 558.819 364.809 555.701C364.626 554.087 364.901 552.44 365.168 550.822C366.56 542.546 367.938 534.266 369.329 525.99C369.93 522.434 370.535 518.817 371.885 515.469" stroke="#1D1D1B" stroke-width="1.5" stroke-miterlimit="10"/>
<path d="M420.465 452.967C418.053 457.495 415.978 462.2 414.257 467.027C413.882 468.088 413.507 469.196 413.591 470.317C413.65 471.137 413.942 471.904 414.062 472.712C414.554 475.762 412.727 478.72 411.046 481.335C409.365 483.951 407.658 487.038 408.388 490.02" stroke="#1D1D1B" stroke-width="1.5" stroke-miterlimit="10"/>
<path d="M316.947 438.9C316.57 438.417 314.883 437.618 314.289 437.471C313.107 437.21 311.874 437.798 310.854 438.543C310.15 439.057 309.495 439.649 308.902 440.32C307.269 442.147 306.159 444.548 306.07 447.023C305.999 449.487 307.045 451.993 308.982 453.313C308.982 453.313 310.303 454.172 311.97 453.637" stroke="#1D1D1B" stroke-width="1.5" stroke-miterlimit="10"/>
<path d="M313.752 447.685C312.616 451.189 311.055 456.018 309.936 459.512" stroke="#1D1D1B" stroke-width="1.5" stroke-miterlimit="10"/>
<path d="M310.721 446.438C312.623 447.393 315.867 448.411 317.968 448.747" stroke="#1D1D1B" stroke-width="1.5" stroke-miterlimit="10"/>
<path d="M322.189 445.779C321.327 447.883 320.469 449.973 319.608 452.077C319.226 453.013 318.836 453.977 318.778 454.994C318.737 456.001 319.095 457.081 319.918 457.574C320.62 457.985 321.52 457.884 322.257 457.502C322.994 457.121 323.604 456.485 324.135 455.826C326.109 453.391 327.415 450.385 327.858 447.26" stroke="#1D1D1B" stroke-width="1.5" stroke-miterlimit="10"/>
<path d="M332.985 448.084C331.612 452.382 330.078 456.632 328.408 460.81" stroke="#1D1D1B" stroke-width="1.5" stroke-miterlimit="10"/>
<path d="M334.092 463.208C336.745 463.833 340.265 465.427 341.992 459.66C342.433 458.186 342.449 456.632 342.396 455.118C342.364 454.352 342.341 453.558 342.09 452.85C341.605 451.469 340.273 450.499 338.865 450.51L338.194 451.297C336.966 454.82 335.724 458.339 334.491 461.877C334.564 461.682 334.646 461.506 334.718 461.312L334.092 463.208Z" stroke="#1D1D1B" stroke-width="1.5" stroke-miterlimit="10"/>
<path d="M347.653 460.059C349.543 460.856 352.042 461.898 353.95 462.685" stroke="#1D1D1B" stroke-width="1.5" stroke-miterlimit="10"/>
<path d="M351.654 472.387C349.527 471.457 347.384 470.537 345.257 469.607L344.879 467.873C344.806 468.067 344.951 467.678 344.879 467.873C346.284 463.615 347.32 459.865 348.379 455.504C348.644 454.425 349.388 452.811 349.388 452.811C351.609 453.229 353.785 453.895 355.871 454.767" stroke="#1D1D1B" stroke-width="1.5" stroke-miterlimit="10"/>
<path d="M278.841 328.849C293.391 361.876 311.35 393.145 332.29 421.955" stroke="#1D1D1B" stroke-width="1.5" stroke-miterlimit="10"/>
<path d="M278.739 327.982C282.033 327.625 285.304 326.906 288.578 326.373C299.105 324.646 309.836 324.802 320.196 326.822" stroke="#1D1D1B" stroke-width="1.5" stroke-miterlimit="10"/>
<path d="M321.016 327.084C325.723 344.844 331.732 362.175 338.987 378.876C342.69 387.411 346.726 395.799 349.577 404.712C351.496 410.736 352.866 416.998 353.646 423.346" stroke="#1D1D1B" stroke-width="1.5" stroke-miterlimit="10"/>
<path d="M282.818 334.052C295.535 333.135 308.282 333.091 320.954 333.92" stroke="#1D1D1B" stroke-width="1.5" stroke-miterlimit="10"/>
<path d="M267.782 304.97C270.285 308.607 272.312 312.579 274.334 316.566C275.153 318.185 275.972 319.805 276.791 321.424C278.003 323.809 279.203 326.191 280.38 328.597C280.484 328.829 280.668 329.085 280.915 329.035C281.153 328.967 280.957 328.461 280.818 328.682" stroke="#1D1D1B" stroke-width="1.5" stroke-miterlimit="10"/>
<path d="M320.628 328.187C319.889 325.527 318.224 323.299 316.686 321.079C312.407 314.857 308.889 308.076 305.376 301.327" stroke="#1D1D1B" stroke-width="1.5" stroke-miterlimit="10"/>
<path d="M269.015 304.383C272.243 305.118 275.509 303.255 278.814 302.715C281.022 302.357 283.237 302.604 285.446 302.725C291.834 303.062 298.294 302.34 304.533 300.565" stroke="#1D1D1B" stroke-width="1.5" stroke-miterlimit="10"/>
<path d="M334.51 486.152C334.51 486.152 333.48 491.093 333.708 491.346C333.936 491.6 334.286 491.689 334.622 491.728C337.413 492.131 340.449 490.554 341.901 487.932C343.352 485.309 343.151 481.821 341.405 479.523C340.189 477.924 338.782 476.576 337.06 477.682L334.523 486.156L334.51 486.152Z" stroke="#1D1D1B" stroke-width="1.5" stroke-miterlimit="10"/>
<path d="M349.156 481.165C347.032 482.938 345.927 485.71 345.076 488.405C344.864 489.067 344.665 489.779 344.828 490.446C345.11 491.534 346.26 492.048 347.296 492.312C348.262 492.57 349.244 492.725 350.243 492.824C350.862 492.885 351.494 492.905 352.092 492.698C353.173 492.327 353.959 491.25 354.29 490.098C354.62 488.946 354.579 487.729 354.48 486.557C354.372 485.321 354.207 484.036 353.558 483.008C352.91 481.98 352.481 481.235 350.902 480.993L349.156 481.165Z" stroke="#1D1D1B" stroke-width="1.5" stroke-miterlimit="10"/>
<path d="M364.345 482.979C362.678 481.77 360.512 483.345 359.986 484.33C359.101 485.979 358.331 487.679 357.699 489.451C357.14 490.981 356.687 492.637 356.98 494.223C357.094 494.812 357.326 495.391 357.772 495.741C358.454 496.269 359.423 496.127 360.232 495.798C362.143 495.027 363.748 493.392 364.536 491.389C363.707 494.013 362.918 496.648 362.186 499.286" stroke="#1D1D1B" stroke-width="1.5" stroke-miterlimit="10"/>
<path d="M362.057 488.781C363.572 490.639 365.489 492.124 367.62 493.086" stroke="#1D1D1B" stroke-width="1.5" stroke-miterlimit="10"/>
<g filter="url(#filter1_d_2504_3088)">
<rect x="14" y="50.2766" width="317" height="500" rx="14.0178" transform="rotate(-9.12572 14 50.2766)" fill="white"/>
</g>
<path d="M51.6795 92.6786L49.4089 78.5434L51.2795 78.243L53.2821 90.7101L60.2437 89.5918L60.5116 91.2599L51.6795 92.6786ZM68.8427 89.9216L68.6011 88.4175C67.9899 89.7026 66.9997 90.4551 65.6305 90.675C65.0263 90.7721 64.442 90.7472 63.8778 90.6005C63.3199 90.4527 62.8846 90.2259 62.5717 89.9201C62.2642 89.6068 62.0183 89.2046 61.8338 88.7133C61.7084 88.3839 61.5863 87.8497 61.4676 87.1105L60.4484 80.766L62.184 80.4872L63.0963 86.1664C63.2419 87.0727 63.3753 87.6777 63.4966 87.9813C63.6792 88.4201 63.9684 88.7429 64.3643 88.9497C64.7592 89.15 65.2169 89.2084 65.7376 89.1247C66.2582 89.0411 66.7256 88.8308 67.1397 88.494C67.5527 88.1507 67.8157 87.7359 67.9288 87.2496C68.0473 86.7558 68.0364 86.0718 67.8959 85.1976L67.0147 79.7112L68.7502 79.4325L70.3951 89.6723L68.8427 89.9216ZM78.8083 84.4733L80.5505 84.4209C80.5531 85.6272 80.2224 86.6265 79.5584 87.419C78.8998 88.2039 78.0113 88.6862 76.8928 88.8659C75.4915 89.091 74.2901 88.8158 73.2885 88.0404C72.2924 87.2575 71.657 86.0111 71.3823 84.3012C71.2047 83.1956 71.2325 82.1988 71.4657 81.3107C71.6989 80.4226 72.1553 79.713 72.8348 79.1818C73.5198 78.6432 74.3026 78.3032 75.1832 78.1617C76.2953 77.9831 77.2503 78.1198 78.0482 78.5719C78.8451 79.0175 79.4263 79.7418 79.7919 80.7447L78.1463 81.2761C77.8751 80.6141 77.506 80.1426 77.0388 79.8616C76.5781 79.5795 76.0585 79.485 75.4799 79.5779C74.6057 79.7183 73.946 80.1474 73.5008 80.8651C73.0546 81.5764 72.9404 82.6102 73.1583 83.9665C73.3793 85.3421 73.8034 86.2993 74.4307 86.8382C75.0579 87.377 75.7958 87.5783 76.6443 87.442C77.3257 87.3325 77.861 87.0322 78.2502 86.5411C78.6395 86.05 78.8255 85.3607 78.8083 84.4733ZM80.267 75.634L79.9464 73.6381L81.6819 73.3593L82.0025 75.3552L80.267 75.634ZM82.217 87.7733L80.5721 77.5335L82.3077 77.2547L83.9525 87.4945L82.217 87.7733ZM92.6882 84.7955C92.1331 85.4452 91.5748 85.9305 91.0131 86.2515C90.4579 86.5715 89.8396 86.7862 89.1582 86.8957C88.0333 87.0763 87.1249 86.942 86.4329 86.4927C85.7398 86.037 85.3246 85.3816 85.1873 84.5267C85.1068 84.0253 85.146 83.5509 85.3049 83.1033C85.4691 82.6483 85.7144 82.2661 86.0405 81.9565C86.373 81.6459 86.7604 81.3892 87.2026 81.1863C87.5288 81.0416 88.0291 80.8722 88.7035 80.6781C90.0779 80.2859 91.0776 79.9209 91.7025 79.5832C91.6707 79.3443 91.6497 79.1927 91.6394 79.1284C91.5258 78.4214 91.2819 77.9495 90.9076 77.7129C90.401 77.3921 89.7107 77.3018 88.8365 77.4423C88.0201 77.5734 87.4391 77.8151 87.0935 78.1673C86.7532 78.5121 86.5482 79.0627 86.4785 79.819L84.7443 79.8602C84.7819 79.109 84.9419 78.4833 85.2242 77.983C85.5054 77.4762 85.9612 77.0502 86.5915 76.705C87.2208 76.3533 87.9757 76.1068 88.8564 75.9653C89.7306 75.8249 90.4574 75.8137 91.0368 75.9316C91.6163 76.0495 92.0598 76.2453 92.3675 76.519C92.6742 76.7862 92.9172 77.1494 93.0964 77.6086C93.2018 77.895 93.3164 78.4238 93.4403 79.1952L93.8121 81.5093C94.0712 83.1227 94.2708 84.1391 94.4106 84.5584C94.5559 84.9703 94.7693 85.3547 95.0509 85.7117L93.2382 86.0029C93.0004 85.6718 92.817 85.2694 92.6882 84.7955ZM91.9209 80.9427C91.3323 81.301 90.4225 81.6713 89.1915 82.0537C88.4945 82.2712 88.0085 82.4679 87.7334 82.644C87.4584 82.82 87.2607 83.0463 87.1402 83.3228C87.0188 83.5929 86.9823 83.879 87.0308 84.1811C87.1052 84.6439 87.3407 85.0017 87.7374 85.2545C88.1405 85.5063 88.6795 85.5779 89.3544 85.4695C90.0229 85.3621 90.5943 85.122 91.0685 84.7491C91.5417 84.3698 91.8596 83.9066 92.0223 83.3595C92.1457 82.9375 92.146 82.344 92.0231 81.5791L91.9209 80.9427ZM97.2593 85.357L96.9418 83.3803L98.9184 83.0628L99.2359 85.0394C99.3526 85.7658 99.318 86.3714 99.1321 86.8562C98.9473 87.3475 98.5949 87.7602 98.0749 88.0943L97.4735 87.4293C97.8141 87.2097 98.0458 86.9285 98.1688 86.5857C98.2928 86.2493 98.3175 85.787 98.2428 85.199L97.2593 85.357ZM105.931 80.1659L107.729 79.7189C108.006 80.5842 108.425 81.2027 108.986 81.5742C109.552 81.9382 110.183 82.0644 110.877 81.9529C111.713 81.8187 112.369 81.3901 112.846 80.6673C113.324 79.9444 113.479 79.0623 113.311 78.0209C113.152 77.031 112.747 76.2949 112.096 75.8127C111.452 75.3294 110.679 75.16 109.779 75.3046C109.22 75.3944 108.736 75.604 108.327 75.9334C107.918 76.2564 107.617 76.641 107.425 77.0873L105.761 77.1369L105.964 69.6565L112.993 68.5274L113.26 70.1859L107.619 71.0919L107.468 75.0133C108.221 74.2856 109.064 73.8469 109.996 73.6972C111.23 73.4989 112.34 73.7591 113.326 74.4777C114.312 75.1963 114.913 76.2274 115.128 77.5708C115.334 78.85 115.139 80.0155 114.543 81.0674C113.82 82.3571 112.675 83.128 111.106 83.3799C109.821 83.5865 108.712 83.3953 107.78 82.8065C106.854 82.2167 106.238 81.3365 105.931 80.1659ZM116.528 78.4636L118.326 78.0166C118.603 78.882 119.022 79.5004 119.583 79.8719C120.149 80.236 120.78 80.3622 121.474 80.2507C122.31 80.1165 122.966 79.6879 123.443 78.965C123.921 78.2422 124.076 77.36 123.908 76.3187C123.749 75.3288 123.344 74.5927 122.693 74.1104C122.049 73.6272 121.276 73.4578 120.376 73.6023C119.817 73.6922 119.333 73.9018 118.924 74.2312C118.515 74.5542 118.214 74.9388 118.022 75.3851L116.358 75.4347L116.561 67.9543L123.59 66.8252L123.857 68.4836L118.216 69.3897L118.064 73.311C118.818 72.5833 119.661 72.1446 120.593 71.9949C121.827 71.7967 122.937 72.0569 123.923 72.7755C124.909 73.4941 125.509 74.5252 125.725 75.8686C125.931 77.1478 125.736 78.3133 125.14 79.3651C124.417 80.6549 123.272 81.4258 121.703 81.6777C120.418 81.8842 119.309 81.6931 118.377 81.1043C117.451 80.5144 116.835 79.6342 116.528 78.4636Z" fill="black"/>
<path d="M60.0359 110.533C59.4094 111.4 58.958 112.675 58.942 114.392L62.6628 113.721C64.7186 113.354 65.7735 113.112 66.0293 112.889C65.8886 110.651 64.3318 108.677 62.3769 108.991C61.5949 109.116 60.7221 109.585 60.0359 110.533ZM70.8438 119.48C70.1434 122.838 67.6323 125.137 64.7888 125.594C59.9903 126.365 56.631 122.93 55.9401 118.629C55.1693 113.831 57.5169 109.151 62.3864 108.369C66.0831 107.775 69.0362 109.817 69.4359 112.305C69.4987 112.696 69.4847 113.063 69.4479 113.287L58.9509 114.901C58.9597 115.41 59.0098 115.949 59.1069 116.553C59.8948 121.458 62.9159 123.015 65.8306 122.546C68.0343 122.192 69.7043 121.013 70.6845 119.397L70.8438 119.48ZM80.4901 119.827C80.2275 118.192 78.8591 117.391 76.5806 116.371C73.4401 114.98 71.9023 113.805 71.5483 111.601C71.1315 109.006 73.2047 106.704 76.4037 106.19C78.0032 105.934 79.4877 106.096 80.2202 106.343C80.4125 106.859 80.8915 108.933 81 109.609L80.6915 109.731C78.9596 107.348 77.4604 106.641 76.1808 106.846C74.5102 107.114 73.9706 108.295 74.1648 109.503C74.416 111.067 75.6663 111.815 77.703 112.691C81.5404 114.335 82.7526 115.526 83.0952 117.658C83.5691 120.608 81.1703 122.926 77.9002 123.452C76.3718 123.697 74.8035 123.694 73.4084 123.407C72.9769 122.31 72.3087 120.193 72.079 118.99L72.3875 118.868C74.3003 121.696 76.2748 123.093 78.4074 122.75C79.7581 122.533 80.7585 121.498 80.4901 119.827ZM91.6974 121.272C90.2756 121.5 89.1166 121.322 88.2503 120.695C87.3427 120.039 86.7747 119 86.5235 117.436L84.9191 107.448L83.1774 107.728L83.0689 107.052C84.7853 105.026 86.4447 102.645 87.4845 100.947L87.6793 101.025L88.0713 104.827L93.7939 103.907L93.71 106.109L88.3313 106.9L89.7645 115.821C89.9529 116.994 90.3686 117.766 90.9461 118.184C91.6062 118.661 92.458 118.743 93.5243 118.572C94.5551 118.406 95.3923 117.944 96.2435 117.114L96.3374 117.245C95.6163 119.111 94.0433 120.895 91.6974 121.272ZM106.224 92.5766C106.344 93.323 105.872 94.0186 104.836 95.0601L103.115 96.8315C102.079 97.873 101.025 99.0268 100.143 100.117L99.9422 100.003C100.577 98.7341 101.195 97.3588 101.7 95.965L102.626 93.5557C103.161 92.1206 103.603 91.4663 104.385 91.3407C105.273 91.1979 106.098 91.7946 106.224 92.5766ZM99.9564 104.631C99.0323 104.78 98.4026 105.173 98.0814 105.443L99.2003 107.414C99.246 107.699 97.5119 108.707 96.6943 108.838C96.1612 108.923 95.7715 108.767 95.6744 108.163C95.6116 107.772 95.9766 107.094 96.5733 106.269C97.886 104.453 100.362 102.16 102.032 101.891C103.383 101.674 104.358 101.846 105.06 102.353C106.009 103.039 106.474 104.35 106.766 106.163L108.079 114.338C108.216 115.191 108.526 115.761 108.939 116.059C109.269 116.298 109.718 116.372 110.145 116.303C110.5 116.246 110.904 116.035 111.249 115.688L111.378 115.813C111.053 116.74 109.849 118.32 108.32 118.565C107.147 118.753 105.653 118.301 105.124 116.599L105.012 116.581L104.428 117.258C103.284 118.535 102.433 119.365 100.798 119.628C98.8071 119.947 97.2889 118.441 97.032 116.842C96.9007 116.024 97.0524 115.38 97.5 114.761C98.0071 114.06 99.1783 113.179 101.72 111.75L104.059 110.426L103.511 107.014C103.351 106.018 102.994 105.383 102.458 104.995C101.839 104.548 100.987 104.466 99.9564 104.631ZM104.99 116.22L104.134 110.888C102.762 111.655 101.45 112.34 100.794 113.247C100.436 113.743 100.272 114.316 100.381 114.991C100.632 116.555 101.918 117.296 103.162 117.097C103.98 116.965 104.443 116.672 104.99 116.22ZM124.243 112.799C123.981 111.164 122.612 110.363 120.334 109.343C117.193 107.951 115.655 106.776 115.301 104.573C114.885 101.978 116.958 99.6761 120.157 99.1622C121.756 98.9052 123.241 99.0679 123.973 99.3148C124.166 99.8308 124.645 101.905 124.753 102.58L124.445 102.703C122.713 100.319 121.214 99.6123 119.934 99.8178C118.263 100.086 117.724 101.267 117.918 102.475C118.169 104.039 119.419 104.786 121.456 105.662C125.294 107.307 126.506 108.497 126.848 110.63C127.322 113.58 124.923 115.898 121.653 116.423C120.125 116.669 118.557 116.666 117.162 116.379C116.73 115.282 116.062 113.165 115.832 111.962L116.141 111.84C118.053 114.668 120.028 116.065 122.161 115.722C123.511 115.505 124.512 114.469 124.243 112.799ZM132.226 98.9371C131.6 99.8035 131.148 101.079 131.132 102.795L134.853 102.125C136.909 101.758 137.964 101.516 138.22 101.292C138.079 99.0544 136.522 97.0803 134.567 97.3943C133.785 97.5199 132.912 97.9883 132.226 98.9371ZM143.034 107.884C142.334 111.242 139.822 113.541 136.979 113.998C132.18 114.769 128.821 111.334 128.13 107.033C127.36 102.235 129.707 97.5552 134.577 96.7729C138.273 96.1791 141.226 98.2206 141.626 100.709C141.689 101.1 141.675 101.467 141.638 101.691L131.141 103.305C131.15 103.814 131.2 104.352 131.297 104.957C132.085 109.862 135.106 111.418 138.021 110.95C140.224 110.596 141.895 109.416 142.875 107.8L143.034 107.884ZM151.499 110.863L151.539 111.112L145.07 112.151L145.03 111.903L145.552 111.746C146.423 111.496 146.513 111.373 146.421 110.804L144.6 99.4653C144.497 98.8255 144.286 98.4218 143.956 98.1832L142.683 97.2938L142.666 97.1872L147.441 94.4513L147.564 94.5408C147.562 94.9788 147.6 95.4466 147.645 95.9499L147.843 97.4129L147.997 97.4612C149.981 95.283 151.325 94.119 153.244 93.8107C154.026 93.6851 154.854 93.8438 155.514 94.3212C156.174 94.7986 156.49 95.4041 156.745 96.3111C158.182 94.5854 159.962 92.7316 162.237 92.3662C163.019 92.2406 163.847 92.3993 164.507 92.8767C165.249 93.4137 165.712 94.2509 166.026 96.2058L167.819 107.367C167.91 107.935 168.034 108.025 168.94 107.989L169.484 107.974L169.524 108.223L163.055 109.262L163.015 109.013L163.537 108.857C164.409 108.607 164.498 108.484 164.407 107.915L162.991 99.0999C162.694 97.2516 162.488 95.972 161.663 95.3753C161.127 94.9874 160.53 94.9011 159.712 95.0324C158.575 95.2151 157.469 96.049 156.832 96.6253C156.953 97.1528 157.05 97.757 157.17 98.5034L158.826 108.811C158.918 109.38 159.041 109.47 159.947 109.433L160.492 109.419L160.532 109.668L154.063 110.707L154.023 110.458L154.544 110.301C155.416 110.052 155.505 109.928 155.414 109.359L153.998 100.544C153.701 98.6961 153.495 97.4165 152.67 96.8198C152.134 96.432 151.537 96.3456 150.719 96.4769C149.582 96.6597 148.762 97.2289 147.864 97.993L149.833 110.256C149.925 110.825 150.049 110.914 150.954 110.878L151.499 110.863ZM182.418 98.1304C181.682 93.5451 178.592 91.5621 176.069 91.9674C174.86 92.1616 173.975 92.7778 173.493 93.1834L174.758 101.512C175.482 106.245 177.49 106.944 179.267 106.658C181.471 106.304 183.206 103.035 182.418 98.1304ZM185.995 96.7901C186.749 101.482 183.582 106.512 178.5 107.328C177.575 107.477 176.705 107.507 175.788 107.472L176.85 114.083C176.941 114.652 177.071 114.777 177.971 114.706L179.12 114.594L179.16 114.843L172.086 115.979L172.046 115.73L172.568 115.573C173.44 115.324 173.529 115.2 173.438 114.632L170.332 95.2954C170.24 94.7267 170.018 94.2519 169.688 94.0133L168.415 93.1239L168.398 93.0173L173.173 90.2814L173.338 90.4008C173.325 90.5486 173.374 91.3065 173.418 91.8098L173.473 92.6032L173.626 92.6515C175.056 91.1092 176.773 89.9948 178.123 89.7778C181.713 89.2012 185.207 91.885 185.995 96.7901ZM195.674 86.8127C196.812 86.63 197.547 87.3505 197.707 88.3457C197.838 89.1632 197.572 90.227 196.846 90.927C194.837 90.2287 194.276 90.1366 193.707 90.2279C192.996 90.3421 192.567 90.8486 191.983 91.5258L193.856 103.184C193.947 103.753 194.071 103.843 194.977 103.806L196.126 103.695L196.166 103.944L189.092 105.08L189.052 104.831L189.574 104.674C190.445 104.425 190.535 104.301 190.444 103.732L188.622 92.3938C188.519 91.754 188.309 91.3503 187.979 91.1117L186.706 90.2223L186.688 90.1157L191.463 87.3798L191.587 87.4693C191.584 87.9073 191.623 88.3751 191.667 88.8784L191.892 90.9571L192.045 91.0053C193.09 88.431 194.181 87.0525 195.674 86.8127ZM203.471 87.4928C202.844 88.3591 202.393 89.6349 202.377 91.3511L206.097 90.6805C208.153 90.3138 209.208 90.0715 209.464 89.8481C209.323 87.6101 207.766 85.636 205.812 85.95C205.03 86.0756 204.157 86.544 203.471 87.4928ZM214.278 96.4399C213.578 99.7975 211.067 102.097 208.223 102.554C203.425 103.324 200.066 99.8898 199.375 95.5889C198.604 90.7904 200.952 86.1108 205.821 85.3286C209.518 84.7348 212.471 86.7763 212.871 89.2644C212.933 89.6554 212.919 90.0222 212.883 90.2469L202.386 91.8602C202.394 92.3692 202.444 92.9081 202.542 93.5124C203.329 98.4175 206.351 99.974 209.265 99.5058C211.469 99.1518 213.139 97.972 214.119 96.3561L214.278 96.4399ZM67.8882 139.896C72.8644 139.096 76.4585 142.858 77.138 147.088C77.5491 149.647 76.9605 152.111 75.5881 154.009C74.3947 155.659 72.6422 156.779 70.1896 157.173C65.2134 157.973 61.6193 154.211 60.9399 149.981C60.5288 147.422 61.1173 144.958 62.4897 143.06C63.6831 141.41 65.4357 140.29 67.8882 139.896ZM70.4835 156.506C72.0475 156.255 72.907 155.023 73.3895 153.487C73.7996 152.182 73.9152 150.632 73.4756 147.895C72.8418 143.949 70.4378 140.106 67.5943 140.563C66.0303 140.814 65.1708 142.046 64.6883 143.582C64.2782 144.887 64.1626 146.437 64.6022 149.174C65.236 153.12 67.64 156.963 70.4835 156.506ZM86.2335 154.56C84.8117 154.788 83.6528 154.61 82.7864 153.983C81.8788 153.327 81.3108 152.288 81.0596 150.724L79.4552 140.736L77.7135 141.015L77.6051 140.34C79.3215 138.314 80.9808 135.933 82.0206 134.235L82.2154 134.313L82.6074 138.115L88.33 137.195L88.2461 139.397L82.8675 140.188L84.3006 149.109C84.489 150.282 84.9047 151.054 85.4822 151.472C86.1423 151.949 86.9941 152.031 88.0604 151.86C89.0912 151.694 89.9284 151.231 90.7796 150.402L90.8736 150.533C90.1524 152.399 88.5794 154.183 86.2335 154.56ZM89.4205 130.858C89.2207 129.614 90.056 128.459 91.3712 128.248C92.5086 128.065 93.5514 128.882 93.7398 130.055C93.9396 131.299 93.1582 132.336 91.8786 132.542C90.7056 132.73 89.6089 132.031 89.4205 130.858ZM94.2648 137.409L96.4858 151.236C96.5772 151.804 96.7009 151.894 97.6067 151.858L98.1512 151.843L98.1912 152.092L91.7221 153.131L91.6822 152.882L92.2039 152.726C93.0754 152.476 93.1649 152.352 93.0735 151.784L91.2522 140.445C91.1494 139.805 90.9387 139.402 90.6087 139.163L89.3355 138.274L89.3184 138.167L93.9564 135.489L94.0802 135.579C94.0776 136.017 94.162 136.769 94.2648 137.409ZM106.122 150.563L106.162 150.812L99.6926 151.851L99.6526 151.602L100.174 151.445C101.046 151.196 101.135 151.072 101.044 150.503L99.2226 139.165C99.1199 138.525 98.9092 138.121 98.5791 137.883L97.306 136.993L97.2889 136.887L102.063 134.151L102.187 134.24C102.185 134.678 102.223 135.146 102.268 135.649L102.466 137.112L102.62 137.161C104.603 134.982 105.948 133.818 107.867 133.51C108.649 133.384 109.477 133.543 110.137 134.021C110.797 134.498 111.113 135.103 111.368 136.01C112.805 134.285 114.585 132.431 116.86 132.066C117.642 131.94 118.47 132.099 119.13 132.576C119.872 133.113 120.335 133.95 120.649 135.905L122.442 147.066C122.533 147.635 122.657 147.724 123.563 147.688L124.107 147.674L124.147 147.922L117.678 148.962L117.638 148.713L118.16 148.556C119.031 148.307 119.121 148.183 119.029 147.614L117.613 138.799C117.317 136.951 117.111 135.671 116.286 135.075C115.75 134.687 115.152 134.6 114.335 134.732C113.197 134.914 112.092 135.748 111.455 136.325C111.576 136.852 111.673 137.456 111.793 138.203L113.449 148.511C113.54 149.079 113.664 149.169 114.57 149.133L115.114 149.118L115.154 149.367L108.685 150.406L108.645 150.157L109.167 150.001C110.039 149.751 110.128 149.628 110.037 149.059L108.621 140.244C108.324 138.395 108.118 137.116 107.293 136.519C106.757 136.131 106.16 136.045 105.342 136.176C104.205 136.359 103.385 136.928 102.486 137.692L104.456 149.955C104.548 150.524 104.671 150.613 105.577 150.577L106.122 150.563ZM123.342 125.409C123.142 124.165 123.977 123.01 125.293 122.799C126.43 122.616 127.473 123.433 127.661 124.606C127.861 125.85 127.08 126.887 125.8 127.093C124.627 127.281 123.53 126.582 123.342 125.409ZM128.186 131.96L130.407 145.787C130.499 146.355 130.622 146.445 131.528 146.409L132.073 146.394L132.113 146.643L125.644 147.682L125.604 147.433L126.125 147.277C126.997 147.027 127.086 146.903 126.995 146.335L125.174 134.996C125.071 134.356 124.86 133.953 124.53 133.714L123.257 132.825L123.24 132.718L127.878 130.04L128.002 130.13C127.999 130.568 128.083 131.32 128.186 131.96ZM141.225 142.481C140.962 140.846 139.593 140.045 137.315 139.025C134.175 137.634 132.637 136.459 132.283 134.255C131.866 131.66 133.939 129.359 137.138 128.845C138.738 128.588 140.222 128.75 140.955 128.997C141.147 129.513 141.626 131.588 141.734 132.263L141.426 132.385C139.694 130.002 138.195 129.295 136.915 129.5C135.245 129.769 134.705 130.949 134.899 132.158C135.15 133.722 136.401 134.469 138.437 135.345C142.275 136.989 143.487 138.18 143.83 140.313C144.303 143.263 141.905 145.58 138.635 146.106C137.106 146.351 135.538 146.348 134.143 146.062C133.711 144.964 133.043 142.847 132.813 141.645L133.122 141.522C135.035 144.351 137.009 145.747 139.142 145.404C140.492 145.187 141.493 144.152 141.225 142.481ZM152.432 143.926C151.01 144.154 149.851 143.976 148.985 143.349C148.077 142.693 147.509 141.654 147.258 140.09L145.653 130.102L143.912 130.382L143.803 129.706C145.52 127.681 147.179 125.299 148.219 123.601L148.414 123.679L148.806 127.481L154.528 126.562L154.444 128.763L149.066 129.554L150.499 138.476C150.687 139.648 151.103 140.42 151.68 140.838C152.341 141.315 153.192 141.397 154.259 141.226C155.289 141.06 156.127 140.598 156.978 139.768L157.072 139.899C156.351 141.765 154.778 143.549 152.432 143.926ZM160.691 127.285C159.767 127.434 159.137 127.827 158.816 128.097L159.935 130.069C159.98 130.353 158.246 131.361 157.429 131.492C156.896 131.578 156.506 131.422 156.409 130.817C156.346 130.426 156.711 129.748 157.308 128.923C158.62 127.108 161.096 124.814 162.767 124.546C164.117 124.329 165.093 124.5 165.794 125.007C166.743 125.693 167.209 127.004 167.5 128.817L168.813 136.992C168.95 137.845 169.26 138.415 169.673 138.713C170.003 138.952 170.452 139.026 170.879 138.957C171.234 138.9 171.638 138.69 171.983 138.342L172.113 138.467C171.788 139.395 170.583 140.974 169.055 141.219C167.882 141.408 166.387 140.955 165.858 139.253L165.746 139.235L165.162 139.912C164.018 141.19 163.167 142.019 161.532 142.282C159.541 142.602 158.023 141.095 157.766 139.496C157.635 138.678 157.787 138.034 158.234 137.415C158.742 136.714 159.913 135.833 162.454 134.404L164.794 133.08L164.246 129.668C164.086 128.673 163.728 128.037 163.192 127.649C162.573 127.202 161.722 127.12 160.691 127.285ZM165.724 138.874L164.868 133.542C163.496 134.309 162.184 134.994 161.528 135.902C161.17 136.397 161.007 136.97 161.115 137.645C161.366 139.209 162.652 139.951 163.896 139.751C164.714 139.619 165.177 139.326 165.724 138.874Z" fill="black"/>
<g clip-path="url(#clip0_2504_3088)">
<path d="M172.806 332.096C172.233 330.151 171.464 328.46 171.271 326.715C170.837 322.698 170.915 318.624 170.323 314.632C169.934 311.974 169.087 306.085 168.784 304.122C168.405 301.686 170.36 295.683 168.534 288.647C163.522 268.422 162.181 247.632 160.899 226.659C161.555 226.566 162.132 226.374 162.678 226.448C163.54 226.558 164.417 226.988 164.843 225.777C164.861 225.737 164.988 225.754 165.057 225.718C167.318 224.56 173.782 225.993 175.365 228.111C175.791 228.677 175.971 229.492 176.088 230.219C176.497 232.762 176.04 235.332 177.075 237.911C177.938 240.033 177.812 242.575 178.066 244.931C178.246 246.592 178.241 248.108 179.786 249.45C180.925 250.435 181.291 252.326 181.943 253.836C182.285 254.651 182.419 255.561 182.796 256.358C185.099 261.267 187.439 266.17 189.788 271.047C191.409 274.414 192.988 277.825 194.803 281.086C195.26 281.919 196.58 282.254 197.474 282.868C201.951 286 207.13 287.081 212.362 287.954C213.254 288.097 214.223 287.792 215.145 287.656C216.261 287.49 217.395 287.357 218.481 287.083C218.911 286.977 219.448 286.605 219.609 286.219C220.999 282.89 223.927 282.022 227.016 280.992C229.444 280.18 231.616 278.551 233.848 277.211C234.074 277.076 234.039 276.473 233.99 276.704C235.169 276.005 235.956 275.494 236.791 275.049C238.795 273.994 240.885 273.087 242.805 271.897C246.712 269.468 251.142 268.67 255.433 267.322C257.715 266.608 259.683 264.863 261.801 263.591C265.833 261.167 269.929 258.832 273.891 256.283C275.613 255.174 276.987 253.525 278.703 252.379C280.385 251.252 282.283 250.463 284.081 249.516C286.082 248.449 288.357 247.686 289.996 246.218C291.818 244.571 294.029 244.03 296.073 243.068C298.601 241.879 302.222 243.931 303.27 246.359C303.883 247.776 305.375 248.791 306.43 250.025C307.974 251.827 307.613 254.22 305.788 255.693C302.249 258.559 298.849 261.59 295.265 264.402C292.871 266.277 290.245 267.866 287.771 269.63C287.135 270.08 286.704 270.795 286.118 271.324C282.6 274.548 279.095 277.781 275.517 280.94C273.549 282.684 271.383 284.2 269.432 285.967C265.334 289.681 261.546 293.78 257.196 297.162C253.355 300.151 249.813 303.465 246.136 306.627C240.58 316.725 244.178 324.978 244.188 327.822C244.199 331.062 244.309 334.299 244.419 337.535C244.456 338.536 245.018 339.713 244.656 340.479C243.703 342.507 244.86 343.141 246.612 343.841C245.933 347.267 248.103 352.657 247.244 356.05C247.032 356.891 232.687 367.17 232.738 367.721C224.647 371.704 207.202 375.127 207.313 376.439C206.464 377.258 204.935 377.64 203.066 377.444C197.344 376.848 192.245 374.636 187.214 372.003C185.629 371.177 185.892 369.88 185.58 368.787C184.913 366.41 184.34 366.018 181.955 366.401C181.156 366.529 179.669 366.01 179.437 365.414C178.106 362.075 177.413 358.46 175.819 355.263C174.46 352.525 174.913 349.309 172.731 346.703C171.445 345.196 171.972 333.012 172.806 332.096Z" fill="#002ACC"/>
<path d="M200.974 276.902C201.681 279.372 199.109 285.239 199.109 285.239C199.109 285.239 198.771 287.926 203.631 291.431C208.479 294.938 217.705 287.431 217.705 287.431L217.368 284.094C216.182 279.651 218.573 274.125 219.642 269.804C220.489 266.414 222.834 248.621 223.264 245.112L191.682 245.266C191.682 245.266 188.503 270.471 194.301 274.943" fill="#B79852"/>
<path d="M201.37 285.323C204.219 288.442 208.839 289.837 212.931 288.794C214.1 288.495 215.288 288.006 216.487 288.198" stroke="#080908" stroke-miterlimit="10" stroke-linejoin="round"/>
<path d="M173.675 229.811C173.293 228.668 173.597 227.314 174.439 226.446C175.035 225.829 175.846 225.463 176.691 225.314C177.198 225.221 177.706 225.214 178.204 225.146C179.505 224.974 180.78 224.484 181.851 223.728C181.975 223.646 182.084 223.554 182.163 223.429C182.353 223.138 182.25 222.732 182.01 222.473C181.771 222.225 181.427 222.094 181.091 222.011C180.018 221.749 178.903 221.841 177.802 221.944L176.477 221.97C178.805 219.534 181.529 217.469 184.504 215.886C185.179 215.529 185.868 215.182 186.388 214.627C186.907 214.071 187.384 213.249 187.083 212.54C186.98 212.283 186.245 211.88 185.766 212.068C182.997 213.159 179.939 214.296 177.524 216.038C179.386 213.404 182.412 211.912 185.192 210.273C185.43 210.135 185.667 209.985 185.844 209.77C186.256 209.244 186.097 208.413 185.614 207.956C185.119 207.502 184.39 207.37 183.736 207.475C183.07 207.582 182.462 207.891 181.879 208.208C178.975 209.768 176.251 211.671 173.783 213.857L174.56 210.962C176.119 207.37 176.899 206.971 179.627 204.16C180.096 203.675 180.615 203.045 180.391 202.423C180.101 201.625 178.952 201.66 178.172 201.984C176.127 202.859 174.613 204.643 173.465 206.542C172.304 208.442 171.43 210.496 170.187 212.347C169.565 213.267 168.848 214.14 167.977 214.827L167.17 215.602C166.14 213.594 166.172 211.241 165.874 209.003C165.577 206.765 164.779 204.347 162.814 203.247C162.118 202.861 161.073 202.768 160.659 203.444C160.434 203.815 160.495 204.277 160.553 204.715C161.02 208.007 161.485 211.286 161.951 214.577C162.186 216.192 162.41 217.82 162.4 219.461C162.399 220.455 162.3 221.465 162.528 222.422C163.073 224.732 165.398 226.756 164.705 229.016" stroke="#080908" stroke-miterlimit="10" stroke-linejoin="round"/>
<path d="M301.988 245.956C303.16 244.439 305.038 243.677 306.698 242.727C308.359 241.777 310.028 240.342 310.156 238.433C310.224 237.54 309.931 236.643 309.985 235.74C310.036 234.974 310.529 234.1 311.282 234.153C311.635 234.183 311.944 234.407 312.215 234.624C313.008 235.23 313.832 235.88 314.226 236.785C314.674 237.794 314.528 238.973 314.189 240.034C313.819 241.211 313.2 242.379 312.15 243.032" stroke="#080908" stroke-miterlimit="10" stroke-linejoin="round"/>
<path d="M315.08 238.002C316.737 235.873 318.415 233.715 320.547 232.068C321.088 231.646 321.659 231.256 322.25 230.913C322.466 230.791 322.707 230.666 322.942 230.74C323.087 230.791 323.191 230.898 323.273 231.022C323.937 231.909 323.938 233.151 323.559 234.193C323.18 235.235 322.451 236.11 321.755 236.955C320.268 238.759 318.77 240.565 317.284 242.368" stroke="#080908" stroke-miterlimit="10" stroke-linejoin="round"/>
<path d="M322.703 235.747C324.733 235.011 325.583 237.595 325.188 238.689C324.999 239.216 324.592 239.617 324.194 240.004C323.56 240.615 322.925 241.226 322.291 241.838C321.968 242.15 321.646 242.463 321.293 242.743C320.896 243.055 320.482 243.333 320.065 243.599C318.895 244.358 317.725 245.117 316.556 245.877" stroke="#080908" stroke-miterlimit="10" stroke-linejoin="round"/>
<path d="M301.166 254.137C302.523 255.161 304.275 255.551 305.976 255.551C307.678 255.551 309.357 255.182 311.012 254.816C312.211 254.549 313.41 254.282 314.621 254.013C315.677 253.781 316.767 253.532 317.634 252.896C318.188 252.484 318.653 251.664 318.196 251.141C317.499 250.358 315.412 252.134 314.849 251.256L314.398 250.459C317.11 249.328 319.901 248.147 321.919 246.021C323.299 244.557 326.446 242.35 325.058 240.896C324.206 240.002 324.206 240.002 324.206 240.002" stroke="#080908" stroke-miterlimit="10" stroke-linejoin="round"/>
<path d="M299.257 211.092C295.851 215.713 290.804 219.083 285.222 220.439C282.616 221.069 279.836 221.317 277.538 222.705C274.844 224.33 273.266 227.266 272.003 230.152C270.759 232.998 269.692 235.94 268.134 238.612C266.566 241.299 264.427 243.754 261.605 245.052C258.389 246.525 254.697 246.348 251.167 246.406C247.625 246.465 243.822 246.915 241.199 249.299C237.959 252.242 237.393 257.376 234.014 260.154C232.17 261.668 229.742 262.244 227.739 263.535C225.084 265.253 223.582 266.575 223.356 269.729L223.088 271.772C222.225 272.967 220.35 272.51 219.001 271.92C218.521 271.711 218.026 271.492 217.655 271.117C216.88 270.31 216.899 269.04 217.071 267.944C217.492 265.156 218.456 262.343 217.936 259.569C217.774 258.714 217.466 257.881 217.292 257.027C216.963 255.44 217.059 253.798 216.947 252.176C216.824 250.556 216.426 248.856 215.284 247.698L213.552 248.051C209.397 250.246 206.081 251.561 201.501 250.57C200.021 250.249 198.615 249.618 197.121 249.361C195.627 249.104 193.937 249.251 192.84 250.309C192.13 250.995 191.364 252.099 190.469 251.709C190.015 251.509 189.794 250.985 189.656 250.51C189.114 248.61 188.597 248.482 189.084 246.565L189.37 245.488C189.007 239.671 192.146 233.776 197.189 230.841C200.937 228.662 205.59 228.014 208.798 225.101C212.332 221.9 213.273 216.78 215.861 212.787C218.139 209.266 221.769 206.658 225.823 205.609C230.998 204.269 237.078 205.242 241.154 201.78C245.713 197.918 245.331 190.439 249.427 186.092C251.496 183.896 254.447 182.788 256.963 181.13C259.49 179.469 261.827 178.088 261.322 175.1L261.451 173.117C263.871 172.641 266.651 172.245 268.597 173.77C269.266 174.296 269.777 175.009 270.36 175.624C272.567 177.915 275.852 178.729 278.837 179.839C281.822 180.95 284.964 182.805 285.744 185.885C286.501 188.894 284.837 192.453 286.625 194.998C287.72 196.561 289.731 197.095 291.505 197.779C294.273 198.85 296.863 200.595 298.433 203.1C300.003 205.606 300.394 208.971 298.936 211.566" stroke="#080908" stroke-miterlimit="10" stroke-linejoin="round"/>
<path d="M185.227 374.632C190.284 392.118 186.388 408.457 191.866 425.315C193.541 429.17 197.973 434.11 202.912 429.677C209.06 423.808 216.53 417.813 220.138 408.576" stroke="#1D1D1B" stroke-miterlimit="10" stroke-linejoin="round"/>
<path d="M232.636 421.201C236.403 427.875 244.691 431.152 251.305 430.574C257.918 429.996 261.307 423.03 266.246 418.597C279.638 404.086 293.143 390.899 302.871 373.448" stroke="#1D1D1B" stroke-miterlimit="10" stroke-linejoin="round"/>
<path d="M247.312 353.07C247.169 368.26 243.387 385.923 252.48 398.461C252.48 398.461 253.803 398.348 255.124 398.223C268.856 387.682 279.716 374.733 291.166 361.814" stroke="#1D1D1B" stroke-miterlimit="10" stroke-linejoin="round"/>
<path d="M215.255 389.622C217.289 398.724 219.557 408.284 225.928 415.087C228.312 417.635 231.203 419.705 233.467 422.36" stroke="#1D1D1B" stroke-miterlimit="10" stroke-linejoin="round"/>
<path d="M290.635 361.912C291.381 361.916 292.129 361.933 292.862 362.014C295.731 362.323 298.472 363.771 300.362 365.951C302.253 368.132 303.27 371.062 303.162 373.948C303.032 373.758 302.89 373.57 302.76 373.379" stroke="#1D1D1B" stroke-miterlimit="10" stroke-linejoin="round"/>
<path d="M292.878 362.036C294.124 360.904 295.373 359.784 296.619 358.652" stroke="#1D1D1B" stroke-miterlimit="10" stroke-linejoin="round"/>
<path d="M303.318 371.824C304.325 370.904 305.342 369.971 306.35 369.051" stroke="#1D1D1B" stroke-miterlimit="10" stroke-linejoin="round"/>
<path d="M296.795 358.897C299.338 358.799 301.97 359.494 303.963 361.075C305.957 362.667 307.247 365.205 307.059 367.745" stroke="#1D1D1B" stroke-miterlimit="10" stroke-linejoin="round"/>
<path d="M296.729 357.715C298.802 355.159 301.333 352.976 304.155 351.293" stroke="#1D1D1B" stroke-miterlimit="10" stroke-linejoin="round"/>
<path d="M305.4 351.08C307.275 352.083 309.164 353.097 311.039 354.1C313.009 355.15 315.008 356.232 316.622 357.774C318.883 359.945 320.223 362.873 321.351 365.797C323.16 370.487 324.549 375.345 325.491 380.286C325.591 380.829 325.695 381.397 325.504 381.912C324.996 383.385 322.861 383.317 321.431 382.69C318.268 381.322 315.816 378.735 313.462 376.219C311.41 374.039 309.371 371.858 307.318 369.666" stroke="#1D1D1B" stroke-miterlimit="10" stroke-linejoin="round"/>
<path d="M304.303 351.132C304.876 350.444 305.533 349.817 306.241 349.281C306.529 349.061 306.843 348.849 307.194 348.792C307.581 348.73 307.973 348.854 308.342 348.981C312.086 350.255 315.967 351.607 318.827 354.34C320.529 355.967 321.775 358.002 322.957 360.024C324.021 361.853 325.05 363.7 325.883 365.64C327.576 369.604 328.393 373.92 328.277 378.224C328.265 378.686 328.242 379.162 328.102 379.606C327.621 381.174 325.925 381.981 324.412 382.609" stroke="#1D1D1B" stroke-miterlimit="10" stroke-linejoin="round"/>
<path d="M297.79 358.364C297.582 358.385 297.639 358.041 297.775 357.882C298.396 357.186 299.014 356.478 299.635 355.782C298.888 356.461 298.308 357.337 297.976 358.285C298.92 357.438 299.744 356.46 300.402 355.374C299.963 356.276 299.526 357.191 299.088 358.094C300.295 357.18 301.233 355.911 301.736 354.476C300.796 355.509 299.798 356.638 299.661 358.027C301.101 356.864 302.265 355.372 303.024 353.685C302.009 354.556 301.058 355.517 300.205 356.548C301.563 355.647 302.79 354.543 303.831 353.295C302.705 353.476 301.687 354.248 301.209 355.294C302.249 354.269 303.277 353.247 304.317 352.223C303.627 353.029 302.863 353.761 302.008 354.395C302.811 353.67 303.625 352.943 304.428 352.218C303.739 352.875 303.122 353.595 302.565 354.38C303.474 353.625 304.372 352.873 305.279 352.106C304.726 352.219 304.57 353.102 305.05 353.385C305.248 353.303 305.362 353.086 305.339 352.866C304.98 352.874 304.624 352.894 304.265 352.902C304.231 352.46 304.939 352.459 305.282 352.739C305.623 353.007 306.08 353.381 306.436 353.125C306.223 352.724 305.907 352.378 305.521 352.141C306.759 353.197 307.984 354.255 309.224 355.323C308.137 354.665 307.062 354.006 305.976 353.348C307.706 353.915 309.369 354.678 310.913 355.635C309.404 354.896 307.904 354.144 306.395 353.405C308.451 353.994 310.403 354.935 312.15 356.145C310.055 355.239 307.895 354.319 305.618 354.213C307.701 354.81 309.851 355.21 312.015 355.384C309.507 355.079 306.997 354.761 304.489 354.456C306.437 354.826 308.382 355.185 310.317 355.557C308.336 354.82 306.276 354.293 304.188 353.97C304.194 354.628 304.879 355.027 305.501 355.263C307.007 355.828 308.62 356.128 310.225 356.143C308.113 355.675 305.97 355.324 303.81 355.099C305.318 355.751 306.933 356.138 308.575 356.234C306.729 355.562 304.794 355.115 302.834 354.896C303.853 356.372 305.782 357.168 307.54 356.823C306.147 356.041 304.48 355.787 302.928 356.098C303.894 356.937 305.318 357.217 306.526 356.775C306.712 356.621 306.454 356.327 306.217 356.241C305.014 355.788 303.692 355.677 302.431 355.942C303.418 356.752 304.622 357.292 305.885 357.499C304.665 357.248 303.414 357.113 302.166 357.078C303.047 357.694 304.079 358.087 305.155 358.212C303.938 357.824 302.677 357.555 301.402 357.424C302.386 358.135 303.564 358.592 304.765 358.722C303.414 358.43 302.024 358.281 300.641 358.254C301.544 359.004 302.759 359.38 303.923 359.28C302.721 358.752 301.457 358.384 300.162 358.207C301.407 358.926 302.863 359.251 304.297 359.133C303.435 359.023 302.583 358.824 301.756 358.547C303.392 358.682 305.011 359.018 306.572 359.537C305.498 359.114 304.414 358.704 303.34 358.28C304.41 360.146 305.888 361.771 307.653 363.016C306.108 361.749 304.563 360.481 303.018 359.214C304.738 360.64 306.457 362.065 308.176 363.491C306.826 361.733 305.342 360.07 303.74 358.527C305.55 360.596 307.523 362.515 309.641 364.262C307.82 362.355 306.118 360.343 304.526 358.239C305.957 359.959 307.463 361.605 309.045 363.177C307.878 361.328 306.588 359.56 305.175 357.874C306.625 359.479 308.175 361.007 309.819 362.432C309.06 361.262 308.19 360.172 307.222 359.172C308.029 360.645 309.224 361.894 310.668 362.768C309.663 361.227 308.579 359.737 307.406 358.31C308.645 359.763 309.875 361.23 311.114 362.683C309.924 361.148 308.721 359.615 307.53 358.079C308.699 359.245 309.878 360.398 311.046 361.564C310.411 360.784 309.874 359.914 309.464 358.986C310.543 360.055 311.526 361.226 312.385 362.479C311.199 360.583 310.011 358.675 308.824 356.778C309.9 358.22 310.975 359.65 312.051 361.092C310.861 359.482 309.671 357.872 308.48 356.262C309.827 357.996 311.186 359.728 312.534 361.474C311.499 360.286 310.462 359.087 309.426 357.899C309.274 357.725 309.094 357.53 308.866 357.504C308.639 357.479 308.381 357.731 308.501 357.936" stroke="#1D1D1B" stroke-miterlimit="10" stroke-linejoin="round"/>
<path d="M306.596 357.596C307.057 357.373 307.563 357.279 308.065 357.31C307.927 358.227 306.654 358.73 305.927 358.151C306.447 358.216 306.965 358.27 307.485 358.335C307.572 357.874 307.48 357.38 307.231 356.985C307.373 357.794 307.602 358.602 307.91 359.36C308.093 359.803 308.536 360.315 308.94 360.052C309.064 359.97 309.131 359.847 309.184 359.714C309.693 358.552 309.163 357.035 308.038 356.445C308.191 357.241 308.678 357.957 309.355 358.383C309.52 358.48 309.721 358.572 309.893 358.483C310.144 358.343 310.083 357.968 309.978 357.699C309.348 356.173 308.39 354.774 307.2 353.624C307.595 354.69 308.572 355.515 309.687 355.733C308.926 355.172 308.152 354.601 307.391 354.04C308.182 354.559 309.085 354.923 310.018 355.084C308.867 354.573 307.772 353.941 306.747 353.199C307.962 354.346 309.428 355.203 311.012 355.707C309.524 354.641 308.098 353.492 306.736 352.282C308.244 353.245 309.753 354.207 311.259 355.158C309.986 354.269 308.599 353.523 307.155 352.96C309.77 354.391 312.211 356.135 314.419 358.128C313.099 357.024 311.777 355.907 310.457 354.802C312.398 356.142 314.26 357.607 316.039 359.172C314.435 358.076 312.981 356.757 311.736 355.267C313.599 356.198 315.255 357.534 316.545 359.153C315.49 358.229 314.448 357.304 313.395 356.392C315.222 357.564 316.934 358.942 318.461 360.485C315.968 359.581 313.782 358.032 311.612 356.505C312.996 358.319 314.658 359.928 316.531 361.23C314.501 359.568 312.399 358.005 310.237 356.527C311.634 358.576 313.57 360.265 315.797 361.373C313.715 359.856 311.662 358.285 309.643 356.697C311.914 359.239 314.198 361.779 316.471 364.332C315.047 361.654 313.142 359.228 310.88 357.206C312.966 360.759 315.167 364.256 317.469 367.687C315.602 365.342 313.966 362.809 312.582 360.15C314.485 363.26 316.275 366.438 317.937 369.674C317.617 368.608 317.06 367.617 316.305 366.781C316.439 367.691 316.769 368.583 317.254 369.362" stroke="#1D1D1B" stroke-miterlimit="10" stroke-linejoin="round"/>
<path d="M315.621 362.444C316.985 364.983 318.359 367.507 319.723 370.046C318.228 366.92 316.734 363.806 315.25 360.678C317.085 363.439 318.272 366.577 319.439 369.669C318.971 366.366 316.28 363.767 315.521 360.51C317.013 362.68 318.202 365.061 319.036 367.548C318.224 365.194 317.423 362.838 316.608 360.472C317.48 362.73 318.362 364.973 319.234 367.23C318.644 364.952 317.877 362.728 316.922 360.571C318.093 362.681 319.015 364.942 319.661 367.261C319.185 364.915 318.442 362.612 317.457 360.423C318.463 362.509 319.376 364.636 320.218 366.786C319.614 364.883 319.023 362.979 318.421 361.088C319.562 363.476 320.497 365.971 321.206 368.528C320.797 366.991 320.387 365.443 319.979 363.906C320.869 366.508 321.688 369.134 322.41 371.776C322.016 369.938 321.371 368.166 320.518 366.49C321.364 369.124 322.197 371.76 323.044 374.407C321.996 371.979 320.855 369.591 319.621 367.243C320.576 369.71 321.543 372.176 322.498 374.643C321.498 372.046 320.101 369.613 318.362 367.445C319.226 369.89 320.305 372.275 321.586 374.529C320.197 372.38 318.809 370.23 317.42 368.08C318.478 370.022 319.537 371.976 320.594 373.918C319.163 371.664 317.745 369.407 316.315 367.152C317.556 369.773 318.889 372.354 320.338 374.879C318.403 371.413 316.298 368.05 314.013 364.802C315.614 368.122 317.482 371.325 319.583 374.354C317.383 370.633 315.182 366.9 312.982 363.179C314.484 366.192 315.99 369.229 317.914 372.001C316.779 368.569 315.28 365.269 313.449 362.147C314.421 364.948 315.617 367.675 317.016 370.282C315.983 367.019 313.812 364.25 311.691 361.56C312.991 364.395 314.604 367.092 316.494 369.583C314.955 366.961 313.101 364.538 310.977 362.37C312.441 364.992 313.996 367.562 315.643 370.08C314.168 367.472 312.376 365.052 310.314 362.887C311.392 365.881 312.915 368.717 314.817 371.281C313.48 368.602 311.775 366.105 309.777 363.868C311.083 366.664 312.605 369.338 314.342 371.879C313.798 369.42 312.404 367.16 310.46 365.571C311.545 368.229 312.794 370.824 314.227 373.326C314.141 373.104 314.046 372.896 313.961 372.673" stroke="#1D1D1B" stroke-miterlimit="10" stroke-linejoin="round"/>
<path d="M308.493 363.378C309.343 365.341 310.194 367.316 311.043 369.279C310.131 366.767 308.771 364.414 307.062 362.353C308.187 364.409 309.324 366.462 310.451 368.529C309.323 366.611 308.205 364.679 307.078 362.761C307.676 364.553 308.452 366.291 309.376 367.944C308.88 366.484 308.138 365.112 307.198 363.897C307.58 365.189 308.21 366.405 309.036 367.452C308.586 366.891 308.212 366.268 307.944 365.603C308.235 366.798 308.513 367.984 308.804 369.179C308.728 368.396 308.483 367.641 308.087 366.959C307.884 367.625 307.823 368.33 307.896 369.014C307.759 368.626 307.527 368.266 307.221 367.98C307.241 368.337 307.333 368.682 307.495 368.992C307.347 368.767 307.199 368.542 307.065 368.328C307.063 368.775 307.185 369.228 307.409 369.614C307.378 369.346 307.345 369.065 307.315 368.797C307.462 369.171 307.839 369.433 308.236 369.432C308.439 369.225 308.427 368.842 308.186 368.657C308.664 369.698 309.269 370.682 309.984 371.573C309.632 370.313 309.018 369.12 308.206 368.083C309.527 370.429 311.042 372.67 312.731 374.759C312.803 374.201 312.493 373.667 312.194 373.193C311.335 371.791 310.464 370.39 309.606 368.988C311.475 371.271 313.343 373.543 315.212 375.826C313.584 373.032 311.738 370.36 309.729 367.825C311.778 370.763 314.028 373.557 316.462 376.184C315.471 373.959 314.157 371.884 312.569 370.04C314.354 372.883 316.276 375.643 318.32 378.321C316.683 376.708 314.907 375.242 313.022 373.942C314.465 375.661 316.04 377.271 317.709 378.767C316.339 377.508 314.956 376.24 313.586 374.982C314.844 376.084 316.101 377.186 317.347 378.291C316.721 377.795 316.147 377.241 315.605 376.645C317.193 377.719 318.71 378.892 320.154 380.15C319.744 379.297 319.182 378.505 318.494 377.858C319.418 378.89 320.353 379.919 321.276 380.951C320.04 380.057 318.742 379.247 317.377 378.559C318.738 379.918 320.182 381.177 321.712 382.347C320.464 381.231 319.177 380.096 317.608 379.528C318.994 380.585 320.522 381.433 322.149 382.053C321.795 381.551 321.455 381.059 321.101 380.557C321.493 381.065 322.084 381.418 322.719 381.502C322.267 380.084 321.424 378.779 320.297 377.792C321.067 379.109 321.953 380.371 322.914 381.558C322.347 379.574 321.675 377.633 320.884 375.723C321.411 377.153 322.044 378.542 322.768 379.879C322.645 378.645 322.47 377.406 322.225 376.19C322.681 377.558 323.135 378.914 323.59 380.281C323.352 379.028 323.101 377.776 322.863 376.523C323.218 377.733 323.574 378.942 323.932 380.164C323.596 378.305 323.262 376.459 322.926 374.6C323.482 376.361 324.026 378.124 324.583 379.886C324.142 378.069 323.703 376.264 323.262 374.446C323.672 375.995 324.082 377.544 324.492 379.093C324.247 378.648 324.002 378.203 323.756 377.758C323.782 378.151 323.82 378.543 323.846 378.936C323.165 378.25 322.534 377.495 321.983 376.689C322.609 378.116 323.248 379.541 323.877 380.981C323.409 379.23 322.74 377.536 321.876 375.948C321.543 375.343 321.129 374.702 320.457 374.537C321.017 376.397 321.885 378.17 323.019 379.74C322.687 378.6 322.224 377.495 321.635 376.459C321.613 377.556 321.812 378.642 322.211 379.658C321.905 378.291 321.812 376.865 321.937 375.479C322.089 376.038 322.112 376.643 321.992 377.209C321.896 377.697 320.987 377.606 320.982 377.11C320.977 376.614 321.895 376.529 321.987 377.024" stroke="#1D1D1B" stroke-miterlimit="10" stroke-linejoin="round"/>
<path d="M320.381 379.008C319.834 377.692 319.172 376.432 318.397 375.24" stroke="#1D1D1B" stroke-miterlimit="10" stroke-linejoin="round"/>
<path d="M316.638 373.026C317.924 375.005 319.221 376.971 320.508 378.95C318.789 375.674 316.292 372.808 313.299 370.643C314.5 373.096 315.954 375.421 317.641 377.573C317.96 377.546 318.013 377.103 317.964 376.8C317.455 373.553 315.49 370.751 313.495 368.152C315.448 370.41 317.248 372.804 318.88 375.311C317.883 373.124 316.955 370.901 316.097 368.653C316.916 371.205 318.092 373.649 319.57 375.896C320.015 374.334 319.606 372.561 318.518 371.357C318.876 373.585 319.537 375.765 320.474 377.813C320.586 376.963 320.519 376.079 320.251 375.265C320.564 376.594 320.828 377.93 321.046 379.286C320.671 378.266 320.286 377.259 319.911 376.239C319.956 377.139 319.866 378.047 319.657 378.913C319.228 378.175 318.856 377.402 318.532 376.622" stroke="#1D1D1B" stroke-miterlimit="10" stroke-linejoin="round"/>
<path d="M109.704 257.49C108.302 257.653 107.228 258.931 106.849 260.284C106.47 261.637 106.629 263.089 106.794 264.504C106.95 265.783 107.128 267.121 107.88 268.168C108.978 269.668 111.079 270.15 112.896 269.784C114.712 269.418 116.301 268.33 117.755 267.177C119.452 265.837 121.197 263.706 120.273 261.742C119.95 261.049 119.334 260.539 118.694 260.108C115.975 258.259 112.548 257.493 109.288 257.992" stroke="#1D1D1B" stroke-miterlimit="10" stroke-linejoin="round"/>
<path d="M124.262 237.562C122.641 241.462 121.019 245.362 119.398 249.262" stroke="#1D1D1B" stroke-miterlimit="10" stroke-linejoin="round"/>
<path d="M96.1644 243.479C96.4707 245.927 97.483 248.286 99.0321 250.199" stroke="#1D1D1B" stroke-miterlimit="10" stroke-linejoin="round"/>
<path d="M90.1406 273.862C91.7744 273.363 93.3392 272.59 94.7179 271.586" stroke="#1D1D1B" stroke-miterlimit="10" stroke-linejoin="round"/>
<path d="M109.38 282.609C109.233 284.943 109.089 287.289 108.942 289.623" stroke="#1D1D1B" stroke-miterlimit="10" stroke-linejoin="round"/>
<path d="M126.27 276.269C127.073 277.866 128.187 279.315 129.511 280.518" stroke="#1D1D1B" stroke-miterlimit="10" stroke-linejoin="round"/>
<path d="M133.306 262.083C134.991 262.757 136.816 263.06 138.628 262.98" stroke="#1D1D1B" stroke-miterlimit="10" stroke-linejoin="round"/>
</g>
<defs>
<filter id="filter0_d_2504_3088" x="82.428" y="156.427" width="476.227" height="599.055" filterUnits="userSpaceOnUse" color-interpolation-filters="sRGB">
<feFlood flood-opacity="0" result="BackgroundImageFix"/>
<feColorMatrix in="SourceAlpha" type="matrix" values="0 0 0 0 0 0 0 0 0 0 0 0 0 0 0 0 0 0 127 0" result="hardAlpha"/>
<feOffset dx="2" dy="17"/>
<feGaussianBlur stdDeviation="9"/>
<feColorMatrix type="matrix" values="0 0 0 0 0.769141 0 0 0 0 0.769141 0 0 0 0 0.769141 0 0 0 0.35 0"/>
<feBlend mode="normal" in2="BackgroundImageFix" result="effect1_dropShadow_2504_3088"/>
<feBlend mode="normal" in="SourceGraphic" in2="effect1_dropShadow_2504_3088" result="shape"/>
</filter>
<filter id="filter1_d_2504_3088" x="0.0437012" y="1.0437" width="424.201" height="575.861" filterUnits="userSpaceOnUse" color-interpolation-filters="sRGB">
<feFlood flood-opacity="0" result="BackgroundImageFix"/>
<feColorMatrix in="SourceAlpha" type="matrix" values="0 0 0 0 0 0 0 0 0 0 0 0 0 0 0 0 0 0 127 0" result="hardAlpha"/>
<feOffset dx="2" dy="17"/>
<feGaussianBlur stdDeviation="9"/>
<feColorMatrix type="matrix" values="0 0 0 0 0.769141 0 0 0 0 0.769141 0 0 0 0 0.769141 0 0 0 0.35 0"/>
<feBlend mode="normal" in2="BackgroundImageFix" result="effect1_dropShadow_2504_3088"/>
<feBlend mode="normal" in="SourceGraphic" in2="effect1_dropShadow_2504_3088" result="shape"/>
</filter>
<clipPath id="clip0_2504_3088">
<rect width="266" height="282" fill="white" transform="translate(64.1924 187.86) rotate(-9.12572)"/>
</clipPath>
</defs>
</svg>
