<svg width="353" height="456" viewBox="0 0 353 456" fill="none" xmlns="http://www.w3.org/2000/svg">
<g filter="url(#filter0_d_1303_3349)">
<path d="M318.982 1H30.018C22.2761 1 16 7.27607 16 15.018V406.982C16 414.724 22.2761 421 30.018 421H318.982C326.724 421 333 414.724 333 406.982V15.018C333 7.27607 326.724 1 318.982 1Z" fill="white"/>
</g>
<path d="M126.196 231.559C125.927 229.541 125.427 227.746 125.504 225.985C125.695 221.933 126.402 217.904 126.432 213.853C126.456 211.157 126.527 205.185 126.529 203.191C126.53 200.716 129.397 195.064 128.673 187.803C126.826 166.968 128.71 146.139 130.679 125.138C131.344 125.147 131.947 125.046 132.477 125.204C133.315 125.446 134.118 126.008 134.729 124.873C134.753 124.836 134.876 124.872 134.95 124.847C137.372 124.048 143.564 126.469 144.806 128.814C145.141 129.441 145.195 130.278 145.198 131.016C145.21 133.602 144.36 136.08 144.989 138.798C145.516 141.037 144.999 143.538 144.887 145.915C144.809 147.59 144.569 149.093 145.894 150.663C146.872 151.816 146.943 153.748 147.357 155.347C147.57 156.208 147.562 157.131 147.813 157.979C149.339 163.205 150.903 168.43 152.479 173.63C153.567 177.22 154.606 180.847 155.903 184.363C156.227 185.26 157.486 185.796 158.277 186.543C162.235 190.341 167.205 192.213 172.261 193.889C173.124 194.168 174.133 194.015 175.069 194.023C176.202 194.03 177.347 194.074 178.467 193.97C178.91 193.931 179.499 193.645 179.719 193.287C181.613 190.2 184.652 189.792 187.875 189.247C190.41 188.817 192.817 187.537 195.238 186.553C195.483 186.453 195.542 185.85 195.457 186.072C196.735 185.561 197.595 185.175 198.492 184.863C200.643 184.127 202.857 183.55 204.946 182.666C209.197 180.86 213.715 180.753 218.181 180.079C220.556 179.723 222.777 178.297 225.075 177.363C229.45 175.582 233.874 173.899 238.199 171.982C240.079 171.148 241.697 169.725 243.577 168.854C245.419 167.996 247.424 167.506 249.354 166.845C251.505 166.096 253.879 165.69 255.733 164.487C257.795 163.136 260.071 162.94 262.248 162.302C264.94 161.514 268.215 164.108 268.88 166.678C269.268 168.179 270.592 169.416 271.448 170.803C272.701 172.829 271.973 175.147 269.935 176.326C265.981 178.622 262.139 181.103 258.149 183.338C255.484 184.828 252.633 185.999 249.906 187.366C249.206 187.714 248.667 188.357 248.005 188.791C244.016 191.444 240.039 194.11 236.001 196.69C233.779 198.116 231.396 199.285 229.187 200.736C224.547 203.787 220.156 207.267 215.318 209.949C211.045 212.321 207.019 215.061 202.882 217.629C195.809 226.786 198.104 235.529 197.674 238.35C197.184 241.566 196.793 244.793 196.402 248.021C196.284 249.019 196.659 250.273 196.182 250.977C194.923 252.842 195.973 253.649 197.603 254.614C196.399 257.907 197.719 263.589 196.343 266.821C196.002 267.623 180.182 275.602 180.148 276.156C171.505 278.857 153.668 279.556 153.576 280.874C152.607 281.556 151.032 281.699 149.207 281.215C143.623 279.739 138.906 276.757 134.322 273.369C132.876 272.304 133.338 271.059 133.198 269.927C132.903 267.466 132.396 266.988 129.97 266.999C129.158 267.003 127.763 266.259 127.625 265.632C126.82 262.114 126.692 258.421 125.604 255.004C124.68 252.078 125.625 248.958 123.863 246.036C122.821 244.342 125.227 232.339 126.196 231.559V231.559Z" fill="url(#paint0_linear_1303_3349)"/>
<path d="M162.672 181.166C162.992 183.725 159.533 189.147 159.533 189.147C159.533 189.147 158.782 191.76 163.062 195.988C167.329 200.215 177.643 194.195 177.643 194.195L177.824 190.833C177.335 186.243 180.561 181.131 182.29 177.01C183.653 173.778 188.73 156.493 189.699 153.078L158.343 148.351C158.343 148.351 151.293 172.86 156.354 178.192" fill="#C18145"/>
<path d="M161.763 189.58C164.107 193.115 168.475 195.212 172.696 194.81C173.902 194.694 175.157 194.392 176.316 194.768M142.867 130.239C142.774 129.638 142.842 129.022 143.067 128.455C143.292 127.889 143.664 127.394 144.145 127.02C144.832 126.5 145.693 126.262 146.554 126.245C147.072 126.231 147.577 126.302 148.081 126.312C149.399 126.343 150.74 126.053 151.919 125.469C152.054 125.407 152.177 125.332 152.275 125.221C152.507 124.961 152.468 124.543 152.27 124.248C152.072 123.966 151.751 123.783 151.43 123.649C150.406 123.223 149.285 123.142 148.177 123.073L146.859 122.895C149.545 120.839 152.566 119.211 155.762 118.101C156.488 117.851 157.225 117.614 157.826 117.143C158.427 116.672 159.027 115.931 158.839 115.18C158.776 114.91 158.109 114.396 157.604 114.509C154.69 115.163 151.479 115.818 148.814 117.173C151.068 114.848 154.302 113.835 157.312 112.639C157.57 112.539 157.829 112.427 158.037 112.242C158.527 111.784 158.499 110.934 158.09 110.407C157.669 109.88 156.966 109.637 156.301 109.64C155.624 109.643 154.972 109.855 154.345 110.08C151.223 111.178 148.226 112.645 145.44 114.431L146.658 111.68C148.76 108.358 149.596 108.083 152.737 105.717C153.276 105.308 153.889 104.763 153.763 104.111C153.599 103.275 152.454 103.133 151.63 103.333C149.465 103.885 147.687 105.421 146.255 107.126C144.81 108.832 143.625 110.734 142.106 112.378C141.346 113.195 140.501 113.95 139.53 114.496L138.61 115.141C137.898 112.989 138.293 110.66 138.344 108.395C138.395 106.129 137.977 103.607 136.197 102.212C135.567 101.723 134.544 101.469 134.03 102.075C133.748 102.408 133.738 102.876 133.728 103.32L133.591 113.317C133.574 114.955 133.545 116.605 133.281 118.231C133.126 119.217 132.872 120.203 132.951 121.188C133.134 123.563 135.128 125.93 134.091 128.065M267.67 166.081C269.068 164.757 271.048 164.292 272.842 163.607C274.636 162.921 276.514 161.755 276.936 159.881C277.142 159.006 276.989 158.071 277.182 157.184C277.351 156.432 277.975 155.641 278.715 155.81C279.06 155.895 279.332 156.164 279.567 156.422C280.26 157.145 280.978 157.917 281.229 158.876C281.517 159.946 281.19 161.092 280.69 162.092C280.141 163.203 279.346 164.265 278.203 164.751M281.887 160.215C283.861 158.359 285.859 156.478 288.229 155.174C288.831 154.839 289.457 154.54 290.096 154.291C290.33 154.204 290.588 154.116 290.81 154.226C290.946 154.299 291.032 154.422 291.095 154.557C291.616 155.54 291.425 156.772 290.888 157.747C290.351 158.722 289.493 159.477 288.671 160.208C286.918 161.767 285.152 163.327 283.399 164.886" stroke="#080908" stroke-width="1.23118" stroke-miterlimit="10" stroke-linejoin="round"/>
<path d="M289.799 159.156C291.927 158.739 292.371 161.434 291.809 162.458C291.541 162.952 291.074 163.287 290.62 163.609L288.448 165.133C288.08 165.394 287.712 165.654 287.319 165.878C286.877 166.126 286.423 166.337 285.968 166.536L282.135 168.254" stroke="#080908" stroke-width="1.23118" stroke-miterlimit="10" stroke-linejoin="round"/>
<path d="M265.59 174.069C266.778 175.294 268.455 175.951 270.143 176.214C271.831 176.477 273.554 176.37 275.253 176.264L278.958 176.025C280.041 175.958 281.161 175.879 282.119 175.382C282.733 175.059 283.32 174.318 282.948 173.728C282.378 172.845 280.033 174.284 279.61 173.325L279.286 172.465C282.151 171.762 285.102 171.022 287.433 169.226C289.028 167.987 292.492 166.284 291.339 164.627L290.632 163.609M270.349 131.078C266.256 135.135 260.727 137.698 254.98 138.18C252.297 138.402 249.501 138.219 247.007 139.24C244.082 140.436 242.063 143.105 240.365 145.772C238.69 148.402 237.177 151.155 235.218 153.565C233.247 155.988 230.746 158.092 227.746 158.944C224.327 159.908 220.692 159.162 217.181 158.674C213.657 158.185 209.815 158.044 206.845 160.003C203.175 162.421 201.82 167.426 198.038 169.66C195.976 170.876 193.477 171.073 191.29 172.044C188.391 173.338 186.697 174.417 185.985 177.51L185.403 179.495C184.362 180.547 182.573 179.804 181.326 179.01C180.881 178.729 180.424 178.435 180.115 178.006C179.47 177.086 179.686 175.829 180.025 174.768C180.875 172.068 182.266 169.427 182.178 166.595C182.15 165.721 181.973 164.848 181.932 163.974C181.851 162.349 182.2 160.735 182.34 159.109C182.468 157.483 182.336 155.736 181.382 154.41L179.61 154.493C175.148 156.028 171.655 156.82 167.264 155.13C165.845 154.582 164.549 153.739 163.106 153.253C161.663 152.768 159.963 152.652 158.712 153.533C157.902 154.103 156.971 155.08 156.143 154.554C155.724 154.285 155.585 153.732 155.522 153.24C155.278 151.271 154.785 151.064 155.564 149.238L156.015 148.214C156.554 142.388 160.579 137.026 166.035 134.895C170.091 133.312 174.807 133.388 178.44 130.995C182.441 128.366 184.166 123.433 187.35 119.872C190.155 116.731 194.159 114.706 198.343 114.292C203.684 113.762 209.566 115.667 214.145 112.863C219.264 109.736 220.041 102.259 224.777 98.5802C227.169 96.7221 230.268 96.0796 233.02 94.8231C235.784 93.5665 238.316 92.5573 238.277 89.5165L238.711 87.5691C241.185 87.4713 244.005 87.5072 245.7 89.3213C246.282 89.9465 246.679 90.7326 247.163 91.4321C248.997 94.0459 252.131 95.3608 254.921 96.9235C257.71 98.4863 260.541 100.812 260.839 103.987C261.125 107.088 258.924 110.362 260.304 113.162C261.149 114.882 263.061 115.722 264.716 116.675C267.296 118.165 269.596 120.296 270.766 123.024C271.936 125.752 271.805 129.15 269.957 131.498" stroke="#080908" stroke-width="1.23118" stroke-miterlimit="10" stroke-linejoin="round"/>
<path d="M131.944 275.67C134.258 293.795 127.868 309.4 130.697 326.968C131.763 331.05 135.396 336.635 140.981 333.001C147.988 328.129 156.325 323.338 161.333 314.733M171.78 329.187C174.486 336.389 182.202 340.92 188.852 341.369C195.503 341.818 199.942 335.431 205.527 331.798C221.056 319.474 236.492 308.48 248.84 292.675M196.871 263.877C194.381 278.921 187.899 295.856 194.982 309.698C194.982 309.698 196.312 309.79 197.642 309.87C212.894 301.537 225.67 290.371 239.026 279.326" stroke="#1D1D1B" stroke-width="1.23118" stroke-miterlimit="10" stroke-linejoin="round"/>
<path d="M159.418 295.178C160.029 304.52 160.802 314.354 166.071 322.085C168.042 324.981 170.59 327.481 172.426 330.464M238.484 279.341C239.224 279.461 239.963 279.593 240.678 279.786C243.476 280.536 245.972 282.396 247.51 284.851C249.049 287.306 249.605 290.369 249.052 293.216C248.953 293.007 248.841 292.798 248.741 292.589M240.69 279.811C242.102 278.881 243.513 277.963 244.925 277.033M249.535 291.133L252.971 288.851M245.062 277.303C247.599 277.599 250.104 278.695 251.836 280.571C253.569 282.458 254.456 285.175 253.877 287.665M245.179 276.121C247.631 273.905 250.479 272.131 253.539 270.898" stroke="#1D1D1B" stroke-width="1.23118" stroke-miterlimit="10" stroke-linejoin="round"/>
<path d="M254.807 270.879L259.935 274.746C261.726 276.091 263.543 277.474 264.905 279.253C266.813 281.756 267.69 284.866 268.357 287.941C269.426 292.873 270.054 297.906 270.225 302.953C270.24 303.507 270.255 304.085 269.986 304.567C269.254 305.949 267.147 305.553 265.826 304.71C262.899 302.864 260.866 299.919 258.92 297.06C257.221 294.581 255.535 292.102 253.836 289.61" stroke="#1D1D1B" stroke-width="1.23118" stroke-miterlimit="10" stroke-linejoin="round"/>
<path d="M253.711 270.761C254.385 270.167 255.134 269.647 255.92 269.224C256.239 269.05 256.583 268.889 256.94 268.887C257.334 268.885 257.704 269.068 258.05 269.251C261.567 271.094 265.209 273.034 267.624 276.187C269.061 278.064 269.983 280.276 270.843 282.463C271.615 284.442 272.351 286.433 272.878 288.486C273.944 292.68 274.088 297.087 273.308 301.338C273.224 301.794 273.128 302.262 272.921 302.682C272.201 304.163 270.394 304.7 268.795 305.09" stroke="#1D1D1B" stroke-width="1.23118" stroke-miterlimit="10" stroke-linejoin="round"/>
<path d="M246.131 276.928C245.922 276.917 246.031 276.584 246.19 276.448C246.914 275.853 247.637 275.247 248.361 274.652C247.514 275.21 246.804 275.989 246.328 276.878C247.396 276.183 248.364 275.342 249.184 274.365C248.61 275.193 248.035 276.033 247.46 276.86C248.81 276.134 249.918 275.029 250.646 273.681C249.555 274.56 248.39 275.526 248.039 276.882C249.648 275.951 251.033 274.652 252.047 273.096C250.905 273.803 249.814 274.608 248.808 275.5C250.295 274.815 251.682 273.91 252.908 272.833C252.331 272.842 251.766 272.989 251.259 273.264C250.752 273.539 250.319 273.932 249.997 274.411C251.188 273.555 252.365 272.7 253.556 271.845C252.746 272.538 251.875 273.146 250.929 273.643C251.838 273.048 252.758 272.452 253.666 271.857C252.881 272.402 252.158 273.021 251.484 273.714C252.503 273.106 253.509 272.498 254.528 271.877C253.962 271.905 253.671 272.756 254.103 273.111C254.312 273.06 254.459 272.863 254.47 272.641C254.113 272.594 253.756 272.558 253.399 272.511C253.434 272.067 254.136 272.175 254.433 272.506C254.73 272.825 255.126 273.266 255.519 273.067C255.369 272.637 255.109 272.244 254.763 271.95C255.827 273.189 256.88 274.427 257.944 275.678C256.968 274.858 256.004 274.037 255.027 273.217C256.657 274.044 258.183 275.062 259.572 276.249C258.189 275.283 256.818 274.304 255.434 273.338C257.384 274.24 259.175 275.475 260.721 276.945C258.782 275.723 256.781 274.477 254.539 274.02C256.513 274.934 258.585 275.663 260.705 276.17C258.264 275.48 255.823 274.777 253.382 274.087C255.256 274.755 257.131 275.411 258.993 276.079C257.141 275.042 255.18 274.201 253.157 273.558C253.062 274.211 253.68 274.713 254.26 275.043C255.667 275.837 257.221 276.383 258.811 276.647C256.788 275.856 254.716 275.176 252.608 274.62C254.004 275.5 255.546 276.133 257.16 276.482C255.432 275.53 253.582 274.788 251.671 274.267C252.454 275.889 254.245 276.976 256.042 276.906C254.77 275.915 253.189 275.408 251.578 275.474C252.408 276.455 253.777 276.954 255.044 276.701C255.252 276.577 255.042 276.246 254.819 276.124C253.696 275.489 252.402 275.175 251.109 275.242C251.963 276.199 253.075 276.92 254.296 277.32C253.124 276.883 251.903 276.556 250.671 276.328C251.45 277.075 252.413 277.625 253.461 277.915C252.313 277.342 251.105 276.88 249.86 276.553C250.726 277.411 251.824 278.046 252.995 278.361C251.7 277.862 250.344 277.499 248.977 277.259C249.756 278.142 250.904 278.703 252.074 278.784C250.963 278.075 249.766 277.514 248.508 277.138C249.633 278.044 251.027 278.592 252.468 278.696C251.629 278.453 250.815 278.125 250.038 277.722C251.64 278.109 253.194 278.692 254.663 279.449C253.663 278.862 252.65 278.289 251.65 277.702C252.423 279.718 253.638 281.559 255.197 283.066L251.187 278.579L255.643 283.618C254.575 281.665 253.359 279.787 252.009 278.008C253.483 280.34 255.145 282.547 256.977 284.609C255.467 282.435 254.084 280.177 252.833 277.844C253.987 279.772 255.227 281.638 256.553 283.441C255.682 281.426 254.675 279.473 253.533 277.583C254.724 279.399 256.025 281.154 257.436 282.821C256.864 281.546 256.17 280.329 255.363 279.187C255.941 280.781 256.929 282.194 258.227 283.285C257.468 281.602 256.623 279.957 255.679 278.36C256.684 279.993 257.677 281.638 258.682 283.271C257.738 281.564 256.782 279.857 255.838 278.15C256.817 279.488 257.809 280.813 258.788 282.15C258.275 281.272 257.881 280.33 257.617 279.349C258.522 280.575 259.316 281.889 259.975 283.265C259.091 281.201 258.207 279.124 257.323 277.06C258.168 278.656 259.013 280.241 259.857 281.837L257.062 276.495C258.13 278.423 259.21 280.351 260.278 282.291C259.434 280.953 258.591 279.603 257.747 278.264C257.623 278.068 257.475 277.847 257.253 277.787C257.031 277.726 256.736 277.937 256.823 278.158" stroke="#1D1D1B" stroke-width="1.23118" stroke-miterlimit="10" stroke-linejoin="round"/>
<path d="M254.986 277.526C255.478 277.376 255.995 277.362 256.488 277.47C256.209 278.358 254.868 278.66 254.237 277.973C254.743 278.119 255.248 278.252 255.754 278.397C255.912 277.953 255.897 277.448 255.71 277.018C255.726 277.843 255.829 278.68 256.017 279.479C256.13 279.946 256.49 280.523 256.932 280.324C257.068 280.262 257.153 280.151 257.226 280.027C257.911 278.953 257.62 277.366 256.595 276.608C256.623 277.42 256.996 278.206 257.602 278.733C257.75 278.855 257.936 278.978 258.12 278.915C258.39 278.815 258.389 278.434 258.326 278.151C257.93 276.531 257.207 275.009 256.199 273.679C256.426 274.799 257.268 275.767 258.341 276.156L256.324 274.122C257.029 274.759 257.869 275.26 258.769 275.563C257.707 274.879 256.718 274.083 255.815 273.189C256.845 274.512 258.158 275.587 259.659 276.335C258.352 275.048 257.112 273.693 255.946 272.277C257.294 273.465 258.642 274.653 259.989 275.828C258.864 274.75 257.603 273.796 256.258 273.014C258.63 274.837 260.782 276.945 262.665 279.263C261.526 277.963 260.387 276.651 259.248 275.352C260.967 276.981 262.588 278.722 264.111 280.549C262.687 279.211 261.454 277.684 260.446 276.011C262.15 277.222 263.586 278.803 264.616 280.608C263.713 279.529 262.821 278.45 261.917 277.383C263.549 278.828 265.034 280.458 266.311 282.225C263.978 280.944 262.048 279.069 260.131 277.219C261.224 279.233 262.624 281.085 264.281 282.666C262.524 280.704 260.68 278.829 258.764 277.028C259.833 279.276 261.492 281.251 263.53 282.694C261.7 280.868 259.906 278.993 258.148 277.105C260.009 279.977 261.881 282.849 263.742 285.734C262.743 282.858 261.228 280.156 259.297 277.801C260.821 281.655 262.461 285.461 264.214 289.216C262.725 286.597 261.491 283.84 260.531 280.984C261.938 284.364 263.222 287.793 264.371 291.259C264.218 290.152 263.819 289.082 263.199 288.137C263.191 289.061 263.38 289.996 263.741 290.843" stroke="#1D1D1B" stroke-width="1.23118" stroke-miterlimit="10" stroke-linejoin="round"/>
<path d="M263.19 283.73C264.151 286.458 265.124 289.175 266.085 291.903C265.084 288.572 264.084 285.252 263.095 281.92C264.489 284.942 265.181 288.239 265.862 291.486C265.907 288.137 263.64 285.143 263.39 281.796C264.535 284.18 265.343 286.712 265.79 289.319C265.347 286.859 264.917 284.399 264.474 281.926C264.99 284.3 265.519 286.661 266.035 289.035C265.802 286.685 265.385 284.36 264.771 282.072C265.606 284.352 266.171 286.721 266.454 289.132C266.344 286.731 265.963 284.332 265.324 282.008C266 284.234 266.577 286.484 267.08 288.747C266.775 286.766 266.482 284.785 266.178 282.817C266.941 285.362 267.482 287.982 267.79 290.627L267.288 285.853C267.768 288.571 268.175 291.303 268.484 294.034C268.376 292.151 268.01 290.294 267.423 288.499C267.855 291.243 268.274 293.986 268.706 296.742C268.041 294.172 267.278 291.627 266.417 289.107C266.983 291.702 267.562 294.297 268.128 296.892C267.536 294.162 266.527 291.532 265.136 289.113C265.616 291.672 266.318 294.205 267.24 296.638L264.104 289.598C264.853 291.688 265.602 293.789 266.35 295.879C265.28 293.422 264.222 290.964 263.151 288.507C263.977 291.298 264.901 294.064 265.948 296.792C264.567 293.055 262.992 289.393 261.23 285.82C262.306 289.36 263.664 292.826 265.28 296.155C263.673 292.124 262.066 288.081 260.458 284.05C261.483 287.271 262.508 290.517 263.988 293.563C263.392 289.983 262.415 286.479 261.082 283.099C261.613 286.027 262.377 288.917 263.363 291.719C262.843 288.324 261.117 285.242 259.428 282.245C260.282 285.266 261.464 288.183 262.953 290.946C261.832 288.107 260.366 285.417 258.594 282.939C259.642 285.766 260.788 288.555 262.032 291.307C260.972 288.493 259.568 285.815 257.857 283.349C258.467 286.495 259.535 289.534 261.027 292.371C260.115 289.506 258.809 286.767 257.172 284.238C258.036 287.214 259.133 290.102 260.463 292.89C260.294 290.348 259.282 287.935 257.587 286.034C258.253 288.838 259.091 291.604 260.125 294.308C260.075 294.074 260.012 293.853 259.962 293.619" stroke="#1D1D1B" stroke-width="1.23118" stroke-miterlimit="10" stroke-linejoin="round"/>
<path d="M255.975 283.555L257.592 289.801C257.075 287.169 256.091 284.625 254.713 282.317C255.511 284.53 256.322 286.742 257.121 288.967C256.298 286.89 255.488 284.8 254.666 282.724C254.982 284.594 255.484 286.438 256.144 288.22C255.879 286.695 255.355 285.22 254.61 283.869C254.788 285.21 255.225 286.513 255.883 287.68C255.523 287.053 255.249 286.378 255.086 285.677C255.19 286.907 255.282 288.126 255.386 289.356C255.431 288.568 255.306 287.779 255.019 287.043C254.716 287.672 254.544 288.356 254.511 289.053C254.435 288.647 254.261 288.254 254.001 287.922C253.966 288.28 254.004 288.636 254.117 288.968C254.005 288.723 253.893 288.477 253.793 288.244C253.721 288.687 253.773 289.155 253.935 289.573L253.968 288.747C254.056 289.141 254.39 289.46 254.784 289.519C255.017 289.346 255.065 288.964 254.854 288.743C255.167 289.85 255.615 290.919 256.187 291.913C256.033 290.609 255.608 289.331 254.962 288.176C255.91 290.708 257.067 293.165 258.42 295.498C258.577 294.956 258.353 294.378 258.129 293.862C257.494 292.338 256.846 290.815 256.211 289.291C257.713 291.845 259.215 294.386 260.716 296.94C259.533 293.917 258.115 290.981 256.514 288.157C258.092 291.387 259.892 294.506 261.901 297.488C261.262 295.128 260.279 292.867 258.988 290.792C260.32 293.888 261.8 296.923 263.414 299.894C262.041 298.044 260.508 296.317 258.835 294.733C260.001 296.66 261.315 298.501 262.739 300.242L259.234 295.851C260.311 297.139 261.388 298.427 262.453 299.714C261.909 299.126 261.426 298.488 260.979 297.813C262.389 299.124 263.713 300.521 264.951 301.992C264.676 301.083 264.241 300.211 263.659 299.462C264.415 300.628 265.184 301.794 265.94 302.96C264.852 301.882 263.69 300.878 262.442 299.985C263.582 301.543 264.82 303.015 266.157 304.412C265.092 303.112 263.99 301.788 262.521 300.982C263.733 302.244 265.117 303.321 266.636 304.188C266.362 303.636 266.101 303.095 265.828 302.542C266.138 303.107 266.67 303.548 267.286 303.73C267.058 302.253 266.423 300.828 265.457 299.675C266.018 301.101 266.702 302.489 267.471 303.815C267.215 301.76 266.849 299.73 266.359 297.714C266.662 299.214 267.075 300.69 267.586 302.128C267.654 300.884 267.673 299.628 267.618 298.385L268.34 302.654C268.297 301.373 268.242 300.093 268.199 298.813L268.697 302.59L268.559 296.915C268.839 298.748 269.106 300.582 269.385 302.415L268.916 296.815L269.418 301.614L268.895 300.176C268.859 300.57 268.837 300.965 268.802 301.359C268.232 300.573 267.723 299.726 267.3 298.842C267.701 300.354 268.115 301.867 268.516 303.392C268.322 301.583 267.92 299.799 267.309 298.091C267.072 297.439 266.761 296.739 266.119 296.471C266.387 298.403 266.974 300.296 267.857 302.028C267.703 300.847 267.415 299.679 266.991 298.56C266.799 299.644 266.829 300.752 267.068 301.822C266.975 300.419 267.104 298.991 267.442 297.635C267.506 298.213 267.435 298.817 267.229 299.359C267.058 299.828 266.171 299.598 266.242 299.105C266.314 298.613 267.238 298.67 267.252 299.174M265.352 300.895C265.013 299.505 264.551 298.153 263.966 296.851" stroke="#1D1D1B" stroke-width="1.23118" stroke-miterlimit="10" stroke-linejoin="round"/>
<path d="M262.564 294.383C263.534 296.545 264.517 298.695 265.487 300.858C264.289 297.342 262.254 294.114 259.62 291.504C260.432 294.125 261.517 296.653 262.856 299.048C263.177 299.071 263.298 298.639 263.296 298.332C263.293 295.032 261.776 291.949 260.199 289.063C261.787 291.604 263.203 294.257 264.435 296.997C263.784 294.673 263.206 292.324 262.703 289.962C263.122 292.62 263.91 295.226 265.029 297.683C265.712 296.203 265.58 294.381 264.687 293.019C264.698 295.284 265.016 297.548 265.63 299.724C265.872 298.898 265.942 298.011 265.802 297.163C265.907 298.529 265.963 299.895 265.97 301.274C265.755 300.204 265.529 299.146 265.314 298.076C265.22 298.975 264.99 299.863 264.649 300.689C264.338 299.89 264.088 299.067 263.887 298.243M75.1242 147.808C73.7081 147.754 72.4452 148.855 71.8603 150.138C71.2754 151.422 71.2084 152.887 71.1536 154.316C71.1105 155.608 71.0799 156.963 71.664 158.117C72.5214 159.776 74.532 160.579 76.3907 160.496C78.2494 160.413 79.9938 159.58 81.6146 158.661C83.5056 157.594 85.5653 155.75 84.9522 153.659C84.7394 152.922 84.2071 152.321 83.6383 151.794C81.2268 149.54 77.9458 148.251 74.6338 148.242M92.6476 130.292L86.0134 141.145M63.8572 131.819C63.7827 134.294 64.4224 136.791 65.6637 138.927M53.1853 161.024C54.8832 160.782 56.5551 160.257 58.0781 159.474M70.9202 172.674L69.4014 179.563M88.6566 168.995C89.2064 170.704 90.0881 172.312 91.2151 173.711M97.8292 156.012C99.3972 156.94 101.161 157.523 102.971 157.723" stroke="#1D1D1B" stroke-width="1.23118" stroke-miterlimit="10" stroke-linejoin="round"/>
<defs>
<filter id="filter0_d_1303_3349" x="0" y="0" width="353" height="456" filterUnits="userSpaceOnUse" color-interpolation-filters="sRGB">
<feFlood flood-opacity="0" result="BackgroundImageFix"/>
<feColorMatrix in="SourceAlpha" type="matrix" values="0 0 0 0 0 0 0 0 0 0 0 0 0 0 0 0 0 0 127 0" result="hardAlpha"/>
<feOffset dx="2" dy="17"/>
<feGaussianBlur stdDeviation="9"/>
<feColorMatrix type="matrix" values="0 0 0 0 0.769141 0 0 0 0 0.769141 0 0 0 0 0.769141 0 0 0 0.35 0"/>
<feBlend mode="normal" in2="BackgroundImageFix" result="effect1_dropShadow_1303_3349"/>
<feBlend mode="normal" in="SourceGraphic" in2="effect1_dropShadow_1303_3349" result="shape"/>
</filter>
<linearGradient id="paint0_linear_1303_3349" x1="118.548" y1="124.284" x2="209.867" y2="299.298" gradientUnits="userSpaceOnUse">
<stop offset="0.284362" stop-color="#6E7CF6"/>
<stop offset="1" stop-color="#1B2FDB"/>
</linearGradient>
</defs>
</svg>
