<svg width="32" height="32" viewBox="0 0 32 32" fill="none" xmlns="http://www.w3.org/2000/svg">
<circle cx="16" cy="16" r="16" fill="black" fill-opacity="0.05"/>
<path d="M14.0183 22.8L12.6239 22.4423L13.211 20.3675C12.3303 20.0098 11.5229 19.5805 10.8624 19.0081L9.24771 20.5821L8.22018 19.5805L9.76147 17.935C8.88073 16.8618 8.29358 15.6455 8 14.2862L9.46789 14C10.055 17.0764 12.7706 19.3659 16 19.3659C19.2294 19.3659 21.945 17.0764 22.5321 14.0715L24 14.3577C23.7798 15.7171 23.1193 16.9333 22.2385 18.0065L23.8532 19.5805L22.8257 20.5821L21.1376 19.0081C20.4037 19.5805 19.5963 20.0098 18.789 20.3675L19.3761 22.4423L17.9817 22.8L17.3945 20.7252C16.5138 20.8683 15.5596 20.8683 14.6789 20.7252C14.6055 20.6537 14.0183 22.8 14.0183 22.8Z" fill="black" stroke="black" stroke-width="0.25" stroke-miterlimit="10"/>
</svg>
