<svg width="239" height="264" viewBox="0 0 239 264" fill="none" xmlns="http://www.w3.org/2000/svg">
<path d="M159 222L156.5 224.533L184 232V227.489L180 224.533L179.5 222.5L180.538 220.333L178.731 219.4L176 219L173.763 220.333L169.398 219.4L165.5 218.5L164.5 220L161 220.333L159 222Z" fill="#5AC0BD"/>
<path d="M33.6194 244.316L31 249.608L70 251L68.5448 249.19L66.3619 247.101L64.0336 244.734L62.7239 241.949L58.0672 241.392L56.903 240L54.8657 240.835L50.6455 241.392H46.5709L42.4963 240.835L40.6045 240.418L37.9851 242.646L33.6194 244.316Z" fill="#5AC0BD"/>
<path d="M170.36 16.5202C170.02 15.5802 169.8 14.5902 169.73 13.5902C169.68 12.9002 169.69 12.2002 169.46 11.5502C169.25 10.9402 168.82 10.3202 169.02 9.70021C169.15 9.29021 169.58 8.99021 170.01 9.02021C170.226 9.03447 170.431 9.11816 170.595 9.25877C170.759 9.39938 170.873 9.58934 170.92 9.80021M171.44 10.1602C171.7 8.64021 172.88 7.32021 174.36 6.89021C174.61 6.82021 174.94 6.80021 175.07 7.03021C175.15 7.19021 175.09 7.37021 175.05 7.55021C174.9 8.10021 174.92 8.69021 175.11 9.22021M175.25 9.51021C175.54 8.91021 175.83 8.31021 176.13 7.71021C176.3 7.36021 176.5 6.98021 176.86 6.85021C177.35 6.67021 177.91 7.05021 178.11 7.53021C178.31 8.01021 178.25 8.56021 178.19 9.08021C178.12 9.62021 178.06 10.1502 177.99 10.6902M178.62 8.75021C178.95 8.30021 179.68 8.20021 180.11 8.56021C180.5 8.87021 180.61 9.43021 180.52 9.92021C180.43 10.4102 180.16 10.8502 179.91 11.2702M181.15 10.3202C181.2 9.92021 181.76 9.76021 182.1 9.98021C182.43 10.2002 182.53 10.6602 182.47 11.0502C182.4 11.4402 182.2 11.8002 182.04 12.1702C181.29 13.8402 181.25 15.8002 180.25 17.3302C179.66 18.2302 178.76 18.9502 178.43 19.9702" stroke="#1D1D1B" stroke-miterlimit="10" stroke-linejoin="round"/>
<path d="M161 89.5301C161.62 89.8501 162.16 90.1201 162.46 90.2701C162.46 91.7501 162.36 93.0101 162.49 94.2501C162.62 95.4701 162.98 96.6501 163.24 97.8601C163.92 101.08 163.89 104.11 161.43 106.76C160.76 107.48 160.46 108.71 160.35 109.74C160.1 112.13 158.85 114.1 159.05 116.89C159.38 121.37 157.92 126.02 156.9 130.52C156.49 132.34 151.27 134.42 149.34 134.01C147.12 133.54 144.9 132.98 142.65 132.74C140.58 132.52 138.46 132.69 136.41 132.69C135.1 135.79 133.13 136.81 129.7 136.31C129.75 137.35 129.93 138.41 129.82 139.44C129.72 140.36 129.29 141.24 128.81 142.77C124.89 142.38 120.5 141.9 116.11 141.52C112.83 141.24 109.76 140.45 106.75 138.37L109.2 133.55C109.44 131.75 109.61 130.34 109.82 128.93C110.3 125.61 111.04 122.31 111.22 118.97C111.4 115.68 110.98 112.35 110.91 109.04C110.84 105.94 110.9 102.84 110.9 99.1601C107.97 101.33 105.57 103.3 102.99 104.98C100.49 106.6 98.24 109.06 94.96 108.81C91.93 108.58 88.89 108.04 85.92 107.38C82.44 106.61 79.03 105.52 75.57 104.62C71.65 103.61 67.72 102.6 63.77 101.7C60.82 101.03 57.81 100.63 54.88 99.9201C52.02 99.2301 49.24 98.2401 46.39 97.5201C45.18 97.2101 43.86 97.1201 42.61 97.1901C40.28 97.3201 38.84 95.7601 39.5 93.6101C39.79 92.6801 40.1 91.7601 40.45 90.6801C40.96 90.6601 41.57 90.5601 42.17 90.6201C42.76 90.6801 43.34 90.8901 44.14 91.0801C44.22 90.4501 44.29 89.9201 44.35 89.4201C47.78 89.6601 51.15 89.7901 54.5 90.1501C59.35 90.6701 64.22 92.0401 69 91.7601C73.27 91.5101 77.5 91.5701 81.71 91.7901C87.27 92.0801 90.33 88.5801 93.69 85.1801C97.58 81.2401 101.35 77.1201 106.23 74.3501C107.57 73.5901 109.28 73.4601 110.83 73.1001C111.63 72.9101 112.79 73.1301 113.21 72.6601C116.92 68.5001 122.24 69.0501 126.93 67.7901C128.92 67.2601 130.98 66.9701 133.02 66.7001C134.74 66.4801 136.49 66.4501 138.33 66.3301C138.09 64.9701 138.56 64.2301 140.15 63.6101C143.26 62.4001 144.91 59.4901 146.79 56.8701C149.02 53.7501 151.62 50.8901 153.85 47.7701C156.16 44.5301 158.37 41.2001 160.36 37.7601C162.61 33.8701 164.65 29.8401 166.63 25.8001C167.54 23.9401 168.09 21.9101 168.79 19.9501C169.1 19.0901 169.35 18.2101 169.7 17.1001C171.62 17.2901 173.55 17.2901 175.38 17.7101C177.31 18.1601 178.72 22.5101 177.96 24.4401C176.79 27.4101 175.77 30.4401 174.76 33.4701C173.54 37.1201 172.26 40.7601 171.26 44.4801C169.84 49.7801 168.68 55.1501 167.34 60.4801C166.62 63.3501 165.61 66.1601 164.98 69.0501C164.08 73.1901 163.44 77.3701 162.65 81.5301C162.16 84.1701 161.58 86.7601 161 89.5301Z" fill="url(#paint0_linear_1230_3182)"/>
<path d="M38.1 92.3599C37.31 91.7599 36.44 91.2499 35.52 90.8499C34.89 90.5799 34.22 90.3499 33.67 89.9499C33.16 89.5699 32.7 88.9999 32.06 88.9599C31.63 88.9299 31.23 89.1899 31.12 89.5599C31.01 89.9299 31.22 90.3699 31.59 90.5899M31.79 91.1399C30.28 90.8599 28.69 91.3999 27.84 92.4999C27.7 92.6799 27.58 92.9599 27.76 93.1399C27.88 93.2599 28.08 93.2799 28.25 93.2899C28.81 93.3499 29.36 93.5599 29.81 93.8899M30.04 94.1199C29.39 94.1699 28.74 94.2099 28.09 94.2599C27.71 94.2899 27.3 94.3299 27.06 94.5899C26.74 94.9399 26.93 95.5299 27.33 95.8599C27.73 96.1899 28.26 96.3199 28.77 96.4399C29.29 96.5599 29.82 96.6899 30.34 96.8099M28.33 96.6899C27.8 96.8199 27.5 97.3899 27.7 97.8799C27.88 98.3099 28.38 98.5899 28.86 98.6799C29.35 98.7699 29.84 98.6899 30.32 98.6199M29.07 99.3299C28.68 99.2399 28.36 99.6599 28.47 100.01C28.58 100.36 28.98 100.6 29.37 100.68C29.76 100.76 30.16 100.71 30.55 100.69C32.34 100.61 34.21 101.24 35.95 100.91C36.97 100.72 37.92 100.21 38.98 100.26" stroke="#1D1D1B" stroke-miterlimit="10" stroke-linejoin="round"/>
<path d="M136.57 70.4401C136.99 67.7401 137.49 64.8701 139.3 62.8501C140.72 61.2701 145.15 55.2401 146.34 53.4701L133.34 36.6201C133.34 36.6201 118.39 52.7201 120.85 56.7001C123.31 60.6801 125.98 61.0201 125.77 62.5401C125.56 64.0601 124.42 67.4201 124.42 67.4201L123.59 70.0301L136.21 72.5501L136.57 70.4401V70.4401Z" fill="#F9DCB2"/>
<path d="M106.11 143.92C106.27 143.73 106 143.43 105.75 143.47C105.5 143.51 105.34 143.74 105.2 143.95C91.0461 165.251 78.5525 187.611 67.83 210.83M67.15 211.83C69.85 213.53 72.55 215.24 75.25 216.94C76.42 217.68 77.64 218.46 78.39 219.62M160.78 132.72C167.55 132.14 173.96 135.49 180.53 137.23M164.8 189.06C166.8 191.31 169.72 192.72 172.73 192.9C174.22 192.99 175.89 192.68 176.77 191.49M129.44 34.0999C129.82 31.0199 132.42 28.5299 135.39 27.6199C138.35 26.7099 141.59 27.1699 144.52 28.1899C148.24 29.4899 151.64 31.6899 154.35 34.5599C157.25 37.6199 159.38 41.5899 159.5 45.8099C159.6 49.2799 158.28 52.7699 155.91 55.2999C153.54 57.8299 150.15 59.3899 146.68 59.5199" stroke="#1D1D1B" stroke-miterlimit="10" stroke-linejoin="round"/>
<path d="M143.62 42.73C142.44 43.46 141.73 44.76 141.26 46.06C140.79 47.36 140.5 48.74 139.9 49.99C138.79 52.29 136.72 53.95 134.68 55.48C132.98 56.76 131.22 58.02 129.24 58.79C127.25 59.56 124.98 59.8 123 59" stroke="#1D1D1B" stroke-miterlimit="10" stroke-linejoin="round"/>
<path d="M124.84 61.3899C127.24 60.4499 130.02 61.1199 132.45 60.2699C134.08 59.6999 135.4 58.4899 136.62 57.2699C138.02 55.8599 139.36 54.3799 140.62 52.8299C141.24 52.0699 141.85 51.2799 142.28 50.3999C142.75 49.4299 143 48.3799 143.43 47.3899C143.86 46.4099 144.54 45.4599 145.54 45.0699M135.05 33.8599C134.01 33.9099 133.03 34.4099 132.25 35.0999C131.48 35.7999 130.89 36.6699 130.37 37.5799C129.57 38.9799 128.92 40.4699 128.44 41.9999C129.39 42.4499 130.45 41.1699 131.46 41.4699C131.99 41.6199 132.32 42.1699 132.85 42.3199C133.34 42.4699 133.86 42.2399 134.37 42.2099C135.09 42.1699 135.81 42.5299 136.2 43.1399M136.3 43.1399C136.91 43.8799 137.28 44.8199 137.33 45.7799C137.34 46.0599 137.34 46.3499 137.46 46.5999C137.62 46.9199 137.96 47.1099 138.31 47.1999C138.66 47.2899 139.02 47.2999 139.37 47.3799C139.74 47.4599 140.09 47.6099 140.4 47.8199M143.19 50.0799C143.93 51.0099 144.83 52.0299 146.02 52.0899C146.23 52.0999 146.46 52.0799 146.66 52.1499C146.86 52.2199 147.02 52.3599 147.15 52.5199C147.74 53.2199 147.86 54.2899 147.43 55.1099C147.24 55.4699 146.97 55.7699 146.77 56.1199C146.58 56.4499 146.47 56.8199 146.35 57.1899C146.26 57.4999 146.16 57.7999 146.07 58.1099C146.11 58.0599 146.14 57.9999 146.18 57.9499" stroke="#1D1D1B" stroke-miterlimit="10" stroke-linejoin="round"/>
<path d="M135.19 33.75C139.2 35.09 142.31 38.32 144.71 41.81C146.06 43.77 147.25 45.86 147.95 48.14C148.65 50.41 148.83 52.88 148.18 55.17C147.76 56.64 147.02 57.99 146.28 59.33M129.58 34.37C129.76 35.02 130.19 35.6 130.76 35.98M129.76 33.44C130.5 32.82 131.54 32.74 132.5 32.81C133.29 32.87 134.1 33.01 134.75 33.45M148.44 34.55C148.02 35.24 148.44 36.15 149.02 36.7C149.6 37.25 150.35 37.64 150.83 38.28C151.19 38.77 151.47 39.45 152.07 39.54C152.53 39.61 152.97 39.24 153.12 38.8C153.27 38.36 153.18 37.87 153.02 37.44C152.643 36.389 151.897 35.511 150.92 34.97C150.19 34.57 149.35 34.36 148.74 33.8M146.99 37.61C146.84 38.07 146.68 38.53 146.53 38.99C146.39 39.41 146.25 39.85 146.35 40.28C146.45 40.71 146.88 41.1 147.31 40.97C147.87 40.81 147.9 40.04 147.82 39.47C147.71 38.7 147.6 37.92 147.48 37.15M133.23 133.59C135.53 131.56 138.49 130.38 141.51 129.9C144.54 129.42 147.63 129.6 150.66 130.06C151.26 130.15 151.87 130.26 152.41 130.54C153.44 131.09 154.04 132.24 154.22 133.4C154.4 134.55 154.22 135.73 154.03 136.88" stroke="#1D1D1B" stroke-miterlimit="10" stroke-linejoin="round"/>
<path d="M133.08 133.8C134 133.39 135.11 133.61 135.95 134.16C137.15 134.95 137.86 136.33 138.14 137.74C138.42 139.15 138.32 140.6 138.23 142.04C138.01 145.29 137.69 148.77 135.59 151.26M132.34 134.05C131.22 137 132.24 140.28 132.31 143.44C132.36 145.92 131.85 148.59 133.06 150.76C133.44 151.44 134.19 152.09 134.91 151.8M135.75 151.59C140.51 149.96 145.26 148.32 150.02 146.69C151.12 146.31 152.27 145.9 153.06 145.04C154.05 143.95 154.26 142.37 154.31 140.9C154.35 139.49 154.28 138.08 154.1 136.69M138.78 139.02L141.97 138.84C145.68 138.63 149.47 138.39 152.87 136.9M109.42 131.37C108.42 131.78 108.27 133.16 108.55 134.21C108.998 135.874 110.069 137.302 111.54 138.2C113.63 139.46 116.21 139.49 118.65 139.42C122.6 139.31 126.55 139.07 130.49 138.69M154.17 135.01C156.02 134.14 157.95 133.21 159.13 131.54C160.31 129.87 160.4 127.24 158.76 126.02" stroke="#1D1D1B" stroke-miterlimit="10" stroke-linejoin="round"/>
<path d="M108.42 133.68C106.71 136.04 107.91 139.6 110.23 141.36C112.56 143.12 115.62 143.49 118.53 143.62C123.08 143.82 127.7 143.55 132.05 142.18M159.84 129.3C159.96 130.19 160.07 131.07 160.19 131.96C160.33 133 160.45 134.12 159.99 135.07C159.65 135.76 159.02 136.27 158.39 136.71C157.2 137.52 155.9 138.16 154.53 138.59M95.37 160.06C98.65 159.6 101.94 161.14 104.48 163.26C108.84 166.91 111.57 172.43 111.82 178.11" stroke="#1D1D1B" stroke-miterlimit="10" stroke-linejoin="round"/>
<path d="M97.62 156.2C100.03 156.9 102.46 157.61 104.6 158.92C107.54 160.72 109.73 163.56 111.29 166.63C112.85 169.7 113.84 173.03 114.81 176.33M175.6 136.5C175.76 139.32 174.4 141.99 172.92 144.4C169.79 149.5 165.98 154.18 161.62 158.27M178.97 137.45C180.18 140.06 179.15 143.15 177.83 145.71C175.47 150.31 172.2 154.44 168.26 157.79M68.66 213.61C67.26 215.57 65.94 217.58 64.69 219.65C64.69 219.66 64.68 219.67 64.67 219.67M76.52 218.74C75.6 220.68 74.69 222.63 73.77 224.57C73.73 224.65 73.67 224.75 73.58 224.73C73.49 224.72 73.55 224.53 73.61 224.6M62.1 223.48C63.9345 224.928 66.2518 225.621 68.58 225.42C70.88 225.21 73.09 224.07 74.6 222.32" stroke="#1D1D1B" stroke-miterlimit="10" stroke-linejoin="round"/>
<path d="M62.64 222.48C56.11 226.35 49.57 230.23 43.04 234.1C41.8 234.83 40.44 235.73 40.19 237.15C39.95 238.46 40.82 239.77 41.96 240.45C43.1 241.13 44.46 241.31 45.79 241.42C50.17 241.79 54.82 241.51 58.56 239.2C59.73 238.48 60.79 237.57 62.05 237.03C63.33 236.49 64.73 236.35 66.09 236.09C68.63 235.59 71.08 234.61 73.26 233.22C73.71 232.93 74.16 232.61 74.42 232.15C74.67 231.7 74.72 231.17 74.74 230.66C74.85 228.27 74.54 225.87 73.82 223.59M166.43 191.19C165.55 192.67 164.62 194.13 163.65 195.56L163.95 195.26M173.74 193.31C172.41 194.91 170.92 196.37 169.28 197.66" stroke="#1D1D1B" stroke-miterlimit="10" stroke-linejoin="round"/>
<path d="M163.17 195.14C163.69 196.24 164.64 197.13 165.77 197.6C166.9 198.06 168.2 198.09 169.34 197.67M162.63 195.45C160.836 196.042 159.281 197.2 158.2 198.75C158.02 199.01 157.85 199.29 157.84 199.61C157.82 199.95 157.99 200.27 158.15 200.57C160.95 205.76 163.74 210.96 166.54 216.15C166.77 216.57 167 217 167.36 217.31C167.9 217.78 168.65 217.92 169.35 218.03C171.23 218.35 173.12 218.66 175 218.98M170.3 198.53C171.31 202.18 172 205.92 172.37 209.69C172.47 210.75 172.57 211.88 173.23 212.72C173.75 213.39 174.53 213.77 175.23 214.25C175.93 214.72 176.61 215.38 176.68 216.22C176.74 216.96 176.32 217.66 176.21 218.39C176.19 218.52 176.21 218.69 176.33 218.72C176.45 218.75 176.44 218.47 176.34 218.55M36.81 83.3901C35.61 83.8801 34.48 84.5501 33.48 85.3701C33.33 85.4901 33.17 85.6301 33.11 85.8101C32.91 86.3601 33.51 87.1501 33.01 87.4501M30.88 102.24C31.28 103.09 31.7 103.96 32.33 104.66C32.96 105.36 33.86 105.88 34.8 105.84C35.01 105.83 35.23 105.8 35.42 105.87C35.67 105.97 35.82 106.24 35.95 106.48C36.5851 107.631 37.4578 108.633 38.51 109.42M162.34 15.6601C162.06 14.3901 162.6 12.9701 163.67 12.2101C164.45 11.6501 165.5 11.4101 166.03 10.6001M184.6 13.5401C186.4 14.5201 188.39 15.7401 188.83 17.7501C189.15 19.1901 188.57 20.7301 188.99 22.1401M30.97 249.67C31.58 248.24 32.19 246.78 33.13 245.54C34.07 244.3 35.39 243.27 36.92 243C37.37 242.92 37.94 242.81 38.02 242.36C38.15 241.64 39.05 241.4 39.78 241.3C39.81 241.3 39.84 241.29 39.87 241.29M57.43 241.14L62.21 241.89C62.31 241.91 62.41 241.92 62.5 241.97C62.65 242.05 62.73 242.22 62.8 242.37C63.68 244.26 64.42 246.47 66.28 247.41C66.53 247.54 66.81 247.64 67.04 247.81C67.3 248 67.49 248.26 67.68 248.52C68.19 249.22 68.7 249.92 69.22 250.62M156.34 224.92C157.25 223.62 158.17 222.3 159.39 221.29C160.61 220.28 162.17 219.57 163.75 219.72C163.98 219.74 164.23 219.78 164.43 219.66C164.61 219.56 164.71 219.36 164.84 219.19C165.1 218.87 165.51 218.67 165.92 218.69M177.18 219.95C178.08 219.82 179.02 219.92 179.87 220.25C180.16 220.36 180.48 220.55 180.52 220.85C180.56 221.12 180.36 221.36 180.19 221.57C179.64 222.23 179.15 223.14 179.55 223.89C179.72 224.2 180.02 224.41 180.31 224.61C181.11 225.15 181.96 225.63 182.68 226.27C183.4 226.91 184 227.75 184.13 228.71C184.27 229.74 183.86 230.75 183.4 231.68M42.47 81.5801C44.12 80.5001 46.32 80.3301 48.11 81.1501C48.72 81.4301 49.27 81.8101 49.91 82.0201C52.05 82.7301 54.25 81.3501 56.28 80.3701C56.51 80.2601 56.81 80.1501 57.02 80.3101C57.23 80.4701 56.99 80.9101 56.8 80.7401M80.17 47.2601C78.68 47.9801 76.92 47.6301 75.28 47.8501C73.64 48.0701 71.83 49.4801 72.35 51.0501C73.2 53.6501 78.52 52.2601 78.99 54.9501C79.5337 54.4202 79.964 53.7853 80.2545 53.0839C80.545 52.3824 80.6898 51.6292 80.68 50.8701M184.58 78.8801C185.51 78.2301 186.86 78.3001 187.73 79.0301C188.59 79.7601 188.88 81.0901 188.4 82.1101C188.17 82.6001 187.78 83.0401 187.74 83.5801C187.69 84.4001 188.47 85.0801 188.45 85.9001C188.43 86.6701 187.7 87.2501 186.96 87.4701C184.66 88.1701 181.98 86.1201 182.04 83.7201M187.47 30.9101C185.89 32.8701 183.36 34.0101 180.84 33.9101M40.62 236.99C44.97 238.33 49.79 239.65 53.92 237.76C55.38 237.09 56.64 236.06 58.05 235.27C62.66 232.69 68.45 232.93 73.05 230.32C73.63 229.99 74.2 229.61 74.61 229.09" stroke="#1D1D1B" stroke-miterlimit="10" stroke-linejoin="round"/>
<path d="M41.18 236.42L40.74 236.86C41.74 235.98 42.78 235.15 43.86 234.38C43.14 235.01 42.43 235.64 41.71 236.27C42.59 235.61 43.44 234.92 44.26 234.18C43.45 235.03 42.65 235.89 41.84 236.74C43.1 236.9 44.41 236.61 45.49 235.93C44.41 236.12 43.32 236.32 42.24 236.51C43.73 236.79 45.24 236.94 46.76 236.95C45.7357 236.577 44.6495 236.404 43.56 236.44C44.86 237.02 46.32 237.2 47.72 236.98C46.7 237.04 45.68 237.09 44.66 237.15L48.17 237.39C46.77 237.33 45.37 237.27 43.97 237.22C44.39 236.61 45.31 236.68 46.02 236.92C46.72 237.16 47.48 237.51 48.17 237.23C46.74 236.66 45.19 236.39 43.65 236.43C44.82 236.67 46 236.92 47.17 237.16C46.04 237 44.9 236.83 43.77 236.67C45.03 236.91 46.31 237.04 47.59 237.08C46.76 236.98 45.91 236.95 45.07 236.97C46.27 237.52 47.59 237.82 48.91 237.86C48.14 237.59 47.32 237.5 46.52 237.59C47.44 237.64 48.37 237.69 49.29 237.73C48.2552 237.317 47.1228 237.213 46.03 237.43C47.74 238.12 49.81 237.81 51.24 236.65C50.89 237.49 49.97 238.07 49.06 238.02C50.2 238.48 51.65 237.84 52.08 236.69C51.38 236.9 50.72 237.25 50.15 237.71C51.5 237.31 52.85 236.86 54.17 236.36C53.59 236.05 52.8 236.21 52.38 236.72C53.08 236.52 53.78 236.32 54.49 236.12C53.48 236.15 52.49 236.5 51.68 237.11C52.9 236.61 54.11 236.11 55.33 235.6C54.3 236.4 53.21 237.13 52.08 237.78C53.21 237.31 54.28 236.66 55.22 235.88L52.67 237.56C54.09 236.68 55.51 235.79 56.92 234.91" stroke="#1D1D1B" stroke-miterlimit="10" stroke-linejoin="round"/>
<path d="M43.5499 236C43.3699 236.13 43.4699 235.7 43.6999 235.67C45.3599 235.43 47.0199 235.19 48.6799 234.96C46.4899 235.23 44.2799 235.39 42.0699 235.46C44.1099 235.87 46.2299 235.9 48.2799 235.57C46.8899 235.01 45.3799 234.77 43.8799 234.87C45.4899 235.04 47.1499 234.44 48.2899 233.29C46.7456 233.679 45.3464 234.505 44.2599 235.67C45.5599 234.52 46.9699 233.51 48.4699 232.64C46.7599 233.53 45.0599 234.42 43.3499 235.31C45.2299 233.8 47.2499 232.46 49.3599 231.29C47.5411 232.481 45.6434 233.547 43.6799 234.48C45.6499 233.19 47.7199 232.04 49.8599 231.06C48.1999 231.53 46.6299 232.36 45.3099 233.47C48.9099 231.93 52.4099 230.18 55.7999 228.22C52.7499 229.85 49.6899 231.48 46.6399 233.11C49.8499 231.3 53.0599 229.49 56.2699 227.69C53.3021 229.384 50.4279 231.236 47.6599 233.24C50.9499 231.17 54.3899 229.33 57.9499 227.76C54.7099 230.16 51.3499 232.38 47.8899 234.43C50.9299 232.61 53.9799 230.79 57.0199 228.96C53.6499 230.94 50.2799 232.92 46.9099 234.89C50.2099 233.43 53.4299 231.81 56.5699 230.04C53.0999 231.87 49.6199 233.7 46.1499 235.53C49.0699 233.82 51.8899 231.92 54.5899 229.86C51.5381 230.923 48.6241 232.346 45.9099 234.1C48.5299 232.91 51.1599 231.71 53.7799 230.52C51.088 231.782 48.6218 233.478 46.4799 235.54C47.0099 235.98 47.8199 235.76 48.4499 235.49C50.2599 234.71 51.9599 233.66 53.4699 232.38C50.7499 233.18 48.1399 234.34 45.7299 235.83C48.7599 235.34 51.6799 234.22 54.2599 232.57C51.4246 233.633 48.6876 234.941 46.0799 236.48C48.9199 236.75 51.6299 235.35 54.1099 233.94C51.6199 234.45 49.2899 235.67 47.4399 237.42C49.9999 236.7 52.3899 235.42 54.4199 233.7C52.2899 234.48 50.2299 235.46 48.2799 236.62C50.8599 235.71 53.3499 234.55 55.7099 233.17L49.9499 236.65C52.8399 235.41 55.5999 233.87 58.1699 232.06C56.3099 233.28 54.4499 234.5 52.5799 235.71C55.2599 234.52 57.8499 233.1 60.2999 231.48C58.392 232.513 56.5333 233.634 54.7299 234.84C57.3037 233.675 59.7931 232.331 62.1799 230.82C60.3899 231.9 58.5999 232.98 56.7999 234.06C58.9999 233.08 61.1499 232.01 63.2599 230.85L55.4899 234.96C57.9399 233.73 60.4299 232.59 62.9599 231.54C60.2699 232.9 57.5799 234.26 54.8799 235.62C57.0899 235.12 59.1899 234.18 61.0399 232.88C59.4499 233.91 57.8299 234.88 56.1699 235.78C57.0999 235.26 58.0199 234.73 58.9499 234.21C56.8899 234.59 54.8799 235.28 53.0199 236.26L55.3299 234.7C54.3099 235.25 53.2899 235.81 52.2599 236.36L53.6999 235.01M41.4399 237.23C43.1799 237.25 44.9199 237.27 46.6599 237.3C46.0099 237.29 45.3699 237.49 44.8499 237.88C45.3899 238.18 46.1099 238.13 46.5999 237.76" stroke="#1D1D1B" stroke-miterlimit="10" stroke-linejoin="round"/>
<path d="M55.98 230.77C55.56 231.05 55.14 231.34 54.72 231.62L61.26 226.94C58.04 229.32 54.68 231.51 51.21 233.5C55 231.47 58.71 229.29 62.34 226.98C59.7579 229.21 56.957 231.173 53.98 232.84C56.7 231.31 59.31 229.58 61.79 227.67C58.9697 229.617 56.2402 231.693 53.61 233.89C56.38 232.25 59.07 230.48 61.66 228.57C59.0245 230.625 56.2099 232.439 53.25 233.99C56.31 231.82 59.46 229.8 62.71 227.93C60.93 229.23 59.15 230.53 57.37 231.82C59.671 230.728 61.8756 229.443 63.96 227.98L59.13 231.28C61.56 229.79 63.99 228.31 66.43 226.82C64.43 228.3 62.42 229.77 60.42 231.25C62.6127 230.158 64.7397 228.94 66.79 227.6C64.77 228.83 62.76 230.06 60.74 231.29C62.9091 230.541 64.8933 229.337 66.56 227.76C63.33 229.6 60.13 231.48 56.96 233.42C59.72 231.96 62.37 230.3 64.88 228.45C62.8058 229.676 60.8477 231.088 59.03 232.67C61.94 231.42 64.69 229.81 67.2 227.89L62.49 231.13C64.05 230.13 65.62 229.13 67.18 228.14C65.3947 229.159 63.6594 230.264 61.98 231.45C63.82 230.45 65.66 229.46 67.49 228.46C66.11 229.03 64.78 229.73 63.52 230.54C65.64 229.59 67.73 228.58 69.79 227.51C68.38 228.1 67.05 228.91 65.87 229.89C66.29 230.08 66.77 229.85 67.17 229.62L71.25 227.25L67.42 230.12C68.9488 229.543 70.4474 228.889 71.91 228.16C71.1 228.55 70.29 228.95 69.48 229.34C70.03 229.19 70.54 228.91 70.96 228.53" stroke="#1D1D1B" stroke-miterlimit="10" stroke-linejoin="round"/>
<path d="M59.9 233.01C62.67 232.04 65.45 231.08 68.22 230.11C64.9577 230.82 61.77 231.838 58.7 233.15C61.52 232.63 64.31 231.92 67.03 231.01C64.46 231.91 61.9 232.81 59.33 233.71C61.66 232.6 64.78 233.31 66.67 231.55C64.9736 232.504 63.1529 233.217 61.26 233.67C64.09 233.07 66.85 232.11 69.44 230.82C68.22 230.86 67 231.06 65.83 231.43C66.41 231.66 67.07 231.44 67.65 231.21C69.18 230.61 70.69 229.96 72.18 229.27C70.97 229.69 69.79 230.21 68.66 230.82C69.98 230.34 71.42 229.76 72.07 228.52C69.08 229.88 66.1 231.23 63.11 232.59C64.83 231.49 66.54 230.4 68.26 229.3C66.16 230.28 64.07 231.26 61.97 232.24C63.38 231.36 64.71 230.36 65.94 229.24C64.25 230.18 62.57 231.13 60.88 232.07C61.99 231.4 63.1 230.73 64.21 230.07C61.78 231.48 59.16 232.57 56.45 233.31C57.08 232.75 57.69 232.17 58.27 231.57C57.56 231.88 56.86 232.2 56.15 232.51C57.48 231.73 58.82 230.94 60.15 230.16C59.17 230.63 58.19 231.1 57.21 231.58C57.35 231.26 57.48 230.94 57.62 230.63" stroke="#1D1D1B" stroke-miterlimit="10" stroke-linejoin="round"/>
<path d="M53.97 229.2L56.64 227.22C54.66 228.39 52.69 229.55 50.71 230.72C51.9121 229.527 53.2172 228.443 54.61 227.48C53.02 228.58 51.37 229.6 49.67 230.52C50.64 229.71 51.67 228.97 52.76 228.31C51.6 229 50.41 229.65 49.21 230.25C51.83 228.68 54.54 227.27 57.33 226.03C56.8 226.32 56.27 226.6 55.72 226.85C57.2 225.99 58.75 225.27 60.36 224.69C57.9739 226 55.6451 227.411 53.38 228.92C55.8041 227.142 58.3579 225.547 61.02 224.15C58.87 226.03 56.47 227.6 54.09 229.17C56.65 227.58 59.22 225.99 61.78 224.41C60.2173 225.914 58.5051 227.254 56.67 228.41L61.5 225.26C59.62 226.57 57.74 227.89 55.86 229.2C57.72 228.04 59.58 226.88 61.43 225.71C59.73 227.11 58.03 228.5 56.33 229.9C58.62 228.53 60.81 226.98 62.87 225.27L56.93 229.71C58.87 228.51 60.8 227.31 62.74 226.11L56.61 231.31C58.39 230.33 60.18 229.36 61.96 228.38C60.96 229.49 59.87 230.52 58.7 231.45C59.49 231.1 60.24 230.65 60.92 230.12C59.79 230.72 58.72 231.42 57.71 232.21C59.04 231.54 60.29 230.71 61.43 229.74C61.36 229.89 61.14 229.95 61.01 229.84" stroke="#1D1D1B" stroke-miterlimit="10" stroke-linejoin="round"/>
<path d="M61.42 224.39C61.19 224.51 60.89 224.21 61.01 223.98C61.76 224.57 62.61 225.02 63.52 225.3C62.71 224.92 61.92 224.52 61.14 224.08C61.6763 224.864 62.4857 225.421 63.41 225.64C62.54 225 61.62 224.4 60.68 223.86C61.66 223.92 62.59 224.55 63 225.45C62.26 224.84 61.54 224.21 60.85 223.55C61.6229 224.005 62.2909 224.619 62.81 225.35C62.72 225.51 62.49 225.49 62.33 225.39C62.17 225.29 62.05 225.15 61.88 225.11C61.62 225.05 61.36 225.26 61.28 225.52C61.21 225.78 61.28 226.05 61.38 226.3C61.88 227.54 63.21 228.39 64.55 228.33C63.6204 227.362 62.3901 226.738 61.06 226.56C62.38 227.05 63.79 227.31 65.2 227.33C63.93 226.86 62.58 226.62 61.22 226.61C61.3 227.29 62.12 227.58 62.79 227.63C63.97 227.72 65.17 227.54 66.27 227.1C66.33 226.81 65.95 226.64 65.65 226.59C64.35 226.37 63.06 226.16 61.76 225.94C63.45 225.75 65.16 225.73 66.86 225.89C65.37 226.02 63.87 225.94 62.4 225.65C64.11 225.77 65.82 225.9 67.52 226.02C66.06 225.58 64.57 225.24 63.07 225C64.45 225.25 65.82 225.51 67.2 225.76C65.55 225.72 63.9 225.37 62.37 224.75C64.18 226.09 66.43 226.83 68.68 226.81C67.73 226.16 66.71 225.48 65.56 225.47C66.72 226.25 68.19 226.58 69.57 226.36C67.94 226.37 66.3 226.58 64.72 227C65.03 227.44 65.68 227.44 66.22 227.36C67.67 227.15 69.1 226.76 70.46 226.21C69.6 226.18 68.74 226.41 68.01 226.87C69.42 226.32 70.81 225.71 72.17 225.05C70.15 225.95 68.1 226.8 66.03 227.59C67.88 226.99 69.73 226.39 71.57 225.79C69.72 225.85 67.88 226.38 66.28 227.31C67.73 226.79 69.16 226.22 70.56 225.6C68.83 226.55 66.98 227.28 65.07 227.78C66.05 227.31 67.04 226.84 68.02 226.37C66.9625 226.356 65.9357 226.725 65.13 227.41C66.48 227.38 67.83 227.03 69.02 226.41C68.07 227.2 67.12 227.99 66.17 228.77C68.07 227.84 69.95 226.84 71.79 225.78C70.42 226.43 69.09 227.15 67.81 227.95C69.45 227.15 71.08 226.35 72.72 225.56C71.5 226.19 70.35 226.93 69.26 227.77C70.4311 227.342 71.5077 226.689 72.43 225.85C71.82 226.46 71.21 227.06 70.6 227.67C71.54 227.09 72.42 226.42 73.24 225.68C72.68 226.2 72.18 226.78 71.75 227.41C72.32 227.1 72.86 226.72 73.35 226.3C73.12 226.54 72.88 226.77 72.65 227.01C72.96 225.87 73.28 224.72 73.59 223.58C73.06 223.81 72.6 224.23 72.32 224.74C72.46 224.71 72.6 224.69 72.74 224.66C72.56 225.09 72.39 225.51 72.21 225.94C72.75 225.59 73.24 225.17 73.68 224.69L73.32 226.34C73.44 226.24 73.57 226.15 73.69 226.05C73.8 226.39 73.91 226.73 74.02 227.08L73.21 225.73C73.55 226.43 73.89 227.14 74.24 227.84C74.01 227.54 73.78 227.23 73.55 226.93L73.67 229.1C73.5 228.68 73.06 228.38 72.61 228.38C72.16 228.38 71.72 228.68 71.55 229.1C72.19 229.01 72.73 228.42 72.76 227.78C71.521 228.56 70.3939 229.506 69.41 230.59C70.4 230.15 71.21 229.32 71.64 228.33C70.57 229.01 69.57 229.78 68.64 230.64C70.32 229.99 71.92 229.13 73.38 228.07C72.94 228.44 72.59 228.91 72.36 229.44C72.84 229.4 73.29 229.12 73.54 228.71C72.44 229.38 71.36 230.09 70.31 230.83L72.92 229.51C72.37 229.71 71.84 229.99 71.37 230.34C71.98 230.03 72.58 229.72 73.19 229.41C72.01 230.01 70.84 230.61 69.66 231.2C70.25 231.02 70.78 230.67 71.19 230.21C70.2 230.27 69.23 230.43 68.28 230.7C68.69 229.74 69.45 228.94 70.4 228.5M8.21998 35.6401C7.21998 36.3501 6.18998 37.1201 5.67998 38.2301C5.16998 39.3401 5.40998 40.9001 6.51998 41.4401C6.78998 41.5701 7.08998 41.6401 7.29998 41.8501C7.75998 42.3401 7.34998 43.1401 6.87998 43.6201C5.81998 44.7301 4.39998 46.1401 5.09998 47.5001C5.43998 48.1601 6.18998 48.4901 6.72998 48.9901C7.37998 49.6001 7.72998 50.4601 8.05998 51.2901C9.12998 54.0101 10.21 56.7301 11.28 59.4501C11.47 59.9401 11.67 60.4401 11.66 60.9701C11.64 62.2601 10.47 63.1901 9.62998 64.1701C6.87998 67.3901 7.78998 73.0201 11.42 75.2101M11.82 74.7101C11.79 76.4701 13.13 77.9801 13.38 79.7201C13.63 81.4801 12.76 83.1801 12.26 84.8901C10.44 91.1001 13.57 97.8901 12.07 104.19C11.23 107.71 8.97998 111.33 10.35 114.68M10.72 114.5C10.68 115.73 11.27 116.97 12.25 117.71C12.83 118.15 13.55 118.44 13.99 119.03C14.73 120.04 14.33 121.45 14.11 122.69C13.62 125.48 14.25 128.34 14.44 131.17C14.63 134 14.23 137.14 12.17 139.08C11.28 139.92 10.13 140.48 9.32998 141.41C7.54998 143.47 7.98998 146.56 8.52998 149.23M8.53998 149.78C9.15998 152.07 10.38 154.19 12.03 155.89C12.76 156.64 13.61 157.38 13.81 158.41C13.94 159.06 13.77 159.73 13.67 160.39C13.35 162.62 13.91 164.96 15.2 166.81C16.8 169.11 19.63 171.14 19.17 173.9C18.99 175.01 18.27 175.95 17.54 176.8C16.12 178.45 14.51 180.05 13.79 182.1C13.43 183.14 13.31 184.24 13.2 185.34L12.39 193.12C12.3 192.92 12.21 192.71 12.12 192.51M12.16 193.54C12.83 194.54 12.3 196.14 13.23 196.91C13.86 197.43 14.94 197.34 15.34 198.05C15.68 198.66 15.27 199.4 14.89 199.98C14.01 201.34 13.22 202.89 13.4 204.49C13.66 206.82 15.91 208.66 15.83 211.01C15.77 212.72 14.47 214.41 15.11 215.99M14.5 215.48C14.49 216.24 13.95 216.9 13.31 217.32C12.67 217.74 11.94 217.97 11.25 218.3C10.6199 218.603 10.0317 218.986 9.49998 219.44C8.81998 220.02 8.18998 220.88 8.42998 221.74C8.63998 222.52 9.44998 222.95 9.98998 223.56C10.08 223.67 10.18 223.79 10.19 223.93C10.2 224.09 10.11 224.24 10.02 224.38C9.28998 225.62 9.32998 227.27 10.12 228.47C10.91 229.67 12.41 230.36 13.84 230.17C14.03 230.15 14.24 230.11 14.39 230.22C14.55 230.33 14.53 230.64 14.34 230.65M14.61 230.9C14.86 231.86 14.41 232.87 14.5 233.86C14.6 235.01 15.39 235.97 16.21 236.79C16.71 237.3 17.28 237.87 17.26 238.59C17.25 238.88 17.14 239.15 17.06 239.43C16.37 241.84 17.8 244.73 16.37 246.79C16.11 247.17 15.77 247.49 15.55 247.89C15.16 248.62 15.26 249.58 15.8 250.21C15.62 250.31 15.43 250.4 15.25 250.5M157.86 199.93C157.16 200.44 156.89 201.37 156.96 202.23C157.03 203.09 157.39 203.89 157.75 204.68C159.55 208.63 161.44 212.53 163.42 216.4C163.79 217.13 164.18 217.88 164.82 218.38C165.41 218.85 166.15 219.06 166.88 219.26C168.4 219.68 169.93 220.07 171.46 220.44C172.38 220.66 173.34 220.88 174.26 220.64C175.17 220.41 176.01 219.57 175.91 218.63" stroke="#1D1D1B" stroke-miterlimit="10" stroke-linejoin="round"/>
<path d="M158.75 198.56C158.48 199.58 158.45 200.67 158.67 201.7C159.12 200.69 159.36 199.58 159.37 198.48C159.29 199.26 159.2 200.03 159.12 200.81C159.55 199.71 159.84 198.56 159.97 197.39C159.81 197.91 159.64 198.43 159.48 198.95C159.78 198.31 160.03 197.64 160.22 196.95C160.34 197.14 160.33 197.4 160.19 197.58C160.9 197.38 161.57 197 162.1 196.49C161.45 196.82 160.85 197.25 160.35 197.77C161.04 197.36 161.7 196.88 162.3 196.36C162.085 196.306 161.857 196.328 161.657 196.423C161.456 196.518 161.295 196.679 161.2 196.88C161.83 197.03 162.52 196.81 162.96 196.34C162.61 196.33 162.26 196.46 162.01 196.69C162.32 197.09 162.76 197.4 163.24 197.56C163.33 197.05 163.18 196.51 162.86 196.12C163.37 196.81 163.87 197.51 164.38 198.2C164.03 197.6 163.68 196.99 163.33 196.39C164.17 197.4 165.01 198.4 165.86 199.41C164.65 198.89 163.47 198.31 162.32 197.66C163.35 198.85 164.38 200.04 165.42 201.23C164.35 200.41 163.28 199.58 162.21 198.76C162.86 199.79 163.67 200.71 164.61 201.48C163.78 200.453 162.852 199.509 161.84 198.66C162.43 198.98 163.03 199.31 163.62 199.63C163.35 198.81 162.84 198.08 162.17 197.54C162.18 197.94 161.81 198.31 161.41 198.29C161.51 197.92 161.72 197.59 162.02 197.36C161.27 198.15 160.63 199.03 160.13 199.99C160.46 199.51 160.79 199.04 161.11 198.56C160.55 199.4 160.31 200.46 160.44 201.46C160.81 200.91 161.04 200.27 161.12 199.62C161.15 199.38 161.14 199.11 160.98 198.93C160.75 198.67 160.29 198.76 160.07 199.03C159.85 199.3 159.83 199.68 159.87 200.02C159.99 200.96 160.59 201.82 161.43 202.26C161.57 202.34 161.74 202.4 161.89 202.36C162.32 202.26 162.25 201.61 162.02 201.23C161.49 200.33 160.69 199.59 159.75 199.13C159.49 200.97 160.41 202.93 161.99 203.9C161.25 202.84 160.37 201.88 159.38 201.05C160.08 202.62 160.99 204.09 162.08 205.41C161.14 203.77 160.09 202.19 158.94 200.69C159.34 202.4 160.49 203.93 162.03 204.79C161.04 203.22 160.5 201.37 160.48 199.52C161.21 201.09 161.94 202.66 162.67 204.24C162.12 202.46 161.57 200.68 161.03 198.9L163.13 203.04C162.95 201.45 162.59 199.87 162.05 198.36L164.24 203.55C163.694 201.583 162.988 199.663 162.13 197.81C163.33 200.1 164.53 202.39 165.73 204.67C165.05 202.92 164.36 201.17 163.68 199.42C164.55 200.8 165.42 202.18 166.29 203.55C165.64 202.29 164.98 201.04 164.33 199.78C165.68 202.02 166.77 204.42 167.56 206.91C166.61 205.51 165.76 204.04 165.01 202.51L167.41 207.61C166.52 206.2 165.64 204.79 164.75 203.38C165.68 205.36 166.61 207.35 167.53 209.33C166.309 207.21 165.002 205.142 163.61 203.13C164.53 205.13 165.52 207.09 166.59 209.02C165.576 206.969 164.455 204.973 163.23 203.04C164.31 205.3 165.39 207.57 166.47 209.83C165.6 208 164.53 206.26 163.29 204.65C164.03 206.38 164.85 208.07 165.77 209.71C164.69 207.88 163.61 206.05 162.54 204.22C163.4 206.61 164.45 208.93 165.7 211.15C164.73 208.65 163.59 206.21 162.29 203.87C162.943 206.245 164.046 208.472 165.54 210.43C164.52 208.93 163.51 207.43 162.49 205.93C163.23 207.59 164.06 209.2 164.99 210.77C163.838 208.936 162.61 207.152 161.31 205.42C162.11 206.95 163.02 208.43 164.04 209.83C162.932 208.47 161.932 207.026 161.05 205.51C161.47 205.86 161.81 206.31 162.03 206.81" stroke="#1D1D1B" stroke-miterlimit="10" stroke-linejoin="round"/>
<path d="M162.37 203.28C162.53 204.33 162.84 205.36 163.27 206.33C163.2 204.23 162.79 202.15 162.07 200.18C162.59 201.66 163.11 203.15 163.87 204.52C162.95 202.73 162.04 200.94 161.12 199.15C160.91 198.74 160.69 198.32 160.58 197.87C160.84 197.8 161.12 197.86 161.33 198.02C161.03 197.95 160.58 197.99 160.6 198.3C160.61 198.42 160.7 198.52 160.79 198.6C161.86 199.62 162.79 200.78 163.56 202.05C162.912 200.848 162.328 199.613 161.81 198.35C162.14 198.99 162.53 199.59 162.99 200.15M162.83 198.28C164.05 200.06 165.67 201.56 167.53 202.64C166.28 201.18 165.03 199.71 163.78 198.25C165.08 199.45 166.42 200.67 168.05 201.35C166.666 200.306 165.365 199.156 164.16 197.91C165.44 198.52 166.72 199.12 168 199.73L164.51 197.35L168.35 199.15C167.44 198.66 166.53 198.18 165.62 197.69C166.59 198.09 167.64 198.29 168.68 198.3L167.78 198.03C168.19 198.11 168.6 198.18 169 198.26C169.11 198.28 169.23 198.3 169.32 198.24C169.41 198.18 169.43 198.01 169.33 197.97C169.49 198.21 169.64 198.45 169.8 198.69C169.69 198.51 169.58 198.33 169.48 198.14C169.83 198.3 170.12 198.58 170.28 198.93C170.01 198.51 169.8 198.06 169.65 197.59C169.97 197.64 170.21 197.96 170.18 198.28C170.16 198.08 170.13 197.89 170.11 197.69C170.16 197.91 170.29 198.12 170.47 198.26C170.387 198.122 170.265 198.01 170.12 197.94C170.21 198.69 170.25 199.45 170.22 200.21C169.99 199.64 169.76 199.06 169.53 198.49C169.77 200.26 170.09 202.01 170.51 203.75C170.11 201.91 169.54 200.11 168.81 198.37C169.16 199.7 169.51 201.03 169.85 202.35C169.78 201.115 169.36 199.926 168.64 198.92C168.6 200.11 168.76 201.31 169.11 202.46C168.81 201.5 168.36 200.58 167.76 199.77C167.76 200.42 167.88 201.07 168.11 201.68C168.03 200.85 167.63 200.06 167.01 199.51C167.09 200.85 167.34 202.18 167.75 203.46C167.51 202.4 167.11 201.38 166.56 200.45C166.62 202.58 167.02 204.7 167.74 206.71C167.66 204.79 166.76 203.01 165.88 201.29C166.4 203.38 167.05 205.44 167.82 207.45C167.64 205.81 167.46 204.16 167.27 202.52C168.05 203.94 168.63 205.48 168.97 207.07C168.94 205.56 168.73 204.06 168.53 202.57C168.58 204.52 168.82 206.47 169.23 208.38C169.31 206.52 169.39 204.66 169.46 202.81C169.14 204.87 169.11 206.96 169.36 209.03C169.38 208.77 169.41 208.5 169.43 208.24" stroke="#1D1D1B" stroke-miterlimit="10" stroke-linejoin="round"/>
<path d="M168.7 203.06C168.67 202.78 168.56 202.52 168.38 202.3C168.25 203.5 168.12 204.71 168 205.91L168.21 199.98C167.62 203.66 167.68 207.44 168.39 211.09C168.72 210.78 168.77 210.28 168.8 209.83C168.98 207.01 169.15 204.19 169.33 201.37C169.17 204.53 169.42 207.7 170.06 210.8C170.48 207.92 170.57 205 170.32 202.1C170.49 204.73 170.85 207.34 171.41 209.91C171.28 207.05 171.06 204.19 170.73 201.34C170.82 204.03 171.31 206.69 171.79 209.34C171.53 206.8 170.99 204.29 170.2 201.86C170.88 205.84 171.09 209.89 170.82 213.92C170.3 210.45 169.77 206.97 168.68 203.63C168.9 206.74 169.36 209.84 170.07 212.88C169.959 209.828 169.281 206.824 168.07 204.02C168.41 206.99 168.86 209.96 169.39 212.9C169.33 210.29 168.85 207.68 167.96 205.23C168.38 208.23 168.98 211.2 169.76 214.13C169.34 211.98 168.57 209.89 167.51 207.98C168.15 210.1 168.83 212.21 169.54 214.31C168.87 212.19 167.94 210.15 166.79 208.24C167.37 209.97 167.98 211.69 168.62 213.4C167.89 211.99 167.15 210.57 166.42 209.16C167.28 210.98 168.05 212.84 168.72 214.73C168.18 212.95 167.32 211.26 166.19 209.78C166.72 211.09 167.26 212.39 167.79 213.7C167.14 212.13 166.29 210.65 165.27 209.3C165.73 210.73 166.27 212.13 166.9 213.5C166.27 212.27 165.58 211.08 164.83 209.92C165.15 210.91 165.53 211.88 165.96 212.83C165.35 211.78 164.75 210.73 164.14 209.68C164.81 211 165.48 212.32 166.16 213.64C165.17 212.22 164.24 210.75 163.36 209.26C164.22 211.09 165.22 212.86 166.35 214.55C165.878 213.505 165.32 212.501 164.68 211.55L167.2 215.9" stroke="#1D1D1B" stroke-miterlimit="10" stroke-linejoin="round"/>
<path d="M167.12 213.08C167.36 214.47 167.94 215.79 168.81 216.9C169.22 216.11 168.96 215.11 168.42 214.41C167.88 213.71 167.09 213.24 166.33 212.79C166.83 214.43 167.81 215.91 169.13 217C169.037 216.296 168.787 215.622 168.397 215.028C168.008 214.434 167.489 213.936 166.88 213.57C167.06 214.78 167.79 215.9 168.84 216.54C169.05 216.29 168.98 215.89 168.77 215.64C168.56 215.39 168.26 215.24 167.97 215.1C167.73 214.99 167.39 214.89 167.24 215.12C167.17 215.22 167.18 215.36 167.2 215.48C167.32 216.14 167.78 216.72 168.39 216.99C168.54 217.05 168.71 217.1 168.85 217.04C169.07 216.95 169.13 216.66 169.12 216.42C169.08 215.33 168.17 214.34 167.09 214.2C166.98 214.89 167.4 215.56 167.91 216.04C168.46 216.55 169.36 216.89 169.92 216.4C170.32 216.05 170.33 215.4 170.09 214.92C169.85 214.44 169.42 214.09 169.01 213.76C169.4 214.64 169.94 215.46 170.6 216.16C170.75 216.32 170.99 216.48 171.15 216.33C171.24 216.25 171.25 216.12 171.24 216C171.18 214.78 170.41 213.61 169.31 213.07C169.28 213.96 169.54 214.86 170.04 215.61C170.14 215.76 170.26 215.91 170.43 215.97C170.85 216.11 171.21 215.62 171.31 215.18C171.42 214.69 171.42 214.15 171.13 213.74C170.84 213.33 170.21 213.15 169.82 213.47C169.58 213.67 169.49 214 169.47 214.32C169.42 215.01 169.63 215.72 170.05 216.28C170.22 216.5 170.46 216.71 170.73 216.68C171.09 216.64 171.27 216.23 171.35 215.88C171.55 215.05 171.63 214.18 171.43 213.35C171.24 212.52 170.74 211.74 170 211.33C169.9 211.28 169.79 211.23 169.69 211.25C169.49 211.29 169.43 211.54 169.4 211.74C169.27 212.78 169.34 214.07 170.27 214.56C170.46 214.66 170.69 214.71 170.88 214.61C171.07 214.51 171.16 214.29 171.22 214.09C171.81 212.14 171.38 209.92 170.1 208.34C170.11 210.14 170.72 211.93 171.81 213.36C171.92 211.44 171.53 209.49 170.68 207.75C171.01 209.45 171.35 211.15 171.68 212.84C171.545 209.199 170.714 205.618 169.23 202.29C169.73 204.13 170.07 206.01 170.26 207.9L169.6 203.33C169.73 204.79 169.9 206.25 170.1 207.7" stroke="#1D1D1B" stroke-miterlimit="10" stroke-linejoin="round"/>
<path d="M171.94 212.01C171.91 212.11 171.89 212.21 171.86 212.31C171.75 212.11 171.8 211.83 171.97 211.68C172.57 212.9 173.16 214.11 173.76 215.33L171.66 210.92C172.42 211.78 172.97 212.8 173.51 213.81C173.86 214.47 174.21 215.12 174.56 215.78C174.14 214.93 173.58 214.15 172.92 213.46C173.81 214.41 174.7 215.35 175.59 216.3C175.31 215.77 174.96 215.27 174.56 214.82C174.92 215.38 175.29 215.94 175.65 216.5C175.12 216.31 174.71 215.83 174.61 215.28C175.09 216.07 175.39 216.97 175.45 217.89C174.8 216.78 174.16 215.66 173.51 214.55C173.27 214.73 173.22 215.07 173.31 215.35C173.4 215.63 173.6 215.86 173.79 216.08C173.98 215.67 173.66 215.22 173.34 214.9C172.667 214.228 171.899 213.658 171.06 213.21C172.03 214.34 173.11 215.39 174.28 216.32C174.38 216.15 174.24 215.94 174.1 215.79C173.17 214.82 172.24 213.85 171.31 212.89C171.91 213.93 172.62 214.91 173.45 215.78C173.62 215.96 173.87 216.16 174.1 216.06C174.13 215.55 173.64 215.18 173.2 214.93C172.4 214.48 171.56 214.09 170.7 213.76C170.48 213.68 170.14 213.65 170.09 213.89C170.07 213.98 170.11 214.07 170.15 214.15C170.75 215.33 172.04 215.97 173.25 216.51C172.06 216.21 170.85 215.99 169.63 215.83C170.59 216.39 171.71 216.66 172.82 216.59C172.18 216.13 171.38 215.9 170.59 215.94C170.33 215.95 170.01 216.07 170.03 216.33C170.04 216.51 170.23 216.62 170.4 216.69C171.08 216.97 171.81 217.15 172.55 217.19C171.89 217.58 171.03 217.62 170.34 217.29C170.78 217.41 171.22 217.54 171.66 217.66C170.83 217.28 169.99 216.93 169.13 216.6C169.9 216.96 170.66 217.32 171.43 217.69C170.88 217.29 170.25 216.98 169.59 216.81C170.09 217.25 170.83 217.39 171.46 217.17C170.74 217.27 170.01 217.25 169.3 217.11C169.98 217.76 170.8 218.25 171.69 218.56C170.99 217.99 170.16 217.56 169.29 217.31C170.22 217.62 171.16 217.91 172.11 218.18C172.29 218.23 172.49 218.28 172.65 218.19C172.88 218.06 172.91 217.71 172.76 217.49C172.62 217.27 172.36 217.14 172.12 217.03C172.7 217.47 173.28 217.92 173.87 218.36C174.1 218.53 174.47 218.68 174.61 218.44C174.72 218.26 174.58 218.04 174.44 217.88C173.54 216.82 172.55 215.83 171.49 214.94L174.88 218.18C174.512 216.922 173.721 215.831 172.64 215.09L174.86 217.85C174.98 218 175.23 218.14 175.32 217.97C174.99 217.27 174.52 216.64 173.94 216.13C173.99 216.86 174.37 217.56 174.96 217.99C174.912 216.895 174.679 215.817 174.27 214.8C174.55 215.43 174.76 216.09 174.89 216.76L174.71 215.99M213.72 120.8C214.51 119.5 216.08 118.83 217.6 118.75C219.12 118.67 220.62 119.08 222.09 119.5C223.69 119.95 225.64 120.86 225.53 122.52C225.5 123.02 225.27 123.48 225.14 123.96C224.57 126.12 226.61 128.54 228.84 128.33M47.36 160.13L45.54 162.07C47.5 162.92 49.16 164.47 50.13 166.37C50.29 166.68 50.44 167.01 50.68 167.28C51.21 167.86 52.35 167.86 52.64 167.13" stroke="#1D1D1B" stroke-miterlimit="10" stroke-linejoin="round"/>
<path d="M127.28 71.3002C128.92 71.8802 130.63 72.4602 132.36 72.2802C134.09 72.1002 135.84 70.9102 136.08 69.1802" stroke="#080908" stroke-miterlimit="10" stroke-linejoin="round"/>
<path d="M78.01 219.1C82.29 213.7 86.74 208.43 91.2 203.17C93.09 200.93 94.99 198.69 96.88 196.45C103.46 188.67 110.08 180.86 117.66 174.06C120.71 171.32 123.91 168.76 127.14 166.23C130.48 163.62 133.87 161.04 137.62 159.06M137.77 158.48C144.94 158.18 152.1 157.87 159.27 157.57C161.02 157.5 162.78 157.42 164.53 157.46C168.71 157.55 172.87 158.27 176.83 159.6C177.24 159.74 177.7 159.92 177.87 160.32C178.08 160.8 177.79 161.34 177.51 161.78C172.09 170.35 167.87 179.67 165.01 189.4M180 137.14C186 139.67 191.4 143.59 195.66 148.51C197.29 150.4 198.82 152.6 198.89 155.1C198.92 156.17 198.67 157.23 198.33 158.24C196.44 163.91 191.92 168.26 188.91 173.42C188.23 174.58 187.63 175.78 187 176.97C184.162 182.266 180.676 187.187 176.62 191.62" stroke="#1D1D1B" stroke-miterlimit="10" stroke-linejoin="round"/>
<defs>
<linearGradient id="paint0_linear_1230_3182" x1="109" y1="46.5" x2="152.5" y2="158" gradientUnits="userSpaceOnUse">
<stop offset="0.302083" stop-color="#0AC4B4"/>
<stop offset="1" stop-color="#079592"/>
</linearGradient>
</defs>
</svg>
