<svg width="219" height="229" viewBox="0 0 219 229" fill="none" xmlns="http://www.w3.org/2000/svg">
<path d="M149.26 136.02C148.72 134.51 148.09 133.03 147.56 131.51C147.37 130.97 147.38 130.36 147.25 129.79C147.02 128.77 146.8 127.74 146.5 126.73C145.87 124.57 145.19 122.43 144.55 120.27C144.3 119.42 144.11 118.54 143.86 117.69C143.42 116.2 142.96 114.71 142.5 113.22C142.29 112.53 142.04 111.85 141.89 111.14C141.63 109.91 141.5 108.65 141.21 107.42C140.97 106.4 140.55 105.43 140.27 104.42C140.03 103.56 139.89 102.68 139.65 101.82C139.1 99.8198 138.48 97.8498 137.98 95.8398C137.7 94.7198 137.63 93.5398 137.41 92.3998C137 90.3198 136.81 88.1498 136.03 86.2098C135.35 84.5298 135.21 82.8398 134.82 81.1398C134.15 78.2298 133.04 75.4198 132.17 72.5498C131.81 71.3698 131.7 70.1198 131.29 68.9598C131.01 68.1698 130.41 67.4998 130.07 66.9498C128.52 66.9498 127.07 66.8998 125.64 66.9898C125.35 67.0098 125.09 67.5498 124.82 67.8598L124.94 68.1298C124.56 68.0698 124.16 68.0598 123.81 67.9298C120.36 66.6598 116.95 65.2598 113.46 64.1198C111.97 63.6298 110.33 63.2498 108.72 63.9298C108.61 63.9798 108.43 63.8698 108.29 63.8498L105.26 63.6098C104.71 63.5598 104.16 63.4598 103.61 63.4298C102.91 63.3898 102.21 63.4298 101.52 63.3698C101.21 63.3498 100.92 63.1898 100.62 63.0898H99.8C97.73 63.7998 95.66 64.4998 93.6 65.2298C93.01 65.4398 92.48 65.8098 91.89 66.0398C90.08 66.7398 88.17 67.1798 86.68 68.6098C86.14 69.1298 85.21 69.2298 84.48 69.5598C84.3 69.6398 84.1 69.8498 84.06 70.0398C83.41 72.9298 82.79 75.8298 82.16 78.7298C81.76 80.5798 81.38 82.4298 80.97 84.2798C80.53 86.2498 80.05 88.2198 79.62 90.1898C79.4 91.1698 79.22 92.1498 79.09 93.1398C79.06 93.3898 79.28 93.6798 79.31 93.7598C78.92 94.8598 78.47 95.8498 78.21 96.8898C77.82 98.4198 77.53 99.9898 77.24 101.55C76.88 103.46 76.55 105.38 76.21 107.3C76.07 108.05 75.91 108.8 75.77 109.55C75.47 111.16 75.16 112.77 74.89 114.38C74.69 115.62 74.57 116.87 74.36 118.11C74.13 119.48 73.82 120.83 73.55 122.19C73.07 124.6 72.55 126.99 72.15 129.41C71.9 130.92 71.84 132.46 71.67 133.99C71.65 134.17 71.51 134.38 71.36 134.49C70.44 135.13 70.21 135.95 70.55 137.01C70.7 137.47 70.63 138 70.73 138.48C70.89 139.3 71.13 140.03 72 140.49C73.9 141.49 75.74 142.62 77.62 143.65C79.79 144.84 81.95 146.03 84.17 147.11C85.94 147.97 87.67 148.97 89.69 149.26C90.32 149.35 90.92 149.76 91.52 150.03C92.2 150.34 92.85 150.88 93.55 150.94C95.19 151.06 96.59 151.95 98.27 152.07C100.55 152.23 102.79 153.04 105.07 153.39C106.16 153.56 107.32 153.27 108.45 153.27C109.18 153.27 109.97 153.26 110.64 153.51C112.83 154.36 115.01 154.25 117.26 153.84C118.4 153.63 119.59 153.75 120.75 153.63C121.99 153.5 123.23 153.3 124.45 153.08C127.35 152.55 130.27 152.08 133.13 151.39C135.37 150.85 137.68 150.27 139.71 149.23C142.25 147.93 145.02 146.94 147.13 144.91C147.56 144.5 147.67 143.76 147.93 143.17C148.02 142.97 148.12 142.6 148.19 142.61C149.59 142.73 149.69 141.42 150.34 140.71V139.5C149.98 138.33 149.66 137.16 149.26 136.02V136.02ZM98.53 106.9L98.12 106.84C98.25 105.95 98.37 105.05 98.5 104.16C98.61 104.18 98.72 104.19 98.83 104.21L98.53 106.9V106.9ZM104.59 76.1298C104.31 76.4898 104.03 76.8598 103.66 77.3498C103.11 76.8898 102.64 76.4898 102.18 76.0998C103.09 74.9398 103.85 75.4498 104.59 76.1298V76.1298ZM108.89 142.6H106.43V142.3H108.92L108.89 142.6ZM116.84 118.74C116.37 119.59 115.75 120.28 115.02 120.81C113.815 121.918 112.287 122.612 110.66 122.79C108.95 123.56 107 123.72 105.09 122.91C102.35 121.75 100.88 119.1 100.92 116.23C100.35 114.41 100.37 112.41 101.13 110.62C102.44 107.53 105.36 105.59 108.69 105.45C109.83 105.17 111.02 105.27 112.2 105.96C112.37 106.06 112.53 106.19 112.7 106.3C114.32 107.14 115.55 108.52 116.35 110.17C116.94 111.08 117.3 112.17 117.3 113.42C117.31 113.47 117.32 113.52 117.32 113.58C117.83 115.27 117.73 117.12 116.84 118.74Z" fill="url(#paint0_linear_1230_3209)"/>
<path d="M72.1 138.99C69.2 148.24 66.46 157.54 63.9 166.89C63.93 166.59 63.97 166.29 64 165.99M64.75 168.33C68.21 171.54 72.17 174.21 76.44 176.21C85.85 180.63 96.47 181.72 106.87 181.88C125.67 182.18 145.87 179 159.5 166.05M150.22 139.9C153.33 144.23 153.87 149.85 156.08 154.7C156.97 156.64 158.12 158.46 158.92 160.44C159.52 161.93 159.91 163.5 160.09 165.09M72.15 139.24C82.8 148.09 96.59 153.06 110.43 153.03C124.27 153 138.05 147.99 148.67 139.11M107.36 104.95C104.81 105.08 102.45 106.64 101.02 108.75C99.59 110.87 99.02 113.48 99.04 116.04C99.05 117.31 99.21 118.6 99.76 119.74C100.66 121.61 102.49 122.85 104.39 123.68C106.85 124.75 109.7 125.23 112.22 124.32C114.37 123.54 116.09 121.8 117.22 119.81C118.42 117.7 119.03 115.23 118.7 112.83C118.22 109.42 115.73 106.39 112.52 105.15C109.31 103.9 105.5 104.42 102.66 106.37M109.05 124.81C109.93 133.16 110.81 141.52 111.68 149.87M125.29 85.5799C123.739 88.0462 122.379 90.627 121.22 93.2999M95.46 84.6999C95.29 86.8899 95.84 89.1399 97.02 90.9999M83.32 107.27C84.09 107.44 84.86 107.61 85.63 107.79M88.13 141.56C88.8053 140.342 89.6887 139.253 90.74 138.34M131.3 130.25C132.28 131.64 133.5 132.85 134.89 133.83M124.37 104.42C125.61 104.26 126.84 104.1 128.08 103.95M140.42 47.5199L137.75 42.3899C140.91 41.0199 143.96 39.3799 146.84 37.4999C147.25 37.2299 147.67 36.9499 147.91 36.5199C148.21 35.9899 148.2 35.3499 148.17 34.7399C148.06 32.2999 147.96 29.8599 147.85 27.4199C147.82 26.7099 147.79 25.9699 148.08 25.3299C148.42 24.5699 149.14 24.0599 149.83 23.5999C152.04 22.0899 154.25 20.5799 156.47 19.0699M35.61 17.5799C34.6771 24.251 34.5629 31.0111 35.27 37.7099C35.3 38.0299 35.37 38.4099 35.66 38.5599C35.91 38.6899 36.2 38.5999 36.47 38.4999C40.8 36.8899 44.93 34.1699 49.54 34.2999C49.37 38.3099 49.48 42.3199 49.88 46.3099C49.94 46.9199 50.06 47.6099 50.58 47.9299C50.94 48.1499 51.39 48.1299 51.81 48.0799C53.36 47.8999 54.89 47.5099 56.33 46.8999M99.33 11.1699C97.8 12.6699 96.49 14.4099 95.46 16.2899C95.38 16.4399 95.3 16.5999 95.31 16.7599C95.32 16.9799 95.49 17.1499 95.64 17.3099C97.66 19.3199 100.04 20.9699 102.63 22.1599C101.36 23.8899 100.08 25.6099 98.81 27.3399" stroke="#1D1D1B" stroke-width="1.5" stroke-miterlimit="10"/>
<path d="M86.2 72.1099C98.73 75.6399 112.19 73.8899 124.74 70.4399" stroke="#EB6763" stroke-width="1.5" stroke-miterlimit="10"/>
<path d="M85.75 71.4399C85.52 72.6599 86.95 73.4799 88.13 73.8499C98.22 77.0399 109.24 77.1999 119.41 74.3099C122.2 73.5199 125.02 72.4499 127.12 70.4399M53.5099 188.66C50.1399 187.32 46.54 186.56 42.91 186.43C42.58 186.42 42.21 186.42 41.97 186.64C41.73 186.85 41.6799 187.2 41.6399 187.52C41.2699 190.41 40.64 193.27 39.75 196.05C39.53 196.74 39.2699 197.47 38.7099 197.94C38.2499 198.33 37.66 198.5 37.08 198.66L28.75 200.97C29.03 203.17 29.4599 205.36 30.0499 207.5M108.01 197.93L119.38 199.01L117.58 209.82C117.54 210.06 117.5 210.31 117.57 210.54C117.72 211.02 118.26 211.24 118.75 211.37C120.96 211.96 123.65 212.2 124.76 214.2M185.38 181.57C187.57 180.13 189.91 178.92 192.35 177.97C193.16 177.66 194.04 177.37 194.87 177.58C196.45 177.99 197.04 179.88 197.38 181.48L198.73 187.98C198.93 188.93 199.16 189.94 199.87 190.61C201.65 192.29 205.31 190.82 206.6 192.91M161.8 105.02C164.99 101.95 168 98.6899 170.81 95.2699C173.08 98.5199 175.71 101.51 178.65 104.17C181.22 100.61 183.79 97.0599 186.35 93.4999C186.59 93.1699 186.9 92.8099 187.31 92.8499C187.53 92.8699 187.72 93.0199 187.89 93.1699C189.55 94.5499 191.2 95.9299 192.86 97.3099M11.45 89.9199C12.02 94.4199 12.23 98.9699 12.07 103.5C17.25 100.44 22.42 97.3899 27.6 94.3299C28.59 98.3599 29.59 102.4 30.58 106.43C30.7 106.91 30.8599 107.44 31.2999 107.67C31.7599 107.9 32.3 107.7 32.77 107.49C35.12 106.45 37.47 105.41 39.81 104.37" stroke="#1D1D1B" stroke-width="1.5" stroke-miterlimit="10"/>
<defs>
<linearGradient id="paint0_linear_1230_3209" x1="91" y1="46" x2="137" y2="170.5" gradientUnits="userSpaceOnUse">
<stop offset="0.197917" stop-color="#FE7332"/>
<stop offset="1" stop-color="#F8570E"/>
</linearGradient>
</defs>
</svg>
