<svg width="164" height="177" viewBox="0 0 164 177" fill="none" xmlns="http://www.w3.org/2000/svg">
<path d="M135.36 69.6199C135.29 67.6899 134.76 65.7999 133.9 64.0999C133.27 62.8399 132.97 61.3999 131.97 60.3199C131.1 59.3799 130.09 58.4999 129.51 57.3999C127.38 53.3499 124.41 49.8899 121.95 46.0799C118.72 41.0699 115.24 36.2299 112.05 31.1999C110.41 28.5999 108.23 26.3899 106.67 23.7599C104.46 20.0099 102.36 16.2099 99.43 12.9399C98.78 12.2099 98.34 12.1499 97.59 12.5999C95.87 13.6299 94.24 14.7799 92.85 16.2399C92.41 16.6199 91.81 16.1899 91.36 16.5399L91.4 16.5999C91.05 16.6699 91.48 17.1699 91.06 17.1999C90.58 17.0399 90.14 17.2599 89.78 17.4799C87.89 18.5899 86.01 19.7199 84.17 20.9199C83.43 21.3999 83.07 21.6699 82.36 20.6999C80.52 18.1799 78.28 15.9699 76.1 13.7399C75.03 12.6499 74.2 12.8299 73.23 14.0999C73 14.4199 72.9 14.9999 72.37 15.0199C71.36 15.0599 71.03 15.9099 70.45 16.4899C69.11 17.8099 68.92 20.1199 66.41 20.5299C65.37 20.6999 64.93 20.6699 64.44 19.9199C62.12 16.3599 59.31 13.1799 56.71 9.82991C56.13 9.08991 55.72 8.98991 54.92 9.63991C53.7 10.6299 52.51 11.6399 51.33 12.6799C49.16 14.5799 46.66 16.0499 44.38 17.7999C40.61 20.6899 36.74 23.4599 32.99 26.3699C32.12 27.0499 32.14 27.8899 32.58 28.4199C33.85 29.9599 34.64 31.7999 35.85 33.3699C38.02 36.1799 39.93 39.1299 40.82 42.6699C41.45 45.1399 42.34 47.5499 43.24 49.9399C44.53 53.3599 45.74 56.7899 46.22 60.4299C46.55 62.9199 50.06 65.4399 50.5 67.9099C51.07 71.1199 53.5 74.2899 53.28 77.5999C53.16 79.4999 53.29 78.8699 52.63 80.6599C52.49 82.1799 49.88 85.1399 49.64 86.6299C49.46 87.1099 49.29 87.5899 49.11 88.0699C48.12 89.9599 45.25 90.4299 44.21 92.2999C43.04 94.8199 41.36 97.0699 39.53 99.1599C38.84 99.6199 37.99 100.04 37.23 100.45C36.93 100.7 36.59 100.91 36.35 101.21C34.22 103.93 32.05 106.59 29.46 108.93C26.27 111.82 23.07 114.73 20.8 118.46C20.39 118.77 20.1 119.16 19.93 119.64C18.71 121.63 25.53 114.96 23.94 116.64C23.4 116.95 23.31 117.69 22.68 117.93C21 119.25 19.89 121.03 18.73 122.77C18.5 123.11 17.96 123.4 18.28 123.9C18.51 124.26 18.9 124.66 19.36 124.58C19.98 124.47 19.62 123.83 19.79 123.46C20.02 122.98 20.23 122.34 20.78 122.25C21.37 122.16 21.38 122.76 21.41 123.21C21.22 123.75 20.93 124.22 20.42 124.52C20.12 125.02 20.28 125.39 20.65 125.82C21.63 126.97 22.75 127.92 24.03 128.69C24.57 129.29 25.21 129.74 25.92 130.1C26.84 130.21 25.95 128.92 26.93 128.97C26.59 130.06 28.29 130.5 27.77 131.71C27.87 131.79 27.98 131.88 28.07 131.98C29.79 133.66 30.87 135.84 33.03 137.05L33.12 137.11C33.42 137 33.52 137.41 33.73 137.67C35.22 139.54 38.72 142.17 40.83 143.4C42.43 144.34 43.78 143.65 44.94 142.08C46.12 140.5 44.13 141.85 45.38 140.22C47.66 137.24 50.5 134.7 52.49 131.48C55.4 126.76 51.43 131.88 55.37 128.2C58.66 125.13 75.97 110.89 79.56 108.14C82.06 106.23 84.2 98.8499 84.66 95.7699C85.52 90.0099 87.64 84.5299 88.05 78.6699C88.32 74.8499 89.35 71.0899 89.27 67.2099C89.19 63.3699 89.24 59.5199 89.26 55.6799C89.26 55.2799 89.05 54.8099 89.53 54.3699C90.7 55.8199 91.67 57.3299 92.55 58.9399C93.68 60.9999 94.8 63.1099 96.25 64.9399C98.9 68.2799 101.07 71.9099 103.25 75.5399C103.8 76.4599 103.6 77.3099 103.04 77.9999C102.58 78.5699 102.37 79.1899 102.14 79.8299C101.31 82.1299 100.57 84.4599 99.68 86.7299C98.22 90.4799 96.75 94.2299 95.83 98.1599C94.92 102.02 93.94 105.85 93.61 109.84C93.3 113.54 91.98 117.09 91.85 120.9C91.69 125.76 90.04 130.52 90.39 135.46C90.26 136.15 90.25 136.83 90.4 137.52C90.83 138.11 90.71 138.86 90.62 139.43C90.35 141.08 91.71 142.03 92.11 143.39C92.58 144.96 93.08 146.59 94.08 147.95C94.91 149.09 95.79 150.23 97.25 150.67C97.59 150.48 97.93 150.54 98.26 150.71C98.85 150.84 98.37 151.56 98.91 151.8C99.22 151.35 99.8 151.04 99.74 150.36C99.59 148.73 101.07 148.14 101.99 147.81C103.38 147.31 104.13 146.54 104.61 145.28C104.73 144.96 104.79 144.45 105.14 144.44C107.1 144.4 107.21 141.18 109.58 141.88C109.66 141.9 109.79 141.65 109.92 141.61C111.32 141.17 112.42 139.53 114.2 140.65C114.72 140.97 114.96 140.43 115.07 139.97C115.34 139.53 115.63 139.59 115.93 139.93C116.27 140.43 115.89 141.52 116.99 141.4C117.72 141.32 118.65 141.41 118.9 140.37C119.01 139.92 118.81 139.2 119.45 139.18C119.96 139.16 119.88 139.88 120.04 140.27C120.21 140.68 120.43 141.01 120.87 141C121.24 140.99 121.28 140.61 121.28 140.32C121.26 138.21 121.55 136.03 121.13 133.99C120.3 129.95 120.98 126.01 121.35 122.04C121.56 119.83 122.89 117.88 123.41 115.72C124.6 110.86 125.13 105.83 127.01 101.14C128.21 98.1299 128.99 94.9499 130.61 92.1099C131.8 90.0199 133.21 88.0399 133.81 85.6599C134.5 82.9399 135.08 80.1799 135.33 77.3899C135.57 74.8199 135.46 72.2099 135.36 69.6199V69.6199Z" fill="url(#paint0_linear_1230_3214)"/>
<path d="M103.37 162.68C103.66 162.96 104.05 163.23 104.55 163.47C107.44 164.91 116.38 159.61 119.84 159.07C125.57 158.17 131.42 158.51 137.19 158.04C138.22 157.96 139.29 157.83 140.14 157.25C142.43 155.7 141.75 152.21 140.82 149.61C133.76 148.13 126.29 146.44 119.11 145.69" fill="black"/>
<path d="M103.42 162.73C102.51 159.34 100.8 154.77 100.14 151.33C106.86 153.22 114.54 150.96 119.12 145.69M12.07 144.55C12.06 144.99 12.14 145.49 12.31 146.07C13.29 149.43 24.1 152.63 27.07 154.97C32 158.86 36.05 163.76 40.68 167.99C41.5 168.74 42.39 169.5 43.48 169.75C46.4 170.42 47.29 169.98 48.67 167.32C46.86 163.15 45.27 157.1 37.17 144.52" fill="black"/>
<path d="M12.06 144.62C14.08 141.4 16.45 136.67 18.7 133.61C22.15 140.34 29.61 144.78 37.17 144.54" fill="black"/>
<path d="M140.22 55.27C139.14 58.13 138.06 60.99 136.99 63.85C134.66 63.1 132.41 62.1 130.29 60.89C129.46 63.11 128.64 65.33 127.81 67.54C127.73 67.74 127.64 67.97 127.45 68.07C127.28 68.16 127.07 68.12 126.88 68.09C125.09 67.75 123.31 67.4 121.52 67.06C120.87 68.76 120.21 70.47 119.56 72.17M154.97 79.23C154.23 78.3 153.42 77.2 152.27 77.49C151.12 77.77 149.59 79.35 148.67 80.1C147.73 80.87 146.83 81.69 145.98 82.56C145.76 82.78 145.53 83.01 145.22 83.06C144.81 83.12 144.43 82.82 144.12 82.54C142.91 81.46 141.7 80.37 140.5 79.29C140.24 79.05 139.95 78.8 139.6 78.75C139.34 78.71 139.07 78.79 138.82 78.87C137.07 79.42 135.85 81.19 134.21 82.01C133.95 82.14 133.67 82.28 133.38 82.27C133.05 82.26 132.76 82.08 132.49 81.9C130.85 80.83 128.71 78.69 127.07 77.62M97.64 102.02L93.71 97.13C93.57 96.96 93.42 96.77 93.25 96.71C93.02 96.62 92.82 96.76 92.64 96.9C91.82 97.54 90.99 98.17 90.17 98.81C90.01 98.93 89.83 99.06 89.63 99.02C89.42 98.98 89.23 98.77 89.05 98.57C88.39 97.84 87.74 97.11 87.08 96.39C86.88 96.17 86.67 95.94 86.44 95.86C86.17 95.77 85.93 95.9 85.71 96.02C84.24 96.83 82.77 97.64 81.31 98.44C80.91 98.66 80.5 98.88 80.03 98.85C78.69 98.76 77.57 96.73 76.24 95.93M96.2 80.5C95.15 80.23 93.59 80.23 92.24 79.92C91.35 81.65 90.45 83.37 89.56 85.1C89.48 85.25 89.4 85.4 89.25 85.48C89.06 85.57 88.79 85.53 88.54 85.49C87.04 85.22 85.54 84.95 84.05 84.68C83.82 84.64 83.58 84.6 83.4 84.67C83.16 84.77 83.07 85.03 83.01 85.28C82.76 86.26 82.67 87.31 82.73 88.4C82.75 88.74 82.78 89.1 82.61 89.35C82.48 89.54 82.24 89.64 82.01 89.73C80.61 90.28 79.21 90.84 77.81 91.39" stroke="black" stroke-width="1.5" stroke-miterlimit="10" stroke-linecap="round"/>
<defs>
<linearGradient id="paint0_linear_1230_3214" x1="52" y1="-12.5" x2="105.5" y2="162.5" gradientUnits="userSpaceOnUse">
<stop offset="0.277405" stop-color="#FE7332"/>
<stop offset="1" stop-color="#F8570E"/>
</linearGradient>
</defs>
</svg>
