<svg width="185" height="295" viewBox="0 0 185 295" fill="none" xmlns="http://www.w3.org/2000/svg">
<path d="M123.21 32.4598L149.08 24.7798C149.08 24.7798 152.67 36.2198 151.23 42.6098C149.78 48.9998 149.58 53.6298 149.58 53.6298L149.49 59.5598L139.93 65.9598L131.87 61.1198L139.77 53.1398C139.77 53.1398 141.78 52.0998 137.27 54.8098C132.76 57.5198 128.94 50.4498 128.94 50.4498C128.94 50.4498 124.94 45.1498 124.93 40.6398C124.92 36.1298 123.63 33.0798 123.63 33.0798" fill="#E7AD95"/>
<path d="M149.79 233.99C147.14 210 139.03 178.77 132.86 154.6" stroke="black" stroke-miterlimit="10" stroke-linecap="round" stroke-linejoin="round"/>
<path d="M174.23 97.8799C173.43 93.3799 172.31 88.9199 171.33 84.4599C170.93 82.6399 169.41 81.2199 167.74 80.8599C167.17 80.0099 166.57 79.1799 165.99 78.3399C165.07 76.9899 163.95 75.8099 163.35 74.2199C163.03 73.3599 162.61 72.5699 161.97 71.9599C161.33 71.3499 160.92 70.5799 160.58 69.7499C160.41 69.3399 160.21 68.9499 160 68.5599C159.73 68.0699 159.34 67.5699 159.48 66.8899C159.64 66.0699 159.25 65.4599 158.74 64.9499C158.008 64.2213 157.261 63.5078 156.5 62.8099C156.11 62.4499 155.72 61.8599 155.3 61.8299C154.6 61.7699 154.11 61.3599 153.53 61.0599C153.17 60.8699 152.81 60.5999 152.37 60.6099C152.08 60.4199 151.63 60.6399 151.43 60.1899C150.77 60.3999 150.13 60.1699 149.48 60.0499C147.87 59.7699 146.29 59.9499 144.74 60.4699C144.4 60.5899 144.08 60.7799 143.75 60.9499C142 61.8499 140.33 62.8899 138.8 64.1899C138.65 64.3199 138.51 64.4199 138.34 64.3599C137.59 64.0899 136.76 63.9499 136.11 63.5099C134.48 62.4099 132.85 61.2699 131.47 59.7899C131.31 59.6199 131.14 59.4899 130.93 59.3899C130.06 58.9799 129.2 59.1199 128.33 59.4199C126.56 60.0399 124.77 60.2399 122.92 59.8399C121.24 59.4699 119.56 59.0999 117.87 58.8399C117.16 58.7299 116.37 58.6099 115.69 59.1499C115.42 59.3599 115.07 59.4699 114.75 59.5799C113.45 59.9999 112.34 60.8299 111.34 61.7599C110.84 62.2299 110.21 62.5099 109.79 63.1799C109.26 64.0299 108.7 64.8799 108.14 65.7099C107.99 65.7899 107.84 65.8799 107.69 65.9599C107.59 65.7199 107.66 65.3499 107.37 65.4399C107.16 65.5099 106.74 65.7199 106.75 66.1699C106.67 66.2499 106.65 66.3999 106.62 66.5399C103.52 68.2899 100.59 70.3399 97.79 72.6099C95.27 74.6499 92.69 76.5799 90.63 79.2299C88.49 81.9999 86.7 84.9099 85.59 88.2399C80.66 101.72 91.18 107.55 92.95 109.61C94.55 111.46 96.57 112.65 98.64 113.78C100.56 114.83 102.64 115.49 104.62 116.39C105.59 116.82 106.51 117.34 107.41 117.88C107.35 118.3 107.28 118.73 107.2 119.15C106.86 120.8 106.67 122.48 106.42 124.16C106.28 125.16 106.12 126.15 105.9 127.13C105.68 128.14 105.72 129.18 105.79 130.21C105.86 130.37 109.38 137.52 109.78 137.9C110.56 138.66 111.55 138.86 112.37 139.5C113.11 140.08 113.96 140.33 114.78 140.61C115.69 140.92 116.66 140.8 117.6 140.89C117.63 140.7 117.74 140.59 117.85 140.48C117.85 140.48 117.85 140.49 117.84 140.49C117.79 140.59 117.78 140.69 117.86 140.77C118.47 140.96 119.05 140.96 119.68 140.73C120.84 140.31 121.97 139.78 122.93 138.9C123.63 138.25 124.14 137.84 125.09 138.33C125.98 138.79 127.03 138.8 128.01 139.03C128.54 139.16 129.03 139.47 129.59 139.36C129.79 139.05 129.86 139.34 129.97 139.47C130.15 139.43 130.33 139.4 130.5 139.36C130.63 139.17 130.41 138.92 130.57 138.72C130.5 139.06 130.72 139.09 130.88 139.18C131.08 139.52 131.18 138.61 131.35 139.11C131.5 139.58 131.96 139.51 132.03 139.43C132.47 138.93 133.08 139.28 133.54 138.89C133.86 138.62 134.21 138.65 134.57 138.85C135.84 139.54 137.21 139.81 138.57 140.14C140.27 140.56 142.01 140.66 143.66 141.4C145.25 142.12 146.87 142.53 148.59 142.65C150.01 142.74 151.34 142.35 152.59 141.85C154.2 141.21 155.61 139.98 156.78 138.37C158.23 136.38 159.31 134.11 160.16 131.71C160.63 130.38 160.86 128.98 160.95 127.56C161.4 127.46 162.69 127.36 162.7 127.35C162.79 127.13 162.87 126.91 162.96 126.69C163.13 126.25 163.31 125.8 163.48 125.36C163.86 124.4 164.24 123.45 164.63 122.49C166.19 118.66 168.03 114.91 169.25 110.93C170.6 106.64 175.01 102.29 174.23 97.8799V97.8799ZM103.05 96.2899C102.72 95.8899 102.44 95.5299 102.21 95.1999C102.26 95.1599 102.31 95.1299 102.35 95.0899C104.46 93.4299 106.74 92.0699 108.82 90.3699C109.84 89.5399 110.8 88.6099 112.09 87.8099C111.5 90.0599 111.35 92.2099 110.99 94.3299C110.7 96.0599 110.18 97.7299 110 99.4899C109.97 99.7999 109.93 100.12 109.88 100.43C109.59 100.31 109.31 100.19 109.02 100.09C106.75 99.3099 104.66 98.2699 103.05 96.2899V96.2899ZM159.72 102.31L159.67 102.83C159.63 103.1 159.6 103.36 159.56 103.63C159.32 105.18 154.5 106.73 154.16 108.26C154.07 108.68 153.96 109.09 153.86 109.5C153.66 108.53 153.65 107.58 154.24 106.61C154.29 106.53 154.28 106.4 154.31 106.3C155.27 102.63 156.09 98.9399 156.15 95.1299C156.54 94.9699 156.9 95.3999 157.24 95.0699C157.49 94.9099 157.3 94.6099 157.42 94.4099C157.51 94.2499 157.58 93.9099 157.78 94.3399C157.85 94.4899 157.92 94.7199 158.16 94.5499C158.22 94.5299 158.28 94.4899 158.33 94.4499C158.96 96.4299 159.47 98.4499 159.87 100.5C159.81 101.11 159.77 101.71 159.72 102.31V102.31Z" fill="url(#paint0_linear_1230_3220)"/>
<path d="M139.4 45.0001C139.64 45.3701 140.18 45.4601 140.58 45.2901C140.99 45.1201 141.28 44.7501 141.48 44.3601C141.757 43.8107 141.896 43.2017 141.884 42.5864C141.872 41.971 141.709 41.3681 141.41 40.8301M131.91 61.7101C135.8 63.9101 140.7 64.2301 144.84 62.5501" stroke="black" stroke-miterlimit="10" stroke-linecap="round" stroke-linejoin="round"/>
<path d="M114.43 68.0699C113.52 69.5399 113.15 71.3999 113.71 73.0299C114.27 74.6599 115.85 75.9699 117.58 75.9399C120.02 75.8999 121.8 73.2799 121.77 70.8399C121.75 69.0899 120.91 67.2599 119.34 66.4899C117.77 65.7199 115.51 66.4499 115.05 68.1399" stroke="#F8F8F8" stroke-miterlimit="10"/>
<path d="M129.95 88.7698C128.47 89.6798 128.16 91.6898 128.26 93.4298C128.31 94.3298 128.44 95.2598 128.97 95.9898C129.66 96.9298 130.91 97.3198 132.06 97.2298C134.07 97.0598 135.88 95.4598 136.28 93.4798C136.68 91.4998 135.64 89.3198 133.85 88.3898C132.43 87.6498 130.41 87.8198 129.52 89.1598" stroke="#284696" stroke-miterlimit="10"/>
<path d="M131.46 70.3402C131.068 70.9068 130.813 71.5564 130.714 72.2383C130.615 72.9201 130.675 73.6156 130.89 74.2702C131.33 75.5702 132.42 76.6402 133.73 77.0502C135.3 77.5402 137.15 77.0502 138.24 75.8102C139.33 74.5702 139.57 72.6502 138.8 71.1902C138.03 69.7402 136.35 68.8702 134.7 68.9002C133.05 68.9302 131.48 69.7902 130.41 71.0402M167.51 80.8602C165.51 83.3102 165.9 87.3502 168.33 89.3802C169.47 90.3302 171.35 90.7402 172.31 89.6202M159.38 95.0102C159.41 95.5402 159.98 95.8202 160.44 96.0802C162.65 97.3202 163.56 100.33 162.64 102.68C161.72 105.03 159.21 106.6 156.67 106.63" stroke="#F8F8F8" stroke-miterlimit="10"/>
<path d="M169.29 118.7C168.35 118.35 167.31 118.86 166.55 119.51C165.24 120.61 164.29 122.24 164.34 123.95C164.39 125.66 165.62 127.36 167.31 127.64" stroke="white" stroke-miterlimit="10" stroke-linecap="round" stroke-linejoin="round"/>
<path d="M167.68 115.38C165.49 113.75 161.93 114.53 160.62 116.92C159.31 119.31 160.57 122.73 163.12 123.7M136.06 107.48C133.96 108.31 132.45 110.74 133.13 112.89C133.54 114.2 134.69 115.22 136.01 115.62C137.83 116.16 139.97 115.47 141.06 113.92C142.15 112.37 142.04 110.05 140.75 108.67C139.45 107.28 137.08 107.05 135.58 108.22" stroke="#F8F8F8" stroke-miterlimit="10"/>
<path d="M94.03 77.3498C96.09 78.9198 99.24 78.8298 101.22 77.1498C103.19 75.4698 103.79 72.3798 102.58 70.0898" stroke="#284696" stroke-miterlimit="10"/>
<path d="M95.86 98.1201C95.25 95.9701 95.89 93.5101 97.48 91.9401C97.98 91.4401 98.59 91.0201 99.27 90.8301C101.22 90.2901 105.08 92.1101 104.89 94.1201M108.29 115.85C110.95 116.94 112.77 119.82 112.61 122.69C112.57 123.48 112.37 124.3 111.85 124.9C110.86 126.04 109.05 126.08 107.94 127.1M124.17 123.85C123.5 125.42 123.59 127.38 124.66 128.71C125.73 130.04 127.85 130.5 129.25 129.51C131.02 128.24 130.82 125.36 129.39 123.72C128.66 122.89 127.6 122.25 126.5 122.36C125.4 122.47 124.39 123.54 124.63 124.62M144.64 133.58C145.53 135.45 147.63 136.63 149.7 136.58C150.33 136.56 150.98 136.43 151.5 136.09C152.1 135.7 152.51 135.06 152.79 134.4C153.57 132.56 153.52 130.38 152.64 128.58C152.01 127.29 150.9 126.16 149.5 125.83C145.67 124.91 143.26 130.7 144.64 133.58Z" stroke="#F8F8F8" stroke-miterlimit="10"/>
<path d="M106.51 233.49C110.67 235.74 114.34 235.74 119.27 235.74C119.32 226.32 133.77 185.05 134.28 161.69M106.54 131.13C102.01 170.44 110.28 191.42 106.51 233.49M161.46 231.49C157.25 231.06 155.62 233.48 149.79 233.98M161.86 136.19C161.55 144.36 164.26 152.31 166.65 160.13C172.69 179.89 159.23 210.95 161.54 231.48" stroke="black" stroke-miterlimit="10" stroke-linecap="round" stroke-linejoin="round"/>
<path d="M119.52 239.24C119.01 244.41 116.38 262.78 115.41 267.89C115.2 269 114.95 270.17 114.19 271.01C113.58 271.68 112.73 272.06 111.89 272.41C108.56 273.84 105.22 275.28 101.89 276.71C99.05 277.93 95.99 279.18 92.95 278.6C92.67 278.55 92.37 278.47 92.15 278.28C91.65 277.86 91.73 277.08 91.9 276.45C93.76 269.79 101.89 266.46 103.98 259.86C104.44 258.4 104.58 256.87 104.71 255.35C104.92 252.97 105.8 240.36 106.01 237.98L119.52 239.24V239.24Z" fill="black"/>
<path d="M108.81 279.09C110.16 279.67 111.73 279.3 113.11 278.92C113.3 278.87 113.51 278.81 113.63 278.67C113.74 278.55 113.76 278.38 113.77 278.23C114.03 275.51 114.22 272.78 114.34 270.05C114.34 269.98 114.34 269.91 114.3 269.85C114.2 269.73 113.99 269.76 113.84 269.8C112.81 270.09 111.8 270.44 110.82 270.84C109.59 271.34 108.99 271.42 108.99 272.61C108.98 274.77 108.92 276.93 108.81 279.09V279.09ZM149.64 240.99C148.86 244.56 150.31 259.22 150 262.86C149.69 266.5 148.79 270.29 146.29 272.97C144.79 274.58 142.8 275.69 141.39 277.37C139.98 279.05 137.66 281.88 139.14 283.51C140.57 285.09 144.8 284.67 146.75 283.81C150.81 282.01 153.89 278.38 158.04 276.8C159.72 276.16 161.75 275.71 162.55 274.09C162.89 273.41 162.94 272.63 162.98 271.87C163.3 266.43 161.48 244.42 161.8 238.98L149.64 240.99Z" fill="black"/>
<path d="M162.9 280.87C161.33 281.39 159.76 281.9 158.2 282.42C157.89 282.52 157.5 282.61 157.28 282.39C157.17 282.28 157.14 282.12 157.11 281.97C156.63 279.05 156.43 276.1 156.52 273.15C156.53 272.93 156.54 272.71 156.66 272.53C156.82 272.3 157.13 272.19 157.42 272.1C158.53 271.77 159.95 271.28 161.13 271.3C162.33 271.32 162.17 272.28 162.25 273.19C162.47 275.76 162.69 278.32 162.9 280.87V280.87Z" fill="black"/>
<path d="M106.72 239.25C106.41 237.01 106.21 235.73 106.51 233.49M119.27 235.74C118.71 238.09 118.69 238.21 118.6 240.62C118.59 240.9 117.76 244.15 118.02 244.24M149.79 244.49C149.9 241.22 150.11 237.48 149.79 233.98M160.8 242.24C160.84 238.65 161.51 235.07 161.55 231.48M144.87 59.9301C143.84 58.4401 143.25 56.2301 144.87 55.4901C146.27 54.8401 145.74 52.9101 144.87 52.0401C142.87 50.0301 147.18 49.5701 144.61 46.7501C142.82 44.7901 143.83 44.0401 144.37 43.4701C146.42 41.2701 145.31 39.0501 144.32 38.8701C141.91 38.4501 139.51 37.3901 139.18 35.2601C137.62 25.0601 129.22 34.9701 125.11 35.7201C120.51 36.5601 117.16 34.2201 117.74 30.3101" stroke="black" stroke-miterlimit="10" stroke-linecap="round" stroke-linejoin="round"/>
<path d="M160.21 62.6002C159.91 61.0502 158.61 59.7302 156.91 59.2402C156.91 59.2402 155.04 59.2102 155.46 57.5102C155.64 56.7902 154.24 56.6002 154 55.9402C153.04 53.3502 158.31 50.5902 156.78 48.2502C156.32 47.5402 155.27 47.1002 155.21 46.2702C155.17 45.7402 155.55 45.2402 155.91 44.7902C157.47 42.8402 159.01 40.3702 157.92 38.3402C156.77 36.2102 152.33 29.4202 151.27 27.2502C150.66 26.0002 151.04 24.5202 151.07 23.1202C151.17 18.6202 147.33 14.7902 142.58 13.3002C137.83 11.8102 132.39 15.9402 127.34 17.2202C122.35 18.4902 117.08 20.9202 115.11 25.1402C114.59 26.2402 114.34 27.4802 114.76 28.5602C115.18 29.6402 116.41 30.4802 117.75 30.3002M144.87 59.9302C145.69 61.2902 146.49 59.3502 148 60.1402C149.24 60.7902 150.77 61.3002 151.28 62.5002C151.84 63.8102 150.9 65.4302 151.45 66.7502C152.25 68.6602 155.33 68.6102 157.41 69.5102C159.08 70.2402 160.16 71.6702 161.04 73.1002C161.4 73.6902 161.75 74.3002 162.34 74.7202C162.93 75.1402 163.82 75.3302 164.52 74.9702C165.62 74.4002 165.54 73.0402 165.3 72.0002C164.96 70.5302 164.56 68.9602 163.31 67.9702C162.54 67.3602 161.48 67.0002 160.9 66.2402C160.13 65.2302 160.45 63.8302 160.21 62.6102" stroke="black" stroke-miterlimit="10" stroke-linecap="round" stroke-linejoin="round"/>
<path d="M101.05 89.8999C96.29 92.5899 93.09 94.6499 91.84 98.8999C91.2 101.07 91.06 103.37 90.27 105.48C89.96 106.32 89.54 107.14 89.49 108.03C89.44 108.92 89.89 109.93 90.76 110.15C91.57 110.36 92.37 109.83 92.96 109.24C96.42 105.8 97.96 102.18 100.06 97.7799C102.02 93.6899 109.05 99.2299 112.62 96.4299" stroke="black" stroke-miterlimit="10"/>
<path d="M102.42 90.4301C100.56 90.6501 98.79 89.7801 96.97 89.3901C93.99 88.7601 90.82 89.4301 88.07 90.6301C87.21 91.0101 86.31 91.4501 85.35 91.3601C83.55 91.2001 82.66 91.1801 82.37 89.6301C82.33 89.4301 82.3 89.2101 82.38 89.0201C82.49 88.7701 82.78 88.6101 83.05 88.4701C86.94 86.5501 91.41 83.7301 95.88 83.7501" stroke="black" stroke-miterlimit="10" stroke-linecap="round" stroke-linejoin="round"/>
<path d="M138.68 86.5902C138.288 87.1568 138.033 87.8065 137.934 88.4883C137.835 89.1701 137.895 89.8656 138.11 90.5202C138.55 91.8202 139.64 92.8902 140.95 93.3002C142.52 93.7902 144.37 93.3002 145.46 92.0602C146.55 90.8202 146.79 88.9002 146.02 87.4402C145.25 85.9902 143.57 85.1202 141.92 85.1502C140.27 85.1802 138.7 86.0402 137.63 87.2902M150.42 72.1502C150.028 72.7168 149.773 73.3665 149.674 74.0483C149.575 74.7302 149.635 75.4256 149.85 76.0802C150.29 77.3802 151.38 78.4502 152.69 78.8602C154.26 79.3502 156.11 78.8602 157.2 77.6202C158.29 76.3802 158.53 74.4602 157.76 73.0002C156.99 71.5502 155.31 70.6802 153.66 70.7102C152.01 70.7402 150.44 71.6002 149.37 72.8502" stroke="#F8F8F8" stroke-miterlimit="10"/>
<path d="M16.28 272.7C18.23 272.63 19.95 271.49 21.75 270.73C23.7 269.91 25.81 269.54 27.89 269.17C33.43 268.2 38.98 267.22 44.58 266.72C45.69 266.62 46.81 266.54 47.93 266.48M15.43 278.98C17.33 278.94 19.24 278.64 21 277.92C21.96 277.53 22.88 277.01 23.84 276.63C25.31 276.05 26.88 275.79 28.44 275.49C35.26 274.19 41.93 272.2 48.58 270.21" stroke="#353534" stroke-miterlimit="10" stroke-linejoin="round"/>
<path d="M47.7 266.5C47.84 265.53 48.44 264.63 49.29 264.13C50.14 263.63 51.22 263.55 52.14 263.91C52.84 264.19 53.49 264.79 53.54 265.54C53.58 266.16 53.21 266.76 52.71 267.13C52.21 267.5 51.6 267.69 50.99 267.84L51.37 267.49M52.95 267.44C54.44 267.72 55.42 269.53 54.84 270.93C54.26 272.33 52.29 272.92 51.04 272.07C50.7 271.84 50.42 271.53 50.12 271.25C49.64 270.81 49.1 270.44 48.52 270.16M15.66 272.67C15.2 272.21 14.73 271.75 14.16 271.45C13.59 271.15 12.88 271.05 12.29 271.33C11.77 271.58 11.43 272.1 11.15 272.62C10.89 273.09 10.66 273.59 10.47 274.09C10.22 274.73 10.07 275.59 10.63 276.01C11.17 276.41 11.95 276.07 12.59 276.29M11.59 276.74C10.42 277.24 9.90999 278.82 10.46 279.98C11 281.14 12.4 281.76 13.66 281.56C14.03 281.5 14.4 281.37 14.68 281.12C15.37 280.52 15.35 279.42 15.87 278.67C15.77 278.86 15.67 279.04 15.57 279.23" stroke="#353534" stroke-miterlimit="10" stroke-linejoin="round"/>
<path d="M84.34 68.4901C83.89 69.8601 86.06 70.9301 86.81 69.6601C87.56 68.4101 85.71 66.9301 84.67 67.9601C84.59 68.0401 84.53 68.1301 84.5 68.2201C84.43 68.2901 84.38 68.3801 84.34 68.4901ZM89.51 69.5001C89.06 70.8701 91.23 71.9401 91.98 70.6701C92.73 69.4201 90.88 67.9401 89.84 68.9701C89.76 69.0501 89.7 69.1401 89.67 69.2301C89.6 69.3001 89.55 69.3801 89.51 69.5001ZM121.95 112.29C123.06 113.03 128.65 107.49 129.05 107.17C129.14 107.5 129.39 107.76 129.71 107.87C130.25 108.07 130.18 107.75 130.64 107.75C130.11 108.19 130.21 108.38 130.64 108.82C131.05 109.24 131.29 109.04 131.58 109.2C131.59 109.2 131.5 109.89 131.54 109.99C131.62 110.23 132.03 110.5 132.36 110.31C132.34 110.73 132.47 110.98 132.71 111.18C132.9 113.29 133.68 115.3 134.45 117.27C135.2 119.19 135.97 121.17 136.17 123.2C136.29 124.38 136.21 125.62 136.13 126.81C136.05 128.03 135.97 129.29 136.09 130.54C136.14 131.07 136.25 131.66 136.72 132.03C137.5 132.66 138.58 132.21 139.26 131.52C140.81 129.96 141.14 127.63 141.34 125.38L142.31 114.55C142.42 113.3 142.54 112.01 142.31 110.73C142.14 109.75 141.77 108.85 141.42 107.97L140.46 105.59C140.63 105.02 140.78 104.45 140.92 103.9C141.38 102.14 141.66 100.2 141.7 98.3301C141.74 98.3601 141.78 98.3801 141.82 98.3901C143.37 98.9201 145.05 98.6201 146.63 98.2101C147.04 98.1001 147.46 97.9901 147.86 97.8801C149.35 97.4801 150.88 97.0601 152.41 96.9501C154.57 96.7901 156.46 97.2901 157.73 98.3601C157.88 98.4901 158.09 98.5101 158.26 98.4101C158.43 98.3101 158.52 98.1201 158.49 97.9301C158.28 96.5701 157.65 95.3201 156.75 94.3001C155.17 92.5101 152.78 91.4201 150.39 91.6801C149.2 91.8101 148.09 92.2101 147.01 92.6101C146.45 92.8101 145.87 93.0301 145.3 93.1901C142.99 93.8501 141.64 93.3501 140.96 92.8701C140.66 91.8801 140.28 90.9101 139.78 89.8101C139.19 88.5301 138.57 87.2901 137.81 86.1101C137.34 85.3901 136.81 84.9901 136.27 84.3601C135.97 84.0101 135.41 83.5001 135.08 83.2001C134.61 82.7701 134.19 82.2701 133.73 81.8201C132.94 81.0601 132.54 80.7301 131.49 80.4401C128.31 79.5501 125.11 78.3001 122.1 76.9701C121.27 76.6001 120.46 76.1901 119.67 75.7401C118.73 75.2101 117.78 74.3501 116.79 73.9301C115.16 73.2401 113.31 73.0401 111.66 72.3101C110.69 71.8801 109.82 71.3201 108.88 70.8501C108 70.4201 106.93 70.2301 105.97 69.9901C104.07 69.5101 101.22 69.8001 100.34 70.0101C100.33 70.0101 100.31 70.0201 100.3 70.0201C98.73 70.5801 97.44 71.5401 96.2 72.6201C98.52 72.9701 101.02 73.3801 103.45 73.7901C106.41 74.2901 109.48 74.8001 112.19 75.1801C112.3 75.2001 112.4 75.2501 112.48 75.3301C112.546 75.402 112.588 75.4932 112.598 75.5903C112.609 75.6874 112.589 75.7855 112.54 75.8701C111.96 76.9101 110.95 77.7601 109.45 78.4801C106.76 79.7701 103.53 80.3101 99.84 80.0801C96.59 79.8801 93.4 79.1201 90.31 78.3901C90.3 78.3901 90.28 78.3801 90.27 78.3801C90.19 78.4301 90.11 78.4801 90.02 78.5201C90 78.5401 89.98 78.5701 89.97 78.5901C90.17 79.1701 90.62 80.7701 90.66 80.8701C91.3 82.6001 92.79 84.3601 94.02 85.7001C96.51 88.4101 99.51 90.8001 102.23 93.4301L121.95 112.29V112.29ZM135.76 112.62C136.05 112.37 136.27 112.3 136.57 112.02C137.34 111.29 138.34 110.37 138.9 109.48C139.35 108.77 139.72 107.92 140.04 107.02L140.58 108.36C140.91 109.19 141.26 110.04 141.42 110.93C141.62 112.08 141.51 113.31 141.41 114.5L140.44 125.33C140.25 127.5 139.96 129.55 138.63 130.89C138.24 131.29 137.63 131.57 137.34 131.33C137.14 131.17 137.08 130.79 137.06 130.48C136.95 129.31 137.03 128.08 137.1 126.9C137.18 125.67 137.26 124.39 137.13 123.14C136.92 120.98 136.12 118.93 135.35 116.96C134.67 115.22 134.02 113.55 133.75 111.84C133.97 111.97 134.28 112.14 134.28 112.14C134.49 112.32 134.56 112.74 134.86 112.93C135.43 113.29 135.22 113.08 135.76 112.62V112.62ZM121.95 112.29C122.47 112.79 122.89 113.11 123.06 113.03C124.33 112.44 124.92 110.75 125.97 109.81C126.36 109.46 126.71 109.15 127.05 108.85L121.95 112.29ZM145.58 94.1201C146.19 93.9501 146.78 93.7301 147.36 93.5201C148.43 93.1301 149.45 92.7601 150.52 92.6401C152.07 92.4801 153.74 92.9801 155.1 94.0301C156.11 94.8101 156.88 95.8401 157.3 96.9501C155.95 96.2201 154.25 95.9001 152.38 96.0401C150.76 96.1601 149.18 96.5901 147.65 97.0001C147.25 97.1101 146.84 97.2201 146.43 97.3201C145.09 97.6601 143.54 97.9901 142.16 97.5201C142.09 97.497 142.016 97.4903 141.943 97.5007C141.87 97.5112 141.801 97.5383 141.74 97.5801C141.73 96.8901 141.67 96.2201 141.58 95.5701C141.51 95.0601 141.42 94.5801 141.32 94.1201C142.82 94.7301 144.55 94.4201 145.58 94.1201V94.1201Z" fill="black"/>
<path d="M90.67 77.17C90.66 77.21 90.43 77.52 90.77 77.6C93.75 78.3 96.82 79.02 99.91 79.21C103.44 79.43 106.51 78.92 109.06 77.7C110.07 77.21 110.82 76.67 111.33 76.06C108.8 75.69 106.01 75.23 103.31 74.78C100.61 74.33 97.83 73.86 95.3 73.5C93.92 74.71 92.46 75.81 90.96 76.88C90.84 76.96 90.67 77.17 90.67 77.17V77.17Z" fill="black"/>
<path d="M60.42 64.09C60.62 65.04 61.33 65.4701 61.96 65.8501L61.97 65.8601C62.64 66.2601 63.32 66.6501 63.97 67.0101C64.8 67.4701 65.69 67.9601 66.77 68.5501C67.8 69.1101 68.89 69.7001 70.01 70.2901C72.1363 71.4199 74.273 72.53 76.42 73.6201C77.16 73.9901 78.03 74.43 78.91 74.85C79.66 75.21 80.3 75.48 80.9 75.7C82.55 76.3 84.35 76.83 86.41 77.31C86.78 77.4 87.52 77.6101 88.24 77.8301C89.04 78.0701 89.86 78.3101 90.28 78.4001C90.53 78.4601 90.78 78.3001 90.83 78.0501C90.88 77.8001 90.72 77.5501 90.47 77.5001C90.08 77.4101 89.27 77.1701 88.49 76.9401C87.72 76.7001 87 76.4901 86.6 76.4001C84.57 75.9301 82.81 75.4101 81.2 74.8201C80.62 74.6101 80.02 74.3501 79.29 74.0101C78.41 73.5901 77.55 73.1601 76.82 72.7901C75.89 72.3201 74.89 71.8101 73.75 71.2201C72.68 70.6601 71.56 70.0701 70.43 69.4701C69.31 68.8801 68.22 68.2901 67.2 67.7301C66.12 67.1501 65.24 66.66 64.41 66.2C63.88 65.9 63.31 65.5801 62.76 65.2601C63.14 65.2901 63.52 65.2201 63.86 65.0301C64.78 64.5101 65.15 63.3101 64.68 62.3501C64.5979 62.181 64.4899 62.0258 64.36 61.8901C64.63 61.9301 64.91 61.9801 65.18 62.0301L65.3 62.0501C66.57 62.2801 67.86 62.5901 69.1 62.8801L69.97 63.0901C71.7 63.5001 73.49 63.9001 75.3 64.3001C76.51 64.5601 77.8 64.8401 79.13 65.0401C80.36 65.2301 81.64 65.3701 83.04 65.4701C84.61 65.5801 86.33 65.6401 88.28 65.6601C89.15 65.6701 90.08 65.6201 91.28 65.5101C92.35 65.4101 93.48 65.26 94.84 65.06C96.02 64.88 97.29 64.6701 98.73 64.4101C99.93 64.1901 101.18 63.9501 102.69 63.6501L106.33 62.9101L106.96 62.7801C108.05 62.5601 109.17 62.3301 110.27 62.1101C111.18 61.9301 112 61.7801 112.84 61.6501C112.93 61.6401 113.02 61.6201 113.12 61.6001C113.29 61.5701 113.47 61.5401 113.64 61.5201C113.59 61.5901 113.52 61.6601 113.44 61.7601L113.41 61.7901C112.58 62.7601 111.49 63.6101 110.36 64.1801C107.73 65.5101 98.36 68.61 98.09 68.7C97.37 68.92 96.62 69.1201 95.9 69.3201C95.32 69.4801 94.71 69.6401 94.11 69.8201C93.87 69.8901 93.73 70.1501 93.8 70.3901C93.87 70.6401 94.13 70.7801 94.38 70.7101C94.97 70.5401 95.57 70.3801 96.15 70.2201C96.88 70.0201 97.64 69.81 98.37 69.59H98.38C98.77 69.46 108.07 66.3901 110.78 65.0101C112.04 64.3701 113.19 63.4701 114.11 62.4001L114.13 62.3701C114.57 61.8601 114.84 61.4401 114.71 61.0401C114.682 60.9638 114.642 60.8928 114.59 60.8301C114.498 60.7279 114.375 60.6579 114.24 60.6301C113.81 60.5301 113.34 60.6101 112.93 60.6801C112.84 60.7001 112.76 60.7101 112.67 60.7201C111.81 60.8501 110.98 61.0001 110.06 61.1801C108.95 61.4001 107.83 61.6301 106.74 61.8501L102.48 62.7101C100.98 63.0101 99.73 63.2501 98.54 63.4601C97.11 63.7201 95.84 63.9301 94.68 64.1101C93.34 64.3101 92.22 64.45 91.17 64.56C90 64.67 89.1 64.7201 88.27 64.7101C86.34 64.6901 84.64 64.63 83.09 64.52C81.72 64.43 80.47 64.2901 79.26 64.1001C77.96 63.9001 76.68 63.6301 75.48 63.3701C73.67 62.9801 71.89 62.5701 70.17 62.1701L69.3 61.9601C68.04 61.6601 66.75 61.3501 65.45 61.1201L65.33 61.1001C64.4 60.9301 63.35 60.7401 62.37 60.9501C61.05 61.2401 60.14 62.71 60.42 64.09V64.09Z" fill="black"/>
<defs>
<linearGradient id="paint0_linear_1230_3220" x1="107.5" y1="31.5" x2="156" y2="162" gradientUnits="userSpaceOnUse">
<stop offset="0.307292" stop-color="#0AC4B4"/>
<stop offset="1" stop-color="#079592"/>
</linearGradient>
</defs>
</svg>
