<svg width="154" height="133" viewBox="0 0 154 133" fill="none" xmlns="http://www.w3.org/2000/svg">
<path d="M99.8 121.44C99.07 120.74 98.57 120.26 98.02 119.74C97.38 120.72 96.85 121.58 96.28 122.41C95.9 122.98 95.55 123.41 94.64 123.23C93.85 123.08 92.96 123.45 92.12 123.6C92.03 123.62 91.92 123.71 91.85 123.69C91.25 123.46 90.68 123.77 90.13 123.76C89.3 123.74 88.47 123.41 87.66 123.15C86.4448 122.758 85.241 122.331 84.05 121.87C82.06 121.11 80.08 120.29 78.09 119.53C77.22 119.2 76.31 118.97 75.43 118.68C74.72 118.44 74.02 118.19 73.33 117.9C71.2347 117.044 69.148 116.167 67.07 115.27C66.14 114.86 65.28 114.28 64.35 113.88C62.14 112.96 59.87 112.18 57.7 111.19C56.3 110.55 55.02 109.64 53.68 108.87C52.78 108.35 51.84 107.88 50.95 107.35C49.57 106.53 48.17 105.76 46.87 104.83C43.99 102.78 41.08 100.75 38.36 98.5002C35.69 96.2802 33.29 93.7302 30.66 91.4502C28.83 89.8602 27.45 87.9802 26.22 85.9402C25.76 85.1802 25.08 84.5602 24.56 83.8302C24.33 83.5002 24.24 83.0702 24.09 82.6802C23.77 82.4002 23.28 82.1402 23.01 81.7302C21.94 80.0802 20.94 78.3902 19.91 76.7102C19.64 76.2702 19.26 75.8702 19.07 75.3902C18.79 74.7002 18.26 74.1202 18.58 73.1802C18.77 72.6102 18.29 71.8202 18.11 71.1202L17.85 71.2902C17.56 70.9202 17.14 70.6002 17.01 70.1802C16.31 68.0802 15.81 65.9402 15.71 63.7002C15.65 62.3602 15.15 61.0502 14.99 59.7202C14.87 58.7502 15.02 57.7502 14.97 56.7702C14.93 55.8602 14.64 54.9502 14.71 54.0602C14.88 51.7802 15.19 49.5102 15.45 47.2402C15.49 46.8902 15.59 46.5502 15.59 46.2102C15.61 43.9202 16.89 42.2002 18.22 40.5302C19.8 38.5402 21.61 36.8002 23.63 35.2102C25.36 33.8602 27.16 32.7402 29.08 31.7202C30.24 31.1002 31.45 30.7102 32.64 30.2202C32.86 30.1302 33.15 30.2102 33.32 30.0902C33.97 29.7802 34.59 29.3902 35.27 29.1802C36.46 28.8202 37.66 28.5102 38.88 28.2802C39.82 28.1002 40.79 28.0702 41.74 27.9902C43.44 27.8502 45.14 27.7102 46.84 27.5802C46.93 27.5702 47.04 27.5902 47.12 27.6302C48.21 28.1702 49.2 28.2402 50.07 27.1902C50.57 26.5902 51.22 26.7002 51.9 26.9402C52.52 27.1602 53.1 27.3102 53.86 27.0402C54.33 26.8702 55.08 27.4802 55.71 27.7502C55.82 27.8002 55.92 27.9902 55.99 27.9802C58.42 27.4902 60.12 29.1802 62.11 30.0102C63.46 30.5802 64.55 31.7102 66.13 31.8102C66.45 31.8302 66.78 32.1302 67.05 32.3602C68.2 33.3502 69.37 34.3302 70.47 35.3802C71.12 36.0002 71.65 36.7302 72.34 37.5402C72.6 37.1902 72.85 36.9502 73 36.6602C73.68 35.3202 74.22 33.9002 75.03 32.6502C75.91 31.2902 77.06 30.0902 78.04 28.7902C78.31 28.4302 78.34 27.8502 78.65 27.5402C79.62 26.5602 80.68 25.6602 81.7 24.7302C81.99 24.4702 82.34 24.2702 82.56 23.9602C83.97 21.9902 85.87 20.7002 88.1 19.8302C88.84 19.5402 89.48 19.0002 90.21 18.7002C91.16 18.3202 92.16 17.8602 93.15 17.8102C94.45 17.7502 95.34 17.1002 96.35 16.4602C96.83 16.1502 97.55 16.2502 98.14 16.0902C99.53 15.6902 100.9 15.2002 102.29 14.8202C104.42 14.2402 106.54 13.6902 108.81 13.8702C112.05 14.1202 115.22 14.6302 118.26 15.8502C119.72 16.4402 121.36 16.7102 122.67 17.5302C124.43 18.6302 126.48 19.3402 127.84 21.0702C128.2 21.5202 129 21.6202 129.37 22.0702C131.09 24.1102 132.91 26.1002 134.35 28.3402C135.77 30.5502 137.02 32.9202 137.6 35.5402C137.76 36.2502 137.83 36.9702 138 37.6702C138.2 38.4902 138.55 39.2802 138.71 40.1002C138.92 41.2202 139.03 42.3602 139.16 43.5002C139.22 44.0602 139.19 44.6302 139.25 45.1902C139.35 46.1602 139.54 47.1202 139.59 48.0902C139.61 48.5602 139.36 49.0302 139.32 49.5102C139.22 50.5502 139.19 51.6002 139.11 52.6402C139.09 52.9502 139 53.2502 139.06 53.5502V55.0702C139.06 55.2302 139.04 55.4802 139.12 55.5402C140.18 56.3002 139.54 57.3702 139.56 58.2702C139.6 59.5802 139.4 60.8902 139.28 62.2002C139.12 63.9802 139.04 65.7802 138.73 67.5302C138.43 69.2402 137.9 70.9002 137.47 72.5902C137.12 73.9402 136.78 75.2802 136.42 76.6202C135.94 78.3902 136.03 78.3202 137.64 79.4402C136.73 81.0102 135.82 82.6002 134.88 84.1602C134.25 85.2102 133.55 86.1802 132.46 86.8502C132.09 87.0802 131.99 87.7002 131.67 88.0502C129.76 90.2002 127.81 92.3202 125.89 94.4702C124.84 95.6502 123.84 96.8802 122.78 98.0502C121.69 99.2502 120.55 100.41 119.44 101.59C118.48 102.61 117.54 103.65 116.59 104.69C116.5 104.79 116.34 104.89 116.35 104.99C116.38 106.71 114.98 107.53 114.03 108.58C113.02 109.7 111.79 110.64 110.7 111.69C109.71 112.65 108.8 113.7 107.79 114.65C106.87 115.51 105.81 116.22 104.93 117.11C104.19 117.86 103.64 118.78 102.99 119.62C102.13 120.76 100.97 121.4 99.8 121.44V121.44ZM76.98 76.1302C75.34 77.1002 75.18 79.0302 73.86 79.5402C73.38 80.2302 73.1 80.7402 72.72 81.1502C72.28 81.6302 71.75 82.0202 71.2 82.5102C71.89 82.9802 72.33 83.3602 72.83 83.5702C73.14 83.7002 73.67 83.7002 73.91 83.5102C75.6 82.2102 76.68 80.4902 77.06 78.3902C77.19 77.6702 77.01 76.8802 76.98 76.1302V76.1302ZM38.27 86.0602C38.14 85.7602 38.09 85.1702 37.78 84.9602C35.94 83.7202 34.03 82.5702 32.08 81.3502C32.62 82.1902 33.1 83.0802 33.73 83.8602C34.54 84.8502 35.47 85.7302 36.22 86.5202C37.01 86.3502 37.56 86.2202 38.27 86.0602V86.0602ZM43.6 49.2102C43.52 49.1602 43.44 49.1102 43.35 49.0602C42.52 50.1402 41.73 51.2602 40.85 52.3002C40.33 52.9202 39.92 53.4802 40.26 54.3302C40.32 54.4802 40.2 54.7102 40.16 54.9002C40.01 55.5902 39.87 56.2702 39.7 57.0502C41.04 54.3702 42.32 51.7902 43.6 49.2102V49.2102ZM91.95 114.94C90.78 114.48 89.66 114.05 88.54 113.62C88.49 113.72 88.44 113.81 88.38 113.91C88.64 114.12 88.9 114.33 89.15 114.55C89.36 114.74 89.74 114.96 89.72 115.15C89.65 116.22 90.39 116.3 91.16 116.44C91.42 115.95 91.68 115.46 91.95 114.94V114.94ZM100.87 92.7502C100.75 92.7102 100.64 92.6602 100.52 92.6202C99.26 93.8302 98.08 95.0902 98.19 97.1502C98.94 96.0802 99.65 95.1002 100.31 94.0802C100.57 93.6802 100.69 93.2002 100.87 92.7502V92.7502ZM47 43.6002C48.17 42.9502 48.39 42.3802 47.76 41.6102C47.48 41.8202 47.2 42.0402 47 42.1902V43.6002V43.6002Z" fill="url(#paint0_linear_1230_3246)"/>
<path d="M74.02 37.6401C71.52 41.7001 69.02 45.7601 66.53 49.8301C66.54 49.5201 66.55 49.2101 66.57 48.9001" fill="#FF5B5D"/>
<path d="M74.02 37.6401C71.52 41.7001 69.02 45.7601 66.53 49.8301C66.54 49.5201 66.55 49.2101 66.57 48.9001" stroke="#FF5B5D" stroke-width="1.5" stroke-miterlimit="10"/>
<path d="M72.9 37.8398C77.48 41.2998 82.07 44.7598 86.65 48.2198M87.18 48.5898C85.29 51.6398 83.41 54.6898 81.52 57.7398C80.52 59.3498 79.52 60.9798 78.25 62.3898M78.41 62.6798C81.62 63.5998 84.3 65.8098 87.37 67.1198C87.47 67.0698 87.47 66.8998 87.37 66.8598M87.9 67.4998C84.3 72.2698 80.47 76.8698 76.43 81.2698" stroke="black" stroke-width="1.5" stroke-miterlimit="10" stroke-linecap="round" stroke-linejoin="round"/>
<path d="M76.25 81.0801C78.19 82.1901 80.13 83.2901 82.08 84.4001C82.65 84.7201 83.22 85.0501 83.75 85.4301C85.61 86.7601 86.94 88.7401 88.84 90.0301M89.06 90.4801C86.475 94.0927 83.5409 97.4421 80.3 100.48M80.4 100.58C80.53 101.09 81.1 101.32 81.6 101.48C85.89 102.87 90.04 104.71 93.95 106.96M93.95 107.29C93.52 110.47 90.87 112.87 89.75 115.88M89.81 116.15C92.15 117.74 94.43 119.42 96.64 121.2" stroke="black" stroke-width="1.5" stroke-miterlimit="10" stroke-linecap="round" stroke-linejoin="round"/>
<defs>
<linearGradient id="paint0_linear_1230_3246" x1="44.5" y1="1.5" x2="116.5" y2="136" gradientUnits="userSpaceOnUse">
<stop offset="0.291667" stop-color="#FE7332"/>
<stop offset="1" stop-color="#F8570E"/>
</linearGradient>
</defs>
</svg>
