<svg width="191" height="254" viewBox="0 0 191 254" fill="none" xmlns="http://www.w3.org/2000/svg">
<path d="M164.286 231.763L167.429 228L169 230.258L170.286 231.763L172 233.871L173 237.5L172.5 239.5L170.286 242H167.429L163.571 240.344L162 241.097L161 239.441L162 237.484L162.857 235.828V233.871L164.286 231.763Z" fill="url(#paint0_linear_1230_3252)"/>
<path d="M24.04 142.5C22.6 142.69 21.5 142.38 20.78 141.19C20.73 141.1 20.64 140.98 20.56 140.98C17.45 140.78 18.54 137.96 17.96 136.4C16.94 133.67 17.33 130.56 16.04 127.77C15.17 125.88 14.57 123.79 14.27 121.73C13.64 117.43 13.16 113.09 12.87 108.75C12.71 106.38 13.2 103.97 13.17 101.58C13.15 100.36 12.35 99.14 12.4 97.94C12.52 95.2 12.96 92.48 13.27 89.74C15.08 88.92 14.2 86.78 15.39 85.49C16.41 84.38 16.63 82.57 17.37 81.16C17.91 80.13 18.74 79.26 19.4 78.28C19.53 78.09 19.48 77.76 19.44 77.5C19.24 76.13 19.75 75.19 20.96 74.49C21.75 74.04 22.35 73.28 23.13 72.8C23.92 72.31 24.75 71.57 25.76 72.53C25.88 72.64 26.34 72.45 26.62 72.34C27.64 71.93 28.52 72.02 29.54 72.59C30.29 73.01 31.4 73.19 31.89 71.86C32.01 71.52 32.54 71.32 32.9 71.08C33.02 71 33.25 71.02 33.32 70.92C35.42 67.84 37.28 71.11 39.26 71.16C39.78 71.17 40.28 71.39 40.8 71.47C41 71.5 41.25 71.36 41.41 71.43C43.31 72.29 45.28 71.44 47.2 71.69C47.52 71.73 47.9 71.41 48.21 71.46C49.78 71.71 51.35 72.03 52.91 72.35C52.93 72.35 52.87 72.7 52.83 73.09C55.04 72.65 57.11 72.23 59.17 71.82C62.04 71.26 64.92 70.77 67.78 70.14C68.72 69.93 69.55 69.3 70.49 69.03C73.39 68.18 76.35 67.67 79.39 67.77C79.7 67.78 80.05 67.75 80.3 67.6C83.15 65.88 86.41 66.63 89.44 66.01C91.08 65.67 92.68 65.13 94.33 64.8C96.59 64.35 98.9 63.61 101.15 63.72C103.55 63.83 105.58 62.64 107.86 62.55C110.37 62.45 112.87 62.21 115.36 61.99C117.21 61.82 119.06 61.56 120.91 61.37C121.39 61.32 121.87 61.41 122.35 61.39C123.67 61.32 124.98 61.19 126.3 61.13C129.62 60.98 132.95 60.87 136.27 60.69C137.37 60.63 138.47 60.41 139.56 60.28C141.7 60.02 143.85 59.73 146 59.54C147.1 59.44 148.21 59.52 149.07 59.52C149.66 60.89 150.16 62.07 150.66 63.23C149.2 63.74 150.82 64.03 150.9 64.44C151.31 66.39 149.06 68.05 150.62 70.43C149.38 70.43 148.32 70.56 147.31 70.4C145.78 70.16 145.45 70.43 145.86 71.96C143.6 73.08 141.3 73.82 138.68 74C136.29 74.16 133.97 75.23 131.6 75.8C129.96 76.19 128.28 76.37 126.63 76.73C125.75 76.92 124.92 77.35 124.05 77.58C120.81 78.45 117.55 79.23 114.33 80.15C111.82 80.86 109.36 81.72 106.88 82.51C106.4 82.66 105.92 82.81 105.44 82.97C104.24 83.37 103.06 83.8 101.85 84.15C101.33 84.3 100.76 84.27 100.21 84.31C99.77 84.35 99.3 84.31 98.88 84.44C96.57 85.16 94.27 85.91 91.97 86.67C89.55 87.47 87.14 88.32 84.73 89.12C83.12 89.65 81.49 90.12 79.89 90.66C77.37 91.52 74.86 92.45 72.33 93.29C71.43 93.59 70.41 93.59 69.56 93.98C67.71 94.82 67.96 96.81 67.61 98.34C66.81 101.82 66.5 105.36 66.89 108.97C67.09 110.84 66.77 112.77 66.7 114.68C66.66 115.98 66.75 117.29 66.61 118.58C66.47 119.86 66.06 121.12 65.88 122.4C65.73 123.53 65.75 124.69 65.66 125.84C65.65 126.02 65.48 126.19 65.33 126.46C64.69 126.27 64.07 126.09 63.45 125.9C63.37 125.96 63.22 126 63.21 126.07C62.89 129.17 60.21 130.16 58.14 131.63C57.1 132.37 55.78 132.72 54.6 133.28C53.38 133.86 52.16 134.44 50.99 135.11C49.82 135.78 50.59 136.84 50.77 137.61C51.25 139.69 51.92 141.72 52.57 143.75C52.92 144.82 53.45 145.82 53.8 146.89C54.77 149.79 55.68 152.71 56.64 155.61C56.89 156.38 57.34 157.09 57.55 157.86C58.13 159.98 58.64 162.11 59.17 164.25C59.24 164.53 59.28 164.83 59.32 165.12C59.4 165.71 61.37 165.78 59.8 166.84C59.19 167.25 58.57 167.68 58 168.15C57.46 168.59 56.97 169.11 56.45 169.58C56.23 169.78 55.97 169.95 55.7 170.09C53.33 171.37 51.1 170.79 49.42 168.59C49.25 168.37 48.37 168.36 48.13 168.58C47.48 169.17 46.88 169.71 46.23 168.78C45.24 167.38 44.38 165.88 43.45 164.43C42.56 163.05 41.6 161.71 40.78 160.29C39.83 158.64 38.64 157 38.22 155.2C37.51 152.21 35.75 149.84 34.37 147.24C34.31 147.12 34.31 146.96 34.28 146.82C33.87 144.7 32.54 144.14 30.6 145.13C29.94 145.46 29.07 145.39 28.3 145.48C27.93 145.52 27.5 145.38 27.18 145.52C25.4 146.3 24.7 145.92 24.36 143.94C24.31 143.49 24.17 143.05 24.04 142.5V142.5Z" fill="url(#paint1_linear_1230_3252)"/>
<path d="M19.83 113.31C24.17 123.1 28.52 132.88 32.86 142.67C32.95 142.87 33.02 143.14 32.85 143.28C32.68 143.42 32.47 142.99 32.68 143.02M33.49 99.3398C38.35 111.29 43.22 123.24 48.08 135.2" stroke="#1D1D1B" stroke-miterlimit="10" stroke-linejoin="round"/>
<path d="M30.3 71.4701C31.63 68.3701 32.99 65.0501 32.47 61.7401C32.07 59.1601 31.5 49.9301 31.45 49.1201L55.52 40.0801C55.52 40.0801 60.17 64.9401 55.1 67.4801C50.03 70.0201 47.12 68.6101 46.33 70.3301C45.55 72.0501 44.53 76.3201 44.53 76.3201L43.68 79.6001L29.3 73.9201L30.3 71.4701V71.4701Z" fill="#F5C09E"/>
<path d="M31.77 75.1299C34.11 75.9999 36.33 77.2999 38.81 77.6499C41.52 78.0399 44.38 77.1899 46.45 75.3899M149.93 62.9899C152.77 61.4999 155.75 60.2799 158.83 59.3499C159.83 59.0499 160.95 58.7799 161.9 59.2399M162 59.5899L174.65 57.3999M174.96 57.6499C175.18 57.5699 175.41 57.8199 175.4 58.0499C175.39 58.2899 175.23 58.4799 175.07 58.6599C171.62 62.3699 165.56 62.1799 161.56 65.2699M161.24 65.6199C160.85 65.9599 160.98 66.6199 161.31 67.0099C161.7 67.4699 162.28 67.7299 162.87 67.8199C163.46 67.9099 164.07 67.8599 164.66 67.7699C165.56 67.6399 166.46 67.4599 167.37 67.4299C168.28 67.3999 169.22 67.5399 170 68.0199M169.83 68.3599C170.37 68.5699 171.01 68.9599 170.91 69.5199C170.85 69.8799 170.49 70.1199 170.14 70.1799C169.78 70.2399 169.42 70.1599 169.07 70.0999C167.973 69.9244 166.851 69.9857 165.78 70.2799C164.4 70.6699 163.09 71.4499 161.65 71.4499C160.87 71.4499 160.11 71.2199 159.36 71.0199C155.92 70.1099 152.32 69.8099 148.77 70.1599M166.57 63.4799C167.22 63.6899 167.97 64.0399 168.04 64.7199C168.06 64.9299 168 65.1399 167.95 65.3399C167.81 65.8399 167.68 66.3399 167.54 66.8399" stroke="#1D1D1B" stroke-miterlimit="10" stroke-linejoin="round"/>
<path d="M163.41 64.6001C163.92 64.6801 164.38 65.0401 164.57 65.5201C164.76 66.0001 164.68 66.5801 164.36 66.9901M161.7 65.6101C162.21 65.9601 162.54 66.5701 162.53 67.2001M163.53 71.3501C163.27 71.5501 163.45 72.0101 163.76 72.1001C164.07 72.1901 164.4 72.0401 164.66 71.8601C165.12 71.5501 165.51 71.1401 165.8 70.6701M160.11 71.6501C159.96 71.9301 159.81 72.2001 159.66 72.4801C159.62 72.5501 159.58 72.6301 159.58 72.7101C159.59 72.9301 159.88 73.0001 160.1 72.9701C160.78 72.8701 161.36 72.3201 161.49 71.6501M49.44 172.8C48.79 173.42 48.14 174.05 47.7 174.83C47.5 175.19 47.34 175.59 47.11 175.94C46.42 176.98 45.15 177.45 44.06 178.06C43.17 178.56 42.35 179.2 41.65 179.94M41.6 180.16C41.5 180.36 41.67 180.59 41.82 180.75C42.12 181.07 42.46 181.4 42.89 181.49C43.19 181.55 43.49 181.49 43.79 181.41C44.38 181.27 44.99 181.07 45.41 180.63M45.43 180.5C46.17 180.06 46.91 179.61 47.65 179.17C47.95 178.99 48.25 178.81 48.59 178.72C48.93 178.63 49.3 178.63 49.6 178.81M49.68 178.97C50.89 179.98 51.9 181.21 52.9 182.44C53.99 183.76 55.07 185.09 56.16 186.41C56.63 186.98 57.11 187.56 57.71 187.99C58.17 188.31 58.68 188.54 59.2 188.73C60.38 189.18 61.62 189.49 62.88 189.66M57.55 183.03C58.41 183.88 59.27 184.72 60.13 185.57C60.47 185.91 60.81 186.24 61.19 186.54C61.73 186.96 62.36 187.3 62.8 187.83C63.19 188.31 63.41 188.93 63.4 189.55M60.06 182.06C60.56 182.75 61.1 183.43 61.8 183.91C62.18 184.17 62.59 184.36 62.99 184.59C64.04 185.19 64.96 186.03 65.65 187.02C65.92 187.41 66.14 188.01 65.77 188.31C65.57 188.47 65.29 188.47 65.03 188.45C64.64 188.42 64.24 188.4 63.85 188.37M62.4 180.72C63.56 181.37 64.32 182.54 65.36 183.37C66.23 184.07 67.36 184.61 67.71 185.66C67.79 185.91 67.81 186.2 67.64 186.4C67.55 186.5 67.43 186.55 67.3 186.6C66.79 186.78 66.23 186.82 65.7 186.72M59.24 171.44C60.61 172.09 61.71 173.26 62.39 174.61C62.78 175.38 63.05 176.2 63.47 176.95C64.76 179.23 67.45 180.66 68.13 183.19C68.23 183.57 68.19 184.1 67.81 184.19M58.71 168.3C58.68 169.33 58.88 170.37 59.29 171.33M49.18 170.31C49.35 170.94 49.47 171.57 49.55 172.22M51.32 177.44C52.1947 176.821 53.2213 176.451 54.29 176.37M20.09 144.6C21.76 150.09 21.37 156.19 24.02 161.28C26.44 165.92 31 168.98 35.38 171.84M35.54 171.69C38.36 173.47 41.18 175.25 43.99 177.03M60.66 134.25C79.8124 144.811 99.0531 155.212 118.38 165.45" stroke="#1D1D1B" stroke-miterlimit="10" stroke-linejoin="round"/>
<path d="M117.74 164.87C119.72 165.9 120.81 168.17 121.01 170.4C121.21 172.62 120.67 174.84 120.11 177C117.321 187.826 114.135 198.547 110.56 209.14C110.73 208.68 110.89 208.22 111.06 207.76M43.19 183.24C39.1068 193.924 34.261 204.301 28.69 214.29C28.46 214.7 28.23 215.14 28.31 215.6C28.36 215.9 28.55 216.17 28.74 216.41C31.42 219.82 35.87 221.75 40.19 221.4M40.47 221.03C46.1963 209.684 53.6634 199.306 62.6 190.27M56.6 153.91C61.79 157.61 66.23 162.37 69.56 167.8C70.42 169.2 71.22 170.67 71.6 172.27C72.44 175.8 70.98 179.76 68.06 181.91M68.78 164.17C78.78 167.26 88.77 170.36 98.77 173.45M58.27 44.6798C56.09 43.9398 53.66 43.8098 51.52 44.6598C50.59 45.0298 49.73 45.5598 48.79 45.8798C46.77 46.5798 44.56 46.2998 42.42 46.1798C40.28 46.0598 37.98 46.1598 36.26 47.4398C36.26 47.4398 33.59 54.1798 33.25 56.3898C32.37 56.3998 31.68 56.4098 31.49 56.1998C31.33 56.0398 31.3 55.7898 31.27 55.5598C31.13 54.2598 31.04 49.9498 31.02 48.6498V47.6698C31.56 44.6798 33.19 43.4898 36.03 42.3898C36.53 42.1998 37.05 42.0398 37.46 41.6998C38.58 40.7698 38.31 39.0298 38.71 37.6298C39.45 35.0698 42.35 33.9298 44.89 33.1298C46.46 32.6398 48.03 32.1398 49.6 31.6498L50.32 30.8298C51.62 29.5798 51.59 28.3998 53.25 27.6998C54.72 27.0798 56.5 27.7798 57.53 28.9998C58.56 30.2198 58.96 31.8498 59.12 33.4398C59.28 35.0298 59.24 36.6398 59.52 38.2098C59.64 38.8998 59.83 39.5698 59.9 40.2698C60.05 41.7198 59.7 43.1598 59.35 44.5798C59.34 44.5998 59.18 44.9898 58.27 44.6798V44.6798Z" stroke="#1D1D1B" stroke-miterlimit="10" stroke-linejoin="round"/>
<path d="M98.79 173.26C100.19 173.97 101.01 175.52 101.25 177.08C101.49 178.63 101.23 180.22 100.96 181.76C99.3413 191.012 97.3396 200.193 94.96 209.28C95.08 208.95 95.2 208.63 95.33 208.3" stroke="#1D1D1B" stroke-miterlimit="10" stroke-linejoin="round"/>
<path d="M94.77 209.16C96.6 210.79 98.47 212.45 100.73 213.4C102.99 214.35 105.74 214.49 107.78 213.13C109.23 212.17 110.14 210.61 111 209.1M28.63 217.64C28.3114 218.678 27.8717 219.675 27.32 220.61C27.28 220.67 27.23 220.74 27.16 220.73C27.09 220.73 27.08 220.59 27.15 220.6M38.75 221.35C37.91 222.83 37.08 224.31 36.24 225.8M26.7 221.1C26.55 222.68 27.23 224.29 28.39 225.37C29.55 226.45 31.15 227.02 32.73 227.02C33.79 227.02 34.93 226.75 35.62 225.95" stroke="#1D1D1B" stroke-miterlimit="10" stroke-linejoin="round"/>
<path d="M26.38 220.86C24.2017 223.107 22.174 225.496 20.31 228.01C20.01 228.41 19.71 228.83 19.61 229.31C19.49 229.85 19.62 230.41 19.8 230.93C20.98 234.28 24.21 236.38 27.24 238.24C30.22 240.06 33.2 241.89 36.18 243.71C37.63 244.6 39.13 245.5 40.82 245.73C41.68 245.85 42.56 245.78 43.42 245.71C45.9 245.51 48.39 245.32 50.87 245.12" stroke="#1D1D1B" stroke-miterlimit="10" stroke-linejoin="round"/>
<path d="M36.83 226.19C38.79 229.24 40.89 232.2 43.14 235.05C43.97 236.1 44.82 237.15 45.85 238.01C47.58 239.48 49.77 240.4 52.03 240.6C52.6 240.65 53.26 240.7 53.6 241.17C53.93 241.62 53.79 242.26 53.54 242.75C53.2445 243.341 52.8256 243.863 52.3115 244.278C51.7974 244.694 51.2002 244.995 50.56 245.16M97.33 210.98C96.61 212.04 96.08 213.24 95.77 214.48M110.02 211.38C109.79 213.24 109.57 215.1 109.34 216.96C109.284 216.885 109.244 216.799 109.222 216.708C109.2 216.617 109.196 216.523 109.21 216.43" stroke="#1D1D1B" stroke-miterlimit="10" stroke-linejoin="round"/>
<path d="M95.65 214.67C95.9 215.55 96.66 216.17 97.38 216.73C98.37 217.5 99.41 218.29 100.63 218.59C101.25 218.74 101.9 218.76 102.54 218.73C104.74 218.65 106.92 218.11 108.9 217.17C109.16 217.05 109.46 216.86 109.47 216.57M95.63 214.81C94.94 216.59 94.56 218.46 94.29 220.35C94.19 221.06 94.11 221.76 94.04 222.47C94.01 222.83 93.98 223.2 94.06 223.55C94.06 223.56 94.07 223.58 94.07 223.59M94.03 223.91C95.89 225.95 98.89 226.41 101.22 227.88C103.45 229.28 104.98 231.54 106.55 233.66C107.14 234.47 107.77 235.28 108.59 235.85C109.73 236.64 111.16 236.88 112.54 236.93C115.32 237.02 118.11 236.37 120.56 235.05C121.27 234.67 121.99 234.18 122.27 233.42C122.46 232.89 122.4 232.29 122.26 231.75C121.56 229.08 119.13 227.31 117.02 225.53C114.309 223.239 111.906 220.607 109.87 217.7M162.18 237.18C162.73 235.72 164.51 235.21 166.06 235.04C167.61 234.87 169.35 234.76 170.39 233.6M163.39 233.46C164.55 231.4 167.09 230.3 167.95 228.09C168.45 228.7 168.23 229.67 168.69 230.32C169.01 230.78 169.6 230.97 170.08 231.26C170.56 231.55 171 232.13 170.76 232.64" stroke="#1D1D1B" stroke-miterlimit="10" stroke-linejoin="round"/>
<path d="M161.51 240.17C161.26 239.32 162.05 238.47 162.91 238.25C163.77 238.03 164.67 238.24 165.55 238.32C166.95 238.45 168.38 238.26 169.69 237.76C170.65 237.39 171.6 236.82 172.07 235.9C172.54 234.98 172.34 233.68 171.45 233.18M161.41 241.27C161.91 240.73 162.72 240.59 163.45 240.7C164.18 240.81 164.85 241.12 165.54 241.38C167.21 242 169.13 242.24 170.73 241.47C172.33 240.7 173.39 238.66 172.62 237.05M158.17 205.34C157.41 206.94 156.81 208.81 157.47 210.46C157.8 211.29 158.41 211.96 158.88 212.71C159.32 213.42 159.64 214.2 159.96 214.98C160.5 216.31 161.01 217.92 160.16 219.08M170.04 206.8C169.09 207.79 168.84 209.37 169.43 210.61C169.85 211.5 170.64 212.16 171.09 213.04C171.54 213.91 171.47 215.23 170.56 215.61M178.68 216.04C177.67 217.67 178.73 219.92 177.94 221.67M163.45 233.51C162.98 233.91 162.87 234.67 163.21 235.19" stroke="#1D1D1B" stroke-miterlimit="10" stroke-linejoin="round"/>
<path d="M162.25 237.32C162.04 237.54 161.81 237.79 161.8 238.1C161.79 238.41 162.15 238.71 162.4 238.54M21.12 227.84C21.49 228.68 22.11 229.38 22.72 230.06C25.98 233.68 29.57 237.06 33.74 239.58C37.91 242.1 42.71 243.73 47.58 243.67C48.88 243.65 50.21 243.51 51.39 242.98C51.96 242.72 52.64 242.38 53.17 242.72M94.3 221C97.26 222.9 101.28 222.61 104.11 224.7C106.01 226.1 107.07 228.34 108.62 230.12C110.29 232.03 112.63 233.42 115.16 233.67C117.69 233.91 120.37 232.9 121.89 230.86" stroke="#1D1D1B" stroke-miterlimit="10" stroke-linejoin="round"/>
<path d="M95.75 216.98C95.55 217.95 95.5 218.95 95.63 219.93C95.53 219.56 95.44 219.19 95.34 218.81C95.2 219.6 95.42 220.45 95.94 221.07C95.7 220.7 95.46 220.33 95.22 219.95C95.49 220.41 95.75 220.86 96.02 221.32C95.7 220.87 95.38 220.42 95.07 219.98C95.3 220.37 95.63 220.7 96.03 220.92C96.11 220.36 95.94 219.77 95.58 219.33C95.51 219.83 95.86 220.36 96.35 220.48C96.39 219.46 95.99 218.42 95.27 217.7C95.71 218.47 96.15 219.25 96.59 220.02C96.12 218.77 95.65 217.51 95.18 216.26C95.52 216.63 95.82 217.05 96.05 217.5L95.63 216.11C95.89 216.64 96.21 217.14 96.58 217.59C96.46 217.03 96.28 216.48 96.04 215.96C96.68 217.16 97.62 218.19 98.75 218.94C98.01 218.47 97.28 218 96.54 217.53C98.11 218.52 99.76 219.41 101.45 220.18C99.87 219.61 98.28 219.03 96.7 218.46C97.96 219.4 99.3 220.23 100.69 220.95C99.37 220.2 98.04 219.44 96.72 218.69C97.94 220.06 99.45 221.17 101.13 221.91C99.47 220.85 97.73 219.89 95.95 219.05C97.48 220.13 99.18 220.99 100.96 221.58C99.56 221.14 98.17 220.71 96.77 220.27C97.88 221.13 99.18 221.74 100.55 222.07C99.12 221.44 97.64 220.9 96.14 220.47C97.06 221.3 98.27 221.81 99.51 221.88C98.44 221.51 97.37 221.13 96.3 220.76C96.77 221.08 97.29 221.32 97.83 221.48C96.68 221.02 95.52 220.56 94.37 220.11C95.23 220.81 96.35 221.06 97.42 221.34C101.19 222.34 104.8 223.93 108.07 226.06M99.96 220.44C102.39 222.28 104.91 224 107.5 225.59" stroke="#1D1D1B" stroke-miterlimit="10" stroke-linejoin="round"/>
<path d="M99.58 220.64C102.05 221.91 104.52 223.16 107.01 224.38L106.53 224.14" stroke="#1D1D1B" stroke-miterlimit="10" stroke-linejoin="round"/>
<path d="M100.35 220.25C102.56 221.29 104.76 222.37 106.93 223.49C104.991 222.261 102.95 221.2 100.83 220.32C102.46 220.65 104.07 221.12 105.63 221.71C104.19 221.13 102.75 220.55 101.31 219.98C102.36 220.33 103.42 220.64 104.49 220.9C102.983 220.413 101.524 219.79 100.13 219.04C101.78 219.25 103.4 219.67 104.94 220.29C103.78 219.8 102.56 219.41 101.33 219.14C103.05 219.23 104.77 219.33 106.49 219.42C105.69 219.23 104.88 219.05 104.08 218.86H107.07L105.14 218.92C106.18 219.46 107.22 219.99 108.26 220.53C106.87 220.43 105.48 220.34 104.08 220.24C106.44 221.61 108.81 222.98 111.17 224.35L104.6 221.98C106.62 223.54 108.69 225.02 110.8 226.44C109.08 225.68 107.41 224.79 105.82 223.78C107.6 225.21 109.29 226.75 110.88 228.39C108.81 227.05 106.78 225.65 104.8 224.19C106.41 225.96 108.16 227.61 110.03 229.11C108.65 228.21 107.35 227.19 106.14 226.07C107.6 227.69 109.05 229.32 110.51 230.94C110 230.28 109.42 229.68 108.79 229.13L109.48 230" stroke="#1D1D1B" stroke-miterlimit="10" stroke-linejoin="round"/>
<path d="M108.67 228.25C110.03 229.62 111.49 230.89 113.03 232.05C113.06 231.72 112.85 231.41 112.64 231.16C111.05 229.26 108.79 227.94 107.51 225.82C109.72 228.13 112.12 230.26 114.69 232.18C114.6 231.69 114.22 231.32 113.85 230.98C111.73 229 109.6 227.02 107.48 225.04C109.62 226.81 111.75 228.59 113.89 230.36C111.57 228.01 109.24 225.66 106.92 223.31C109.44 225.42 111.95 227.54 114.47 229.65C112.11 227.33 109.75 225.02 107.39 222.7L113.63 227.98C111.81 226.09 110 224.2 108.18 222.31C109.89 223.8 111.6 225.3 113.31 226.79C112.93 226.47 112.54 226.15 112.16 225.83M106.36 221.19C107.96 222.17 109.59 223.1 111.25 223.98C109.7 222.31 107.53 221.38 105.75 219.97C107.55 221.22 109.41 222.37 111.33 223.44C109.92 222.2 108.51 220.95 107.11 219.71C108.46 220.71 109.82 221.7 111.17 222.7L107.9 219.49C108.79 219.94 109.6 220.54 110.29 221.25L107.66 218.47C108.68 219.24 109.65 220.08 110.55 220.98C109.8 220.03 109.06 219.07 108.31 218.12C108.9 218.71 109.5 219.3 110.09 219.88C109.8 219.31 109.51 218.74 109.22 218.16C109.67 218.64 110.11 219.12 110.56 219.6C110.36 219.08 110.07 218.6 109.71 218.18C109.95 218.78 110.33 219.32 110.81 219.75C110.47 219.22 110.05 218.74 109.57 218.32C110.11 219.07 110.63 219.84 111.13 220.62" stroke="#1D1D1B" stroke-miterlimit="10" stroke-linejoin="round"/>
<path d="M110.29 219.67C112.19 221.82 114.03 224.02 115.79 226.29C113.908 224.192 112.123 222.01 110.44 219.75C110.66 220.4 111.08 220.95 111.5 221.49C112.92 223.3 114.39 225.08 115.9 226.82C113.4 224.71 111.13 222.34 109.13 219.76C111.2 222.51 113.43 225.13 115.8 227.62C113.81 225.73 111.85 223.81 109.91 221.86C111.74 224.18 113.68 226.41 115.71 228.55C113.94 226.9 112.23 225.19 110.56 223.44C112.16 225.57 113.87 227.64 115.66 229.61C114.18 228.06 112.71 226.51 111.23 224.97C112.94 226.52 114.69 228.09 116.77 229.09C116.81 228.55 116.43 228.07 116.08 227.65C115.11 226.5 114.12 225.36 113.13 224.23C113.99 225.18 114.85 226.14 115.72 227.09" stroke="#1D1D1B" stroke-miterlimit="10" stroke-linejoin="round"/>
<path d="M113.67 224.05C115.49 225.37 117.22 226.81 118.85 228.37C117.29 227.03 115.72 225.69 114.16 224.35C115.88 225.64 117.6 226.93 119.32 228.23C118.14 227.43 116.96 226.64 115.78 225.84C117.207 227 118.538 228.275 119.76 229.65C118.43 228.83 117.16 227.9 115.99 226.86C117.07 227.73 118.04 228.74 118.87 229.84C117.77 228.97 116.67 228.1 115.57 227.22C116.54 228.44 117.53 229.64 118.56 230.81L115.8 228.77C116.26 229.55 116.83 230.26 117.5 230.88C116.98 230.62 116.43 230.43 115.87 230.29C116.14 230.64 116.41 230.99 116.69 231.35C116.11 231.11 115.54 230.82 115 230.51C115.32 230.88 115.64 231.25 115.96 231.63L114.31 230.88C114.48 231.16 114.76 231.37 115.07 231.46C114.7 230.89 114.27 230.36 113.79 229.89C114.29 230.5 114.94 230.99 115.67 231.31C115.66 230.91 115.55 230.52 115.34 230.18C115.19 229.94 114.87 229.71 114.66 229.89C114.48 230.04 114.56 230.34 114.7 230.54C114.92 230.86 115.37 231.14 115.67 230.89C115.93 230.67 115.79 230.2 115.49 230.06C115.19 229.91 114.82 230.01 114.53 230.19C114.15 230.43 113.84 230.84 113.86 231.29C113.88 231.74 114.34 232.16 114.77 232.03C114.3 231.4 113.63 230.93 112.89 230.69C112.7 230.63 112.49 230.58 112.3 230.65C112.11 230.72 111.96 230.93 112.04 231.12L110.79 231.18C111.22 231.67 111.74 232.07 112.33 232.35C111.73 231.96 111.07 231.66 110.38 231.45C111.21 231.86 112.04 232.28 112.87 232.69C113.02 232.76 113.29 232.73 113.23 232.58C113.1 232.49 112.97 232.41 112.84 232.32C113.83 232.98 115.1 233.65 116.12 233.05C115.598 232.81 115.022 232.71 114.45 232.76C114.98 232.98 115.52 233.2 116.1 233.26C116.67 233.31 117.29 233.17 117.68 232.75C116.83 232.37 115.89 232.2 114.96 232.26C115.36 232.28 115.76 232.22 116.14 232.08C115.07 231.93 113.98 231.91 112.9 232.04C114.31 232.38 115.89 232.7 117.15 231.97C117.25 231.91 117.36 231.83 117.37 231.71C117.38 231.57 117.24 231.48 117.12 231.42C116.78 231.258 116.411 231.165 116.035 231.148C115.659 231.131 115.283 231.189 114.93 231.32C115.63 231.69 116.36 232 117.11 232.25C117.68 232.44 118.44 232.53 118.75 232.02C118.51 231.18 117.54 230.63 116.69 230.85C117.14 231.35 117.8 231.66 118.47 231.7C118.64 231.71 118.84 231.7 118.96 231.58C119.17 231.38 119.07 230.99 118.83 230.83C118.59 230.66 118.28 230.65 117.99 230.64C118.27 231.18 118.91 231.5 119.5 231.4C119.62 231.38 119.75 231.34 119.84 231.26C120.11 231.03 120.02 230.57 119.76 230.34C119.5 230.11 119.13 230.04 118.79 229.99C119.25 230.45 119.95 230.66 120.59 230.52C120.514 230.407 120.397 230.33 120.264 230.303C120.131 230.277 119.993 230.305 119.88 230.38C119.91 230.54 120.12 230.63 120.26 230.55C120.4 230.47 120.42 230.24 120.3 230.14C119.65 230.44 119.29 231.26 119.5 231.94C119.31 231.98 119.12 232.02 118.94 232.05L120.68 230.7C120.62 231 120.32 231.23 120.02 231.22C120.28 230.95 120.55 230.68 120.81 230.41C120.291 230.038 119.794 229.637 119.32 229.21C119.73 229.16 120.15 229.25 120.51 229.46C119.99 229.19 119.58 228.73 119.37 228.19" stroke="#1D1D1B" stroke-miterlimit="10" stroke-linejoin="round"/>
<path d="M94.47 221.66C95.77 222.62 97.41 222.94 98.95 223.44C101.8 224.36 104.44 225.95 106.57 228.05C107.48 228.95 108.31 229.94 109.3 230.76C111.088 232.238 113.321 233.072 115.64 233.13M99.98 223.61C102.19 224.38 104.28 225.46 106.37 226.53C106.83 226.77 107.28 227 107.74 227.25M21.49 226.86C21.76 227.48 22.04 228.09 22.31 228.71C22.2297 228.104 21.9879 227.531 21.61 227.05C21.68 227.65 22 228.21 22.49 228.57C22.16 227.89 21.94 227.17 21.83 226.43C22.12 226.88 22.41 227.34 22.7 227.79C22.57 227.15 22.45 226.5 22.32 225.86L22.89 226.76C22.7817 226.408 22.7477 226.036 22.79 225.67C23.01 225.88 23.19 226.13 23.32 226.4C23.35 225.91 23.32 225.42 23.24 224.94C23.51 225.1 23.71 225.36 23.78 225.67V224.81L24.23 225.17C24.2 224.82 24.18 224.46 24.15 224.11L24.65 224.52V223.67C24.64 223.79 24.86 223.8 24.91 223.69C24.96 223.58 24.91 223.45 24.85 223.34C25 223.57 25.2 223.76 25.44 223.89C25.27 223.4 25.38 222.83 25.72 222.44C25.86 222.56 26.09 222.53 26.21 222.39C26.38 224.07 27.12 225.66 28.13 227.02C29.14 228.38 30.4 229.53 31.69 230.61C29.58 228.55 27.42 226.43 26.19 223.75C26.25 223.86 26.32 223.97 26.38 224.08C26.18 223.98 25.93 224.18 25.89 224.4C25.85 224.62 25.94 224.84 26.05 225.04C27.02 226.95 28.66 228.42 30.26 229.85C28.2984 228.12 26.5765 226.136 25.14 223.95C25.2781 225.113 25.6538 226.235 26.2439 227.247C26.8339 228.258 27.6257 229.138 28.57 229.83C27.31 228.2 26.04 226.57 24.78 224.94C25.4258 226.85 26.3345 228.661 27.48 230.32C26.35 228.82 25.23 227.32 24.1 225.82C24.87 227.26 25.64 228.7 26.4 230.14C25.3817 228.902 24.4077 227.628 23.48 226.32C24.11 227.88 24.88 229.38 25.78 230.8C24.89 229.55 24 228.31 23.11 227.06C23.68 228.23 24.39 229.34 25.21 230.35C24.5 229.56 23.79 228.76 23.08 227.97C23.78 229.11 24.57 230.2 25.45 231.21C24.54 230.26 23.63 229.32 22.72 228.37C23.6 229.47 24.48 230.56 25.36 231.66L22.56 228.98C24.689 231.596 27.2007 233.875 30.01 235.74" stroke="#1D1D1B" stroke-miterlimit="10" stroke-linejoin="round"/>
<path d="M24.64 229.53C26.29 231.53 28.11 233.39 30.09 235.08C30.99 235.85 31.96 236.6 33.11 236.9C32.12 236.26 31.14 235.61 30.17 234.95C27.95 233.43 25.68 231.72 24.63 229.24C27.28 231.7 30.02 234.05 32.86 236.29C30.14 233.92 27.54 231.4 25.08 228.75C27.84 231.5 30.84 234.02 34.03 236.26C31.34 233.71 28.66 231.16 25.97 228.61C28.58 230.82 31.19 233.03 33.79 235.25L27.25 229.13L34.18 234.62L28.44 229.27C30.81 231.15 33.24 232.96 35.72 234.69C33.37 232.75 31.09 230.73 28.89 228.62C31.53 230.52 34.18 232.42 36.82 234.31M27.99 225.38C29.97 227.64 32.08 229.78 34.32 231.78C31.8768 229.871 29.6018 227.757 27.52 225.46C30.27 228.32 33.31 230.9 36.57 233.16C34.21 231.18 31.81 229.26 29.36 227.4C31.39 228.5 33.41 229.61 35.44 230.71C33.93 229.76 32.33 228.95 30.68 228.28C32.09 228.37 33.46 228.76 34.82 229.15C33.67 228.91 32.55 228.55 31.47 228.08C32.48 228.16 33.49 228.35 34.47 228.64C33.06 228.42 31.66 228.11 30.29 227.71C32.09 227.82 33.88 228.14 35.6 228.68C34.35 228.3 33.09 227.98 31.81 227.72C32.8 227.8 33.79 227.78 34.78 227.66C34.93 227.64 35.13 227.57 35.12 227.42C35.11 227.33 35.03 227.26 34.95 227.22C34.66 227.06 34.32 226.99 33.99 227.02C34.43 227.33 35.1 227.26 35.47 226.87C35.21 226.95 34.97 227.11 34.8 227.33C35.28 227.56 35.92 227.02 35.78 226.51C36.23 226.78 36.68 227.05 37.14 227.32C36.69 227.2 36.26 227.02 35.85 226.79C37.11 228.63 38.38 230.47 39.68 232.29L36.56 228.33C37.27 229.29 38.09 230.18 38.98 230.98C37.87 229.78 36.69 228.65 35.45 227.6C36.15 228.85 37.03 230 38.07 230.98C37.12 229.87 36.01 228.91 34.79 228.13L38.03 231.34C36.89 230.42 35.57 229.72 34.16 229.3C35.71 231.1 37.45 232.75 39.32 234.21C37.4533 232.476 35.4866 230.853 33.43 229.35L40.7 236.41C38.3256 234.537 36.0836 232.502 33.99 230.32C36.34 232.44 38.69 234.57 41.05 236.69" stroke="#1D1D1B" stroke-miterlimit="10" stroke-linejoin="round"/>
<path d="M36.65 228.7C38.113 231.723 39.9181 234.569 42.03 237.18C39.75 234.93 37.57 232.57 35.49 230.13C37.76 233.13 40.43 235.84 43.4 238.15C40.81 235.59 38.21 232.86 36.93 229.45C39.2 232.59 41.61 235.62 44.14 238.55C42.08 236.24 39.99 233.89 38.63 231.11C40.71 233.7 42.8 236.29 44.88 238.88C43.28 236.7 41.68 234.51 40.08 232.33C40.37 233.29 41.17 234 41.92 234.67C43.1822 235.814 44.3744 237.033 45.49 238.32" stroke="#1D1D1B" stroke-miterlimit="10" stroke-linejoin="round"/>
<path d="M35.94 233.17C38.38 235.6 41.83 236.84 44.12 239.41C41.22 237.41 38.35 235.35 35.53 233.24C36.16 234.32 37.21 235.07 38.22 235.79C40.01 237.06 41.81 238.32 43.6 239.59C40.57 237.54 37.46 235.61 34.27 233.81C36.9 235.98 39.73 237.91 42.7 239.58C39.87 238.05 37.03 236.51 34.2 234.98C36.51 236.63 38.91 238.15 41.39 239.53C38.49 237.99 35.57 236.5 32.62 235.07C34.84 236.64 37.17 238.05 39.58 239.3C37.1616 237.928 34.6563 236.715 32.08 235.67C33.66 236.84 35.3 237.94 36.97 238.98C35.1311 237.65 33.1059 236.598 30.96 235.86C32.14 236.79 33.31 237.73 34.49 238.66C33.06 237.83 31.63 237 30.2 236.16C31.32 236.94 32.47 237.66 33.65 238.34C32.51 237.64 31.38 236.94 30.24 236.24C31.86 237.61 33.78 238.64 35.82 239.23C34.77 238.74 33.75 238.19 32.78 237.56C35.47 239.27 38.37 240.66 41.39 241.69C38.86 240.72 36.34 239.76 33.81 238.79C36.29 240.03 38.78 241.27 41.35 242.31C39.874 241.438 38.3288 240.689 36.73 240.07C38.99 241.41 41.51 242.3 44.11 242.67C41.49 241.58 38.87 240.49 36.26 239.4C39.15 240.73 42.15 241.81 45.23 242.61C45.49 242.68 45.84 242.69 45.93 242.45C42.21 240.94 38.49 239.44 34.77 237.93C38.61 239.57 42.45 241.22 46.46 242.38C42.75 240.76 39.04 239.14 35.34 237.52C39.2 239.28 43.08 241.06 47.18 242.17C46.77 241.59 46.09 241.26 45.44 240.98C43.79 240.25 42.1 239.62 40.38 239.09C43.48 240.17 46.63 241.08 49.83 241.81C47.6745 240.838 45.4123 240.123 43.09 239.68C45.53 240.26 47.97 240.85 50.41 241.43C48.09 240.53 45.78 239.63 43.46 238.73C45.74 239.43 48.02 240.13 50.31 240.83L44.91 238.13C45.96 238.54 46.99 239 47.99 239.5C46.64 239.01 45.29 238.51 43.94 238.02C46 238.99 48.01 240.07 49.95 241.25C48.62 240.94 47.26 240.62 45.9 240.72C46.8358 241.443 47.9691 241.865 49.15 241.93C48.3379 241.705 47.4733 241.765 46.7 242.1C47.41 242.44 48.21 242.59 48.99 242.52C47.93 242.58 46.87 242.63 45.81 242.69H47.42C46.7 242.63 45.98 242.66 45.27 242.77C46.06 242.88 46.87 242.92 47.67 242.89C47.43 242.81 47.19 242.74 46.95 242.66C48.11 242.55 49.28 242.43 50.44 242.32C50.24 242.07 49.92 241.91 49.6 241.92C50.04 242.18 50.56 242.28 51.07 242.21C51.0058 242.085 50.9121 241.978 50.7971 241.898C50.6821 241.818 50.5492 241.767 50.41 241.75C50.91 241.81 51.4 241.86 51.9 241.92C51.47 241.6 51 241.35 50.5 241.17L52.56 241.62C51.94 241.25 51.28 240.95 50.59 240.74C51.06 240.88 51.53 241.02 52.01 241.15M79.55 39.9198C81.14 39.0298 82.74 38.1498 84.33 37.2598M78.95 13.2998C77.6 14.7698 76.25 16.2498 74.89 17.7198M49.78 8.58984C50.1 10.0698 49.73 11.6798 48.8 12.8598M20.08 23.9798C20.61 24.6898 21.14 25.3998 21.67 26.0998M7.87 40.9598C8.93 41.3198 9.99 41.6698 11.05 42.0298" stroke="#1D1D1B" stroke-miterlimit="10" stroke-linejoin="round"/>
<path d="M69.31 57.75C71.31 55.93 73.31 54.11 75.3 52.29M68.71 60.97C70.95 60.39 73.18 59.81 75.42 59.24M69.14 64.91C71.05 65.36 72.96 65.8 74.88 66.25" stroke="#080908" stroke-miterlimit="10" stroke-linejoin="round"/>
<defs>
<linearGradient id="paint0_linear_1230_3252" x1="172" y1="243.054" x2="165.294" y2="228.255" gradientUnits="userSpaceOnUse">
<stop stop-color="#FF01B0"/>
<stop offset="1" stop-color="#FF01B0" stop-opacity="0"/>
</linearGradient>
<linearGradient id="paint1_linear_1230_3252" x1="17" y1="41.5" x2="80.5" y2="166" gradientUnits="userSpaceOnUse">
<stop offset="0.302083" stop-color="#FF81F2"/>
<stop offset="1" stop-color="#FF01B0"/>
</linearGradient>
</defs>
</svg>
