<svg width="246" height="267" viewBox="0 0 246 267" fill="none" xmlns="http://www.w3.org/2000/svg">
<path d="M136.53 66.0398C136.285 65.8817 136.009 65.7793 135.72 65.7398C134.67 65.3098 133.23 65.6498 132.7 66.7298C132.58 66.9798 132.46 67.2298 132.35 67.4898C131.67 67.5298 131.01 67.8798 130.57 68.6498C130.31 69.1098 130.03 69.5498 129.74 69.9798C128.98 69.4398 127.9 69.2598 127.13 69.8398C125.026 71.4153 122.795 72.8135 120.46 74.0198C119.45 74.5398 119.14 75.4298 119.28 76.2798C119.15 76.3598 119.03 76.4598 118.91 76.5598C117.84 77.5298 116.78 78.4998 115.71 79.4798C114.77 80.3298 114.78 82.0498 115.71 82.9098C116.56 83.6998 117.71 83.7998 118.65 83.2498C119.08 83.8598 123.41 83.1598 123.35 81.8498C123.335 81.5792 123.278 81.3127 123.18 81.0598C127.19 79.4698 130.62 76.8798 133.18 73.4398C134.09 74.2098 135.3 74.5698 136.51 74.2198C138.22 73.7198 139.28 72.0098 139.27 70.2698C139.27 68.4198 137.97 66.9798 136.53 66.0398V66.0398Z" fill="#5969EF"/>
<path d="M179.26 240.66C180.31 201.29 177.89 161.93 176.92 137.24M222.65 137.27C224.49 165.07 217.6 203.37 218.59 239.23M196.41 142.78C197.42 167.66 204.18 206.26 208.41 239.44M197.69 161.35C196.68 183.48 195.56 211.93 189.9 241.24" stroke="black" stroke-miterlimit="10" stroke-linecap="round"/>
<path d="M203.29 52.6101C201.1 49.3101 201.94 43.9501 201.87 40.0101C201.82 36.9301 199.6 21.4101 199.13 18.3501L169.98 28.7301C169.98 28.7301 173.25 50.6701 179.71 52.4901C186.17 54.3101 185.1 50.1401 186.36 51.9601C187.63 53.7801 186.69 59.4801 186.69 59.4801L192.39 63.1501L204.9 56.2001L203.29 52.6101V52.6101Z" fill="#D4B48D"/>
<path d="M196.76 22.9702C195.4 23.1002 194.42 26.0402 193.93 27.3102C193.41 28.6502 193.63 30.3402 192.6 31.3402C190.62 33.2402 186.97 30.2802 184.64 31.7302C184.27 31.9602 183.96 32.2902 183.56 32.4402C182.35 32.8902 181.23 31.6002 180.59 30.4702C179.95 29.3402 178.96 27.9902 177.7 28.2902C177.22 28.4002 176.84 28.7502 176.48 29.0902C175.29 30.1902 174.1 31.2902 172.92 32.4002C172.33 32.9402 171.39 33.7802 170.82 34.5502M170.61 34.7102C169.94 34.8502 169.43 34.1402 169.13 33.5302C167.83 30.8302 166.91 27.9302 166.43 24.9702" stroke="black" stroke-miterlimit="10" stroke-linecap="round" stroke-linejoin="round"/>
<path d="M166.36 25.9698C165.78 23.0098 165.28 19.6398 167.09 17.4998C169.44 14.7298 174.11 15.6998 177.57 14.4198C181.11 13.1098 178.31 13.5998 183.36 10.8898C187.41 8.7198 193.2 9.36979 196.85 12.9398C200.27 16.2798 201.27 21.2098 202.07 25.7498C202.51 28.2798 202.91 31.0698 201.55 33.0398C198.997 30.7743 196.682 28.2546 194.64 25.5198" stroke="black" stroke-miterlimit="10" stroke-linecap="round" stroke-linejoin="round"/>
<path d="M229.7 121.67C230.66 116.31 225.76 113.82 225.6 108.01C225.42 107.78 225.24 107.64 225.05 107.56C225.07 106.9 225.24 106.25 225.64 105.59C225.7 105.49 222.92 91.2199 222.96 91.0999L221.31 71.7999C220.85 71.3699 221.31 65.9599 220.41 63.2599C220.15 62.4699 218.49 61.3299 217.81 60.9699C217.38 60.7399 216.96 58.4199 216.45 58.4399C216.11 58.2099 215.58 58.4799 215.35 57.9499C214.57 58.1999 210.31 54.6699 208.48 55.2899C208.08 55.4299 206.29 53.1399 204.49 54.6799C204.31 54.8299 204.15 53.9499 203.95 53.8799C203.06 53.5699 202.09 54.3899 201.32 53.8699C199.4 52.5799 196.49 60.2399 194.86 58.4899C194.67 58.2899 194.47 60.1299 194.22 60.0199C193.19 59.5399 187.99 58.3599 187.16 59.0499C182.48 62.9499 188.38 63.1599 183.62 72.2499C182.68 74.0399 183.84 62.6699 181.85 62.3699C181.01 62.2399 180.09 62.0999 179.28 62.7399C178.96 62.9899 174.83 58.6799 174.33 59.4799C173.6 60.6599 172.93 58.9999 172.49 59.1399C172.24 59.2199 170.75 59.4699 170.75 59.9999C170.51 60.2499 169.57 63.0699 169.34 63.0799L168.76 67.3399L159.31 99.8199C159.13 101.59 170.2 109.17 171.66 109.3C171.67 109.38 171.69 109.45 171.67 109.53C171.51 110.34 172.38 109.95 173.29 109.57C173.82 109.75 174.16 110.06 174.09 110.62C173.84 112.9 172.88 119.25 172.97 121.58C173.05 121.95 173.19 122.05 173.34 122.12C173.45 122.16 173.56 122.18 173.68 122.23C173.98 122.46 173.47 123.79 173.76 124.13C174 124.4 174.27 124.03 174.51 124.92C174.66 125.49 175.38 129.78 175.37 130.31C175.41 130.91 175.37 131.59 175.24 131.51C175.17 131.51 175.11 131.57 175.05 131.68C174.95 132.86 175.04 133.67 175.49 134.54C176.38 136.27 174.5 136.71 175.43 138.16C176.27 139.46 175.96 138.46 176.9 139.1C177.93 139.81 181.3 137.78 182.37 137.99C182.4 137.56 182.59 137.53 182.68 137.72C183.37 138.15 184.04 138.15 184.75 137.62C186.07 136.66 195.36 134.78 195.99 134.53C196.21 133.83 196.3 134.49 196.43 134.79C196.63 134.71 196.83 134.63 197.04 134.55C197.19 134.11 197.29 133.93 197.47 134.13C197.7 134.9 197.81 132.83 198 133.96C198.17 135.01 204.65 135.56 206.19 136.31C208.11 137.26 210.1 137.48 211.96 139.17C213.76 140.8 215.61 141.73 217.56 141.99C219.17 142.2 220.68 137.99 222.09 136.86C223.93 135.39 228.73 127.11 229.7 121.67V121.67Z" fill="url(#paint0_linear_1230_3277)"/>
<path d="M185.9 59.6601C185.69 56.9901 185.5 54.2301 186.41 51.7201C186.96 50.2001 187.89 48.8401 188.51 47.3501C188.94 46.3101 189.22 45.2201 189.33 44.1001" stroke="black" stroke-miterlimit="10" stroke-linecap="round" stroke-linejoin="round"/>
<path d="M189.21 43.9099C189.58 43.1899 190.04 42.5199 190.57 41.9099C190.74 41.7099 190.94 41.5099 191.19 41.4699C191.6 41.4099 191.95 41.8099 192 42.2199C192.06 42.6299 191.9 43.0299 191.77 43.4099C191.43 44.3999 191.21 45.4399 191.11 46.4799C191.05 47.1299 191.04 47.7899 190.9 48.4199C190.63 49.6199 189.91 50.7599 190.03 51.9799" stroke="black" stroke-miterlimit="10" stroke-linecap="round" stroke-linejoin="round"/>
<path d="M191.81 41.2799C192.01 40.5899 192.21 39.8999 192.4 39.2099C192.53 38.7599 192.67 38.2799 193.01 37.9499C193.35 37.6199 193.95 37.5099 194.28 37.8399C194.67 38.2199 194.48 38.8699 194.3 39.3799C193.97 40.3499 193.77 41.3599 193.72 42.3799C193.67 43.2399 193.73 44.0999 193.73 44.9599C193.74 46.7899 193.52 48.6299 193.08 50.4099" stroke="black" stroke-miterlimit="10" stroke-linecap="round" stroke-linejoin="round"/>
<path d="M194.35 37.5801C194.64 37.3501 194.96 37.1401 195.32 37.0701C195.68 37.0101 196.11 37.1501 196.26 37.4901C196.37 37.7301 196.32 38.0201 196.27 38.2801C196.14 38.9201 196.02 39.5501 195.94 40.2001C195.57 43.1501 196.15 46.3101 194.89 49.0101" stroke="black" stroke-miterlimit="10" stroke-linecap="round" stroke-linejoin="round"/>
<path d="M196.19 40.1699C196.67 40.3099 196.97 40.7899 197.11 41.2699C197.49 42.5899 197.04 43.9799 196.9 45.3499C196.72 47.0199 197.01 48.7199 196.81 50.3899C196.69 51.3899 196.4 52.3499 196.09 53.2999C195.65 54.6499 195.16 56.0099 194.39 57.1999C194.23 57.4499 194.05 57.6999 193.93 57.9699C193.83 58.1999 193.18 60.7499 193.18 60.9999M187.27 64.1699C187.02 63.7899 186.72 63.4299 186.5 63.0299C185.99 62.0999 185.93 60.9899 185.95 59.9299M173.67 60.4999C174.16 59.7899 174.27 58.8799 174.18 58.0299C174.09 57.1699 173.81 56.3499 173.59 55.5199C173.1 53.7199 172.83 51.8599 172.8 49.9899M172.82 49.9899C173.02 49.1499 172.62 48.2999 172.31 47.4899C171.71 45.9199 171.46 44.2199 171.57 42.5399M179.24 61.9599C179.79 60.8899 179.73 59.6199 179.6 58.4299C179.32 55.8599 178.79 53.3199 178.03 50.8599M178.04 50.8599C178 49.9399 177.2 49.2599 176.67 48.4999C175.64 47.0199 175.6 45.0699 174.85 43.4199C174.72 43.1299 174.56 42.8399 174.3 42.6599C174.04 42.4699 173.67 42.4099 173.41 42.5999C173.01 42.8799 173.1 43.4899 173.24 43.9599C173.47 44.7699 173.71 45.5799 173.94 46.3899C174.05 46.7699 174.16 47.1399 174.21 47.5299C174.27 47.9899 174.26 48.4599 174.32 48.9199C174.4 49.5399 174.62 50.1399 174.95 50.6699" stroke="black" stroke-miterlimit="10" stroke-linecap="round" stroke-linejoin="round"/>
<path d="M173.65 42.2598C173.33 41.5398 173.02 40.8098 172.7 40.0898C172.62 39.9198 172.53 39.7298 172.34 39.6798C172.16 39.6298 171.97 39.7598 171.89 39.9298C171.81 40.0998 171.82 40.2898 171.84 40.4798C171.95 41.3698 172.41 42.1898 172.55 43.0698C172.6 43.3998 172.6 43.7298 172.62 44.0598C172.69 45.4798 172.99 46.8898 173.51 48.2198" stroke="black" stroke-miterlimit="10" stroke-linecap="round" stroke-linejoin="round"/>
<path d="M171.87 39.7798C171.51 39.8698 171.29 40.2498 171.25 40.6098C171.21 40.9798 171.32 41.3398 171.41 41.6998C171.5 42.0598 171.59 42.4298 171.51 42.7898M182.49 64.9398C181.9 78.4898 181.06 86.0698 181.97 99.6098M218.46 238.26C219.54 240.21 220.03 241.43 220.78 243.53C214.54 247.76 208.02 251.59 201.3 255C200.51 255.4 199.68 255.8 198.8 255.78C197.92 255.76 196.98 255.16 196.9 254.29C196.86 253.85 197.02 253.43 197.2 253.03C198.22 250.8 199.85 248.92 201.45 247.06L207.96 239.53C211.75 240.27 215.43 240.29 218.41 237.84C218.23 238.04 218.7 238.94 218.46 238.26Z" stroke="black" stroke-miterlimit="10" stroke-linecap="round" stroke-linejoin="round"/>
<path d="M220.24 243.56L219.85 242.2C219.65 241.14 219.36 240.1 218.96 239.08C218.83 238.74 218.44 238.67 218.15 238.79C218.04 238.738 217.915 238.73 217.8 238.77C216.36 239.16 214.9 239.46 213.42 239.64C212.35 239.77 211.16 239.69 210.1 239.96C209.55 239.82 209.01 239.65 208.48 239.45C208.03 239.28 207.43 239.79 207.68 240.25C207.5 240.4 207.41 240.62 207.41 240.82C205 242.87 202.8 245.17 200.92 247.72C200.11 248.82 199.37 249.98 198.69 251.17C198.47 251.53 198.26 251.9 198.08 252.29C197.96 252.52 197.85 252.77 197.76 253.02C197.5 253 197.22 253.14 197.12 253.41C196.84 254.14 196.97 254.88 197.51 255.45C197.75 255.71 198.27 255.78 198.48 255.43C198.55 255.45 198.61 255.46 198.67 255.46C198.92 255.7 199.38 255.64 199.6 255.36C199.66 255.29 199.72 255.21 199.77 255.13C199.92 255.31 200.17 255.39 200.47 255.27C203.75 253.86 206.9 252.17 209.88 250.2C211.47 249.15 212.98 248 214.55 246.92C214.58 246.91 214.61 246.91 214.65 246.89C216.49 246.22 218.21 245.33 219.84 244.24C219.85 244.24 219.85 244.23 219.86 244.22C220.13 244.14 220.34 243.91 220.24 243.56V243.56Z" fill="black"/>
<path d="M197.1 255.11C197.67 256.72 199.58 257.52 201.28 257.37C202.98 257.22 204.51 256.34 205.99 255.48C207.63 254.52 209.28 253.56 210.92 252.6C212.45 251.71 213.98 250.81 215.49 249.89C216.8 249.09 218.11 248.25 219.15 247.12C220.19 245.99 220.96 244.53 220.96 243M190.32 241.99C190.98 244.4 191.2 245.86 191.47 248.35C183.54 251.32 175.43 253.8 167.19 255.76C166.23 255.99 165.21 256.21 164.26 255.96C163.31 255.71 162.44 254.81 162.57 253.83C162.64 253.34 162.93 252.92 163.23 252.53C164.93 250.37 167.2 248.73 169.44 247.13C172.47 244.96 175.5 242.79 178.52 240.62C182.47 242.42 186.47 243.42 190.38 241.52C190.13 241.69 190.4 242.79 190.32 241.99Z" stroke="black" stroke-miterlimit="10" stroke-linecap="round" stroke-linejoin="round"/>
<path d="M190.87 248.24L190.81 246.65C190.88 245.44 190.82 244.23 190.66 243.01C190.6 242.6 190.2 242.43 189.85 242.48C189.742 242.396 189.607 242.353 189.47 242.36C187.8 242.41 186.13 242.35 184.46 242.16C183.26 242.02 181.98 241.62 180.75 241.64C180.19 241.35 179.64 241.02 179.12 240.66C178.68 240.36 177.89 240.75 178.04 241.33C177.8 241.44 177.64 241.66 177.6 241.89C174.43 243.5 171.42 245.42 168.71 247.72C167.53 248.71 166.42 249.78 165.37 250.9C165.03 251.23 164.71 251.59 164.41 251.96C164.22 252.18 164.04 252.42 163.87 252.67C163.59 252.58 163.25 252.66 163.07 252.93C162.58 253.65 162.52 254.49 162.96 255.26C163.16 255.6 163.7 255.82 164.02 255.49C164.09 255.53 164.15 255.56 164.22 255.58C164.43 255.91 164.95 255.96 165.26 255.71C165.34 255.64 165.43 255.58 165.51 255.51C165.63 255.74 165.88 255.9 166.23 255.84C170.18 255.16 174.07 254.14 177.84 252.78C179.85 252.05 181.81 251.19 183.8 250.42H183.91C186.1 250.17 188.21 249.65 190.28 248.89C190.29 248.89 190.3 248.88 190.31 248.88C190.6 248.84 190.88 248.65 190.87 248.24V248.24Z" fill="black"/>
<path d="M162.57 254.77C162.77 256.67 164.65 258.05 166.54 258.33C168.43 258.61 170.34 258.05 172.18 257.5C174.23 256.88 176.27 256.27 178.32 255.65C180.22 255.08 182.13 254.5 184.02 253.89C185.66 253.36 187.31 252.78 188.75 251.83C190.19 250.88 191.4 249.48 191.81 247.8" stroke="black" stroke-miterlimit="10" stroke-linecap="round" stroke-linejoin="round"/>
<path d="M122.44 74.3899C124.93 72.2799 127.52 70.2799 130.2 68.4199M115.64 79.9899C116.61 79.5299 117.46 78.8799 118.24 78.1599M115.63 80.1599C115.53 80.1599 115.52 80.3099 115.55 80.4099C115.79 81.1399 116.04 81.8799 116.52 82.4699C117.01 83.0599 117.79 83.4699 118.53 83.2799M125.7 79.0899C128.37 77.5199 131.05 75.8999 133.38 73.8399M131.48 66.0599C130.73 67.6599 130.43 69.5399 131.05 71.1899C131.66 72.8399 133.34 74.1499 135.09 73.9999C136.1 73.9099 137.05 73.3499 137.69 72.5599C138.33 71.7699 138.67 70.7499 138.72 69.7399C138.79 68.4999 138.42 67.2099 137.57 66.3099C136.81 65.5099 135.72 65.0899 134.63 64.9499C133.81 64.8499 132.94 64.8999 132.22 65.3099C131.5 65.7199 130.97 66.5299 131.09 67.3499M131.11 69.5499C132.01 67.6699 133.87 66.2899 135.93 65.9599M131.84 72.2099C133.377 70.1458 135.565 68.6593 138.05 67.9899M133.43 73.8599C134.568 72.5261 136.184 71.6929 137.93 71.5399M131.13 67.7499C132.644 69.3265 133.803 71.2085 134.53 73.2699" stroke="black" stroke-miterlimit="10"/>
<path d="M132.8 65.4902C135.15 66.7102 136.91 69.0102 137.47 71.5902C137.53 71.8802 137.58 72.1802 137.55 72.4802C137.55 72.5202 137.54 72.5502 137.53 72.5902M122.89 84.9102C123.25 107.33 123.61 129.76 123.98 152.18M124.92 84.2602C125.41 106.8 125.91 129.33 126.4 151.87M124.1 155.25C124.46 183.98 124.82 212.71 125.19 241.43M125.98 155.25C126.47 184.12 126.97 213 127.46 241.87M118.77 76.4302C119.99 75.7402 120.82 74.5202 121.96 73.6902M122.09 73.7202L122.33 75.2902C122.49 76.3202 122.68 77.4302 123.41 78.1802C124.13 78.9302 125.24 79.1702 126.28 79.2102M122.14 82.5702C123.13 81.5902 124.49 81.1002 125.63 80.2902C125.94 80.0702 126.24 79.8202 126.52 79.5602M118.51 76.6102C118.51 77.5002 118.64 78.3902 118.9 79.2402C118.98 79.5202 119.08 79.8002 119.22 80.0602C119.78 81.1602 120.86 81.8802 121.91 82.5302M118.6 83.4002C119.12 83.1602 119.63 82.9002 120.09 82.5602C120.29 82.4102 120.47 82.2502 120.65 82.0702C120.62 82.1002 120.59 82.1302 120.57 82.1602" stroke="black" stroke-miterlimit="10"/>
<path d="M123.78 81.5502C123.01 81.7502 122.41 82.4801 122.38 83.2701C122.37 83.5101 122.41 83.7602 122.55 83.9402C122.72 84.1602 123 84.2602 123.27 84.2902C123.8 84.3502 124.36 84.1702 124.75 83.8002C125.14 83.4302 125.37 82.9002 125.36 82.3702C125.36 82.2402 125.34 82.1202 125.29 82.0002C125.16 81.7102 124.84 81.5502 124.52 81.4902C124.16 81.4302 123.74 81.5002 123.52 81.7902M115.68 81.4102C115.52 81.5702 115.36 81.7201 115.2 81.8801C115.13 81.9501 115.05 82.0302 115.03 82.1402C115.02 82.2202 115.04 82.3002 115.06 82.3702C115.13 82.6002 115.21 82.8301 115.35 83.0201C115.5 83.2101 115.73 83.3502 115.97 83.3102C116.14 83.2802 116.29 83.1602 116.43 83.0502M123.58 151.62C123.471 151.596 123.358 151.605 123.255 151.646C123.151 151.687 123.062 151.758 123 151.85C122.88 152.03 122.89 152.29 123.03 152.47C123.19 152.68 123.48 152.74 123.74 152.78C124.81 152.96 125.99 153.12 126.93 152.56C127.11 152.45 127.28 152.32 127.37 152.13C127.46 151.94 127.46 151.7 127.32 151.54C127.18 151.38 126.92 151.34 126.8 151.16" stroke="black" stroke-miterlimit="10"/>
<path d="M122.66 152.08L122.57 152.88C122.53 153.26 122.49 153.64 122.55 154.02C122.62 154.39 122.82 154.76 123.15 154.95C123.34 155.06 123.57 155.09 123.78 155.13C124.41 155.23 125.06 155.31 125.69 155.2C126.32 155.09 126.94 154.78 127.28 154.24C127.69 153.58 127.62 152.75 127.53 151.98M128.32 152.36C128.12 152.39 127.96 152.55 127.88 152.74C127.8 152.93 127.79 153.13 127.8 153.34C127.8 153.49 127.82 153.66 127.9 153.79C127.99 153.93 128.15 154.01 128.31 154.04C128.74 154.11 129.16 153.83 129.41 153.47C129.52 153.3 129.61 153.12 129.62 152.92C129.65 152.41 129.08 151.96 128.59 152.11M124.18 238.77C121.95 238.74 119.72 239.1 117.61 239.83C116.86 240.09 116.11 240.41 115.49 240.92C114.87 241.43 114.4 242.16 114.36 242.95C114.3 243.96 114.93 244.91 115.76 245.49C116.59 246.07 117.59 246.34 118.57 246.57C122.29 247.42 126.12 247.76 129.93 247.58C131.76 247.49 133.63 247.27 135.29 246.47C136.94 245.67 138.35 244.19 138.66 242.38C138.7 242.14 138.72 241.88 138.63 241.65C138.55 241.44 138.39 241.28 138.22 241.13C136.89 239.93 135.16 239.26 133.41 238.92C131.65 238.59 129.85 238.58 128.07 238.58M114.29 243.08V246.86M138.91 242.42C138.98 243.6 139.12 244.78 139.26 245.95C139.27 245.93 139.27 245.9 139.28 245.88" stroke="black" stroke-miterlimit="10"/>
<path d="M114.43 246.93C114.81 247.61 115.49 248.09 116.21 248.38C116.94 248.67 117.72 248.79 118.49 248.89C122.16 249.37 125.86 249.55 129.56 249.44C130.52 249.41 131.49 249.36 132.44 249.19C133.34 249.02 134.22 248.75 135.1 248.47C136.61 247.99 138.21 247.43 139.14 246.15M115.04 82.77C112.52 84.79 111.74 88.32 111.87 91.55C111.96 93.73 112.4 95.9 113.19 97.94C114.27 100.69 115.97 103.14 117.66 105.55C119.33 107.95 121.01 110.34 122.68 112.74M125.63 115.98C127.26 115.9 128.18 118.06 127.65 119.61C127.12 121.15 125.75 122.22 124.64 123.42C122.14 126.1 120.75 129.78 120.86 133.44C120.91 135.07 121.24 136.73 120.87 138.32C120.53 139.79 119.63 141.05 118.85 142.33C117.03 145.32 115.72 148.77 116.02 152.26C116.2 154.4 116.98 156.44 117.21 158.58C117.8 163.9 115.07 169.64 117.44 174.45C119.1 177.83 122.89 179.72 124.77 182.99C125.53 184.3 125.94 185.77 126.35 187.23L128.3 194.21C129.01 196.76 129.31 200.27 126.88 201.31M123.94 202.76C122.148 204.743 121.068 207.265 120.87 209.93C120.63 213.39 121.9 216.98 120.84 220.29C119.84 223.44 116.86 225.79 116.35 229.06C116.02 231.18 116.78 233.52 115.76 235.41C114.9 237.02 113.04 237.78 111.32 238.41C109.86 238.95 108.4 239.48 106.94 240.02C105.93 240.39 104.91 240.77 104.03 241.4C103.03 242.12 102.28 243.12 101.55 244.11C100.62 245.37 99.69 246.63 98.75 247.89C98.34 248.45 97.92 249.01 97.37 249.44C96.71 249.96 95.9 250.25 95.1 250.53C91.53 251.79 87.75 253.06 84.02 252.39C82.3 252.08 80.68 251.36 79.07 250.67C77.52 250 75.97 249.36 74.41 248.71C71.68 247.58 68.28 246.52 66.01 248.41C65.56 248.78 65.19 249.25 64.69 249.53C63.59 250.15 62.22 249.72 60.99 249.45C60.24 249.28 59.36 249.2 58.62 249.48C57.87 249.76 57.69 250.39 57.09 250.82C55.64 251.87 53.06 251.64 51.39 251.59C47.56 251.46 43.69 251.21 40 250.16C38.2 249.64 36.46 248.94 34.65 248.44C31.33 247.52 27.82 247.3 24.4 247.75C20.88 248.22 17.34 249.4 13.85 248.73C11.9 248.36 10.06 247.4 8.64001 246M125.16 241.7C125.23 242.02 125.41 242.32 125.67 242.52C125.77 242.6 125.89 242.67 126.02 242.7C126.29 242.77 126.58 242.67 126.81 242.51C127.04 242.35 127.21 242.13 127.38 241.9" stroke="black" stroke-miterlimit="10"/>
<defs>
<linearGradient id="paint0_linear_1230_3277" x1="168" y1="16.5" x2="217.5" y2="153" gradientUnits="userSpaceOnUse">
<stop offset="0.296583" stop-color="#6E7CF6"/>
<stop offset="1" stop-color="#1B2FDB"/>
</linearGradient>
</defs>
</svg>
