<svg width="191" height="178" viewBox="0 0 191 178" fill="none" xmlns="http://www.w3.org/2000/svg">
<path d="M15.01 63.1801C16.25 57.9401 21.1 54.5001 24.24 50.1301C26.17 47.4501 27.47 44.3701 28.76 41.3201C29.37 39.8701 29.99 38.4001 30.95 37.1401C31.91 35.8901 33.25 34.8501 34.8 34.6001" stroke="#1D1D1B" stroke-width="1.5" stroke-miterlimit="10"/>
<path d="M33.71 36.9501C36.54 33.8401 36.28 28.9901 38.35 25.3301C38.95 24.2701 39.74 23.3301 40.37 22.2901C41.95 19.6901 42.5 16.6001 43.02 13.6001" stroke="#1D1D1B" stroke-width="1.5" stroke-miterlimit="10"/>
<path d="M42.74 14.1199C42.66 13.4499 43.18 12.8299 43.8 12.5699C44.42 12.3099 45.12 12.3399 45.79 12.3699C45.99 12.3799 46.2 12.3899 46.39 12.4799C46.68 12.6199 46.85 12.9099 46.98 13.1999C47.7 14.7799 47.65 16.5899 47.59 18.3199M47.54 18.5299C46.47 23.7599 45.13 28.9399 43.53 34.0299" stroke="#1D1D1B" stroke-width="1.5" stroke-miterlimit="10"/>
<path d="M46.07 33.8802C45.31 33.7602 44.54 33.6502 43.77 33.7302C43 33.8102 42.24 34.1002 41.72 34.6702C41.22 35.2102 41 35.9902 41.12 36.7102C41.24 37.4302 41.71 38.0902 42.36 38.4402C43.54 39.0802 45.11 38.6802 46.22 39.4402C46.5 39.6302 46.73 39.8902 46.94 40.1502C47.53 40.9002 47.99 41.7502 48.29 42.6602M48.52 42.6502C48.67 43.3402 49.34 43.7902 50.02 44.0002C50.7 44.2102 51.41 44.2402 52.07 44.4902C53.73 45.1002 54.65 46.8102 55.67 48.2502C57.48 50.7902 60.03 52.7802 62.93 53.9302C63.98 54.3502 65.11 54.6702 65.97 55.4102C67.04 56.3302 67.51 57.7502 67.93 59.0902C68.83 61.9302 69.73 64.7702 70.62 67.6102M46.18 33.8902C47.9 33.8102 49.18 35.3602 50.56 36.4002C52.41 37.8002 54.83 38.3802 57.12 38.0302C59.41 37.6802 61.54 36.4202 62.98 34.6202C63.55 33.9002 64.04 33.0502 64.04 32.1302M64.29 32.2502C63.23 29.4702 62.17 26.6802 61.12 23.9002C60.86 23.2202 60.6 22.5302 60.22 21.9102C59.5 20.7302 58.41 19.8302 57.34 18.9502C56.75 18.4702 56.14 17.9802 55.41 17.7602C54.5 17.4902 53.53 17.6802 52.59 17.6702C51.0674 17.6465 49.5962 17.1151 48.41 16.1602" stroke="#1D1D1B" stroke-width="1.5" stroke-miterlimit="10"/>
<path d="M47.17 13.2801C51.02 11.5901 54.12 13.1401 57.99 13.9101H61.09C66.51 16.2301 68.06 23.2101 72.13 27.6201" stroke="#1D1D1B" stroke-width="1.5" stroke-miterlimit="10"/>
<path d="M70.49 25.1301C72.42 25.2201 74.28 26.3501 75.25 28.0301C76.27 29.8001 76.29 31.9501 76.46 33.9901C77.07 41.3001 79.98 48.1901 82.86 54.9301M60.55 25.1201C59.36 25.1701 58.18 25.3901 57.05 25.7701C56.74 25.8801 56.42 26.0001 56.17 26.2101C55.97 26.3801 55.82 26.6001 55.68 26.8201C55.17 27.5801 54.66 28.3501 54.15 29.1101C53.69 29.7901 53.22 30.5101 53.12 31.3301C53.04 31.9501 53.19 32.5801 53.34 33.1901C53.73 34.7101 54.19 36.2401 55.06 37.5401M61.5 30.9101C60.6 31.6501 60.15 32.9001 60.36 34.0501C60.45 34.5601 60.67 35.0501 60.94 35.4901M51.64 45.8001C51.66 46.9601 51.67 48.1201 51.69 49.2701C51.7 49.7801 51.7 50.3101 51.47 50.7601C51.24 51.2201 50.81 51.5301 50.38 51.8001C47.78 53.4301 44.44 54.2601 42.89 56.9001C42.52 57.5301 42.28 58.2301 41.86 58.8201C40.77 60.3401 38.78 60.8201 37.08 61.5801C34.4966 62.7502 32.368 64.7349 31.02 67.2301M100.83 60.4301C103.25 58.6801 104.04 55.4301 104.19 52.4401C104.27 50.8301 104.22 49.2301 104.21 47.6201C104.18 44.0701 104.3 40.5201 104.43 36.9801C104.46 36.0501 104.5 35.1101 104.74 34.2101C105.2 32.4901 106.46 30.9901 108.07 30.2301C108.94 29.8201 109.89 29.6201 110.79 29.2901C112.15 28.7801 113.37 27.9601 114.59 27.1701C119.39 24.0901 124.45 21.4501 129.51 18.8201M129.55 18.8501C130.03 18.3701 130.9 18.5201 131.38 18.9901C131.86 19.4701 132.05 20.1601 132.18 20.8301C132.23 21.1101 132.28 21.4101 132.25 21.6901C132.22 21.9801 132.1 22.2501 131.98 22.5001C131.16 24.2001 129.68 25.5701 127.92 26.2601" stroke="#1D1D1B" stroke-width="1.5" stroke-miterlimit="10"/>
<path d="M127.59 26.1499C126.31 26.3599 125.2 27.1399 124.16 27.9199C122.6 29.0699 121.05 30.2499 119.7 31.6399M116.98 30.3899C115.72 29.7499 114 30.2899 113.32 31.5299C112.64 32.7799 113.01 34.3999 112.38 35.6799C112.09 36.2699 111.6 36.7599 111.4 37.3799C111.2 37.9999 111.31 38.6599 111.31 39.3099C111.34 41.7099 110.02 43.8999 108.75 45.9399M116.99 30.7099C117.57 30.9799 117.93 31.5899 118.1 32.2099C118.54 33.7799 117.98 35.4399 117.54 37.0099C116.34 41.2999 116.04 45.8399 116.65 50.2499M109.01 37.3699C109.42 37.6099 109.92 37.6899 110.38 37.5799" stroke="#1D1D1B" stroke-width="1.5" stroke-miterlimit="10"/>
<path d="M117.74 39.38C119.36 43.76 119.01 48.59 118.63 53.25C118.53 54.54 118.41 55.88 117.8 57.02C117.37 57.82 116.72 58.47 116.12 59.15C114.4 61.09 113.02 63.32 112.04 65.72M108.69 28.74C109.54 26.67 110.19 24.51 110.62 22.31C110.82 21.3 110.98 20.25 111.56 19.4C111.99 18.77 112.62 18.31 113.19 17.8C115.158 16.0413 116.523 13.7077 117.09 11.13C117.24 10.45 117.33 9.75004 117.61 9.12004C117.9 8.49004 118.42 7.91004 119.11 7.79004M119.12 7.91004C119.57 7.72004 120.1 7.98004 120.38 8.38004C120.66 8.78004 120.74 9.28004 120.82 9.76004C121 10.96 121.16 12.21 120.85 13.39C120.4 15.1 119.06 16.42 118.25 17.99C117.67 19.12 117.37 20.37 117.07 21.61L116.11 25.64M121.37 12.86C121.86 13.97 122.36 15.18 122.08 16.36C121.81 17.49 120.89 18.33 120.2 19.27C119.117 20.7727 118.613 22.6155 118.78 24.46M122.21 17.34C122.83 17.95 123.21 18.88 122.96 19.71C122.79 20.25 122.39 20.68 122.03 21.13C121.68 21.58 121.35 22.11 121.41 22.67M134.55 18.03C134.06 18.17 133.85 18.74 133.79 19.25C133.57 21.08 134.38 22.9 135.53 24.34C136.68 25.78 138.16 26.91 139.56 28.11C140.96 29.31 142.32 30.63 143.11 32.29M142.94 32.33C144.02 34.85 145.09 37.37 146.17 39.89C147.07 42.01 147.99 44.37 147.24 46.55" stroke="#1D1D1B" stroke-width="1.5" stroke-miterlimit="10"/>
<path d="M146.04 40.45C145.51 41.08 144.98 41.72 144.45 42.35C143.83 43.1 143.18 43.9 143.03 44.86C142.91 45.61 143.11 46.36 143.31 47.09C143.85 49.08 144.38 51.07 144.92 53.06C145.04 53.52 145.17 53.99 145.4 54.4C145.91 55.33 146.87 55.9 147.7 56.57C149.71 58.21 151.14 60.69 153.56 61.62C154.07 61.82 154.61 61.94 155.13 62.14C157.44 63.04 158.82 65.35 160.04 67.51M134.74 17.84C136.16 17.5 137.62 18.31 138.66 19.33C139.71 20.35 140.52 21.6 141.66 22.52C142.34 23.07 143.13 23.49 143.85 23.99C145.02 24.8 146.01 25.84 147 26.87C148.6 28.54 150.21 30.23 151.52 32.14C152.26 33.22 152.89 34.37 153.42 35.56" stroke="#1D1D1B" stroke-width="1.5" stroke-miterlimit="10"/>
<path d="M151.58 32.5C152.14 32.65 152.73 32.69 153.31 32.63C153.61 32.6 153.91 32.53 154.22 32.54C155.77 32.58 156.78 34.35 158.31 34.62C159.12 34.76 160.04 34.48 160.72 34.94C161.45 35.45 161.5 36.59 162.21 37.12C163.09 37.78 164.65 37.28 165.19 38.23M165.21 38.35C167.37 41.35 168.78 44.89 169.25 48.56C169.47 50.23 169.5 51.94 169.97 53.55C170.48 55.3 171.47 56.86 172.46 58.39L174.71 61.9M57.42 32.91C58.48 33.49 59.63 33.88 60.82 34.05M12.09 144.11C12.31 141.37 12.9 138.67 13.85 136.09C14.67 133.87 15.75 131.71 16.07 129.37C16.43 126.68 15.74 123.9 16.37 121.27C17.37 117.11 21.4 114.32 22.91 110.31C23.83 107.87 23.74 105.18 23.73 102.56C23.73 100.97 23.76 99.38 23.82 97.79C23.83 97.46 23.85 97.11 24.02 96.83C24.19 96.54 24.55 96.34 24.86 96.46" stroke="#1D1D1B" stroke-width="1.5" stroke-miterlimit="10"/>
<path d="M24.47 96.6398C26.03 96.3298 27.62 97.3198 28.51 98.6398C29.4 99.9598 29.72 101.57 30.04 103.13C30.19 103.88 30.34 104.63 30.31 105.4C30.27 106.32 29.96 107.21 29.73 108.11C29.3363 109.637 29.1646 111.213 29.22 112.79M33.71 99.9398C34.84 97.2198 36.07 94.3698 38.43 92.6098C39.88 91.5398 41.64 90.9599 43.08 89.8699C45.3 88.1899 46.66 85.3498 49.25 84.3398" stroke="#1D1D1B" stroke-width="1.5" stroke-miterlimit="10"/>
<path d="M49.09 84.4298C49.68 84.1798 50.39 83.9498 50.93 84.2998C51.19 84.4698 51.35 84.7498 51.48 85.0398C52.02 86.2898 51.86 87.8098 51.08 88.9298M51 89.1198C50.13 90.7298 49.22 92.3898 47.81 93.5598C46.44 94.6998 44.68 95.3098 43.44 96.5898C42.59 97.4698 42.05 98.5998 41.54 99.7098C40.93 101.04 40.34 102.37 39.76 103.71M42.04 103.76C42.77 101.04 44.73 98.6698 47.26 97.4398C48.18 96.9898 49.16 96.6898 50.08 96.2398C52.52 95.0498 54.34 92.9098 56.46 91.2098C57.18 90.6298 58.03 90.0798 58.95 90.1698C59.87 90.2498 60.69 91.3198 60.21 92.1098M60.18 92.2398C60.33 93.7098 59.79 95.1898 58.89 96.3698C57.99 97.5398 56.77 98.4298 55.46 99.1098C54.2 99.7698 52.83 100.27 51.74 101.2C49.51 103.1 48.91 106.39 46.74 108.35M47.22 109.8C48.58 108.97 49.96 108.12 51.08 106.98C51.78 106.27 52.37 105.45 53.11 104.79C54.67 103.41 56.79 102.78 58.34 101.39M59.23 101.09C59.74 100.81 60.42 101.05 60.78 101.51C61.14 101.96 61.26 102.57 61.31 103.15C61.41 104.36 61.23 105.7 60.34 106.53" stroke="#1D1D1B" stroke-width="1.5" stroke-miterlimit="10"/>
<path d="M51.23 112.73C52.71 111.46 54.18 110.18 55.66 108.91C56.18 108.47 56.71 108.01 57.35 107.79C57.75 107.65 58.17 107.61 58.58 107.49C59.2922 107.28 59.9214 106.854 60.38 106.27M53.01 113.71C53.56 113.16 54.1 112.61 54.65 112.06C55.67 111.03 56.78 109.95 58.21 109.67C58.93 109.52 59.77 109.64 60.24 110.21C60.68 110.74 60.66 111.54 60.39 112.18C60.11 112.81 59.61 113.32 59.12 113.81C58.19 114.75 57.26 115.68 56.32 116.62" stroke="#1D1D1B" stroke-width="1.5" stroke-miterlimit="10"/>
<path d="M30.23 100.75C30.69 99.8598 32.01 99.8098 32.89 100.31C33.77 100.81 34.36 101.66 35.11 102.33C36.33 103.42 37.91 103.99 39.43 104.58C41.96 105.55 44.54 106.71 46.28 108.79C46.69 109.28 47.04 109.81 47.49 110.25C48.19 110.93 49.09 111.38 49.85 111.99C50.87 112.81 51.64 113.91 52.63 114.76C54.73 116.55 57.64 117.07 59.9 118.64M30.7 105.45C30.94 106.39 32.14 106.59 33.04 106.95C34.8 107.66 35.81 109.47 37.26 110.71C38.59 111.85 40.32 112.5 41.48 113.82C42.1 114.52 42.52 115.36 43.05 116.13C44.74 118.61 47.46 120.24 49.13 122.73C51.31 125.98 51.29 130.55 49.1 133.79M60.32 118.98C63.58 122.41 67.35 125.36 71.47 127.69C72.85 128.47 74.28 129.19 75.39 130.32C76.58 131.53 77.31 133.11 78.11 134.61C80.21 138.57 82.97 142.18 86.25 145.25" stroke="#1D1D1B" stroke-width="1.5" stroke-miterlimit="10"/>
<path d="M27.66 149.24C28.75 145.65 29.46 141.94 29.77 138.2C29.86 137.1 29.95 135.91 30.71 135.11C31.71 134.04 33.39 134.14 34.83 133.84C37.15 133.36 39.08 131.69 40.45 129.75C41.39 128.41 42.12 126.92 43.22 125.7C44.5 124.28 46.22 123.32 48 122.64M49.01 133.89C48.27 134.73 47.15 135.09 46.09 135.42C45.02 135.75 43.81 136.07 42.83 135.53C42.27 135.22 41.84 134.65 41.22 134.49C40.39 134.28 39.59 134.88 38.94 135.43C38.5 135.8 38.02 136.31 38.16 136.87C38.24 137.2 38.53 137.43 38.78 137.66C39.6506 138.41 40.3995 139.29 41 140.27C41.2 140.6 41.39 140.93 41.65 141.21C42.39 141.97 43.57 142.06 44.63 142.02M44.81 141.84C47.42 142.99 50.54 141.61 53.29 142.39C55.53 143.02 57.19 145 59.41 145.68C61.53 146.33 63.82 145.72 66.04 145.79C68.56 145.87 70.97 146.85 73.22 148M41.13 129.53C40.7942 130.241 40.6201 131.018 40.6201 131.805C40.6201 132.592 40.7942 133.369 41.13 134.08M45.45 130.97C46.73 130.38 48.07 129.94 49.45 129.68M95.3 131.55C95.19 131.48 95.13 131.74 95.26 131.77C95.39 131.81 95.5 131.69 95.59 131.59C97.0385 129.831 98.3019 127.928 99.36 125.91C99.92 124.83 100.43 123.72 100.83 122.58C102.21 118.66 102.48 114.22 105 110.91C105.71 109.98 106.58 109.18 107.26 108.23C108.89 105.98 109.36 103.09 110.7 100.66C111.11 99.92 111.6 99.22 112.15 98.59C113.3 97.27 115.07 96.16 116.73 96.71C117.79 97.06 118.53 98.01 119.15 98.94M116.25 103.8C117.1 102.86 117.85 101.83 118.48 100.72C119.19 99.47 119.9 97.99 121.29 97.6C121.71 97.49 122.15 97.49 122.58 97.49C122.96 97.49 123.37 97.5 123.7 97.69C124.12 97.92 124.34 98.39 124.54 98.83C125.14 100.14 125.73 101.46 126.33 102.77M122.68 106.78C124.071 104.843 125.87 103.236 127.95 102.07M130.17 98.26C129.22 98.26 128.48 99.21 128.38 100.16C128.28 101.11 128.64 102.04 128.99 102.93C129.59 104.44 130.19 105.94 130.79 107.45C131.42 109.03 132.06 110.64 133.04 112.04C134.17 113.66 135.71 114.96 136.8 116.61C138.7 119.5 139.04 123.2 140.96 126.07C141.7 127.17 142.65 128.11 143.59 129.05C144.63 130.08 145.67 131.1 146.7 132.13C147.47 132.89 148.25 133.66 149.18 134.22C149.96 134.69 150.83 134.99 151.59 135.48C153.21 136.51 154.23 138.25 155.28 139.86C157.02 142.51 159.02 144.99 161.25 147.24M131.51 95.46C130.97 96.1 130.9 97.03 131.13 97.83C131.36 98.63 131.84 99.33 132.33 100C134.43 102.88 136.83 105.56 138.58 108.67C139.35 110.03 139.99 111.48 140.91 112.75C141.75 113.92 142.81 114.92 143.74 116.03C145.176 117.74 146.306 119.685 147.08 121.78" stroke="#1D1D1B" stroke-width="1.5" stroke-miterlimit="10"/>
<path d="M131.11 95.71C132.09 93.96 134.65 93.36 136.3 94.49C137.27 95.15 137.85 96.24 138.43 97.26C139.92 99.85 141.68 102.29 143.66 104.52C144.54 105.51 145.46 106.45 146.24 107.52C148.94 111.22 149.88 116.32 153.64 118.94M148.05 108.76C148.14 107.46 149.5 106.63 150.77 106.34C151.596 106.152 152.445 106.088 153.29 106.15C155.63 108.82 157.5 111.91 158.76 115.22M155.71 108.33C157.15 107.7 158.93 107.95 160.15 108.95C160.9 109.57 161.42 110.42 161.95 111.24C164.37 114.97 167.38 118.34 169.34 122.33C170.3 124.29 170.99 126.37 171.68 128.44C172.72 131.59 173.77 134.75 174.81 137.9M136.21 94.42L139.02 91.04C139.26 90.75 139.51 90.46 139.75 90.16C140.61 89.13 141.47 88.09 142.53 87.28M142.59 87.51C143.1 87.33 143.67 87.16 144.16 87.37C144.63 87.57 144.9 88.06 145.05 88.54C145.31 89.43 145.24 90.39 145.17 91.32" stroke="#1D1D1B" stroke-width="1.5" stroke-miterlimit="10"/>
<path d="M145.26 91.52C145.16 92.23 144.68 92.82 144.22 93.37C142.69 95.2 141.16 97.02 139.64 98.85M145.02 92.56C145.39 92.4 145.84 92.56 146.11 92.86C146.38 93.16 146.51 93.56 146.58 93.96C146.74 94.87 146.62 95.83 146.26 96.69M146.44 96.67C145.55 98.88 144.38 100.97 142.98 102.9M130.84 109.5C130.07 110.52 129.31 111.54 128.54 112.56M107.04 146.77C108.89 144.37 110.4 141.71 111.53 138.9C112.15 137.37 112.68 135.73 113.85 134.56C114.77 133.64 115.99 133.1 117.11 132.44C121.38 129.91 124.24 125.58 128 122.35C129.16 121.35 130.43 120.44 131.29 119.17C132.42 117.51 132.94 115.18 134.81 114.46" stroke="#1D1D1B" stroke-width="1.5" stroke-miterlimit="10"/>
<path d="M185.39 73.63C184.6 74.18 183.81 74.73 182.89 75.38C183.21 76.41 183.64 77.71 184 79.02C184.25 79.93 184.46 80.87 184.59 81.81C184.63 82.07 184.38 82.43 184.16 82.65C182.49 84.34 180.44 85.45 178.21 86.19C176.39 86.8 174.56 87.41 172.68 87.75C171.22 88.02 169.67 88.01 168.18 87.87C167.45 87.8 166.77 87.16 166.08 86.76C165.6 86.48 165.13 86.18 164.66 85.88C163.81 87.33 162.35 87.56 161.1 87.8C160.18 87.98 159.45 87.02 158.8 86.23C157.49 84.62 156.94 82.82 156.63 80.79C156.37 79.04 155.38 77.4 155.06 75.65C154.74 73.94 154.88 72.15 154.78 70.39C154.72 69.32 154.5 68.25 154.51 67.19C154.53 66.1 154.64 64.99 154.9 63.93C155.17 62.82 156 62.46 157.14 62.67C157.89 62.81 158.62 62.74 159.33 63.27C160.14 63.87 161.36 63.35 161.49 62.32C161.65 61.12 162.54 60.9 163.32 60.46C163.5 60.36 163.83 60.34 163.86 60.22C164.24 58.75 165.51 59.05 166.5 58.93C168.56 58.68 170.62 58.49 172.68 58.32C173.21 58.28 173.75 58.45 174.28 58.47C176.8 58.56 179.21 59.09 181.21 60.69C181.86 61.21 182.71 61.56 183.17 62.09C183.81 62.84 184.01 64.01 184.25 65.03C184.55 66.29 184.73 67.58 184.89 68.87C185.04 70.06 185.08 71.25 185.19 72.45C185.21 72.62 185.31 72.79 185.37 72.96C185.39 73.19 185.39 73.41 185.39 73.63V73.63ZM26.62 159.35C26.46 159.66 26.22 160.03 26.09 160.44C25.53 162.1 24.79 163.53 22.7 163.51C22.39 163.51 22.09 163.77 21.77 163.8C21.41 163.84 21.05 163.76 20.6 163.72C20.76 164.36 20.26 164.47 19.65 164.23C19.07 164 18.44 163.74 17.99 163.32C16.96 162.37 17 162.33 15.63 162.27C15.67 161.99 15.71 161.72 15.76 161.39C14.75 161.04 14.36 160.37 14.61 159.25C14.84 158.23 14.27 157.78 13.04 157.91C11.58 158.07 10.25 157.65 8.93999 157.11C8.64999 156.99 8.23999 156.8 8.15999 156.56C7.75999 155.34 6.30999 155.32 5.71999 154.34C5.64999 154.23 5.54999 154.08 5.43999 154.05C4.96999 153.91 4.10999 153.85 4.08999 153.68C3.99999 152.94 4.12999 152.17 4.23999 151.42C4.49999 149.63 5.05999 148.07 6.62999 146.88C7.29999 146.37 7.39999 145.13 7.82999 144.26C8.30999 143.31 9.10999 142.46 9.33999 141.47C9.80999 139.48 11.59 138.8 12.78 137.55C12.99 137.32 13.37 137.25 13.54 137.16C13.33 136.36 12.94 135.53 12.95 134.7C12.95 134.1 13.37 133.42 13.77 132.91C14.26 132.29 14.89 131.74 15.55 131.31C15.99 131.02 16.61 130.98 17.15 130.88C17.51 130.81 17.91 130.74 18.25 130.82C20.83 131.41 22.87 132.98 24.84 134.63C27.05 136.48 29.23 138.35 31.46 140.17C32.06 140.66 32.79 141 33.44 141.43C34.35 142.03 34.4 142.43 33.72 143.24C33.61 143.37 33.52 143.53 33.43 143.68C33.05 144.28 33.52 145.28 32.53 145.62C32.52 145.62 32.67 146.11 32.77 146.45C33.46 146.08 34.06 145.62 34.64 146.47C34.75 146.63 35.32 146.42 35.67 146.49C36.54 146.65 37.39 146.87 38.26 147.04C38.9 147.16 39.15 147.48 39.08 148.16C38.88 150.29 38.73 152.42 38.55 154.55C38.54 154.72 38.48 154.91 38.39 155.06C37.6 156.38 36.81 157.69 36 159C35.91 159.14 35.71 159.31 35.56 159.31C34.5462 159.303 33.5327 159.277 32.52 159.23C32.32 159.22 31.96 159.1 31.95 159.11C31.55 160.44 30.35 159.7 29.57 160.01C29.13 160.19 28.52 159.8 28.14 160.37C27.72 160.09 27.29 159.8 26.62 159.35V159.35ZM27.96 57.38C27.63 57.7 27.5 57.82 27.42 57.89C27.86 58.21 28.28 58.75 28.76 58.82C30.99 59.15 32.67 61.35 32.13 63.82C31.88 64.97 32.09 65.84 32.51 66.79C33.16 68.24 33.58 69.66 32.51 71.15C32.3 71.44 32.52 72.03 32.53 72.48C32.54 73.17 32.17 73.49 31.52 73.82C31.23 73.97 30.91 74.59 31 74.87C31.31 75.86 30.72 76.43 30.26 77.12C30.02 77.49 29.88 77.99 29.88 78.43C29.9 79.23 30.22 80.04 30.11 80.81C30.03 81.37 29.58 82.13 29.09 82.34C27.14 83.17 25.47 84.64 23.24 84.89C22.35 84.99 21.49 85.42 20.61 85.64C20.27 85.73 19.89 85.65 19.31 85.65C18.6 86.3 17.68 87.1 16.8 87.95C15.64 89.06 14.18 88.8 12.79 88.89C12.61 88.9 12.35 88.79 12.27 88.87C11.54 89.62 11.4 88.94 11.12 88.45C10.63 87.61 8.99999 87.47 8.56999 88.27C8.40999 88.1 8.14999 87.96 8.13999 87.79C7.89999 85.55 5.98999 83.73 6.54999 81.3C5.53999 80.01 6.58999 79.07 7.17999 77.88C6.97999 77.81 6.70999 77.71 6.44999 77.62C7.62999 77.03 7.48999 76.25 7.27999 75.5C7.09999 74.84 6.75999 74.22 6.62999 73.55C6.57999 73.31 6.95999 72.99 7.23999 72.56C6.79999 70.52 8.56999 68.89 8.91999 66.94C8.71999 66.71 8.41999 66.52 8.41999 66.33C8.40999 65.98 8.47999 65.58 8.66999 65.29C9.91999 63.34 10.41 61.1 11.16 58.97C11.77 57.26 13.76 55.97 14.87 56.71C15.1 56.86 15.3 57.08 15.55 57.19C15.96 57.37 16.39 57.49 16.82 57.62C17.05 57.69 17.3 57.75 17.54 57.8C17.77 57.85 18.11 58.02 18.22 57.93C19.24 57.1 20.23 56.22 21.48 55.13C23.55 55.17 25.41 56.89 27.96 57.38V57.38ZM171.23 163.5C170.96 165.66 170.31 166.35 168.41 166.36C167.77 166.36 167.14 166.53 166.5 166.56C166 166.58 165.47 166.81 165.12 166.07C164.95 165.7 164.29 165.57 163.77 165.28C163.57 164.45 163.3 163.51 163.13 162.55C162.95 161.55 162.88 160.52 162.74 159.4C162.23 159.85 161.79 160.24 161.31 160.66C160.97 160.4 160.64 160.17 160.44 160.01C160.05 160.66 159.72 161.2 159.3 161.87C158.93 161.41 158.62 160.95 158.23 160.58C157.94 160.32 157.51 160.22 157.18 159.99C156.74 159.68 156.16 159.39 155.98 158.95C155.57 157.96 155.55 156.83 154.53 156.11C154.09 155.8 154.2 152.65 154.69 152.2C155.92 151.07 155.99 149.45 156.6 148.07C157.02 147.11 157.48 146.17 157.97 145.25C158.03 145.13 158.34 145.14 158.53 145.07C158.73 144.99 158.92 144.87 159.11 144.78C159.07 144.7 159.03 144.61 158.99 144.53C158.8 144.63 158.61 144.74 158.26 144.92C158.44 144.13 158.39 143.33 158.76 142.88C159.81 141.61 161.03 140.47 162.19 139.29C163.05 138.42 163.93 137.56 164.8 136.69C165.24 136.99 165.5 137.17 165.69 137.3C166.36 136.58 167 135.91 167.62 135.23C168.57 134.19 169.94 134.21 171.15 133.96C171.5 133.89 172.06 134.78 172.61 135.31C173.03 135.04 173.58 134.5 174.22 134.32C174.88 134.13 175.63 134.32 176.35 134.29C177.14 134.26 177.94 134.09 178.73 134.14C179.06 134.16 179.39 134.55 179.67 134.83C179.78 134.93 179.74 135.17 179.79 135.34C180.25 137.01 180.94 138.67 181.09 140.37C181.19 141.45 181.49 142.88 180.26 143.68C180.95 146.06 181.76 148.36 182.27 150.73C182.74 152.91 183.5 155.06 183.01 157.4C182.57 159.47 181.69 160.24 179.49 159.83C178.98 160.85 178.23 161.6 177 161.74C176.87 161.76 176.71 161.93 176.64 162.07C176.1 163.05 176.1 163.05 174.73 163.81C174.69 163.83 174.66 163.89 174.64 163.93C174.22 164.95 173.45 165.11 172.58 164.39C172.2 164.07 171.77 163.85 171.23 163.5V163.5ZM87.38 164.84C86.92 164.55 86.44 164.02 86 164.04C85.62 164.06 85.28 164.72 84.77 165.24C83.7 164.29 82.5 163.23 81.2 162.08C80.71 163.5 79.4 163.42 78.34 163.79C78.15 163.86 77.99 164.03 77.8 164.08C77.02 164.29 76.23 164.49 75.44 164.67C75.27 164.71 75.08 164.65 74.9 164.65C74.22 164.65 73.54 165.34 72.87 164.65C71.83 163.57 70.84 162.47 70.9 160.8C70.96 159.17 70.98 157.54 70.96 155.91C70.94 154.48 70.89 153.04 70.72 151.63C70.68 151.27 70.12 150.97 69.78 150.65C69.1 150.01 68.4 149.38 67.72 148.73C67.63 148.64 67.59 148.47 67.6 148.33C67.64 146.04 70.25 143.98 72.43 144.52C73.56 144.8 74.35 144.45 74.9 143.41C75.64 142.01 77.13 141.67 78.38 141.06C79.15 140.68 79.59 140.46 79.36 139.43C79.03 137.94 80.92 135.21 82.43 134.84C82.75 134.76 83.29 135 83.53 135.27C84.23 136.04 84.99 136.56 86.05 136.81C86.81 136.99 87.44 137.65 88.17 138.03C88.57 138.24 89.08 138.25 89.48 138.46C90.08 138.78 91.07 138.7 90.97 139.84C90.95 140.01 91.31 140.3 91.55 140.41C92.26 140.72 93.05 140.88 93.7 141.28C94 141.47 94.13 142.07 94.16 142.5C94.24 143.49 94.46 144.14 95.61 144.47C96.26 144.66 96.9 145.51 97.19 146.22C98.01 148.23 98.65 150.32 99.35 152.37C99.68 153.34 98.96 155.26 98.34 156.07C97.92 156.63 97.76 157.53 97.78 158.27C97.81 159.74 96.78 160.12 95.75 160.39C94.82 160.63 93.79 161.09 92.89 160.2C92.85 160.16 92.55 160.29 92.47 160.41C92.18 160.81 91.93 161.24 91.67 161.67C91.03 162.75 90.43 163.85 89.74 164.89C89.63 165.05 89.09 165.07 88.85 164.95C88.39 164.72 88 164.34 87.52 163.97C87.37 164.47 87.26 164.82 87.16 165.17C87.2 165.07 87.29 164.95 87.38 164.84V164.84ZM94.23 72.86C93.59 72.38 92.92 71.92 92.29 71.4C91.47 70.74 91.25 69.48 91.8 68.57C92.43 67.52 93.15 66.54 93.75 65.48C94.22 64.65 94.6 63.77 94.94 62.87C95.37 61.73 96.16 61.03 97.27 60.61C97.44 60.55 97.53 60.29 97.66 60.13C97.96 60.38 98.24 60.61 98.44 60.77L100.22 56.98C101.1 57.01 102.04 56.94 102.7 55.69C103.63 53.92 104.83 54.6 105.65 55.62C105.97 56.01 106.53 56.19 106.89 56.55C107.68 57.35 108.27 58.23 108.73 59.33C109.57 61.35 111.21 62.85 112.79 64.38C113.42 64.99 113.72 65.95 114.17 66.75C115 68.23 113.93 69.46 113.37 70.58C113.07 71.19 112.53 71.8 112.21 72.52C111.59 73.87 111.56 75.27 111.48 76.7C111.44 77.32 111.16 77.95 110.89 78.53C110.32 79.77 109.76 81.01 109.04 82.16C108.81 82.52 108.11 82.58 107.57 82.57C106.97 83.09 106.33 83.58 105.78 84.15C105.03 84.92 104.42 84.52 103.8 84C103.58 83.81 103.41 83.56 103.18 83.39C102.74 83.06 102.35 82.62 101.72 83.25C101.39 83.57 100.82 83.79 100.41 82.99C100.29 82.75 99.04 82.69 98.83 82.96C97.6 84.5 96.29 84.31 94.78 83.5C94.29 83.24 93.69 83.15 93.12 83.08C91.17 82.84 89.82 81.19 90.41 79.06C90.83 77.53 91.48 76.47 92.83 75.71C93.18 75.52 93.36 74.98 93.55 74.57C93.8 74 94.01 73.4 94.23 72.86V72.86ZM109.57 137.63C110.08 137.63 110.65 137.61 111.21 137.64C112.02 137.68 112.87 137.8 113.07 138.77C113.48 140.77 114 142.76 114.15 144.79C114.27 146.5 113.92 148.25 113.81 149.99C113.77 150.67 113.8 151.36 113.8 152.21C114.05 152.98 114.37 153.97 114.71 155.05C113.28 156.92 112.19 157.4 111.17 156.5C110.39 157.27 109.36 157.28 108.47 157.04C107.26 156.7 106.83 155.67 107.01 154.33C107.23 154.4 107.44 154.46 107.67 154.53C107.76 154.38 107.85 154.19 107.97 154.01C108.47 153.26 108.28 152.91 107.42 152.67C106.31 152.37 105.29 151.88 104.71 150.81C104.66 150.73 104.81 150.54 104.77 150.62C103.81 150.14 102.89 149.67 101.95 149.23C101.48 149.01 100.87 148.55 100.85 149.87C100.76 149.79 100.67 149.72 100.58 149.64C100.43 148.86 100.28 148.07 100.14 147.29C99.9 145.91 99.78 144.49 99.39 143.16C99.2 142.52 98.74 141.6 97.6 142.32C97.4 142.45 96.3 141.67 96.33 141.59C96.8 140.38 95.7 139.64 95.53 138.64C95.44 138.12 95.28 137.61 95.07 137.13C94.96 136.86 94.67 136.67 94.5 136.41C94.21 135.95 93.85 135.5 93.71 134.99C93.62 134.65 93.83 134.22 93.94 133.84C94.24 132.78 94.56 131.72 94.93 130.43C94.78 129.83 94 128.87 95.54 128.33C95.82 128.23 96.1 127.59 96.07 127.22C95.94 125.35 97.7 125.44 98.62 124.67C98.96 124.38 99.38 124.17 99.67 123.84C100.12 123.32 102.12 123.25 102.54 123.82C103.84 125.59 105.24 127.3 106.37 129.18C107.38 130.84 108.08 132.69 108.92 134.46C109.18 135 109.5 135.52 109.65 136.09C109.77 136.48 109.63 136.94 109.57 137.63V137.63ZM66.7 77.26C66.47 76.72 66.2 76.25 66.07 75.74C65.93 75.18 66.04 74.53 65.82 74.01C64.74 71.51 65.82 69.29 66.57 67C66.77 66.38 66.73 65.44 67.14 65.19C68.08 64.6 67.96 63.54 68.54 62.84C69.08 62.18 68.83 61.09 69.76 60.58C69.93 60.49 69.68 59.78 69.75 59.37C69.94 58.21 70.96 57.94 71.86 57.67C72.47 57.48 72.69 57.18 72.91 56.6C73.1 56.09 73.6 55.6 74.09 55.31C74.94 54.8 75.87 54.4 76.8 54.05C77.12 53.93 77.28 53.94 77.48 53.53C77.97 52.52 78.74 51.69 80.03 51.6C81.54 51.49 82.85 51.84 83.69 53.17C83.91 53.52 83.91 54.08 83.86 54.53C83.73 55.62 84.37 55.94 85.24 56.04C85.98 56.13 86.61 56.29 86.6 57.22C86.6 57.25 86.62 57.29 86.65 57.32C88.18 58.98 86.86 60.51 86.57 62.16C86.22 64.15 85.05 65.73 84.46 67.55C84.1 68.64 84.38 69.92 84.28 71.11C84.2 72.05 84 72.86 82.97 73.45C82.16 73.91 81.68 74.95 81.07 75.74C80.4 76.61 79.72 76.79 78.79 76.27C78.32 76 77.91 75.63 77.44 75.36C75.47 74.19 75.68 74.49 74.72 76.09C73.87 77.52 73.12 78.24 71.25 78.26C69.93 78.27 69.02 78.07 68.01 77.39C67.65 77.16 67.08 77.29 66.7 77.26V77.26Z" fill="url(#paint0_linear_1230_3300)"/>
<defs>
<linearGradient id="paint0_linear_1230_3300" x1="13" y1="8.00001" x2="178.5" y2="182.5" gradientUnits="userSpaceOnUse">
<stop offset="0.246281" stop-color="#FE7332"/>
<stop offset="1" stop-color="#F8570E"/>
</linearGradient>
</defs>
</svg>
