<svg width="210" height="219" viewBox="0 0 210 219" fill="none" xmlns="http://www.w3.org/2000/svg">
<path d="M151.51 87.42C151.06 88.3 150.59 89.18 150.15 90.07C149.48 91.44 148.93 92.88 148.15 94.19C146.44 97.04 144.71 99.88 142.81 102.6C141.56 104.4 140.05 106.01 138.57 107.64C138.16 108.09 137.48 108.31 136.91 108.61C136.65 108.75 136.31 108.77 136.08 108.95C134.27 110.39 132.34 111.72 130.72 113.35C128.14 115.95 125.04 117.71 121.88 119.4C121.43 119.64 120.95 119.83 120.47 120.01C119.38 120.41 118.77 119.64 118.11 119.01C118 118.9 117.82 118.86 117.58 118.73C117.33 120.22 117.27 121.69 116.81 123.01C115.51 126.75 116.19 130.76 115.07 134.51C114.69 135.78 114.22 137.04 114.06 138.35C113.82 140.31 113.76 142.3 113.72 144.29C113.7 145.22 113.94 146.15 114 147.09C114.02 147.37 113.81 147.66 113.77 147.95C113.68 148.58 113.51 149.23 113.57 149.85C113.69 151.18 113.79 152.36 112.34 153.17C111.71 153.52 111.21 154.27 110.9 154.95C110.43 155.97 108.98 156.3 109.07 157.78C109.09 158.07 107.88 158.46 107.2 158.72C107.05 158.78 106.76 158.46 106.47 158.27C105.91 159.69 104.73 158.29 103.81 158.61C103.44 158.74 102.95 158.63 102.64 158.82C100.95 159.87 99.43 159.38 97.93 158.41C97.34 158.03 96.6899 157.75 96.0999 157.37C95.8499 157.21 95.68 156.92 95.4 156.59C94.53 156.72 93.7899 156.05 93.2699 154.56C93.1399 154.18 92.7799 153.87 92.5599 153.51C92.2899 153.08 91.9999 152.66 91.7799 152.2C90.2199 148.86 90.36 145.27 90.25 141.71C90.18 139.51 90.2 137.31 90.11 135.12C90.09 134.6 89.8899 134.02 89.5899 133.61C88.9399 132.73 88.7899 131.85 88.8799 130.74C89.1299 127.52 89.8999 124.34 89.3499 121.04C89.0399 119.2 89.1899 117.27 89.3099 115.39C89.3599 114.63 89.87 113.9 90.18 113.15C90.29 113.18 90.4099 113.2 90.5199 113.23C90.3499 113 90.17 112.78 89.93 112.46C90.25 112.48 90.5 112.49 90.76 112.5C90.74 112.33 90.77 112.2 90.72 112.17C90 111.67 89.9 110.53 90.47 109.62C90.64 109.35 90.66 108.98 90.73 108.66C90.86 108.07 90.84 107.4 91.12 106.89C92.33 104.59 93.4799 102.21 96.0599 101.08C96.6199 100.84 97.24 100.74 97.8 100.51C98.11 100.38 98.37 100.13 98.66 99.93C98.8 100.13 98.93 100.33 99.08 100.56C100.18 98.38 102.34 97.82 104.25 96.9C106.23 95.95 108.21 95.01 110.18 94.05C111.42 93.44 112.66 92.86 113.85 92.16C116.69 90.48 119.04 88.24 120.94 85.54C122.32 83.59 123.77 81.69 125.11 79.72C125.46 79.2 125.45 78.44 125.7 77.83C126.99 74.69 127.99 71.44 128.06 68.07C128.09 66.76 127.16 65.2 126.23 64.14C124.73 62.42 122.66 61.88 120.36 62.54C117.85 63.26 115.44 64.09 113.31 65.72C111.9 66.81 110.23 67.57 108.61 68.36C108.03 68.64 107.27 68.56 106.59 68.63C106.34 68.66 106.02 68.55 105.85 68.67C104.19 69.88 102.51 69.56 100.79 68.82C98.75 67.94 96.68 67.13 94.66 66.19C94.23 65.99 94.0499 65.32 93.6399 65.02C93.2999 64.78 92.79 64.78 92.29 64.65C92.46 64.15 92.5899 63.77 92.8099 63.11L91.23 63.55C90.35 62.78 89.37 61.96 88.43 61.1C86.77 59.56 86.37 57.35 85.58 55.37C85.31 54.69 85.75 53.81 87.12 54.07C85.79 52.01 87.6799 50.93 88.1399 49.44C88.7399 47.52 89.89 46.01 91.55 44.82C92 44.5 91.9699 43.54 92.3899 43.11C93.6899 41.77 95.08 40.52 96.47 39.27C98.05 37.85 99.61 36.51 101.76 35.83C103.68 35.22 105.31 33.7 107.23 33.06C109.23 32.4 111.42 32.32 113.53 31.98C113.83 31.93 114.16 31.92 114.4 31.77C116.94 30.26 119.67 30.76 122.33 31.11C124.24 31.36 126.15 31.86 127.97 32.53C129.26 33 130.36 33.98 131.6 34.64C132.59 35.17 133.69 35.49 134.7 36C135.48 36.4 136.25 36.87 136.91 37.45C138.5 38.85 140.09 40.25 141.55 41.78C142.73 43.03 143.71 44.48 144.8 45.82C145.41 46.58 146.16 47.25 146.68 48.06C147.76 49.79 148.96 51.5 149.67 53.38C150.92 56.68 151.96 60.07 152.12 63.65C152.17 64.74 152.04 65.85 152.16 66.94C152.44 69.56 152.83 72.17 153.17 74.78C153.2 74.99 153.28 75.23 153.21 75.41C152.63 76.78 152.71 78.06 153.58 79.28C152.86 81.97 152.18 84.7 151.51 87.42V87.42ZM96.08 55.65C96.28 55.7 96.4799 55.74 96.6699 55.79C96.8599 55.02 97.05 54.25 97.25 53.48C97.05 53.43 96.85 53.38 96.66 53.34C96.47 54.11 96.27 54.88 96.08 55.65ZM100.16 196.4C99.89 196.25 99.65 196.04 99.36 195.95C97.88 195.53 96.7799 194.64 95.8499 193.43C95.2499 192.66 94.42 192.07 93.8 191.31C92.27 189.47 92.0099 187.27 92.1699 184.99C92.2699 183.66 92.23 182.25 92.68 181.03C93.42 179.03 94.4699 177.15 95.4499 175.24C95.9199 174.33 96.5299 173.49 97.0599 172.61C97.5099 171.86 98.15 171.8 98.86 172.14C99.61 172.49 100.02 172.34 100.02 171.81C100.86 171.59 101.56 171.5 102.17 171.22C104.42 170.2 106.37 171 108.39 172C109.49 172.55 110.39 173.4 111.79 173.61C112.87 173.77 113.94 174.96 114.73 175.92C116.37 177.91 117.46 180.19 117.5 182.84C117.51 183.25 117.31 183.67 117.24 184.09C117.03 185.29 116.85 186.5 116.62 187.7C116.54 188.11 116.43 188.56 116.2 188.9C114.56 191.24 112.44 192.95 109.85 194.26C107.51 195.45 105.06 195.95 102.54 196.33C101.93 196.42 101.31 196.44 100.69 196.5C100.5 196.49 100.33 196.45 100.16 196.4Z" fill="url(#paint0_linear_1230_3319)"/>
<path d="M14.99 49.7402C13.53 50.5602 12.59 52.1402 12.3 53.7802C11.79 56.6702 13.63 60.0602 16.54 60.3802C18.87 60.6402 20.95 59.0202 22.71 57.4802M22.57 57.6102C25.78 54.9702 29.26 52.2102 33.4 51.8302C36.4 51.5602 39.43 52.6302 41.82 54.4502C44.21 56.2702 45.99 58.8102 47.24 61.5502C49.06 65.5502 49.69 70.4902 47.3 74.1802C45.73 76.6102 43.05 78.1602 40.27 78.9402C37.49 79.7202 34.56 79.8202 31.66 79.9202M31.93 80.0102C31.37 79.9502 30.85 80.3902 30.64 80.9102C30.43 81.4302 30.45 82.0102 30.48 82.5702C30.82 87.9902 32.12 93.3502 34.29 98.3302M34.78 98.2202C35.65 98.5602 36.61 98.6902 37.54 98.5902C39.14 98.4202 40.67 97.5602 41.58 96.2402M41.12 96.0302C41.1 93.4502 40.73 90.8602 40.04 88.3702" stroke="black" stroke-width="1.5" stroke-miterlimit="10" stroke-linecap="round" stroke-linejoin="round"/>
<path d="M14.36 49.4601C19.92 45.0501 26.21 41.2101 33.21 40.0701C40.22 38.9301 48.05 40.9201 52.49 46.4601C54.15 48.5301 55.27 50.9701 56.23 53.4401C57.39 56.4101 58.35 59.4501 59.1 62.5501C59.84 65.6101 60.37 68.8101 59.7 71.8801C59.34 73.5101 58.66 75.0501 57.86 76.5101C55.33 81.1501 51.39 85.2901 46.3 86.7301C44.08 87.3601 41.66 87.4701 39.69 88.6601M40.61 109.65C38.4 110.26 36.57 112.09 35.97 114.3C35.37 116.51 36.01 119.02 37.61 120.66C38.63 121.71 40.03 122.41 41.49 122.49C44.28 122.63 46.87 120.33 47.4 117.59C47.93 114.85 46.6 111.93 44.4 110.22C43.29 109.36 41.84 108.74 40.49 109.15C39.4 109.47 38.58 110.43 38.23 111.51M170.25 114.59C174.75 112.09 181.67 113.68 185.96 116C190.95 118.7 193.73 124.67 193.94 130.22M169.86 114.82C169.65 114.82 169.44 114.81 169.22 114.81C168.05 117.58 168.62 121 170.63 123.23M171.24 123.99L175.9 124.5C177.21 124.64 178.53 124.79 179.76 125.25C180.99 125.71 182.14 126.53 182.72 127.71C183.57 129.43 183 131.63 181.67 133.02C180.34 134.41 178.39 135.06 176.48 135.2C174.56 135.34 172.65 135.01 170.76 134.68C169.93 134.54 169.1 134.39 168.28 134.25" stroke="black" stroke-width="1.5" stroke-miterlimit="10" stroke-linecap="round" stroke-linejoin="round"/>
<path d="M168.34 134.2C167.58 134.27 166.95 134.88 166.64 135.58C166.33 136.28 166.27 137.06 166.21 137.82C165.78 144.29 165.66 150.78 165.86 157.26M165.57 157.27C166.24 158.9 168.05 159.88 169.82 159.9C171.58 159.92 173.27 159.12 174.67 158.05M174.68 157.88C174.97 154.26 175.39 150.65 175.93 147.06M176.07 146.87C178.59 146.51 181.09 145.92 183.51 145.13C184.88 144.68 186.24 144.16 187.4 143.31C188.79 142.3 189.82 140.87 190.67 139.38C192.31 136.53 193.4 133.36 193.85 130.1C193.94 129.47 194 128.82 193.78 128.22M171.87 172.29C170.29 171.04 167.8 171.41 166.39 172.85C164.98 174.28 164.57 176.51 165.01 178.47C165.2 179.34 165.57 180.22 166.27 180.78C166.8 181.21 167.48 181.41 168.16 181.49C169.9 181.69 171.71 181.07 172.97 179.85C173.596 179.235 174.08 178.49 174.388 177.667C174.695 176.845 174.819 175.965 174.75 175.09C174.65 173.92 174.16 172.74 173.22 172.04C171.56 170.79 169.2 171.39 167.27 172.17M174.7 43.3699C175.14 42.2599 176.18 41.4599 177.32 41.0899C178.46 40.7299 179.69 40.7599 180.87 40.9499C183.76 41.4099 186.64 42.9099 188.03 45.4799C189.43 48.0499 188.88 51.7299 186.39 53.2799C185.53 53.8199 184.52 54.0699 183.53 54.3099C182.22 54.6299 180.9 54.9599 179.59 55.2799M179.6 54.8299C179.32 57.4399 180.09 60.1399 181.72 62.1999M184.22 70.0299C184.46 70.0099 184.18 69.5799 183.99 69.7399C183.8 69.8999 183.87 70.1999 183.96 70.4299C184.29 70.6699 184.85 70.4299 184.91 70.0299C184.97 69.6199 184.5 69.2399 184.11 69.3799C183.72 69.5199 183.6 70.1099 183.9 70.3899C184.34 70.2699 184.67 69.8399 184.67 69.3799C184.01 69.3699 183.46 70.1199 183.68 70.7499C183.88 70.3299 184.08 69.8999 184.28 69.4799M52.28 174.01C53.63 171.89 56.63 171.01 58.91 172.07C59.06 172.14 59.21 172.22 59.31 172.35C59.44 172.53 59.46 172.76 59.47 172.98C59.5 173.52 59.52 174.08 59.31 174.57C59.12 175.02 58.75 175.38 58.45 175.77C57.37 177.17 57.13 179.17 57.85 180.79M59.87 188.61V188.19" stroke="black" stroke-width="1.5" stroke-miterlimit="10" stroke-linecap="round" stroke-linejoin="round"/>
<path d="M63.71 10.6998C65.22 10.6398 66.71 10.2798 68.08 9.63982M62.92 10.6798C62.91 12.2698 63.07 13.8598 63.42 15.3998C63.51 15.7898 63.63 16.2098 63.97 16.4198C64.2 16.5598 64.48 16.5798 64.75 16.5898C66.34 16.6498 67.93 16.6098 69.51 16.4698C69.81 16.4398 70.15 16.3998 70.35 16.1598C70.55 15.9198 70.53 15.5698 70.5 15.2598C70.29 13.1998 70.09 11.1298 69.88 9.06982M152.1 203.88C151.49 204.35 150.97 204.95 150.59 205.62C151.34 205.63 151.28 206.79 151.7 207.41C152.08 207.98 152.94 208.04 153.55 207.73C154.16 207.42 154.58 206.84 154.97 206.29C154.33 205.47 153.69 204.65 153.05 203.82" stroke="#1D1D1B" stroke-width="1.5" stroke-miterlimit="10"/>
<defs>
<linearGradient id="paint0_linear_1230_3319" x1="66.5" y1="17" x2="139" y2="219.5" gradientUnits="userSpaceOnUse">
<stop offset="0.167391" stop-color="#FF81F2"/>
<stop offset="1" stop-color="#FF01B0"/>
</linearGradient>
</defs>
</svg>
