<svg width="181" height="184" viewBox="0 0 181 184" fill="none" xmlns="http://www.w3.org/2000/svg">
<path d="M14.5601 101.5C14.6101 101.39 14.6801 101.29 14.6901 101.18C14.9501 98.7498 15.1501 96.3098 15.4801 93.8898C15.6101 92.9398 15.6201 91.9698 15.8801 91.0298C16.1401 90.0798 16.3901 89.1098 16.5501 88.1398C16.9301 85.7898 17.6001 83.5298 18.4801 81.3298C19.5101 78.7498 20.5401 76.1598 21.5701 73.5798C21.6601 73.3598 21.8301 73.1698 21.9001 72.9498C21.9901 72.6998 22.1401 72.3698 22.0401 72.1998C21.7901 71.7498 21.9701 71.4398 22.1501 71.0598C22.2301 70.8998 22.1401 70.5798 22.0201 70.4198C21.7001 69.9798 21.5201 69.5998 21.9601 69.0998C22.1001 68.9398 22.0401 68.5898 22.0801 68.1998C22.5301 68.1498 23.0701 68.0898 23.6201 68.0398C24.6501 67.9298 25.6901 67.6998 26.7201 67.7398C28.6101 67.8098 30.4801 68.1498 32.3701 68.1698C34.1501 68.1798 35.8001 68.6998 37.5101 69.0098C37.7801 69.0598 38.0201 69.2898 38.2801 69.4098C39.4201 69.9298 40.5601 70.4398 41.7001 70.9598C42.5701 71.3598 43.5201 71.6798 44.2901 72.2198C45.6601 73.1898 46.9201 74.3098 48.2301 75.3598C49.0901 76.0498 49.9201 76.7798 50.8201 77.3998C51.4401 77.8298 51.7901 78.2798 51.7701 79.0798C51.7501 80.0298 51.8501 80.9698 50.9101 81.8098C51.5801 81.5798 51.6601 81.7698 51.6901 82.2398C51.7801 83.7098 51.2501 85.1098 51.2101 86.5298C51.1701 87.8198 50.7801 88.9398 50.2601 90.0198C49.4201 91.7898 48.4201 93.4898 47.4801 95.2398C48.2301 95.3798 48.0201 96.1698 48.2701 96.7098C48.3701 96.9298 48.5301 97.1098 48.6401 97.3298C48.8301 97.7198 49.0001 98.1298 49.1901 98.5198C49.4901 99.1198 48.9401 99.2098 48.6501 99.4798C48.0801 100.01 47.5701 100.6 46.9701 101.1C46.4401 101.55 45.8801 102.05 45.2501 102.28C43.3001 102.99 41.3201 103.63 39.3301 104.2C38.4601 104.45 37.5101 104.42 36.6101 104.54C36.2101 104.59 35.8101 104.8 35.4201 104.78C34.1801 104.7 32.9501 104.53 31.7101 104.44C31.1601 104.4 30.6001 104.49 30.0501 104.48C28.2001 104.45 26.3401 104.47 24.5001 104.35C23.6801 104.3 22.8801 103.97 22.0701 103.77C20.9401 103.5 19.8101 103.16 18.6601 103.02C18.0501 102.94 17.3801 103.36 16.7601 103.29C16.0201 103.21 15.2201 103.13 14.5801 102.64C14.5701 102.26 14.5701 101.88 14.5601 101.5V101.5ZM29.3901 97.4198C29.7801 97.6198 30.1401 97.7498 30.4301 97.9698C31.5201 98.8098 32.7301 99.0498 34.0701 98.7798C34.5501 98.6898 34.9501 98.5198 34.8701 97.9698C34.8001 97.4998 34.5801 97.0698 33.9801 97.4898C33.8901 96.8598 33.8101 96.2898 33.7201 95.6398C32.3501 96.1298 32.8901 94.5398 32.1101 94.3598C31.2101 95.3698 30.3101 96.3798 29.3901 97.4198ZM21.1101 92.1798C20.9501 93.6498 20.7701 95.2798 20.5901 96.9098C21.1401 97.2698 21.4501 96.8498 21.7501 96.4998C22.3101 95.8498 22.8701 95.1998 23.3801 94.5098C23.5301 94.3098 23.6301 93.8798 23.5201 93.7298C23.2401 93.3498 22.8501 93.0298 22.4501 92.7798C22.0301 92.5198 21.5501 92.3698 21.1101 92.1798V92.1798ZM33.8501 73.7698C32.0401 73.5998 30.4501 73.4398 28.8501 73.2998C28.7001 73.2898 28.4701 73.2898 28.3901 73.3798C27.8801 73.9098 27.4101 74.4698 26.9201 75.0298C26.9401 75.0898 26.9601 75.1398 26.9801 75.1998C27.5901 74.8998 28.1401 74.8898 28.5901 75.5198C28.6601 75.3298 28.7001 75.2398 28.7401 75.1398C29.3001 75.5498 29.3001 74.8098 29.6201 74.7198C29.8501 74.6498 30.0901 74.5398 30.3101 74.5598C30.8301 74.6298 31.3501 74.7898 31.8701 74.8898C32.0501 74.9198 32.2801 74.9698 32.4101 74.8798C32.8601 74.5798 33.2701 74.2198 33.8501 73.7698V73.7698ZM45.3301 82.9398C46.1901 82.8098 46.7401 82.4098 46.7901 81.5498C46.8401 80.6098 45.8501 80.6098 45.3601 79.8498C45.1201 80.4498 44.8101 80.8698 44.8301 81.2698C44.8501 81.8298 45.1401 82.3698 45.3301 82.9398ZM41.0201 76.5298C40.5201 76.2398 40.0501 75.9698 39.4901 75.6498C39.5401 76.3598 39.5801 76.9498 39.6301 77.6098C39.9101 77.3898 40.0701 77.2598 40.2401 77.1298C40.4301 77.2798 40.5901 77.3998 40.8401 77.5998C40.9101 77.2098 40.9601 76.8998 41.0201 76.5298ZM117.6 172.89C117.35 172.05 116.66 171.6 116.06 171.03C114.69 169.71 112.83 169.77 111.23 169.13C109.57 168.47 107.98 167.73 106.62 166.54C105.91 165.92 105.11 165.41 104.41 164.79C104.09 164.51 103.96 164.03 103.66 163.71C103.3 163.32 102.81 163.05 102.48 162.64C101.82 161.83 101.19 160.99 100.64 160.11C100.05 159.16 100.48 158.14 101.53 157.76C101.78 157.67 102.03 157.55 102.28 157.45C102.29 157.36 102.29 157.28 102.3 157.19C101.64 157.03 100.98 156.83 100.31 156.71C99.8601 156.62 99.2101 155.59 99.2701 154.98C99.2783 154.889 99.2674 154.798 99.2381 154.712C99.2088 154.626 99.1618 154.547 99.1001 154.48C99.0601 154.66 99.0201 154.84 98.9701 155.02H98.7801C98.7601 154.86 98.6901 154.69 98.7401 154.56C99.4001 152.66 99.9701 150.73 100.77 148.89C101.47 147.28 102.37 145.74 103.28 144.23C104.08 142.9 105.25 141.92 106.66 141.22C107.08 141.01 107.45 140.7 107.82 140.41C108.68 139.72 109.79 139.85 110.76 139.53C110.97 139.46 111.23 139.54 111.59 139.56C111.7 139.63 111.92 139.85 112.17 139.93C112.31 139.97 112.6 139.81 112.68 139.67C113.05 138.97 113.54 138.71 114.29 139C114.96 139.26 115.6 139.59 116.3 139.92C116.39 139.83 116.56 139.67 116.74 139.5C118.12 139.96 118.48 140.32 118.42 141.15C119 141.42 119.54 141.67 119.63 142.47C119.72 143.27 120.5 143.25 121.02 143.24C123.27 143.21 125.45 143.65 127.59 144.23C127.88 144.31 128.79 144.38 128.49 145.29C128.43 145.47 128.86 145.78 128.96 146.06C129.17 146.64 129.31 147.24 129.5 147.9C130.16 147.89 130.14 148.51 130.2 149.03C130.39 150.68 130.56 152.33 130.69 153.99C130.74 154.56 130.64 155.14 130.62 155.72C130.61 156.1 130.63 156.48 130.61 156.86C130.55 157.86 130.48 158.86 130.42 159.85C130.4 160.15 130.36 160.48 130.43 160.77C131.05 163.12 130.35 165.11 128.81 166.87C127.87 167.94 126.88 168.96 125.92 170.01C125.8 170.15 125.76 170.37 125.63 170.48C125.46 170.62 125.15 170.83 125.02 170.77C124.62 170.56 124.52 170.58 124.28 171.03C123.74 172.01 122.7 172.27 121.66 172.43C121.21 172.5 120.76 172.55 120.3 172.6C120.08 172.62 119.84 172.68 119.65 172.61C119.16 172.42 118.81 172.61 118.48 172.92C118.18 172.89 117.89 172.89 117.6 172.89V172.89ZM106.58 152.99C106.63 152.92 106.68 152.86 106.74 152.79C106.29 152.46 105.84 152.12 105.41 151.8C104.83 153.44 104.29 154.98 103.74 156.56C104.03 156.56 104.26 156.48 104.41 156.56C104.83 156.78 105 156.63 105.25 156.27C105.59 155.77 106.07 155.37 106.48 154.92C106.91 154.45 107.33 153.97 107.87 153.37C107.33 153.22 106.95 153.1 106.58 152.99ZM116.97 149.79C116.98 149.7 116.99 149.54 117 149.39C117.24 149.35 117.46 149.31 117.91 149.24C117.31 148.68 116.85 148.25 116.39 147.83C116.16 148.01 115.98 148.09 115.93 148.22C115.78 148.62 115.51 149.08 115.61 149.43C115.74 149.88 116.24 149.76 116.64 149.62C116.72 149.59 116.83 149.71 116.97 149.79V149.79ZM122.66 148.93C122.6 149.02 122.55 149.11 122.49 149.2C123.3 149.73 124.1 150.27 124.79 150.72C124.72 150.31 124.61 149.72 124.5 149.07C123.91 149.02 123.28 148.98 122.66 148.93V148.93ZM48.7901 45.2998C48.4301 44.9298 48.1401 44.7298 47.9901 44.4598C47.0701 42.8198 46.2601 41.1598 46.1301 39.2198C46.0401 37.8398 45.7001 36.4798 45.5801 35.0898C45.5001 34.1998 45.6401 33.2998 45.6501 32.3998C45.6601 31.7198 45.5701 31.0398 45.6201 30.3598C45.6501 29.8798 45.8201 29.4098 45.9501 28.8198C45.1801 28.2898 45.3701 26.8298 44.3201 26.1298C44.4301 25.9898 44.6001 25.7798 44.7701 25.5698C44.7401 25.5398 44.7201 25.4998 44.6901 25.4698C44.5701 25.5198 44.4501 25.5598 44.3301 25.6098C44.2601 25.5598 44.2001 25.5098 44.1301 25.4598C44.4401 24.9698 44.6501 24.3798 45.0701 24.0198C46.6201 22.6798 48.2101 21.3898 49.8301 20.1198C50.4101 19.6598 51.1301 19.3798 51.7301 18.9398C52.2701 18.5398 52.7201 18.0298 53.2201 17.5798C53.3501 17.4598 53.5401 17.4098 53.6801 17.2998C54.1101 16.9798 54.5201 16.6398 54.9501 16.3198C55.3401 16.0298 55.7501 15.7798 56.1401 15.4898C56.7101 15.0598 57.2501 14.5998 57.8101 14.1698C58.4801 13.6598 59.1501 13.1698 59.8301 12.6798C60.2901 12.3498 60.8001 12.0898 61.2101 11.7198C61.9201 11.0898 62.3701 11.0098 63.0901 11.4198C63.5001 11.0598 63.8401 10.6898 64.2501 10.4198C64.5801 10.2098 65.0101 10.1698 65.3501 9.96976C66.5101 9.29976 67.7901 9.54976 69.0301 9.44976C69.0501 9.44976 69.0801 9.43976 69.1001 9.44976C70.4801 10.0698 72.0401 10.1998 73.3301 11.1198C74.3101 11.8098 75.4201 12.3098 76.4801 12.8998C76.6001 12.9698 76.7201 13.0498 76.8201 13.1398C77.7301 13.9898 78.6901 14.7798 79.5201 15.6998C80.3401 16.6098 81.0301 17.6498 81.7601 18.6398C82.1101 19.1098 82.4201 19.5998 82.7501 20.0798C83.2001 20.7398 83.6201 21.3798 83.9001 22.1698C84.2501 23.1498 84.9901 23.9898 85.5601 24.8998C85.6101 24.9898 85.5701 25.1298 85.5701 25.4498C86.0901 25.1398 86.5601 24.8598 87.0401 24.5598L87.2101 24.9198C87.3401 24.6498 87.4301 24.4698 87.5101 24.3198C88.3601 24.2498 88.6601 24.7998 89.0801 25.3798C89.4901 25.9498 90.1301 26.3198 90.3601 27.0798C90.5901 27.8498 91.0501 28.5598 91.2701 29.3298C91.6001 30.4498 91.8301 31.5898 92.0601 32.7398C92.1401 33.1398 92.1201 33.5698 92.0701 33.9698C92.0401 34.1798 91.8001 34.3498 91.7301 34.5598C91.5901 34.9598 91.4701 35.3698 91.4001 35.7798C91.2501 36.6498 91.2401 37.5198 90.9201 38.3898C90.6101 39.2298 90.7901 40.0898 91.2401 40.9698C92.1601 42.7398 92.8001 44.6298 93.1201 46.6098C93.2901 47.6898 92.7701 48.5398 92.0601 49.2598C91.9301 49.3998 91.5701 49.3298 91.3201 49.3398C90.7001 49.3598 90.1001 49.1298 89.4401 49.3298C89.1301 49.4298 88.6001 49.2898 88.3701 49.0598C87.7301 48.4198 87.3501 49.0298 87.0601 49.3398C85.7001 50.7598 84.2201 52.0198 82.5501 53.0698C81.5501 53.6898 80.6301 54.4398 79.6001 55.0198C78.7501 55.4998 77.8101 55.8198 76.8901 56.1798C75.8901 56.5698 74.9101 57.0498 73.8701 57.2698C72.1701 57.6398 70.4401 57.9398 68.7101 58.0598C67.4401 58.1498 66.1401 57.8798 64.8501 57.7998C64.2701 57.7698 63.6601 57.9998 63.1301 57.5298C62.2201 56.7298 61.2801 55.9698 60.3501 55.1898C60.2101 55.0698 60.0801 54.9298 59.9301 54.8198C57.7301 53.2198 55.5101 51.6498 53.3401 50.0198C52.7001 49.5398 52.2201 48.8598 51.6201 48.3198C51.0801 47.8298 50.4701 47.4198 49.9401 46.9098C49.5201 46.4998 49.1701 46.0198 48.8301 45.5498C48.7401 45.4698 48.7901 45.2598 48.7901 45.2998V45.2998ZM55.3601 27.2998C55.6101 27.0098 56.0701 27.2698 56.2401 26.7898C56.4801 26.0898 56.9201 25.4598 57.1301 24.7598C57.6101 23.1698 58.5001 21.8398 59.4901 20.5498C59.8601 20.0698 60.1801 19.5398 60.5201 19.0298L60.3601 18.8998C58.4001 20.4198 56.4201 21.9298 54.4701 23.4698C52.5101 25.0198 50.5801 26.5998 48.6401 28.1698C48.6701 28.2298 48.7001 28.2798 48.7201 28.3398C49.1901 28.3298 49.6601 28.3298 50.1301 28.3198C49.8501 27.2998 51.6201 25.8098 52.8301 26.0398C52.7501 26.2198 52.6601 26.4098 52.5801 26.5898C53.0001 26.2498 53.3301 26.1598 53.7401 26.5198C53.6601 26.3398 53.5801 26.1498 53.5001 25.9598C54.5001 25.9798 55.2001 26.4798 55.3601 27.2998ZM59.3101 47.9598C59.4601 47.5098 59.4801 46.8698 59.7501 46.7398C60.4201 46.4198 59.8701 46.2598 59.7501 46.0798C59.4701 45.6698 59.1601 45.2798 58.8401 44.8898C58.0901 43.9998 56.2701 43.7298 54.9301 44.3798C56.4001 45.5998 57.8401 46.7598 59.3101 47.9598V47.9598ZM85.7001 42.9798C85.8201 42.6498 85.9801 42.4498 85.9401 42.3098C85.6701 41.3698 85.3901 40.4298 85.0501 39.5098C84.9701 39.2898 84.6601 39.0198 84.4401 38.9998C84.0201 38.9598 83.4501 38.7198 83.2901 39.4598C83.2101 39.8598 83.0801 40.2498 82.9701 40.6398C83.9601 41.2598 85.1501 41.5798 85.7001 42.9798ZM47.5601 155.96C47.1401 155.94 46.9401 155.93 46.8501 155.92C46.6701 155.52 46.5101 155.19 46.3601 154.85C46.3101 154.73 46.2101 154.58 46.2401 154.47C46.3901 153.71 46.6001 152.96 46.7101 152.2C46.7601 151.85 46.5901 151.47 46.5701 151.1C46.5501 150.62 46.5901 150.14 46.6201 149.66C46.6501 149.23 46.6101 148.78 46.7401 148.39C47.2301 146.89 47.6701 145.35 48.3401 143.92C49.1201 142.26 49.6801 140.61 49.7601 138.75C49.8401 137.05 50.2301 135.37 50.4801 133.67C50.5401 133.25 50.5501 132.82 50.6401 132.41C50.8501 131.39 51.0201 130.35 51.3601 129.37C51.5101 128.93 52.0201 128.62 52.3701 128.25C52.4301 128.19 52.5301 128.17 52.5801 128.1C53.1801 127.42 53.7601 126.72 54.3801 126.06C54.6601 125.76 55.1601 125.61 55.3301 125.27C55.5201 124.92 55.9201 124.7 56.0001 124.41C56.1501 123.87 56.4701 123.99 56.8401 123.9C57.7801 123.67 58.6801 123.26 59.6101 122.99C60.7801 122.65 61.9501 122.33 63.1401 122.09C64.0001 121.91 64.8801 121.83 65.7501 121.79C66.6301 121.76 67.5101 121.84 68.4001 121.88C68.8301 121.9 69.2601 121.89 69.6901 121.96C69.9901 122.01 70.2701 122.18 70.5701 122.26C71.1701 122.41 71.7801 122.53 72.3901 122.65C72.5701 122.69 72.7901 122.65 72.9301 122.75C74.4801 123.79 76.2601 123.48 77.9601 123.58C78.4801 123.61 79.0101 123.57 79.5301 123.63C79.7801 123.66 80.0001 123.86 80.3001 124.02C80.2801 124.03 80.4201 123.97 80.5601 123.91C80.5601 124.01 80.6001 124.12 80.5601 124.21C80.3801 124.68 80.6701 125.13 81.1601 125.38C82.4901 126.05 83.7901 126.78 85.1001 127.49C85.1801 127.53 85.2601 127.58 85.4001 127.65C85.4601 127.38 85.4301 127.08 85.5701 126.91C85.7701 126.67 86.0701 126.47 86.3701 126.36C86.6401 126.27 86.9601 126.33 87.3101 126.33C87.4401 126.69 87.5001 126.62 88.1801 126.49C88.7101 126.39 89.3001 126.49 89.8401 126.62C90.0601 126.67 90.2001 127.01 90.5101 126.78C90.6501 127.1 90.8901 127.41 90.9201 127.74C91.0001 128.74 90.7201 129.86 91.0901 130.72C91.6601 132.07 91.3901 133.39 91.4401 134.71C91.4801 135.78 91.2301 136.86 91.0701 137.93C90.9601 138.66 90.8001 139.38 90.6701 140.1C90.4501 141.25 90.2501 142.41 90.0201 143.55C89.8601 144.34 89.6601 145.12 89.4301 145.9C89.3601 146.12 89.1401 146.46 88.9801 146.47C88.3701 146.5 88.3501 146.94 88.2701 147.34C88.0201 148.65 87.7901 149.97 87.5501 151.29C87.5101 151.51 87.3901 151.72 87.3201 151.94C87.1701 152.39 86.8901 152.84 86.9001 153.29C86.9401 155.25 86.4301 157.11 85.9501 158.98C85.6701 160.06 85.3401 161.13 84.9401 162.18C84.8401 162.43 84.4101 162.56 84.1301 162.74C84.1101 162.75 84.0601 162.7 84.0201 162.67C84.0001 162.76 84.0201 162.9 83.9701 162.95C83.6301 163.23 83.3101 163.6 82.9101 163.74C82.0301 164.06 81.1201 164.29 80.2201 164.53C79.2801 164.78 78.3301 165.09 77.3701 165.21C76.3501 165.33 75.3201 165.26 74.2901 165.28C73.4201 165.3 72.5501 165.34 71.6801 165.36C70.1201 165.39 68.5601 165.41 66.9901 165.43C65.8401 165.45 64.6901 165.47 63.5401 165.48C62.0901 165.48 60.6201 165.51 59.4001 164.52C59.1501 164.31 58.8401 164.09 58.7301 163.81C58.4601 163.13 57.9101 162.8 57.3201 162.54C55.6601 161.8 53.9901 161.07 52.3001 160.39C51.5301 160.08 50.6401 160 49.9201 159.61C48.8201 159.01 47.8001 158.25 46.7901 157.5C46.6801 157.42 46.8001 156.93 46.9201 156.68C47.0101 156.43 47.2601 156.26 47.5601 155.96V155.96ZM62.1101 156.09C62.1301 156.02 62.1501 155.95 62.1601 155.88C61.9601 155.78 61.7601 155.69 61.5601 155.58C60.9001 155.23 60.6801 154.74 60.9101 154.04C61.1501 153.29 61.4301 152.55 61.7101 151.73C60.5401 151.9 60.0101 152.95 59.2801 153.61C58.8801 153.97 58.9801 154.88 58.8201 155.7C59.9701 155.84 61.0401 155.96 62.1101 156.09V156.09ZM81.3001 149.11C81.9101 149.22 82.4401 148.91 82.5601 148.33C82.8501 147.04 83.0001 145.72 83.2201 144.32L80.1201 147.24C80.5001 147.48 80.8101 147.69 80.9601 147.78C81.0901 148.3 81.1801 148.66 81.3001 149.11V149.11ZM74.5701 129.86C74.4501 130.45 74.4601 131.02 74.2101 131.43C73.7601 132.15 73.7101 132.87 73.8201 133.55C74.6801 132.87 75.5501 132.17 76.5301 131.39C75.9101 130.92 75.2501 130.39 74.5701 129.86ZM58.2701 146.57C58.6801 145.44 59.4601 144.51 58.9801 143.28C58.5501 144.3 57.5601 145.17 58.2701 146.57ZM67.8101 155.57C68.0101 155.21 68.1901 154.92 68.3401 154.62C68.4101 154.47 68.4401 154.31 68.4901 154.15C68.3301 154.2 68.1601 154.26 68.1001 154.28C68.0001 154 67.9001 153.71 67.8001 153.41C67.7401 153.43 67.6801 153.45 67.6201 153.48C67.6901 154.13 67.7401 154.78 67.8101 155.57Z" fill="url(#paint0_linear_1230_3325)"/>
<path d="M71.54 72.4899C71.35 71.9099 71.19 71.4299 71.02 70.9299C71.17 70.9099 71.3 70.8999 71.45 70.8799C71.42 70.7799 71.42 70.7099 71.39 70.6999C70.74 70.3999 70.6301 69.8599 71.2301 69.5299C72.1001 69.0599 73.03 68.6899 73.94 68.2999C75.32 67.7099 76.7 67.1199 78.09 66.5799C79.37 66.0799 80.6801 65.6399 81.9801 65.1799C83.1901 64.7499 84.43 64.4699 85.63 63.9599C86.94 63.3999 88.34 62.8599 89.86 62.8799C90.3 62.8899 90.73 62.4399 91.2 62.3299C92.6 62.0299 94.03 61.8699 95.41 61.4999C96.23 61.2799 96.87 61.4799 97.6 61.7299C98.63 62.0899 99.75 62.2199 100.53 63.1099C100.92 63.5599 101.3 64.0199 101.7 64.4599C101.95 64.7399 102.18 65.0899 102.49 65.2799C103.48 65.8699 103.78 66.8499 104.04 67.8599C104.2 68.4799 104.33 69.1099 104.4 69.7399C104.43 69.9699 104.14 70.2399 104.17 70.4599C104.26 71.1999 104.4 71.9499 104.58 72.6699C104.69 73.0999 104.92 73.4999 105.08 73.9199C105.26 74.3999 105.39 74.8999 105.59 75.3699C105.89 76.0699 106.28 76.7399 106.53 77.4499C106.99 78.7499 107.37 80.0699 107.8 81.3799C108.66 84.0599 109.25 86.8099 109.21 89.6299C109.19 90.8699 108.88 92.1099 108.66 93.3399C108.53 94.0799 108.35 94.8099 108.15 95.5399C108.01 96.0399 107.78 96.4999 107.66 96.9999C107.63 97.1499 107.87 97.5099 107.95 97.4999C108.48 97.4199 108.55 97.8199 108.63 98.1299C108.69 98.3899 108.72 98.7699 108.57 98.9599C107.75 100.05 106.83 101.06 105.53 101.62C105.25 101.74 104.96 101.88 104.74 102.08C103.45 103.21 101.87 103.77 100.28 104.23C98.43 104.76 96.52 105.09 94.64 105.47C94.08 105.58 93.51 105.62 92.94 105.63C92.76 105.63 92.49 105.47 92.4 105.3C92.18 104.9 91.95 104.93 91.58 105.07C90.1 105.62 88.63 106.24 87.1 106.63C84.58 107.28 82.03 107.87 79.43 107.5C78.74 105.65 79.61 103.98 79.94 102.1C79.95 102.11 79.27 102.27 79.79 101.74C79.61 101.58 79.41 101.44 79.25 101.27C79.04 101.05 78.71 100.8 78.71 100.57C78.71 100.33 79.06 100.1 79.27 99.8599C79.16 99.5799 79.01 99.2299 78.8 98.7399C78.3 98.9599 77.66 99.2399 77.02 99.5399C76.79 99.6499 76.59 99.8199 76.35 99.9299C75.35 100.36 75.05 100.26 74.54 99.3399C74.3 98.8999 74.05 98.5899 73.42 98.7299C72.86 98.8599 72.47 98.5299 72.26 97.9499C71.91 96.9499 71.51 95.9699 71.11 94.9899C70.81 94.2499 70.47 93.5299 70.19 92.7899C69.61 91.2599 68.97 89.7499 68.52 88.1899C68.36 87.6299 67.92 86.9199 68.58 86.2599C68.71 86.1299 68.52 85.6499 68.44 85.3399C67.96 83.5799 67.45 81.8299 67 80.0599C66.68 78.8199 66.3801 77.5599 66.1601 76.2999C66.0401 75.5999 66.08 74.8699 66.11 74.1599C66.13 73.7899 67.28 73.2399 67.65 73.3599C68.29 73.5699 68.97 73.2099 69.36 72.6899C69.56 72.4199 70.05 72.2899 70.43 72.2299C70.75 72.2299 71.09 72.3899 71.54 72.4899V72.4899ZM79.44 75.0999C79.49 75.4199 79.61 75.7299 79.57 76.0099C79.49 76.5599 80.06 76.9799 80.18 76.9199C80.7 76.6799 80.83 77.1399 81.12 77.2899C81.38 77.4199 81.61 77.6099 81.74 77.6999C81.95 77.2999 82.17 76.9699 82.29 76.6099C82.38 76.3199 82.41 75.7399 82.36 75.7199C81.51 75.4999 81.2601 74.8799 81.2301 74.0099C80.5701 74.4199 80 74.7699 79.44 75.0999V75.0999ZM97.15 72.8999C97.1 72.1499 96.52 72.1299 96.23 72.2099C95.77 72.3299 95.33 72.6699 95.11 73.4799C95.91 73.2599 96.53 73.0799 97.15 72.8999ZM92.49 98.2699C92.16 98.3099 91.85 98.2999 91.58 98.4099C91.4 98.4899 91.29 98.7399 91.15 98.9199C91.32 99.0299 91.5 99.2599 91.64 99.2399C91.99 99.1899 92.32 99.0199 92.63 98.9099C92.5945 98.6943 92.5478 98.4806 92.49 98.2699V98.2699Z" fill="#0AC4B4"/>
<path d="M153.29 122.32C154.14 122.71 154.44 123.23 154.02 123.68C153.67 124.06 153.28 124.42 152.87 124.73C151.81 125.52 150.74 126.32 149.63 127.04C147.79 128.24 145.96 129.49 144.02 130.53C142.45 131.37 140.9 132.31 139.1 132.72C137.79 133.02 136.57 133.72 135.27 134.08C133.79 134.5 132.27 134.76 130.76 135.06C129.8 135.25 128.84 135.27 127.85 135.24C127.03 135.21 126.21 135.39 125.4 135.08C125.09 134.96 124.32 133.77 124.3 133.44C124.29 133.15 124.17 132.86 124.16 132.57C124.14 132.12 124.23 131.66 124.13 131.24C124.07 130.98 123.79 130.72 123.53 130.57C122.76 130.12 121.91 129.79 121.17 129.3C119.58 128.26 118.05 127.16 116.66 125.82C115.17 124.38 114.33 122.64 113.36 120.9C112.57 119.48 112.29 117.98 112.06 116.43C111.92 115.49 111.77 114.54 111.72 113.58C111.64 111.8 111.62 110.01 111.59 108.22C111.58 107.7 111.64 107.18 111.66 106.77C112.1 106.67 112.42 106.59 112.74 106.52C113.15 106.43 113.55 106.17 113.96 106.62C114.1 106.77 114.42 107.09 114.71 106.62C114.83 106.42 116.05 106.85 116.22 107.09C116.37 107.3 116.55 107.49 116.72 107.68C116.8 107.64 116.88 107.6 116.95 107.56C116.97 109.04 117.03 110.51 117 111.99C116.98 113.45 117.29 114.85 117.61 116.28C117.79 115.46 118 114.64 118.14 113.8C118.2 113.43 118.21 112.89 118.21 112.9C117.89 111.37 118.44 110.1 119.09 108.82C117.95 108.79 117.41 108.08 117.08 107.12C117.032 106.987 116.94 106.875 116.82 106.8C116.2 106.51 115.96 105.94 115.94 105.36C115.92 104.73 116.16 104.18 116.76 103.76C117.888 102.961 118.976 102.106 120.02 101.2C120.9 100.44 121.65 99.5301 122.54 98.8001C123.67 97.8701 124.88 97.0501 126.05 96.1801C126.49 95.8501 126.88 95.4201 127.35 95.1401C128.57 94.4101 129.86 93.8101 131.04 93.0301C132.03 92.3801 133.26 92.3001 134.18 91.7001C135.33 90.9501 136.63 91.0001 137.81 90.5101C138.15 90.3701 138.6 90.4701 138.99 90.4901C139.46 90.5101 139.68 90.7601 139.7 91.2501C139.73 91.8301 139.92 92.2401 140.69 92.1101C141.52 91.9701 142.29 92.1801 143.03 92.6801C143.69 93.1301 144.5 93.3701 145.19 93.7901C146.1 94.3401 146.73 95.1601 147.21 96.1101C147.69 97.0601 148.21 97.9901 148.7 98.9401C148.96 99.4301 149.23 99.9201 149.43 100.44C150.06 101.99 150.68 103.54 151.26 105.11C151.66 106.2 151.95 107.33 152.31 108.43C152.81 109.94 153.34 111.44 153.83 112.96C154.03 113.58 154.05 114.25 154.3 114.84C154.65 115.67 154.26 116.62 154.82 117.41C154.91 117.53 154.68 117.93 154.54 118.16C154.07 118.94 153.56 119.69 153.08 120.46C152.91 120.73 152.82 120.94 153.21 121.2C153.68 121.5 153.63 121.62 153.29 122.32V122.32ZM128.05 126.59C128.41 126.96 128.7 127.31 129.04 127.59C129.22 127.74 129.56 127.88 129.73 127.81C130.42 127.52 131.09 127.17 131.73 126.78C132.06 126.58 132.19 126.26 131.72 125.98C131.6 125.91 131.55 125.7 131.47 125.56C131.46 125.62 131.44 125.69 131.43 125.75C130.52 125.76 129.62 125.78 128.62 125.79C128.49 125.98 128.26 126.3 128.05 126.59V126.59ZM119.87 120.68C120.35 122.19 121.36 122.92 122.47 123.58C122.59 122.95 122.46 122.58 121.74 122.33C121.16 122.13 120.45 121.83 120.31 121.02C120.3 120.94 120.14 120.88 119.87 120.68V120.68ZM126.37 27.2101C126.73 26.7701 127.08 26.1601 127.86 26.1801C128.07 26.1901 128.29 26.1801 128.48 26.2501C129.16 26.4901 129.85 26.7101 130.49 27.0301C131.23 27.4001 131.92 27.8901 132.66 28.2601C133.22 28.5401 133.84 28.7301 134.43 28.9601C134.49 28.9901 134.56 29.0201 134.61 29.0701C135.26 29.8501 136.13 30.2901 136.98 30.7901C137.39 31.0301 137.61 31.5701 137.96 31.9201C139.66 33.6001 141.35 35.2801 142.73 37.2401C143.19 37.8901 143.57 38.6001 144.03 39.2501C144.45 39.8501 145 40.3601 145.38 40.9901C145.79 41.6601 146.14 42.3901 146.37 43.1401C146.55 43.7201 146.46 44.3501 146.8 44.9601C147.01 45.3401 146.82 45.9801 146.7 46.4801C146.48 47.4301 146.23 48.3701 145.91 49.2901C145.64 50.0801 145.31 50.8601 144.94 51.6101C144.26 52.9801 143.5 54.3201 142.85 55.7001C142.07 57.3701 141.41 59.0901 140.61 60.7501C139.9 62.2401 139.11 63.6901 138.27 65.1101C138.03 65.5101 137.53 65.8201 137.09 66.0301C136.89 66.1301 136.52 65.9101 136.25 65.7801C135.94 65.6301 135.55 65.2001 135.37 65.2801C134.75 65.5501 134.15 65.9301 133.66 66.4001C133.12 66.9201 132.81 67.7001 132.23 68.1301C131.62 68.5901 131.4 69.0101 131.51 69.7501C131.57 70.1301 130.42 70.6901 129.81 70.6901C129.57 70.6901 129.33 70.7901 129.09 70.8001C128.93 70.8101 128.7 70.8001 128.63 70.7001C128.15 70.0401 126.96 70.0001 127.07 68.8301L126.86 68.8601C126.85 69.0701 126.83 69.2801 126.81 69.6501C126.62 69.4701 126.42 69.3701 126.39 69.2301C126.28 68.5501 125.94 68.4801 125.5 68.7701C125.24 68.5701 125.04 68.3301 124.79 68.2601C123.7 67.9501 122.72 67.3401 121.69 67.0001C120.82 66.7101 119.98 66.3401 119.23 65.9101C117.4 64.8801 115.37 64.1401 113.97 62.4201C113.46 61.7901 112.69 61.3701 112.17 60.7501C110.7 59.0201 109.34 57.1901 108.66 54.9801C108.41 54.1801 108.29 53.3801 107.76 52.6601C107.59 52.4301 107.99 51.7501 108.17 51.2901C108.35 50.8401 108.66 50.4301 108.8 49.9701C109.24 48.5701 109.64 47.1501 110.03 45.7301C110.3 44.7501 110.5 43.7401 110.78 42.7601C111.31 40.9001 111.88 39.0501 112.44 37.2001C112.75 36.1501 113.09 35.1101 113.38 34.0501C113.57 33.3801 113.85 33.1401 114.49 33.3901C114.92 33.5501 115.54 33.2801 115.78 33.9101C116.02 33.7701 116.26 33.6301 116.51 33.4901C116.16 33.2901 116.73 32.5601 115.94 32.5501C115.79 32.5501 115.64 31.9501 115.52 31.6201C115.48 31.5101 115.51 31.3801 115.51 31.2601C115.51 30.3801 115.48 29.5301 115.21 28.6501C114.72 27.0401 115.85 25.8801 117.56 26.0401C118.49 26.1301 119.43 26.0601 120.37 26.1001C120.8 26.1201 121.22 26.2001 121.64 26.2701C122.36 26.3901 123.08 26.5001 123.8 26.6401C124.58 26.8301 125.42 27.0101 126.37 27.2101V27.2101ZM118.38 36.5201C119.43 36.0601 120.2 34.8801 121.57 34.8401C121.79 34.8301 122.02 34.9701 122.3 35.0701C122.44 35.0401 122.69 34.9401 122.95 34.9401C123.31 34.9401 123.66 35.0101 124.02 35.0401C123.05 34.2501 122.06 33.7401 120.83 34.2201C119.98 34.5501 119.1 34.7901 118.36 35.0301C118.37 35.4901 118.38 36.0501 118.38 36.5201ZM131.45 38.5901C131.57 38.4701 131.69 38.3501 131.81 38.2401C131.53 37.8801 131.27 37.5001 130.95 37.1801C130.18 36.4001 129.4 35.6301 128.58 34.9001C128.45 34.7901 128.05 34.8601 127.85 34.9801C127.7 35.0601 127.55 35.4501 127.62 35.5401C127.99 36.0301 128.37 36.5801 128.87 36.8901C129.4 37.2201 130.08 37.3001 130.69 37.5001C130.78 37.5301 130.85 37.6301 130.91 37.7201C131.1 38.0001 131.28 38.3001 131.45 38.5901V38.5901ZM151.27 81.4201C150.34 80.0901 150.07 78.6201 150.17 77.0501C150.2 76.5301 150.15 75.9601 150.35 75.5101C150.8 74.4701 149.84 73.7801 149.82 72.8801C149.81 72.3601 149.41 71.8701 149.76 71.3301C149.82 71.2501 149.83 71.0601 149.77 70.9901C149.18 70.2601 149.53 69.5701 149.88 68.8401C149.42 68.9001 149 68.9201 148.59 69.0301C148.47 69.0601 148.35 69.3201 148.34 69.4701C148.26 71.3601 148.13 73.2601 148.16 75.1501C148.18 76.4101 148.26 77.6801 148.78 78.9001C149.03 79.4801 148.98 80.1901 149.07 80.8501C148.82 80.8501 148.61 80.8601 148.41 80.8601C148.4 80.9101 148.38 80.9601 148.37 81.0101C148.53 81.1001 148.7 81.1901 148.89 81.2901C148.7 81.4301 148.54 81.6501 148.32 81.7101C147.31 82.0101 146.3 82.3001 145.27 82.5201C144.73 82.6401 144.27 82.5801 144.03 81.8401C143.4 79.8501 142.81 77.8601 142.8 75.7401C142.8 74.5801 142.64 73.4201 142.63 72.2701C142.63 71.4701 142.76 70.6801 142.84 69.8801C142.93 68.9401 143.01 67.9901 143.14 67.0501C143.21 66.5301 143.25 66.0501 143.97 65.8501C144.47 65.7101 145.03 65.2801 144.85 64.4801C144.81 64.3101 145.13 63.9301 145.36 63.8501C146.39 63.4901 147.44 63.3401 148.55 63.4501C149.04 63.4901 149.57 63.1201 150.07 62.9001C150.81 62.5801 151.52 62.1701 152.29 61.9201C153.26 61.6001 154.27 61.3601 155.28 61.1501C156.78 60.8401 158.23 61.1001 159.62 61.6801C160.47 62.0401 161.34 62.3901 162.12 62.8801C162.83 63.3201 163.41 63.9601 164.06 64.4901C164.59 64.9201 165.12 65.3501 165.7 65.7101C165.86 65.8101 166.22 65.7101 166.42 65.5801C166.77 65.3601 167.04 65.0301 167.38 64.8001C169 63.7101 170.76 64.9501 171.25 66.4101C171.49 67.1101 171.48 67.9001 171.63 68.6401C171.72 69.0801 171.99 69.5001 172.03 69.9501C172.14 71.4101 172.23 72.8701 172.23 74.3301C172.23 75.6501 172.1 76.9701 172.02 78.3001C171.94 79.4601 171.94 80.6301 171.71 81.7601C171.54 82.5701 171.46 83.5101 170.61 84.0501C170.41 84.1801 170.34 84.5201 170.15 84.6901C169.61 85.1901 168.9 85.5601 168.52 86.1501C167.93 87.0601 166.99 87.3301 166.15 87.7601C165.56 88.0701 164.89 88.2701 164.24 88.4001C163.45 88.5501 162.63 88.5701 161.82 88.6501C161.7 88.6601 161.58 88.6801 161.46 88.6501C159.83 88.2901 158.17 88.7001 156.53 88.4301C156.12 88.3601 155.71 88.2601 155.3 88.1601C153.77 87.8001 152.24 87.4501 150.72 87.0601C149.77 86.8201 148.99 85.7301 149.06 84.7901C149.08 84.5801 149.22 84.3701 149.33 84.1701C149.67 83.5101 149.97 82.8301 150.36 82.2101C150.53 81.8901 150.9 81.7201 151.27 81.4201V81.4201ZM164.56 82.2501C165.88 81.9301 166.55 80.9401 166.36 79.4801C165.74 80.1201 165.2 80.7301 164.61 81.2901C164.26 81.6301 164.24 81.9201 164.56 82.2501Z" fill="url(#paint1_linear_1230_3325)"/>
<path d="M45.28 28.6299C44.04 31.6699 42.68 34.6499 41.19 37.5799M42.11 38.2399C41.86 39.3999 42.38 40.5899 42.93 41.6399C47.19 49.8399 53.54 56.7899 60.5 62.8599C61.52 63.7499 63.11 64.6299 64.09 63.6999C65.15 62.6899 64.24 60.5899 65.33 59.6099M64.76 63.8599C70.2947 62.9087 75.6962 61.3007 80.85 59.0699C85.14 57.2199 89.59 54.5399 91.08 50.1099C92.08 47.1299 91.55 43.8699 92.1 40.7699M16 102.68C15.62 103.34 15.24 103.99 14.86 104.65M48.35 100.27C48.1 101.59 47.62 102.86 46.93 104.02" stroke="#1D1D1B" stroke-width="1.5" stroke-miterlimit="10"/>
<path d="M21.77 71.8198C18.18 73.6598 16.96 78.0998 16.11 82.0398C15.02 87.0498 13.93 92.0598 12.84 97.0798C12.35 99.3498 11.92 101.95 13.31 103.81C14.28 105.1 15.9 105.7 17.45 106.16C26.68 108.9 36.93 108.99 45.72 105.05M67.11 76.5498C66.31 79.2898 65.5 82.0298 64.7 84.7698M64.43 85.6298C65.23 88.9698 66.13 92.2798 67.14 95.5598C68.85 101.1 71.33 107.08 76.57 109.57C78.54 110.5 80.74 110.85 82.91 110.99C89.13 111.4 95.45 110.21 101.1 107.58C102.33 107.01 103.54 106.36 104.49 105.39C106.4 103.45 106.94 100.59 107.4 97.8998M78.06 101.71C76.92 103.81 75.99 106.02 75.28 108.3M51.31 161.17C50.22 162.52 49.12 163.87 48.03 165.22" stroke="#1D1D1B" stroke-width="1.5" stroke-miterlimit="10"/>
<path d="M51.48 130.2C50.76 130.84 50.04 131.49 49.31 132.13C48.97 132.43 48.63 132.74 48.4 133.12C48.09 133.64 48 134.27 47.92 134.88C46.79 142.87 44.13 150.72 44.48 158.78C44.59 161.24 45.06 163.85 46.73 165.66C48.1 167.14 50.08 167.87 52.02 168.38C58.53 170.1 65.37 169.89 72.1 169.68C73.16 169.65 74.23 169.61 75.24 169.3C77.89 168.49 79.63 166.01 81.15 163.69M98.35 155.01C96.63 155.87 96.03 158.18 96.58 160.02C97.13 161.86 98.55 163.31 100.04 164.54C101.53 165.76 103.14 166.87 104.33 168.38C105 169.23 105.51 170.19 106.17 171.06C107.98 173.44 110.73 174.92 113.54 175.94C114.73 176.37 115.97 176.75 117.24 176.68C120.65 176.51 123.04 173.37 124.93 170.53M111.81 109.81C109.28 112.81 108.09 116.91 108.62 120.8C109.29 125.71 112.49 129.94 116.27 133.15C120.27 136.55 125.2 139.12 130.45 139.3C137.32 139.53 143.6 135.72 149.31 131.89C150.44 131.13 151.59 130.35 152.38 129.24C154.25 126.61 153.67 122.81 155.5 120.14M126.96 134.68C126.7 135.75 126.31 136.79 125.8 137.76M144.38 67.1199C142.08 68.7999 140.79 71.6099 140.48 74.4399C140.17 77.2699 140.75 80.1299 141.61 82.8399C142.13 84.4899 142.77 86.1299 143.84 87.4799C145.89 90.0899 149.2 91.3099 152.4 92.1899C153.91 92.5999 155.45 92.9699 157.02 93.0799C160.47 93.3399 163.89 92.3899 167.18 91.3399C167.73 91.1699 168.29 90.9799 168.75 90.6199C170.14 89.5199 169.96 87.3799 170.74 85.7799M147.65 90.5599C148.24 89.5999 148.82 88.6399 149.41 87.6699M108.08 53.1699C106.99 54.3799 106.67 56.1299 106.88 57.7399C107.1 59.3499 107.79 60.8599 108.53 62.2999C109.05 63.3099 109.6 64.3099 110.28 65.2199C113.63 69.7099 119.52 71.3499 125.01 72.4199C125.71 72.5599 126.42 72.6899 127.14 72.6799C129.07 72.6599 130.87 71.5999 132.21 70.2099C133.55 68.8199 134.49 67.0999 135.42 65.4099M28.13 83.6799C27.54 84.7099 26.93 85.8899 27.28 87.0199C27.66 88.2399 29.27 88.8899 30.39 88.2699C31.03 87.9199 31.44 87.2699 32.02 86.8299C33.25 85.8999 34.96 86.0399 36.5 86.2399C36.75 86.2699 37.02 86.3099 37.22 86.4499C37.41 86.5799 37.53 86.7899 37.63 87.0099C38.63 89.1499 37.7 91.9899 35.63 93.1199M156.53 70.7699C156.47 73.1199 156.93 75.4699 157.87 77.6299" stroke="#1D1D1B" stroke-width="1.5" stroke-miterlimit="10"/>
<path d="M155.33 78.95C155.29 78.96 155.25 78.96 155.21 78.97C156.92 78.69 158.63 78.36 160.33 77.98C160.47 77.95 160.61 77.82 160.74 77.88C160.87 77.94 160.62 78.14 160.66 78M80.9301 80.72C81.8801 82.17 83.0701 83.47 84.4401 84.54C86.7401 86.34 89.5201 87.5 91.6601 89.49C92.4101 86.8 92.2601 83.95 92.1101 81.15C92.0201 79.59 91.9301 78.02 91.8501 76.46" stroke="#1D1D1B" stroke-width="1.5" stroke-miterlimit="10"/>
<path d="M85.89 84.23C85.81 84.34 85.63 84.18 85.67 84.06C85.71 83.93 85.86 83.88 85.98 83.83C87.89 83.21 89.8 82.58 91.7 81.96M130.41 112.12C130.36 111.88 130.26 111.66 130.1 111.47C131.65 113.69 133.19 115.91 134.74 118.13C134.74 117.74 134.74 117.34 134.73 116.95" stroke="#1D1D1B" stroke-width="1.5" stroke-miterlimit="10"/>
<path d="M130.01 111.94C131.04 110.23 132.29 108.65 133.71 107.24C133.83 107.57 133.76 107.97 133.54 108.25M132.79 115.07C133.76 113.53 135.03 112.18 136.51 111.11M61.84 139.18L71.53 141.04C68.7 142.53 65.87 144 63.03 145.47C65.95 146.21 68.86 146.95 71.78 147.68M65.3 43.9502C69.05 42.0002 72.83 40.0902 76.62 38.2302C76.77 38.1602 76.97 38.1002 77.07 38.2302C77.17 38.3602 76.82 38.4702 76.89 38.3202M65 43.3402C64.24 42.2002 63.47 41.0002 63.28 39.6402C63.1 38.2802 63.7 36.7102 64.98 36.2402C66.13 35.8202 67.43 36.3802 68.32 37.2202C69.21 38.0602 69.81 39.1502 70.58 40.1002C71.13 37.4502 72.06 34.8802 73.33 32.4902M127.51 42.5502C125.87 42.4402 124.4 43.5202 123.25 44.6902C122.67 45.2802 122.11 45.9302 121.81 46.7002C121.51 47.4702 121.49 48.4002 121.94 49.1002C122.36 49.7502 123.11 50.1102 123.86 50.3102C125.5 50.7302 127.45 50.3802 128.47 49.0302C129.26 47.9902 129.35 46.5402 129.03 45.2802C128.7 44.0102 128 42.8802 127.31 41.7702C127.32 42.0602 127.24 42.3402 127.08 42.5802M125.23 47.0602C125.15 49.2002 125.34 51.3402 125.79 53.4302M115.77 161.46C118.44 159.81 121.11 158.16 123.77 156.51C123.88 156.44 124.01 156.35 124.01 156.22C124.01 156.09 123.78 156.01 123.76 156.14M115.2 161.64C114.053 160.82 113.195 159.658 112.75 158.32C112.51 157.6 112.41 156.75 112.82 156.11C113.37 155.25 114.68 155.14 115.53 155.7C116.38 156.26 116.81 157.3 116.9 158.31" stroke="#1D1D1B" stroke-width="1.5" stroke-miterlimit="10"/>
<defs>
<linearGradient id="paint0_linear_1230_3325" x1="29" y1="9" x2="107.5" y2="204" gradientUnits="userSpaceOnUse">
<stop offset="0.291667" stop-color="#FE7332"/>
<stop offset="1" stop-color="#F8570E"/>
</linearGradient>
<linearGradient id="paint1_linear_1230_3325" x1="113.5" y1="12.5" x2="153.5" y2="153" gradientUnits="userSpaceOnUse">
<stop offset="0.291667" stop-color="#FE7332"/>
<stop offset="1" stop-color="#F8570E"/>
</linearGradient>
</defs>
</svg>
