<svg width="157" height="185" viewBox="0 0 157 185" fill="none" xmlns="http://www.w3.org/2000/svg">
<path d="M72.73 107.35C71.24 105.39 69.64 103.52 67.83 101.85C64.73 98.9999 61.08 96.8099 57.81 94.1499C44.22 83.1099 37.97 64.7 23.76 54.47C24.04 52.57 26.22 51.4199 28.14 51.5999C30.06 51.7799 31.73 52.91 33.3 54.04C39.76 58.69 45.89 63.81 51.61 69.33M52.55 69.5299C52.35 64.2499 52.15 58.93 51 53.77C48.29 41.58 40.59 31.22 33.5 20.94C32.9 20.07 32.29 19.15 32.17 18.1C32.06 17.05 32.63 15.85 33.66 15.63C34.32 15.49 34.99 15.7699 35.6 16.0599C42.84 19.6099 47.83 26.51 51.72 33.57C55.61 40.63 61.97 52.9 66.98 59.22" stroke="black" stroke-width="1.5" stroke-miterlimit="10" stroke-linecap="round" stroke-linejoin="round"/>
<path d="M53.72 37.3401C53.3 36.1901 54.69 33.3901 55.9 33.6001C57.11 33.8101 58.61 35.6301 59.38 36.5901C64.53 43.0401 69.02 50.0001 72.77 57.3501M62.33 39.8401C62.56 38.5701 63.05 37.0301 64.33 36.8001C65.53 36.5901 66.5 37.7101 67.18 38.7201C70.68 43.9101 73.86 49.3201 76.68 54.9101" stroke="black" stroke-width="1.5" stroke-miterlimit="10" stroke-linecap="round" stroke-linejoin="round"/>
<path d="M73.07 47.7302C72.78 46.6702 73.51 45.9102 74.3 45.1402C75.22 44.2502 77.03 47.0302 77.63 47.9502C82.28 55.0902 81.46 58.7602 82.61 64.4202C84.54 73.8502 88.22 82.9102 93.33 91.0702" stroke="black" stroke-width="1.5" stroke-miterlimit="10" stroke-linecap="round" stroke-linejoin="round"/>
<path d="M143.83 137.24C143.88 137.23 143.93 137.22 143.99 137.2C144.01 136.51 143.9 135.83 143.7 135.18C143.24 133.71 143.21 132.16 142.92 130.66C142.47 128.35 142.6 125.97 141.92 123.67C141.37 121.81 141.02 119.88 140.26 118.09C139.185 115.54 137.833 113.116 136.23 110.86C135.53 109.88 134.86 108.87 134.03 108C132.45 106.36 130.86 104.73 129.05 103.33C127.4 102.05 125.71 100.84 123.85 99.89C122.52 99.21 121.14 98.62 119.78 98C117.32 96.88 114.81 95.93 112.08 95.66C111.57 95.61 111.05 95.57 110.54 95.54C109.25 94.27 107.78 92.9 106.27 91.5C106.24 91.34 106.13 91.25 105.95 91.2C105.6 90.88 105.26 90.56 104.91 90.25C104.62 89.65 104.37 88.99 103.86 89.01C103.75 89.01 103.65 89 103.54 89C99.9 85.69 96.41 82.6 94.81 81.01C94.49 80.69 94.16 80.55 93.44 81.58C93.02 82.17 92.77 82.03 92.44 82.14C91.59 82.42 90.85 83.02 90.12 83.69C89.27 84.46 89.93 84.43 89.99 84.71C90.01 84.82 89.95 84.96 89.58 85.25C88.78 84.77 87.34 85.7 86.04 86.77C84.66 87.91 86.14 87.78 85.78 88.53C85.01 88.8 84.69 88.65 84.41 88.45C84.27 88.35 84.15 88.16 83.69 88.45C83.22 88.76 82.75 89.12 82.86 89.43C82.71 89.79 83.21 89.67 83.29 89.91C83.06 89.84 82.79 89.94 82.49 90.09C80.89 90.15 79.96 90.79 79.05 92.45C78.78 92.76 78.83 92.95 78.79 93.17C78.78 93.27 78.72 93.38 78.73 93.46C78.58 93.48 78.75 93.32 78.75 93.25C78.75 93.17 78.78 93.07 78.78 92.98C78.76 92.82 78.68 92.7 78.43 92.73C77.61 92.64 77.93 92.57 77.47 93.31C76.05 93.56 74.98 95.02 73.7 95.78C72.73 96.35 72.25 96.97 72.15 97.57C72.43 97.95 71.9 98.69 71.77 99.33C71.07 99.39 70.82 99.14 70.47 98.98C70.26 98.86 70.32 98.44 69.6 98.84C69.26 99.03 68.9 99.33 68.9 99.51C68.9 99.99 68.16 100.88 68.74 101.05C69.11 101.02 68.96 101.36 68.98 101.58C68.89 101.53 68.8 101.47 68.6 101.54C68.43 101.29 67.92 101.33 67.86 100.98C67.81 100.6 67.66 100.33 66.64 101.05C65.61 101.77 65.19 102.28 65.66 102.61C65.72 103.13 65.29 103.88 65.25 104.45C65.49 105.23 65.65 106.06 65.99 106.77C66.82 108.49 69.71 112.49 72.62 116.43C72.94 117.43 73.33 118.41 73.82 119.37C74.75 121.15 75.86 122.75 77.23 124.2C78.12 125.15 79.16 125.92 80.1 126.8C81.41 128.02 82.99 128.66 84.58 129.26C86.85 130.12 89.26 130.32 91.67 130.48C92.71 130.55 93.8 130.43 94.77 130.8C96.41 131.43 98.04 132.13 99.53 133.05C101.94 134.54 103.75 136.61 104.96 139.18C105.66 140.67 105.98 142.25 106.13 143.89C106.2 144.66 106.3 145.42 106.4 146.19C106.49 147.2 106.7 148.69 106.99 150.46C107.04 150.78 107.08 151.11 107.14 151.43C107.4 153.04 107.56 154.64 107.31 156.27C107.54 156.21 107.76 156.16 107.99 156.1C109.19 162.58 110.73 169.96 111.44 172.77C111.54 173.18 111.73 173.44 112.76 172.74C113.35 172.34 113.48 172.57 113.79 172.59C114.58 172.64 115.42 172.36 116.29 172C117.3 171.59 116.78 171.39 116.86 171.1C116.89 170.99 117.01 170.88 117.43 170.75C117.82 171.49 119.37 171.16 120.86 170.64C122.45 170.09 121.24 169.67 121.86 169.1C122.57 169.13 122.76 169.39 122.88 169.67C122.94 169.82 122.95 170.04 123.44 169.93C123.95 169.82 124.47 169.66 124.53 169.32C124.81 169.04 124.37 168.97 124.41 168.72C124.55 168.87 124.81 168.88 125.11 168.85C126.37 169.39 127.39 169.13 128.85 167.92C129.2 167.73 129.25 167.54 129.38 167.35C129.43 167.27 129.53 167.18 129.55 167.1C129.67 167.14 129.47 167.22 129.44 167.28C129.41 167.36 129.34 167.44 129.29 167.52C129.23 167.68 129.24 167.81 129.45 167.88C130.04 168.27 129.76 168.22 130.46 167.69C131.68 167.98 133.17 167.02 134.51 166.78C135.52 166.6 136.18 166.2 136.53 165.69C136.49 165.24 137.23 164.74 137.63 164.2C138.2 164.4 138.27 164.73 138.47 165C138.58 165.2 138.33 165.56 139.08 165.45C139.43 165.4 139.84 165.25 139.93 165.08C140.15 164.63 141.13 164.08 140.75 163.71C140.45 163.6 140.72 163.34 140.8 163.13C140.85 163.21 140.89 163.3 141.08 163.31C141.1 163.6 141.51 163.75 141.39 164.1C141.26 164.47 141.25 164.78 142.37 164.49C143.49 164.2 144.05 163.88 143.84 163.4C144.03 162.9 144.71 162.36 145 161.85C145.17 161.04 145.43 160.2 145.49 159.42C145.78 155.78 144.02 141.38 143.83 137.24V137.24Z" fill="url(#paint0_linear_1230_3335)"/>
<path d="M10.78 79.72C12.55 79.46 14.37 79.21 16.11 79.63C17.85 80.05 19.51 81.31 19.85 83.07C20.54 86.6 15.86 89.63 16.78 93.11C17.58 96.12 21.56 96.51 24.53 97.44C25.27 97.67 26.02 97.99 26.53 98.58C27.95 100.19 26.91 102.71 25.71 104.48C24.51 106.26 23.13 108.44 24.05 110.38C25.78 114.02 32.88 111.61 34.45 115.32C35.49 117.77 32.88 120.62 33.82 123.11C34.54 125.03 36.94 125.63 38.99 125.77C41.04 125.9 43.35 125.95 44.73 127.47C45.92 128.77 45.98 130.73 45.85 132.49C45.72 134.25 45.47 136.11 46.22 137.71C46.97 139.31 49.22 140.33 50.55 139.16M49.73 11.91C53.2 10.95 57.54 11.18 58.01 15.55C58.19 17.21 58.04 19.04 59.03 20.39C60.92 22.99 63.01 20.99 65.14 20.02C68.47 18.5 69.93 20.65 70.91 23.77C71.45 25.48 72.3 27.42 74.05 27.83C76.26 28.35 78.23 26.07 80.5 26.07C82.84 26.07 84.46 28.44 85.11 30.68C85.76 32.92 85.95 35.41 87.38 37.25C90.93 41.83 97.42 38.2 101.16 42.06C103.97 44.97 102.41 50.33 102.57 53.91M123.6 72.42C125.68 71.13 127.37 69.31 126.89 66.73C126.4 64.05 123.99 62.59 122.79 60.31C122.05 58.91 121.75 57.19 122.37 55.73C123.19 53.8 125.51 52.42 125.34 50.33C125.21 48.72 123.62 47.66 122.13 47.07C120.64 46.48 118.95 46.03 117.97 44.74C116.67 43.03 117.17 40.63 117.56 38.53C117.95 36.42 117.99 33.84 116.22 32.62C114.47 31.41 111.7 32.19 110.26 30.62C109.1 29.35 109.54 27.37 109.93 25.7C110.32 24.03 110.43 21.9 108.97 20.99C108.17 20.49 107.14 20.55 106.2 20.64C102.77 20.94 98.42 21.9 97.27 17.44" stroke="black" stroke-width="1.5" stroke-miterlimit="10" stroke-linecap="round" stroke-linejoin="round"/>
<defs>
<linearGradient id="paint0_linear_1230_3335" x1="35.5" y1="24" x2="146" y2="218.5" gradientUnits="userSpaceOnUse">
<stop offset="0.276042" stop-color="#FE7332"/>
<stop offset="1" stop-color="#F8570E"/>
</linearGradient>
</defs>
</svg>
