<svg width="228" height="198" viewBox="0 0 228 198" fill="none" xmlns="http://www.w3.org/2000/svg">
<path d="M98.4399 76.66C98.4399 73.99 94.0299 70.29 93.4399 70.07C93.4299 70.1 93.4099 70.13 93.3999 70.16C91.5099 69.62 89.6199 69.05 87.7699 68.42C85.9399 67.8 84.1699 66.9 82.3499 66.16C79.3399 64.95 76.28 63.89 73.11 63.24C71.55 62.92 70.05 62.49 68.54 61.98C65.88 61.08 63.09 60.63 60.31 60.3C59.39 60.19 58.4299 60.23 57.4799 60.26C55.5736 60.3183 53.6906 60.6969 51.9099 61.38C50.8499 61.79 49.8099 62.24 48.9099 62.92C48.3199 63.37 47.5799 63.48 46.9599 63.92C46.1999 64.45 45.7099 65.14 45.1199 65.79C44.5599 66.41 44.0699 67.08 43.5699 67.74C43.3499 68.03 42.8099 68.44 43.8099 68.45C44.2999 68.45 44.6699 68.96 44.8399 69.37C45.0999 70.02 43.79 70.91 42.54 70.96C42.13 70.98 42.0999 71.16 42.1199 71.45C42.1399 71.74 41.3999 71.92 41.2699 71.86C41.2899 71.87 41.26 71.97 41.22 72.1C41.2 72.09 41.1799 72.09 41.1599 72.08C41.1699 71.93 41.1399 71.81 41.0199 71.78C40.9499 71.83 40.9099 71.9 40.8899 71.97C40.8699 71.88 40.82 71.81 40.7 71.77C40.6858 71.7743 40.6729 71.7821 40.6624 71.7925C40.652 71.803 40.6442 71.8159 40.6399 71.83C40.6174 71.8182 40.594 71.8082 40.5699 71.8C40.4199 71.75 40.2699 71.7 40.1199 71.66C40.1199 71.66 40.12 71.65 40.11 71.65C40.0854 71.6293 40.0562 71.6148 40.0249 71.6078C39.9935 71.6008 39.9609 71.6016 39.9299 71.61C39.8399 71.58 39.7499 71.56 39.6599 71.54C39.6299 71.51 39.6199 71.49 39.6199 71.49C39.6199 71.49 39.6099 71.5 39.5999 71.52H39.5899C39.5299 71.5 39.4799 71.49 39.4199 71.47V71.46C39.3999 71.45 39.38 71.44 39.36 71.45C38.92 71.32 38.48 71.2 38.04 71.07C37.9388 71.04 37.8311 71.04 37.7299 71.07C37.4999 71 37.1499 70.98 36.7999 70.9C36.6399 70.86 36.19 70.7 35.9 70.69C35.83 70.66 35.7599 70.63 35.6799 70.6C35.5991 70.5602 35.5101 70.5397 35.4199 70.54C35.0899 70.28 34.36 70.17 34.11 70.28C33.6 70.49 33.6699 71.31 33.4599 71.98C33.1299 73.02 32.72 74.08 32.49 75.31C31.96 78.16 31.0999 81.42 30.6499 84.42C29.9399 89.17 29.0699 93.2 28.6499 98.1C28.5699 99.05 28.4299 99.97 28.2999 100.89C28.0699 100.84 27.8799 100.82 27.8599 100.85C27.6099 101.12 27.8499 102.25 27.8399 102.66C27.8199 103.24 27.7199 104.73 27.7299 105.55C27.7799 108.22 27.78 110.82 27.87 113.33C27.95 115.63 28.43 118.26 28.79 120.6C29.11 122.63 30.1499 125.96 29.5999 127.64L41.6599 137.5C41.8599 138.02 41.8 137.56 41.86 137.51C42.48 138.38 41.8899 138.53 42.9299 138.81C42.8899 138.8 43.3299 138.43 43.5099 138.42C43.6799 138.41 44.3499 139.08 44.3399 138.23C44.4499 138.52 44.9199 137.93 45.0699 138.37C45.1399 138.32 45.1499 138.25 45.1399 138.16C45.5799 138.36 46.0099 138.55 46.4299 138.73C47.5399 139.22 49.4799 139.72 50.2099 140.62L57.9599 136.72C58.2699 136.78 58.0199 136.66 58.0099 136.6C58.5899 136.52 58.5399 136.92 58.9199 136.4C58.9099 136.42 58.8199 136.03 58.8499 135.92C58.8799 135.82 59.3699 135.64 58.9399 135.36C59.1099 135.39 58.9199 134.91 59.1699 134.97C59.1499 134.9 59.1099 134.85 59.0399 134.84C59.0099 134.71 59.0399 133.98 59.0599 133.83C59.1099 133.54 59.4399 133.25 59.4299 133.2C59.3598 133.133 59.2738 133.085 59.1799 133.06C59.3099 133.01 59.2899 133.13 59.4199 133.01C59.4299 132.93 59.4 132.87 59.33 132.84C59.47 132.88 59.6 132.93 59.74 132.98C59.7139 132.923 59.6723 132.874 59.6199 132.84C59.6899 132.86 59.7499 132.85 59.7999 132.8C59.7502 132.763 59.6917 132.738 59.6299 132.73C59.6299 132.73 59.7499 132.68 59.6699 132.6C59.7099 132.61 59.94 132.73 60.02 132.69C59.96 132.72 60.0599 132.33 60.2099 132.61C60.0399 132.27 60.4099 132.62 60.3699 132.33C60.3099 131.89 59.4899 131.67 59.4699 131.38C59.4599 131.18 59.83 131.38 59.58 131.12C60.05 130.81 59.91 129.82 60.31 129.5C60.31 129.5 58.8699 128.38 58.7599 128.32C57.7499 127.77 56.7599 127.39 55.7699 126.85C54.7459 126.298 53.7019 125.785 52.6399 125.31C52.5699 124.74 52.4999 124.18 52.4199 123.62C52.7199 123.64 53.0599 123.63 53.3799 123.68C54.4599 123.85 55.5699 124.1 56.8099 124.15C59.7099 124.26 63.0499 124.63 66.0899 124.62C70.8899 124.62 75.0099 124.89 79.9199 124.58C81.8099 124.46 83.6099 124.57 85.5299 124.46C85.7499 124.45 88.61 123.81 88.61 123.81C88.36 123.48 88.36 123.02 88.37 122.55C88.59 122.46 88.8 122.35 89.01 122.23C90.55 123.11 92.6599 123.09 94.3099 121.78C101.28 116.21 108.06 110.39 114.64 104.32C115.14 104.18 115.63 104.12 115.6 103.42L115.71 103.31C116.09 103.79 116.38 103.78 116.76 103.46C117.02 103.24 117.14 103.1 116.82 102.78C116.7 102.66 116.65 102.53 116.78 102.44C116.93 102.35 117.03 102.49 117.14 102.58C117.31 102.73 117.31 103.07 117.66 103.01C118.06 102.95 117.89 101.41 118.16 101.03C118.48 100.56 114.59 77.87 113.7 77.85C114.49 77.01 98.4399 80.14 98.4399 76.66V76.66Z" fill="url(#paint0_linear_1230_3341)"/>
<path d="M39.1301 147.96C38.1601 147.96 38.1601 147.96 39.1301 147.96H218.92M26.8301 103.48C19.8001 104.3 17.0201 105.12 10.0001 105.94C9.08006 106.05 8.05006 106.22 7.51006 106.97C6.64006 108.18 7.73006 109.91 9.08006 110.55C10.4301 111.19 12.0001 111.27 13.2801 112.03C16.0101 113.67 16.1501 117.48 16.1601 120.67C16.1801 126.99 16.9501 133.3 18.4501 139.44C19.2401 142.67 20.4901 146.17 23.4301 147.72C25.3801 148.74 27.7001 148.69 29.9101 148.6M162.42 75.7299C173.73 75.7299 201.35 75.3099 210.52 75.2699H212.04M43.3501 151.98C44.4601 155.08 45.5601 158.19 46.6701 161.29C47.1001 162.5 48.4801 163.94 49.3301 162.99C49.5901 162.7 49.6401 162.28 49.6801 161.89C49.9601 159.09 50.2501 156.28 50.5301 153.48M28.0201 151.86C26.3352 161.415 26.3149 171.188 27.9601 180.75L35.3701 153.68M126.52 125.51H213.67M55.7501 125.29H83.4801M19.3201 51.2299C25.3901 44.1899 31.3501 37.0299 36.9601 29.6199M18.2301 51.5799C16.4701 49.7199 15.0301 47.5599 14.0001 45.2199C13.2701 43.5599 12.7301 41.6799 13.2501 39.9399C13.6401 38.6299 14.5701 37.5599 15.4701 36.5399C17.1401 34.6499 18.8101 32.7599 20.4801 30.8599C21.4601 29.7599 22.4401 28.6399 23.6501 27.7999C27.4101 25.1899 33.1101 25.9599 36.0301 29.4799" stroke="black" stroke-miterlimit="10" stroke-linecap="round" stroke-linejoin="round"/>
<path d="M46.75 67.96C46.75 67.96 45.6 64.08 45.43 62.35C45.26 60.62 48.23 60.4 51.11 56.04C53.98 51.68 37.99 32.54 37.99 32.54L22.95 50.84C24.2 52.9 28.9 60 30.41 61.88C32.34 64.28 32.79 67.55 33.16 70.64L33.49 73.06C33.49 73.05 46.44 72.05 46.75 67.96V67.96Z" fill="#B25B20"/>
<path d="M24.34 53.0698C24.95 52.0398 27.63 52.3598 28.81 52.4298C30.06 52.5098 31.32 53.3098 32.48 52.8598C34.71 51.9998 33.71 48.0198 35.72 46.7098C36.04 46.4998 36.41 46.3798 36.68 46.1198C37.48 45.3298 36.87 43.9698 36.21 43.0498C35.55 42.1298 34.85 40.8498 35.55 39.9698C35.82 39.6298 36.23 39.4598 36.63 39.2898C37.94 38.7598 39.25 38.2198 40.55 37.6898C41.2 37.4298 42.2 36.9898 43.03 36.8198M188.52 103.4C190.06 105.48 190.71 108.22 190.73 110.85C190.75 113.48 190.19 116.04 189.57 118.55M164.1 102.83C172.29 103.11 180.55 103.18 188.52 103.34M90.27 101.89C93.48 100.79 96.93 100.66 100.32 100.54C103.66 100.42 106.99 100.31 110.33 100.19C115.14 100.02 119.94 99.8598 124.75 99.9898C130.69 100.16 136.6 100.8 142.52 101.4M153.03 119.23C152.64 119.18 152.25 119.14 151.87 119.09C148.43 118.66 144.94 118.09 141.53 118.68C138.72 119.16 136.11 120.4 133.54 121.62L113.71 131.06C110.5 132.59 106.91 133.07 103.41 132.47C98.14 131.57 90.26 129.59 83.92 125.37M189.64 118.5C182.63 119.61 175.53 120.15 168.44 120.14M50.56 66.2798C51.26 67.3998 51.37 68.8198 51.11 70.1098C50.85 71.3998 50.25 72.6098 49.61 73.7698C48.84 75.1798 47.99 76.5698 46.85 77.6898C45.71 78.8198 44.24 79.6698 42.64 79.8098L43.09 79.5698M194.75 117.22C197.58 117.76 199.28 117.88 202.16 117.97C204.86 108.6 206.96 99.0598 208.47 89.4298C208.65 88.2998 208.81 87.1198 208.43 86.0398C208.05 84.9598 206.95 84.0498 205.83 84.2998C205.28 84.4198 204.82 84.7998 204.4 85.1798C202.07 87.3298 200.4 90.0798 198.76 92.7898C196.54 96.4598 194.33 100.13 192.11 103.8C194.54 108.17 196.04 112.68 194.21 117.33C194.39 117.03 195.68 117.24 194.75 117.22V117.22Z" stroke="black" stroke-miterlimit="10" stroke-linecap="round" stroke-linejoin="round"/>
<path d="M201.97 117.29C201.36 117.31 200.75 117.34 200.14 117.36C198.75 117.54 197.36 117.59 195.95 117.51C195.47 117.48 195.24 117.04 195.27 116.62C195.164 116.501 195.104 116.349 195.1 116.19C195.01 114.26 194.79 112.35 194.41 110.46C194.14 109.1 193.57 107.66 193.48 106.24C193.09 105.62 192.67 105.03 192.21 104.45C191.82 103.97 192.2 103.03 192.88 103.15C192.932 103.018 193.013 102.899 193.116 102.802C193.22 102.705 193.344 102.633 193.48 102.59C195.04 98.81 196.98 95.1801 199.36 91.8601C200.393 90.4205 201.511 89.0447 202.71 87.74C203.06 87.32 203.44 86.9201 203.84 86.5501C204.08 86.3201 204.34 86.0801 204.61 85.8701C204.542 85.7095 204.528 85.5313 204.569 85.362C204.611 85.1927 204.706 85.0412 204.84 84.9301C205.62 84.3001 206.58 84.16 207.5 84.59C207.91 84.78 208.21 85.3901 207.86 85.7901C207.91 85.8601 207.95 85.94 207.98 86.02C208.38 86.24 208.49 86.82 208.23 87.21L208.02 87.5101C208.3 87.6201 208.5 87.89 208.47 88.31C208.05 92.91 207.23 97.4601 206 101.91C205.35 104.28 204.53 106.61 203.83 108.96C203.83 109 203.84 109.04 203.84 109.09C203.75 111.62 203.35 114.1 202.66 116.53C202.66 116.54 202.65 116.55 202.65 116.56C202.65 116.93 202.44 117.27 201.97 117.29V117.29Z" fill="black"/>
<path d="M43.63 36.59C42.35 33.83 39.39 32.34 36.64 31.04M25.18 53.75C25.83 55.14 26.65 56.45 27.62 57.64C25.97 58.11 24.15 57.61 22.77 56.59C21.39 55.57 20.41 54.09 19.71 52.53C19.67 52.44 19.61 52.34 19.52 52.34C19.42 52.34 19.42 52.54 19.51 52.5M144.97 67.64C146.67 68.78 147.85 70.52 148.98 72.21C151.02 75.26 153.06 78.31 154.74 81.57C159.35 90.53 164.72 105.77 169.74 114.5M115.03 78.53C118.56 77.62 121.57 75.34 124.38 73.02C127.19 70.7 130 68.24 133.37 66.85C136.75 65.46 141.72 65.18 144.62 67.39M155.52 124.01C151.85 116.23 146.58 109.32 142.48 101.75C140.323 97.77 138.497 93.6194 137.02 89.34M136.98 88.85C134.59 91.84 133.05 94.91 130.14 97.41C128.82 98.54 128.05 99.24 127.07 100.38M169.87 114.63C167.16 117.38 159.09 123.63 155.4 124.66" stroke="black" stroke-miterlimit="10" stroke-linecap="round" stroke-linejoin="round"/>
<path d="M166.89 117.58C167.53 118.41 168.96 121.21 169.6 122.04C169.78 122.28 169.99 122.54 170.29 122.61C170.57 122.68 170.86 122.57 171.13 122.46C174.81 120.94 178.48 119.42 182.16 117.9C182.71 117.67 183.47 117.5 183.8 118C180.86 123.61 176.03 128.21 170.28 130.87C169.58 131.19 168.8 131.49 168.06 131.29C167.41 131.11 166.93 130.57 166.51 130.05C164.8 127.97 162.24 124.2 161.01 121.81M169.35 121.94C167.3 123.24 165.31 124.16 163.17 125.31" stroke="black" stroke-miterlimit="10" stroke-linecap="round" stroke-linejoin="round"/>
<path d="M167.75 131.25C168.53 131.69 169.32 131.46 170.05 131.05C170.96 130.54 171.84 129.97 172.72 129.41C176.32 127.15 179.82 124.64 182.5 121.3C182.83 120.89 182.82 120.3 182.56 119.9C182.68 119.85 182.81 119.79 182.93 119.74C184.21 119.19 183.59 117.1 182.3 117.65C179.08 119.02 175.86 120.4 172.64 121.77C172.13 121.99 171.22 122.61 170.64 122.57C170.33 122.55 170.02 122.26 169.7 122.21C169.44 122.17 169.14 122.19 168.89 122.25C168.13 122.45 167.42 123.04 166.76 123.43C165.98 123.9 165.2 124.37 164.43 124.83C163.94 125.12 163.74 125.85 164.08 126.33L165.99 129.11C166.47 129.86 166.95 130.81 167.75 131.25V131.25Z" fill="black"/>
<path d="M184.06 117.87C184.86 118.87 184.83 120.35 184.31 121.52C183.79 122.69 182.87 123.63 181.96 124.54C179.39 127.13 176.78 129.75 173.6 131.52C172.5 132.13 171.28 132.65 170.02 132.59C168.76 132.53 167.46 131.74 167.17 130.52M43.84 86.77C49.65 100.24 52.88 116.7 51.99 131.33M56.04 132.5C56.75 132.6 57.46 132.66 58.17 132.64C59.39 132.6 60.59 132.31 61.81 132.19C66.86 131.71 71.9 134.25 76.92 133.47C77.25 133.92 77.03 134.6 76.6 134.95C76.17 135.3 75.77 135.9 75.22 135.98C72.94 136.33 71.22 136.9 68.91 136.92M75.38 143.48C73.14 142.81 69.33 141.57 67.01 141.28" stroke="black" stroke-miterlimit="10" stroke-linecap="round" stroke-linejoin="round"/>
<path d="M75.57 141.11C76.21 141.18 77.38 141.45 78.48 141.88C78.76 141.99 78.69 141.87 78.93 142.06C79.17 142.25 79.29 142.62 79.13 142.87C79.02 143.03 78.83 143.11 78.64 143.17C77.57 143.53 76.45 143.61 75.32 143.53M68.75 137.15C69.75 137.99 70.76 138.83 71.91 139.5C73.09 140.19 74.38 140.69 75.72 141.07M74.2 143.11C74.52 143.26 74.8 144.12 74.51 144.32C74.22 144.52 73.54 144.45 73.18 144.41C70.81 144.12 68.46 143.6 66.19 142.84M71.91 144.35C72.12 144.66 72.33 145.08 72.12 145.38C71.92 145.67 71.49 145.63 71.14 145.56C69.36 145.2 67.6 144.73 65.88 144.14" stroke="black" stroke-miterlimit="10" stroke-linecap="round" stroke-linejoin="round"/>
<path d="M68.09 144.9C68.37 145.06 68.37 145.37 68.36 145.68C68.35 146.05 67.47 146.2 67.16 146.13C64.75 145.6 64.11 144.31 62.72 143.38C60.3949 141.825 57.8111 140.697 55.09 140.05" stroke="black" stroke-miterlimit="10" stroke-linecap="round" stroke-linejoin="round"/>
<path d="M123.1 170.07C119.99 172.78 119.53 178.53 123.34 180.89C125.25 182.07 127.85 181.91 129.75 180.79C131.67 179.66 132.94 177.59 133.23 175.41C133.57 172.84 132.41 170.41 130.12 169.17C129.55 168.86 129.05 169.73 129.62 170.03C131.37 170.98 132.36 172.71 132.29 174.7C132.23 176.56 131.29 178.43 129.8 179.56C128.3 180.7 126.07 181.1 124.33 180.29C122.79 179.58 121.87 178.02 121.65 176.37C121.38 174.26 122.21 172.17 123.8 170.78C124.29 170.36 123.58 169.65 123.1 170.07V170.07Z" fill="#1D1D1B"/>
<path d="M121.53 177.31C118.74 174.98 115.94 172.66 113.15 170.33C112.66 169.92 111.95 170.62 112.44 171.04C115.23 173.37 118.03 175.69 120.82 178.02C121.32 178.42 122.03 177.72 121.53 177.31ZM131.69 170.32C128.33 167.63 124.97 164.93 121.61 162.24C121.11 161.84 120.4 162.54 120.9 162.95C124.26 165.64 127.62 168.34 130.98 171.03C131.48 171.42 132.2 170.72 131.69 170.32V170.32Z" fill="#1D1D1B"/>
<path d="M120.97 161.66C119.41 161.43 117.8 161.23 116.26 161.68C115.058 162.038 113.974 162.711 113.12 163.63C111.22 165.68 110.82 168.71 111.96 171.24C112.22 171.83 113.09 171.32 112.82 170.74C111.85 168.59 112.27 165.95 113.92 164.25C114.669 163.468 115.616 162.905 116.66 162.62C117.98 162.26 119.37 162.43 120.71 162.63C121.33 162.71 121.6 161.75 120.97 161.66ZM121.5 181.81C120.18 182.53 117.88 183.74 118.12 185.57C118.36 187.44 121.23 187.56 122.61 187.35C124.64 187.05 126.47 186 128.5 185.7C129.05 185.62 129.64 185.6 130.19 185.7C130.4 185.74 130.73 185.77 130.91 185.91C131.13 186.08 131.06 186.37 131.1 186.63C131.22 187.42 131.81 187.99 132.54 188.28C133.5 188.66 134.7 188.66 135.72 188.67C136.81 188.68 137.87 188.51 138.83 187.96C139.39 187.64 138.89 186.78 138.33 187.1C137.31 187.68 136.14 187.71 135 187.65C134.13 187.6 132.45 187.68 132.12 186.62C132 186.24 132.13 185.86 131.91 185.49C131.69 185.13 131.28 184.97 130.89 184.85C129.89 184.55 128.82 184.61 127.81 184.82C125.67 185.26 123.68 186.48 121.46 186.45C120.88 186.44 120.29 186.34 119.76 186.08C119.45 185.92 119.1 185.73 119.11 185.33C119.12 185.1 119.25 184.85 119.38 184.66C119.98 183.74 121.08 183.19 122.02 182.69C122.57 182.37 122.06 181.5 121.5 181.81V181.81ZM133.56 179.02C132.98 179.57 132.38 180.16 132.18 180.96C131.99 181.7 132.18 182.51 132.78 183C133.94 183.96 135.77 183.73 137.11 183.37C137.73 183.2 137.47 182.24 136.84 182.41C136.18 182.59 135.49 182.69 134.81 182.67C134.35 182.65 133.9 182.57 133.51 182.32C133.346 182.216 133.219 182.062 133.15 181.88C133.07 181.66 133.09 181.39 133.16 181.16C133.34 180.57 133.83 180.14 134.27 179.73C134.74 179.29 134.03 178.58 133.56 179.02V179.02Z" fill="#1D1D1B"/>
<path d="M137.46 183.32C138.45 183.06 139.63 182.94 140.52 183.56C140.81 183.76 141.09 184.13 141.21 184.46C141.35 184.85 141.37 185.23 141.19 185.56C140.89 186.13 141.76 186.64 142.05 186.06C142.63 184.95 142.17 183.59 141.21 182.84C140.07 181.94 138.51 182.01 137.18 182.36C136.57 182.52 136.83 183.48 137.46 183.32V183.32Z" fill="#1D1D1B"/>
<path d="M141.13 186.37C141.29 186.86 141.63 187.23 142.01 187.57C142.17 187.72 142.34 187.86 142.49 188.02C142.52 188.05 142.55 188.09 142.58 188.12C142.62 188.16 142.62 188.17 142.59 188.12C142.61 188.14 142.62 188.17 142.64 188.19C142.66 188.23 142.69 188.26 142.71 188.3C142.72 188.33 142.74 188.35 142.75 188.38C142.73 188.33 142.73 188.33 142.75 188.38C142.76 188.43 142.78 188.48 142.79 188.53C142.8 188.56 142.8 188.56 142.79 188.52V188.63C142.79 188.67 142.75 188.82 142.73 188.86C142.63 189.07 142.48 189.22 142.28 189.34C141.78 189.64 141.11 189.6 140.53 189.59C140.26 189.58 140.03 189.83 140.03 190.09C140.03 190.37 140.26 190.58 140.53 190.59C141.28 190.61 142.07 190.61 142.74 190.24C143.34 189.91 143.83 189.24 143.79 188.53C143.75 187.93 143.39 187.47 142.97 187.08C142.78 186.91 142.59 186.74 142.41 186.56C142.37 186.52 142.33 186.47 142.29 186.42C142.25 186.37 142.25 186.37 142.28 186.41C142.26 186.389 142.243 186.365 142.23 186.34C142.2 186.29 142.17 186.24 142.14 186.18C142.12 186.13 142.11 186.13 142.13 186.18L142.1 186.09C142.062 185.963 141.976 185.856 141.86 185.79C141.745 185.725 141.608 185.707 141.48 185.74C141.23 185.82 141.04 186.11 141.13 186.37V186.37ZM125.34 170.33C126.68 169.64 128.35 169.59 129.73 170.21C129.98 170.32 130.27 170.28 130.41 170.03C130.54 169.82 130.48 169.46 130.23 169.35C129.381 168.961 128.455 168.77 127.521 168.791C126.588 168.812 125.671 169.044 124.84 169.47C124.26 169.76 124.77 170.62 125.34 170.33V170.33ZM125.94 175.36C125.48 175.57 125.07 175.96 124.84 176.42C124.71 176.68 124.59 176.98 124.62 177.28C124.66 177.67 124.89 177.95 125.21 178.16C125.66 178.44 126.25 178.5 126.76 178.35C127.04 178.27 127.32 178.12 127.53 177.91C127.78 177.65 127.88 177.32 127.87 176.97C127.86 176.37 127.8 175.71 127.43 175.21C127.26 174.97 127.01 174.91 126.75 175.03C126.21 175.28 125.75 175.73 125.49 176.25C125.4 176.43 125.4 176.64 125.53 176.81C125.66 176.97 125.86 177.03 126.06 176.99C126.38 176.92 126.7 176.78 126.97 176.59L126.29 175.91C126.09 176.23 125.88 176.54 125.67 176.85C125.55 177.02 125.59 177.31 125.75 177.46C125.91 177.6 126.17 177.67 126.36 177.54C126.56 177.4 126.76 177.26 126.96 177.13L126.28 176.45C126.24 176.53 126.2 176.63 126.13 176.7C126.23 176.6 126.11 176.72 126.09 176.73C126.06 176.76 126.02 176.8 125.98 176.83C125.83 176.96 125.81 177.21 125.88 177.38C125.95 177.55 126.14 177.7 126.34 177.69C126.53 177.68 126.74 177.61 126.86 177.45C126.95 177.34 127.01 177.24 127.01 177.1C127.011 177.034 126.998 176.969 126.972 176.909C126.946 176.849 126.908 176.794 126.86 176.75C126.68 176.59 126.32 176.53 126.15 176.75C126.12 176.78 126.12 176.78 126.15 176.76C126.201 176.719 126.265 176.698 126.33 176.7C126.45 176.98 126.57 177.27 126.68 177.55C126.87 177.39 127.02 177.19 127.13 176.97C127.22 176.77 127.22 176.52 127.05 176.36C126.89 176.22 126.63 176.15 126.44 176.28C126.24 176.42 126.04 176.56 125.84 176.69L126.52 177.37C126.73 177.06 126.95 176.75 127.14 176.43C127.25 176.25 127.22 175.97 127.06 175.82C126.91 175.68 126.64 175.61 126.45 175.74C126.34 175.82 126.22 175.89 126.09 175.95C126 175.99 126.15 175.93 126.09 175.95L126 175.98C125.93 176 125.86 176.02 125.78 176.04C125.97 176.28 126.16 176.53 126.34 176.77C126.4 176.66 126.46 176.55 126.53 176.45C126.58 176.37 126.48 176.5 126.52 176.46C126.542 176.441 126.559 176.417 126.57 176.39C126.61 176.34 126.65 176.3 126.7 176.25C126.74 176.21 126.78 176.17 126.83 176.14C126.89 176.09 126.87 176.13 126.82 176.14C126.84 176.13 126.88 176.1 126.9 176.08C127 176.01 127.11 175.95 127.23 175.9C127 175.84 126.77 175.78 126.55 175.72C126.61 175.8 126.65 175.88 126.7 175.96C126.74 176.04 126.69 175.95 126.69 175.94C126.69 175.96 126.71 175.99 126.71 176.01C126.73 176.07 126.75 176.12 126.76 176.18C126.78 176.26 126.83 176.38 126.82 176.46C126.83 176.37 126.81 176.39 126.82 176.43C126.82 176.45 126.83 176.48 126.83 176.5C126.84 176.56 126.84 176.62 126.84 176.68C126.85 176.78 126.85 176.88 126.85 176.97C126.85 176.98 126.86 177.13 126.85 177.13C126.84 177.13 126.88 177.01 126.85 177.11C126.85 177.13 126.81 177.23 126.84 177.16C126.87 177.09 126.82 177.19 126.81 177.2C126.81 177.2 126.9 177.11 126.82 177.18C126.81 177.19 126.71 177.27 126.72 177.28C126.72 177.27 126.81 177.22 126.74 177.26C126.72 177.27 126.7 177.28 126.68 177.3C126.64 177.33 126.59 177.35 126.55 177.37C126.49 177.4 126.64 177.34 126.58 177.36C126.56 177.37 126.54 177.38 126.52 177.38C126.48 177.39 126.44 177.41 126.39 177.42C126.37 177.43 126.35 177.43 126.33 177.43C126.31 177.43 126.24 177.44 126.32 177.43H126.08C125.95 177.42 126.18 177.45 126.05 177.43C126.03 177.43 125.78 177.37 125.78 177.35C125.78 177.34 125.88 177.4 125.81 177.36L125.75 177.33C125.71 177.31 125.68 177.28 125.64 177.26C125.56 177.21 125.66 177.27 125.66 177.28C125.66 177.27 125.62 177.24 125.61 177.23C125.61 177.23 125.56 177.19 125.56 177.18C125.6 177.23 125.61 177.24 125.59 177.21C125.57 177.18 125.58 177.19 125.6 177.25C125.58 177.24 125.59 177.19 125.58 177.18C125.61 177.2 125.58 177.28 125.59 177.21V177.14C125.58 177.15 125.57 177.24 125.59 177.16C125.6 177.11 125.61 177.06 125.63 177.02C125.63 177.01 125.65 176.96 125.65 176.95C125.62 177.01 125.62 177.03 125.63 176.99C125.64 176.97 125.64 176.96 125.65 176.94C125.69 176.85 125.74 176.76 125.8 176.68C125.81 176.67 125.83 176.63 125.84 176.63C125.8 176.68 125.79 176.69 125.81 176.67C125.82 176.66 125.83 176.64 125.84 176.63C125.87 176.59 125.91 176.56 125.94 176.52C125.98 176.48 126.02 176.44 126.06 176.41C126.08 176.4 126.14 176.37 126.07 176.4C126 176.44 126.09 176.39 126.1 176.38C126.19 176.32 126.29 176.26 126.39 176.22C126.63 176.11 126.71 175.75 126.57 175.54C126.46 175.29 126.19 175.24 125.94 175.36V175.36Z" fill="#1D1D1B"/>
<path d="M127.18 174.94C127.07 174.53 126.96 174.12 126.9 173.7C126.91 173.78 126.89 173.61 126.89 173.61C126.89 173.56 126.88 173.52 126.88 173.47C126.87 173.37 126.87 173.27 126.87 173.17C126.872 173.033 126.882 172.896 126.9 172.76C126.91 172.71 126.92 172.65 126.94 172.6C126.86 172.7 126.79 172.8 126.71 172.9C126.92 172.8 127.03 172.74 127.22 172.68C127.27 172.66 127.32 172.65 127.37 172.64C127.39 172.64 127.53 172.62 127.44 172.63H127.65C127.695 172.638 127.738 172.651 127.78 172.67C127.81 172.68 127.81 172.68 127.77 172.67C127.79 172.68 127.81 172.69 127.84 172.7C127.92 172.74 128 172.79 128.07 172.84L128.19 172.93C128.32 173.02 128.12 172.87 128.24 172.97C128.31 173.03 128.38 173.09 128.45 173.16C128.46 173.17 128.54 173.28 128.49 173.2C128.52 173.24 128.54 173.28 128.56 173.32C128.53 173.26 128.56 173.32 128.57 173.36C128.58 173.38 128.58 173.41 128.59 173.43C128.58 173.38 128.58 173.38 128.58 173.41C128.58 173.45 128.58 173.44 128.59 173.39C128.59 173.41 128.58 173.44 128.57 173.46C128.56 173.49 128.56 173.49 128.57 173.45C128.56 173.46 128.55 173.48 128.55 173.49C128.62 173.43 128.52 173.52 128.51 173.53L128.41 173.63C128.08 173.92 127.8 174.12 127.43 174.38C127.22 174.53 127.1 174.82 127.25 175.06C127.39 175.27 127.7 175.4 127.93 175.24C128.21 175.05 128.48 174.85 128.74 174.64C128.98 174.45 129.23 174.27 129.4 174.01C129.81 173.4 129.46 172.67 128.95 172.25C128.71 172.05 128.46 171.87 128.17 171.75C127.84 171.61 127.5 171.59 127.15 171.66C126.84 171.72 126.55 171.86 126.27 172C126.05 172.11 125.97 172.29 125.93 172.52C125.9 172.7 125.88 172.88 125.87 173.06C125.84 173.79 126.03 174.51 126.22 175.2C126.29 175.45 126.58 175.63 126.84 175.55C127.09 175.47 127.25 175.21 127.18 174.94V174.94ZM82.8 160.68C82.41 165.88 82.21 171.09 82.22 176.3C82.22 176.94 83.22 176.94 83.22 176.3C83.21 171.09 83.41 165.88 83.8 160.68C83.85 160.04 82.85 160.05 82.8 160.68Z" fill="#1D1D1B"/>
<path d="M82.49 176.76C83.34 178.79 85.42 179.92 87.57 179.97C90.11 180.03 92.39 178.58 94.25 176.99C94.74 176.57 94.03 175.87 93.54 176.28C91.96 177.64 90.02 178.91 87.87 178.97C86.12 179.02 84.17 178.19 83.46 176.49C83.21 175.91 82.24 176.17 82.49 176.76V176.76ZM83.22 160.81C84.97 162.22 87.16 162.73 89.36 162.82C91.55 162.91 93.99 162.5 95.2 160.47C95.53 159.92 94.67 159.41 94.34 159.97C93.28 161.74 91.04 161.92 89.18 161.82C87.33 161.72 85.4 161.3 83.93 160.11C83.43 159.7 82.72 160.41 83.22 160.81V160.81Z" fill="#1D1D1B"/>
<path d="M83.81 160.28C83.94 159.31 85.17 158.81 85.97 158.53C87.8728 157.866 89.9399 157.838 91.86 158.45C92.1 158.52 94.61 159.51 94.44 159.85C94.15 160.42 95.01 160.93 95.3 160.35C95.93 159.12 94.14 158.31 93.26 157.91C91.9911 157.34 90.6207 157.03 89.23 157C87.86 156.97 86.47 157.22 85.21 157.75C84.06 158.23 83 158.96 82.83 160.27C82.73 160.92 83.73 160.91 83.81 160.28Z" fill="#1D1D1B"/>
<path d="M94.43 159.51C94.71 165.35 94.48 171.19 93.76 176.99C93.68 177.63 94.68 177.62 94.76 176.99C95.48 171.19 95.71 165.34 95.43 159.51C95.4 158.87 94.4 158.87 94.43 159.51ZM88.72 159.76C88.75 159.73 88.79 159.7 88.82 159.67C88.83 159.66 88.85 159.65 88.86 159.63C88.93 159.57 88.86 159.63 88.85 159.64C88.91 159.58 89 159.53 89.07 159.48C89.22 159.38 89.38 159.28 89.55 159.2C89.59 159.18 89.62 159.16 89.66 159.15C89.74 159.11 89.55 159.19 89.66 159.15C89.73 159.13 89.79 159.1 89.86 159.09C89.89 159.08 89.93 159.08 89.96 159.07C90.05 159.05 89.85 159.08 89.96 159.07H90.1C90.16 159.07 89.98 159.04 90.06 159.07C90.09 159.08 90.12 159.09 90.15 159.09C90.18 159.1 90.03 159.06 90.13 159.08C90.15 159.09 90.2 159.13 90.13 159.08C90.1266 159.077 90.1233 159.074 90.12 159.07C90.13 159.08 90.15 159.11 90.16 159.11C90.14 159.11 90.1 159.01 90.13 159.08C90.13 159.09 90.15 159.13 90.16 159.13C90.15 159.12 90.14 159.03 90.13 159.07C90.13 159.08 90.14 159.1 90.14 159.11C90.16 159.18 90.13 159.07 90.13 159.06C90.13 159.07 90.12 159.2 90.14 159.1C90.16 159.01 90.13 159.12 90.13 159.14C90.13 159.15 90.11 159.18 90.11 159.19C90.11 159.19 90.16 159.1 90.13 159.14C90.11 159.17 90.1 159.2 90.08 159.23C90.07 159.24 90.05 159.27 90.05 159.28C90.05 159.28 90.12 159.2 90.08 159.24C90.05 159.27 90.03 159.3 90 159.33L89.97 159.36C89.91 159.42 89.99 159.34 90 159.34C89.97 159.35 89.94 159.38 89.91 159.4C89.89 159.41 89.8 159.45 89.88 159.42C89.96 159.39 89.88 159.42 89.87 159.42C89.85 159.43 89.82 159.44 89.79 159.44C89.74 159.45 89.69 159.47 89.64 159.47C89.62 159.47 89.54 159.49 89.61 159.48C89.68 159.47 89.59 159.48 89.58 159.48C89.47 159.49 89.37 159.49 89.26 159.5C89.01 159.51 88.76 159.52 88.51 159.56C88.39 159.58 88.27 159.69 88.21 159.79C88.15 159.9 88.12 160.06 88.16 160.18C88.25 160.46 88.5 160.57 88.78 160.53C88.65 160.55 88.81 160.53 88.84 160.53C88.89 160.53 88.95 160.52 89 160.52C89.12 160.51 89.24 160.51 89.36 160.51C89.61 160.5 89.87 160.48 90.12 160.4C90.57 160.26 90.94 159.91 91.09 159.46C91.25 159 91.04 158.45 90.6 158.23C90.21 158.04 89.75 158.07 89.35 158.23C88.85 158.43 88.4 158.73 87.99 159.09C87.79 159.26 87.8 159.62 87.99 159.8C88.0991 159.875 88.2298 159.911 88.3618 159.904C88.4938 159.897 88.6198 159.846 88.72 159.76V159.76Z" fill="#1D1D1B"/>
<path d="M88.3 159.37C88.12 158.99 87.6 158.85 87.22 158.99C86.85 159.13 86.61 159.45 86.45 159.8C86.36 159.99 86.33 160.19 86.41 160.39C86.47 160.54 86.59 160.66 86.73 160.74C86.91 160.84 87.1 160.89 87.31 160.91C87.68 160.94 88.05 160.79 88.32 160.55C88.54 160.35 88.68 160.03 88.59 159.73C88.5367 159.564 88.4223 159.424 88.27 159.34C88.08 159.25 87.82 159.22 87.65 159.36C87.54 159.44 87.46 159.52 87.42 159.66C87.39 159.78 87.4 159.94 87.47 160.05C87.54 160.16 87.64 160.25 87.77 160.28C87.89 160.31 88.05 160.31 88.16 160.23C88.17 160.22 88.18 160.22 88.18 160.21C88.14 160.23 88.1 160.24 88.06 160.26C88.07 160.26 88.08 160.25 88.09 160.25C88.05 160.26 88 160.26 87.96 160.27H88C87.96 160.26 87.91 160.26 87.87 160.25C87.88 160.25 87.89 160.25 87.9 160.26C87.86 160.24 87.82 160.23 87.78 160.21C87.79 160.22 87.81 160.22 87.82 160.23C87.79 160.2 87.75 160.18 87.72 160.15L87.75 160.18C87.72 160.15 87.7 160.11 87.67 160.08C87.68 160.09 87.69 160.1 87.69 160.12C87.67 160.08 87.66 160.04 87.64 160C87.64 160.01 87.65 160.02 87.65 160.03C87.64 159.99 87.64 159.94 87.63 159.9V159.96C87.64 159.92 87.64 159.87 87.65 159.83C87.65 159.86 87.64 159.88 87.63 159.91C87.65 159.87 87.66 159.83 87.68 159.79C87.67 159.82 87.65 159.85 87.63 159.88C87.66 159.85 87.68 159.81 87.71 159.78C87.6718 159.828 87.6282 159.872 87.58 159.91C87.61 159.88 87.65 159.86 87.68 159.83C87.62 159.87 87.56 159.91 87.5 159.93C87.54 159.91 87.58 159.9 87.62 159.88C87.55 159.91 87.48 159.93 87.4 159.94C87.44 159.93 87.49 159.93 87.53 159.92C87.45 159.93 87.37 159.93 87.28 159.92C87.32 159.93 87.37 159.93 87.41 159.94C87.342 159.929 87.2751 159.912 87.21 159.89C87.25 159.91 87.29 159.92 87.33 159.94C87.2801 159.919 87.2331 159.892 87.19 159.86C87.22 159.89 87.26 159.91 87.29 159.94C87.28 159.93 87.26 159.92 87.25 159.9C87.28 159.93 87.3 159.97 87.33 160C87.32 159.99 87.32 159.98 87.31 159.97C87.33 160.01 87.34 160.05 87.36 160.09C87.35 160.08 87.35 160.06 87.35 160.05C87.36 160.09 87.36 160.14 87.37 160.18V160.14C87.36 160.18 87.36 160.23 87.35 160.27C87.36 160.25 87.36 160.23 87.37 160.21C87.35 160.25 87.34 160.29 87.32 160.33C87.38 160.21 87.45 160.08 87.53 159.97C87.5 160 87.48 160.04 87.45 160.07C87.49 160.01 87.54 159.96 87.6 159.92C87.57 159.95 87.53 159.97 87.5 160C87.54 159.97 87.58 159.95 87.62 159.93C87.58 159.95 87.54 159.96 87.5 159.98C87.54 159.96 87.58 159.95 87.62 159.95C87.58 159.96 87.53 159.96 87.49 159.97H87.61C87.57 159.96 87.52 159.96 87.48 159.95C87.52 159.96 87.55 159.96 87.58 159.98C87.54 159.96 87.5 159.95 87.46 159.93C87.49 159.94 87.51 159.96 87.54 159.97C87.51 159.94 87.47 159.92 87.44 159.89C87.46 159.91 87.48 159.92 87.49 159.94C87.46 159.91 87.44 159.87 87.41 159.84C87.43 159.86 87.44 159.88 87.45 159.9C87.5 160.01 87.64 160.1 87.75 160.13C87.87 160.16 88.03 160.15 88.14 160.08C88.25 160.01 88.34 159.91 88.37 159.78C88.38 159.74 88.38 159.69 88.39 159.65C88.36 159.53 88.34 159.45 88.3 159.37V159.37ZM85.61 67.8098C87.86 65.3498 89.87 62.7098 91.5 59.7998C92.2 58.5298 92.85 57.2298 93.43 55.8998C93.62 55.4598 93.78 54.9998 94.08 54.6298C94.62 53.9698 95.4 53.5898 96.13 53.1698C97 52.6698 97.7 52.0698 98.36 51.3198C99.05 50.5298 99.8 49.8698 100.73 49.3598C101.29 49.0498 100.79 48.1798 100.23 48.4998C99.47 48.9198 98.76 49.4498 98.15 50.0798C97.53 50.7298 97.01 51.4498 96.24 51.9498C94.98 52.7698 93.49 53.3298 92.84 54.7898C91.66 57.4398 90.37 60.0198 88.72 62.4198C87.58 64.0798 86.29 65.6198 84.93 67.1098C84.47 67.5698 85.18 68.2798 85.61 67.8098V67.8098Z" fill="#1D1D1B"/>
<path d="M100.5 49.5498C101.83 48.7398 103.52 49.0898 104.97 49.2898C105.85 49.4098 106.73 49.5298 107.6 49.6398C107.8 49.6698 108.49 49.6498 108.63 49.8498C108.81 50.1198 108.15 50.3698 107.99 50.4398C107.4 50.6998 107.91 51.5598 108.49 51.2998C108.94 51.0998 109.37 50.8398 109.56 50.3598C109.71 49.9798 109.68 49.5198 109.39 49.2098C109.09 48.8698 108.64 48.7798 108.21 48.7198C107.6 48.6398 106.98 48.5598 106.37 48.4698C104.33 48.1998 101.87 47.5298 99.99 48.6798C99.45 49.0198 99.95 49.8798 100.5 49.5498V49.5498Z" fill="#1D1D1B"/>
<path d="M101.95 61.9499C106.06 62.2399 110.18 61.4799 114.3 61.5399C117.61 61.5899 119.56 61.6499 122.84 61.4699L124.63 61.5299C124.79 60.6799 125.22 53.2999 125.06 52.3699L124.83 51.0299L117.83 50.9999C117.29 50.9999 116.75 50.9899 116.22 50.9899C111.66 50.9699 107.65 50.9399 103.09 50.9199L102.08 51.0599C101.83 54.5199 101.9 57.9999 101.96 61.4699L101.95 61.9499V61.9499Z" stroke="#1D1D1B" stroke-miterlimit="10"/>
<path d="M100.99 51.94C100.45 52.93 99.75 53.75 98.96 54.55C98.59 54.92 98.24 55.32 98.05 55.82C97.84 56.4 98.05 56.89 98.14 57.46C98.18 57.73 98.52 57.87 98.76 57.81C99.05 57.73 99.15 57.46 99.11 57.19C99.05 56.77 98.84 56.41 99.06 56C99.28 55.6 99.63 55.29 99.95 54.98C100.7 54.23 101.34 53.38 101.86 52.45C102.16 51.88 101.3 51.38 100.99 51.94V51.94Z" fill="#1D1D1B"/>
<path d="M98.3999 58.7C98.6999 59.02 99.0099 59.34 99.3099 59.66C99.5899 59.95 99.7699 60.16 99.9499 60.52C99.9599 60.54 99.9699 60.55 99.9699 60.57C99.9599 60.54 99.9599 60.54 99.9699 60.57C99.9899 60.61 99.9999 60.65 100.01 60.69C100.04 60.78 100.07 60.88 100.1 60.97C100.16 61.16 100.24 61.36 100.36 61.52C100.63 61.89 101.12 62.15 101.58 61.98C101.82 61.89 102.02 61.64 101.93 61.36C101.85 61.12 101.58 60.91 101.31 61.01C101.29 61.02 101.27 61.03 101.25 61.03C101.22 61.04 101.22 61.04 101.25 61.03C101.27 61.02 101.3 61.02 101.32 61.04C101.31 61.04 101.29 61.03 101.28 61.03C101.27 61.03 101.25 61.02 101.24 61.02C101.28 61.04 101.29 61.04 101.26 61.02C101.25 61.01 101.17 60.95 101.23 61.01L101.17 60.95C101.23 61.01 101.17 60.94 101.15 60.92L101.09 60.8C101.12 60.86 101.08 60.77 101.07 60.75C100.95 60.4 100.85 60.05 100.64 59.73C100.22 59.09 99.6199 58.55 99.0899 57.99C98.9099 57.8 98.5599 57.79 98.3799 57.99C98.2199 58.19 98.2099 58.49 98.3999 58.7V58.7Z" fill="#1D1D1B"/>
<path d="M92.15 70.9601C92.53 70.0901 92.93 69.1801 93.65 68.5701C94.99 67.4401 97 67.6401 98.58 66.8701C99.03 66.6501 99.44 66.3601 99.89 66.1501C100.82 65.7201 101.87 65.6601 102.89 65.6101C102.89 65.6101 105.75 65.2901 106.37 64.6701C106.59 64.4501 106.9 64.3601 107.19 64.2601C107.94 64.0001 108.79 64.2501 109.56 64.0701C110.01 63.9601 110.45 63.6801 110.61 63.2401C110.77 62.8001 110.96 61.7101 110.5 61.6201" stroke="#1D1D1B" stroke-miterlimit="10"/>
<path d="M99.34 57.8498C99.75 57.6298 100.12 57.3398 100.41 56.9798C100.5 56.8698 100.58 56.7698 100.66 56.6498C100.66 56.6398 100.7 56.5898 100.7 56.5898C100.71 56.6098 100.63 56.6598 100.61 56.6698C100.56 56.6798 100.51 56.6998 100.46 56.7098H100.5C100.53 56.7198 100.57 56.7198 100.61 56.7198L101.41 56.7798C101.67 56.7998 101.92 56.5398 101.91 56.2798C101.9 55.9898 101.69 55.7998 101.41 55.7798C101.14 55.7598 100.86 55.7398 100.59 55.7098C100.41 55.6998 100.24 55.7198 100.09 55.8198C99.94 55.9198 99.85 56.0698 99.75 56.2198C99.74 56.2298 99.69 56.2998 99.73 56.2398C99.77 56.1798 99.7 56.2798 99.7 56.2798C99.66 56.3198 99.63 56.3698 99.59 56.4098L99.35 56.6498C99.31 56.6898 99.27 56.7198 99.22 56.7598C99.25 56.7398 99.28 56.7198 99.23 56.7498C99.2 56.7698 99.18 56.7898 99.15 56.7998C99.05 56.8698 98.95 56.9298 98.84 56.9798C98.61 57.0998 98.52 57.4398 98.66 57.6598C98.81 57.8998 99.09 57.9798 99.34 57.8498V57.8498ZM100.51 58.9098C100.55 58.8898 100.59 58.8698 100.64 58.8498C100.6 58.8698 100.56 58.8798 100.51 58.9098C100.73 58.8098 100.96 58.7498 101.19 58.7198C101.15 58.7298 101.1 58.7298 101.06 58.7398C101.22 58.7198 101.38 58.7098 101.55 58.7198C101.81 58.7298 102.06 58.4798 102.05 58.2198C102.048 58.0879 101.995 57.9619 101.901 57.8686C101.808 57.7752 101.682 57.7219 101.55 57.7198C101.02 57.6998 100.49 57.8198 100.01 58.0498C99.9 58.0998 99.81 58.2398 99.78 58.3498C99.75 58.4698 99.76 58.6298 99.83 58.7398C99.9 58.8498 100 58.9398 100.13 58.9698C100.26 58.9898 100.38 58.9698 100.51 58.9098V58.9098ZM100.86 59.7698C100.94 59.8298 101.02 59.8998 101.11 59.9498C101.2 59.9998 101.3 60.0398 101.39 60.0798C101.45 60.0998 101.51 60.1198 101.57 60.1298C101.67 60.1498 101.78 60.1598 101.89 60.1698C102.02 60.1698 102.15 60.1098 102.24 60.0198C102.29 59.9698 102.32 59.9198 102.34 59.8598C102.37 59.7998 102.39 59.7398 102.38 59.6698C102.377 59.5382 102.323 59.4128 102.23 59.3198C102.133 59.232 102.01 59.1792 101.88 59.1698C101.84 59.1698 101.8 59.1698 101.76 59.1598C101.8 59.1698 101.85 59.1698 101.89 59.1798C101.793 59.1685 101.698 59.1415 101.61 59.0998C101.65 59.1198 101.69 59.1298 101.73 59.1498C101.644 59.1152 101.563 59.068 101.49 59.0098C101.52 59.0398 101.56 59.0598 101.59 59.0898C101.58 59.0798 101.57 59.0798 101.56 59.0698C101.516 59.0239 101.461 58.9896 101.4 58.9698C101.342 58.9367 101.276 58.9227 101.21 58.9298C101.14 58.9298 101.08 58.9398 101.02 58.9698C100.96 58.9898 100.9 59.0198 100.86 59.0698C100.77 59.1698 100.71 59.2898 100.71 59.4198C100.72 59.4598 100.72 59.5098 100.73 59.5498C100.75 59.6298 100.79 59.7098 100.86 59.7698V59.7698Z" fill="#1D1D1B"/>
<path d="M105.56 60.1702C108.45 59.9102 111.11 59.8802 114 59.6202C115.53 59.4802 116.98 59.6302 118.52 59.6502C119.65 59.6702 121.19 59.7802 122.31 59.9302C122.31 59.9302 122.04 52.9202 122.06 52.3902C122.06 52.3902 108.51 52.3002 105.38 52.4802L105.35 52.9602C105.35 55.5302 105.56 60.1702 105.56 60.1702V60.1702Z" stroke="#1D1D1B" stroke-miterlimit="10"/>
<path d="M103.6 55.54C103.19 55.54 102.83 55.82 102.57 56.11C102.4 56.3 102.29 56.51 102.26 56.77C102.24 57 102.35 57.19 102.44 57.39C102.42 57.35 102.41 57.31 102.39 57.27L102.42 57.37C102.41 57.33 102.41 57.28 102.4 57.24C102.41 57.31 102.4 57.38 102.4 57.45C102.41 57.58 102.44 57.7 102.51 57.82C102.63 58 102.81 58.12 103.01 58.18C103.35 58.28 103.73 58.22 104.05 58.07C104.7 57.78 105.02 56.93 104.66 56.3C104.46 55.95 104.06 55.71 103.65 55.72C103.39 55.73 103.14 55.94 103.15 56.22C103.16 56.48 103.37 56.73 103.65 56.72H103.75C103.71 56.71 103.66 56.71 103.62 56.7C103.68 56.71 103.73 56.72 103.78 56.74C103.74 56.72 103.7 56.71 103.66 56.69C103.69 56.7 103.73 56.72 103.76 56.74C103.83 56.79 103.74 56.72 103.73 56.71C103.75 56.71 103.76 56.74 103.78 56.75C103.79 56.76 103.8 56.77 103.81 56.79C103.85 56.83 103.74 56.69 103.78 56.76C103.8 56.79 103.82 56.83 103.84 56.87C103.82 56.83 103.81 56.79 103.79 56.75C103.81 56.8 103.83 56.86 103.84 56.92C103.83 56.88 103.83 56.83 103.82 56.79C103.83 56.86 103.83 56.92 103.82 56.99C103.83 56.95 103.83 56.9 103.84 56.86C103.83 56.93 103.81 57.01 103.78 57.08C103.8 57.04 103.81 57 103.83 56.96C103.81 57.01 103.78 57.05 103.76 57.09C103.72 57.16 103.83 57.02 103.79 57.06C103.77 57.08 103.76 57.1 103.74 57.12C103.73 57.13 103.7 57.15 103.69 57.16C103.75 57.11 103.77 57.1 103.74 57.12C103.73 57.13 103.72 57.14 103.71 57.14C103.67 57.17 103.62 57.19 103.57 57.22C103.61 57.2 103.65 57.19 103.69 57.17C103.6 57.21 103.51 57.23 103.41 57.25C103.45 57.24 103.5 57.24 103.54 57.23C103.45 57.24 103.37 57.24 103.28 57.23C103.32 57.24 103.37 57.24 103.41 57.25C103.351 57.2441 103.293 57.2271 103.24 57.2C103.28 57.22 103.32 57.23 103.36 57.25C103.33 57.24 103.24 57.18 103.32 57.23C103.4 57.29 103.3 57.19 103.37 57.28C103.42 57.35 103.39 57.3 103.38 57.28C103.4 57.32 103.41 57.36 103.43 57.4C103.42 57.38 103.42 57.36 103.41 57.33C103.42 57.37 103.42 57.42 103.43 57.46C103.42 57.33 103.44 57.2 103.4 57.07C103.37 56.95 103.3 56.84 103.25 56.73C103.27 56.77 103.28 56.81 103.3 56.85L103.27 56.75C103.28 56.79 103.28 56.84 103.29 56.88V56.78C103.28 56.82 103.28 56.87 103.27 56.91C103.28 56.88 103.28 56.85 103.3 56.81C103.28 56.85 103.27 56.89 103.25 56.93C103.26 56.9 103.28 56.87 103.3 56.84C103.31 56.83 103.32 56.81 103.33 56.8C103.28 56.87 103.27 56.88 103.3 56.84C103.34 56.79 103.39 56.75 103.43 56.7C103.47 56.66 103.53 56.62 103.57 56.57C103.5 56.62 103.49 56.63 103.53 56.6C103.54 56.59 103.56 56.58 103.58 56.57C103.61 56.55 103.64 56.53 103.67 56.52C103.63 56.54 103.59 56.55 103.55 56.57C103.59 56.55 103.63 56.54 103.68 56.53C103.64 56.54 103.59 56.54 103.55 56.55H103.63C103.89 56.55 104.14 56.32 104.13 56.05C104.09 55.76 103.88 55.54 103.6 55.54V55.54Z" fill="#1D1D1B"/>
<path d="M37.26 29.9401C39 27.4801 40.74 25.0201 42.47 22.5601C44.12 20.2201 45.71 17.8201 47.73 15.7701C48.18 15.3101 47.47 14.6001 47.02 15.0601C45.01 17.1101 43.4 19.5101 41.75 21.8501C39.96 24.3801 38.18 26.9101 36.39 29.4301C36.02 29.9601 36.89 30.4601 37.26 29.9401Z" fill="black"/>
<path d="M64.87 73.0498C64.87 73.0498 81.17 79.6498 100.9 78.5298" stroke="#1D1D1B" stroke-miterlimit="10"/>
<defs>
<linearGradient id="paint0_linear_1230_3341" x1="28" y1="36.5" x2="112" y2="147" gradientUnits="userSpaceOnUse">
<stop offset="0.25" stop-color="#6E7CF6"/>
<stop offset="1" stop-color="#1B2FDB"/>
</linearGradient>
</defs>
</svg>
