<svg width="208" height="188" viewBox="0 0 208 188" fill="none" xmlns="http://www.w3.org/2000/svg">
<path d="M179.1 111.08V111.3C178.52 111.87 178.21 112.59 177.97 113.34C177.93 113.48 177.82 113.59 177.75 113.72C177.45 114.23 177.16 114.75 176.86 115.26C176.43 116.01 176.02 116.77 175.57 117.51C175.45 117.7 175.21 117.82 175.1 118.02C174.8 118.55 174.55 119.11 174.25 119.64C174.08 119.95 173.83 120.21 173.66 120.51C173.58 120.64 173.55 120.85 173.59 121C173.86 122.02 173.59 122.48 172.6 122.96C172.21 123.15 171.89 123.54 171.6 123.9C171.3 124.28 171.1 124.74 170.8 125.12C170.24 125.84 169.75 126.6 168.97 127.15C168.43 127.53 168.07 128.17 167.62 128.7C167.4 128.96 167.2 129.23 166.97 129.47C166.89 129.55 166.72 129.62 166.63 129.58C166.2 129.42 166.1 129.61 166.2 130.08C166.14 130.08 166.09 130.09 166.03 130.09C165.691 129.762 165.354 129.432 165.02 129.1C164.74 129.21 164.41 129.33 164.08 129.46C163.98 129.5 163.83 129.56 163.82 129.63C163.74 130.11 163.3 130.18 162.98 130.32C162 130.73 160.98 131.05 160 131.45C159.22 131.78 158.48 132.23 157.7 132.55C156.64 132.98 155.55 133.33 154.47 133.71C154.42 133.73 154.39 133.78 154.34 133.8C153.96 133.99 153.58 134.21 153.18 134.37C152.69 134.56 152.17 134.68 151.71 134.82C151.68 135.07 151.72 135.37 151.61 135.44C151.27 135.65 150.89 135.88 150.51 135.92C149.58 136.02 148.64 136.03 147.7 136.05C147.24 136.06 146.79 135.98 146.33 135.98C145.13 135.99 143.93 136.07 142.73 136.04C141.59 136.02 140.45 135.91 139.31 135.82C139 135.8 138.69 135.76 138.38 135.69C137.51 135.49 136.65 135.22 135.78 135.07C134.9 134.91 134 134.86 133.11 134.77C132.4 134.69 131.69 134.64 130.98 134.54C129.38 134.31 127.77 134.11 126.18 133.8C124.91 133.55 123.68 133.14 122.42 132.8C122.23 133.21 122 133.7 121.77 134.18C121.78 134.18 121.78 134.19 121.79 134.19C121.71 134.4 121.63 134.61 121.54 134.84C120.85 134.84 120.6 135.42 120.23 135.89C120.12 135.85 119.99 135.83 119.87 135.78C119.03 135.39 118.19 134.99 117.34 134.6C116.23 134.09 115.11 133.62 114 133.09C112.21 132.24 110.7 130.94 108.99 129.93C107.04 128.78 105.38 127.26 103.74 125.72C103.17 125.18 102.63 124.62 102.04 124.1C101.36 123.5 100.67 122.9 99.93 122.38C99.37 121.98 98.72 121.7 98.11 121.37C97.04 120.8 95.95 120.27 94.91 119.66C94.48 119.41 93.8 119.35 93.85 118.61C93.63 118.57 93.45 118.53 93.27 118.49V118.35C93.44 118.29 93.61 118.22 93.89 118.12C93.22 118.12 93.3 117.91 93.61 117.61C93.84 117.39 94.15 117.17 94.24 116.9C94.52 116.08 94.09 115.36 93.71 114.68C93.29 113.91 92.76 113.2 92.36 112.42C92.01 111.72 91.83 110.93 91.47 110.23C91.04 109.42 91.18 108.49 90.8 107.68C90.79 107.66 90.89 107.61 90.9 107.57C90.94 107.39 90.97 107.2 91.01 107.02L90.92 106.99C90.86 107.08 90.8 107.17 90.68 107.32C90.61 106.76 90.56 106.27 90.5 105.79C90.5 105.66 90.32 105.54 90.27 105.37C90.05 104.76 89.86 104.14 89.68 103.51C89.36 102.38 89.04 101.26 88.77 100.12C88.55 99.19 88.39 98.25 88.21 97.31C88.13 96.9 88.06 96.49 87.98 96.08C87.76 95.06 88.01 93.93 87.26 93.01C87.12 92.83 87.1 92.52 87.09 92.27C87.08 91.93 87.13 91.58 87.14 91.24C87.19 89.84 86.75 88.47 87.06 87.05C87.21 86.35 87.06 85.58 86.98 84.83C86.8 83.2 86.81 81.56 86.77 79.92C86.76 79.7 86.91 79.47 86.97 79.31C86.9 79.12 86.79 78.95 86.78 78.78C86.75 78.39 86.81 77.98 86.74 77.6C86.52 76.39 86.61 75.18 86.77 73.98C86.86 73.3 86.95 72.63 87.11 71.97C87.38 70.86 87.97 70.07 89.25 70.05C89.39 70.05 89.52 69.9 89.66 69.84C89.78 69.79 89.9 69.71 90.02 69.71C90.67 69.74 91.33 69.73 91.97 69.84C92.96 70.01 93.94 70.27 94.92 70.49C95.98 70.73 97.05 71.28 98.1 70.42C98.18 70.35 98.35 70.38 98.48 70.38C98.97 70.39 99.46 70.38 99.95 70.43C100.15 70.45 100.35 70.58 100.54 70.67C100.78 70.79 100.99 70.99 101.24 71.05C101.8 71.2 102.38 71.28 102.95 71.39C103.38 71.47 103.81 71.58 104.24 71.64C105.13 71.76 106.05 71.77 106.92 71.97C108.1 72.24 109.25 72.66 110.41 73.01C110.91 73.16 111.41 73.32 111.92 73.43C112.84 73.62 113.76 73.76 114.68 73.95C115.5 74.12 116.31 74.35 117.13 74.5C117.76 74.62 118.41 74.62 119.03 74.73C120 74.9 120.97 75.13 121.94 75.34C121.96 75.34 121.98 75.36 121.99 75.35C123.4 75.16 124.61 76.05 125.99 76.05C126.28 76.05 126.57 76.26 126.86 76.36C127.08 76.43 127.31 76.47 127.53 76.53C128 76.65 128.48 76.76 128.95 76.89C129.16 76.95 129.35 77.11 129.56 77.15C130.46 77.34 131.38 77.45 132.27 77.67C134.05 78.12 135.81 78.61 137.58 79.1C138.05 79.23 138.51 79.53 138.98 79.54C139.54 79.55 139.9 79.79 140.21 80.03C140.15 80.48 140.02 80.87 140.07 81.23C140.24 82.28 140.48 83.33 140.69 84.37C140.93 85.55 141.19 86.72 141.42 87.9C141.63 88.95 141.52 90.07 142.09 91.04C142.44 91.64 142.8 92.23 143.2 92.8C143.59 93.36 144.04 93.87 144.43 94.43C144.73 94.86 144.93 95.38 145.28 95.76C145.66 96.17 146.19 96.45 146.61 96.83C147.95 98.01 149.22 99.26 150.61 100.38C151.33 100.96 152.22 101.36 153.06 101.77C153.85 102.16 154.68 102.48 155.5 102.8C155.8 102.92 156.15 102.9 156.46 103.01C157.25 103.31 158.02 103.66 158.8 103.98C158.91 104.02 159.06 104.04 159.16 104C160.11 103.67 160.61 104.68 161.5 104.65C161.51 104.64 161.56 104.51 161.6 104.43C161.85 104.69 161.97 104.92 162.14 104.98C162.64 105.14 163.17 105.23 163.69 105.34C164.87 105.58 165.92 106.06 166.8 106.8C166.71 106.99 166.64 107.13 166.57 107.28C166.74 107.29 166.92 107.36 167.07 107.31C168.06 107.01 169.11 107 170.09 106.55C170.96 106.15 171.97 106.03 172.91 105.8C173.79 105.59 174.01 105.68 174.39 106.25C174.74 106.3 175.07 106.41 175.39 106.53C175.8 106.68 176.2 106.87 176.63 107C177.05 107.12 177.45 107.57 177.35 107.9C177.24 108.26 177.08 108.61 176.98 108.98C176.95 109.1 177.02 109.29 177.11 109.37C177.77 109.98 178.43 110.53 179.1 111.08V111.08Z" fill="url(#paint0_linear_1230_3373)"/>
<path d="M130.23 79.5098L128.43 79.3498C127.97 78.9098 127.91 78.1798 128.09 77.5698C128.27 76.9598 128.66 76.4398 129.03 75.9198C131.18 72.8298 132.28 70.9798 132.85 67.2698L132.32 65.2898C130.66 65.7798 128.96 64.8298 127.49 63.9198C126.75 63.4598 125.98 62.9598 125.63 62.1598C124.96 60.6098 125.05 60.1598 126.23 58.9498L127.68 57.0598C131.38 47.9698 138.42 40.2898 147.15 35.8198L151.39 34.7998C149.61 33.3598 148.59 31.1998 147.63 29.1198C147.34 28.4898 147.04 27.8198 147.09 27.1198C147.17 26.0498 148.11 25.1698 149.15 24.9198C150.19 24.6698 151.31 24.9498 152.27 25.4398C154.31 26.4598 155.8 28.3098 157.22 30.1098" stroke="#1D1D1B" stroke-width="1.5" stroke-miterlimit="10"/>
<path d="M176.23 31.6398C178.25 32.4198 180.26 33.2098 182.28 33.9898C182.86 34.2098 183.45 34.4398 183.93 34.8298C184.42 35.2198 184.77 35.7498 185.11 36.2698C185.59 37.0198 186.07 37.7998 186.23 38.6798L186.47 41.0498C185.75 41.0998 185.15 41.6998 184.94 42.3898C184.73 43.0798 184.83 43.8298 185.04 44.5198C185.464 45.9444 186.282 47.22 187.4 48.1998C188.56 49.2198 190 49.8698 191.22 50.8198C192.27 51.6398 193.15 52.6798 193.79 53.8598C194.07 54.3798 194.31 54.9598 194.23 55.5498C194.04 56.9098 192.4 57.4498 191.06 57.6898C191.06 57.6898 189.88 56.5598 190.04 56.8698C192.01 60.6898 193.97 64.5198 195.94 68.3398C197.15 70.6998 198.4 73.1698 198.43 75.8298C198.44 76.8398 198.26 77.8798 197.71 78.7198L195.41 80.2698C193.79 79.5198 192.18 78.7598 190.56 78.0098C190.16 77.8198 189.73 77.6298 189.29 77.6798C188.82 77.7298 188.43 78.0498 188.1 78.3798C187.15 79.3098 186.38 80.4198 185.86 81.6498C185.38 82.7698 184.96 84.1198 183.82 84.5298C182.63 84.9598 181.38 84.0999 180.54 83.1599C179.16 81.6199 179.73 79.7098 179.26 77.6998L178.11 78.0398C176.37 79.4798 174.46 80.7799 172.32 81.4799C167.03 83.2099 161.32 81.0598 156.23 78.8098C154.75 78.1598 154.46 77.0498 152.84 76.9598L151.08 77.6898C150.79 79.6498 150.23 81.8098 148.55 82.8398C147.37 83.5598 145.77 83.5198 144.62 82.7498C143.47 81.9798 142.84 80.4998 143.07 79.1398L142.5 77.9998C140.11 75.8098 137.32 76.3298 134.63 78.1298C133.52 78.8698 132.41 79.9798 131.09 79.7798C130.65 79.7098 130.23 79.4998 129.79 79.5198M157.3 30.9298C156.94 27.6498 157.34 24.2898 158.48 21.1898C158.99 19.8098 159.96 18.2698 161.43 18.3098C162.91 18.3598 163.79 19.9898 164.15 21.4298C164.97 24.6798 164.78 28.1698 163.64 31.3098" stroke="#1D1D1B" stroke-width="1.5" stroke-miterlimit="10"/>
<path d="M172.88 33.47C172.96 31.14 174.99 29.41 176.84 28C177.9 27.19 178.96 26.39 180.02 25.58C180.58 25.15 181.2 24.59 181.12 23.89C181.01 22.98 179.83 22.67 178.91 22.76C177.05 22.95 175.35 23.88 173.71 24.78C171.55 25.98 169.38 27.17 167.22 28.37C165.89 29.11 164.52 29.87 163.57 31.06M147.63 66.93C147.72 65.91 148.06 64.93 148.4 63.96C149.38 61.2 150.41 58.4 152.15 56.03C153.89 53.67 156.46 51.76 159.38 51.49M169.95 49.99C171.68 49.99 174.2 50.58 175.52 51.69C176.84 52.8 177.01 53.41 177.99 54.84C180.44 58.43 182.72 62.7 181.75 66.94C181.77 67.16 182.16 66.96 182.09 66.74M153.89 48.91C153.25 48.8 152.67 49.54 152.85 50.16C153.03 50.78 153.79 51.12 154.41 50.94C155.03 50.76 155.47 50.15 155.57 49.51C155.6 49.35 155.6 49.19 155.58 49.04C155.53 48.73 155.35 48.45 155.09 48.26C154.58 47.88 153.77 47.96 153.37 48.46C152.97 48.96 153.07 49.79 153.61 50.14C154.27 50.58 155.33 49.99 155.31 49.2C155.29 48.41 154.21 47.88 153.57 48.35C153.27 48.57 153.11 48.92 153 49.27C152.87 49.7 152.86 50.26 153.24 50.5C153.62 50.74 154.2 50.1 153.81 49.87M175.44 45.98C174.81 46.08 174.23 46.57 174.14 47.2C174.05 47.83 174.55 48.51 175.18 48.53C176.19 48.55 176.6 47.13 176.21 46.2C176.11 45.96 175.95 45.71 175.7 45.67C175.55 45.64 175.4 45.7 175.27 45.76C174.43 46.17 173.94 47.27 174.34 48.12C174.74 48.97 176.07 49.23 176.68 48.52C177.29 47.81 176.65 46.44 175.72 46.56" stroke="#1D1D1B" stroke-width="1.5" stroke-miterlimit="10"/>
<path d="M169.04 55.9799C170 57.1999 169.21 60.2299 167.66 60.3499C165.6 60.5099 162.48 57.7999 163.32 55.9099C163.89 54.5899 168.16 54.8499 169.04 55.9799Z" fill="#1D1D1B"/>
<path d="M164.41 66.2601L165.62 67.9501C166.21 68.7701 166.95 69.6801 167.97 69.6901C168.46 69.6901 168.92 69.4701 169.36 69.2401C171.07 68.3101 172.6 67.0501 173.85 65.5601M88.85 69.8801C87.6 69.0901 86.34 68.3101 85.09 67.5201C84.43 67.1001 83.74 66.6801 82.96 66.5701C82.24 66.4701 81.51 66.6401 80.81 66.8101C79.2 67.2101 77.6 67.6001 76 68.0001C75.15 68.2101 74.3 68.4201 73.43 68.4601C72.45 68.5101 71.47 68.3501 70.5 68.1901L65.78 67.4101M65.68 67.2701C60.8 66.0501 55.4 64.8801 50.94 67.2101C44.47 70.6001 43.05 79.7501 36.92 83.7401C33.37 86.0501 28.9 86.2101 24.74 87.0101C20.58 87.8201 16.99 87.9401 15.72 91.9801L14.69 93.6301C12.46 98.5501 12.81 104.56 15.61 109.19C16.2 110.17 16.93 111.12 17.96 111.62C18.99 112.12 20.37 112.04 21.11 111.17L22.71 108.69C23.33 107.5 23.59 106.15 24.18 104.94C24.82 103.62 25.83 102.53 26.86 101.49C27.84 100.5 28.89 99.5301 30.2 99.0501C31.51 98.5701 31.8 98.1101 32.72 99.1501L33.64 99.8501C34.55 100.2 35.27 100.92 36.14 101.38C37.61 102.15 39.41 102.07 40.98 101.55C42.55 101.02 43.96 100.09 45.33 99.1601M72.49 114.25C73.55 115.01 75.04 114.82 76.25 114.33C77.46 113.84 78.57 113.07 79.83 112.73C81.81 112.19 83.97 112.75 85.73 113.8C87.49 114.86 88.93 116.37 90.32 117.88C92.35 120.08 94.59 122.46 97.56 122.9C98.69 123.07 99.85 122.94 100.99 123.07C102.13 123.21 103.33 123.69 103.86 124.71" stroke="#1D1D1B" stroke-width="1.5" stroke-miterlimit="10"/>
<path d="M91.73 119.38C90.88 121.97 89.38 125.66 88.53 128.26C87.76 130.59 87 132.93 86.56 135.35C86.09 137.92 86.47 139.31 85.4 141.69L84.97 143.41C83.79 145.46 84.4 148.05 85.26 150.26C86.12 152.46 87.26 153.62 87 155.97L87.05 157.22C86.81 158.52 87.39 160.07 86.49 161.05C85.98 161.61 85.14 161.74 84.39 161.65C83.64 161.56 82.92 161.29 82.18 161.17C80.87 160.97 79.51 161.25 78.2 160.99C77.17 160.79 76.22 160.23 75.53 159.45C74.94 158.78 74.16 158.61 74.54 157.81L74.82 156.64C75.26 152.02 75.69 147.4 76.13 142.78C76.42 139.7 76.71 136.63 76.93 133.55C77.37 127.35 77.51 121.01 75.85 115.02M60.46 96.32C61.93 97.87 63.39 99.42 64.86 100.97C66.23 102.42 67.64 103.93 68.27 105.82L69.4 110.29C69.82 112.25 71.31 113.8 72.01 115.67C72.87 118 72.43 120.58 71.98 123.02C71.31 126.61 70.96 128.5 70.3 132.09L69.9 133.85C69.43 137.94 68.95 142.03 68.48 146.11C68.32 147.49 68.16 148.89 67.67 150.19C67.03 151.92 65.82 153.46 65.59 155.29C65.44 156.45 65.71 157.63 65.97 158.77L66.99 163.21L67.29 164.6C67.46 166.79 67.28 166.81 67.1 169C66.98 170.4 66.72 171.93 65.66 172.85C64.68 173.7 63.26 173.81 61.96 173.74C59.43 173.59 57.54 173.72 56.15 171.61L55.17 170.49C53.24 168.4 52.72 165.4 52.27 162.59C51.89 160.15 51.51 157.71 51.12 155.28C50.72 152.73 50.32 150.15 50.44 147.57C50.55 145.42 51.02 143.29 51.17 141.14C51.33 138.89 51.13 136.64 50.93 134.4L50.09 124.83C49.86 122.24 49.6 119.53 48.21 117.34C47.56 116.31 46.68 115.43 46.17 114.33C44.27 110.27 47.87 104.82 45.2 101.22M156.15 132.2C155.31 134.4 155.65 136.86 155.82 139.21C156.36 146.92 154.85 154.9 157.2 162.26L157.29 163.08C157.39 164.62 158.31 165.98 159.31 167.15C160.31 168.32 161.45 169.41 162.15 170.79C162.66 171.78 162.91 172.89 163.13 173.98C163.29 174.78 163.42 175.63 163.09 176.37L161.85 178.74C158.98 181.11 155.36 183.64 151.84 182.42C150.88 182.09 150.04 181.5 149.25 180.87C147.83 179.75 146.47 178.43 145.86 176.72C145.25 175.03 145.45 173.18 145.39 171.39C145.24 166.52 143.18 161.92 140.98 157.56C140.4 156.41 139.8 155.26 139.48 154.01C138.88 151.65 139.33 149.18 139.51 146.75C139.76 143.35 139.46 139.91 138.63 136.61M174.5 121.51C173.14 124.68 172.09 128.05 172.04 131.51C172.02 133.14 172.21 134.76 172.2 136.39C172.18 138.36 172.01 139.3 171.67 141.24L171.37 142.59C170.71 145.07 171.32 147.7 172.21 150.11C173.1 152.51 174.27 154.84 174.75 157.35C175.24 159.87 175.93 162.59 174.19 164.46L173.21 164.73C171.17 165.39 168.97 165.72 166.87 165.27C164.77 164.82 162.79 163.51 161.9 161.56C161.44 160.55 161.29 159.43 161.14 158.33C160.39 152.7 159.63 147.07 158.88 141.44C158.56 139.02 158.23 136.56 158.47 134.13M179.09 84.23C178.362 87.6253 177.9 91.0726 177.71 94.54C177.67 95.3 177.64 96.09 177.93 96.8C178.14 97.32 178.5 97.76 178.75 98.26C179.72 100.14 179.07 102.41 178.45 104.43C177.83 106.45 177.29 108.78 178.41 110.57M104.72 95.19C104.36 94.95 103.03 94.76 102.59 94.78C101.72 94.84 100.99 95.46 100.44 96.14C100.06 96.61 99.73 97.12 99.46 97.67C98.71 99.17 98.44 100.94 98.89 102.56C99.35 104.17 100.59 105.59 102.2 106.07C102.2 106.07 103.29 106.37 104.33 105.7M104.33 101.5C104.27 103.99 104.19 107.42 104.14 109.9M101.98 101.28C103.49 101.53 105.94 101.56 107.46 101.37M109.76 98.63L109.28 103.21C109.21 103.89 109.14 104.59 109.31 105.26C109.49 105.92 109.96 106.55 110.63 106.71C111.2 106.84 111.8 106.6 112.23 106.21C112.66 105.82 112.95 105.29 113.18 104.76C114.04 102.8 114.32 100.6 113.98 98.49M117.69 98.03C117.63 101.08 117.45 104.13 117.16 107.16M130.29 102.94C131.76 103.09 133.7 103.28 135.18 103.42M121.58 107.61C123.54 107.5 126.3 107.85 126.3 103.78C126.3 102.74 125.99 101.73 125.64 100.76C125.46 100.27 125.28 99.76 124.96 99.35C124.34 98.55 123.22 98.18 122.25 98.46L121.95 99.1C121.83 101.62 121.7 104.14 121.58 106.67C121.59 106.53 121.61 106.4 121.62 106.26L121.58 107.61V107.61Z" stroke="#1D1D1B" stroke-width="1.5" stroke-miterlimit="10"/>
<path d="M135.6 110.15C133.94 109.96 132.27 109.78 130.61 109.59L129.99 108.54C129.98 108.68 130 108.4 129.99 108.54C130.08 105.51 130.02 102.88 129.85 99.8502C129.81 99.1002 129.99 97.9102 129.99 97.9102C131.61 97.7502 133.25 97.7602 134.87 97.9202M55.67 31.3002C72.5629 49.8871 91.3817 66.6276 111.81 81.2402M55.42 30.7602C57.62 29.8902 59.73 28.7902 61.88 27.8102C68.807 24.6468 76.2173 22.6725 83.8 21.9702M84.42 21.9802C91.3429 32.5767 99.0689 42.6262 107.53 52.0402C111.85 56.8502 116.37 61.5002 120.18 66.7202C122.75 70.2502 124.99 74.0402 126.84 78.0002M59.49 33.9002C68.08 30.8402 76.87 28.3402 85.79 26.4202" stroke="#1D1D1B" stroke-width="1.5" stroke-miterlimit="10"/>
<path d="M43.1 17.98C45.58 19.85 47.8 22.03 50.02 24.22L52.72 26.89C54.05 28.2 55.37 29.51 56.68 30.84C56.8 30.97 56.98 31.1 57.14 31.02C57.29 30.93 57.05 30.64 57 30.81M84.38 22.77C83.32 21.19 81.71 20.07 80.19 18.93C75.95 15.73 72.12 12.02 68.3 8.33M43.83 17.36C46.21 17.21 48.08 15.37 50.25 14.38C51.7 13.72 53.28 13.45 54.83 13.1C59.31 12.08 63.62 10.36 67.56 8M146.55 114.55C145.15 114.09 143.98 115.53 143.82 116.27C143.55 117.51 143.37 118.76 143.3 120.03C143.23 121.13 143.26 122.29 143.79 123.26C143.99 123.62 144.27 123.95 144.65 124.09C145.23 124.3 145.87 124.02 146.36 123.65C146.94 123.211 147.422 122.656 147.777 122.021C148.132 121.386 148.351 120.684 148.42 119.96C148.39 121.82 148.39 123.68 148.43 125.53M146.17 118.75C147.6 119.66 149.23 120.25 150.9 120.46M126.61 122.39C126.61 122.39 126.92 125.79 127.13 125.91C127.34 126.03 127.6 126.02 127.84 125.98C129.85 125.7 131.62 124.09 132.08 122.11C132.54 120.13 131.68 117.91 130 116.76C128.83 115.96 127.58 115.36 126.62 116.41V122.39H126.61V122.39ZM135.69 116.32C134.59 117.88 134.4 119.89 134.37 121.8C134.36 122.27 134.37 122.77 134.62 123.17C135.04 123.82 135.94 123.93 136.71 123.9C137.43 123.88 138.14 123.79 138.85 123.66C139.29 123.58 139.73 123.47 140.1 123.22C140.77 122.77 141.09 121.92 141.08 121.11C141.07 120.3 140.79 119.52 140.48 118.78C140.15 118 139.77 117.2 139.11 116.66C138.45 116.12 138 115.72 136.86 115.87L135.69 116.32V116.32Z" stroke="#1D1D1B" stroke-width="1.5" stroke-miterlimit="10"/>
<defs>
<linearGradient id="paint0_linear_1230_3373" x1="179" y1="136" x2="87" y2="62.5" gradientUnits="userSpaceOnUse">
<stop stop-color="#FA24BF"/>
<stop offset="0.70214" stop-color="#FF81F3"/>
</linearGradient>
</defs>
</svg>
