<svg width="219" height="275" viewBox="0 0 219 275" fill="none" xmlns="http://www.w3.org/2000/svg">
<g clip-path="url(#clip0_1230_3383)">
<path d="M0.300001 238.84H0.600001C0.640001 238.84 0.680001 238.82 0.710001 238.8C0.740001 238.77 0.760001 238.73 0.750001 238.69C0.751047 238.67 0.748045 238.65 0.741173 238.631C0.734302 238.612 0.723701 238.595 0.710001 238.58C0.680001 238.55 0.650001 238.54 0.600001 238.54H0.300001C0.260285 238.543 0.222136 238.557 0.190001 238.58C0.160001 238.61 0.140001 238.65 0.150001 238.69C0.150001 238.73 0.160001 238.77 0.190001 238.8C0.220001 238.83 0.260001 238.84 0.300001 238.84Z" fill="#12100B"/>
<path d="M185.11 222.14C182.53 220.2 179.22 216.7 176.21 217.44C175.43 216.43 174.52 215.65 172.89 215.62C170.66 215.57 169.95 216.87 168.98 218.22C168.31 218.09 167.65 218.03 166.88 218.25C165.13 218.74 163.45 220.15 161.92 221.08C159.17 222.75 161.68 227.08 164.44 225.4C164.59 225.31 164.74 225.22 164.88 225.14C171.17 226.12 177.47 226.7 183.84 226.82C186.55 226.85 186.95 223.52 185.11 222.14V222.14Z" fill="#8D43F7"/>
<path d="M141.43 142.28C142.44 142.53 143.45 141.94 144.04 140.93C144.71 139.58 144.63 137.65 144.46 135.88C144.29 133.69 144.12 131.59 143.95 129.4C143.95 128.9 143.78 128.22 143.44 128.05C143.19 127.97 142.85 128.05 142.77 127.71" stroke="black" stroke-miterlimit="10" stroke-linecap="round" stroke-linejoin="round"/>
<path d="M92.02 165.33C106.41 167.1 120.98 167.43 135.45 166.51C139.24 166.26 141.26 165.42 142.69 161.88C143.45 160.03 143.11 158.01 142.77 156.08C140.08 141.28 139.91 126.56 137.21 111.76C136.12 105.87 135.11 99.9901 132.83 94.4301C132.49 93.5901 132.07 92.6601 131.23 92.3301C130.64 92.0801 129.8 92.1601 129.13 92.2501C120.29 93.3401 111.45 94.1801 102.61 95.4501C94.78 96.6301 94.7 99.7401 92.76 107.31C86.28 132.63 84.85 148.94 82.07 158.87C81.73 160.05 81.48 161.31 82.07 162.4C82.74 163.58 84.26 163.91 85.61 164.17C88.65 164.57 89.07 164.99 92.02 165.33V165.33Z" stroke="black" stroke-miterlimit="10"/>
<path d="M102.79 63.81C104.14 60.7 105.57 48.17 105.06 44.8C104.64 42.19 104.22 32.18 104.13 29.49L130.73 26.71C131.4 30.24 132.41 36.47 132.41 40C132.41 41.85 132.16 43.62 131.82 45.38C131.57 46.81 131.23 48.16 130.64 49.5C128.96 53.54 125.08 57.07 120.71 57.41C119.95 57.49 119.19 57.58 118.61 58.08C118.1 58.5 117.77 59.17 117.52 59.76C116.26 62.7 117.77 63.21 116.85 66.24" fill="#DBB288"/>
<path d="M98.92 122.17C97.07 120.66 94.88 124.69 93.11 123.18C90.58 120.82 88.99 135.12 86.88 132.35C86.37 131.76 85.28 136.89 84.94 136.13C84.6 135.29 84.27 134.53 83.42 134.03C83.17 133.95 83 133.53 83 133.19C83 130.92 79.72 137.56 79.3 135.38C79.3 135.13 79.13 134.88 79.05 134.62C78.8 133.61 78.46 133.44 77.45 133.86C77.37 133.94 77.2 134.11 77.11 134.03C75.76 133.86 76.18 125.87 74.92 125.87C74.5 125.87 74.5 125.2 73.83 125.28C73.41 125.36 72.74 125.03 72.15 125.2C71.81 125.28 71.81 124.95 71.81 124.7C71.56 122.01 71.89 119.4 72.74 116.88C74.76 110.91 77.37 105.11 79.98 99.3904C80.49 98.3004 80.32 97.1203 80.49 96.0303C80.74 94.2603 81 92.5004 81.58 90.8204C82.25 88.7204 82.17 86.4504 82.25 84.1804C82.42 81.6604 82.42 79.0503 83.09 76.5303C83.43 75.2703 83.26 73.9204 83.68 72.6604C84.52 70.3104 85.87 65.7604 87.64 64.0804C88.15 63.5804 88.4 62.9004 88.99 62.4004C90.93 60.8904 93.03 59.6203 95.39 58.7803C96.23 58.5303 96.99 58.3604 97.83 58.3604C99.77 58.3604 101.7 60.2904 103.64 60.2104C104.9 60.1304 106.17 60.1304 107.34 59.9604C108.69 59.7904 109.95 59.8804 111.21 60.0404C112.89 60.2904 114.41 60.8004 115.92 61.4704C116.34 61.6404 116.76 61.8904 117.27 61.8904C119.04 61.8104 120.81 60.2104 122.57 60.0404C123.75 59.9604 125.01 60.4604 126.27 60.7104C126.61 60.7904 127.03 60.8804 127.36 61.0504C127.78 61.2204 128.12 61.3004 128.37 61.8904C128.79 62.9004 129.8 63.5704 130.56 64.4104C131.07 64.9104 131.49 65.4204 132.24 64.8304C132.49 64.5804 132.66 64.8304 132.83 65.0804C134.01 66.8504 135.02 70.4604 135.61 72.4804C136.62 75.8404 137.29 76.0103 137.88 79.4604C138.47 82.4004 138.89 85.4304 139.73 88.2904C140.57 91.3204 140.66 100.15 142.26 102.92C142.34 103.17 142.43 103.51 142.85 103.42C143.78 103.34 143.69 104.09 143.61 104.6C143.44 105.36 143.61 106.03 143.95 106.7C144.96 109.39 145.04 118.81 145.21 121.67C145.29 122.6 145.38 123.6 146.14 124.36C146.98 125.29 146.9 126.13 146.14 127.05C146.06 127.13 145.89 127.22 145.8 127.22C144.54 127.56 144.54 127.72 145.04 128.9C145.12 129.15 145.21 129.4 145.38 129.66C146.14 130.59 146.14 131.34 144.96 131.85C144.88 132.02 144.71 132.19 144.54 132.27C143.11 133.11 144.88 133.36 143.19 133.45C142.1 133.53 140.92 133.7 139.82 133.95C138.89 134.12 136.79 117.21 136.2 117.89C134.85 119.49 133.84 121.34 132.41 122.85C132.33 122.93 132.24 123.19 131.99 123.02C131.4 122.52 130.56 122.35 129.97 121.84C129.04 120.91 127.87 120.24 127.11 119.06C126.27 117.8 124.84 118.13 123.66 117.97C122.99 117.89 122.23 116.2 121.56 116.04C118.87 115.28 116.09 125.12 113.4 124.11C112.81 123.86 112.14 124.03 111.46 123.86C110.95 123.69 110.79 124.11 110.62 124.45C110.2 125.29 107.59 119.82 106.92 120.5" fill="url(#paint0_linear_1230_3383)"/>
<path d="M132.17 31.94C129.39 33.29 122.07 30.59 119.21 29.84C118.37 29.59 117.44 29.34 116.52 29.42C113.99 29.76 112.31 32.87 109.7 32.78C108.94 32.78 108.18 32.44 107.43 32.61C106.93 32.78 106.5 33.11 106.17 33.54C103.73 36.32 103.98 40.94 106.59 43.55C106.59 43.55 109.28 46.66 106.25 51.2C105.49 52.29 104.99 53.72 105.49 54.9C105.74 55.57 106.33 56.08 106.42 56.75C106.59 57.76 105.49 58.68 104.48 58.77C103.47 58.85 102.46 58.27 101.62 57.59C99.94 56.33 98.59 54.81 97.5 52.96" stroke="black" stroke-miterlimit="10" stroke-linecap="round" stroke-linejoin="round"/>
<path d="M97.49 53.0502C96.98 52.1202 96.48 51.1202 96.14 50.1102C95.89 49.2702 95.47 48.2602 94.54 48.1802C94.2 48.1802 93.78 48.2602 93.45 48.2602C92.36 48.2602 91.6 47.0002 91.77 45.9102C91.94 44.8202 92.61 43.8902 93.29 42.9702C96.07 38.9302 97.41 34.2202 99.1 29.6802C100.78 25.1402 103.06 20.5102 107.01 17.6502C110.55 15.1302 115.17 14.2002 119.47 15.0402C123.76 15.8802 127.63 18.2402 130.58 21.4302C131.34 22.2702 132.68 23.8702 133.44 25.5502C133.44 25.5502 136.81 30.9302 133.44 31.6102M130.99 39.2602C131.92 39.6802 132.59 40.4402 132.93 41.3602C133.27 42.2902 133.18 43.2902 132.85 44.2202C132.51 44.9802 132.01 45.7302 131.33 46.0702C130.66 46.4102 129.65 46.5702 128.97 46.1502" stroke="black" stroke-miterlimit="10" stroke-linecap="round" stroke-linejoin="round"/>
<path d="M129.39 46.0704C128.46 46.0704 127.54 45.6504 126.95 44.8904C126.28 43.8804 126.28 42.6204 126.53 41.4404C126.7 40.6004 127.12 39.7604 127.79 39.2504C128.72 38.6604 129.89 38.8304 130.9 39.1704M122.49 40.1004C123.16 40.0204 123.92 39.9304 124.59 39.9304C125.35 40.0104 126.02 40.1804 126.61 40.6904M118.11 44.3004C116.85 43.7104 116.51 43.4604 116.26 43.1204C115.5 42.1904 115.59 40.8504 115.84 39.6704C116.01 38.8304 116.43 37.9904 117.1 37.4804C118.03 36.8904 119.29 36.8904 120.21 37.4004C120.8 37.7404 121.73 38.6604 122.06 39.5904C122.4 40.5204 122.31 41.5204 121.98 42.4504C121.64 43.2104 121.14 43.9604 120.46 44.3004C119.79 44.6404 118.87 44.6404 118.11 44.3004V44.3004Z" stroke="black" stroke-miterlimit="10" stroke-linecap="round" stroke-linejoin="round"/>
<path d="M108.6 166.17C107.84 192.16 107.51 218.32 101.95 243.38M91.09 165.5C92.86 189.22 94.29 209.66 90.16 237.75M106.66 219.91C101.36 219.32 96.9 218.82 93.28 218.48" stroke="black" stroke-miterlimit="10"/>
<path d="M136.46 112.17C135.62 106.2 133.43 98.97 130.48 91.98" stroke="black" stroke-miterlimit="10" stroke-linecap="round"/>
<path d="M104.98 64.2301C106.75 65.4101 108.6 66.5901 110.62 67.0901C112.72 67.5901 115.08 67.1701 116.51 65.6601C117.1 65.0701 117.44 64.3101 117.86 63.5601" stroke="black" stroke-miterlimit="10" stroke-linecap="round" stroke-linejoin="round"/>
<path d="M90.42 236.4C90.42 236.4 86.63 247.17 90.08 249.61C91.17 250.37 92.94 252.47 95.47 252.97C100.27 253.9 102.54 255.32 107.09 257.18C108.27 257.68 110.2 257.85 110.46 256.51C110.63 255.84 111.05 253.57 110.63 253.06C104.91 245.91 99.27 240.11 91.02 236.24" stroke="black" stroke-miterlimit="10"/>
<path d="M109.77 255.41L110.53 253.63C109.85 251.35 109.6 249.91 107.91 248.38C105.54 246.35 103.17 244.4 100.8 242.38C98.94 240.77 96.65 238.07 93.86 238.91C93.27 238.49 92.76 237.98 92.25 237.56C91.4 236.8 90.05 237.64 89.88 238.66L89.8 239.34V239.68C89.63 239.85 89.46 240.02 89.38 240.27C88.79 241.54 89.04 243.31 89.04 244.67C89.04 247.12 89.21 249.75 91.92 250.51C92.43 250.68 92.94 252.37 93.44 252.46C93.61 252.63 93.78 252.71 94.03 252.8C96.06 253.56 98.43 253.73 100.72 253.98C100.89 254.23 101.14 254.49 101.48 254.57C104.36 255.5 104.78 256.52 107.66 257.45C107.83 257.54 108 257.7 108.25 257.79C109.6 258.88 111.38 256.34 109.77 255.41V255.41Z" fill="black"/>
<path d="M114.57 166.84C115.33 192.74 116.76 210.41 122.4 235.81M130.57 166.84C128.8 190.56 129.22 207.21 134.11 230.25M117.61 212.34C122.07 211.83 126.53 211.33 130.99 210.91" stroke="black" stroke-miterlimit="10"/>
<path d="M133.94 228.83C133.94 228.83 137.73 239.6 134.28 242.04C133.19 242.8 131.42 243.22 128.89 243.72C124.09 244.65 119.29 246.07 114.75 247.93C113.57 248.43 111.64 248.6 111.38 247.26C111.21 246.59 111.63 246 112.05 245.49C117.77 238.34 125.1 232.54 133.35 228.67" stroke="black" stroke-miterlimit="10"/>
<path d="M112.05 245.48L112.13 245.4C112.8 243.13 114.74 241.7 116.42 240.19C118.78 238.17 121.13 236.24 123.49 234.22C125.34 232.62 127.61 229.93 130.39 230.77C130.98 230.35 131.48 229.84 131.99 229.42C132.83 228.66 134.18 229.5 134.35 230.51L134.43 231.18V231.52C134.6 231.69 134.77 231.86 134.85 232.11C135.44 233.37 135.19 235.14 135.19 236.48C135.19 238.92 135.02 241.53 132.33 242.28C131.82 242.45 131.32 242.45 130.81 242.53C130.64 242.7 130.47 242.78 130.22 242.87C128.2 243.63 125.84 243.79 123.57 244.05C123.4 244.3 123.15 244.56 122.81 244.64C119.95 245.57 117 246.57 114.14 247.5C113.97 247.58 113.8 247.75 113.55 247.84C112.22 248.93 110.37 246.4 112.05 245.48V245.48Z" fill="black"/>
<path d="M78.8 134.04C78.72 133.54 78.63 133.11 78.46 132.61M84.61 145.73C82.17 144.55 80.57 142.37 79.9 139.76C79.73 139 79.56 138.16 79.48 137.41C79.31 136.23 79.06 135.14 78.81 134.05" stroke="black" stroke-miterlimit="10" stroke-linecap="round" stroke-linejoin="round"/>
<path d="M92.61 103.17C89.66 111.66 87.48 122.93 86.55 134.29" stroke="black" stroke-miterlimit="10" stroke-linecap="round"/>
<path d="M0.0200195 214.09C6.25002 213.43 12.6 213.88 18.68 215.42C22.91 216.49 28.31 217.71 30.89 214.19C31.66 213.14 31.99 211.82 32.03 210.52C32.19 204.63 26.86 200.17 21.77 197.21C16.68 194.25 10.86 191.33 8.73002 185.83C12.82 185.55 16.91 186.32 20.84 187.46C28.64 189.73 36.68 194.31 39.07 202.08C41.57 210.19 37.13 218.58 35.1 226.82C33.46 233.48 33.4 240.44 33.84 247.29C32.67 247.95 31.16 246.89 30.77 245.6C30.38 244.32 30.71 242.94 30.85 241.61C31.31 237.35 29.7 232.91 26.62 229.94M14.07 231.79C10.96 233.1 7.51002 233.11 4.19002 233.09M25.98 230.33C22.82 234.56 19.65 238.78 16.49 243.01M33.24 198.06C32.24 199.49 30.77 200.59 29.12 201.14M36.68 204.31C34.41 204.6 32.14 204.89 29.87 205.19" stroke="#080908" stroke-miterlimit="10"/>
<path d="M161.97 222.52C159.209 226.27 157.36 230.611 156.57 235.2" stroke="white" stroke-miterlimit="10"/>
<path d="M160.14 224.32C158.74 227.39 157.35 230.47 155.95 233.54C155.88 233.69 155.83 233.91 155.98 233.99C156.13 234.07 156.13 233.7 156.02 233.82M160.53 224.32C160.59 224.61 160.93 224.74 161.22 224.81C165.22 225.79 169.26 226.78 173.37 227C177.48 227.22 181.74 226.64 185.35 224.65M156.07 234.89C167.31 239.17 180.37 238.41 191.04 232.85M185.53 224.54C187.27 227.16 189.01 229.79 190.75 232.41M160.41 223.55C160.841 222.717 161.574 222.08 162.46 221.77C162.85 221.63 163.31 221.54 163.54 221.2C163.73 220.91 163.72 220.53 163.9 220.23C164.33 219.53 165.42 219.81 166.15 219.44C166.82 219.09 167.27 218.15 168.01 218.27C168.54 218.35 168.89 218.96 169.42 218.98C169.98 219 170.31 218.38 170.65 217.92C171.64 216.55 173.79 216.22 175.14 217.23C175.6 217.57 176.01 218.05 176.58 218.1C177.02 218.13 177.44 217.88 177.88 217.82C179.3 217.63 180.14 219.28 181.1 220.34C182.29 221.66 184.23 222.26 185.95 221.83C186.09 222.4 185.97 223.03 185.63 223.51M161.52 241.25C160.93 241.4 160.41 241.8 160.11 242.33C160.01 242.52 159.93 242.74 160 242.94C160.11 243.25 160.5 243.34 160.83 243.37C161.47 243.44 162.34 243.35 162.43 242.72C162.45 242.56 162.59 242.31 162.68 242.44M172.38 243.18C172.01 243.15 171.7 243.59 171.84 243.94C171.98 244.29 172.52 244.36 172.76 244.07C172.78 244.022 172.79 243.97 172.788 243.917C172.787 243.865 172.774 243.814 172.752 243.767C172.729 243.719 172.697 243.677 172.657 243.644C172.617 243.61 172.57 243.585 172.52 243.57M198.35 242.54C193.76 242.6 188.93 242.72 184.97 245.03C184.37 245.38 183.78 245.79 183.39 246.37C183 246.95 182.84 247.72 183.13 248.35C183.57 249.3 184.76 249.57 185.8 249.7C190.11 250.22 194.48 250.19 198.78 249.62" stroke="#1D1D1B" stroke-miterlimit="10"/>
<path d="M198.22 242.77C200.65 242.6 203.22 242.46 205.4 243.55C205.95 243.83 206.48 244.19 206.81 244.71C207.14 245.23 207.23 245.94 206.91 246.46C206.72 246.78 206.4 247 206.09 247.19C203.92 248.52 201.31 248.87 198.78 249.19M183.09 247.54C181.64 250.67 180.49 253.94 179.66 257.28M206.74 245.97C208.88 248.14 209.66 251.36 211.69 253.63M179.43 257.61C189.68 260.95 201.25 260.05 210.87 255.16C211.32 254.93 211.81 254.64 211.93 254.15M161.85 232.67C162.16 231.86 162.48 231.06 162.82 230.26C163 230.72 163.2 231.17 163.43 231.61C164.017 230.874 164.621 230.15 165.24 229.44C165.65 230.17 165.71 231.03 165.75 231.87L165.81 232.86M168.46 229.85C168.27 229.76 168.03 229.85 167.89 230C167.75 230.15 167.68 230.36 167.62 230.57C167.47 231.11 167.4 231.76 167.77 232.18C168.12 232.58 168.79 232.61 169.2 232.28C169.61 231.95 169.74 231.33 169.55 230.84C169.36 230.35 168.88 229.99 168.36 229.89M172.66 229.65L171.97 232.29C171.93 232.44 171.9 232.62 172 232.74C172.09 232.84 172.24 232.85 172.38 232.85C173.2 232.83 174.03 232.68 174.8 232.4M175.73 229.46L175.79 231.8C175.8 232.1 175.81 232.4 175.88 232.69C175.9 232.75 175.92 232.81 175.96 232.85C176.02 232.9 176.1 232.9 176.18 232.9C176.78 232.87 177.38 232.76 177.95 232.56M178.71 229.16C178.92 229.98 179.38 230.74 180.02 231.3M180.69 228.78C180.83 230.29 180.2 231.81 180.46 233.3C180.46 233.25 180.45 233.19 180.45 233.14" stroke="#1D1D1B" stroke-miterlimit="10"/>
<path d="M19.94 231.8C17.53 234.5 15.32 237.37 13.32 240.39C12.73 241.29 12.15 242.21 11.81 243.23C11.8 243.25 11.81 243.28 11.82 243.29M11.87 243.87C12.39 244.56 13.27 244.95 14.13 244.88C14.99 244.81 15.79 244.27 16.18 243.5M14.47 231.86C15.59 231.48 16.7 231.1 17.82 230.72C18.22 230.59 18.63 230.45 19.04 230.49C19.45 230.53 19.88 230.8 19.96 231.21M15.96 188.16C16.14 189.38 15.49 190.67 14.41 191.27M22.15 188.39C22.73 189.63 22.82 191.09 22.4 192.39C21.966 193.703 21.0563 194.805 19.85 195.48M29.31 191.58C29.72 192.54 29.72 193.64 29.44 194.65C29.16 195.66 28.61 196.57 27.97 197.39C27.55 197.93 26.94 198.49 26.27 198.36M34.04 208.76C35.34 209.41 37 209.25 38.15 208.36" stroke="#080908" stroke-miterlimit="10"/>
</g>
<defs>
<linearGradient id="paint0_linear_1230_3383" x1="72" y1="32" x2="132" y2="167.5" gradientUnits="userSpaceOnUse">
<stop offset="0.213542" stop-color="#9958FF"/>
<stop offset="1" stop-color="#6906E0"/>
</linearGradient>
<clipPath id="clip0_1230_3383">
<rect width="219" height="275" fill="white"/>
</clipPath>
</defs>
</svg>
