<svg width="220" height="272" viewBox="0 0 220 272" fill="none" xmlns="http://www.w3.org/2000/svg">
<path d="M140.37 204.37C140.15 200.35 139.92 196.32 139.7 192.3C139.6 190.54 137.93 189.01 136.5 190.14C136.1 190.46 133.12 186.54 131.89 186.41C129.65 186.17 126.46 191.09 125.04 190.5C122.82 189.58 121.75 192.92 123.03 194.66C122.71 202.06 122.83 214.35 129.62 217.66C129.5 217.99 129.42 218.37 129.44 218.83C129.63 225.3 130.32 231.68 131.49 238C131.78 239.55 132.92 240.01 133.94 239.7C134.94 239.63 135.82 238.86 135.66 237.34C135 231.17 134.35 225 133.69 218.84C133.67 218.61 133.61 218.4 133.55 218.2C135.05 217.87 136.42 216.92 137.43 215.33C139.06 212.78 139.19 209.7 139.15 206.63C139.88 206.19 140.43 205.34 140.37 204.37Z" fill="#5D6CF1"/>
<path d="M153.06 108.26C149.64 105.34 148.62 109.19 143.46 105.87M143.63 112.34C144.91 112.74 146.3 112.75 147.59 112.36C148.09 112.21 148.57 112 149.08 111.87C150.07 111.62 151.13 111.67 152.09 112.03C152.58 112.21 153.11 112.59 153.06 113.1C153.06 113.1 151.76 115.54 148.81 115.35C145.86 115.16 145.31 114.91 142.39 114.89" stroke="black" stroke-miterlimit="10" stroke-linecap="round" stroke-linejoin="round"/>
<path d="M153.06 113.69C157.17 112.92 154.3 111.12 153.59 110.52C152.88 109.91 151.99 109.43 151.05 109.43C150.02 109.42 148.6 109.73 147.57 109.82C146.32 109.93 145.36 110.04 144.45 109.59" stroke="black" stroke-miterlimit="10" stroke-linecap="round" stroke-linejoin="round"/>
<path d="M132.1 37.6499C131.86 36.0699 131.52 34.5099 131.02 32.9899C130.04 30.0199 127.37 25.1299 125.81 22.4199L116.7 26.6699L104.49 32.3699C105.29 34.5499 108.55 42.7599 109.65 44.8099C111.06 47.4299 110.83 50.5899 110.57 53.5599L109.79 62.3999L124.26 62.1299C124.15 59.3099 124.19 56.4799 124.38 53.6599C124.42 53.0599 124.47 52.4399 124.78 51.9299C125.12 51.3699 125.7 51.0399 126.31 50.7799C129.89 49.2699 132.05 45.2599 132.31 41.3799C132.41 40.1299 132.29 38.8799 132.1 37.6499Z" fill="#553117"/>
<path d="M127.72 27.8698C128.41 27.8798 129.08 27.6898 129.56 27.1798C130.76 25.9298 130.09 23.8098 129.18 22.3198C125.53 16.3298 119.04 12.2898 112.2 11.7198C109.45 11.4898 106.56 11.8598 104.1 13.0698M108.06 42.0398C107.66 43.1498 106.57 44.1098 105.41 43.9298C101.71 36.0198 100.56 26.9498 102.15 18.3598C101.44 19.0498 100.69 19.6898 100.07 20.4598C98.09 22.9098 97.72 26.2398 97.52 29.3798C96.93 38.6898 97.21 48.0598 98.35 57.3198M128.28 28.1098C125.57 27.2998 122.86 26.4798 120.15 25.6698C119.06 27.6098 120.34 30.6498 118.52 31.9298C116.74 33.1798 114.43 31.0598 112.25 31.1298C110.68 31.1798 109.34 32.4298 108.74 33.8898C108.15 35.3498 108.16 36.9698 108.27 38.5398C108.35 39.7098 108.47 40.9298 108.07 42.0398" stroke="black" stroke-miterlimit="10" stroke-linecap="round" stroke-linejoin="round"/>
<path d="M98.19 63.2502C96.35 87.3902 88.49 92.0802 85.23 96.1202C84.63 96.8702 83.73 97.6602 82.84 97.3102C82.24 97.0802 81.93 96.4102 81.73 95.8002C79.19 87.9502 84.19 79.7702 84.78 71.5402C83.03 73.2802 81.28 75.0302 79.53 76.7702C81.94 67.2402 84.36 57.6502 85.14 47.8502C85.96 37.5402 85.26 26.1802 91.61 18.0202C92.7 16.6202 93.98 15.3602 95.52 14.4802C98.2 12.9502 101.58 12.7202 104.44 13.8802" stroke="black" stroke-miterlimit="10" stroke-linecap="round" stroke-linejoin="round"/>
<path d="M138.94 239.68C137.86 238.07 136.52 239.63 134.75 239.68C133.72 239.71 131.67 239.84 130.55 239.47C129.32 239.07 128.84 241.84 128.89 243.22C129.15 250.64 129.75 261.5 129.75 261.5C131.18 261.89 134.05 261.67 134.05 261.67C134.29 260.74 134.53 259.82 134.76 258.89C137.02 260.42 136.56 261.55 139.11 262.25C140.85 262.73 147.55 262.47 149.33 262.54C149.8 262.56 151.3 262.56 151.71 262.32C152.98 261.6 152.22 258.87 150.46 258.25C146.79 256.96 143.74 256.1 142.2 251.67C141 248.19 141.03 242.8 138.94 239.68V239.68ZM85.88 240.28C86.55 238.38 88.79 239.64 90.8 239.68C91.97 239.71 93.57 239.63 94.74 239.68C95.53 239.71 96.61 238.78 97.18 239.31C98.19 240.25 97.4 241.84 97.14 243.22C95.9 249.89 96.2 255.61 96.16 261.5L91.28 261.67L90.47 258.89C88.59 260.01 89.22 260.92 87.14 261.6C84.46 262.48 77.02 261.99 74.21 262.08C73.67 262.1 73.11 262.1 72.64 261.86C71.2 261.14 71.64 259.82 72.93 258.79C76.19 256.17 80.36 256.23 82.1 251.8C83.47 248.32 84.69 243.63 85.88 240.28Z" fill="black"/>
<path d="M88.35 241.23C88.01 211.06 87.97 178.05 88.59 147.25M109.23 147.55C105.07 180 98.72 206.97 96.19 240.99M133.83 115.58C134.89 119.41 142.03 144 142.54 147.89" stroke="black" stroke-miterlimit="10" stroke-linecap="round"/>
<path d="M142.41 148.13C138.74 149.04 134.76 148.99 130.88 148.93C126.03 148.85 121.31 147.46 116.46 147.38L115.26 147.45C114.45 145.41 114.52 143.48 114.18 141.5C114.13 141.2 114 140.82 113.69 140.8C113.54 140.79 113.41 140.88 113.3 140.97C112.81 141.37 112.53 141.97 112.31 142.56C111.78 143.97 110.78 145.54 110.74 147.05L108.75 147.26C100.35 147.39 95.39 146.58 86.99 146.39L85.45 146.41C86.46 134.55 89.67 122.8 94.98 111.55" stroke="black" stroke-miterlimit="10" stroke-linecap="round"/>
<path d="M157.09 63.6401C155.15 61.4701 152.83 61.9601 150.29 60.5501C147.85 59.2101 145.25 58.5901 142.66 57.8601C139.26 56.9101 135.82 56.2101 132.33 55.9801C130.13 55.8401 128 56.3101 125.9 56.8501C125.43 56.9701 124.95 57.1001 124.53 57.3201C124.47 57.3201 124.4 57.3501 124.31 57.4401C124.05 57.6801 121.93 58.9301 121.7 58.8601C121.07 58.6701 121.62 59.1101 121.14 59.6401C120.96 59.8401 120.76 60.0201 120.46 59.9401C117.95 59.2301 115.35 59.3301 112.8 58.9901C111.46 58.8101 110.18 58.4101 108.94 57.8101C108.73 57.5101 108.47 57.2501 108.42 56.8401C107.71 56.1301 106.88 56.3401 106.07 56.4501C105.08 56.5901 103.99 56.4801 103.16 57.1501C102.73 57.5001 102.27 57.7901 101.8 58.0701C101.69 58.023 101.576 57.9861 101.46 57.9601C100.13 57.6401 98.8 57.6401 97.43 57.7701C94.36 58.0601 91.37 58.9601 88.28 59.0801C86.17 59.1601 84.07 59.0001 81.96 59.2401C79.69 59.5001 77.45 57.7201 75.36 58.8101C73.04 60.0301 61.49 63.5601 61.26 77.6701C61.11 81.1101 61.71 84.4301 62.68 87.7401C63.61 90.9201 65.28 93.6301 66.84 96.4201C68.89 100.08 71.2 103.57 73.92 106.7C75.64 108.68 77.8 110.09 80 111.41C80.58 111.76 81.16 112.12 81.81 112.27C82.43 112.42 85.82 107.48 85.82 107.48C85.4 109.62 85.25 111.83 84.73 113.94C84.46 115.03 83.52 117.07 83.48 118.18C83.47 118.47 83.37 118.97 83.9 118.61C83.98 118.49 84.02 118.35 84.09 118.23C84.11 118.36 84.12 118.5 84.2 118.61C84.33 118.66 84.45 118.71 84.58 118.76C84.65 118.91 84.74 119.05 84.89 119.11C85.21 119.09 85.25 119.65 85.6 119.57C85.74 119.35 86.41 121.37 86.35 122.18C86.27 123.29 86.44 124.37 86.38 125.46C86.33 126.33 86.24 127.14 87.08 127.54C86.92 127.95 86.09 127.4 86.4 128.3C86.65 128.71 86.35 129.39 86.9 129.65C88.07 130.01 89.35 130.15 90.42 129.78C92.34 129.12 94.22 129.29 96.15 129.24C99.27 129.16 102.35 129.86 105.46 129.94C106.22 129.96 106.98 129.81 107.75 129.9C109.66 130.13 111.58 130.13 113.5 129.93C115.06 129.77 116.57 129.16 118.16 129.26C118.66 129.29 119.16 129.27 119.68 129.14C121.03 128.8 122.41 128.33 123.78 128.34C126.31 128.37 128.7 127.53 131.16 127.16C132.5 126.96 133.79 126.42 135.12 126.11C136.53 125.77 138 125.83 139.38 125.19C140.05 124.88 140.43 124.46 140.34 123.68C140.15 122.06 139.48 120.58 139.12 119C138.96 118.31 138.93 118.15 139.63 118.12C141.31 118.06 142.98 118.4 144.66 118.14C144.82 117.97 144.94 117.77 144.96 117.51C145.17 116.99 145.16 116.44 145.16 115.88C145.17 114.8 145.44 114.46 146.33 114.7C146.92 114.86 146.87 114.56 146.85 114.14C146.8 113.09 146.75 112.04 146.69 110.99C146.68 110.83 146.67 110.66 146.62 110.52C146.02 108.95 145.14 107.53 144.63 105.9C144.34 104.97 143.98 104.08 143.55 103.22C143.19 102.52 142.87 101.8 142.56 101.08C142.77 101.44 143.25 101.57 143.56 101.84C143.65 101.92 143.54 102.06 143.63 102.15C143.93 102.53 144.27 102.38 144.59 102.18C145.58 101.57 146.38 100.75 147.13 99.8301C148.8 97.7801 150.07 95.4101 151.86 93.4601C153.08 92.1301 154.44 90.9401 155.56 89.5101C156.77 87.9701 157.92 86.4001 158.53 84.4601C159.19 82.3101 165.29 72.3001 157.09 63.6401V63.6401ZM92.16 85.9901C91.43 87.9101 90.77 89.8801 90.28 91.9101C89.95 93.3001 89.82 94.7401 89.36 96.0901C89.15 95.9901 88.93 95.9001 88.72 95.7901C87.69 95.2501 86.98 94.1901 86.01 93.5401C83.98 92.1701 82.81 89.9501 81.19 88.1801C80.03 86.9101 79.03 85.4401 78.15 83.9301C77.58 82.9501 77.28 81.7301 77.24 80.5501C77.15 78.3601 77.98 77.8601 79.84 76.8101C81.98 75.6001 84.24 75.4301 86.56 75.5701C88.45 75.6801 90.32 75.3801 92.19 75.2101C92.72 75.1601 93.25 75.1001 93.77 75.0201L92.85 81.0101C93 81.1501 93.23 81.4201 93.19 81.5301C92.69 82.9601 92.71 84.5501 92.16 85.9901V85.9901ZM142.22 100.26C142.33 100.31 142.46 100.45 142.45 100.54C142.44 100.69 142.45 100.81 142.48 100.92C142.39 100.7 142.3 100.48 142.22 100.26ZM146.44 77.6301C145.87 79.6701 144.62 81.1501 143.13 82.4901C141.93 83.5801 140.99 84.9001 139.96 86.1401C139.28 86.9601 138.66 87.8501 138.07 88.7401C138.01 88.5501 137.94 88.3501 137.88 88.1601C137.29 86.3901 136.45 84.7501 136 82.9101L130.61 71.4501C131.35 71.3701 132.12 71.4501 132.84 71.3001C134.87 70.8901 136.88 71.5101 138.9 71.5901C140.35 71.6501 141.82 71.9201 143.24 72.2901C144.17 72.5301 145.06 73.0901 145.78 73.7701C147.14 75.0401 146.94 75.8601 146.44 77.6301V77.6301Z" fill="url(#paint0_linear_1230_3409)"/>
<path d="M75.71 119.31C78.21 115.35 80.51 118.63 84.63 113.68M86.59 119.85C85.4164 120.681 84.035 121.169 82.6 121.26C82.04 121.3 81.49 121.27 80.93 121.33C79.85 121.44 78.79 121.87 77.94 122.54C77.51 122.88 77.1 123.42 77.31 123.9C77.31 123.9 79.42 125.75 82.34 124.53C85.26 123.31 85.74 122.89 88.68 121.84" stroke="black" stroke-miterlimit="10" stroke-linecap="round" stroke-linejoin="round"/>
<path d="M77.5 124.45C73.09 125.17 75.4 122.46 75.92 121.64C76.44 120.81 77.18 120.05 78.12 119.71C79.16 119.34 80.69 119.13 81.76 118.86C83.06 118.53 84.07 118.29 84.84 117.55" stroke="black" stroke-miterlimit="10" stroke-linecap="round" stroke-linejoin="round"/>
<path d="M89.61 97.4002C88.16 99.0302 86.88 105.7 86.88 105.7M137.84 90.4902C137.63 92.3402 140.09 96.5802 140.09 96.5802" stroke="black" stroke-miterlimit="10" stroke-linecap="round"/>
<path d="M181.04 61.0499C185.61 58.0699 190.36 55.3599 195.25 52.9399M180.03 100.28C189.3 100.48 198.59 99.9799 207.79 98.7899M190.22 133.59H202.25M52.25 146.06C45.2166 151.453 38.601 157.369 32.46 163.76M32.84 103.5H9.7M17.1 62.3099H8.77" stroke="#080908" stroke-miterlimit="10"/>
<path d="M111.84 60.0501C114.88 61.9101 119.17 61.3901 121.69 58.8701M123.35 189.47C123.01 189.52 122.86 189.97 123.02 190.27C123.18 190.57 123.53 190.72 123.86 190.77C125.34 190.98 126.57 189.71 127.43 188.49C128.29 187.27 129.21 185.86 130.68 185.61C130.94 185.56 131.21 185.56 131.46 185.64C132.41 185.95 132.57 187.18 132.97 188.09C133.7 189.78 135.86 190.7 137.59 190.04C138.13 189.84 138.65 189.47 138.87 188.93C139.09 188.39 138.92 187.68 138.4 187.42" stroke="black" stroke-miterlimit="10"/>
<path d="M119.05 147.39C120.34 160.81 121.76 175.22 123.32 188.61L122.83 190.12C122.99 195.29 123.28 200.45 123.7 205.61C123.81 207.01 123.94 208.42 124.3 209.78C125.02 212.48 126.78 214.97 129.29 216.18C131.8 217.39 135.08 217.11 137.09 215.18C138.87 213.48 139.44 210.91 139.78 208.47C140.62 202.48 140.57 196.36 139.65 190.38C139.53 189.6 139.37 188.76 138.82 188.19L138.52 186.92C138.32 174.48 137.91 162.03 137.3 149.6" stroke="black" stroke-miterlimit="10"/>
<path d="M133.45 217.09C133.49 218.39 133.78 221 133.78 221L134.35 230.69M130.12 216.51C130.39 217.78 130.6 220.94 130.6 220.94C130.52 221.62 130.8 228.83 130.99 230.91" stroke="black" stroke-miterlimit="10"/>
<path d="M130.55 221.31C130.68 221.9 131.7 222.18 132.31 222.16C132.92 222.13 133.42 222 133.91 221.39" stroke="black" stroke-miterlimit="10"/>
<path d="M134.34 231.61L134.73 235.27C134.11 235.56 133.33 235.85 132.85 235.88C132.68 235.89 132.52 235.89 132.37 235.89C131.89 235.89 131.46 235.85 131.08 235.76C131.03 234.83 130.93 233.13 130.88 231.84C131.22 231.87 131.6 231.89 132.01 231.89C132.88 231.9 133.66 231.8 134.34 231.61V231.61ZM135.18 230.13C134.31 230.74 133.07 230.9 132 230.9C130.81 230.9 129.83 230.7 129.83 230.7C129.85 232.26 130.11 236.51 130.11 236.51C130.52 236.68 131.23 236.9 132.36 236.9C132.53 236.9 132.71 236.9 132.9 236.88C134.03 236.82 135.79 235.86 135.79 235.86L135.18 230.13V230.13Z" fill="black"/>
<path d="M131.8 236.63C131.97 237.9 132.08 239.18 132.14 240.46M127.57 211.06C127.46 211.11 127.5 211.32 127.62 211.32C127.67 211.24 127.6 211.13 127.51 211.12M134.77 235.74C134.77 235.74 134.73 238.5 134.75 239.68" stroke="black" stroke-miterlimit="10"/>
<defs>
<linearGradient id="paint0_linear_1230_3409" x1="95" y1="21" x2="142.5" y2="162" gradientUnits="userSpaceOnUse">
<stop offset="0.270833" stop-color="#6E7CF6"/>
<stop offset="1" stop-color="#1B2FDB"/>
</linearGradient>
</defs>
</svg>
