<svg width="196" height="256" viewBox="0 0 196 256" fill="none" xmlns="http://www.w3.org/2000/svg">
<path d="M79.11 103.08C79.75 97.76 80.93 97.15 82.34 93.41C82.59 92.73 82.82 92.05 83.02 91.35C83.05 91.36 83.09 91.37 83.12 91.39C83.93 89.28 84.73 87.16 85.45 85.03C86.16 82.92 86.61 80.65 87.22 78.48C88.24 74.87 89.41 71.32 91 67.98C91.78 66.34 92.42 64.67 93.02 62.92C94.06 59.85 95.54 57 97.12 54.25C97.64 53.34 98.31 52.5 98.97 51.67C100.32 49.97 101.83 48.58 103.56 47.48C104.59 46.83 105.64 46.22 106.79 45.92C107.54 45.72 108.12 45.14 108.88 44.91C109.81 44.62 110.69 44.69 111.61 44.64C112.48 44.6 113.34 44.65 114.21 44.7C114.58 44.72 115.28 44.53 114.62 45.44C114.3 45.89 114.46 46.6 114.68 47.05C115.03 47.76 115.03 48.45 114.93 49.19C114.91 49.31 115.01 49.45 115.09 49.67C115.72 48.29 116.62 47.24 117.48 46.15C117.76 45.79 117.93 45.9 118.15 46.14C118.51 46.54 118.86 46.96 119.22 47.35C119.61 47.77 119.9 48.28 120.54 48.39C120.88 48.45 121.12 49.04 121.38 49.44C122.7 51.51 123.75 53.72 124.08 56.3C124.16 56.92 124.59 57.19 124.94 57.53C126.27 58.83 127.51 60.26 128.94 61.44C129.89 62.23 130.84 62.99 132.03 63.24C132.59 63.36 133.15 63.56 133.67 63.82C134.63 64.29 135.67 64.25 136.66 64.54C136.84 64.59 136.95 64.49 137.08 64.43C138.75 63.64 140.42 62.82 141.8 61.45C142.65 60.61 143.36 59.56 144.42 59.04C145.56 58.49 146.73 58 147.89 57.48C148.63 57.15 149.43 57.03 150.14 56.59C150.54 56.34 151.08 56.43 151.07 56.97C151.06 57.68 151.44 57.82 151.81 58.06C152.03 58.2 152.16 58.39 152.18 58.67C152.22 59.22 152.08 59.85 152.88 59.91C153.16 59.93 153.11 60.44 153.09 60.75C153.07 61.19 153.16 61.5 153.54 61.74C154.28 62.21 154.43 63.22 154.89 63.87C155.49 64.71 155.77 65.66 156.21 66.56C156.27 66.68 156.28 66.83 156.31 66.97C156.44 67.33 155.84 67.51 156.07 67.82C155.94 67.49 156.36 67.3 156.41 66.97C157.12 67.21 157.18 67.88 157.21 68.58C157.23 68.91 156.89 69.53 157.66 69.31C157.84 69.26 157.94 69.58 157.9 69.83C157.86 70.11 157.81 70.38 157.77 70.66C157.61 71 158.05 71.35 157.92 71.64C158.03 71.54 158.2 71.47 158.4 71.51C158.59 71.55 158.88 71.4 158.96 71.64C159.32 72.72 160.26 73.33 160.63 74.39C160.78 74.84 160.78 75.36 161.27 75.63C161.56 75.79 161.39 76.1 161.18 76.24C157.61 78.53 154.98 82.08 152.11 85.29C152.06 85.35 151.98 85.38 151.92 85.42C151.71 85.28 151.41 85.39 151.24 85.11C150.94 84.6 151.12 85.32 150.99 85.24C150 85.81 149.35 86.89 148.42 87.53C147.26 88.33 146.11 89.17 144.82 89.72C143.86 90.13 142.82 90.16 141.87 90.52C139.45 91.43 137.02 91.08 134.59 90.82C132.16 90.55 129.75 90.13 127.43 89.21C126.86 88.99 126.65 89.13 126.66 89.84C126.69 91.75 126.68 93.65 126.68 95.56C126.68 95.79 126.68 96.01 126.79 96.23C127.1 96.88 127.26 97.57 127.35 98.28C127.71 99.31 128.13 100.3 128.58 101.27C128.86 101.89 128.91 102.7 129.1 103.41C129.35 104.36 129.53 105.33 129.93 106.23C130.18 106.81 130.13 107.57 130.07 108.21C130 108.88 130.02 109.55 130.05 110.22L130.44 113.34C130.85 115.94 131.18 118.56 131.41 121.18C131.59 123.24 129.99 125.23 128.02 126.02C127.71 128.06 126.29 129.95 124.14 130.46C115.04 132.61 105.85 134.4 96.59 135.83C96.15 136.18 95.77 136.58 95.23 136.03C95.18 136.04 95.12 136.04 95.07 136.05C95.2 136.75 93.95 137.18 93.9 136.66C93.88 136.46 93.82 136.32 93.65 136.38C93.48 136.44 93.52 136.64 93.53 136.81C93.53 137.07 93.81 137.33 93.54 137.6C93.23 137.91 85.96 136.43 85.13 135.67C84.37 134.97 83.66 134.15 82.92 133.4C82.54 133.01 82.03 128.67 81.86 128.2C80.86 125.48 78.82 105.49 79.11 103.08V103.08Z" fill="url(#paint0_linear_1230_3430)"/>
<path d="M99.68 221.75C97.21 222.82 94.27 222.86 91.59 222.3C88.91 221.74 86.42 220.63 84.01 219.46M122.6 135.29C123.51 144.65 125.27 153.07 128.26 162.02C129.31 165.16 130.49 168.28 130.87 171.56C131.29 175.1 130.76 178.67 130.71 182.23C130.64 187.62 131.69 192.96 132.73 198.25C133.73 203.35 134.73 208.46 135.74 213.56M123.49 124.95C123.88 128.37 123.23 131.8 122.58 135.18C121.94 138.5 121.3 141.83 120.67 145.15C119.75 149.94 118.83 154.73 117.6 159.45C115.7 166.74 113.06 173.82 110.7 180.99C106.38 194.13 103.11 208.38 99.73 221.77" stroke="black" stroke-miterlimit="10" stroke-linecap="round" stroke-linejoin="round"/>
<path d="M87.33 136.78L93.6 163.37C94.26 166.18 94.93 169.04 94.78 171.92C94.6 175.42 93.23 178.75 92.01 182.05C87.56 194.09 84.87 206.75 84.05 219.52M138.17 216.84C142.78 217.36 147.35 218.26 151.8 219.54C152.36 219.7 152.94 219.88 153.36 220.26C154.13 220.94 154.2 222.15 153.77 223.07C153.34 223.99 152.49 224.66 151.6 225.19C149.46 226.47 146.98 227.09 144.54 227.69C138.79 229.1 133.04 230.51 127.22 231.59C126.59 231.71 125.91 231.81 125.33 231.54C124.75 231.26 124.42 230.67 124.16 230.1C123.21 228.03 122.7 225.77 122.67 223.51" stroke="black" stroke-miterlimit="10" stroke-linecap="round" stroke-linejoin="round"/>
<path d="M138.12 217.79C137.06 220.08 134.67 221.58 132.18 222.24C129.69 222.9 127.06 222.84 124.48 222.77C123.9 222.75 123.33 222.74 122.75 222.72" stroke="black" stroke-miterlimit="10" stroke-linecap="round" stroke-linejoin="round"/>
<path d="M124.12 222.81C124.31 222.91 124.5 222.99 124.7 223.07C124.83 222.99 124.97 222.94 125.14 222.93C126.39 222.87 127.63 222.8 128.88 222.74C130.17 222.67 131.58 222.74 132.8 222.28C134.93 221.49 136.83 219.79 138.33 218.16C138.24 217.82 138.4 217.42 138.71 217.26C138.78 217.23 138.85 217.2 138.92 217.19C139.1 217.02 139.38 216.93 139.63 216.96C139.91 217 140.16 217.18 140.28 217.42L145.81 218.65C147.76 219.08 149.81 219.39 151.72 219.97C152.96 220.35 153.72 221.27 153.61 222.56C153.5 223.95 152.39 224.89 151.17 225.44C147.86 226.93 144.06 227.64 140.5 228.3C138.8 228.62 137.09 228.92 135.38 229.21C135.33 229.38 135.21 229.55 135 229.68C132.76 231 130.2 231.39 127.62 231.5C127.09 231.52 126.65 231.51 126.28 231.37C126.219 231.532 126.11 231.672 125.966 231.769C125.823 231.866 125.653 231.917 125.479 231.914C125.306 231.91 125.138 231.853 124.998 231.751C124.859 231.648 124.755 231.504 124.7 231.34C123.77 228.88 123.33 226.31 122.91 223.73C122.79 223.04 123.44 222.46 124.12 222.81V222.81Z" fill="black"/>
<path d="M84.19 224.86C83 227.54 82.49 229.19 81.75 232.02C90.68 236.75 99.91 240.93 109.38 244.53C110.49 244.95 111.66 245.37 112.84 245.24C114.02 245.11 115.2 244.21 115.21 243.06C115.21 242.49 114.93 241.95 114.64 241.45C112.98 238.67 110.56 236.42 108.17 234.2C104.93 231.2 101.7 228.2 98.46 225.2C93.46 226.64 88.53 227.13 84.21 224.3C84.47 224.55 83.96 225.78 84.19 224.86V224.86Z" stroke="black" stroke-miterlimit="10" stroke-linecap="round" stroke-linejoin="round"/>
<path d="M82.49 231.99C82.6 231.38 82.72 230.77 82.83 230.16C82.96 228.75 83.22 227.36 83.62 225.98C83.76 225.52 84.26 225.39 84.67 225.51C84.8 225.44 84.96 225.4 85.14 225.43C87.12 225.76 89.12 225.97 91.13 226.01C92.58 226.04 94.17 225.79 95.64 226.01C96.36 225.76 97.06 225.47 97.75 225.14C98.33 224.86 99.2 225.45 98.92 226.09C99.18 226.26 99.34 226.53 99.35 226.8C102.85 229.17 106.1 231.89 108.95 234.98C110.18 236.32 111.32 237.73 112.38 239.2C112.73 239.64 113.05 240.1 113.34 240.58C113.52 240.87 113.71 241.17 113.86 241.49C114.21 241.43 114.6 241.58 114.77 241.92C115.23 242.83 115.16 243.81 114.51 244.62C114.22 244.98 113.54 245.14 113.21 244.71C113.13 244.75 113.04 244.77 112.95 244.78C112.64 245.13 112.02 245.1 111.69 244.76C111.6 244.67 111.52 244.58 111.43 244.49C111.25 244.74 110.93 244.88 110.51 244.76C105.932 243.337 101.485 241.52 97.22 239.33C94.96 238.17 92.77 236.84 90.53 235.63C90.49 235.62 90.44 235.62 90.4 235.61C87.8613 234.968 85.4076 234.028 83.09 232.81C83.08 232.8 83.07 232.8 83.06 232.79C82.7 232.74 82.4 232.46 82.49 231.99V231.99Z" fill="black"/>
<path d="M135.94 213.44C135.94 213.44 133.06 220.82 123.07 218.98C116.56 205.53 112.64 188.98 113.08 174.13M167.96 62.2301C167.38 62.7301 166.63 63.0001 165.9 63.2701C165.12 63.5501 164.34 63.8401 163.57 64.1201M154.13 65.5301C155.94 65.2301 157.35 63.8801 158.9 62.9201C161.81 61.1201 165.35 60.6501 168.78 60.2201C168.95 60.9501 168.55 61.7301 167.97 62.2201M166.74 63.4901C166.49 63.6501 166.23 63.8201 166.09 64.0801C165.94 64.3401 165.95 64.7101 166.19 64.8801C166.3 64.9601 166.43 64.9901 166.56 65.0001C167.19 65.0901 167.84 64.9601 168.46 64.8101C168.9 64.7001 169.34 64.5801 169.72 64.3401C170.1 64.1001 170.42 63.7301 170.5 63.2901C170.53 63.1001 170.52 62.9001 170.42 62.7501M167.8 65.3401C167.47 65.4601 167.12 65.6001 166.88 65.8601C166.64 66.1201 166.57 66.5501 166.81 66.8101C166.97 66.9701 167.21 67.0301 167.43 67.0701C168.79 67.3401 169.81 67.5801 171.19 67.4301C171.8 67.3601 172.31 66.9901 172.36 66.5501C172.46 65.8201 171.06 65.4501 170.57 65.3001M168.03 67.3401C167.66 67.3601 167.29 67.4801 166.97 67.6701C166.75 67.8101 166.54 68.0201 166.57 68.2701C166.6 68.5701 166.94 68.7301 167.23 68.8201C168.33 69.1901 169.48 69.4501 170.64 69.5901C171 69.6301 171.4 69.6501 171.67 69.4201C171.96 69.1701 171.96 68.7001 171.77 68.3701C171.58 68.0401 171.24 67.8201 170.9 67.6201M167.21 69.1101C166.99 69.2001 166.74 69.2001 166.51 69.2501C166.28 69.3001 166.03 69.4401 166 69.6701C165.95 69.9601 166.25 70.1901 166.53 70.3201C167.14 70.6001 167.81 70.7401 168.47 70.8901C168.84 70.9701 169.22 71.0501 169.6 71.0101C169.98 70.9701 170.36 70.8001 170.56 70.4901C170.75 70.1701 170.78 69.8701 170.45 69.6801M169.65 71.0401C165.99 71.1901 161.12 72.9601 157.46 73.0101C157.29 73.0101 157.49 73.4401 157.33 73.4301M171.82 57.3901C170.42 58.1501 169.36 59.4501 168.82 60.9201M171.81 68.0401C173.2 68.8001 175.01 68.7701 176.37 67.9601M167.67 65.4701C168.62 65.1401 169.59 65.1301 170.58 65.3001" stroke="black" stroke-miterlimit="10" stroke-linecap="round" stroke-linejoin="round"/>
<path d="M166.48 63.59C167.43 63.31 168.37 62.96 169.28 62.56C169.45 62.48 169.63 62.4 169.82 62.39C170.01 62.38 170.22 62.47 170.29 62.64M178.57 47.63C176.45 47.25 174.9 45.65 175.15 44.09C175.37 42.71 176.79 41.51 176.82 40.11C176.85 38.58 175.22 37.33 173.82 36.17C172.43 35.01 171.1 33.47 171.86 32.03C172.4 31.01 173.83 30.39 174.71 29.5M173.51 57.14C177.07 57.63 180.96 56.08 183.9 52.99" stroke="black" stroke-miterlimit="10" stroke-linecap="round" stroke-linejoin="round"/>
<path d="M187.66 66.3202C187.22 67.7902 186.47 68.2002 185.6 68.5202C183.04 69.4402 181.74 70.2602 179.04 70.6302C178.72 70.6702 178.38 70.7102 178.08 70.5802C177.73 70.4202 177.04 68.6602 176.87 68.3202C174.65 63.9702 172.1 57.8502 171.71 56.9202C171.32 56.0002 171.21 54.6402 172.53 53.5502C173.85 52.4602 176.38 51.5902 179.25 50.9602C180.98 50.5802 182.93 50.4702 184.37 51.4702C185.41 52.2002 186.39 53.9602 186.73 55.8602C187.05 57.7502 188.11 63.1502 187.66 66.3202Z" stroke="black" stroke-miterlimit="10" stroke-linecap="round" stroke-linejoin="round"/>
<path d="M47.43 27.4801C46.96 26.4301 48.44 25.2501 49.44 25.8201C50.44 26.3901 50.37 28.0701 49.41 28.7001C48.45 29.3301 47.04 28.9301 46.39 27.9801C47.12 28.5101 47.94 28.9101 48.81 29.1401M46.37 28.5501C45.54 28.2101 45.08 29.7701 45.81 30.2801C46.54 30.8001 47.54 30.5001 48.38 30.1901" stroke="#151200" stroke-miterlimit="10" stroke-linejoin="round"/>
<path d="M8.96 41.1502C9.69 39.9902 10.48 38.8502 11.53 37.9702C12.58 37.0902 13.92 36.4902 15.28 36.5602C16.64 36.6302 18 37.5002 18.43 38.8002" stroke="#1D1D1B" stroke-miterlimit="10" stroke-linejoin="round"/>
<path d="M15.71 37.17C14.62 38.65 14.27 40.65 14.77 42.42C14.9 42.86 15.08 43.3 15.38 43.64C15.69 43.98 16.14 44.21 16.6 44.17C16.92 44.14 17.22 43.98 17.47 43.79C18.25 43.21 18.75 42.29 18.89 41.33C19.03 40.37 18.84 39.38 18.41 38.5M16.43 36.52C17.81 34.77 19.61 33.21 21.79 32.74C22.56 32.57 23.35 32.54 24.14 32.54C24.68 32.54 25.22 32.55 25.74 32.69C26.374 32.865 26.9458 33.215 27.39 33.7M27.59 33.8C28.68 35.57 29.41 37.69 28.94 39.71C28.72 40.67 28.14 41.64 27.21 41.96C26.3 42.27 25.2 41.83 24.76 40.97" stroke="#1D1D1B" stroke-miterlimit="10" stroke-linejoin="round"/>
<path d="M24.94 40.9798C24.42 40.4398 24.42 39.6098 24.45 38.8598C24.52 37.0098 24.63 35.0398 25.73 33.5398C26.17 32.9398 26.74 32.4498 27.1 31.7998" stroke="#1D1D1B" stroke-miterlimit="10" stroke-linejoin="round"/>
<path d="M26.82 32.2602C27.99 30.1402 30.42 29.0702 32.76 28.4602C35.15 27.8402 37.63 27.5702 40.11 27.6402" stroke="#1D1D1B" stroke-miterlimit="10" stroke-linejoin="round"/>
<path d="M120.35 46.8498C119.52 43.8098 118.69 40.5598 119.64 37.5798C120.38 35.2498 122.2 26.8098 122.62 24.3898L100.99 12.7998C100.99 12.7998 92.86 36.7998 97.33 39.8298C101.8 42.8598 104.76 41.9498 105.27 43.6498C105.77 45.3398 106.15 49.4198 106.15 49.4198L106.5 52.5598L120.96 49.2498L120.35 46.8498V46.8498Z" fill="#CC8E4A"/>
<path d="M100.81 20.0498C104.11 21.4398 115.16 23.1998 115.6 23.3398C120.64 24.9598 117.63 34.0498 116.84 36.9498C116.21 39.2598 115.58 41.5698 114.96 43.8898M130.94 47.7898C131.09 55.5998 133.53 63.3498 132.33 67.0898C130.93 71.4698 128.85 75.5898 125.69 78.9298C124.25 80.4598 121.87 81.9598 120.26 80.6098C122.78 75.0398 123.05 68.4898 121 62.7298C120.49 61.2998 119.01 59.6598 117.78 60.5298C117.42 60.7898 117.2 61.2198 116.82 61.4498C116.17 61.8398 115.28 61.4498 114.86 60.8198C114.44 60.1898 114.38 59.3898 114.34 58.6398C114.08 53.4998 114.36 48.3398 115.16 43.2598" stroke="black" stroke-miterlimit="10" stroke-linecap="round" stroke-linejoin="round"/>
<path d="M100.1 19.5798C98.49 18.1898 96.91 16.3598 97.06 14.2398C97.22 12.0898 99.1 10.4898 100.99 9.43984C104.81 7.29984 109.26 6.37984 113.62 6.67984C113.62 6.67984 133.55 6.09984 131.52 25.3298C129.49 44.5598 130.84 47.7898 130.84 47.7898" stroke="black" stroke-miterlimit="10" stroke-linecap="round" stroke-linejoin="round"/>
<path d="M101.04 81.1401L97.13 96.9701C97.13 96.9701 95.44 111.94 104.72 105.4C114 98.8601 121.59 94.0901 121.59 94.0901" stroke="#1D1D1B" stroke-miterlimit="10"/>
<defs>
<linearGradient id="paint0_linear_1230_3430" x1="90.5" y1="11" x2="132" y2="146" gradientUnits="userSpaceOnUse">
<stop offset="0.291667" stop-color="#9958FF"/>
<stop offset="1" stop-color="#6906E0"/>
</linearGradient>
</defs>
</svg>
