<svg width="218" height="209" viewBox="0 0 218 209" fill="none" xmlns="http://www.w3.org/2000/svg">
<path d="M156.22 66.9299C156.13 66.8699 156.04 66.7999 155.93 66.7699C154.01 66.0799 152 65.5599 150.18 64.6699C148.37 63.7799 146.15 64.1099 144.56 62.6499C144.34 62.4399 143.86 62.5099 143.51 62.4299C142.56 62.2099 141.68 62.4099 140.66 61.5999C139.44 60.6399 137.48 60.4199 135.8 60.2699C135.07 60.1999 134.53 60.0599 133.94 59.7299C132.42 58.8799 130.92 57.9899 129.03 58.2399C128.36 58.3299 127.64 58.3399 126.99 58.3499C125.83 58.3599 124.65 57.8999 123.51 57.5399C121.18 56.8099 121.54 56.8199 119.22 56.0899C118.79 55.9599 120.79 63.1399 120.35 63.3099C118.43 64.0299 112.61 62.1199 110.43 62.3199C108.93 62.4599 110.48 59.9299 110.12 59.4099C108.97 57.7299 108.09 55.2599 108.17 54.8199C108.56 52.7599 104 54.3699 102.25 55.9299C102.15 56.0199 101.98 56.0599 101.84 56.0699C100.26 56.1199 98.68 56.1599 97.1 56.1799C95.83 56.1999 96.9 60.1599 94.84 61.8999C92.51 63.8699 88.6 60.6699 85.59 63.6799C85.46 63.8099 85.76 59.9799 85.59 60.1099C85 60.5899 87.04 56.8999 86.67 56.2599C86.55 56.0399 86.28 55.7399 86.1 55.7499C85.35 55.8199 84.52 55.8199 83.89 56.1699C83.12 56.5999 82.53 57.3499 81.84 57.9299C81.49 58.2199 81.1 58.4699 80.69 58.6799C80.05 58.9999 79.35 59.2099 78.74 59.5699C78.04 59.9899 77.41 60.5299 76.76 61.0199C77.17 61.4299 77.03 61.7199 76.23 62.0199C75.15 62.4199 73.95 62.6599 73.04 63.2999C70.79 64.8799 68.62 66.5999 66.51 68.3699C64.88 69.7399 62.89 70.7399 61.77 72.6699C61.71 72.7799 61.54 72.8399 61.42 72.9099C60.66 73.3599 59.83 73.7399 59.15 74.2799C58.59 74.7199 58.26 75.4699 57.69 75.8799C56.89 76.4599 55.98 76.8899 55.08 77.3199C53.76 77.9499 52.72 78.7499 51.9 80.0599C51.22 81.1399 49.84 81.7899 48.74 82.6499C49.17 83.1999 48.93 83.5899 48.16 83.8399C47.39 84.0899 46.63 84.3899 45.87 84.6799C44.96 85.0299 44.1 85.4099 44.26 86.6299C44.28 86.7799 44.05 86.9599 43.92 87.1699C43.78 86.9699 43.68 86.8399 43.49 86.5699C42.81 87.5399 42.05 88.3899 41.57 89.3699C41.09 90.3599 40.86 91.4799 40.57 92.5599C40.5 92.7999 40.52 93.1699 40.67 93.3399C41.08 93.7899 41.59 94.1299 42.02 94.5599C42.19 94.7299 42.34 95.0199 42.34 95.2599C42.35 95.6699 42.23 96.0799 42.17 96.5099C42.68 96.4599 43.1 96.4099 43.64 96.3599C43.59 96.8399 43.55 97.2099 43.51 97.6499C43.96 97.7599 44.43 97.8299 44.87 97.9999C45.45 98.2199 46.3 98.3899 46.51 98.8199C47 99.8399 47.69 99.9399 48.55 99.5999C51.25 98.5199 53.92 97.3699 56.62 96.2899C57.55 95.9199 58.61 95.7999 59.45 95.2999C61.47 94.0899 63.32 92.5799 65.78 92.2699C66.01 92.2399 66.23 92.0399 66.45 91.9099C67.6 91.2199 67.62 91.0899 66.74 89.9599C67.9 89.7599 69.28 90.4299 69.97 88.9099C70.22 89.2199 70.4 89.3699 70.46 89.5499C71.29 91.8899 73.16 97.6899 73.3 98.2499C74.01 101.22 76.74 107.46 78.31 110.01C79.06 109.97 79.75 110 80.4 110.06C79.7 110.05 79 110.03 78.31 110.01C78.38 110.74 78.34 111.48 78.24 112.27C78.15 113.05 78.57 113.41 79.17 113.58C79.53 113.55 79.91 113.61 80.24 113.77L80.43 113.86C81.5 114.07 82.58 114.25 83.61 114.59C85.1 115.08 86.5 114.25 87.99 114.56C88.67 114.7 89.53 114.05 90.31 113.75C90.62 114.34 91.15 114.49 91.97 114.27C92.59 114.1 93.23 113.95 93.87 113.92C94.53 113.89 102.44 112.64 103.83 114.01C103.86 114.04 104.02 113.92 104.13 113.9C104.48 113.85 104.84 113.81 105.2 113.77C106.22 113.67 107.24 113.58 108.25 113.48C109.54 113.35 112.31 113.62 112.34 113.98C112.43 115.2 114.71 114.9 114.85 114.96C115.98 115.45 117.35 115.75 118.15 116.57C119.12 117.57 119.37 116.81 119.94 116.36C120.81 115.68 121.71 115.04 122.63 114.44C123.12 114.12 123.69 113.93 124.12 113.73C123.77 112.36 123.42 111.29 123.27 110.2C123.2 109.72 123.62 109.19 123.68 108.67C123.71 108.41 123.73 108.15 123.76 107.89L124.32 102.04C124.52 100.12 124.87 98.2099 125 96.2899C125.2 93.2999 125.77 90.4299 126.81 87.5999C127.32 86.1999 131.45 83.1599 131.98 83.1199C133.98 82.9699 136.01 83.0899 138 82.8499C139.32 82.6899 140.6 81.7799 141.87 81.8199C143.66 81.8799 145.33 81.2799 147.16 81.4199C150.16 81.6399 153.1 80.9799 155.63 79.1099C156.24 78.6599 156.63 78.3499 156.34 77.5499C156.1 76.8899 156.3 76.4099 157.05 76.0899C157.54 75.8799 158 75.3999 158.28 74.9299C159.43 72.9799 158.15 68.1799 156.22 66.9299ZM105.44 108.57C101.1 108.79 96.73 108.86 92.39 109.1C92.36 107.43 92.39 105.24 92.19 105.09C91.83 104.84 91.65 104.05 91.72 103.55C91.89 102.38 91.09 102.08 90.3 101.86C89.69 101.69 84.27 92.9599 84.37 91.5599C84.39 91.3499 84.44 91.1099 84.36 90.9399C83.41 88.9199 84.31 87.0399 84.76 85.1299C84.99 84.1799 85.15 83.2099 85.44 82.2899C86.74 78.1599 89.25 74.9999 93.64 73.9699C95.46 73.5399 97.24 73.0399 99.03 72.5399C99.28 72.4699 99.57 72.4299 99.74 72.2699C101.75 70.4399 103.79 71.3199 105.8 72.2199C107.15 72.8199 108.43 73.5599 108.93 75.1099C109 75.3499 109.33 75.6299 109.57 75.6699C111.05 75.8999 111.3 76.7999 111.39 77.7699C112.2 77.8299 113.01 78.3599 113.09 79.3799C113.42 83.7899 114.38 87.7399 113.28 92.1299C112.43 95.5299 110.84 98.7199 108.24 101.14C108.07 101.3 107.9 101.4 107.72 101.48C107.74 102.58 108.89 103.88 109.94 104.3C110.25 104.42 110.46 106.91 110.71 107.16C110.7 107.16 111.13 107.72 111.6 108.34C109.55 108.39 107.5 108.47 105.44 108.57Z" fill="url(#paint0_linear_1230_3450)"/>
<path d="M116.54 32.3001C116.36 32.2501 116.14 32.2201 115.88 32.2101C111.02 32.1201 106.16 32.0201 101.3 31.9601C98.87 31.9301 96.43 31.8701 94.01 32.0301C91.99 32.1601 89.71 31.9001 88.44 34.0901C88.27 34.3901 88.01 34.7901 88.09 35.0501C88.99 37.8701 89.07 40.7901 88.9 43.6801C88.73 46.4701 89.85 48.9401 90.49 51.5301C90.58 51.9001 90.83 52.3701 91.14 52.5101C92.95 53.3401 93.1 55.2701 94.07 56.6501C94.8 57.6901 95.23 58.9401 95.76 60.0201C96.17 60.2601 96.62 60.5501 97.1 60.7801C97.34 60.9001 97.66 60.9901 97.91 60.9501C98.62 60.8301 99.22 60.8501 99.83 61.3701C100.23 61.7001 100.89 61.7401 101.44 61.8801C101.71 61.9401 102.06 61.8201 102.27 61.9501C102.91 62.3401 108.02 59.4201 107.31 57.3701C106.71 55.6401 107.95 54.3001 109.45 53.3801C111.07 52.3901 112.02 50.9201 112.58 49.1801C113.09 47.5901 113.6 46.0001 114.06 44.3901C115.07 40.8301 116.06 37.2701 117.03 33.7001C117.1 33.4501 117.13 33.2301 117.12 33.0501C116.93 32.8001 116.73 32.5501 116.54 32.3001V32.3001Z" fill="#F9AD73"/>
<path d="M112.51 79.72C109.14 75.81 103.86 73.17 98.73 74.08C96.8 74.43 94.98 75.25 93.24 76.14C91 77.28 88.76 78.61 87.33 80.66C86.23 82.24 85.7 84.15 85.48 86.06C85.12 89.32 85.65 92.65 86.8 95.73C87.56 97.77 88.62 99.76 90.3 101.16C92.91 103.35 96.61 103.79 100.03 103.55C103.7 103.29 107.51 102.26 110.06 99.65C112.01 97.67 113.04 94.94 113.34 92.19C113.64 89.45 113.24 86.67 112.65 83.98C112.22 82.04 111.68 80.11 111.04 78.23M97.16 104.43C96.18 105.68 95.35 107.03 94.67 108.46C99.62 108.93 104.57 107.94 109.53 107.58" stroke="black" stroke-miterlimit="10"/>
<path d="M105.39 103.14C106.3 104.95 107.71 106.51 109.42 107.61C109.46 107.63 109.49 107.66 109.53 107.68M103.51 14.9198C103.02 13.8298 101.92 12.3998 100.63 13.2198M99.5 16.2398C100.1 17.5798 101.67 18.0998 102.87 17.1298M101.22 12.9298C99.89 13.0998 99.02 14.2298 99.27 15.5298M99.33 13.5498C93.72 8.42984 81.97 24.2498 79.76 28.3798C75.88 35.6098 76.48 47.0198 86.08 49.1998M103.22 13.9498C108.82 5.13984 119.27 20.9798 121.32 25.1498C124.92 32.4798 126.34 43.1898 118.09 48.0498M85.95 43.3198C86.29 43.8798 86.69 44.4098 87.14 44.8998M103.4 15.4998C103.68 15.8298 103.6 16.3898 103.23 16.6198M101.25 17.7198C101.25 18.2498 101.3 18.7898 101.38 19.3198M101.86 19.6398C101.38 19.6198 100.88 19.5898 100.41 19.6898C99.94 19.7898 99.47 20.0398 99.22 20.4498C98.86 21.0198 99 21.7798 99.33 22.3798C99.57 22.8198 99.94 23.2298 100.43 23.3898C100.78 23.4998 101.17 23.4798 101.52 23.3898C102.62 23.1098 103.57 22.0998 103.52 20.9798C103.49 20.4698 103.24 19.9498 102.78 19.7098C102.16 19.3998 101.41 19.6798 100.78 19.9598M101.34 23.5198C101.38 23.8198 101.43 24.1198 101.47 24.4198M101.87 24.9898C101.48 24.6898 100.81 24.8998 100.66 25.3698C100.51 25.8798 101 26.4298 101.54 26.4198C102.08 26.4098 102.52 25.8998 102.55 25.3798C102.56 25.1498 102.5 24.8998 102.32 24.7598C102.05 24.5298 101.62 24.6198 101.33 24.8198C101.04 25.0198 100.82 25.3198 100.54 25.5298M95.26 20.0398C90.8107 23.7007 87.2741 28.3465 84.93 33.6098M107.52 17.3098C111.01 18.9098 114.14 21.2398 116.65 24.1098M87.75 90.4098C88.57 88.8198 89.47 87.2298 90.75 85.9598C92.03 84.6898 93.75 83.7498 95.56 83.7598C97 83.7698 98.38 84.3498 99.81 84.5098C102.8 84.8298 105.9 83.0298 107.06 80.2998M91.2 95.2198C93.05 91.4498 97.69 89.2398 101.84 90.1498C102.36 90.2598 102.89 90.4198 103.42 90.3598C103.82 90.3098 104.2 90.1398 104.55 89.9398C106.21 88.9978 107.461 87.4724 108.06 85.6598M99.32 97.3898C100.17 95.7998 102.04 95.0798 103.76 94.4698C104.12 94.3398 104.49 94.2198 104.87 94.2098C105.5 94.2098 106.1 94.5498 106.73 94.5698C107.42 94.5898 108.07 94.1998 108.53 93.6898C108.99 93.1798 109.28 92.5498 109.57 91.9398" stroke="black" stroke-miterlimit="10"/>
<path d="M88.18 34.3298C90.25 31.2998 93.51 29.0198 97.15 28.3398C98.05 28.1698 98.97 28.0998 99.89 28.0398C103.15 27.8498 106.49 27.8898 109.57 28.9298C112.66 29.9698 115.49 32.1398 116.63 35.1498M96.01 59.9498C98.38 61.3598 101.35 61.7698 104.02 61.0498C104.45 60.9298 104.88 60.7898 105.26 60.5498C105.94 60.1398 106.41 59.4798 106.86 58.8298" stroke="black" stroke-miterlimit="10"/>
<path d="M38.74 111.2C56.68 110.11 74.63 109.28 92.6 108.7M111.32 108.03C115.59 107.21 119.98 107.19 124.33 107.15C139.9 107.01 155.46 106.69 171.02 106.19M38.2 111.59C37.89 112.19 38.02 112.98 38.51 113.45C38.57 113.51 38.64 113.58 38.61 113.66C38.58 113.74 38.42 113.65 38.5 113.61M38.91 114.87C61.95 112.14 85.2 111.54 108.4 110.95L144.61 110.02M171.15 106.22C171.65 106.44 172.02 106.91 172.12 107.44C172.21 107.97 172.03 108.54 171.63 108.91M146.94 110.42C155.09 110.1 163.23 109.59 171.38 109.08M63.29 120.66C70.44 115.96 79.65 116.03 88.24 116.27M62.59 120.89C54.83 125.75 59.84 139.33 61.09 146.26C62.85 155.96 64.71 165.65 66.65 175.32M112.85 118.39C120.553 115.304 128.692 113.442 136.97 112.87C141.89 112.53 147.49 112.94 150.69 116.64C152.59 118.83 153.26 121.81 153.46 124.68C153.97 132.19 151.68 139.59 149.24 146.72C146.09 155.93 142.64 165.04 139.2 174.15C139.05 174.55 138.79 175.02 138.36 174.99C137.93 174.97 138.11 174.09 138.43 174.37" stroke="#1D1D1B" stroke-miterlimit="10"/>
<path d="M111.72 133.34C117.62 131.18 123.79 129.73 130.05 129.03C131.78 128.84 133.74 128.76 135.05 129.89C136.78 131.37 136.48 134.04 136.04 136.26C133.88 147.1 131.72 157.96 128.52 168.55C128.22 169.53 127.93 170.64 128.46 171.52C128.8 172.1 129.43 172.45 130.05 172.73C132.7 173.92 135.72 174.3 138.59 173.8M76.73 136.33C77.79 147.64 78.86 158.94 79.92 170.25M77.62 135.7C82.5 133.72 87.98 133.85 93.24 134.22C98.51 134.59 103.88 135.15 109.01 133.95" stroke="#1D1D1B" stroke-miterlimit="10"/>
<path d="M79.88 139.6C89.73 139 99.59 138.41 109.44 137.81C114.55 137.5 119.67 137.19 124.78 137.53C126.69 137.66 128.64 137.87 130.47 137.35C131.07 137.18 131.67 136.93 132.11 136.48C133.37 135.21 132.83 133.12 133.27 131.4M82.46 184.33C82.35 184.32 82.44 184.53 82.54 184.48C82.64 184.43 82.63 184.29 82.62 184.19C82.19 181.6 80.91 179.16 79.04 177.31" stroke="#1D1D1B" stroke-miterlimit="10"/>
<path d="M70.33 179.57C67.2713 183.09 63.6691 186.098 59.66 188.48C59.26 188.72 58.84 188.97 58.59 189.36C58.19 189.98 58.33 190.82 58.7 191.47C59.52 192.89 61.28 193.59 62.94 193.58C64.6 193.57 66.19 192.97 67.72 192.34C72.81 190.24 77.72 187.71 82.37 184.79L82.62 184.2C82.62 184.2 79.97 176.03 78.6 177.4C77.8 178.2 76.3 179.51 74.86 180.08C73.42 180.65 71.65 180.66 70.43 179.72" fill="#1D1D1B"/>
<path d="M70.33 179.57C67.2713 183.09 63.6691 186.098 59.66 188.48C59.26 188.72 58.84 188.97 58.59 189.36C58.19 189.98 58.33 190.82 58.7 191.47C59.52 192.89 61.28 193.59 62.94 193.58C64.6 193.57 66.19 192.97 67.72 192.34C72.81 190.24 77.72 187.71 82.37 184.79L82.62 184.2C82.62 184.2 79.97 176.03 78.6 177.4C77.8 178.2 76.3 179.51 74.86 180.08C73.42 180.65 71.65 180.66 70.43 179.72M128.52 171.76C128.2 174.45 127.88 177.13 127.57 179.82M137.18 174.33C136.21 176.43 135.35 178.58 134.59 180.76C134.55 180.63 134.51 180.51 134.47 180.38M127.09 179.76C128.89 181.66 131.84 182.41 134.35 181.6" stroke="#1D1D1B" stroke-miterlimit="10"/>
<path d="M139.52 198.93C133.89 195.29 128.38 191.47 123 187.48C122.58 187.17 122.15 186.84 121.93 186.38C121.62 185.72 121.8 184.94 122.07 184.27C122.753 182.546 123.915 181.054 125.42 179.97C125.64 179.81 125.92 179.76 126.19 179.81L135.76 181.71C139.05 185.95 141.53 190.8 143.01 195.93C143.13 196.34 143.24 196.77 143.11 197.18C143 197.53 142.73 197.8 142.45 198.03C141.56 198.77 141.6 199.1 140.45 199.24L139.52 198.93Z" fill="#1D1D1B" stroke="#1D1D1B" stroke-miterlimit="10"/>
<path d="M66.92 175.51C67.32 175.52 67.71 175.52 68.11 175.51C72.57 175.4 76.93 173.19 79.61 169.68" stroke="#1D1D1B" stroke-miterlimit="10"/>
<path d="M70.15 175.43C70.43 176.65 70.76 177.86 71.16 179.04C71.12 178.92 71.74 180.43 71.7 180.31M77.98 171.62C78.22 173.35 78.54 175.07 78.94 176.77C78.96 176.86 78.97 176.99 78.89 177.03C78.8 177.07 78.75 176.87 78.84 176.91" stroke="#1D1D1B" stroke-miterlimit="10"/>
<path d="M69.36 183.83C69.58 183.51 69.8 183.19 70.02 182.86L68.93 183.8C69.23 183.36 69.52 182.91 69.82 182.47C69.81 182.6 69.61 182.62 69.52 182.52C69.44 182.42 69.45 182.28 69.47 182.16C69.59 181.46 69.89 180.78 70.32 180.21C70.39 180.82 70.65 181.4 71.05 181.87C70.7606 181.433 70.6235 180.913 70.66 180.39C70.49 180.54 70.33 180.69 70.16 180.84C70.29 181.15 70.58 181.41 70.91 181.42C71.25 181.43 71.58 181.1 71.49 180.78C71.4 180.46 70.85 180.39 70.73 180.7C71.93 181.17 73.3 181.04 74.5 180.58C75.7 180.12 76.75 179.35 77.73 178.52C77.92 178.36 78.12 178.19 78.37 178.15C78.79 178.08 79.17 178.41 79.46 178.72C80.4813 179.855 81.2484 181.195 81.71 182.65C81.86 183.11 81.97 183.61 81.85 184.08C81.69 184.69 81.17 185.12 80.66 185.5C77.41 187.93 73.66 189.71 69.7 190.7M118.04 139.11C117.39 151.37 116.73 163.63 116.08 175.88C116.04 176.57 116.07 177.38 116.65 177.76C117.21 178.13 118.02 177.84 118.43 177.32C118.84 176.8 118.96 176.11 119.07 175.45C120.98 163.53 122.36 151.52 123.2 139.47M131.2 138.3C131.49 141.56 131.77 144.82 132.06 148.08M124.96 140.13L128.41 158.92C128.75 160.77 129.09 162.63 129.08 164.5M85.06 140.49C84.97 152.81 85.1 165.14 85.45 177.46C84.59 177.39 83.72 177.33 82.86 177.26C82.09 165.33 81.31 153.39 80.54 141.46M38.38 117.91C37.3517 137.242 36.9382 156.602 37.14 175.96C37.19 181.08 37.3 186.27 38.64 191.22C39.22 191.38 39.8 191.53 40.38 191.69M41.38 116.95C40.87 142.24 40.89 167.55 41.44 192.84M171.63 110.98C171.02 137.95 171.7 164.96 173.66 191.87M167.82 110.56C170.23 125.65 167.49 141.06 168.13 156.33C168.29 160.17 168.66 163.99 169.04 167.82C169.86 176.18 170.67 184.54 171.49 192.9C171.98 192.99 172.46 193.07 172.95 193.16M113.37 76.0498C113.01 76.4098 113 77.0198 113.27 77.4498C113.54 77.8798 114.05 78.1298 114.55 78.1798C115.01 78.2298 115.48 78.1298 115.94 78.1198C117.36 78.0698 119.52 79.1398 120.76 79.8298C120.72 79.7998 119.85 79.3998 119.81 79.3698" stroke="#1D1D1B" stroke-miterlimit="10"/>
<path d="M121.61 76.4902C118.71 75.4902 116.48 75.5602 113.45 75.9502L113.12 76.4902" stroke="#1D1D1B" stroke-miterlimit="10"/>
<path d="M123.13 82.6998C123.28 83.0798 123.24 83.5098 123.1 83.8898C122.96 84.2698 122.74 84.6198 122.52 84.9598C122.21 85.4298 121.9 85.9098 121.48 86.2798L119.34 88.3398C119.05 88.5698 119.04 89.0498 119.28 89.3398C119.51 89.6298 119.92 89.7398 120.29 89.7098C120.66 89.6698 121.01 89.4998 121.33 89.3098C123.15 88.2098 123 87.5098 124.67 86.2098L125.97 85.0298C126.84 84.9298 127.72 85.1598 128.59 85.1498C129.68 85.1298 130.76 84.7298 131.59 84.0298C131.82 83.8398 132.03 83.6198 132.29 83.4798C132.55 83.3398 132.89 83.2798 133.15 83.4298C133.5 83.6198 133.71 84.1398 134.1 84.0798C134.31 84.0498 134.45 83.8498 134.56 83.6598C135.05 82.8198 135.47 81.8998 135.47 80.9298C135.47 80.1198 135.18 79.3398 134.9 78.5798C134.74 78.1598 134.59 77.7398 134.43 77.3198L133.2 76.8298C130.86 75.8898 129.66 76.6398 127.13 76.4998C124.707 76.3672 122.329 75.7839 120.12 74.7798C119.21 74.3698 118.33 73.8798 117.39 73.5598C116.52 73.2598 115.61 73.0998 114.71 72.9398C113.61 72.7498 112.51 72.5498 111.41 72.3598C111.41 72.3598 109.59 71.6798 109.6 72.5898C109.6 72.8998 109.51 73.1998 109.61 73.4898C109.84 74.1398 110.5 74.5298 111.16 74.7498C111.53 74.8698 111.92 74.9598 112.31 75.0398C113.28 75.2498 114.46 75.5398 115.42 75.7498" stroke="#1D1D1B" stroke-miterlimit="10"/>
<path d="M124.45 81.8099C123 82.4299 115.28 85.3799 115.15 82.6399C115.15 82.6399 115.07 81.8299 115.83 81.5999C116.26 81.4699 116.7 81.3499 117.14 81.2599C119.25 80.8399 121.2 79.4299 123.33 79.6899M74.39 80.0499C76.99 78.3999 79.2 77.9399 82.26 77.6099C82.26 77.6099 83.24 78.0399 82.8 79.0199C82.59 79.4799 82.2 79.8599 81.72 80.0299C81.28 80.1899 80.8 80.1999 80.34 80.2999C78.93 80.5899 77.8 81.5799 76.75 82.5399C76.78 82.4999 76.18 83.0999 76.22 83.0599" stroke="#1D1D1B" stroke-miterlimit="10"/>
<path d="M61.8 83.8401C63.87 82.3701 66.53 82.0801 68.98 81.3501C71.32 80.6501 73.52 79.5201 75.44 78.0301C76.23 77.4101 76.98 76.7401 77.83 76.2001C78.61 75.7101 79.46 75.3401 80.31 74.9701C81.34 74.5201 82.38 74.0801 83.41 73.6301C83.94 73.4001 84.59 73.1801 85.06 73.5201C85.06 73.5201 85.53 73.9701 85.45 74.3101C85.29 74.9701 84.83 75.5301 84.23 75.9001C83.89 76.1101 83.53 76.2801 83.17 76.4501C82.27 76.8801 81.38 77.3001 80.48 77.7301M82.2 84.5101C82.73 87.2001 74.45 86.1501 72.88 85.8801M82.23 84.5101C82.17 84.0701 81.73 83.7501 81.29 83.6501C80.85 83.5501 80.38 83.6101 79.93 83.6301C77.76 83.7201 75.52 82.8101 73.48 83.5601M74.39 86.4401C74.33 86.8401 74.48 87.2501 74.7 87.5901C74.93 87.9301 75.23 88.2101 75.53 88.4901C75.94 88.8801 76.37 89.2601 76.87 89.5301L79.46 91.0301C79.8 91.1901 79.92 91.6501 79.76 91.9801C79.6 92.3201 79.23 92.5201 78.85 92.5701C78.47 92.6201 78.09 92.5401 77.73 92.4201C75.69 91.7701 74.6 90.4501 72.64 89.5801L72.15 89.3501C71.27 89.4601 70.47 89.8901 69.61 90.0801C68.54 90.3201 67.38 90.1801 66.4 89.7001C66.13 89.5701 65.87 89.4101 65.58 89.3301C65.29 89.2501 64.95 89.2801 64.72 89.4801C64.42 89.7501 64.34 90.3001 63.94 90.3301C63.72 90.3501 63.54 90.1801 63.39 90.0301C62.71 89.3301 62.08 88.5301 61.84 87.5901C61.65 86.8001 61.74 85.9801 61.84 85.1801C61.89 84.7401 61.95 84.2901 62 83.8501M50.33 85.7801C54.1 84.8901 57.99 84.4601 61.81 83.8401M133.2 76.8301C136.43 75.8501 140.56 74.7701 143.79 73.7901M9.99999 55.8301C9.82999 57.9801 10.02 60.1501 10.58 62.2301C10.76 62.8901 11 63.5901 11.57 63.9901C12.18 64.4201 12.98 64.3801 13.73 64.3501C16.28 64.2501 18.9 64.4101 21.27 65.3501C23.64 66.2901 25.76 68.0801 26.59 70.4601C26.72 70.8401 26.95 71.3301 27.36 71.2901C27.77 71.2501 27.33 70.4601 27.22 70.8501M33.28 21.8101C33.02 23.2901 32.89 25.1001 34.11 26.0001C34.62 26.3701 35.26 26.5001 35.87 26.6901C40.22 28.0301 42.77 33.3501 41.07 37.5101M159.25 35.6401C159.11 31.6501 161.03 27.6301 164.25 25.2001C166.06 23.8301 168.21 22.9601 170.16 21.7801C172.11 20.6001 173.96 18.9801 174.56 16.8101M188.39 72.5801C190.25 71.8801 192.16 71.1701 194.15 71.1601C196.25 71.1401 198.27 71.9001 200.33 72.3601C202.39 72.8201 204.69 72.9301 206.43 71.7701M58.47 190.43C58.03 192.11 59.01 193.95 60.51 194.85C62.01 195.76 63.91 195.85 65.63 195.48C67.35 195.11 68.94 194.31 70.52 193.53C74.62 191.48 78.71 189.42 82.81 187.37C83.01 187.27 83.22 187.16 83.37 186.99C83.75 186.54 83.58 185.85 83.26 185.36C82.94 184.87 82.49 184.44 82.33 183.88M121.86 185.45C120.87 186.15 120.76 187.63 121.3 188.7C121.84 189.77 122.86 190.52 123.87 191.18C128.17 194 133.05 196.14 136.53 199.9C136.94 200.34 137.33 200.8 137.86 201.08C138.92 201.63 140.29 201.24 141.16 200.43C142.03 199.62 142.46 198.45 142.74 197.31" stroke="#1D1D1B" stroke-miterlimit="10"/>
<path d="M96.43 38.6899C95.56 38.5899 94.71 39.1899 94.15 39.8099C93.62 40.3899 93.23 41.1099 93.04 41.8699C92.66 43.4199 93.07 45.4199 94.56 46.2699C95.4 46.7499 96.57 46.7499 97.5 46.5499C98.24 46.3899 98.93 45.9499 99.43 45.3799C100.53 44.1099 100.77 42.3199 99.95 40.8399C99.4937 40.036 98.8029 39.3906 97.97 38.9899C97.16 38.6099 96.02 38.3199 95.3 39.0199C94.84 39.4699 95.54 40.1699 96.01 39.7299C96.39 39.3599 97.26 39.7499 97.65 39.9499C98.18 40.2299 98.64 40.6299 98.96 41.1399C99.62 42.1699 99.6 43.4199 98.91 44.4299C98.6 44.8899 98.13 45.2899 97.61 45.4799C96.95 45.7299 96.04 45.7599 95.37 45.5399C94.18 45.1599 93.79 43.6299 93.94 42.5199C94.03 41.8699 94.29 41.2299 94.7 40.7099C95.1 40.1999 95.75 39.6199 96.44 39.6899C96.71 39.7199 96.94 39.4399 96.94 39.1899C96.93 38.8999 96.7 38.7199 96.43 38.6899V38.6899ZM105.58 37.9899C103.65 37.9699 102.56 40.3199 102.43 41.9599C102.3 43.6799 102.9 46.4699 104.91 46.8799C105.93 47.0799 106.98 46.7199 107.91 46.3099C108.77 45.9199 109.6 45.3399 110.06 44.4999C110.95 42.8799 110.34 40.7599 109.02 39.5799C107.46 38.1899 105.13 37.9099 103.27 38.8399C102.69 39.1299 103.2 39.9899 103.77 39.6999C105.03 39.0699 106.58 39.1699 107.78 39.8999C108.93 40.5999 109.74 42.0399 109.42 43.4099C109.07 44.8899 107.33 45.6899 105.96 45.9099C105.16 46.0399 104.49 45.7799 104.08 45.0799C103.7 44.4199 103.51 43.5999 103.44 42.8499C103.36 41.9399 103.53 41.0999 103.97 40.2899C104.31 39.6599 104.8 38.9899 105.58 38.9999C106.22 38.9999 106.23 37.9999 105.58 37.9899V37.9899Z" fill="#1D1D1B"/>
<path d="M100.76 43.1598C100.87 43.0498 100.96 42.9198 101.04 42.7998C101.07 42.7598 101.1 42.7098 101.13 42.6698C101.14 42.6598 101.15 42.6398 101.16 42.6298C101.14 42.6498 101.13 42.6698 101.11 42.6898C101.13 42.6698 101.14 42.6498 101.16 42.6298L101.22 42.5698C101.25 42.5298 101.11 42.6498 101.19 42.5998C101.28 42.5398 101.08 42.6298 101.16 42.6098C101.24 42.5898 101.03 42.6098 101.12 42.6098H101.16C101.2 42.6098 101.18 42.6098 101.09 42.5998C101.1 42.6098 101.14 42.6098 101.15 42.6098C101.17 42.6198 101.19 42.6198 101.21 42.6298C101.32 42.6698 101.15 42.5998 101.19 42.6198C101.29 42.6698 101.39 42.7198 101.48 42.7798C101.53 42.8098 101.57 42.8498 101.62 42.8798C101.5 42.8198 101.58 42.8498 101.61 42.8698C101.724 42.9688 101.834 43.0722 101.94 43.1798C101.96 43.1998 101.97 43.2198 101.99 43.2398C102.05 43.3098 101.99 43.2498 101.97 43.2098C101.99 43.2498 102.03 43.2898 102.05 43.3298C102.18 43.5598 102.51 43.6498 102.73 43.5098C102.96 43.3598 103.05 43.0698 102.91 42.8298C102.77 42.5898 102.57 42.3798 102.36 42.1998C102.1 41.9798 101.84 41.7998 101.52 41.6798C101.351 41.6098 101.166 41.5887 100.986 41.6188C100.805 41.6488 100.637 41.7288 100.5 41.8498C100.38 41.9498 100.3 42.0698 100.21 42.1998C100.17 42.2498 100.14 42.3098 100.1 42.3598C100.09 42.3798 100.08 42.3898 100.07 42.3998C100.12 42.3398 100.13 42.3198 100.1 42.3598C100.08 42.3898 100.05 42.4198 100.03 42.4398C99.85 42.6298 99.83 42.9598 100.03 43.1498C100.25 43.3398 100.57 43.3598 100.76 43.1598V43.1598ZM90.71 44.6398C91.76 44.3798 92.76 43.9598 93.69 43.4198C93.92 43.2898 94.02 42.9598 93.87 42.7398C93.72 42.5098 93.43 42.4198 93.19 42.5598C92.94 42.7098 92.68 42.8498 92.42 42.9698C92.3 43.0298 92.17 43.0898 92.05 43.1398C92.02 43.1498 91.99 43.1698 91.96 43.1798L91.94 43.1898C91.89 43.2098 91.84 43.2298 91.78 43.2498C91.34 43.4198 90.9 43.5598 90.44 43.6798C90.3123 43.7171 90.2043 43.8028 90.1389 43.9186C90.0735 44.0344 90.056 44.1712 90.09 44.2998C90.18 44.5498 90.44 44.7098 90.71 44.6398V44.6398ZM110.08 43.3398C110.39 43.6698 110.76 43.9398 111.18 44.1198C111.6 44.2998 112.05 44.4398 112.48 44.5998C112.72 44.6998 113.04 44.4898 113.1 44.2498C113.17 43.9598 113.01 43.7398 112.75 43.6298C112.55 43.5498 112.34 43.4798 112.14 43.4098C112.05 43.3798 111.96 43.3498 111.87 43.3098C111.82 43.2898 111.78 43.2798 111.73 43.2598C111.69 43.2398 111.55 43.1698 111.69 43.2498C111.53 43.1598 111.36 43.0998 111.21 42.9898C111.18 42.9698 111.12 42.9098 111.09 42.8998C111.12 42.9098 111.17 42.9698 111.11 42.9098C111.09 42.8898 111.07 42.8798 111.05 42.8598C110.96 42.7898 110.88 42.6998 110.81 42.6198C110.713 42.5286 110.585 42.4785 110.452 42.48C110.319 42.4815 110.192 42.5345 110.098 42.6277C110.003 42.721 109.949 42.8474 109.945 42.9802C109.942 43.113 109.99 43.2419 110.08 43.3398V43.3398Z" fill="#1D1D1B"/>
<path d="M116.25 35.5099C115.88 37.2399 115.49 39.0299 115.68 40.8099C115.77 41.6499 116.01 42.4299 116.28 43.2199C116.59 44.1299 116.78 45.0299 116.8 45.9999C116.84 47.7699 116.63 49.4999 116.98 51.2499C117.33 53.0199 118.06 54.6799 118.77 56.3299C119.02 56.9199 119.89 56.4099 119.63 55.8299C118.95 54.2599 118.27 52.6699 117.94 50.9899C117.59 49.2499 117.85 47.5199 117.79 45.7699C117.76 44.9599 117.63 44.1599 117.38 43.3799C117.13 42.5999 116.82 41.8399 116.7 41.0199C116.44 39.2699 116.84 37.4899 117.21 35.7799C117.35 35.1499 116.39 34.8799 116.25 35.5099V35.5099Z" fill="black"/>
<path d="M120.83 62.0599C120.72 61.4499 120.58 60.8599 120.46 60.2499C120.35 59.6799 120.29 59.1099 120.23 58.5299C120.11 57.4199 119.96 56.2899 119.34 55.3299C118.99 54.7899 118.13 55.2899 118.48 55.8299C119.06 56.7399 119.16 57.8099 119.27 58.8599C119.39 60.0299 119.67 61.1599 119.87 62.3199C119.98 62.9499 120.94 62.6899 120.83 62.0599V62.0599Z" fill="black"/>
<path d="M119.8 62.81C118.89 62.97 117.95 63.1 117.02 63.05C116.58 63.02 116.13 62.95 115.73 62.77C115.31 62.58 114.97 62.25 114.56 62.05C113.14 61.33 111.32 61.52 109.85 61.97C110.06 62.09 110.26 62.2 110.47 62.32C110.39 61.86 110.67 61.42 110.78 60.99C110.86 60.66 110.89 60.34 110.84 60.01C110.76 59.45 110.48 58.94 110.16 58.49C109.59 57.66 108.27 56.53 108.58 55.41C108.75 54.79 107.79 54.52 107.62 55.14C107.25 56.47 108.22 57.55 108.96 58.53C109.32 59.01 109.77 59.55 109.86 60.16C109.92 60.55 109.76 60.9 109.64 61.26C109.49 61.71 109.43 62.12 109.51 62.59C109.56 62.85 109.89 63.01 110.13 62.94C110.96 62.68 111.82 62.55 112.68 62.6C113.09 62.62 113.51 62.69 113.89 62.84C114.32 63.01 114.65 63.32 115.05 63.55C116.55 64.39 118.46 64.07 120.07 63.79C120.69 63.66 120.43 62.7 119.8 62.81V62.81ZM85.88 56.51C85.31 57.64 84.62 58.82 84.44 60.1C84.27 61.38 84.69 62.64 85.12 63.82C85.34 64.42 86.3 64.16 86.08 63.55C85.7 62.51 85.26 61.36 85.42 60.23C85.58 59.09 86.23 58.02 86.74 57.01C87.03 56.44 86.17 55.93 85.88 56.51V56.51Z" fill="black"/>
<path d="M85.95 64.0399C86.46 63.4399 87.05 62.8599 87.81 62.6099C88.63 62.3499 89.47 62.5599 90.27 62.7899C91.04 62.9999 91.84 63.2499 92.65 63.2199C93.55 63.1999 94.37 62.8399 95.1 62.3399C95.3 62.1999 95.37 62.0099 95.33 61.7799L94.55 57.5299C94.43 56.8999 93.47 57.1699 93.59 57.7999L94.37 62.0499C94.45 61.8599 94.52 61.6699 94.6 61.4899C93.82 62.0299 93 62.3399 92.04 62.1999C91.18 62.0799 90.36 61.7399 89.5 61.5899C88.7 61.4499 87.92 61.4799 87.17 61.8099C86.41 62.1499 85.78 62.7199 85.25 63.3499C84.83 63.8199 85.53 64.5299 85.95 64.0399ZM88.86 37.3699C94.27 34.0199 101.08 33.2999 107.07 35.4399C107.68 35.6599 107.94 34.6899 107.34 34.4799C101.11 32.2599 93.98 33.0299 88.36 36.5099C87.81 36.8399 88.32 37.7099 88.86 37.3699V37.3699Z" fill="black"/>
<path d="M107.61 35.2399C108.26 34.7299 108.9 34.2199 109.55 33.7099C109.64 33.6399 109.7 33.4699 109.7 33.3599C109.701 33.2943 109.688 33.2293 109.662 33.169C109.636 33.1087 109.598 33.0545 109.55 33.0099C109.456 32.9181 109.331 32.8647 109.2 32.8599C109.06 32.8699 108.96 32.9199 108.85 33.0099C108.2 33.5199 107.56 34.0299 106.91 34.5399C106.82 34.6099 106.76 34.7799 106.76 34.8899C106.76 35.0099 106.81 35.1599 106.91 35.2399C107.01 35.3299 107.13 35.3899 107.26 35.3899C107.4 35.3799 107.5 35.3199 107.61 35.2399Z" fill="black"/>
<path d="M108.95 33.6702C109.09 34.3702 109.28 35.0602 109.54 35.7302C109.59 35.8502 109.65 35.9602 109.77 36.0302C109.88 36.0902 110.04 36.1202 110.16 36.0802C110.4 36.0002 110.61 35.7302 110.51 35.4602C110.25 34.7902 110.06 34.1002 109.92 33.4002C109.87 33.1402 109.55 32.9702 109.3 33.0502C109.03 33.1402 108.9 33.3902 108.95 33.6702V33.6702Z" fill="black"/>
<path d="M110.21 36.3301C111.27 35.9401 112.38 35.7001 113.51 35.6401C113.78 35.6301 114.05 35.6201 114.32 35.6301C114.51 35.6301 114.71 35.6301 114.86 35.7701C114.99 35.8901 115.07 36.0701 115.17 36.2001C115.31 36.3801 115.46 36.5401 115.67 36.6401C115.92 36.7501 116.21 36.7101 116.35 36.4601C116.47 36.2501 116.42 35.8801 116.17 35.7801C116 35.7101 115.94 35.5801 115.84 35.4301C115.7 35.2301 115.56 35.0301 115.35 34.8901C114.86 34.5601 114.17 34.6201 113.61 34.6401C112.36 34.6901 111.12 34.9401 109.94 35.3701C109.35 35.5801 109.61 36.5501 110.21 36.3301V36.3301ZM87.79 34.0901C87.15 34.8401 87.31 35.6901 87.61 36.5501C87.79 37.0701 87.92 37.5401 87.8 38.0901C87.7 38.5701 87.51 39.0201 87.34 39.4801C86.96 40.5101 86.85 41.4801 86.93 42.5801C87 43.6201 87.17 44.6801 86.88 45.7101C86.62 46.6401 86.1 47.4801 85.77 48.3901C85.42 49.3301 85.35 50.3301 85.41 51.3301C85.54 53.2801 86.18 55.3101 85.39 57.2001C85.14 57.7901 86.11 58.0501 86.35 57.4701C87.09 55.6901 86.65 53.7901 86.46 51.9501C86.36 50.9801 86.32 50.0001 86.59 49.0601C86.86 48.1301 87.38 47.2901 87.71 46.3801C88.42 44.4001 87.49 42.3301 88.09 40.3601C88.37 39.4601 88.84 38.6001 88.85 37.6401C88.85 37.2101 88.75 36.8001 88.6 36.4001C88.43 35.9301 88.1 35.2701 88.49 34.8201C88.91 34.3101 88.21 33.6001 87.79 34.0901Z" fill="black"/>
<path d="M113.122 75.8672C112.766 76.2236 112.756 76.8275 113.023 77.2531C113.29 77.6788 113.795 77.9263 114.29 77.9758C114.746 78.0253 115.211 77.9263 115.666 77.9164C117.072 77.8669 119.21 78.9262 120.438 79.6093C120.398 79.5796 119.537 79.1836 119.497 79.1539" fill="#F9AD73"/>
<path d="M113.122 75.8672C112.766 76.2236 112.756 76.8275 113.023 77.2531C113.29 77.6788 113.795 77.9263 114.29 77.9758C114.746 78.0253 115.211 77.9263 115.666 77.9164C117.072 77.8669 119.21 78.9262 120.438 79.6093C120.398 79.5796 119.537 79.1836 119.497 79.1539" stroke="#1D1D1B" stroke-miterlimit="10"/>
<path d="M121.281 76.3034C118.41 75.3135 116.202 75.3828 113.203 75.7688L112.876 76.3034" fill="#F9AD73"/>
<path d="M121.281 76.3034C118.41 75.3135 116.202 75.3828 113.203 75.7688L112.876 76.3034" stroke="#1D1D1B" stroke-miterlimit="10"/>
<path d="M122.784 82.4511C122.932 82.8273 122.893 83.2529 122.754 83.6291C122.615 84.0053 122.398 84.3518 122.18 84.6884C121.873 85.1537 121.566 85.6289 121.15 85.9952L119.032 88.0345C118.745 88.2622 118.735 88.7374 118.972 89.0245C119.2 89.3116 119.606 89.4205 119.972 89.3908C120.338 89.3512 120.685 89.1829 121.002 88.9948C122.804 87.9058 122.655 87.2128 124.308 85.9259L125.595 84.7577C126.457 84.6587 127.328 84.8864 128.189 84.8765C129.268 84.8567 130.337 84.4607 131.159 83.7677C131.387 83.5796 131.594 83.3619 131.852 83.2233C132.109 83.0847 132.446 83.0253 132.703 83.1738C133.05 83.3618 133.258 83.8766 133.644 83.8172C133.852 83.7875 133.99 83.5895 134.099 83.4014C134.584 82.5699 135 81.6591 135 80.6988C135 79.897 134.713 79.1248 134.436 78.3724C134.277 77.9566 134.129 77.5408 133.97 77.125L132.753 76.6399C130.436 75.7094 129.248 76.4519 126.744 76.3133C124.348 76.1846 121.982 75.6005 119.804 74.6105C118.903 74.2046 118.032 73.7195 117.101 73.4027C116.24 73.1058 115.339 72.9474 114.448 72.789C113.359 72.6009 112.27 72.4029 111.181 72.2148C111.181 72.2148 109.38 71.5416 109.389 72.4425C109.389 72.7494 109.3 73.0464 109.399 73.3334C109.627 73.9769 110.28 74.363 110.934 74.5808C111.3 74.6996 111.686 74.7887 112.072 74.8679C113.033 75.0758 114.201 75.3629 115.151 75.5708" fill="#F9AD73"/>
<path d="M122.784 82.4511C122.932 82.8273 122.893 83.2529 122.754 83.6291C122.615 84.0053 122.398 84.3518 122.18 84.6884C121.873 85.1537 121.566 85.6289 121.15 85.9952L119.032 88.0345C118.745 88.2622 118.735 88.7374 118.972 89.0245C119.2 89.3116 119.606 89.4205 119.972 89.3908C120.338 89.3512 120.685 89.1829 121.002 88.9948C122.804 87.9058 122.655 87.2128 124.308 85.9259L125.595 84.7577C126.457 84.6587 127.328 84.8864 128.189 84.8765C129.268 84.8567 130.337 84.4607 131.159 83.7677C131.387 83.5796 131.594 83.3619 131.852 83.2233C132.109 83.0847 132.446 83.0253 132.703 83.1738C133.05 83.3618 133.258 83.8766 133.644 83.8172C133.852 83.7875 133.99 83.5895 134.099 83.4014C134.584 82.5699 135 81.6591 135 80.6988C135 79.897 134.713 79.1248 134.436 78.3724C134.277 77.9566 134.129 77.5408 133.97 77.125L132.753 76.6399C130.436 75.7094 129.248 76.4519 126.744 76.3133C124.348 76.1846 121.982 75.6005 119.804 74.6105C118.903 74.2046 118.032 73.7195 117.101 73.4027C116.24 73.1058 115.339 72.9474 114.448 72.789C113.359 72.6009 112.27 72.4029 111.181 72.2148C111.181 72.2148 109.38 71.5416 109.389 72.4425C109.389 72.7494 109.3 73.0464 109.399 73.3334C109.627 73.9769 110.28 74.363 110.934 74.5808C111.3 74.6996 111.686 74.7887 112.072 74.8679C113.033 75.0758 114.201 75.3629 115.151 75.5708" stroke="#1D1D1B" stroke-miterlimit="10"/>
<path d="M124.092 81.5696C122.656 82.1834 115.014 85.1038 114.885 82.3913C114.885 82.3913 114.806 81.5894 115.558 81.3617C115.984 81.233 116.42 81.1142 116.855 81.0251C118.944 80.6093 120.875 79.2135 122.983 79.4709" fill="#F9AD73"/>
<path d="M124.092 81.5696C122.656 82.1834 115.014 85.1038 114.885 82.3913C114.885 82.3913 114.806 81.5894 115.558 81.3617C115.984 81.233 116.42 81.1142 116.855 81.0251C118.944 80.6093 120.875 79.2135 122.983 79.4709" stroke="#1D1D1B" stroke-miterlimit="10"/>
<path d="M74.5324 79.8281C77.1063 78.1947 79.2941 77.7393 82.3234 77.4126C82.3234 77.4126 83.2936 77.8383 82.858 78.8085C82.6501 79.2638 82.264 79.64 81.7889 79.8083C81.3533 79.9667 80.8781 79.9766 80.4227 80.0756C79.0268 80.3627 77.9082 81.3428 76.8687 82.2932C76.8984 82.2536 76.3044 82.8475 76.344 82.8079" fill="#F9AD73"/>
<path d="M74.5324 79.8281C77.1063 78.1947 79.2941 77.7393 82.3234 77.4126C82.3234 77.4126 83.2936 77.8383 82.858 78.8085C82.6501 79.2638 82.264 79.64 81.7889 79.8083C81.3533 79.9667 80.8781 79.9766 80.4227 80.0756C79.0268 80.3627 77.9082 81.3428 76.8687 82.2932C76.8984 82.2536 76.3044 82.8475 76.344 82.8079" stroke="#1D1D1B" stroke-miterlimit="10"/>
<path d="M62.0695 83.5809C64.1187 82.1257 66.7521 81.8386 69.1775 81.1159C71.494 80.4229 73.6719 79.3043 75.5727 77.8292C76.3548 77.2154 77.0972 76.5521 77.9387 76.0175C78.7109 75.5325 79.5524 75.1662 80.3938 74.7999C81.4135 74.3544 82.4431 73.9188 83.4628 73.4733C83.9874 73.2456 84.6309 73.0278 85.0962 73.3644C85.0962 73.3644 85.5615 73.8099 85.4823 74.1465C85.3239 74.7999 84.8685 75.3543 84.2745 75.7206C83.9379 75.9285 83.5815 76.0967 83.2252 76.265C82.3342 76.6907 81.4531 77.1065 80.5621 77.5322" fill="#F9AD73"/>
<path d="M62.0695 83.5809C64.1187 82.1257 66.7521 81.8386 69.1775 81.1159C71.494 80.4229 73.6719 79.3043 75.5727 77.8292C76.3548 77.2154 77.0972 76.5521 77.9387 76.0175C78.7109 75.5325 79.5524 75.1662 80.3938 74.7999C81.4135 74.3544 82.4431 73.9188 83.4628 73.4733C83.9874 73.2456 84.6309 73.0278 85.0962 73.3644C85.0962 73.3644 85.5615 73.8099 85.4823 74.1465C85.3239 74.7999 84.8685 75.3543 84.2745 75.7206C83.9379 75.9285 83.5815 76.0967 83.2252 76.265C82.3342 76.6907 81.4531 77.1065 80.5621 77.5322" stroke="#1D1D1B" stroke-miterlimit="10"/>
<path d="M82.2679 84.2446C82.7926 86.9076 74.5956 85.8682 73.0414 85.6009Z" fill="#F9AD73"/>
<path d="M82.2679 84.2446C82.7926 86.9076 74.5956 85.8682 73.0414 85.6009" stroke="#1D1D1B" stroke-miterlimit="10"/>
<path d="M82.2944 84.243C82.235 83.8074 81.7994 83.4906 81.3638 83.3916C80.9282 83.2926 80.4629 83.352 80.0174 83.3718C77.8692 83.4609 75.6517 82.56 73.6321 83.3025" fill="#F9AD73"/>
<path d="M82.2944 84.243C82.235 83.8074 81.7994 83.4906 81.3638 83.3916C80.9282 83.2926 80.4629 83.352 80.0174 83.3718C77.8692 83.4609 75.6517 82.56 73.6321 83.3025" stroke="#1D1D1B" stroke-miterlimit="10"/>
<path d="M74.5343 86.1544C74.4749 86.5503 74.6234 86.9562 74.8412 87.2928C75.0688 87.6294 75.3658 87.9066 75.6628 88.1838C76.0687 88.5699 76.4944 88.9461 76.9894 89.2134L79.5534 90.6983C79.89 90.8567 80.0088 91.3121 79.8504 91.6388C79.692 91.9754 79.3257 92.1734 78.9495 92.2229C78.5733 92.2724 78.1972 92.1932 77.8408 92.0744C75.8212 91.4309 74.7422 90.1241 72.8018 89.2629L72.3167 89.0352C71.4456 89.1441 70.6536 89.5698 69.8022 89.7579C68.7429 89.9954 67.5946 89.8568 66.6244 89.3817C66.3571 89.253 66.0997 89.0946 65.8126 89.0154C65.5255 88.9362 65.1889 88.9659 64.9613 89.1639C64.6643 89.4312 64.5851 89.9756 64.1891 90.0053C63.9713 90.0251 63.7931 89.8568 63.6446 89.7083C62.9714 89.0154 62.3477 88.2234 62.1101 87.2928C61.922 86.5107 62.0111 85.699 62.1101 84.907C62.1596 84.4714 62.219 84.0259 62.2685 83.5903" fill="#F9AD73"/>
<path d="M74.5343 86.1544C74.4749 86.5503 74.6234 86.9562 74.8412 87.2928C75.0688 87.6294 75.3658 87.9066 75.6628 88.1838C76.0687 88.5699 76.4944 88.9461 76.9894 89.2134L79.5534 90.6983C79.89 90.8567 80.0088 91.3121 79.8504 91.6388C79.692 91.9754 79.3257 92.1734 78.9495 92.2229C78.5733 92.2724 78.1972 92.1932 77.8408 92.0744C75.8212 91.4309 74.7422 90.1241 72.8018 89.2629L72.3167 89.0352C71.4456 89.1441 70.6536 89.5698 69.8022 89.7579C68.7429 89.9954 67.5946 89.8568 66.6244 89.3817C66.3571 89.253 66.0997 89.0946 65.8126 89.0154C65.5255 88.9362 65.1889 88.9659 64.9613 89.1639C64.6643 89.4312 64.5851 89.9756 64.1891 90.0053C63.9713 90.0251 63.7931 89.8568 63.6446 89.7083C62.9714 89.0154 62.3477 88.2234 62.1101 87.2928C61.922 86.5107 62.0111 85.699 62.1101 84.907C62.1596 84.4714 62.219 84.0259 62.2685 83.5903" stroke="#1D1D1B" stroke-miterlimit="10"/>
<path d="M64.602 82.5182L62.88 83.8097L73.3553 86.3926L75.0772 85.6751L81.965 84.2401L81.1041 83.8097L73.7858 82.9487L76.5122 82.5182L75.0772 80.6527L74.3597 79.2178L71.4898 80.6527L64.602 82.5182Z" fill="#F9AD73"/>
<defs>
<linearGradient id="paint0_linear_1230_3450" x1="84" y1="24.5" x2="120.5" y2="130.5" gradientUnits="userSpaceOnUse">
<stop offset="0.270833" stop-color="#FF81F2"/>
<stop offset="1" stop-color="#FF01B0"/>
</linearGradient>
</defs>
</svg>
