<svg width="208" height="268" viewBox="0 0 208 268" fill="none" xmlns="http://www.w3.org/2000/svg">
<path d="M134.31 229.86C133.68 228.83 131.99 228.25 130.89 229C130.5 229.27 130.1 229.54 129.71 229.8C129.66 229.83 129.5 229.93 129.33 230.03C128.63 229.89 127.95 229.9 127.22 230.28C127.03 230.38 126.88 230.5 126.73 230.62C126.165 230.583 125.602 230.711 125.11 230.99C124.97 231.07 124.85 231.16 124.73 231.25C124.04 231.61 123.52 232.27 123.47 233.23C123.447 233.631 123.463 234.033 123.52 234.43C123.66 235.49 124.2 236.43 125.36 236.73C126.34 236.99 127.71 236.59 128.17 235.65C128.34 235.61 128.51 235.56 128.67 235.49C129.04 235.34 129.32 235.13 129.55 234.89C129.97 234.94 130.4 234.92 130.92 234.71C131.82 234.34 132.63 233.65 133.41 233.11C134.51 232.38 135.04 231.05 134.31 229.86V229.86ZM157.37 244.81C157.24 244.66 157.11 244.5 156.99 244.35C156.29 243.5 154.82 243.41 154.06 244.24C153.83 244.2 153.6 244.16 153.37 244.13C152.94 244.14 152.63 244.19 152.23 244.16C151.81 244.13 151.45 244.15 151.12 244.21C151.01 244.15 150.91 244.11 150.87 244.09C150.56 243.97 150.24 243.93 149.92 243.95C148.72 242.58 146.1 243.08 146.21 245.49C146.31 247.79 147.56 250.01 149.85 249.59C150.1 249.55 150.35 249.41 150.58 249.21C150.71 249.24 150.85 249.26 150.97 249.26C151.36 249.26 151.7 249.17 152.01 249C152.51 249.07 153.01 249.04 153.52 248.92C154.17 249.01 154.79 249.03 155.37 248.87C157.09 249.32 158.92 246.69 157.37 244.81V244.81Z" fill="#FFCF04"/>
<path d="M171.97 14.4099C171.6 13.8699 171.2 13.3099 170.62 13.0099C170.04 12.7099 169.21 12.7899 168.87 13.3499C168.6 13.7899 168.72 14.3499 168.84 14.8499C169.04 15.6599 169.26 16.4599 169.48 17.2599M173.82 14.8299C173.61 15.6599 173.95 16.5199 174.02 17.3699C174.09 18.2199 174.28 19.6799 173.43 19.6999C173.43 19.6999 172.59 19.7299 172.37 18.7699C171.79 16.2699 171.48 14.9899 172.56 13.4699C172.76 13.1799 173.03 12.8999 173.38 12.8399C173.87 12.7599 174.31 13.1299 174.65 13.4899C177.19 16.1299 178.24 25.7399 180.81 29.0499M166.09 14.4799C165.45 13.2999 163.99 11.5299 163.16 10.4799C163 10.2799 162.82 10.0699 162.58 9.99994C162.15 9.87994 161.71 10.2399 161.59 10.6699C161.47 11.0999 161.58 11.5499 161.7 11.9699C162.69 15.3799 164.44 18.5699 166.78 21.2399" stroke="black" stroke-miterlimit="10" stroke-linecap="round" stroke-linejoin="round"/>
<path d="M172.24 18.9301C171.64 19.6601 170.66 18.8101 170.55 18.6901L170.05 18.1101C169.77 17.6901 169.65 17.3501 169.41 16.9801C169.5 17.5301 169.47 18.2701 169.46 18.8301C169.46 18.9301 169.46 19.0401 169.4 19.1301C169.33 19.2501 169.17 19.3101 169.03 19.3001C168.888 19.2829 168.753 19.2277 168.64 19.1401C168.29 18.9001 168.03 18.5601 167.78 18.2201L166.66 16.2701C166.086 14.9681 165.953 13.5147 166.28 12.1301C167.56 11.6901 168.31 12.5801 168.87 13.4201" stroke="black" stroke-miterlimit="10" stroke-linecap="round" stroke-linejoin="round"/>
<path d="M138.19 44.7399L128.62 42.4199C127.65 45.3299 126.03 50.5399 125.67 53.5899" fill="#874C2B"/>
<path d="M125.67 53.59C125.48 55.14 125.46 56.71 125.53 58.28C125.59 59.5 125.72 60.72 126.04 61.9C127.04 65.57 129.9 69.01 133.63 69.76C134.27 69.89 134.89 70.1 135.32 70.57C135.72 71 135.89 71.59 136.04 72.15C136.763 74.8213 137.347 77.5283 137.79 80.26L151.74 77.71L149.28 69.37C148.46 66.57 147.63 63.58 148.47 60.79C149.13 58.61 150.66 50.1 151.01 47.84L138.18 44.73" fill="#874C2B"/>
<path d="M141.69 54.3501C141.24 55.1201 141.79 56.2601 142.67 56.3901C143.55 56.5201 144.4 55.5701 144.19 54.7101C144.05 54.1501 143.55 53.7301 142.99 53.6001C142.43 53.4801 141.83 53.6401 141.36 53.9601M155.27 29.3601C154.79 28.8601 154.26 28.4101 153.67 28.0201C152.64 27.3401 151.28 26.8801 150.2 27.4801M125.56 53.0401C126.75 53.0701 128.09 51.9301 128.78 50.7601C129.69 49.2001 130.76 47.2201 132.56 47.3201C133.58 48.5301 133.46 51.1101 135.03 50.9801C135.93 50.9001 136.34 49.8401 136.6 48.9701C137.03 47.5301 137.62 46.1301 138.34 44.8201M138.51 62.8601C139.49 63.2301 140.46 63.6001 141.44 63.9701C141.61 64.0401 141.8 64.1001 141.98 64.0601C142.36 63.9701 142.47 63.4901 142.5 63.1101C142.65 61.4501 143.49 58.4301 142.76 56.9801C142.22 57.3401 138.03 62.6701 138.51 62.8601Z" stroke="black" stroke-miterlimit="10" stroke-linecap="round" stroke-linejoin="round"/>
<path d="M150.25 27.5698C148.9 24.8998 147.21 20.6598 144.51 19.3698C141.81 18.0698 137.73 19.4498 137.57 22.4398C135.44 22.0398 133.22 21.7198 131.12 22.2498C129.02 22.7798 127.04 24.3898 126.72 26.5298C126.61 27.2698 126.57 28.2098 125.87 28.4598C125.58 28.5598 125.26 28.4998 124.95 28.4498C122.23 28.0498 119.32 29.4898 118 31.8998C116.68 34.3098 117.02 37.5398 118.82 39.6198C116.55 41.2098 115.17 43.9998 115.29 46.7798C115.33 47.6698 115.55 48.6198 116.23 49.1898C117.24 50.0298 118.79 49.6798 119.9 48.9898C121.02 48.3098 121.98 47.3298 123.23 46.9298C123.38 48.1098 123.52 49.2798 123.67 50.4598C123.77 51.2198 123.89 52.0498 124.45 52.5698C124.78 52.8798 125.16 53.0198 125.55 53.0298M149.37 57.9798C152.36 58.1398 154.63 55.3498 155.99 52.6798C157.87 48.9898 159.09 44.8998 159.02 40.7598C158.95 36.6198 158.19 32.3298 155.32 29.3398M149.36 58.2198C147.42 54.2698 146.24 51.8798 142.3 46.1298L140.01 40.5798C139.58 41.1998 138.69 44.1698 138.33 44.8298M148.51 248.57C148.51 248.57 148.78 261.63 153.74 262.85C155.32 263.24 157.42 262.97 160.52 262.48C166.352 261.551 172.256 261.149 178.16 261.28C179.71 261.31 181.89 260.74 181.64 259.2C181.52 258.44 180.79 257.95 180.12 257.57C170.629 252.14 160.044 248.901 149.14 248.09L148.51 248.57V248.57Z" stroke="black" stroke-miterlimit="10" stroke-linecap="round" stroke-linejoin="round"/>
<path d="M180.16 257.65L179.99 257.62C178.27 255.45 175.53 254.67 172.95 253.8C169.44 252.61 165.94 251.42 162.43 250.24C159.63 249.29 155.98 247.25 153.24 249.27C152.43 249.03 151.63 248.76 150.83 248.48C149.52 248.01 148.36 249.43 148.67 250.64L148.87 251.44C148.9 251.57 148.95 251.69 149 251.79C148.9 252.04 148.82 252.32 148.8 252.61C148.65 254.22 149.72 255.98 150.29 257.44C151.34 260.1 152.57 262.78 155.91 262.54C156.52 262.5 157.1 262.36 157.67 262.19C157.89 262.3 158.15 262.36 158.45 262.37C161.08 262.4 163.75 261.57 166.41 260.94C166.69 261.18 167.06 261.33 167.51 261.31C171.16 261.18 174.81 261.05 178.45 260.93L179.21 261.05C181.44 261.39 182.39 258 180.16 257.65V257.65Z" fill="black"/>
<path d="M195.62 55.2499C195.72 52.5299 194.97 50.0299 194.14 47.5399C193.37 45.2299 192.18 43.1099 191.24 40.8799C189.86 37.5999 189.33 34.0399 188.13 30.6999C187.6 29.1999 186.96 27.8099 185.98 26.5899C185.67 26.1999 185.3 25.8499 184.75 26.1899C184.59 26.2499 184.67 26.4799 184.52 26.5399C183.81 26.8299 182.81 26.5799 182.53 27.7099C182.5 27.8199 182.27 27.9399 182.12 27.9599C181.09 28.0899 180.64 29.0099 180 29.6599C179.47 30.1999 178.6 30.1999 178.23 30.9599C178.2 31.0299 178.02 31.0899 177.9 30.9599C177.4 30.4299 176.92 30.8699 176.82 31.2299C176.49 32.3599 175.37 32.3299 174.68 32.9299C173.58 33.8899 172.01 34.0699 170.78 34.9499C169.87 35.5999 169.71 36.0599 170.4 37.0099C170.65 37.3599 170.98 37.6499 171.09 38.0999C171.63 40.3499 172.14 42.6199 172.93 44.7899C173.67 46.8199 174.26 48.9199 175.3 50.8399C176.57 53.1999 177.48 55.6299 177.3 58.4699C177.14 60.9299 177.33 63.4299 177.04 65.8899C176.89 67.2099 176.45 68.5499 175.71 69.5999C174.58 71.2099 173.3 72.7499 171.87 74.0599C169.87 75.8899 168.34 78.2699 165.9 79.5999C164.74 80.2299 163.83 81.3499 162.61 81.8499C161.33 82.3699 160 82.7399 158.7 83.2399C158.12 83.4599 157.39 83.9699 157.03 82.8599C157 82.7599 154.79 76.4699 154.04 77.1199C153.74 77.3799 153.52 77.3399 153.25 77.2599C152.52 77.0599 151.89 77.1799 151.33 77.7399C151.12 77.9499 150.89 78.1399 150.55 78.0599C147.65 77.3099 144.66 77.4099 141.72 77.0599C140.17 76.8699 138.7 78.7299 137.27 78.0999C137.02 77.7899 135.03 78.8699 134.55 79.3799C130.17 79.5299 125.42 79.8999 123.67 80.4899C119.05 82.0499 114.37 83.5399 110.21 86.1799C108.48 87.2799 106.9 88.6399 105.3 89.9399C101.4 93.0899 97.89 96.6699 94.37 100.23C92.83 101.79 91.54 103.57 90.18 105.29C90.04 105.47 89.88 105.63 89.71 105.79C86.84 108.6 85 112.05 83.45 115.69C82.58 117.74 81.65 119.76 80.77 121.8C80.21 123.12 79.07 124.1 78.24 125.28C77.71 126.04 78.23 126.84 77.76 127.63C77.55 127.98 77.54 128.64 77.74 128.86C78.24 129.42 78.77 130 79.62 129.99C80.28 129.98 80.44 131.12 81.27 130.67C81.28 130.8 81.3 130.92 81.31 131.05C81.33 131.21 81.34 131.51 81.37 131.51C82.22 131.55 82.58 132.5 83.2 132.64C84.12 132.85 84.72 133.38 85.4 133.88C86.02 134.13 86.23 134.79 86.71 135.18C87.45 135.43 88 135.87 88.18 136.68C89.21 136.03 89.93 136.89 90.46 137.4C91.19 138.09 91.59 137.78 91.99 137.25C93.36 135.45 94.91 133.79 96.09 131.84C97.72 129.15 98.63 126.15 99.93 123.32C101.04 120.9 102.44 118.73 104.18 116.69C106.68 113.74 109.27 110.89 112.07 108.24C112.49 107.84 112.92 107.44 113.35 107.05C113.24 107.57 113.11 108.08 112.9 108.58C112.05 110.61 111.29 112.68 110.73 114.83C110.32 116.41 114.02 118.07 113.36 119.6C111.87 123.04 110.6 124.58 109.6 128.21C108.89 130.8 111.13 131.7 110.45 134.29C110.14 135.45 107.78 140.41 107.73 141.58C107.72 141.88 107.76 144.11 107.69 145.26C107.63 146.17 108.36 147.31 108.71 148.26C109 148.69 109.65 149.42 110.29 149.69C111.64 150.07 113.12 152.22 114.35 151.83C116.56 151.13 115.74 151.31 117.96 151.26C121.56 151.17 129.68 151.92 133.28 151.99C134.16 152.01 135.04 151.85 135.93 151.95C138.13 152.2 140.35 152.19 142.56 151.99C144.36 151.83 146.1 151.17 147.93 151.28C148.51 151.32 149.09 151.29 149.68 151.15C151.24 150.79 152.83 150.29 154.41 150.31C157.32 150.34 160.08 149.45 162.92 149.07C164.46 148.86 165.96 148.29 167.49 147.96C169.12 147.61 170.81 147.66 172.4 146.99C173.17 146.66 173.61 146.22 173.5 145.4C173.28 143.69 172.51 142.13 172.1 140.46C171.92 139.73 171.89 139.56 172.69 139.53C174.62 139.47 177.9 133.1 177.83 131.99C177.82 131.82 177.81 131.64 177.75 131.49C177.05 129.83 179.04 128.33 178.46 126.61C178.13 125.63 177.72 124.68 177.21 123.78C175.65 120.98 174.59 117.94 173.36 114.98C172.39 112.64 171.55 108.12 170.68 105.74C170 103.87 169.03 104.25 168.52 102.32C168.34 101.64 168.41 101.3 169.13 101.2C169.89 101.1 170.58 100.76 171.27 100.43C173.9 99.1799 176.49 97.8199 178.63 95.7699C182.01 92.5299 184.95 88.8399 187.61 84.9299C189.64 81.9499 191.77 79.0699 193.11 75.5799C194.51 71.9499 195.47 68.2699 195.59 64.3699C195.67 61.3099 195.51 58.2799 195.62 55.2499V55.2499Z" fill="url(#paint0_linear_1230_3478)"/>
<path d="M157.94 250.41C157.97 242.1 157.99 233.8 158.02 225.49C158.04 218.03 158.07 210.55 159.05 203.15C159.98 196.18 161.75 189.36 163.2 182.48C165.42 171.95 166.9 161.27 167.63 150.54C167.63 150.54 168.51 139.01 165.98 135.47M137.03 168.42C138.18 176.17 142.1 185.51 143.25 193.26C143.91 197.72 144.57 202.19 144.66 206.68C144.79 213.72 143.51 220.73 143.35 227.76C143.19 234.79 144.26 242.12 148.65 248.07M137.87 81.6602C142.72 85.0102 149.51 85.2902 154.62 82.3502M80.8 130.08C81.14 129.32 81.46 128.55 81.79 127.78M77.04 152.76C74.74 148.6 74.76 143.8 76.45 139.36C76.94 138.05 77.6 136.82 78.23 135.57C79.14 133.76 80 131.93 80.81 130.07M77.04 152.76C77.83 154.12 78.61 155.47 79.4 156.83C79.46 156.93 79.54 157.05 79.66 157.05C79.72 157.05 79.78 157.02 79.83 156.98C80.42 156.58 80.61 155.77 80.5 155.07C80.39 154.37 80.05 153.72 79.77 153.07C78.7048 150.572 78.5249 147.785 79.26 145.17C79.99 142.58 81.34 140.58 83.55 139.04M89.48 131.74C89.38 130.93 89.37 130.12 89.43 129.31" stroke="black" stroke-miterlimit="10" stroke-linecap="round" stroke-linejoin="round"/>
<path d="M83.54 139.04C84.01 138.67 84.74 139.15 84.86 139.74C84.98 140.33 84.71 140.91 84.51 141.47C83.92 143.14 83.16 146.04 84.47 146.68C85.44 147.15 86.59 143.71 87.24 142C87.82 140.49 88.39 138.98 88.97 137.47C89.34 136.51 89.71 135.52 89.76 134.49C89.81 133.57 89.6 132.66 89.49 131.75M79.01 150.56C79.81 150.99 80.45 151.33 81.25 151.76C81.64 151.97 82.05 152.19 82.31 152.56C82.35 152.62 82.4 152.68 82.47 152.7C82.55 152.72 82.62 152.67 82.67 152.61C82.95 152.29 82.85 151.8 82.72 151.39C82.42 150.46 82.01 149.48 81.17 148.99C80.49 148.6 79.43 148.51 78.88 147.95M81.68 149.28C82.05 149.33 82.67 149.4 82.88 149.09C83.04 148.85 82.97 148.52 82.84 148.26C82.61 147.79 82.22 147.4 81.75 147.17C81.47 147.03 81.17 146.95 80.87 146.85C80.32 146.66 79.62 146.31 79.15 145.97" stroke="black" stroke-miterlimit="10" stroke-linecap="round" stroke-linejoin="round"/>
<path d="M81.08 146.92C81.43 146.9 82.04 146.7 82.08 146.36C82.11 146.14 81.95 145.95 81.8 145.8C81.23 145.21 80.34 144.6 79.64 144.16M120 148.36C116.13 151.8 112.43 154.6 107.63 156.52C102.69 158.5 97.55 161.63 93.25 164.5C88.95 167.37 87.04 172.17 87.33 177.34C87.49 180.19 88.74 182.85 89.97 185.43C92.17 190.06 98.2 194.7 100.91 199.04C108.38 210.98 117.19 220.41 124.1 232.68" stroke="black" stroke-miterlimit="10" stroke-linecap="round" stroke-linejoin="round"/>
<path d="M134.67 225.51C129.06 215.79 125.39 204.96 120.28 194.94C117.59 189.67 114.51 184.62 111.08 179.87M124.06 232.52C128.44 231.68 131.85 229.19 135.18 226.09" stroke="black" stroke-miterlimit="10" stroke-linecap="round" stroke-linejoin="round"/>
<path d="M124.7 232.69C125.17 234.11 125.46 235.1 125.93 236.52C126.07 236.93 126.2 237.37 126.06 237.78C125.92 238.17 125.56 238.42 125.22 238.65C120.52 241.77 115.81 244.89 111.11 248.01C110.41 248.48 109.6 249.23 109.92 250.01C118.85 251 128.09 248.96 135.78 244.3C136.72 243.73 137.69 243.05 138.03 242.01C138.33 241.1 138.08 240.12 137.81 239.2C136.717 235.541 135.238 232.008 133.4 228.66M126.02 236.14C129.18 234.76 131.84 233.15 134.89 231.54" stroke="black" stroke-miterlimit="10" stroke-linecap="round" stroke-linejoin="round"/>
<path d="M138.24 241.63C138.13 242.9 137.25 243.64 136.18 244.18C134.86 244.85 133.49 245.43 132.14 246.03C126.63 248.48 120.9 250.61 114.85 251.11C114.11 251.17 113.42 250.7 113.15 250.08C112.99 250.18 112.83 250.29 112.67 250.39C111.01 251.47 109.04 249.07 110.71 247.99C114.88 245.29 119.05 242.59 123.22 239.88C123.88 239.46 125.33 238.88 125.75 238.16C125.98 237.78 125.88 237.19 126.07 236.77C126.23 236.43 126.48 236.1 126.76 235.85C127.59 235.12 128.85 234.74 129.84 234.28C131.01 233.74 132.17 233.19 133.34 232.65C134.07 232.31 135.09 232.65 135.39 233.43C135.98 234.91 136.56 236.4 137.15 237.88C137.62 239.02 138.35 240.34 138.24 241.63V241.63Z" fill="black"/>
<path d="M106.94 180.36C112.51 179.21 118.14 178.02 123.48 176.43C128.82 174.84 133.91 172.8 137.1 170.53M166.45 21.58C165.33 21.12 164.17 20.77 162.98 20.53C162.04 20.34 160.87 20.31 160.35 21.11C160.3 21.19 160.25 21.28 160.27 21.38C160.29 21.49 160.38 21.56 160.46 21.63C161.16 22.18 161.99 22.54 162.79 22.93C165.61 24.3 168.2 26.16 170.4 28.4M146.18 243.96C150.07 244.95 153.78 244.32 157.63 243.2" stroke="black" stroke-miterlimit="10" stroke-linecap="round" stroke-linejoin="round"/>
<path d="M137.13 121.57L136.68 120.68L145.26 116.38C143.078 114.322 140.588 112.618 137.88 111.33C137.81 111.3 137.67 111.23 137.61 111.23C137.61 111.23 137.47 111.26 137.33 111.74C136.402 114.88 135.98 118.147 136.08 121.42L135.08 121.45C134.98 118.07 135.41 114.7 136.37 111.45C136.59 110.7 136.97 110.29 137.49 110.23C137.82 110.19 138.11 110.33 138.3 110.42C141.33 111.86 144.07 113.79 146.45 116.15L146.95 116.64L137.13 121.57V121.57ZM157.29 99.13L147.59 93.95L148.06 93.07L156.52 97.59C156.94 94.62 156.89 91.61 156.38 88.65C156.37 88.57 156.34 88.42 156.3 88.37C156.3 88.37 156.2 88.28 155.72 88.44C152.617 89.4965 149.704 91.0427 147.09 93.02L146.49 92.22C149.19 90.18 152.19 88.6 155.39 87.5C156.13 87.25 156.68 87.32 157.04 87.71C157.27 87.97 157.33 88.29 157.36 88.48C157.928 91.7745 157.942 95.1409 157.4 98.44L157.29 99.13V99.13ZM131.47 99.48L121.45 94.94L121.86 94.03L130.6 97.99C130.82 95 130.58 92 129.87 89.08C129.85 89.01 129.81 88.85 129.78 88.81C129.78 88.81 129.67 88.72 129.21 88.92C126.186 90.1799 123.381 91.9114 120.9 94.05L120.25 93.29C122.82 91.08 125.7 89.3 128.83 88C129.55 87.7 130.11 87.73 130.49 88.1C130.73 88.34 130.81 88.65 130.86 88.85C131.65 92.11 131.88 95.45 131.55 98.79L131.47 99.48V99.48ZM186.86 52.44L176.84 47.9L177.25 46.99L185.99 50.95C186.21 47.96 185.97 44.96 185.26 42.04C185.24 41.97 185.2 41.81 185.17 41.77C185.17 41.77 185.06 41.68 184.6 41.88C181.576 43.1399 178.771 44.8714 176.29 47.01L175.64 46.25C178.21 44.04 181.09 42.26 184.22 40.96C184.94 40.66 185.5 40.69 185.88 41.06C186.13 41.3 186.2 41.62 186.25 41.81C187.04 45.07 187.27 48.41 186.94 51.75L186.86 52.44V52.44ZM142.54 150.62L132.84 145.44L133.31 144.56L141.77 149.08C142.19 146.11 142.14 143.11 141.63 140.14C141.62 140.07 141.59 139.91 141.55 139.87C141.55 139.87 141.45 139.78 140.97 139.94C137.87 141 134.96 142.54 132.34 144.52L131.74 143.72C134.44 141.68 137.44 140.1 140.64 139C141.38 138.75 141.94 138.82 142.29 139.21C142.52 139.46 142.57 139.79 142.61 139.98C143.178 143.275 143.192 146.641 142.65 149.94L142.54 150.62V150.62ZM168.15 133.09L158.45 127.91L158.92 127.03L167.38 131.55C167.8 128.58 167.75 125.58 167.24 122.61C167.23 122.54 167.2 122.38 167.16 122.33C167.16 122.33 167.06 122.24 166.58 122.4C163.48 123.46 160.57 125 157.95 126.98L157.35 126.18C160.05 124.14 163.05 122.56 166.25 121.46C166.99 121.21 167.54 121.28 167.9 121.67C168.13 121.92 168.19 122.25 168.22 122.44C168.788 125.735 168.802 129.101 168.26 132.4L168.15 133.09ZM175.29 82.95C175.4 82.95 175.51 82.92 175.61 82.86C175.79 82.76 175.9 82.58 175.92 82.37C176.25 79.02 176.02 75.66 175.23 72.39C175.18 72.18 175.1 71.84 174.82 71.57C174.7 71.45 174.55 71.37 174.39 71.31C173.98 71.82 173.56 72.32 173.11 72.79C173.24 72.73 173.37 72.66 173.5 72.61C173.79 72.49 173.91 72.49 173.92 72.48C173.94 72.53 173.97 72.64 173.98 72.68C174.67 75.53 174.91 78.44 174.72 81.36L167.79 78.22C167.43 78.54 167.06 78.83 166.67 79.1L175.02 82.88C175.12 82.93 175.21 82.95 175.29 82.95V82.95ZM187.17 69.03C187.4 69.3 187.8 69.33 188.06 69.1C190.32 67.15 192.85 65.57 195.57 64.35C195.58 63.88 195.58 63.41 195.59 62.94C192.55 64.24 189.74 65.99 187.23 68.14C186.97 68.36 186.94 68.76 187.17 69.03V69.03Z" fill="white"/>
<path d="M188.99 68.8598C188.67 68.7198 188.29 68.8598 188.15 69.1798C188.01 69.4998 188.15 69.8698 188.47 70.0198L194.12 72.5798C194.25 72.1698 194.37 71.7598 194.48 71.3498L188.99 68.8598ZM116.32 127.67C116.42 127.67 116.51 127.65 116.6 127.6C116.78 127.51 116.91 127.34 116.95 127.13C117.5 123.81 117.49 120.44 116.91 117.12C116.87 116.91 116.81 116.56 116.56 116.28C116.17 115.85 115.57 115.76 114.77 116.04C113.99 116.31 113.23 116.6 112.47 116.93C112.79 117.26 113.13 117.59 113.41 117.92C113.99 117.68 114.58 117.45 115.18 117.25C115.47 117.15 115.6 117.16 115.61 117.14C115.63 117.19 115.65 117.3 115.66 117.35C116.16 120.24 116.22 123.16 115.83 126.06L111.33 123.66C111.07 124 110.8 124.34 110.54 124.67L116.03 127.6C116.11 127.64 116.22 127.67 116.32 127.67V127.67ZM103.74 94.2498C103.76 94.2998 103.79 94.4098 103.8 94.4498C104.44 97.1198 104.85 98.1798 105.08 98.5398C104.93 99.0698 104.73 100.35 104.54 103.13L95.97 99.2498C95.65 99.1098 95.28 99.2498 95.13 99.5698C94.99 99.8898 95.13 100.26 95.45 100.41L104.83 104.66C104.91 104.7 105 104.72 105.09 104.72C105.2 104.72 105.31 104.69 105.41 104.63C105.59 104.53 105.7 104.35 105.72 104.14C106.05 100.79 105.82 97.4298 105.03 94.1598C104.98 93.9498 104.9 93.6098 104.63 93.3498C104.21 92.9398 103.61 92.8998 102.83 93.2198C101.93 93.5898 101.05 94.0098 100.2 94.4698C98.54 96.0398 96.93 97.6598 95.32 99.2798C97.73 97.2498 100.41 95.5998 103.32 94.3898C103.61 94.2598 103.73 94.2598 103.74 94.2498V94.2498ZM88.31 127.6C88.42 127.6 88.53 127.57 88.63 127.51C88.81 127.41 88.92 127.23 88.94 127.02C89.27 123.67 89.04 120.31 88.25 117.04C88.2 116.83 88.12 116.49 87.85 116.23C87.43 115.82 86.83 115.78 86.05 116.1C84.83 116.61 83.65 117.19 82.51 117.84C82.21 118.52 81.91 119.21 81.61 119.89C83.17 118.88 84.81 117.99 86.53 117.27C86.82 117.15 86.94 117.15 86.95 117.14C86.97 117.19 87 117.3 87.01 117.34C87.7 120.19 87.94 123.1 87.75 126.02L80.31 122.65C80.07 123.01 79.81 123.35 79.53 123.69L88.05 127.55C88.13 127.58 88.22 127.6 88.31 127.6V127.6Z" fill="white"/>
<path d="M189.8 111.69C189.48 113.67 189.16 115.65 188.84 117.62M189.1 117.88C189.527 118.232 190.025 118.488 190.56 118.632C191.095 118.775 191.654 118.802 192.2 118.71M190.6 111.87C191.3 111.31 192.42 111.8 192.83 112.59C193.24 113.38 193.15 114.33 193.04 115.22L192.68 118.31M180.16 215.69C181.25 216.97 182.1 218.47 182.64 220.06C182.73 219.99 182.78 219.87 182.75 219.76M195.57 154.41C195.57 154.41 194.93 155.41 194.21 156.01L193.56 156.75C190.8 155.86 188.59 153.46 187.91 150.65C187.91 150.65 188.85 149.44 189.55 149.19C189.54 149.19 194.41 153.99 195.57 154.41V154.41Z" stroke="#080908" stroke-miterlimit="10" stroke-linejoin="round"/>
<path d="M180.32 215.04C180.59 214.56 181.08 214.21 181.63 214.13C182.78 215.08 183.53 216.4 184.23 217.72C184.58 218.37 184.89 219.24 184.39 219.78C183.91 220.3 183.02 220.13 182.44 220.53M45.88 151.54C46.85 149.85 48.04 148.3 49.41 146.91M46.2 152.06C46.87 152.11 47.5 152.5 47.84 153.08C47.99 153.33 48.22 153.67 48.48 153.54C48.54 153.51 48.59 153.46 48.63 153.4C49.46 152.42 50.29 151.43 51.12 150.45M49.25 146.67C49.79 147.91 50.52 149.07 51.41 150.08M46.13 93.9398C45.88 96.6598 46.1 99.4198 46.77 102.07M46.23 93.9098C46.71 93.6498 47.24 93.4598 47.77 93.3598C48.42 93.2298 49.2 93.2698 49.62 93.7898C49.94 94.1898 49.95 94.7398 49.97 95.2498C50.04 97.3698 50.44 99.4798 51.16 101.47M47.3 102.26C48.62 102.81 50.29 102.37 51.17 101.25M10.08 42.2298C11.03 42.5298 11.92 43.0098 12.69 43.6298M82.97 67.3198C84.22 66.3598 85.49 65.3998 86.94 64.7898C88.39 64.1798 90.07 63.9698 91.54 64.5498L90.57 68.5598C88.48 67.8598 86.04 68.3298 84.37 69.7698L82.97 67.3198V67.3198ZM8.90002 111.79C9.66002 111.4 10.04 110.2 10.89 110.32C11.33 110.38 11.61 110.79 11.85 111.16L13.92 114.46C14.19 114.88 14.46 115.34 14.44 115.85C14.41 116.35 13.92 116.85 13.45 116.69L8.90002 111.79V111.79ZM50.92 64.9198C49.8294 61.772 49.4403 58.4238 49.78 55.1098C48.26 54.9598 46.72 55.0198 45.21 55.2998L45.4 56.0998C45.25 58.5698 45.65 61.0698 46.55 63.3798L50.92 64.9198V64.9198ZM89.46 26.3198C88.73 28.6698 88.68 31.2298 89.32 33.6198L85.98 34.8298C85.04 32.5898 84.6 30.1298 84.7 27.6998L89.46 26.3198Z" stroke="#080908" stroke-miterlimit="10" stroke-linejoin="round"/>
<path d="M9.46 41.91C9.93 41.25 10.56 40.7 11.28 40.32C11.45 40.23 11.63 40.15 11.82 40.16C12.04 40.18 12.23 40.32 12.4 40.46C12.92 40.88 13.47 41.34 13.65 41.98C13.83 42.62 13.4 43.46 12.73 43.43C12.95 43.27 13.17 43.11 13.38 42.94M7.28 155.71C7.56 157.37 8.89 158.8 10.53 159.21M7.25 155.24L9 154.7C9.15 154.65 9.32 154.61 9.47 154.66C9.62 154.71 9.72 154.84 9.81 154.97C10.53 155.96 11.25 156.95 11.97 157.95M10.84 159.63C11.1 158.79 11.58 158.01 12.21 157.4M69.57 181.35C69.92 180.67 70.26 179.99 70.61 179.32M70.66 179.76C71.33 179.78 72 179.96 72.59 180.29C72.56 180.92 72.53 181.58 72.17 182.1C71.81 182.62 71.01 182.87 70.54 182.45C70.37 182.3 70.27 182.08 70.09 181.96C69.91 181.84 69.58 181.88 69.55 182.1M9.43 217.21C9.79 216.42 10.65 215.88 11.52 215.92M9.46 217.04C9.16 218.07 9.36 219.23 9.99 220.1M12.2 215.99C11.96 217.04 12.32 218.21 13.11 218.95M10.33 221.04C11.47 220.82 12.51 220.14 13.18 219.19M35.97 241.35C36.58 243.29 37.65 245.08 39.07 246.54M35.63 240.68C36.8 240.27 38.01 239.98 39.24 239.8C39.38 239.78 39.53 239.76 39.66 239.83C39.8 239.91 39.86 240.06 39.92 240.21C40.65 242.09 41.55 243.91 42.6 245.63M40.03 247.16C41.13 246.8 42.22 246.44 43.32 246.08M88.3 255.77C87.25 255.61 86.49 254.4 86.8 253.38L87.51 252.52L89.42 254.95C88.96 255.39 88.56 255.9 88.24 256.45M43.56 198.63C42.05 201.38 38.91 203.15 35.78 203.01L35.07 203.03C35.36 204.49 35.78 205.92 36.35 207.29L37.05 207.64C38.95 207.52 40.88 207.4 42.66 206.74C44.44 206.08 46.09 204.8 46.73 203.01L43.56 198.63ZM77.74 225.51L77.11 228.65C77.03 228.52 79.67 229.95 81.1 229.25L81.83 226.42C80.62 225.81 80.61 225.47 79.26 225.51H77.74V225.51Z" stroke="#080908" stroke-miterlimit="10" stroke-linejoin="round"/>
<defs>
<linearGradient id="paint0_linear_1230_3478" x1="119" y1="48" x2="168" y2="181.5" gradientUnits="userSpaceOnUse">
<stop offset="0.197917" stop-color="#6E7CF6"/>
<stop offset="1" stop-color="#1B2FDB"/>
</linearGradient>
</defs>
</svg>
