<svg width="198" height="190" viewBox="0 0 198 190" fill="none" xmlns="http://www.w3.org/2000/svg">
<path d="M21.337 108.581C21.617 108.551 21.967 108.511 22.227 108.491C22.457 107.861 22.607 107.271 22.887 106.751C23.537 105.541 24.697 105.191 26.087 105.551C27.057 105.811 28.077 105.871 29.077 106.031C29.127 105.901 29.187 105.781 29.237 105.651C27.807 104.301 26.327 103.001 24.977 101.581C23.297 99.811 21.727 97.951 20.147 96.091C19.947 95.851 19.967 95.341 20.007 94.981C20.067 94.471 20.237 93.971 20.357 93.461C19.867 93.421 19.377 93.391 19.057 93.361C18.837 92.661 18.497 92.001 18.437 91.311C18.337 90.261 17.197 89.431 17.867 88.211C17.977 88.001 17.627 87.481 17.397 87.161C16.117 85.401 15.907 83.481 16.277 81.371C16.427 80.491 16.147 79.531 16.067 78.611C16.047 78.351 16.017 78.081 16.027 77.821C16.107 75.211 16.317 72.601 16.217 70.001C16.167 68.791 15.477 67.611 15.137 66.401C14.737 65.011 14.387 63.611 14.047 62.201C13.947 61.791 13.977 61.361 13.937 60.831C14.027 60.821 14.317 60.771 14.707 60.701C12.907 59.151 12.587 57.081 12.357 55.061C12.117 52.901 12.187 50.701 12.047 48.531C11.797 44.561 12.537 40.831 14.467 37.341C15.147 36.111 15.737 34.821 16.527 33.661C17.067 32.871 17.827 32.191 18.597 31.601C21.247 29.541 24.197 28.151 27.357 26.921C29.567 26.061 32.037 26.281 33.997 24.991C36.257 23.501 38.887 24.021 41.257 23.271C43.157 22.671 45.017 21.931 46.907 21.281C50.797 19.941 54.697 18.621 58.597 17.311C60.037 16.831 61.517 16.461 62.957 15.971C64.437 15.471 65.907 14.911 67.357 14.331C69.117 13.621 70.337 14.071 71.557 15.511C72.677 16.831 72.767 18.411 73.137 19.941C73.217 19.941 73.347 19.961 73.367 19.921C73.997 18.681 73.957 18.571 75.697 17.901C76.847 17.461 78.0969 16.791 79.3969 17.631C80.7469 18.501 82.0769 19.401 83.4569 20.211C86.9269 22.241 90.4169 24.231 93.8969 26.241C96.8469 27.951 99.8769 29.551 102.707 31.441C104.097 32.371 105.227 33.651 106.867 34.291C107.497 34.531 107.877 35.371 108.487 35.751C110.597 37.071 112.707 38.401 114.907 39.551C118.127 41.231 121.437 42.751 124.697 44.361C125.137 44.581 125.517 44.901 125.887 45.151C126.687 45.201 127.507 45.251 128.437 45.311C127.787 46.981 128.977 48.011 129.427 49.261C129.897 50.581 130.217 51.951 130.557 53.311C130.607 53.521 130.467 53.881 130.287 54.011C128.767 55.221 127.247 56.421 125.687 57.571C124.557 58.401 123.327 59.091 122.207 59.931C120.987 60.841 119.977 61.941 118.527 62.641C116.847 63.451 115.487 64.881 113.897 65.901C111.207 67.631 109.207 70.131 106.727 72.091C104.407 73.931 102.497 76.311 100.097 78.021C98.5569 79.111 97.2569 80.321 95.9569 81.651C94.8769 82.751 95.167 84.121 95.057 85.281C94.847 87.531 95.1869 89.841 95.3169 92.381C97.0469 92.161 99.267 92.231 101.197 91.521C103.117 90.821 104.727 89.291 106.517 88.191C107.277 87.721 108.147 87.191 108.987 87.151C110.047 87.101 110.537 86.551 111.077 85.841C112.207 84.341 113.647 83.401 115.607 83.451C115.887 83.461 116.177 83.311 116.457 83.201C117.067 82.971 117.557 82.731 118.257 83.271C118.667 83.591 119.537 83.421 120.177 83.321C121.407 83.121 122.607 82.661 123.837 82.581C125.187 82.491 126.017 83.401 126.077 84.761C126.127 85.971 126.047 87.191 126.127 88.401C126.187 89.211 126.437 90.001 126.607 90.801C126.807 91.751 127.017 92.701 127.317 94.061C127.807 92.961 128.137 92.161 128.517 91.381C128.667 91.071 128.967 90.581 129.157 90.601C130.397 90.691 131.767 90.621 132.827 91.131C134.837 92.111 136.687 93.421 138.567 94.661C140.127 95.691 141.637 96.801 143.147 97.901C145.257 99.441 147.377 100.981 149.457 102.571C151.207 103.911 152.867 105.361 154.637 106.671C156.177 107.811 157.847 108.781 159.397 109.901C161.207 111.211 162.927 112.651 164.747 113.941C165.607 114.551 166.647 114.881 167.547 115.451C169.397 116.621 169.607 118.161 168.167 119.981C169.047 120.651 169.927 121.321 170.807 121.981C171.497 121.611 172.147 121.151 172.877 120.901C174.247 120.421 175.487 120.301 176.627 121.681C177.587 122.841 178.917 123.701 180.077 124.691C181.187 125.631 182.067 126.671 182.347 128.201C182.447 128.721 183.127 129.191 183.627 129.571C184.187 130.001 184.857 130.261 185.427 130.671C185.687 130.851 186.037 131.331 185.957 131.481C185.377 132.681 186.407 134.171 185.227 135.261C184.977 135.491 184.887 135.961 184.827 136.331C184.627 137.491 183.657 138.091 182.457 137.941C181.707 137.851 180.907 138.001 180.137 138.131C176.537 138.751 172.947 139.411 169.347 140.021C168.977 140.081 168.557 139.981 168.197 139.871C166.197 139.251 165.297 139.771 164.687 141.861C164.587 142.211 164.277 142.531 163.997 142.791C161.187 145.341 157.927 147.251 154.677 149.161C154.257 149.411 153.607 149.381 153.087 149.311C152.017 149.161 151.157 149.411 150.487 150.281C150.327 150.481 150.087 150.871 150.007 150.841C148.547 150.321 146.867 151.231 145.497 150.111C144.907 149.631 144.227 149.261 143.897 149.041C142.227 148.531 140.837 148.191 139.517 147.671C138.597 147.311 137.777 146.721 136.897 146.251C136.707 146.151 136.487 146.121 136.277 146.051C135.077 145.641 133.767 145.401 132.697 144.771C130.757 143.621 128.927 142.271 127.097 140.941C125.517 139.781 124.017 138.501 122.457 137.311C122.107 137.041 121.657 136.891 121.157 136.641C121.187 136.521 121.247 136.231 121.327 135.901C118.947 136.201 118.287 135.231 118.307 132.921C118.307 132.591 118.317 132.221 118.177 131.941C117.727 131.061 117.897 128.641 118.537 127.941C118.677 127.791 118.917 127.741 119.117 127.661C120.007 127.291 120.897 126.891 121.797 126.551C122.587 126.251 123.387 126.001 124.197 125.771C124.737 125.621 125.317 125.581 125.857 125.421C126.347 125.271 126.807 125.011 127.527 124.671C127.187 121.531 126.837 118.261 126.477 114.901C124.877 114.961 124.837 113.761 124.717 112.571C124.427 109.561 124.087 106.551 123.777 103.631C121.817 103.541 120.467 104.541 118.967 104.981C117.117 105.521 115.387 106.421 113.367 106.671C111.857 106.861 109.947 106.821 108.647 108.161C108.557 108.261 108.317 108.231 108.137 108.231C105.097 108.141 102.127 108.561 99.1769 109.271C97.4969 109.671 95.7469 109.741 94.0269 110.001C93.6369 110.061 93.2669 110.291 92.8969 110.461C92.7069 110.551 92.5369 110.751 92.3469 110.791C90.4469 111.101 88.5469 111.391 86.6469 111.681C84.3669 112.031 82.097 112.421 79.807 112.731C77.947 112.981 76.067 113.351 74.217 113.251C72.737 113.171 71.607 113.731 70.477 114.351C68.427 115.491 66.447 116.761 64.497 118.061C64.087 118.331 63.767 118.941 63.667 119.451C63.207 121.831 62.907 124.231 62.417 126.601C62.197 127.651 61.657 128.631 61.237 129.711C61.537 129.731 61.997 129.771 62.457 129.811C62.407 129.861 62.357 129.921 62.297 129.971C63.257 130.701 64.217 131.421 65.167 132.151C66.017 132.801 66.777 133.511 66.807 134.781C67.397 134.461 67.937 134.151 68.497 133.881C69.597 133.341 70.377 133.681 70.907 134.771C71.067 135.111 71.457 135.341 71.627 135.671C71.767 135.941 71.877 136.521 71.777 136.571C70.927 137.041 71.267 137.951 71.007 138.621C70.927 138.841 71.397 139.281 71.447 139.351C71.337 140.261 71.197 140.911 71.197 141.561C71.207 142.981 70.907 143.331 69.557 143.281C69.167 143.271 68.777 143.281 68.277 143.281C68.797 144.601 66.677 144.511 67.057 145.781C66.067 146.191 65.107 146.701 64.087 146.991C63.077 147.271 61.777 147.021 60.997 147.561C59.767 148.411 59.077 146.991 58.017 147.251C57.837 146.601 57.637 145.921 57.387 145.041C56.057 146.481 54.387 147.191 52.527 147.421C52.437 147.381 52.157 147.301 51.937 147.131C51.537 146.831 51.077 146.541 50.817 146.131C49.207 143.581 47.587 141.041 46.087 138.431C44.817 136.221 43.787 133.861 42.477 131.671C41.237 129.611 39.757 127.681 38.387 125.701C37.817 124.881 37.337 123.941 36.607 123.281C34.9712 121.797 33.2624 120.395 31.487 119.081C30.247 118.171 28.847 117.471 27.527 116.681C25.827 115.661 23.907 115.541 22.017 115.411C20.997 115.341 20.387 115.091 20.537 113.941C20.707 112.631 20.877 111.321 21.057 110.021C21.127 109.601 21.227 109.151 21.337 108.581V108.581ZM34.737 40.001C33.457 40.421 32.267 40.771 31.107 41.231C30.757 41.371 30.517 41.821 30.277 42.161C30.217 42.251 30.317 42.531 30.427 42.631C30.527 42.731 30.767 42.791 30.897 42.741C31.677 42.481 32.457 42.191 33.227 41.881C34.117 41.541 35.007 41.181 34.737 40.001V40.001ZM28.727 75.911C29.537 75.481 30.317 75.071 31.177 74.621C30.417 73.911 29.657 73.201 28.907 72.491C28.787 72.521 28.657 72.561 28.537 72.591C28.597 73.721 28.667 74.841 28.727 75.911V75.911ZM59.537 71.891C59.707 71.691 59.887 71.491 60.057 71.281C59.567 70.801 59.137 70.211 58.567 69.871C58.307 69.721 57.757 70.081 57.337 70.211V70.621C58.077 71.051 58.807 71.471 59.537 71.891V71.891ZM91.057 56.601C92.097 57.511 92.8169 58.131 93.5269 58.751C93.6769 58.611 93.827 58.481 93.987 58.341C93.517 57.731 93.1069 57.041 92.5369 56.541C92.3169 56.341 91.737 56.561 91.057 56.601V56.601Z" fill="url(#paint0_linear_1230_3505)"/>
<path d="M94.4199 82.79C106.36 73.8753 118.534 65.2789 130.93 57.01M95.1499 86.69C108.413 79.574 121.31 71.7941 133.79 63.38M94.5999 90.42C108.67 83.37 122.35 75.52 135.52 66.91M97.2899 91.8C112.056 85.9855 126.269 78.8569 139.76 70.5M61.9699 118.26C81.5999 115.58 101.7 114.5 120.38 107.89M60.8199 123.01C82.9999 120.07 105.07 116.28 126.97 111.65M61.4199 127.86C83.0099 125.27 104.53 122.1 125.94 118.35M65.4999 132.47C84.2999 130.87 102.98 127.92 121.36 123.66M21.5699 117.03C25.5599 120.04 29.5999 123.08 32.8299 126.89C39.5599 134.83 42.5199 145.74 50.3999 152.56M52.4299 153.83C60.0399 151.26 67.2899 147.78 74.5299 144.31C83.7999 139.86 93.0599 135.41 102.33 130.96M18.5999 114.95C18.2099 114.85 17.9399 115.34 17.8399 115.74C15.8199 123.54 15.8699 131.86 17.9599 139.64M20.4299 140.6C29.4399 152.3 38.7099 163.79 48.2399 175.07M50.4999 176.39C73.0716 162.77 96.227 150.141 119.9 138.54M18.5199 119.61C25.4799 123.3 27.8199 131.95 32.4499 138.33C33.9399 140.38 35.6899 142.22 37.4299 144.05C42.0499 148.91 46.6799 153.76 51.2999 158.62M52.8799 159.92C52.6999 159.83 52.5199 159.74 52.3399 159.64M52.6799 159.75C73.9299 150.58 94.7799 140.49 115.17 129.53M20.1599 129.61C19.7899 129.13 19.4199 128.65 19.0599 128.17C22.1299 133.1 25.2099 138.02 28.2799 142.95C29.2599 144.51 30.2499 146.1 31.5899 147.36C32.7799 148.48 34.1999 149.31 35.4899 150.32C39.9199 153.8 42.3799 159.13 44.9199 164.15C45.9799 166.25 47.1199 168.37 48.8499 169.96M49.2199 168.3C65.7599 158.46 83.3499 150.52 100.89 142.59C107.08 139.79 113.27 137 119.46 134.2M17.8899 40.98C41.296 56.0596 66.1006 68.8487 91.9599 79.17M22.6599 62.77C44.7099 72.81 66.7599 82.86 88.8099 92.9M24.0999 74.21C37.7878 87.7528 51.067 101.702 63.9199 116.04M25.0299 96.68C37.0799 105.97 44.4899 120.13 55.9999 130.09M116.42 88.37C117 90.71 118.57 92.65 119.91 94.65C121.93 97.64 123.53 100.91 124.65 104.34M184.6 133.86C185.86 137.64 186.28 141.71 185.83 145.67C185.47 148.84 184.55 151.92 183.64 154.97M179.83 139.4C168.194 143.937 156.72 148.881 145.43 154.22M123.26 142.18C124.72 143.36 126.2 144.51 127.74 145.57C132.565 148.859 137.976 151.191 143.68 152.44C144.19 152.55 144.75 152.68 145.08 153.09C145.41 153.5 145.29 154.27 144.77 154.35" stroke="#1D1D1B" stroke-width="1.5" stroke-miterlimit="10"/>
<path d="M121.77 145.14C126.31 148.95 131.04 152.66 136.45 155.08C141.86 157.5 148.09 158.55 153.78 156.86C156.96 155.91 159.83 154.17 162.77 152.62C168.83 149.43 175.29 147.07 181.72 144.72" stroke="#1D1D1B" stroke-width="1.5" stroke-miterlimit="10"/>
<path d="M115.71 147.4C120.23 149.81 124.12 153.26 128.5 155.92C134.55 159.6 141.4 161.72 148.16 163.8C149.35 164.17 150.57 164.54 151.81 164.41C152.76 164.31 153.65 163.92 154.52 163.54C163.69 159.51 172.81 155.4 181.9 151.2" stroke="#1D1D1B" stroke-width="1.5" stroke-miterlimit="10"/>
<path d="M181.03 156.53C171.69 160.45 162.34 164.36 153 168.28C151.75 168.8 150.46 169.34 149.11 169.37C147.89 169.4 146.71 169.01 145.57 168.6C138.78 166.17 132.44 162.62 126.14 159.1C124.48 158.17 122.82 157.24 121.31 156.08C117.22 152.95 114.22 148.15 109.33 146.52M50.53 38.9999L58.2 37.0799C58.98 36.8799 59.78 36.6799 60.5 36.3199C61.35 35.8899 62.06 35.2399 62.76 34.6099C64.43 33.0899 66.11 31.5799 67.78 30.0599C68.21 29.6699 68.65 29.2699 69.19 29.0499C69.85 28.7799 70.59 28.7899 71.28 28.5899C72.16 28.3299 72.93 27.7099 73.36 26.8999M61.3 44.8499C63.26 43.1899 65.24 41.5599 67.27 39.9799C67.97 39.4299 68.78 38.8499 69.67 38.9399C70.64 39.0399 71.42 39.9099 72.39 39.9599C72.9 39.9899 73.4 39.7799 73.84 39.5199C75.42 38.5899 76.5 37.0399 77.74 35.6999C78.98 34.3599 80.61 33.1299 82.44 33.2299M144.79 134.5C146.4 133.4 148.02 132.31 149.64 131.23C150.13 130.9 150.65 130.57 151.23 130.5C152.32 130.36 153.32 131.14 154.42 131.23C155.75 131.33 156.94 130.4 157.76 129.34C158.58 128.29 159.18 127.05 160.15 126.14C160.57 125.74 161.34 125.45 161.66 125.93M143.52 125.46C145.17 123.96 146.81 122.45 148.46 120.95C148.7 120.73 148.96 120.5 149.28 120.41C149.73 120.29 150.19 120.47 150.64 120.59C152.38 121.07 154.36 120.64 155.73 119.46M69.33 98.8199C72.03 99.3499 74.94 98.7299 77.18 97.1399C77.61 96.8399 78.07 96.4799 78.59 96.5299C79.11 96.5799 79.5 97.0199 79.89 97.3699C81.63 98.9499 84.49 99.1299 86.42 97.7899" stroke="#1D1D1B" stroke-width="1.5" stroke-miterlimit="10"/>
<defs>
<linearGradient id="paint0_linear_1230_3505" x1="50.5" y1="-9.5" x2="125" y2="151" gradientUnits="userSpaceOnUse">
<stop offset="0.197917" stop-color="#FF81F2"/>
<stop offset="1" stop-color="#FF01B0"/>
</linearGradient>
</defs>
</svg>
