<svg width="217" height="220" viewBox="0 0 217 220" fill="none" xmlns="http://www.w3.org/2000/svg">
<path d="M134.03 157.63C135.67 161.6 132.4 165.89 128.9 168.37C117.51 176.45 102.5 176.51 89 180.07C75.5 183.63 61.2 194.5 63.31 208.31" stroke="black" stroke-width="1.5" stroke-miterlimit="10"/>
<path d="M144.43 126.11C144.42 126.26 144.41 126.41 144.41 126.57M56.6 140.82C55.32 141.72 53.91 142.83 53.84 144.39C53.8 145.19 54.14 145.96 54.48 146.7L58.02 154.5C58.57 155.72 59.17 156.99 60.23 157.79C61.3 158.59 63 158.72 63.87 157.71M157.38 143.73C158.84 144.42 160.3 145.11 161.76 145.81C160.4 150.39 157.94 154.56 155.51 158.68C154.83 159.83 154.09 161.03 152.9 161.63C151.71 162.23 149.95 161.89 149.52 160.63M66.78 124.96C65.08 112.65 65.16 100.09 67.02 87.7998C67.13 87.0998 67.56 86.1798 68.24 86.3898M149.89 132.39C152.79 117.52 153.06 102.14 150.68 87.1698" stroke="black" stroke-width="1.5" stroke-miterlimit="10" stroke-linecap="round" stroke-linejoin="round"/>
<path d="M114.96 40.9502C117.9 41.3202 120.86 41.6102 123.79 42.0902C127.56 42.7002 131.02 44.1602 134.09 46.4602C147.71 56.6702 156.39 69.8502 158.4 87.0202C158.54 88.2002 158.78 89.3702 158.9 90.5502C159.43 95.6602 158.82 96.4802 153.78 96.4302C152.61 96.4202 151.49 96.4802 150.33 96.5402C143.83 96.8702 142.9 96.0302 142.4 89.5602C141.44 77.3002 135.09 68.0602 126.1 60.3102C125.08 59.4302 123.8 58.5902 122.52 58.2902C113.45 56.1702 104.44 55.5402 96.1 60.8402C92.93 62.8502 90.01 65.2602 86.91 67.4002C79.12 72.7802 74.87 80.3202 73.27 89.5002C73.13 90.2802 73.07 91.0802 72.84 91.8402C72.6 92.6402 71.94 93.3202 71.13 93.2502C67.63 92.9402 64.13 92.5602 60.65 92.0202C60.1 91.9302 59.51 90.9402 59.27 90.2502C58.61 88.3202 58.94 86.3002 59.34 84.3802C59.9 81.6702 60.69 79.0002 61.45 76.3402C63.25 70.1102 66.35 64.7602 71.37 60.4702C75.74 56.7402 80.01 52.9302 84.73 49.6202C93.85 43.2302 103.79 40.0902 114.96 40.9502V40.9502ZM155.4 152.73C152.45 156.63 149.98 162.18 144.69 165.46C141.75 167.29 140.89 167.19 139.46 163.82C138.82 162.32 138.14 162.06 136.84 162.74C136.31 163.02 135.83 163.38 135.29 163.62C132.14 165.07 131.69 165.01 130.03 162.23C128.8 160.17 127.59 158.16 125.55 156.78C124.59 156.13 124.45 155.13 125.01 154.18C126.01 152.49 127.03 150.78 128.22 149.22C132.09 144.13 135.24 138.73 136.61 132.38C137.15 129.88 138.14 127.48 139 125.05C139.99 122.24 142.21 120.65 144.82 119.56C146.58 118.83 147.88 119.34 148.68 121.08C149.34 122.52 149.82 124.01 151.11 125.08C151.84 125.69 152.34 126.41 153.54 126.42C157.73 126.46 158.99 129.67 160.02 132.93C160.31 133.85 160.37 134.92 160.25 135.88C159.57 141.42 158.56 146.86 155.4 152.73ZM75.22 160.16C70.77 165.71 71.7 165.3 66.21 160.86C65.75 160.49 65.36 160.02 65.02 159.55C59.21 151.48 55.48 142.69 55.58 132.54C55.61 129.17 56.72 126.34 59.31 124.19C60.04 123.59 61.16 122.83 61.91 123C64 123.46 65.3 122.45 66.6 121.2C68.27 119.6 70.51 119.33 72.57 118.77C74.19 118.33 75.73 118.93 76.6 120.55C77.06 121.41 77.53 122.29 77.77 123.22C78.47 125.9 79.31 128.58 79.63 131.32C80.3 137.2 82.82 142.29 85.74 147.28C86.64 148.81 87.6 150.32 88.35 151.93C89.58 154.58 89.58 154.69 86.99 156.68C85.53 157.8 84.55 159.25 83.46 160.66C81.2 163.6 81.07 163.61 77.68 161.63C76.84 161.14 76.02 160.63 75.22 160.16Z" fill="url(#paint0_linear_1230_3500)"/>
<path d="M11.59 48.6699C11.53 51.1999 11.83 53.7499 12.49 56.1899C12.6 56.6099 12.74 57.0499 13.05 57.3599C13.43 57.7399 13.99 57.8499 14.52 57.9399L20.04 58.8999C20.15 60.7399 20.26 62.5699 20.36 64.4099C20.39 64.9899 20.44 65.5999 20.79 66.0599C21.08 66.4399 21.53 66.6399 21.96 66.8399C23.28 67.4399 24.61 68.0399 25.93 68.6399M104.61 28.6799L98.63 23.9899C100.92 22.0099 103.2 20.0299 105.49 18.0599C103.741 16.7666 101.899 15.6035 99.98 14.5799C100.9 13.3699 101.82 12.1499 102.73 10.9399M166.26 56.0799C165.42 52.6899 164.58 49.2999 163.73 45.9099C166.86 46.0099 169.98 46.1099 173.11 46.2199C173.05 43.2999 172.98 40.3799 172.92 37.4499M182.45 125.31L187.6 120.52C187.82 120.32 188.07 120.1 188.37 120.13C188.66 120.16 188.87 120.41 189.04 120.65C190.02 122.03 190.8 123.55 191.35 125.15C191.5 125.59 191.68 126.09 192.12 126.24C192.52 126.38 192.95 126.17 193.32 125.96C195.62 124.65 197.9 123.29 200.15 121.88L201.71 127.93C201.77 128.17 201.85 128.42 202.05 128.56C202.28 128.71 202.59 128.64 202.85 128.57L207.53 127.28M35.57 118.32C34.11 117.05 32.65 115.78 31.18 114.51C29.886 117.228 28.974 120.112 28.47 123.08C26.77 121.63 24.67 120.64 22.46 120.26C23 123.18 21.27 126.36 18.53 127.49M177.58 173.53C177.82 173.72 177.66 174.09 177.51 174.35C176.63 175.8 176.13 177.48 176.07 179.18C178.5 178.42 181 177.85 183.52 177.48C183.17 179.22 182.82 180.96 182.48 182.7C182.42 182.99 182.41 183.38 182.69 183.49C182.87 183.56 183.06 183.46 183.22 183.38C184.52 182.71 186.02 182.43 187.48 182.61" stroke="#353534" stroke-width="1.5" stroke-miterlimit="10"/>
<defs>
<linearGradient id="paint0_linear_1230_3500" x1="84" y1="21.5" x2="141.5" y2="194" gradientUnits="userSpaceOnUse">
<stop offset="0.208333" stop-color="#FE7332"/>
<stop offset="1" stop-color="#F8570E"/>
</linearGradient>
</defs>
</svg>
