<svg width="217" height="230" viewBox="0 0 217 230" fill="none" xmlns="http://www.w3.org/2000/svg">
<path d="M68.8 130.16C68.59 128.52 68.19 127.06 68.26 125.63C68.43 122.34 69.02 119.07 69.06 115.78C69.09 113.59 69.17 108.74 69.18 107.12C69.19 105.11 71.54 100.53 70.98 94.6302C69.56 77.7002 71.17 60.7902 72.85 43.7402C73.39 43.7502 73.88 43.6702 74.31 43.8002C74.99 44.0002 75.64 44.4602 76.14 43.5402C76.16 43.5102 76.26 43.5402 76.32 43.5202C78.29 42.8802 83.31 44.8702 84.31 46.7802C84.58 47.2902 84.62 47.9702 84.62 48.5702C84.62 50.6702 83.92 52.6802 84.42 54.8902C84.84 56.7102 84.41 58.7402 84.31 60.6702C84.24 62.0302 84.04 63.2502 85.11 64.5302C85.9 65.4702 85.95 67.0402 86.28 68.3402C86.45 69.0402 86.44 69.7902 86.64 70.4802C87.86 74.7302 89.11 78.9802 90.37 83.2102C91.24 86.1302 92.07 89.0802 93.11 91.9402C93.37 92.6702 94.39 93.1102 95.03 93.7202C98.23 96.8202 102.26 98.3602 106.36 99.7402C107.06 99.9702 107.88 99.8502 108.64 99.8602C109.56 99.8702 110.49 99.9102 111.4 99.8302C111.76 99.8002 112.24 99.5702 112.42 99.2802C113.97 96.7802 116.44 96.4602 119.06 96.0302C121.12 95.6902 123.08 94.6602 125.05 93.8702C125.25 93.7902 125.3 93.3002 125.23 93.4802C126.27 93.0702 126.97 92.7602 127.7 92.5102C129.45 91.9202 131.25 91.4602 132.95 90.7502C136.41 89.3002 140.08 89.2302 143.71 88.7002C145.64 88.4202 147.45 87.2702 149.32 86.5202C152.88 85.0902 156.48 83.7402 160 82.2002C161.53 81.5302 162.85 80.3802 164.38 79.6802C165.88 78.9902 167.51 78.6002 169.08 78.0702C170.83 77.4702 172.76 77.1502 174.27 76.1802C175.95 75.0902 177.8 74.9402 179.57 74.4302C181.76 73.8002 184.41 75.9202 184.94 78.0102C185.25 79.2302 186.32 80.2402 187.01 81.3702C188.02 83.0202 187.42 84.9002 185.76 85.8502C182.54 87.7002 179.41 89.7002 176.16 91.5002C173.99 92.7002 171.67 93.6402 169.45 94.7402C168.88 95.0202 168.44 95.5402 167.9 95.8902C164.65 98.0302 161.41 100.18 158.12 102.26C156.31 103.41 154.37 104.35 152.57 105.52C148.79 107.98 145.21 110.79 141.27 112.95C137.79 114.86 134.51 117.07 131.14 119.14C125.36 126.55 127.19 133.66 126.83 135.95C126.42 138.56 126.09 141.18 125.76 143.8C125.66 144.61 125.96 145.63 125.57 146.2C124.54 147.71 125.39 148.37 126.71 149.16C125.72 151.83 126.77 156.45 125.64 159.07C125.36 159.72 112.48 166.14 112.45 166.59C105.42 168.75 90.93 169.25 90.85 170.32C90.06 170.87 88.78 170.98 87.3 170.58C82.77 169.36 78.95 166.92 75.24 164.15C74.07 163.28 74.45 162.27 74.34 161.35C74.11 159.35 73.7 158.96 71.73 158.96C71.07 158.96 69.94 158.35 69.83 157.84C69.19 154.98 69.1 151.98 68.23 149.2C67.49 146.82 68.27 144.29 66.85 141.91C66.01 140.53 68.01 130.79 68.8 130.16V130.16Z" fill="url(#paint0_linear_1230_3511)"/>
<path d="M98.62 89.3702C98.87 91.4502 96.04 95.8402 96.04 95.8402C96.04 95.8402 95.42 97.9602 98.88 101.41C102.33 104.86 110.73 100.01 110.73 100.01L110.89 97.2802C110.51 93.5502 113.15 89.4102 114.57 86.0702C115.69 83.4502 119.88 69.4302 120.68 66.6602L95.23 62.7002C95.23 62.7002 89.41 82.5802 93.5 86.9302" fill="#C18145"/>
<path d="M97.85 96.2002C99.74 99.0802 103.28 100.8 106.71 100.49C107.69 100.4 108.71 100.16 109.65 100.47M82.73 47.9302C82.656 47.441 82.7143 46.941 82.899 46.482C83.0836 46.023 83.3879 45.6218 83.78 45.3202C84.34 44.9002 85.04 44.7102 85.74 44.7002C86.16 44.6902 86.57 44.7502 86.98 44.7602C88.05 44.7902 89.14 44.5602 90.1 44.0902C90.21 44.0402 90.31 43.9802 90.39 43.8902C90.58 43.6802 90.55 43.3402 90.39 43.1002C90.23 42.8702 89.97 42.7202 89.71 42.6102C88.88 42.2602 87.97 42.1902 87.07 42.1302L86 41.9802C88.19 40.3202 90.65 39.0102 93.25 38.1202C93.84 37.9202 94.44 37.7302 94.93 37.3502C95.42 36.9702 95.91 36.3702 95.76 35.7602C95.71 35.5402 95.17 35.1202 94.76 35.2102C92.39 35.7302 89.78 36.2502 87.61 37.3402C89.45 35.4602 92.08 34.6502 94.53 33.6902C94.74 33.6102 94.95 33.5202 95.12 33.3702C95.52 33.0002 95.5 32.3102 95.17 31.8802C94.83 31.4502 94.26 31.2502 93.72 31.2502C93.17 31.2502 92.64 31.4202 92.13 31.6002C89.59 32.4802 87.15 33.6602 84.88 35.1002L85.88 32.8702C87.6 30.1802 88.28 29.9602 90.84 28.0502C91.28 27.7202 91.78 27.2802 91.68 26.7502C91.55 26.0702 90.62 25.9502 89.95 26.1102C88.19 26.5502 86.74 27.7902 85.57 29.1702C84.39 30.5502 83.42 32.0902 82.18 33.4202C81.56 34.0802 80.87 34.6902 80.08 35.1302L79.33 35.6502C78.76 33.9002 79.09 32.0102 79.14 30.1702C79.19 28.3302 78.86 26.2802 77.42 25.1402C76.91 24.7402 76.08 24.5302 75.66 25.0202C75.43 25.2902 75.42 25.6702 75.41 26.0302L75.26 34.1502C75.24 35.4802 75.21 36.8202 74.99 38.1402C74.86 38.9402 74.65 39.7402 74.71 40.5402C74.85 42.4702 76.46 44.4002 75.61 46.1302M183.96 77.5202C185.1 76.4502 186.71 76.0802 188.17 75.5302C189.63 74.9802 191.16 74.0402 191.51 72.5202C191.68 71.8102 191.56 71.0502 191.72 70.3302C191.86 69.7202 192.37 69.0802 192.97 69.2202C193.25 69.2902 193.47 69.5102 193.66 69.7202C194.22 70.3102 194.8 70.9402 195 71.7202C195.23 72.5902 194.96 73.5202 194.55 74.3302C194.1 75.2302 193.45 76.0902 192.52 76.4802M195.53 72.8102C197.14 71.3102 198.77 69.7902 200.7 68.7402C201.19 68.4702 201.7 68.2302 202.22 68.0302C202.41 67.9602 202.62 67.8902 202.8 67.9802C202.91 68.0402 202.98 68.1402 203.03 68.2502C203.45 69.0502 203.29 70.0502 202.85 70.8402C202.41 71.6302 201.71 72.2402 201.04 72.8302C199.61 74.0902 198.17 75.3502 196.74 76.6102" stroke="#080908" stroke-miterlimit="10" stroke-linejoin="round"/>
<path d="M201.96 71.9799C203.69 71.6499 204.04 73.8399 203.58 74.6699C203.36 75.0699 202.98 75.3399 202.61 75.5999L200.84 76.8299C200.54 77.0399 200.24 77.2499 199.92 77.4299C199.56 77.6299 199.19 77.7999 198.82 77.9599L195.7 79.3399" stroke="#080908" stroke-miterlimit="10" stroke-linejoin="round"/>
<path d="M182.24 83.9998C183.2 84.9998 184.56 85.5398 185.93 85.7598C187.3 85.9798 188.7 85.8998 190.08 85.8198L193.09 85.6398C193.97 85.5898 194.88 85.5298 195.66 85.1298C196.16 84.8698 196.64 84.2698 196.34 83.7898C195.88 83.0698 193.97 84.2298 193.63 83.4498L193.37 82.7498C195.7 82.1898 198.1 81.5998 200 80.1498C201.3 79.1498 204.12 77.7798 203.19 76.4298L202.62 75.5998M186.27 49.0998C182.93 52.3798 178.43 54.4398 173.76 54.8098C171.58 54.9798 169.31 54.8198 167.28 55.6398C164.9 56.5998 163.25 58.7598 161.86 60.9198C160.49 63.0498 159.25 65.2798 157.65 67.2298C156.04 69.1898 154 70.8898 151.56 71.5698C148.78 72.3398 145.83 71.7198 142.98 71.3098C140.12 70.8998 137 70.7698 134.58 72.3498C131.59 74.2998 130.47 78.3598 127.39 80.1598C125.71 81.1398 123.68 81.2898 121.9 82.0698C119.54 83.1098 118.16 83.9798 117.57 86.4898L117.09 88.0998C116.24 88.9498 114.79 88.3398 113.78 87.6898C113.42 87.4598 113.05 87.2198 112.8 86.8698C112.28 86.1198 112.46 85.0998 112.74 84.2398C113.44 82.0498 114.58 79.9098 114.52 77.6098C114.5 76.8998 114.36 76.1898 114.33 75.4798C114.27 74.1598 114.56 72.8498 114.68 71.5298C114.79 70.2098 114.69 68.7898 113.92 67.7098L112.48 67.7698C108.85 68.9998 106.01 69.6298 102.45 68.2398C101.3 67.7898 100.25 67.0998 99.08 66.6998C97.91 66.2998 96.53 66.1998 95.51 66.9098C94.85 67.3698 94.09 68.1598 93.42 67.7298C93.08 67.5098 92.97 67.0598 92.92 66.6598C92.73 65.0598 92.33 64.8898 92.97 63.4098L93.34 62.5798C93.8 57.8498 97.09 53.5098 101.53 51.7998C104.83 50.5298 108.66 50.6098 111.62 48.6798C114.88 46.5598 116.3 42.5598 118.9 39.6798C121.19 37.1398 124.45 35.5098 127.85 35.1898C132.19 34.7798 136.96 36.3498 140.69 34.0898C144.86 31.5698 145.52 25.4998 149.38 22.5298C151.33 21.0298 153.85 20.5198 156.09 19.5098C158.34 18.4998 160.4 17.6898 160.38 15.2198L160.74 13.6398C162.75 13.5698 165.04 13.6098 166.41 15.0898C166.88 15.5998 167.2 16.2398 167.59 16.8098C169.07 18.9398 171.61 20.0198 173.87 21.2998C176.13 22.5798 178.42 24.4798 178.65 27.0598C178.87 29.5798 177.07 32.2298 178.18 34.5098C178.86 35.9098 180.41 36.5998 181.75 37.3798C183.84 38.5998 185.7 40.3398 186.64 42.5598C187.58 44.7798 187.46 47.5398 185.95 49.4398" stroke="#080908" stroke-miterlimit="10" stroke-linejoin="round"/>
<path d="M73.3 166.01C75.11 180.74 69.86 193.39 72.09 207.67C72.94 210.99 75.87 215.54 80.42 212.61C86.13 208.68 92.92 204.82 97.02 197.85M105.45 209.63C107.62 215.49 113.87 219.2 119.27 219.59C124.67 219.98 128.3 214.81 132.85 211.88C145.51 201.93 158.09 193.06 168.18 180.27M126.08 156.68C124 168.89 118.67 182.62 124.37 193.89C124.37 193.89 125.45 193.97 126.53 194.04C138.95 187.33 149.37 178.31 160.26 169.39" stroke="#1D1D1B" stroke-miterlimit="10" stroke-linejoin="round"/>
<path d="M95.54 181.96C96 189.55 96.59 197.54 100.84 203.84C102.43 206.2 104.49 208.24 105.97 210.67M159.82 169.4C160.42 169.5 161.02 169.61 161.6 169.77C163.87 170.39 165.89 171.91 167.13 173.91C168.37 175.91 168.81 178.4 168.35 180.71C168.27 180.54 168.18 180.37 168.1 180.2M161.61 169.79C162.76 169.04 163.91 168.3 165.06 167.55M168.75 179.02L171.55 177.18M165.17 167.77C167.23 168.02 169.26 168.92 170.66 170.45C172.06 171.99 172.77 174.2 172.29 176.22M165.27 166.81C167.27 165.02 169.59 163.59 172.08 162.6" stroke="#1D1D1B" stroke-miterlimit="10" stroke-linejoin="round"/>
<path d="M173.11 162.59L177.26 165.75C178.71 166.85 180.18 167.98 181.28 169.43C182.82 171.47 183.52 174 184.05 176.5C184.9 180.51 185.39 184.6 185.51 188.7C185.52 189.15 185.53 189.62 185.31 190.01C184.71 191.13 183 190.8 181.93 190.11C179.56 188.6 177.92 186.2 176.35 183.87C174.98 181.85 173.62 179.83 172.25 177.8" stroke="#1D1D1B" stroke-miterlimit="10" stroke-linejoin="round"/>
<path d="M172.22 162.49C172.77 162.01 173.38 161.59 174.02 161.25C174.28 161.11 174.56 160.98 174.85 160.98C175.17 160.98 175.47 161.13 175.75 161.28C178.6 162.79 181.55 164.38 183.5 166.95C184.66 168.48 185.4 170.28 186.09 172.06C186.71 173.67 187.3 175.29 187.72 176.96C188.57 180.37 188.67 183.95 188.02 187.4C187.95 187.77 187.87 188.15 187.7 188.49C187.11 189.69 185.64 190.12 184.34 190.43" stroke="#1D1D1B" stroke-miterlimit="10" stroke-linejoin="round"/>
<path d="M166.04 167.47C165.87 167.46 165.96 167.19 166.09 167.08C166.68 166.6 167.27 166.11 167.86 165.63C167.17 166.08 166.59 166.71 166.2 167.43C167.07 166.87 167.86 166.19 168.53 165.4C168.06 166.07 167.59 166.75 167.12 167.42C168.219 166.836 169.123 165.942 169.72 164.85C168.83 165.56 167.88 166.34 167.59 167.44C168.9 166.69 170.03 165.64 170.86 164.38C169.93 164.95 169.04 165.6 168.22 166.32C169.43 165.77 170.56 165.04 171.56 164.17C171.092 164.175 170.632 164.293 170.219 164.514C169.806 164.735 169.453 165.053 169.19 165.44C170.16 164.75 171.12 164.06 172.09 163.37C171.43 163.93 170.72 164.42 169.95 164.82C170.69 164.34 171.44 163.86 172.18 163.38C171.54 163.82 170.95 164.32 170.4 164.88C171.23 164.39 172.05 163.9 172.88 163.4C172.42 163.42 172.18 164.11 172.53 164.4C172.7 164.36 172.82 164.2 172.83 164.02C172.54 163.98 172.25 163.95 171.96 163.91C171.99 163.55 172.56 163.64 172.8 163.91C173.04 164.17 173.36 164.53 173.68 164.37C173.56 164.02 173.35 163.7 173.07 163.46C173.93 164.47 174.78 165.48 175.64 166.5C174.85 165.83 174.07 165.16 173.28 164.49C174.601 165.168 175.836 166 176.96 166.97C175.84 166.18 174.73 165.38 173.61 164.59C175.19 165.33 176.64 166.34 177.89 167.54C176.32 166.54 174.7 165.52 172.88 165.14C174.48 165.89 176.16 166.49 177.88 166.91C175.9 166.34 173.92 165.76 171.94 165.19C173.46 165.74 174.98 166.28 176.49 166.83C174.99 165.98 173.4 165.29 171.76 164.76C171.68 165.29 172.18 165.7 172.65 165.97C173.79 166.62 175.05 167.07 176.34 167.29C174.7 166.64 173.02 166.08 171.31 165.62C172.44 166.34 173.69 166.86 175 167.15C173.6 166.37 172.1 165.76 170.55 165.33C171.18 166.65 172.63 167.54 174.09 167.49C173.061 166.681 171.778 166.263 170.47 166.31C171.14 167.11 172.25 167.52 173.28 167.32C173.45 167.22 173.28 166.95 173.1 166.85C172.19 166.33 171.14 166.07 170.09 166.12C170.78 166.9 171.68 167.49 172.67 167.82C171.72 167.46 170.73 167.19 169.73 167C170.36 167.61 171.14 168.06 171.99 168.3C171.06 167.83 170.08 167.45 169.07 167.18C169.77 167.88 170.66 168.4 171.61 168.66C170.56 168.25 169.46 167.95 168.35 167.75C168.98 168.47 169.91 168.93 170.86 169C169.96 168.42 168.99 167.96 167.97 167.65C168.88 168.39 170.01 168.84 171.18 168.93C170.5 168.73 169.84 168.46 169.21 168.13C170.51 168.45 171.77 168.93 172.96 169.55C172.15 169.07 171.33 168.6 170.52 168.12C171.14 169.76 172.12 171.26 173.38 172.49L170.14 168.83L173.74 172.94C172.88 171.35 171.9 169.82 170.81 168.37C171.999 170.269 173.34 172.069 174.82 173.75C173.602 171.979 172.487 170.139 171.48 168.24C172.41 169.81 173.41 171.33 174.48 172.8C173.78 171.16 172.97 169.57 172.05 168.03C173.01 169.51 174.06 170.94 175.2 172.3C174.74 171.262 174.181 170.271 173.53 169.34C173.994 170.637 174.79 171.789 175.84 172.68C175.23 171.31 174.55 169.97 173.79 168.67C174.6 170 175.4 171.34 176.21 172.67C175.45 171.28 174.68 169.89 173.92 168.5C174.71 169.59 175.51 170.67 176.3 171.76C175.887 171.045 175.571 170.279 175.36 169.48C176.09 170.48 176.73 171.55 177.26 172.67C176.55 170.99 175.84 169.3 175.13 167.62C175.81 168.92 176.49 170.21 177.17 171.51L174.92 167.16C175.78 168.73 176.65 170.3 177.51 171.88C176.83 170.79 176.15 169.69 175.47 168.6C175.37 168.44 175.25 168.26 175.07 168.21C174.89 168.16 174.65 168.33 174.72 168.51" stroke="#1D1D1B" stroke-miterlimit="10" stroke-linejoin="round"/>
<path d="M173.23 167.99C173.63 167.87 174.05 167.86 174.45 167.95C174.22 168.67 173.13 168.91 172.62 168.35C173.03 168.47 173.44 168.58 173.85 168.7C173.98 168.34 173.97 167.93 173.82 167.58C173.83 168.25 173.91 168.93 174.06 169.58C174.15 169.96 174.44 170.43 174.8 170.27C174.91 170.22 174.98 170.13 175.04 170.03C175.6 169.16 175.37 167.87 174.54 167.25C174.56 167.91 174.86 168.55 175.35 168.98C175.47 169.08 175.62 169.18 175.77 169.13C175.99 169.05 175.99 168.74 175.94 168.51C175.625 167.192 175.043 165.954 174.23 164.87C174.41 165.78 175.09 166.57 175.96 166.89L174.33 165.23C174.9 165.75 175.58 166.16 176.31 166.41C175.45 165.85 174.65 165.2 173.92 164.47C174.751 165.549 175.814 166.427 177.03 167.04C175.973 165.99 174.971 164.885 174.03 163.73C175.12 164.7 176.21 165.67 177.3 166.63C176.39 165.75 175.37 164.97 174.28 164.33C176.2 165.82 177.94 167.54 179.46 169.43C178.54 168.37 177.62 167.3 176.7 166.24C178.09 167.57 179.4 168.99 180.63 170.48C179.478 169.388 178.482 168.143 177.67 166.78C179.05 167.77 180.21 169.06 181.04 170.53C180.31 169.65 179.59 168.77 178.86 167.9C180.18 169.08 181.38 170.41 182.41 171.85C180.52 170.8 178.96 169.27 177.41 167.76C178.29 169.4 179.42 170.91 180.76 172.2C179.34 170.6 177.85 169.07 176.3 167.6C177.16 169.43 178.5 171.04 180.15 172.22C178.67 170.73 177.22 169.2 175.8 167.66C177.3 170 178.81 172.34 180.31 174.69C179.51 172.35 178.29 170.15 176.73 168.23C177.953 171.366 179.271 174.464 180.68 177.52C179.481 175.387 178.489 173.143 177.72 170.82C178.85 173.57 179.88 176.36 180.8 179.18C180.68 178.28 180.36 177.41 179.86 176.64C179.85 177.39 180 178.15 180.29 178.84" stroke="#1D1D1B" stroke-miterlimit="10" stroke-linejoin="round"/>
<path d="M179.87 173.06C180.64 175.28 181.42 177.49 182.19 179.71C181.39 177 180.59 174.3 179.8 171.59C180.92 174.05 181.47 176.73 182.01 179.37C182.06 176.65 180.23 174.21 180.04 171.49C180.961 173.431 181.607 175.491 181.96 177.61C181.61 175.61 181.27 173.61 180.92 171.6C181.33 173.53 181.75 175.45 182.16 177.38C181.98 175.47 181.65 173.58 181.16 171.72C181.83 173.575 182.279 175.501 182.5 177.46C182.42 175.51 182.12 173.56 181.61 171.67C182.15 173.48 182.61 175.31 183.01 177.15C182.77 175.54 182.54 173.93 182.3 172.33C182.91 174.4 183.34 176.53 183.58 178.68L183.19 174.8C183.57 177.01 183.89 179.23 184.13 181.45C184.05 179.92 183.76 178.41 183.29 176.95C183.63 179.18 183.96 181.41 184.3 183.65C183.77 181.56 183.16 179.49 182.47 177.44C182.92 179.55 183.38 181.66 183.83 183.77C183.36 181.55 182.55 179.41 181.43 177.44C181.81 179.52 182.37 181.58 183.11 183.56L180.59 177.83C181.19 179.53 181.79 181.24 182.39 182.94C181.53 180.94 180.68 178.94 179.82 176.94C180.48 179.21 181.22 181.46 182.06 183.68C180.952 180.64 179.687 177.659 178.27 174.75C179.13 177.63 180.22 180.45 181.52 183.16C180.23 179.88 178.94 176.59 177.65 173.31C178.47 175.93 179.29 178.57 180.48 181.05C180.01 178.14 179.23 175.29 178.16 172.54C178.58 174.92 179.19 177.27 179.98 179.55C179.57 176.79 178.18 174.28 176.82 171.84C177.502 174.297 178.451 176.671 179.65 178.92C178.75 176.61 177.57 174.42 176.14 172.4C176.98 174.7 177.9 176.97 178.9 179.21C178.05 176.92 176.92 174.74 175.54 172.73C176.024 175.288 176.879 177.761 178.08 180.07C177.35 177.74 176.3 175.51 174.98 173.45C175.67 175.87 176.55 178.22 177.62 180.49C177.493 178.425 176.68 176.461 175.31 174.91C175.84 177.19 176.51 179.44 177.34 181.64C177.3 181.45 177.25 181.27 177.21 181.08" stroke="#1D1D1B" stroke-miterlimit="10" stroke-linejoin="round"/>
<path d="M174.01 172.89L175.3 177.97C174.89 175.83 174.1 173.76 172.99 171.88C173.63 173.68 174.28 175.48 174.92 177.29C174.26 175.6 173.61 173.9 172.95 172.21C173.2 173.73 173.6 175.23 174.13 176.68C173.92 175.44 173.5 174.24 172.9 173.14C173.04 174.23 173.39 175.29 173.92 176.24C173.63 175.73 173.41 175.18 173.28 174.61C173.36 175.61 173.43 176.6 173.51 177.6C173.549 176.96 173.45 176.318 173.22 175.72C172.972 176.23 172.829 176.784 172.8 177.35C172.74 177.02 172.6 176.7 172.39 176.43C172.36 176.72 172.39 177.01 172.48 177.28C172.39 177.08 172.3 176.88 172.22 176.69C172.16 177.05 172.2 177.43 172.33 177.77L172.36 177.1C172.43 177.42 172.7 177.68 173.02 177.73C173.21 177.59 173.25 177.28 173.08 177.1C173.33 178 173.69 178.87 174.15 179.68C174.03 178.62 173.69 177.58 173.17 176.64C173.93 178.7 174.86 180.7 175.95 182.6C176.08 182.16 175.9 181.69 175.72 181.27C175.21 180.03 174.69 178.79 174.18 177.55C175.39 179.63 176.6 181.7 177.81 183.78C176.86 181.32 175.72 178.93 174.43 176.63C175.7 179.26 177.15 181.8 178.77 184.23C178.26 182.31 177.47 180.47 176.43 178.78C177.5 181.3 178.69 183.77 179.99 186.19C178.881 184.682 177.643 183.273 176.29 181.98C177.23 183.55 178.29 185.05 179.44 186.47L176.61 182.89C177.48 183.94 178.35 184.99 179.21 186.04C178.77 185.56 178.38 185.04 178.02 184.49C179.16 185.56 180.23 186.7 181.23 187.9C181.01 187.16 180.66 186.45 180.19 185.84C180.8 186.79 181.42 187.74 182.03 188.69C181.15 187.81 180.21 186.99 179.2 186.26C180.12 187.53 181.12 188.73 182.2 189.87C181.34 188.81 180.45 187.73 179.26 187.07C180.24 188.1 181.36 188.98 182.59 189.69C182.37 189.24 182.16 188.8 181.94 188.35C182.19 188.81 182.62 189.17 183.12 189.32C182.94 188.12 182.43 186.96 181.65 186.02C182.1 187.18 182.65 188.31 183.27 189.39C183.07 187.72 182.78 186.07 182.39 184.43C182.63 185.65 182.96 186.85 183.37 188.02C183.43 187.01 183.45 185.99 183.41 184.98L183.98 188.45C183.95 187.41 183.91 186.37 183.88 185.33L184.27 188.4L184.18 183.79C184.4 185.28 184.61 186.77 184.83 188.26L184.47 183.71L184.86 187.61L184.44 186.44C184.41 186.76 184.39 187.08 184.36 187.4C183.9 186.76 183.49 186.07 183.15 185.35C183.47 186.58 183.8 187.81 184.12 189.05C183.97 187.58 183.65 186.13 183.16 184.74C182.97 184.21 182.72 183.64 182.2 183.42C182.41 184.99 182.88 186.53 183.59 187.94C183.47 186.98 183.24 186.03 182.9 185.12C182.74 186 182.76 186.9 182.95 187.77C182.88 186.63 182.99 185.47 183.27 184.37C183.32 184.84 183.26 185.33 183.09 185.77C182.95 186.15 182.23 185.96 182.29 185.56C182.35 185.16 183.1 185.21 183.11 185.62M181.56 187.01C181.29 185.88 180.92 184.78 180.45 183.72" stroke="#1D1D1B" stroke-miterlimit="10" stroke-linejoin="round"/>
<path d="M179.32 181.71C180.1 183.47 180.89 185.22 181.67 186.98C180.71 184.12 179.07 181.49 176.94 179.36C177.59 181.492 178.461 183.55 179.54 185.5C179.8 185.52 179.9 185.17 179.9 184.92C179.91 182.24 178.69 179.73 177.42 177.38C178.7 179.45 179.84 181.61 180.83 183.84C180.31 181.95 179.85 180.04 179.45 178.12C179.78 180.28 180.41 182.4 181.31 184.4C181.87 183.2 181.77 181.72 181.05 180.61C181.05 182.45 181.3 184.29 181.79 186.06C181.99 185.39 182.05 184.67 181.94 183.98C182.02 185.09 182.06 186.2 182.06 187.32C181.89 186.45 181.71 185.59 181.54 184.72C181.46 185.45 181.27 186.17 180.99 186.84C180.74 186.19 180.54 185.52 180.38 184.85M27.64 61.9398C26.49 61.8898 25.46 62.7798 24.98 63.8198C24.5 64.8598 24.44 66.0498 24.39 67.2098C24.35 68.2598 24.32 69.3598 24.79 70.2998C25.48 71.6498 27.11 72.3098 28.62 72.2498C30.13 72.1898 31.55 71.5198 32.87 70.7798C34.41 69.9198 36.09 68.4298 35.6 66.7298C35.43 66.1298 35 65.6398 34.54 65.2098C32.59 63.3698 29.93 62.3098 27.24 62.2898M41.94 47.7798L36.51 56.5698M18.55 48.9098C18.48 50.9198 18.99 52.9498 19.99 54.6898M9.77002 72.5898C11.15 72.3998 12.51 71.9798 13.75 71.3498M24.13 82.1198L22.87 87.7098M38.55 79.1998C38.99 80.5898 39.7 81.8998 40.61 83.0398M46.05 68.6898C47.32 69.4498 48.75 69.9298 50.22 70.0998" stroke="#1D1D1B" stroke-miterlimit="10" stroke-linejoin="round"/>
<defs>
<linearGradient id="paint0_linear_1230_3511" x1="63" y1="43" x2="136.5" y2="185.5" gradientUnits="userSpaceOnUse">
<stop offset="0.284362" stop-color="#6E7CF6"/>
<stop offset="1" stop-color="#1B2FDB"/>
</linearGradient>
</defs>
</svg>
