<svg width="172" height="266" viewBox="0 0 172 266" fill="none" xmlns="http://www.w3.org/2000/svg">
<path d="M66.5 238C66.5 239.887 64.5 242 62 241C60.8681 241.326 60.049 242.5 59 242.5C55.6863 242.5 53.5 241.261 53.5 238.5C53.5 237.036 53.81 235.36 55.5 234.5C58 234.5 60.4641 233.524 62 232.5C65.3137 232.5 66.5 235.239 66.5 238Z" fill="#08A59E"/>
<path d="M26.4999 243C23.9999 244 22.1316 244.496 21.071 242.021C20.0403 241.451 17.7417 241.742 16.9999 241C14.6568 238.657 14.8207 233.497 15.9999 231C17.889 227 21.071 227.5 23.4999 229.5C25.5 233 29 230 31.5 233.5C32.9999 239 29.4999 241 26.4999 243Z" fill="#0ABEB0"/>
<path d="M23.7699 230.08C23.5 229.535 23.1108 229.058 22.6313 228.684C22.1518 228.31 21.5942 228.049 20.9999 227.92C19.8099 227.67 18.5199 228.01 17.5999 228.8C16.8999 229.4 16.4299 230.24 16.0399 231.08C15.3999 232.46 14.9399 233.94 14.9299 235.46C14.9199 236.98 15.3999 238.54 16.4399 239.64M25.6699 232.25C27.3799 231.74 29.4199 231.5 30.7799 232.65C31.7999 233.52 32.1499 235 31.9399 236.32C31.7299 237.64 31.0299 238.84 30.2499 239.93C28.8099 241.95 26.7499 243.88 24.2699 243.86M28.6099 223.37C28.9299 224.17 29.0499 225.05 28.9399 225.9C28.7599 227.26 28.0299 228.5 27.1099 229.51C26.1799 230.52 25.0599 231.32 23.9399 232.12M28.5399 227.24C30.2599 225.84 32.7599 225.47 34.8099 226.31M28.0799 229.29C30.5899 229.39 33.1199 228.23 34.6899 226.27M19.2499 43.4302C15.4099 46.4302 11.7499 49.6802 8.31995 53.1402M16.7299 41.1602C16.2999 41.8602 15.8699 42.5702 15.6599 43.3602C15.4499 44.1502 15.4899 45.0502 15.9599 45.7202M13.5599 42.2102C12.5899 43.6102 12.6499 45.6302 13.6999 46.9702M16.2499 46.7302C18.9399 46.9802 21.6999 46.4202 24.0799 45.1502M14.3899 48.9302C17.1499 49.1102 19.9299 48.8602 22.6099 48.1902M81.3899 115.98C79.7999 122.93 78.4199 129.92 77.2599 136.96M75.7599 115.78C75.6399 117.62 76.0499 119.49 76.9199 121.12C77.3199 121.85 77.8699 122.58 78.6699 122.8M77.2899 114.57C77.2699 116.69 77.8199 118.82 78.8699 120.66M78.7899 114.38C78.7199 115.22 78.8199 116.07 79.0899 116.87M82.4899 119.27C84.1075 118.906 85.5676 118.037 86.66 116.79M82.0899 121.54C83.7599 121.51 85.4099 120.73 86.4799 119.45M81.7599 123.6C82.1599 123.71 82.5799 123.73 82.9799 123.64M16.2099 239.68C16.0799 240.49 16.9499 241.13 17.7599 241.29C18.5699 241.45 19.4399 241.36 20.1799 241.74C20.8199 242.07 21.2499 242.69 21.7499 243.21C22.2499 243.73 22.9599 244.17 23.6599 243.98M58.2299 234.73C57.6899 234.09 56.6999 233.94 55.9199 234.25C55.1399 234.56 54.5599 235.25 54.1999 236.01C53.3099 237.89 53.7499 240.33 55.2999 241.71C56.8499 243.09 59.4099 243.2 61.0299 241.89C61.3299 241.64 61.6299 241.34 62.0199 241.3C62.3799 241.26 62.7199 241.45 63.0699 241.53C64.3599 241.84 65.5899 240.72 66.1199 239.5C66.7099 238.14 66.7599 236.53 66.1499 235.19C65.5299 233.84 64.2199 232.81 62.7499 232.65C61.2799 232.49 59.7199 233.27 59.0599 234.6" stroke="#1D1D1B" stroke-miterlimit="10" stroke-linejoin="round"/>
<path d="M58.72 234.93C58.03 233.58 58 231.99 57.98 230.47C57.97 229.34 57.98 228.14 58.56 227.17" stroke="#1D1D1B" stroke-miterlimit="10" stroke-linejoin="round"/>
<path d="M58.16 229.44C58.4 229.21 58.72 229.1 59.04 228.99C59.38 228.87 59.72 228.75 60.08 228.72C60.74 228.66 61.42 228.9 61.89 229.37C61.94 229.42 62.03 229.45 62.04 229.38M58.02 231.26C58.69 231.36 59.41 231.44 60 231.1C60.28 230.93 60.51 230.69 60.75 230.46C61.18 230.05 61.69 229.72 62.23 229.48" stroke="#1D1D1B" stroke-miterlimit="10" stroke-linejoin="round"/>
<path d="M137.22 37.1899C137.04 37.1299 136.83 37.1099 136.57 37.1099C131.86 37.1599 127.16 37.1999 122.45 37.2799C120.1 37.3199 117.73 37.3299 115.4 37.5899C113.45 37.7999 111.24 37.5799 110.09 40.1599C109.94 40.5099 109.7 40.9799 109.79 41.2799C110.77 44.5299 110.96 47.9099 110.9 51.2799C110.84 54.5199 112.01 57.3599 112.74 60.3499C112.84 60.7699 113.1 61.3099 113.41 61.4699C115.19 62.3699 115.41 64.6199 116.4 66.1799C117.15 67.3699 117.61 68.7999 118.16 70.0399C118.57 70.2999 119.01 70.6299 119.48 70.8799C119.72 71.0099 120.03 71.1099 120.27 71.0499C120.96 70.8799 121.53 70.8899 122.15 71.4699C122.55 71.8399 123.19 71.8699 123.73 72.0099C123.99 72.0799 124.33 71.9199 124.54 72.0699C125.17 72.5099 125.5 72.1099 125.72 71.5399C126.04 70.7099 126.28 69.8399 126.57 68.9899C126.86 68.1399 127.12 67.3599 128.17 67.8099C129.09 68.2099 129.34 67.4399 129.24 66.5899C128.99 64.4799 129.74 62.9999 131.16 61.8899C132.69 60.6899 133.56 58.9499 134.03 56.9099C134.46 55.0499 134.9 53.1799 135.28 51.3099C136.13 47.1499 136.95 42.9799 137.76 38.7999C137.82 38.5099 137.84 38.2599 137.82 38.0499C137.61 37.7499 137.41 37.4799 137.22 37.1899V37.1899Z" fill="#F5C09E"/>
<path d="M123.68 134.07H120.29C119.544 133.789 118.739 133.699 117.95 133.81C116.6 133.99 115.3 133.56 114 133.28C113.31 133.13 112.62 132.98 111.82 132.81C112.06 133.43 111.7 133.46 111.33 133.49C110.45 133.55 109.57 133.66 108.68 133.66C107.94 133.66 107.2 133.52 106.46 133.48C105.94 133.45 105.5 133.37 105.35 132.78C105.33 132.7 105.17 132.65 105.07 132.58C104.77 132.38 104.46 132.19 104.18 131.96C103.91 131.73 103.67 131.47 103.37 131.18C103.23 131.43 103.15 131.56 103.04 131.75C103.02 131.59 103 131.5 102.99 131.42C102.85 131.51 102.71 131.6 102.51 131.72C102.1 131.23 101.6 130.78 101.29 130.23C100.27 128.42 99.65 126.44 99.03 124.46C98.59 123.05 98.04 121.67 97.55 120.26C97.24 119.36 96.95 118.46 96.66 117.56C96.48 117 96.35 116.41 96.09 115.89C95.61 114.91 95.03 113.97 94.53 112.99C93.98 111.92 93.49 110.82 92.97 109.73C92.81 109.39 92.67 109.04 92.52 108.69C92.4 108.39 92.34 108.05 92.17 107.78C91.28 106.37 90.47 104.93 90.1 103.28C89.99 102.77 90.12 102.52 90.63 102.4C91.06 102.3 91.34 102.04 91.45 101.55C91.68 100.52 91.48 99.5999 90.95 98.7099C90.82 98.4799 90.88 98.1399 90.87 97.8599C90.86 97.7499 90.93 97.6199 90.9 97.5199C90.72 96.8599 90.43 96.2199 90.37 95.5599C90.22 93.8999 90.17 92.2399 90.11 90.5699C90.1 90.4199 90.28 90.1199 90.37 90.1199C91.15 90.1299 91.04 89.5799 91.09 89.0899C91.18 88.1799 91.26 87.2599 91.41 86.3499C91.56 85.4199 91.77 84.4899 91.94 83.5599C92.11 82.6699 92.17 81.7499 92.45 80.9099C92.81 79.8399 93.23 78.7399 93.86 77.8199C94.49 76.8999 95.35 76.0999 96.23 75.3999C97.4 74.4699 98.68 73.6699 99.92 72.8299C100.12 72.6899 100.42 72.6499 100.56 72.4699C101.04 71.8299 101.77 71.6099 102.41 71.2499C103.57 70.5799 104.89 70.3099 106.04 69.5399C107.2 68.7699 108.64 68.4199 109.96 67.8899C110.7 67.5899 111.46 67.3299 112.18 66.9699C112.85 66.6299 113.42 66.0399 114.23 66.3399C114.47 66.5899 114.75 66.9599 115.05 66.9699C115.8 66.9999 116.52 67.1699 117.25 67.2599C118.09 67.3599 118.69 67.7199 119.32 68.2099C120.01 68.7399 120.71 69.2699 121.48 69.6599C122.1 69.9699 122.83 70.0599 123.51 70.2599C124.64 70.5799 125.73 70.7399 126.68 69.7899C127.08 69.3899 127.51 69.0299 127.89 68.6299C128.33 68.1799 128.71 67.6799 129.16 67.2299C129.7 66.6799 130.23 66.0999 130.85 65.6499C131.58 65.1099 132.54 65.2699 132.96 66.0699C133.33 66.7699 133.87 67.0499 134.56 67.1699C135.2 67.2899 135.86 67.3699 136.5 67.4899C137.12 67.6099 137.73 67.7699 138.35 67.8699C139.23 68.0099 140.12 68.0499 140.98 68.2399C142.13 68.4799 143.26 68.7999 144.39 69.1199C145.03 69.2999 145.65 69.5699 146.28 69.7999C146.65 69.9299 147.03 70.1799 147.39 70.1399C148.2 70.0599 148.72 70.6399 149.37 70.8899C149.69 71.0199 149.93 71.0999 150.27 71.0499C150.55 70.9999 150.99 70.9699 151.1 71.1199C151.88 72.1499 152.59 73.2199 153.31 74.2999C153.45 74.4999 153.57 74.7799 153.55 75.0099C153.49 75.6299 153.79 76.0699 154.13 76.5399C154.08 76.6199 154 76.7499 153.93 76.8699C153.95 76.9299 153.97 76.9899 154 77.0499C154.33 76.9799 154.68 76.9399 155 76.8299C155.33 76.7199 155.6 76.6199 155.75 77.0499C155.8 77.1799 155.9 77.2899 155.97 77.4099C156.65 78.5599 157.18 79.7399 157.04 81.1299C157.02 81.3399 157.16 81.5499 157.18 81.7699C157.25 82.4099 157.3 83.0399 157.36 83.6799C157.38 83.8799 157.35 84.0799 157.39 84.2799C157.53 85.0099 157.86 85.7399 157.42 86.4899C157.35 86.6099 157.44 86.7999 157.44 86.9599C157.44 87.5699 157.53 88.1999 157.42 88.7899C157.22 89.8899 156.9 90.9799 156.62 92.1299C156.84 92.1299 156.97 92.1199 157.11 92.1299C157.61 92.1699 158.29 92.0599 158.41 92.6699C158.64 93.7799 158.77 94.9199 158.26 96.0099C158.18 96.1799 158.03 96.3299 157.99 96.5099C157.81 97.4199 157.66 98.3399 157.48 99.2499C157.44 99.4299 157.32 99.6099 157.22 99.7699C156.72 100.52 156.09 101.22 155.75 102.03C155.33 103.03 154.61 103.93 154.6 105.09C154.6 105.33 154.44 105.57 154.35 105.81C154.14 106.37 153.92 106.93 153.7 107.52C153.86 107.46 153.98 107.39 154.03 107.41C154.59 107.72 154.88 108.29 154.63 108.88C154.32 109.61 153.95 110.32 153.5 110.97C152.82 111.95 152.06 112.87 151.33 113.81C150.97 114.28 150.49 114.68 150.26 115.2C149.7 116.42 149.32 117.73 148.73 118.93C148 120.41 147.17 121.83 146.32 123.24C145.79 124.11 145.07 124.87 144.58 125.76C144.02 126.78 143.3 127.64 142.47 128.43C142.12 128.76 141.77 129.09 141.41 129.41C140.57 130.15 139.71 130.85 138.65 131.25C138.59 131.11 138.56 131.02 138.46 130.79C138.42 131.5 137.96 131.69 137.63 132.03C137.2 132.46 136.72 132.65 136.17 132.73C135.23 132.87 134.28 132.97 133.33 133.09C132.86 133.15 132.39 133.19 131.92 133.26C130.96 133.41 130 133.63 129.04 133.71C127.37 133.84 125.7 133.88 124.03 133.97C123.93 133.96 123.81 134.03 123.68 134.07V134.07Z" fill="url(#paint0_linear_1230_3526)"/>
<path d="M105.57 50.1802C106.21 49.9902 106.86 49.7902 107.53 49.8002C108.2 49.8102 108.9 50.0502 109.29 50.5902" stroke="#1D1D1B" stroke-miterlimit="10" stroke-linejoin="round"/>
<path d="M109.27 50.2402L109.33 57.5302L109.04 57.1502" stroke="#1D1D1B" stroke-miterlimit="10" stroke-linejoin="round"/>
<path d="M105.15 50.2302L103.83 56.7702C103.7 57.4002 104.67 57.6702 104.79 57.0402L106.11 50.5002C106.24 49.8702 105.28 49.6002 105.15 50.2302Z" fill="#1D1D1B"/>
<path d="M104.07 57.7501C104.97 57.9501 105.85 57.7701 106.75 57.7401C107.56 57.7101 108.34 57.9001 108.97 58.4201C109.18 58.5901 109.47 58.6201 109.68 58.4201C109.86 58.2401 109.89 57.8801 109.68 57.7101C108.94 57.1101 108.07 56.7701 107.12 56.7401C106.19 56.7101 105.25 56.9901 104.33 56.7901C103.71 56.6401 103.44 57.6101 104.07 57.7501V57.7501Z" fill="#1D1D1B"/>
<path d="M137.23 49.7902C138.38 48.8702 140.21 48.9502 141.27 49.9702M137.09 49.8302C136.92 52.2302 136.69 54.6302 136.41 57.0202M140.83 50.1102C141.15 52.0002 141.47 53.8902 141.78 55.7802C141.83 56.0702 141.88 56.3802 141.75 56.6502" stroke="#1D1D1B" stroke-miterlimit="10" stroke-linejoin="round"/>
<path d="M136.32 57.7299C137.49 58.0899 138.75 58.3499 139.98 58.2299C140.59 58.1699 141.17 58.0399 141.72 57.7899C142.32 57.5199 143.01 57.0699 142.69 56.3199C142.58 56.0699 142.22 56.0199 142.01 56.1399C141.75 56.2899 141.72 56.5799 141.83 56.8199C141.84 56.8399 141.85 56.8699 141.86 56.8899C141.84 56.8099 141.81 56.7199 141.79 56.6399C141.83 56.5699 141.83 56.5599 141.78 56.6099C141.73 56.6399 141.68 56.6799 141.62 56.7099C141.51 56.7699 141.41 56.8299 141.3 56.8799C141.12 56.9599 140.93 57.0299 140.74 57.0799C140.29 57.1999 139.84 57.2499 139.38 57.2499C138.43 57.2399 137.5 57.0299 136.59 56.7599C135.97 56.5799 135.7 57.5499 136.32 57.7299V57.7299Z" fill="#1D1D1B"/>
<path d="M103.92 57.5802C101.22 60.5102 100.56 65.1302 102.33 68.7002C103.04 70.1302 104.09 71.3702 104.94 72.7202C106.77 75.6002 107.72 79.0302 107.64 82.4402C107.88 78.5502 111.25 75.3302 111.29 71.4402C111.31 69.2402 110.26 67.2002 109.48 65.1502C108.69 63.1002 108.18 60.7102 109.22 58.7702M136.67 57.6102C136.03 59.0202 136.48 60.6902 137.11 62.1102C137.74 63.5302 138.56 64.9302 138.64 66.4802C138.78 68.9802 137.02 71.1502 136.36 73.5602C135.78 75.7102 136.09 77.9802 136.4 80.1802C136.38 78.4502 137.19 76.7902 138.34 75.4902C139.48 74.1902 140.94 73.2102 142.43 72.3302C143.55 71.6602 144.73 71.0102 145.51 69.9702C146.54 68.5902 146.68 66.5902 145.85 65.0802C145.32 64.1102 144.45 63.3802 143.79 62.4902C142.768 61.12 142.252 59.4379 142.33 57.7302M121.67 16.3702C120.7 15.6502 119.38 15.4102 118.21 15.7402C117.625 15.911 117.086 16.212 116.634 16.6207C116.182 17.0295 115.829 17.5353 115.6 18.1002C115.26 18.9602 115.23 19.9202 115.27 20.8402C115.35 22.3602 115.63 23.8902 116.32 25.2402C117.02 26.5902 118.16 27.7502 119.6 28.2402M124.36 17.4102C125.64 16.1602 127.33 15.0102 129.07 15.3902C130.38 15.6802 131.37 16.8302 131.8 18.1002C132.22 19.3702 132.16 20.7502 131.98 22.0802C131.64 24.5402 130.72 27.2002 128.51 28.3302M122.84 8.18016C123.5 8.74016 124.01 9.47016 124.3 10.2702C124.77 11.5602 124.7 12.9902 124.35 14.3202C124 15.6502 123.38 16.8802 122.76 18.1002M124.57 11.6402C125.44 9.60016 127.48 8.12016 129.69 7.91016M125.12 13.6802C127.39 12.6002 129.1 10.4102 129.57 7.94016M104.07 131.4C102.03 142.3 101.42 153.46 102.24 164.51C102.14 164.28 102.05 164.06 101.95 163.83M101.74 164.82C105.07 166.77 108.97 167.56 112.82 167.68C116.67 167.8 120.51 167.27 124.33 166.75C124.36 166.75 124.39 166.74 124.41 166.74M142.41 129.15C148.44 139.73 151.21 152.13 150.26 164.27" stroke="#1D1D1B" stroke-miterlimit="10" stroke-linejoin="round"/>
<path d="M128.98 166.22L134.46 166.97C137.25 167.35 140.08 167.74 142.89 167.44C145.69 167.14 148.52 166.09 150.42 164M124.23 167.03C125.65 163.64 125.65 159.84 125.62 156.16M128.76 166.08C127.67 162.67 126.58 159.27 125.49 155.86M100.25 94.5801C102.13 104.06 103.51 113.64 104.37 123.27C104.38 123.43 104.42 123.63 104.58 123.69C104.74 123.75 104.88 123.45 104.71 123.43M146.61 86.3101C144.462 98.204 143.298 110.255 143.13 122.34C143.09 122.05 143.04 121.77 143 121.48M104.64 166.61C105.39 186.09 106.15 205.58 106.9 225.06M120.45 167.9C117.25 188.03 119.51 208.47 118.15 228.73" stroke="#1D1D1B" stroke-miterlimit="10" stroke-linejoin="round"/>
<path d="M131.78 166.57C134.21 179.91 135.6 193.43 135.94 206.98C136.15 215.2 135.97 223.46 137.13 231.6C136.99 230.99 136.84 230.38 136.7 229.76M147.75 166.34C147.41 188.63 147.63 210.93 148.42 233.21M106.88 220.24C110.4 221.75 114.49 221.89 118.1 220.62C117.91 220.63 117.71 220.65 117.52 220.66" stroke="#1D1D1B" stroke-miterlimit="10" stroke-linejoin="round"/>
<path d="M136.12 219.74C139.99 221.21 144.48 220.96 148.16 219.06C147.87 219.2 147.57 219.33 147.28 219.47M106.89 224.73C107.27 228.98 107.54 233.23 107.69 237.49M118.2 228.48C118.04 231.57 117.9 234.65 117.78 237.74C117.77 238.01 117.76 238.29 117.83 238.55C117.85 238.62 117.86 238.71 117.8 238.74C117.74 238.77 117.72 238.62 117.78 238.66" stroke="#1D1D1B" stroke-miterlimit="10" stroke-linejoin="round"/>
<path d="M107.68 237.91C108.78 239.55 110.7 240.6 112.67 240.64C114.64 240.68 116.61 239.72 117.78 238.13M106.33 238.34C104.08 241.59 101.82 244.84 99.57 248.08C97.79 250.64 95.23 253.89 98.88 256.25M107.01 240.92C107.653 241.974 108.573 242.832 109.67 243.4C110.06 243.6 110.52 243.84 110.57 244.28C110.6 244.61 110.37 244.9 110.15 245.13C109.51 245.78 108.75 246.32 107.92 246.7C107.64 246.83 107.34 246.94 107.03 246.94C106.35 246.93 105.82 246.37 105.37 245.86C105.24 245.71 105.1 245.55 105.08 245.35C105.04 245.09 105.2 244.85 105.34 244.63C106.092 243.494 106.681 242.259 107.09 240.96M111.07 115.36C117.28 116.39 123.74 115.93 129.74 114.04M130.23 113.76C130.51 116.86 133.57 119.43 136.67 119.16M136.85 119.47C136.9 121.47 136.96 123.48 137.01 125.48M111.54 115.93C112.48 117.85 111.07 120.49 108.96 120.78M109.38 121.27C109.35 123.49 109.54 125.7 109.94 127.88M137.11 231.14C137.53 232.23 137.59 233.43 137.65 234.6L137.86 239.17M148.44 233C148.73 235.35 148.89 237.71 148.91 240.08C148.92 239.89 148.94 239.7 148.95 239.51" stroke="#1D1D1B" stroke-miterlimit="10" stroke-linejoin="round"/>
<path d="M138.03 239.27C137.98 239.5 138.16 239.71 138.33 239.87C139.86 241.27 142.06 241.91 144.09 241.54C146.13 241.17 147.96 239.8 148.9 237.96M148.83 239.47C149.82 241.9 151.32 244.09 152.62 246.37C153.92 248.65 155.04 251.13 155.17 253.75M143.65 244.96C145.42 244.46 147.08 243.58 148.49 242.4L148.24 242.59" stroke="#1D1D1B" stroke-miterlimit="10" stroke-linejoin="round"/>
<path d="M143.17 245.43C143.44 246.13 143.71 246.83 143.98 247.52C144.1 247.84 144.27 248.2 144.59 248.31C144.79 248.38 145.02 248.34 145.23 248.29C145.6 248.21 145.96 248.13 146.33 248.06C147.03 247.91 147.75 247.76 148.36 247.38C148.97 247 149.46 246.35 149.45 245.63C149.45 245.36 149.37 245.09 149.28 244.83C149.01 244.031 148.611 243.281 148.1 242.61M111.43 136.74C110.83 138.88 109.11 140.67 106.99 141.35M138.15 134.78C138.46 135.46 138.82 136.12 139.22 136.75C139.62 137.38 140.08 137.99 140.66 138.46C141.36 139.03 142.22 139.4 143.12 139.5C143.33 139.52 143.62 139.6 143.62 139.82" stroke="#1D1D1B" stroke-miterlimit="10" stroke-linejoin="round"/>
<path d="M106.12 255.12C106.44 254.55 106.6 254.07 106.45 253.42C106.37 253.07 106 253 105.72 253.12C104.99 253.43 104.45 253.71 103.98 254.38C103.67 254.82 104.26 255.26 104.66 255.06C105.44 254.68 106.15 254.18 106.79 253.59C107.15 253.26 106.78 252.59 106.3 252.75C106.01 252.85 105.67 252.91 105.42 253.09C105.17 253.28 105.02 253.59 104.85 253.85C104.55 254.33 105.24 254.86 105.64 254.46C106.693 253.395 107.466 252.086 107.89 250.65C107.98 250.35 107.73 250 107.41 250.02C106.38 250.09 105.38 250.26 104.39 250.55C104.58 250.79 104.77 251.04 104.95 251.28C105.51 250.54 106.14 249.87 106.82 249.24C107.3 248.8 106.6 248.13 106.11 248.53C105.63 248.93 105.15 249.33 104.68 249.73C104.25 250.09 104.83 250.86 105.29 250.52C105.94 250.04 106.48 249.49 106.96 248.84C107.21 248.5 106.79 247.95 106.4 248.11C105.91 248.31 105.39 248.42 104.91 248.62C105.07 248.9 105.23 249.18 105.4 249.46C105.92 248.79 106.92 247.48 105.74 246.9L105.62 247.81C105.78 247.77 105.95 247.85 106.12 247.81C106.38 247.75 106.54 247.44 106.47 247.19C106.39 246.9 106.09 246.77 105.86 246.64C105.78 246.95 105.69 247.26 105.61 247.57C106.1 247.61 106.58 247.7 107.07 247.76C107.03 247.43 106.98 247.11 106.94 246.78C106.69 246.82 106.43 246.87 106.18 246.91C105.59 247.01 105.79 247.85 106.31 247.89C109.35 248.14 111.79 246.05 113.68 243.91C114.04 243.5 113.58 242.82 113.07 243.12C109.91 245.03 106.75 246.93 103.59 248.84C103.08 249.15 103.44 249.84 103.98 249.75C106.64 249.31 109.1 248.17 111.5 246.98C111.33 246.69 111.16 246.4 111 246.12C108.91 247.61 106.82 249.09 104.74 250.58C104.22 250.95 104.67 251.75 105.24 251.44C107.83 250.07 110.36 248.58 112.82 246.97C113.36 246.62 112.88 245.79 112.32 246.11C111.01 246.84 109.69 247.56 108.38 248.29C108.55 248.58 108.72 248.87 108.88 249.15C110.09 248.48 111.35 247.93 112.66 247.51C112.5 247.23 112.34 246.95 112.17 246.67C110.96 248.03 109.67 249.31 108.31 250.52C107.88 250.9 108.43 251.59 108.92 251.31C110.42 250.41 111.85 249.41 113.21 248.32C113.65 247.97 113.06 247.19 112.6 247.53C111.72 248.21 110.79 248.81 109.82 249.35L110.5 250.03C110.82 249.6 111.13 249.16 111.48 248.75C111.9 248.27 111.19 247.56 110.77 248.04C110.36 248.51 110.01 249.02 109.63 249.52C109.31 249.94 109.91 250.42 110.31 250.2C111.28 249.66 112.21 249.06 113.09 248.38C112.89 248.12 112.69 247.86 112.48 247.59C111.187 248.63 109.824 249.579 108.4 250.43C108.6 250.69 108.8 250.95 109.01 251.22C110.37 250.01 111.66 248.73 112.87 247.37C113.18 247.02 112.89 246.37 112.38 246.53C110.98 246.97 109.64 247.55 108.36 248.27C107.8 248.58 108.3 249.45 108.86 249.13C110.17 248.4 111.49 247.68 112.8 246.95C112.63 246.66 112.46 246.37 112.3 246.09C109.84 247.7 107.32 249.19 104.72 250.56C104.89 250.85 105.06 251.14 105.22 251.42C107.31 249.93 109.4 248.45 111.48 246.96C112 246.59 111.56 245.81 110.98 246.1C108.65 247.25 106.28 248.34 103.7 248.76C103.83 249.06 103.96 249.37 104.09 249.67C107.25 247.76 110.41 245.86 113.57 243.95C113.37 243.69 113.17 243.43 112.96 243.16C111.24 245.11 109.08 247.07 106.3 246.84C106.34 247.17 106.39 247.49 106.43 247.82C106.68 247.78 106.94 247.73 107.19 247.69C107.8 247.59 107.56 246.77 107.06 246.71C106.57 246.65 106.09 246.56 105.6 246.52C105.09 246.47 104.94 247.22 105.35 247.45C105.42 247.49 105.49 247.53 105.56 247.58C105.68 247.66 105.66 247.61 105.5 247.41C105.62 247.2 105.73 247 105.85 246.79C106.02 246.75 105.75 246.75 105.71 246.75C105.59 246.74 105.47 246.76 105.35 246.79C104.95 246.89 104.84 247.51 105.23 247.7C105.41 247.79 104.82 248.53 104.69 248.69C104.43 249.02 104.65 249.75 105.18 249.53C105.67 249.32 106.18 249.22 106.67 249.02C106.48 248.78 106.29 248.53 106.11 248.29C105.74 248.79 105.3 249.24 104.8 249.61C105 249.87 105.2 250.13 105.41 250.4C105.88 250 106.36 249.6 106.84 249.2L106.13 248.49C105.38 249.17 104.71 249.92 104.1 250.73C103.83 251.09 104.28 251.58 104.66 251.46C105.56 251.2 106.47 251.03 107.41 250.97L106.93 250.34C106.553 251.61 105.869 252.767 104.94 253.71C105.2 253.91 105.46 254.11 105.73 254.32C106.04 253.83 106.02 253.87 106.57 253.68C106.41 253.4 106.25 253.12 106.08 252.84C105.5 253.38 104.86 253.81 104.16 254.15L104.84 254.83C105.19 254.34 105.68 254.16 106.22 253.93C105.98 253.83 105.73 253.73 105.49 253.63C105.58 254 105.44 254.23 105.26 254.55C104.94 255.17 105.81 255.68 106.12 255.12V255.12Z" fill="#1D1D1B"/>
<path d="M107.09 254.73C108.47 253.48 109.85 252.24 111.23 250.99C111.65 250.61 111.1 249.9 110.62 250.2C108.67 251.46 106.72 252.72 104.77 253.99C104.97 254.25 105.17 254.51 105.38 254.78C106.43 253.76 107.49 252.74 108.54 251.72C108.88 251.4 108.53 250.68 108.05 250.88C106.38 251.58 104.81 252.46 103.37 253.55C103.57 253.81 103.77 254.07 103.98 254.34C105.09 253.22 106.21 252.1 107.32 250.98C107.73 250.57 107.21 249.94 106.71 250.19C105.11 251.01 103.58 251.93 102.11 252.96L102.79 253.64L104.65 250.73C104.87 250.38 104.5 249.83 104.09 250C103.24 250.33 102.4 250.66 101.55 250.99C101.76 251.11 101.96 251.22 102.17 251.34C101.83 250.48 101.69 249.6 101.74 248.68C101.77 248.11 100.91 248.01 100.76 248.55C100.44 249.69 100.32 250.86 100.4 252.04C100.44 252.58 101.23 252.74 101.38 252.17C101.68 251.02 101.42 249.91 100.66 249C100.43 248.72 99.89 248.86 99.82 249.22C99.54 250.77 99.6 252.33 100.02 253.84C100.17 254.4 100.96 254.26 101 253.71C101.09 252.47 101.01 251.24 100.8 250.01C100.7 249.43 99.84 249.61 99.82 250.14C99.75 251.57 100.47 252.85 101.71 253.55C102.02 253.72 102.32 253.55 102.44 253.25C103.04 251.78 103 250.15 101.61 249.16C101.32 248.95 100.82 249.23 100.86 249.59C101.02 251.16 101.5 252.65 102.3 254.02C102.54 254.42 103.28 254.28 103.23 253.77C103.06 252.06 102.63 250.42 101.91 248.86C101.62 249.03 101.33 249.2 101.05 249.36L103 252.15C103.34 252.63 104 252.32 103.91 251.76C103.82 251.14 103.8 250.52 103.69 249.9C103.39 250.03 103.08 250.16 102.78 250.29C103.25 251.17 103.72 252.05 104.19 252.94C104.45 253.43 105.3 253.09 105.1 252.55C104.89 251.99 104.65 251.44 104.44 250.88C104.328 250.605 104.232 250.325 104.15 250.04L104.1 249.84C104.05 249.81 103.45 250.28 103.43 250.16C103.43 250.18 103.57 250.3 103.58 250.32C103.91 250.68 104.59 250.31 104.42 249.83C104.12 249.03 103.83 248.23 103.53 247.44C103.23 247.57 102.92 247.7 102.62 247.83L104.27 250.38C104.57 250.84 105.37 250.56 105.18 249.99C104.81 248.84 104.38 247.72 103.89 246.62C103.6 246.79 103.31 246.96 103.03 247.12C103.41 247.68 103.85 248.19 104.24 248.74C104.55 249.18 105.33 248.93 105.15 248.35C104.96 247.72 104.84 247.07 104.64 246.44C104.34 246.57 104.03 246.7 103.73 246.83C103.91 247.13 104.09 247.44 104.27 247.74C104.55 248.21 105.4 247.9 105.18 247.35C104.87 246.55 104.55 245.75 104.24 244.95C103.94 245.08 103.63 245.21 103.33 245.34C103.86 246.16 104.31 247.03 104.66 247.94C104.89 248.53 105.8 248.31 105.62 247.67C105.31 246.56 104.99 245.45 104.68 244.34C104.38 244.47 104.07 244.6 103.77 244.73C104.21 245.73 104.64 246.72 105.08 247.72C105.37 247.55 105.66 247.38 105.94 247.22C105.57 246.69 105.05 246.32 104.62 245.85C104.41 245.62 103.98 245.67 103.83 245.95C103.49 246.61 102.94 247.1 102.7 247.82L103.61 247.7C103.4 247.35 103.18 247.01 102.97 246.66C102.73 246.27 102.21 246.39 102.06 246.78C101.784 247.513 101.606 248.28 101.53 249.06C101.5 249.41 101.6 249.82 102.04 249.83C102.45 249.83 102.59 249.42 102.72 249.11L101.76 248.84C101.65 249.64 101.65 250.41 101.77 251.21C101.85 251.7 102.63 251.67 102.73 251.21C103.06 249.73 103.34 248.23 103.57 246.73C103.66 246.1 102.82 245.84 102.61 246.46C102.13 247.87 102.27 249.4 103.58 250.29C103.8 250.44 104.15 250.34 104.26 250.11C104.52 249.59 104.69 249.22 104.65 248.63C104.62 248.25 104.09 247.9 103.8 248.28C103 249.32 102.56 250.52 102.58 251.84C102.58 252.2 103.01 252.48 103.33 252.27C103.45 252.16 103.59 252.12 103.75 252.16C103.63 252 103.51 251.84 103.38 251.68C103.32 252.7 103.37 253.71 103.51 254.72C103.58 255.2 104.2 255.14 104.42 254.84C105.15 253.84 105.61 252.69 105.78 251.47C105.87 250.84 105.06 250.6 104.82 251.2C104.46 252.11 104.29 253.16 103.39 253.71C102.98 253.95 103.13 254.67 103.64 254.64C104.31 254.61 104.98 254.64 105.64 254.54C106.19 254.46 106.07 253.51 105.51 253.56C104.8 253.62 104.21 253.91 103.55 254.15C103.28 254.25 103.04 254.61 103.25 254.88C103.65 255.41 104.09 255.61 104.73 255.74C105.36 255.86 105.63 254.9 105 254.78C104.66 254.71 104.34 254.68 104.12 254.38C104.02 254.62 103.92 254.87 103.82 255.11C104.38 254.91 104.92 254.61 105.52 254.56C105.48 254.23 105.43 253.91 105.39 253.58C104.82 253.66 104.23 253.61 103.65 253.64C103.73 253.95 103.82 254.26 103.9 254.57C105.07 253.87 105.33 252.65 105.79 251.47L104.83 251.2C104.677 252.332 104.244 253.407 103.57 254.33L104.48 254.45C104.35 253.53 104.33 252.6 104.38 251.67C104.39 251.47 104.22 251.22 104.01 251.19C103.57 251.11 103.2 251.16 102.82 251.41C103.07 251.55 103.32 251.7 103.57 251.84C103.56 250.81 103.86 249.81 104.5 248.99C104.22 248.87 103.93 248.75 103.65 248.64C103.68 249.06 103.59 249.25 103.4 249.62C103.63 249.56 103.86 249.5 104.08 249.44C103.16 248.81 103.25 247.68 103.57 246.74L102.61 246.47C102.38 247.97 102.1 249.47 101.77 250.95H102.73C102.64 250.34 102.63 249.72 102.72 249.11C102.81 248.47 102.01 248.25 101.76 248.84C101.63 249.15 101.64 248.83 102.04 248.82C102.16 248.87 102.28 248.92 102.39 248.97C102.71 249.34 102.46 249.33 102.52 249.12C102.53 249.08 102.54 249.01 102.54 248.97C102.58 248.73 102.63 248.49 102.68 248.26C102.77 247.86 102.86 247.44 103.02 247.05L102.11 247.17C102.32 247.52 102.54 247.86 102.75 248.21C102.98 248.59 103.53 248.5 103.66 248.09C103.86 247.47 104.39 247.03 104.69 246.46C104.43 246.49 104.17 246.53 103.9 246.56C104.27 246.97 104.75 247.28 105.07 247.73C105.45 248.26 106.19 247.81 105.93 247.23C105.49 246.23 105.06 245.24 104.62 244.24C104.39 243.71 103.56 244.09 103.71 244.63C104.02 245.74 104.34 246.85 104.65 247.96L105.61 247.69C105.23 246.7 104.76 245.75 104.18 244.85C103.89 244.4 103.05 244.68 103.27 245.24C103.58 246.04 103.9 246.84 104.21 247.64C104.51 247.51 104.82 247.38 105.12 247.25C104.94 246.95 104.76 246.64 104.58 246.34C104.3 245.86 103.49 246.17 103.67 246.73C103.87 247.36 103.99 248.01 104.18 248.64C104.48 248.51 104.79 248.38 105.09 248.25C104.7 247.7 104.25 247.19 103.88 246.63C103.52 246.09 102.76 246.55 103.02 247.13C103.47 248.15 103.87 249.2 104.21 250.26C104.51 250.13 104.82 250 105.12 249.87L103.47 247.32C103.18 246.87 102.35 247.15 102.56 247.71C102.86 248.51 103.15 249.31 103.45 250.1C103.73 249.94 104.01 249.78 104.29 249.61C104.03 249.33 103.63 249.06 103.28 249.39C103.01 249.64 103.11 250.04 103.2 250.35C103.44 251.2 103.84 252 104.14 252.82C104.44 252.69 104.75 252.56 105.05 252.43C104.58 251.55 104.11 250.67 103.64 249.78C103.36 249.25 102.63 249.63 102.73 250.17C102.85 250.78 102.86 251.41 102.95 252.03C103.25 251.9 103.56 251.77 103.86 251.64L101.91 248.85C101.54 248.32 100.78 248.77 101.05 249.35C101.682 250.745 102.081 252.235 102.23 253.76C102.54 253.68 102.85 253.59 103.16 253.51C102.447 252.313 102.003 250.976 101.86 249.59C101.61 249.73 101.36 249.88 101.11 250.02C102.11 250.73 101.88 251.99 101.48 252.98C101.72 252.88 101.97 252.78 102.21 252.68C101.26 252.14 100.76 251.22 100.82 250.13C100.49 250.17 100.17 250.22 99.84 250.26C100.04 251.4 100.09 252.54 100.01 253.69C100.34 253.65 100.66 253.6 100.99 253.56C100.619 252.228 100.551 250.831 100.79 249.47C100.51 249.54 100.23 249.62 99.95 249.69C100.48 250.32 100.62 251.1 100.42 251.89C100.75 251.93 101.07 251.98 101.4 252.02C101.33 250.92 101.43 249.86 101.72 248.8C101.39 248.76 101.07 248.71 100.74 248.67C100.68 249.68 100.83 250.66 101.2 251.6C101.29 251.83 101.54 252.06 101.82 251.95C102.67 251.62 103.51 251.29 104.36 250.96C104.17 250.72 103.98 250.47 103.8 250.23L101.94 253.14C101.68 253.55 102.21 254.11 102.62 253.82C104.09 252.79 105.62 251.86 107.22 251.05C107.02 250.79 106.82 250.53 106.61 250.26C105.5 251.38 104.38 252.5 103.27 253.62C102.88 254.01 103.41 254.76 103.88 254.41C105.25 253.37 106.74 252.5 108.32 251.84C108.16 251.56 108 251.28 107.83 251C106.78 252.02 105.72 253.04 104.67 254.06C104.27 254.45 104.79 255.16 105.28 254.85C107.23 253.59 109.18 252.33 111.13 251.06C110.93 250.8 110.73 250.54 110.52 250.27C109.14 251.52 107.76 252.76 106.38 254.01C105.91 254.46 106.62 255.16 107.09 254.73V254.73Z" fill="#1D1D1B"/>
<path d="M109.22 253.73C110.01 252.99 110.79 252.24 111.55 251.48C111.72 251.31 111.74 251.02 111.59 250.82C111.45 250.64 111.15 250.54 110.94 250.69L106.52 254C106.3 254.16 106.19 254.43 106.34 254.68C106.46 254.89 106.81 255.02 107.02 254.86L111.44 251.55C111.24 251.29 111.04 251.03 110.83 250.76C110.07 251.52 109.29 252.27 108.5 253.01C108.04 253.46 108.75 254.17 109.22 253.73V253.73Z" fill="#1D1D1B"/>
<path d="M107.21 238.09C106.96 238.19 106.76 238.35 106.6 238.57C106.76 238.12 107.02 237.47 106.63 238.38C106.43 238.1 107.47 238.1 107.26 238.03C107.1 238.31 106.95 238.6 106.79 238.88C106.97 238.65 107.16 238.43 107.34 238.2C107.19 238.64 107.12 239.09 106.98 239.52C107.23 239.37 107.36 239.15 107.37 238.86C107.21 239.28 107.01 239.74 106.83 240.15C106.95 238.7 106.08 240.85 105.76 241.4C106.01 240.89 106.21 240.35 106.45 239.83C105.95 240.48 105.51 241.16 105.11 241.87C105.66 241.02 106.22 240.17 106.77 239.32C105.87 240.51 105.09 241.8 104.44 243.15C105.24 242.02 105.94 240.83 106.55 239.6C105.368 240.942 104.464 242.506 103.89 244.2C104.88 242.77 105.74 241.25 106.46 239.67C105.48 240.94 104.74 242.38 104.28 243.91C105.341 242.721 106.218 241.38 106.88 239.93C105.76 241.31 104.96 242.93 104.52 244.65C105.262 243.655 105.799 242.524 106.1 241.32C104.923 242.644 104.083 244.232 103.65 245.95C104.1 244.7 104.54 243.45 104.99 242.2C104.021 243.585 103.244 245.096 102.68 246.69C103.4 245.14 104.12 243.6 104.84 242.05C103.578 243.545 102.571 245.237 101.86 247.06L103.6 243.37C102.385 245.152 101.372 247.064 100.58 249.07C101.5 247.54 102.41 246.01 103.33 244.49C101.755 246.705 100.421 249.082 99.35 251.58C100.22 250.15 101.09 248.71 101.96 247.28C101.15 248.56 100.35 249.85 99.54 251.13C100.33 249.59 101.12 248.05 101.91 246.5C100.83 247.866 99.9479 249.378 99.29 250.99C100.04 249.9 100.66 248.72 101.14 247.48C99.9094 249.016 98.8623 250.691 98.02 252.47C98.69 251.46 99.31 250.42 99.88 249.35C99.08 250.55 98.43 251.87 97.95 253.23C98.56 252.43 99.02 251.52 99.3 250.56C98.66 251.38 98.26 252.36 98.14 253.39C98.65 252.7 99.04 251.92 99.27 251.1C98.77 251.88 98.49 252.78 98.47 253.7C99.26 252.94 99.8 251.96 99.99 250.88C99.28 251.78 98.78 252.83 98.54 253.95C99.29 253.22 99.88 252.35 100.27 251.39C99.48 252.39 98.9 253.55 98.57 254.79C98.99 254.22 99.39 253.72 99.72 253.08C99.49 253.41 99.38 253.78 99.38 254.18C99.94 253.62 99.74 253.77 99.97 253.05C99.19 253.23 98.91 253.41 98.51 254.11C99.21 253.95 99.3 253.94 99.87 253.49C99.57 253.36 99.27 253.38 98.99 253.55C99.2 254.19 99.37 254.8 99.88 255.28C99.66 254.56 99.41 254.22 98.92 253.67C98.87 254.42 99.2 255.06 99.83 255.48C99.5 254.98 99.25 254.63 98.82 254.21C99.12 254.82 99.34 255.13 99.81 255.62C99.5 254.87 98.98 254.22 98.3 253.78C98.5 254.68 99.05 255.42 99.84 255.88C99.64 255.06 99.15 254.37 98.44 253.91C98.79 254.73 99.38 255.43 100.13 255.91C100.24 255.21 100.33 255.11 99.94 254.46C99.46 256.94 103.11 254.73 100.52 253.9C100.59 254.82 101.14 255.41 102.08 255.44C102.2 254.69 101.96 254 101.41 253.47C100.81 254.4 101.35 255.17 102.44 254.8C101.13 252.3 101.02 257.56 103.03 255.2C102.41 254.86 102.2 254.65 101.45 254.81C102.23 255.37 103.17 255.61 104.13 255.49C103.15 255.55 102.18 255.71 101.23 255.97C101.7 255.97 102.17 255.94 102.64 255.89M115.94 247.85C117.48 245.62 117.95 242.95 118.06 240.29" stroke="#1D1D1B" stroke-miterlimit="10" stroke-linejoin="round"/>
<path d="M104.06 255.5C104.86 254.23 105.83 253.1 106.96 252.11C107.34 251.78 106.94 251.13 106.47 251.27C104.64 251.84 103 252.91 101.58 254.17C101.31 254.41 101.44 254.94 101.8 255.01C103.18 255.26 104.63 254.61 104.46 253.01C104.13 253.05 103.81 253.1 103.48 253.14C103.6 253.74 104.07 254.12 104.69 254.01C105.27 253.9 105.78 253.5 106.25 253.16C107.51 252.22 109.3 250.87 110.89 251.75V250.89C109.95 251.57 108.95 252.19 108.17 253.07C107.75 253.55 108.45 254.26 108.88 253.78C109.6 252.96 110.52 252.39 111.4 251.76C111.69 251.55 111.75 251.09 111.4 250.9C109.82 250.02 107.99 250.71 106.6 251.67C106.11 252 105.67 252.39 105.17 252.71C104.98 252.84 104.76 252.98 104.53 253.03C104.48 253.04 104.44 253.02 104.48 253.05C104.52 253.09 104.45 252.88 104.45 252.88C104.34 252.34 103.41 252.45 103.47 253.01C103.56 253.91 102.88 254.19 102.07 254.05C102.14 254.33 102.22 254.61 102.29 254.89C103.58 253.75 105.08 252.76 106.74 252.25C106.58 251.97 106.42 251.69 106.25 251.41C105.063 252.451 104.036 253.66 103.2 255C102.86 255.54 103.72 256.05 104.06 255.5V255.5Z" fill="#1D1D1B"/>
<path d="M110.37 247.59C109.188 248.784 107.896 249.862 106.51 250.81C106.71 251.07 106.91 251.33 107.12 251.6C108 250.58 108.95 249.62 109.97 248.75C110.47 248.33 109.76 247.65 109.26 248.04C108.29 248.81 107.41 249.66 106.6 250.6C106.17 251.09 106.81 251.71 107.31 251.31C108.86 250.05 110.46 248.85 112.1 247.71C111.9 247.45 111.7 247.19 111.49 246.92C108.82 249.58 106.15 252.23 103.48 254.89C103.02 255.34 103.73 256.05 104.19 255.6C106.86 252.94 109.53 250.29 112.2 247.63C112.59 247.24 112.07 246.51 111.59 246.84C109.876 248.022 108.212 249.273 106.6 250.59L107.31 251.3C108.12 250.37 109.01 249.51 109.97 248.74L109.26 248.03C108.23 248.9 107.28 249.85 106.41 250.88C106.07 251.28 106.52 252.01 107.02 251.67C108.48 250.67 109.84 249.55 111.08 248.29C111.53 247.84 110.83 247.13 110.37 247.59V247.59Z" fill="#1D1D1B"/>
<path d="M117.23 239.45C114.878 243.939 112.144 248.218 109.06 252.24C111.28 252.01 114.91 248.19 115.62 246.13C113.72 248.24 111.9 250.43 110.19 252.7C111.047 252.076 111.769 251.284 112.312 250.373C112.855 249.462 113.208 248.451 113.35 247.4C112.01 248.26 111.17 249.66 110.44 251.03C111.449 250.649 112.32 249.973 112.94 249.09C112.319 249.539 111.79 250.103 111.38 250.75C112.31 249.76 113.23 248.75 114.12 247.71C113.64 248.55 113.15 249.39 112.67 250.22C113.69 249.47 114.59 248.56 115.33 247.54L113.02 250.21C114.04 249.36 114.97 248.4 115.8 247.36C115.04 248.13 114.27 248.89 113.51 249.66C115.7 247.3 116.77 244 116.38 240.8C115.9 243.08 114.93 245.24 113.54 247.1C114.17 246.02 114.79 244.94 115.42 243.86C114.55 245 113.92 246.34 113.59 247.73C114.364 247.139 115.01 246.396 115.486 245.547C115.963 244.697 116.26 243.759 116.36 242.79C115.64 243.75 115.13 244.86 114.85 246.03C115.88 243.95 116.61 241.74 117.31 239.54C117.13 241.77 116.48 243.92 115.8 246.05C116.79 244.42 117.36 242.55 117.44 240.64L115.91 247.23C116.55 245.88 117.2 244.53 117.84 243.18C117.76 244.14 117.54 245.09 117.18 245.99" stroke="#1D1D1B" stroke-miterlimit="10" stroke-linejoin="round"/>
<path d="M112.31 246.45C112.11 245.54 112.26 244.55 112.73 243.74C112.25 244.9 111.7 246.03 111.08 247.13C111.96 245.88 112.73 244.54 113.36 243.14C112.47 244.022 111.76 245.068 111.27 246.22C111.88 245.83 112.33 245.22 112.52 244.52C112.04 245.28 111.55 246.04 111.07 246.8C111.25 245.83 111.42 244.76 110.91 243.91C110.5 243.22 109.73 242.84 109.06 242.4C108.283 241.888 107.591 241.257 107.01 240.53C106.81 240.28 106.62 239.95 106.78 239.67C106.9 239.45 107.2 239.39 107.44 239.46C107.68 239.53 107.87 239.7 108.06 239.86C108.62 240.35 109.17 240.85 109.73 241.34C108.96 240.66 108.2 239.98 107.43 239.29C108.17 240.34 109.05 241.3 110.04 242.12C109.12 241.56 108.25 240.91 107.39 240.26C107.5 240.08 107.77 240.09 107.97 240.16C108.53 240.35 108.94 240.82 109.38 241.21C109.82 241.6 110.39 241.96 110.97 241.84C110.322 240.802 109.337 240.018 108.18 239.62C109.46 240.02 110.75 240.42 112.03 240.81C110.885 240.653 109.752 240.416 108.64 240.1C110.2 240.8 111.81 241.38 113.47 241.81C112.74 241.48 111.95 241.26 111.16 241.18C112.31 240.97 113.44 240.68 114.55 240.32C113.6 240.52 112.68 240.85 111.83 241.3C113.15 241.04 114.45 240.65 115.7 240.13C115.32 240.22 114.97 240.4 114.68 240.65C115.11 240.39 115.57 240.18 116.05 240.04L113.36 242.22C114.24 241.91 115.08 241.48 115.85 240.95C114.72 241.27 113.64 241.77 112.66 242.43C112.74 242.8 113.29 242.74 113.64 242.59C114.4 242.26 115.24 241.87 115.57 241.11C114.254 242.18 113.318 243.646 112.9 245.29C113.2 245.45 113.6 245.35 113.87 245.14C114.14 244.92 114.31 244.61 114.47 244.31C114.9 243.49 115.29 242.53 114.96 241.66C113.67 242.42 113.22 244.02 112.87 245.48C113.1 245.57 113.32 245.32 113.44 245.1C113.93 244.25 114.32 243.34 114.62 242.41C113.8 243.39 113.04 244.43 112.37 245.52C112.48 244.83 112.56 244.14 112.61 243.44C112.64 243.11 112.63 242.72 112.38 242.51C112.13 242.3 111.61 242.57 111.77 242.86C111.94 242.56 112.12 242.26 112.29 241.95C112.06 242.32 111.91 242.73 111.84 243.16C111.8 243.46 112.01 243.89 112.26 243.73C112.44 243.15 112.1 242.47 111.53 242.26C111.48 242.74 111.66 243.24 112 243.59C111.8 242.86 111.45 242.18 110.97 241.59C110.83 242.36 111.36 243.19 112.11 243.39C111.73 242.89 111.25 242.47 110.72 242.14C110.66 242.24 110.59 242.36 110.64 242.48C110.68 242.59 110.88 242.62 110.91 242.5C110.84 242.99 111.13 243.51 111.58 243.71" stroke="#1D1D1B" stroke-miterlimit="10" stroke-linejoin="round"/>
<path d="M97.5 253.29C97.76 254.91 99.12 256.28 100.74 256.55C101.38 256.66 102.04 256.61 102.67 256.49C105.22 256.02 107.45 254.54 109.56 253.05C111.78 251.48 113.96 249.84 115.88 247.92C116.34 247.46 116.79 246.97 117.07 246.37C117.34 245.79 117.42 245.14 117.48 244.5C117.67 242.54 117.69 240.56 117.55 238.59C117.54 238.52 117.53 238.43 117.46 238.4C117.39 238.37 117.34 238.52 117.42 238.51M139.64 246.24C139.77 245.17 139.72 244.08 139.5 243.02C139.7 244.19 139.9 245.36 140.09 246.52C140.13 245.34 139.99 244.17 139.67 243.04C139.99 243.99 140.31 244.94 140.63 245.9C140.74 245.01 140.77 244.11 140.72 243.22C140.82 243.85 141.03 244.35 141.21 244.96C141.23 244.34 141.36 243.72 141.36 243.1C141.51 243.99 141.66 244.88 141.81 245.76C141.88 245.01 141.95 244.26 142.03 243.5C142.13 243.82 142.22 244.14 142.32 244.46C142.42 243.8 142.67 243.15 142.76 242.49C142.9 243.31 142.94 244.15 142.87 244.99C142.98 244.33 143.17 243.68 143.29 243.02C143.28 243.52 143.38 244.03 143.39 244.54C143.69 243.86 143.99 243.17 144.29 242.49C144.11 242.91 143.94 243.32 143.76 243.74C144.37 243.36 144.91 242.86 145.33 242.27C144.7 242.72 144.15 243.29 143.73 243.95C144.57 243.43 145.33 242.8 146 242.07C145.48 242.45 145.17 242.85 144.76 243.34C145.66 243.14 146.46 242.66 147.06 241.96C146.22 242.44 145.5 243.1 144.94 243.88C145.73 243.34 146.43 242.68 147.02 241.92C146.3 243.18 147.65 241.77 148.11 241.32C147.76 241.64 147.55 241.95 147.25 242.3C147.75 241.92 148.34 241.74 148.83 241.3C149.17 241.73 149.25 241.54 149.46 242.18" stroke="#1D1D1B" stroke-miterlimit="10" stroke-linejoin="round"/>
<path d="M140.06 246.47C140.06 245.94 139.94 245.42 139.75 244.92C139.65 244.66 139.54 244.41 139.43 244.15C139.38 244.03 139.33 243.92 139.28 243.8C139.25 243.74 139.23 243.68 139.2 243.61C139.19 243.59 139.12 243.42 139.15 243.5C139.05 243.26 138.81 243.06 138.53 243.15C138.25 243.24 138.13 243.49 138.18 243.77C138.29 244.43 138.44 245.09 138.62 245.74C138.69 245.99 138.98 246.17 139.24 246.09C139.5 246.01 139.67 245.74 139.59 245.47C139.41 244.82 139.26 244.17 139.15 243.5L138.19 243.77C138.3 244.03 138.41 244.28 138.53 244.54C138.58 244.65 138.63 244.76 138.67 244.86C138.64 244.79 138.71 244.96 138.72 244.97C138.74 245.02 138.76 245.08 138.78 245.13C138.86 245.35 138.94 245.58 138.99 245.81C139 245.87 139.02 245.94 139.03 246C139.03 246.02 139.05 246.16 139.04 246.06C139.06 246.19 139.06 246.32 139.06 246.45C139.06 246.71 139.29 246.96 139.56 246.95C139.83 246.96 140.06 246.75 140.06 246.47V246.47Z" fill="#1D1D1B"/>
<path d="M138.17 242.73C138.16 242.27 138.15 241.81 138.15 241.35C138.42 242.17 138.7 242.98 138.97 243.8C138.959 243.05 138.782 242.312 138.45 241.64C139.05 241.99 139.65 242.35 140.25 242.7C139.82 242.42 139.4 242.1 138.98 241.82C139.64 242.14 140.34 242.37 141.06 242.48C140.26 241.86 139.33 241.43 138.35 241.2C142.05 242.2 145.61 242.88 148.42 239.5C150.29 242.68 140.76 244.14 139.17 245.43" stroke="#1D1D1B" stroke-miterlimit="10" stroke-linejoin="round"/>
<path d="M147.15 254.77C147.66 253.62 148.12 252.46 148.53 251.28C148.74 250.67 147.79 250.42 147.57 251.01C147.105 252.278 146.875 253.62 146.89 254.97C146.89 255.54 147.7 255.64 147.87 255.1C148.36 253.57 148.85 252.05 149.34 250.52L148.38 250.25C148.22 251.03 148.14 251.82 148.13 252.62C148.13 253.2 148.94 253.28 149.11 252.75C149.55 251.4 149.82 250.01 149.93 248.59C149.98 248.03 149.05 247.9 148.95 248.46C148.52 250.68 148.49 252.93 148.83 255.16C148.91 255.65 149.7 255.62 149.79 255.16C150.23 253.1 150.56 251.02 150.77 248.92H149.77C149.64 250.35 149.65 251.79 149.8 253.21C149.83 253.46 149.97 253.67 150.23 253.7C150.46 253.73 150.73 253.59 150.78 253.34C150.94 252.41 151.11 251.48 151.27 250.54C150.94 250.5 150.62 250.45 150.29 250.41C150.27 250.88 150.19 251.8 150.9 251.78C151.54 251.76 151.54 250.76 150.9 250.78H150.87C150.95 250.8 151.04 250.83 151.12 250.85C151.35 251 151.28 251.14 151.28 250.85C151.28 250.7 151.29 250.56 151.29 250.41C151.31 249.86 150.41 249.72 150.31 250.28C150.15 251.21 149.98 252.14 149.82 253.08C150.15 253.12 150.47 253.17 150.8 253.21C150.65 251.78 150.64 250.35 150.77 248.92C150.79 248.65 150.52 248.42 150.27 248.42C149.98 248.42 149.8 248.65 149.77 248.92C149.57 250.93 149.25 252.92 148.83 254.89H149.79C149.47 252.85 149.52 250.75 149.91 248.72C149.58 248.68 149.26 248.63 148.93 248.59C148.82 249.92 148.55 251.22 148.14 252.48C148.47 252.52 148.79 252.57 149.12 252.61C149.12 251.9 149.19 251.2 149.33 250.5C149.46 249.87 148.56 249.62 148.37 250.23C147.88 251.76 147.39 253.28 146.9 254.81C147.23 254.85 147.55 254.9 147.88 254.94C147.87 253.67 148.09 252.43 148.52 251.24L147.56 250.97C147.17 252.07 146.75 253.16 146.28 254.23C146.17 254.48 146.21 254.76 146.46 254.91C146.68 255.08 147.04 255.02 147.15 254.77V254.77Z" fill="#1D1D1B"/>
<path d="M146.25 253.75C146.62 253.13 146.98 252.51 147.35 251.89C147.05 251.76 146.74 251.63 146.44 251.5C146.2 252.13 146.08 252.8 145.92 253.46C145.79 253.99 146.57 254.37 146.83 253.85L148.84 249.83C149.13 249.26 148.29 248.76 147.98 249.33C147.13 250.89 146.5 252.57 146.12 254.3C145.98 254.93 146.95 255.2 147.08 254.57C147.44 252.91 148.03 251.32 148.84 249.83C148.55 249.66 148.26 249.49 147.98 249.33L145.97 253.35C146.27 253.48 146.58 253.61 146.88 253.74C147.04 253.08 147.16 252.42 147.4 251.78C147.61 251.24 146.77 250.92 146.49 251.39C146.12 252.01 145.76 252.63 145.39 253.25C145.05 253.8 145.92 254.3 146.25 253.75V253.75Z" fill="#1D1D1B"/>
<path d="M145.71 253.73C146.23 253.11 146.71 252.45 147.16 251.77C146.87 251.6 146.58 251.43 146.3 251.27L145.34 253.22C145.22 253.45 145.27 253.77 145.52 253.9C145.75 254.02 146.08 253.97 146.2 253.72L147.16 251.77C147.28 251.54 147.23 251.22 146.98 251.09C146.866 251.025 146.73 251.007 146.603 251.041C146.476 251.075 146.367 251.157 146.3 251.27C146.09 251.59 145.88 251.9 145.65 252.2C145.59 252.28 145.53 252.36 145.47 252.43C145.45 252.46 145.43 252.49 145.4 252.52C145.37 252.56 145.37 252.56 145.41 252.51C145.4 252.53 145.38 252.55 145.36 252.57C145.24 252.72 145.12 252.88 144.99 253.03C144.897 253.123 144.843 253.248 144.84 253.38C144.84 253.5 144.89 253.65 144.99 253.73C145.19 253.9 145.53 253.95 145.71 253.73V253.73Z" fill="#1D1D1B"/>
<path d="M144.73 252.65C143.73 249.81 142.09 247.1 140.74 244.41C141.98 247.37 143.45 250.23 145.14 252.96C143.97 250.16 142.72 247.38 141.39 244.65C142.67 247.19 143.96 249.73 145.24 252.27C144.5 249.48 143.33 246.81 141.78 244.39L143.43 248.59C143.05 247.36 142.61 246.16 142.1 244.98C142.21 245.29 142.41 245.51 142.71 245.64C142.68 244.32 142.31 242.98 141.64 242.47C141.61 242.83 141.67 243.17 141.8 243.5C144.21 241.95 147.08 243.15 148.53 239.95C147.96 240.15 147.94 240.24 147.53 240.65C149.25 240.81 149.95 242.62 150.22 244.11C149.9 243.59 149.52 243.08 149.22 242.54C150.1 244.2 150.88 245.9 151.58 247.64C150.6 246.11 149.61 244.58 148.63 243.05C149.96 245.29 151.06 247.67 151.9 250.13C151.02 247.95 150.24 245.73 149.58 243.48L152.19 249.84C151.53 247.99 150.86 246.14 150.2 244.3C151.3 246.1 152.3 247.96 153.22 249.86C152.5 248.34 151.77 246.83 151.05 245.31C151.7 246.46 152.35 247.6 152.99 248.75C152.04 247.62 151.09 246.48 150.14 245.35C151.78 247.49 153.23 249.78 154.47 252.17C153.69 251.08 152.9 250 152.12 248.91C152.81 250.48 153.5 252.05 154.18 253.62C153.34 251.59 152.36 249.61 151.24 247.71C152.05 249.76 152.87 251.81 153.68 253.86C153.17 252.13 152.51 250.45 151.73 248.82L153.11 254.39C152.5 251.79 151.75 249.22 150.86 246.7C150.63 247.83 150.75 249.01 151.21 250.07C151.27 249.19 151.14 248.31 150.81 247.49C150.69 248 150.44 248.51 150.34 249.03C150.35 248.34 150.24 247.66 150.24 246.97C150.03 247.72 149.74 248.45 149.38 249.14C149.3 248.31 149.45 247.49 149.81 246.74C149.35 247.96 148.74 249.13 148 250.2C148.36 249.49 148.82 248.84 149.35 248.25L146.72 250.16C147.17 249.86 147.59 249.47 148.01 249.13C147.06 249.33 146.15 249.69 145.32 250.2C145.84 249.84 146.08 249.61 146.66 249.33L144.57 249.78C145.37 249.4 146.2 249.11 147.06 248.91C146.16 248.84 145.25 248.94 144.38 249.2C145.24 248.83 146.14 248.57 147.06 248.42C146.26 248.69 145.44 248.9 144.61 249.05C145.89 248.89 147.17 248.74 148.44 248.58C148.07 248.427 147.679 248.333 147.28 248.3C147.76 248.05 148.33 247.74 148.84 247.56C148.49 247.8 148.14 248.05 147.79 248.29C147.99 248.15 148.2 248.01 148.4 247.87C148.16 248.17 147.84 248.54 147.62 248.85C148.19 248.38 148.53 248.24 149.2 247.96C148.09 249.01 146.99 250.06 145.88 251.11C146.41 250.58 146.89 249.99 147.3 249.36C146.83 250.61 146.36 251.85 145.88 253.1C146.46 251.94 146.97 250.75 147.39 249.53C146.11 250.13 145.52 251.8 144.99 253.07" stroke="#1D1D1B" stroke-miterlimit="10" stroke-linejoin="round"/>
<path d="M143.86 250.93C142.89 248.98 141.82 247.08 140.68 245.23C140.34 244.67 139.55 245.16 139.82 245.73C140.82 247.89 142 249.97 143.35 251.93C143.71 252.46 144.58 251.96 144.21 251.43C142.87 249.461 141.689 247.387 140.68 245.23C140.39 245.4 140.1 245.57 139.82 245.73C140.97 247.58 142.03 249.48 143 251.43C143.28 252.01 144.14 251.51 143.86 250.93Z" fill="#1D1D1B"/>
<path d="M143.07 250.22C142.19 248.82 141.3 247.43 140.42 246.03C140.08 245.49 139.22 245.98 139.56 246.53C140.3 247.74 141.04 248.95 141.79 250.15C142.13 250.7 142.99 250.2 142.65 249.65C141.91 248.44 141.17 247.23 140.42 246.03C140.13 246.2 139.84 246.37 139.56 246.53C140.44 247.93 141.33 249.32 142.21 250.72C142.55 251.27 143.42 250.77 143.07 250.22ZM152.16 257.82C152.91 256.36 151.56 255.28 150.44 254.59C150.17 254.42 149.78 254.58 149.71 254.89C149.55 255.56 149.56 256.28 149.87 256.91C150.19 257.57 150.79 257.9 151.5 257.99C151.77 258.02 152 257.73 152 257.49C152.035 255.601 151.494 253.745 150.45 252.17C150.22 251.82 149.66 251.86 149.54 252.29C148.96 254.3 149.8 256.5 151.58 257.61C151.87 257.79 152.21 257.6 152.31 257.31C152.62 256.46 152.83 255.53 152.78 254.63C152.72 253.65 152.34 252.8 151.62 252.13C151.37 251.89 151.05 251.65 150.68 251.67C150.33 251.68 150.08 251.94 149.98 252.26C149.76 252.98 150.04 253.87 150.25 254.55C150.53 255.43 151.18 257.12 152.42 256.72C153.35 256.43 153.68 255.2 153.77 254.36C153.9 253.21 153.54 251.84 152.39 251.33C152.04 251.17 151.66 251.36 151.64 251.76C151.6 252.33 151.65 252.91 151.7 253.47C151.77 254.18 151.84 255.01 152.22 255.64C152.6 256.26 153.37 256.38 153.86 255.8C154.37 255.21 154.39 254.28 154.37 253.55C154.35 252.76 154.28 251.91 154.04 251.16C153.89 250.68 153.23 250.69 153.08 251.16C152.65 252.49 152.77 253.89 153.35 255.15C153.51 255.5 154.04 255.45 154.21 255.15C154.68 254.34 154.79 253.39 154.43 252.52C154.22 252.02 153.47 252.05 153.45 252.65C153.4 253.98 153.67 255.27 154.22 256.48C154.4 256.87 155.04 256.76 155.13 256.36C155.35 255.42 155.32 254.47 155.02 253.55C154.88 253.12 154.14 253.03 154.06 253.55C153.93 254.39 153.89 255.23 153.96 256.08C154.02 256.73 154.89 256.72 154.96 256.08C155.02 255.54 155.09 255 155.13 254.46C155.18 253.82 154.19 253.82 154.13 254.46C154.06 255.24 153.93 256 153.73 256.76C153.57 257.38 154.53 257.65 154.69 257.03C154.91 256.19 155.05 255.33 155.12 254.47H154.12C154.08 255.01 154.01 255.55 153.95 256.09H154.95C154.88 255.34 154.89 254.58 155.01 253.83H154.05C154.29 254.58 154.34 255.34 154.16 256.11L155.07 255.99C154.603 254.945 154.387 253.804 154.44 252.66C154.11 252.7 153.79 252.75 153.46 252.79C153.73 253.43 153.7 254.05 153.34 254.65H154.2C153.735 253.638 153.675 252.486 154.03 251.43H153.07C153.23 251.95 153.29 252.48 153.33 253.01C153.38 253.66 153.42 254.35 153.21 254.95C153.18 255.05 153.21 254.97 153.16 255.06C153.15 255.09 153.07 255.2 153.13 255.13C153.11 255.15 153 255.27 153.08 255.19C153.02 255.25 153.01 255.21 153.06 255.21C153.05 255.21 153.15 255.22 153.11 255.21C153.08 255.2 153.13 255.24 153.17 255.25C153.14 255.25 153.05 255.11 153.13 255.22C153.1 255.17 153.07 255.13 153.05 255.08C153.01 255 152.99 254.94 152.94 254.79C152.9 254.64 152.86 254.5 152.83 254.35C152.76 254.03 152.73 253.75 152.7 253.43C152.65 252.89 152.61 252.33 152.65 251.78C152.4 251.92 152.15 252.07 151.9 252.21C152.56 252.5 152.79 253.14 152.8 253.85C152.81 254.29 152.78 254.53 152.65 254.95C152.58 255.16 152.59 255.16 152.5 255.32L152.38 255.53C152.36 255.562 152.336 255.593 152.31 255.62C152.39 255.51 152.29 255.64 152.27 255.66C152.24 255.69 152.1 255.8 152.22 255.71C152.19 255.73 152.01 255.85 152.16 255.76C152.14 255.77 152.1 255.77 152.08 255.79C152.02 255.84 152.18 255.8 152.1 255.79C152.06 255.78 151.97 255.81 152.12 255.8C152.09 255.8 152.03 255.78 152 255.77C152.14 255.84 151.97 255.74 151.94 255.73C152.04 255.8 151.86 255.66 151.83 255.62C151.76 255.54 151.78 255.56 151.7 255.44C151.62 255.32 151.56 255.19 151.49 255.07C151.21 254.49 151.02 253.83 150.93 253.2L150.9 252.9V252.71C150.9 252.71 150.91 252.52 150.9 252.63C150.91 252.48 150.95 252.59 150.83 252.64C150.78 252.65 150.72 252.67 150.67 252.68C150.6 252.66 150.59 252.66 150.65 252.68C150.62 252.63 150.73 252.73 150.77 252.76C152.14 253.78 151.83 255.68 151.31 257.07C151.55 256.97 151.8 256.87 152.04 256.77C150.64 255.9 150 254.16 150.46 252.58L149.55 252.7C150.5 254.13 150.99 255.8 150.96 257.52L151.46 257.02C150.58 256.91 150.48 255.88 150.64 255.19C150.4 255.29 150.15 255.39 149.91 255.49C150.48 255.84 151.7 256.53 151.28 257.36C151.01 257.88 151.87 258.39 152.16 257.82V257.82Z" fill="#1D1D1B"/>
<path d="M151.16 250.76C150.9 252.46 150.97 254.17 151.38 255.84C151.52 256.41 152.33 256.25 152.36 255.71C152.51 253.39 152.53 250.94 151.26 248.89C151 248.46 150.35 248.65 150.33 249.14C150.24 251.41 150.6 253.68 151.37 255.81C151.57 256.35 152.3 256.25 152.35 255.68C152.43 254.85 152.38 253.99 152.3 253.16C152.21 252.28 152.11 251.16 151.5 250.45C150.91 249.77 149.93 250.01 149.55 250.77C149.11 251.64 149.23 252.77 149.35 253.71C149.48 254.68 149.64 255.71 150.02 256.62C150.27 257.21 151.08 257 150.98 256.35C150.74 254.81 149.61 253.59 148.12 253.16C147.78 253.06 147.36 253.41 147.5 253.78C148.098 255.346 149.222 256.654 150.68 257.48C151.2 257.77 151.63 257.12 151.29 256.69C150.56 255.77 149.63 254.96 148.67 254.29C147.9 253.76 146.7 253.02 145.83 253.74C145.33 254.15 146.05 254.86 146.54 254.45C146.52 254.47 146.53 254.45 146.6 254.44C146.59 254.44 146.66 254.43 146.73 254.44C146.83 254.45 147.04 254.52 147.18 254.57C147.64 254.77 148.08 255.07 148.48 255.37C149.25 255.95 149.99 256.64 150.6 257.39C150.8 257.13 151 256.87 151.21 256.6C149.98 255.91 149 254.82 148.49 253.49L147.87 254.11C149.05 254.44 149.84 255.4 150.03 256.6L150.99 256.33C150.73 255.7 150.59 254.99 150.46 254.32C150.31 253.49 150.17 252.58 150.3 251.73C150.32 251.57 150.36 251.39 150.43 251.24C150.42 251.26 150.48 251.15 150.5 251.12C150.46 251.18 150.63 251 150.56 251.06C150.64 251 150.61 251.04 150.66 251.02C150.6 251.05 150.74 251.05 150.65 251.02C150.71 251.04 150.62 250.97 150.72 251.05C150.63 250.98 150.8 251.14 150.78 251.12C151.16 251.63 151.25 252.55 151.32 253.23C151.4 254.03 151.44 254.87 151.36 255.67C151.69 255.63 152.01 255.58 152.34 255.54C151.59 253.48 151.25 251.33 151.33 249.14C151.02 249.22 150.71 249.31 150.4 249.39C151.57 251.28 151.49 253.56 151.36 255.7C151.69 255.66 152.01 255.61 152.34 255.57C151.972 254.082 151.898 252.537 152.12 251.02C152.16 250.75 152.05 250.49 151.77 250.4C151.54 250.34 151.2 250.49 151.16 250.76V250.76Z" fill="#1D1D1B"/>
<path d="M137.89 239.57C137.94 242.75 139.05 245.85 140.74 248.54C142.43 251.23 144.67 253.53 147.1 255.58C147.89 256.25 148.71 256.9 149.61 257.42C150.18 257.75 150.81 258.04 151.48 258.05C152.05 258.05 152.59 257.85 153.12 257.65C153.66 257.45 154.21 257.23 154.59 256.79C155.05 256.25 155.14 255.47 154.98 254.78C154.82 254.09 154.45 253.47 154.06 252.87M109.97 128.06C110.48 128.26 111.01 128.38 111.55 128.49C117.46 129.69 123.59 129.81 129.54 128.85C132.23 128.41 134.97 127.71 137.09 126.01M109.68 49.9599C110.229 48.6264 111.184 47.4997 112.41 46.7399C114.52 45.4299 117.14 45.3499 119.61 45.1499C123.81 44.7999 127.97 43.9799 131.99 42.6999M131.88 42.6899C131.82 43.3799 131.87 44.0799 132.02 44.7499M132.28 45.1799C133.09 45.0799 133.93 45.1499 134.71 45.3899C135.04 45.4899 135.36 45.6199 135.66 45.7899C136.84 46.4599 137.59 47.8299 137.53 49.1799C137.53 49.1199 137.54 49.0599 137.54 48.9899" stroke="#1D1D1B" stroke-miterlimit="10" stroke-linejoin="round"/>
<path d="M106.42 49.6798C106.31 45.8998 107.05 42.1098 108.55 38.6398C109.13 37.2998 109.83 35.9898 110.77 34.8698C111.86 33.5498 113.25 32.4998 114.63 31.4898C115.7 30.7098 116.78 29.9398 117.97 29.3398C123.49 26.5298 130.8 28.1298 134.87 32.7898C138.69 37.1698 139.57 43.3198 140.28 49.0998" stroke="#1D1D1B" stroke-miterlimit="10" stroke-linejoin="round"/>
<defs>
<linearGradient id="paint0_linear_1230_3526" x1="104" y1="23.5" x2="145.5" y2="171" gradientUnits="userSpaceOnUse">
<stop offset="0.203125" stop-color="#0AC4B4"/>
<stop offset="1" stop-color="#079592"/>
</linearGradient>
</defs>
</svg>
