<svg width="266" height="205" viewBox="0 0 266 205" fill="none" xmlns="http://www.w3.org/2000/svg">
<path d="M180 132C179.167 130.5 176.7 127.4 173.5 127C173 126.915 171.5 128 171 129C170.6 129.8 170.167 131.333 170 132L174.5 135.5L176.5 136L178.5 138L180.5 139L183.5 141.5L185.5 140V137.5L183.5 136L180.5 133.5L180 132Z" fill="#893DF5"/>
<path d="M75.67 52.7399C76.57 49.5099 77.48 46.0499 76.53 42.8499C75.79 40.3499 74.02 31.3199 73.62 28.7299L96.19 16.6299C96.19 16.6299 104.29 42.3499 99.62 45.5299C94.95 48.7099 91.89 47.6999 91.34 49.4999C90.79 51.2999 90.35 55.6499 90.35 55.6499L89.94 58.9999L75 55.2899L75.67 52.7399Z" fill="#874C2B"/>
<path d="M101.37 38.7201C100.07 37.5601 97.44 38.1701 96.13 39.5001C95.32 40.3201 93.99 40.6901 92.85 40.4001C92.4 40.2901 92 40.0301 91.63 39.7701C88.81 37.8101 88.14 32.5901 84.83 33.3301C82.91 33.7601 82.65 35.8901 83.34 38.1001C84.06 40.3701 86.38 44.2901 88.51 46.0901C89.78 47.1601 90.71 47.8901 91.61 48.4501" stroke="#191A19" stroke-miterlimit="10" stroke-linecap="round" stroke-linejoin="round"/>
<path d="M74.58 36.1002C74.18 36.1702 73.73 36.2202 73.43 35.9502C73.25 35.7902 73.18 35.5502 73.11 35.3102C72.88 34.5402 71.94 29.0102 71.67 26.8302C70.9 20.6302 75.11 14.1902 81.1 12.4002C84.27 11.4502 87.67 11.7102 90.95 12.1902C92.89 12.4702 94.88 12.8502 96.52 13.9202C97.85 14.7902 98.98 16.2202 99.11 17.7702C99.19 18.7502 98.28 19.7802 97.43 20.1202" stroke="black" stroke-miterlimit="10" stroke-linecap="round" stroke-linejoin="round"/>
<path d="M97.42 20.1099C93.93 21.4699 90.44 22.8299 86.95 24.1799C87.4 25.3499 87.87 26.5899 87.69 27.8299C87.52 29.0699 86.46 30.2899 85.21 30.1699C83.8 30.0399 82.82 28.3599 81.41 28.4499C80.24 28.5299 79.53 29.7999 79.31 30.9499C79.09 32.0999 79.1 33.3599 78.43 34.3199C77.6 35.5099 76.01 35.8499 74.58 36.0899" stroke="#191A19" stroke-miterlimit="10" stroke-linecap="round" stroke-linejoin="round"/>
<path d="M79.46 52.7798C79.38 52.7798 79.29 52.7898 79.21 52.7898C78.86 53.1098 78.47 53.3898 78.17 53.7498C77.71 54.3098 77.33 54.3798 76.5 54.2598C75.51 54.1098 74.3 53.6898 73.32 54.9598C71.98 56.6998 69.91 57.7698 68.01 58.9698C66.96 59.6298 65.96 60.3698 64.98 61.1198C64.49 61.4998 64.16 62.0498 63.69 62.4398C62.41 63.4998 61.09 64.4998 59.8 65.5398C59.21 66.0098 58.61 66.4698 58.09 67.0098C56.94 68.1998 55.83 69.4298 54.73 70.6698C54.38 71.0698 54.16 71.5698 53.84 71.9998C53.59 72.3298 53.28 72.6198 53 72.9298C52.72 73.2398 52.46 73.5598 52.15 73.8398C51.43 74.4998 50.57 75.0598 49.98 75.8098C49.27 76.7198 48.82 77.8198 48.17 78.7898C47.15 80.3198 46.04 81.7998 45 83.3098C42.46 86.9898 41.07 91.1398 39.55 95.2298C39.2 96.1698 38.86 97.1098 38.57 98.0698C38.06 99.7498 37.58 101.44 37.09 103.13C36.95 103.61 36.85 104.1 36.74 104.58C36.63 105.03 36.66 105.58 36.39 105.92C34.92 107.84 34.7 110.1 34.22 112.31C33.99 113.38 33.55 114.41 33.13 115.43C32.9 115.99 32.31 116.47 32.23 117.03C31.95 118.9 31.8 120.8 31.64 122.68C31.44 125.11 31.29 127.53 31.14 129.72C30.68 130.01 30.1 130.2 30.08 130.43C30.01 131.14 30.11 131.88 30.26 132.59C30.28 132.7 30.7 133.4 31.39 132.82C31.88 132.41 32.69 133.17 32.64 133.98C32.52 135.91 32.39 137.84 32.26 139.77C32.45 139.71 32.63 139.65 32.82 139.59C33.15 139.85 33.5 140.08 33.8 140.36C34.03 140.58 34.15 140.9 34.4 141.09C35.86 142.17 37.33 143.22 38.8 144.28C38.84 144.13 38.89 143.97 38.93 143.82C39.39 143.69 39.86 143.42 40.32 143.44C41.85 143.5 42.63 143.04 43.12 141.7C43.48 140.73 43.91 139.78 44.28 138.88C45.28 138.97 46.13 139.08 46.99 139.11C47.88 139.15 49.98 136.95 49.98 135.96C49.98 135.29 50.21 134.94 50.89 134.67C52.1 134.19 53.26 133.61 54.41 133.01C55.73 132.32 57.01 131.57 58.4 130.8C58.44 131.1 58.48 131.28 58.49 131.47C58.53 132.79 59.29 133.31 60.63 132.99C61.89 132.69 63.19 132.52 64.44 132.16C65.35 131.9 66.59 132.04 66.77 131C67.31 131.04 67.78 131.15 68.23 131.08C68.7 131.01 69.12 130.68 69.59 130.61C72.2 130.24 74.14 128.9 75.66 126.95C75.86 126.69 75.85 126.3 75.97 125.87C77.72 125.85 77.86 125.78 78.64 123.94C79.48 121.94 80.37 119.95 81.07 117.9C81.7 116.04 82.05 114.1 82.59 112.22C83.61 108.62 84.64 105.03 85.73 101.45C86.37 99.3198 87.14 97.2298 87.84 95.1098C88.16 94.1498 88.47 93.1898 88.81 92.1198C89.2 92.3698 89.49 92.4798 89.65 92.6798C90.86 94.1398 92.09 95.5798 93.22 97.0998C94.24 98.4798 95.19 99.9298 96.08 101.39C97.61 103.92 99.41 106.23 102.36 107.37C104.31 108.13 106.4 108.57 108.38 109.26C112.65 110.75 116.89 112.31 121.14 113.83C121.82 114.07 122.53 114.28 123.24 114.44C125.33 114.93 127.44 115.34 129.52 115.87C130.92 116.22 132.29 116.72 133.66 117.16C134.29 117.36 134.81 117.55 135.35 116.85C135.56 116.58 136.43 116.57 136.92 116.69C138.96 117.22 140.46 118.91 142.72 119.06C143.17 119.09 143.66 119.5 143.99 119.85C144.74 120.63 146.87 121.19 147.87 120.74C148.11 120.63 148.39 120.41 148.46 120.18C148.77 119.26 148.98 118.32 149.27 117.4C149.35 117.13 149.52 116.68 149.7 116.66C151.11 116.5 149.83 116.01 149.86 115.69C150.18 115.41 150.5 115.12 150.82 114.83C150.81 114.67 150.81 114.52 150.8 114.36C150.68 114.21 150.49 114.07 150.44 113.89C150.03 112.55 149.17 111.97 147.64 112.08C147.08 112.12 146.42 111.73 145.91 111.39C144.61 110.52 143.45 109.43 142.07 108.7C140.22 107.72 138.22 107 136.29 106.17C136.1 106.09 135.94 105.97 135.76 105.87C134.49 105.13 133.29 104.24 131.94 103.67C129.04 102.45 125.97 101.57 123.48 99.5798C120.6 97.2798 117.61 95.0998 115.91 91.7898C115.79 91.5498 115.58 91.3598 115.41 91.1398C114.15 89.5698 112.82 88.0598 111.65 86.4298C110.33 84.5898 109.23 82.5998 107.89 80.7598C106.95 79.4698 105.62 78.4098 104.72 77.0998C103.13 74.7998 101.72 72.3898 100.25 70.0098C99.1 68.1398 97.77 66.3298 96.91 64.3498C96.28 62.9098 95.36 62.5598 94.14 62.6398C93.34 61.5598 92.71 60.4998 91.86 59.6298C90.52 58.2498 89.55 58.1798 87.69 58.9898C87.49 59.0798 87.08 59.0398 86.94 58.8998C86.03 58.0098 85.17 57.0798 84.29 56.1598C83.91 56.2998 83.57 56.4298 83.2 56.5698C82.49 54.8298 81.14 53.6698 79.46 52.7798V52.7798Z" fill="url(#paint0_linear_1230_3565)"/>
<path d="M110.68 125.39C112.36 131.25 113.85 137.16 115.15 143.1C115.8 146.07 116.4 149.05 116.96 152.04C117.24 153.53 117.5 155.03 117.75 156.53C117.87 157.26 117.96 158 118.12 158.72C118.16 158.91 118.25 159.09 118.22 159.29C118.17 159.58 117.87 159.77 117.79 160.05C117.78 160.09 117.77 160.14 117.78 160.19C117.79 160.26 117.82 160.34 117.8 160.41C117.76 160.55 117.57 160.59 117.49 160.72M97.46 140.75C98.74 147.61 100.17 154.44 101.77 161.24M103.84 140.54C103.66 140.56 103.47 140.59 103.29 140.61C101.99 140.77 100.57 140.91 99.47 140.24M98.22 138.86C95.18 141.14 91.58 142.65 88.03 144.14C83.87 145.88 79.72 147.61 75.56 149.35C71.8 150.92 68 152.5 63.99 153.38C57.46 154.8 50.61 154.28 44.03 153.06C42.56 152.79 41.09 152.48 39.72 151.9C34.94 149.85 32.41 144.79 31.58 139.91" stroke="#1D1D1B" stroke-miterlimit="10" stroke-linejoin="round"/>
<path d="M73.31 151.48C74.64 152.26 76.06 153.16 76.53 154.56C76.98 155.9 76.41 157.41 75.41 158.46C74.41 159.51 73.04 160.17 71.66 160.72C60.72 165.12 48.17 163.93 36.58 161.39C33.65 160.74 30.27 159.61 29.45 156.88C29.06 155.56 29.4 154.11 30.14 152.92C31.37 150.96 33.71 149.66 36.13 149.6M76.39 155.95C77.14 162.93 75.21 169.95 75.55 176.97M28.98 156.12C28.58 159.03 28.94 161.98 29.31 164.9L30.96 178.05M75.62 177.48C74.82 179.24 72.72 180.08 70.78 180.65C59.04 184.11 46.08 183.81 34.53 179.79C33.41 179.4 32.3 178.98 31.28 178.4" stroke="#1D1D1B" stroke-miterlimit="10" stroke-linejoin="round"/>
<path d="M69.44 154.77C69.73 155.43 69.5 156.2 69.17 156.84C68.91 157.35 68.57 157.84 68.11 158.21C67.55 158.67 66.83 158.94 66.12 159.17C63.5724 159.983 60.9144 160.398 58.24 160.4M35.93 152.26C33.67 153.49 32.43 155.57 34.27 156.13C34.98 156.35 35.34 157.17 36.02 157.53C40.39 159.85 45.45 160.97 50.46 160.74" stroke="#1D1D1B" stroke-miterlimit="10" stroke-linejoin="round"/>
<path d="M57.64 157.53C53.88 158.19 49.99 158.19 46.23 157.54C44.7 157.28 43.08 156.84 42.08 155.71M111.06 126.38C110.46 123.07 106.95 120.78 103.42 120.29C99.89 119.8 96.33 120.72 92.89 121.62C88.35 122.82 83.81 124.01 79.27 125.21" stroke="#1D1D1B" stroke-miterlimit="10" stroke-linejoin="round"/>
<path d="M152.25 122.1C152.121 122.031 151.976 121.995 151.83 121.995C151.683 121.995 151.539 122.031 151.41 122.1C151.15 122.23 150.98 122.5 150.97 122.77M162.53 113.06C163.48 114.81 164.42 116.55 165.37 118.3C165.69 118.89 166.01 119.49 166.18 120.13C166.46 121.21 166.29 122.35 166.1 123.45C165.95 124.3 165.79 125.16 165.44 125.96C165.08 126.76 164.51 127.49 163.71 127.91M163.7 128.03C163.47 128.05 163.26 127.91 163.15 127.72C163.04 127.53 163.01 127.32 162.99 127.1C162.92 126.44 162.9 125.77 162.94 125.11" stroke="#080908" stroke-miterlimit="10" stroke-linejoin="round"/>
<path d="M162.67 117.95C163.22 119.37 163.57 120.86 163.7 122.37C163.71 122.51 163.72 122.64 163.7 122.78C163.67 122.95 163.6 123.1 163.52 123.26C163.02 124.27 162.47 125.28 161.63 126.07M161.5 126.28C160.8 126.33 160.11 126.13 159.43 125.92C159.19 125.85 158.93 125.76 158.79 125.57M159.55 119.05L160.3 122.69C160.37 123.04 160.44 123.4 160.38 123.75C160.32 124.07 160.16 124.36 159.96 124.63C159.64 125.06 159.22 125.44 158.69 125.59C158.16 125.74 157.51 125.6 157.21 125.16M156.98 120.91L157.28 124.54C157.29 124.71 157.31 124.89 157.23 125.05C157.16 125.19 157.02 125.3 156.88 125.38C156.23 125.73 155.42 125.64 154.68 125.53C154.07 125.44 153.42 125.33 152.93 124.97C152.14 124.39 151.89 123.25 150.97 122.86M153.76 122.41C154.08 123.15 154.4 123.98 154.07 124.71M153.65 122.35C151.74 120.65 147.47 121.07 145.01 120.2M162.55 112.88C158.51 110.55 152.73 113.78 148.25 112.39M172.44 130.34C170.43 128.93 168.42 127.51 166.41 126.1M180.23 132.35C180.07 133.36 179.49 134.31 178.65 134.97C177.81 135.62 176.71 135.97 175.62 135.93" stroke="#080908" stroke-miterlimit="10" stroke-linejoin="round"/>
<path d="M180.28 132.06C178.683 130.582 177.004 129.197 175.25 127.91C174.71 127.51 174.1 127.1 173.41 127.12C172.98 127.13 172.57 127.32 172.21 127.55C171.53 127.98 170.98 128.58 170.62 129.27M175.4 136.02C173.76 134.96 172.25 133.73 170.75 132.5C170.6 132.38 170.45 132.26 170.34 132.11C170.06 131.74 170.03 131.25 170.14 130.81C170.25 130.37 170.5 129.98 170.75 129.59M175.45 129.91C175.78 131.1 174.99 132.47 173.74 132.86M180.18 133.37C181.13 134.05 181.97 134.85 182.68 135.76M182.87 136.04C183.02 136.89 182.74 137.8 182.13 138.45C181.53 139.1 180.6 139.47 179.69 139.45M179.8 139.52C179.03 138.33 178.1 137.22 177.03 136.25M185.83 136.95C186.13 138.54 185.33 140.27 183.89 141.14C183.79 141.2 183.68 141.26 183.57 141.27C183.42 141.28 183.28 141.21 183.15 141.14C182.47 140.76 181.87 140.24 181.43 139.62M185.57 137.07C185.03 136.69 184.49 136.31 183.94 135.92L183.46 136.28M192.73 185.03C191.72 183.2 189.22 182.61 187.74 181.09C186.65 179.97 186.2 178.45 185.4 177.14C184.56 175.76 183.35 174.62 182.37 173.32C181.17 171.74 180.31 169.95 179.13 168.36C177.95 166.77 176.33 165.33 174.31 164.94M192.97 185.48C193.1 186.09 192.9 186.75 192.46 187.21C192.02 187.67 191.34 187.91 190.68 187.85M190.73 187.72C190.2 186.08 188.9 184.68 187.25 183.96C186.78 183.76 186.27 183.6 185.87 183.29C185.22 182.79 184.97 181.98 184.56 181.29C184.13 180.57 183.52 179.97 182.91 179.37L180.81 177.3C180.67 176.63 181.16 175.9 181.86 175.73" stroke="#080908" stroke-miterlimit="10" stroke-linejoin="round"/>
<path d="M182.21 175.73L177.81 171.36C177.48 171.03 177.14 170.7 176.9 170.3C176.68 169.94 176.54 169.55 176.34 169.18C175.23 167.18 172.45 166.48 171.09 164.62C171.34 164.5 171.65 164.56 171.92 164.63C172.82 164.86 173.72 165.08 174.62 165.31M183.01 181.42C181.98 182.42 181.1 183.55 180.42 184.79C180.06 185.44 179.74 186.14 179.12 186.58" stroke="#080908" stroke-miterlimit="10" stroke-linejoin="round"/>
<path d="M182.1 179.54C182.16 179.57 182.18 179.45 182.12 179.43C182.06 179.41 182 179.46 181.95 179.51C180.77 180.77 179.8 182.21 179.1 183.76C178.69 184.67 178.32 185.67 177.48 186.27C177.24 186.44 176.93 186.63 176.92 186.92C176.92 187.08 177.02 187.23 177.14 187.35C177.53 187.75 178.13 187.98 178.71 187.95M185.03 188.82C183.815 186.961 182.677 185.053 181.62 183.1M179.74 181.26C178.264 177.669 176.649 174.136 174.9 170.67C174.55 169.97 173.95 169.15 173.14 169.3C173.77 171.58 174.41 173.85 175.04 176.13C175.35 177.26 175.67 178.4 176.24 179.43C176.99 180.82 178.19 182.05 178.46 183.59M180.58 185.94C181.22 186.96 181.34 188.3 182.28 189.09C182.89 189.6 183.8 189.77 184.57 189.52M185.16 164.54C184.49 165.01 184.02 165.68 183.55 166.33L181 169.93M184.84 164.31C184.52 164.16 184.19 164 183.87 163.85C183.75 163.79 183.61 163.73 183.48 163.77C183.29 163.82 183.21 164.02 183.14 164.2C182.85 164.92 182.28 165.5 181.73 166.07L179.59 168.24M176.84 170.92C176.73 171.34 176.4 171.7 175.98 171.87M174.1 173.86C172.67 175.18 171.24 176.5 169.81 177.81C169.29 178.29 168.77 178.77 168.35 179.33C167.46 180.53 167.08 182.01 166.16 183.2C164.96 184.75 162.99 185.59 161.47 186.87C161.06 187.21 160.67 187.61 160.49 188.09C160.31 188.57 160.39 189.18 160.81 189.52C161.23 189.85 161.99 189.76 162.2 189.28" stroke="#080908" stroke-miterlimit="10" stroke-linejoin="round"/>
<path d="M175.19 176.52C173.59 178.08 171.96 179.67 171 181.64C170.65 182.36 170.37 183.15 169.73 183.65C169.23 184.05 168.57 184.21 167.96 184.44C165.56 185.35 163.82 187.32 162.2 189.22M178.43 172.52C177.98 172.83 177.59 173.22 177.3 173.67M177.84 160.95C178.01 162.55 178.1 164.15 178.1 165.76M177.85 160.68L176.64 160.59C176.46 160.58 176.25 160.58 176.15 160.72C176.07 160.85 176.12 161.01 176.18 161.15C176.66 162.32 176.9 163.58 176.89 164.83M176.63 179.14C176.39 180.42 175.85 181.63 175.32 182.84C175.02 183.53 174.71 184.22 174.22 184.81C173.98 185.1 173.7 185.36 173.5 185.67C173.25 186.08 173.16 186.57 173.08 187.04C172.92 187.97 172.76 188.9 172.61 189.82M172.2 190.05C172.18 190.4 171.59 190.56 171.38 190.27M175.62 177.98C175.41 178.55 175.2 179.13 174.99 179.7C174.75 180.35 174.51 181 174.18 181.61C173.68 182.54 172.99 183.36 172.42 184.25C171.29 186.02 170.65 188.08 170.61 190.15M188.22 174C187.59 172.45 188.38 170.72 189.37 169.34C190.36 167.96 191.58 166.65 191.91 165.02C192.36 162.84 191.11 160.67 191.01 158.44C190.87 155.31 193.03 152.36 192.72 149.24C192.45 146.5 190.33 143.72 191.58 141.24M186.56 160.43C185.42 156.37 189.84 152.59 189.66 148.4C189.59 146.78 188.83 145.24 188.76 143.63C188.64 140.94 190.44 138.36 190.01 135.71M165.64 176.53C166.7 171.89 163.47 167.44 162.35 162.81C161.73 160.24 161.77 157.52 162.47 154.97C162.91 153.35 163.62 151.79 163.9 150.13C164.35 147.42 163.63 144.67 162.92 142.01M168.71 173.19C168.95 171.05 168.62 168.86 167.77 166.86C166.91 164.83 165.49 162.94 165.3 160.76C165.1 158.58 166.16 156.5 166.85 154.41C168.02 150.86 168.14 147.01 167.2 143.4M173.33 160.74C172.32 159.35 172.81 157.47 173.46 155.9C174.11 154.33 174.89 152.63 174.34 151.03C174.22 150.69 174.05 150.36 173.95 150.01C173.64 148.94 174.07 147.81 174.49 146.77M169.29 160.35C168.56 158.7 169.15 156.82 169.74 155.12M182.03 156.94C182.54 155.23 182.42 153.36 181.68 151.72C181.48 151.27 181.23 150.82 181.25 150.34C181.26 150.04 181.37 149.76 181.49 149.48C181.72 148.91 181.95 148.35 182.17 147.78M135.06 189.35C126.85 193.11 116.78 193.05 108.63 189.19M106.09 172.49C106.63 174.58 106.72 176.74 106.95 178.88C107.33 182.36 108.09 185.8 109.23 189.13" stroke="#080908" stroke-miterlimit="10" stroke-linejoin="round"/>
<path d="M134.92 189.01C135.37 190.04 134.89 191.26 134.04 192.03C133.19 192.8 132.04 193.2 130.91 193.51C124.19 195.36 116.76 194.82 110.42 192.02C109.85 191.77 109.27 191.48 108.92 190.99C108.41 190.27 108.53 189.32 108.67 188.47M92.57 142.71C92.76 145.86 92.95 149.01 93.15 152.15M104.89 161.86C105.44 166 105.92 170.15 106.34 174.31" stroke="#080908" stroke-miterlimit="10" stroke-linejoin="round"/>
<path d="M102.68 161.74C103.25 161.92 103.88 162.11 104.44 161.91C104.66 161.83 104.86 161.7 105.08 161.63M105.2 160.36C104.64 160.29 104.09 160.06 103.66 159.71M115.53 158.82C115.5 159.02 115.48 159.22 115.4 159.4C115.322 159.589 115.176 159.743 114.99 159.83M110.6 160.2C110.65 160.29 110.71 160.37 110.76 160.46M108.26 160.2C108.07 160.06 107.99 159.82 108 159.6C108 159.38 108.08 159.16 108.16 158.94M102.51 161.76C102.248 161.68 102.011 161.535 101.82 161.34M117.17 160.83C116.84 161.1 116.45 161.29 116.06 161.48C115.66 161.67 115.21 161.86 114.78 161.74C114.45 161.64 114.22 161.38 113.94 161.2M113.72 161.47C113.37 161.59 113.23 161.99 112.93 162.21C112.64 162.43 112.23 162.46 111.85 162.46C111.44 162.46 111.01 162.44 110.65 162.27C110.44 162.17 110.25 162.02 110.02 162C109.9 161.99 109.79 162.01 109.68 162.03C108.95 162.15 108.19 162.06 107.52 161.77M106.99 161.77C106.97 161.95 106.78 162.08 106.59 162.11C106.4 162.14 106.21 162.09 106.02 162.04C105.76 161.97 105.47 161.89 105.36 161.66" stroke="#1D1D1B" stroke-miterlimit="10" stroke-linejoin="round"/>
<path d="M117.17 161.61C117.66 168.22 119.51 174.68 121.35 181.08M121.63 181.24C124.99 181.64 128.38 182.05 131.54 183.18C132.06 183.37 132.59 183.58 133.01 183.94C133.58 184.43 133.87 185.14 134.09 185.84C134.37 186.76 134.56 187.71 134.63 188.67M62.65 52.6799C62.66 52.5299 62.91 52.5799 63.01 52.6999C63.43 53.2299 63.13 54.0799 62.49 54.3499C61.85 54.6199 61.04 54.3299 60.66 53.7799C60.28 53.2299 60.29 52.4899 60.58 51.8899C61.13 50.7699 62.68 50.1999 63.89 50.6699M63.89 50.7999C68.62 51.5299 63.64 61.7399 59.2 56.1299" stroke="#080908" stroke-miterlimit="10" stroke-linejoin="round"/>
<path d="M58.2 48.52C57.78 49.14 57.35 49.76 56.93 50.39C56.22 51.44 55.49 52.53 55.35 53.77C55.29 54.33 55.35 54.91 55.5 55.46C56.12 57.87 58.35 59.83 60.94 60.26C63.53 60.69 66.34 59.57 67.8 57.51" stroke="#080908" stroke-miterlimit="10" stroke-linejoin="round"/>
<path d="M60.06 47.9599C61.44 47.0399 63.36 46.9699 64.89 47.6499C66.42 48.3299 67.56 49.6699 68.08 51.1899C68.6 52.6999 68.54 54.3599 68.08 55.8999C67.88 56.5599 67.6 57.2099 67.1 57.7099M56.36 57.9399C54.88 55.5399 53.89 52.8699 53.45 50.1299M64.85 46.8799C62.803 45.6808 60.8264 44.3653 58.93 42.9399" stroke="#080908" stroke-miterlimit="10" stroke-linejoin="round"/>
<path d="M59.42 43.1001C57.61 43.1601 55.83 43.9901 54.68 45.3101C53.53 46.6301 53.02 48.4301 53.32 50.1201M16.92 94.8901C18.15 103.14 26.41 106.51 33.86 106.98M51.83 48.6501C40.63 48.6201 29.63 51.6201 22.63 60.6201C17.63 66.6201 17.63 74.6201 17.81 82.9301M60.86 60.4801C61.27 62.3301 60.07 64.1201 58.94 65.6801C55.15 70.9301 51.56 76.3101 48.17 81.8001C46.67 84.2301 45.21 86.6901 44.28 89.3601C43.22 92.4001 42.89 95.6201 41.93 98.6901C40.97 101.76 39.2 104.82 36.2 106.31" stroke="#080908" stroke-miterlimit="10" stroke-linejoin="round"/>
<path d="M80.76 114.77L69.31 115.49C66.65 115.66 63.96 115.82 61.32 115.44C59.1 115.12 56.96 114.41 54.84 113.71C48.79 111.71 42.42 109.5 38.35 104.83C38.39 105.05 38.42 105.26 38.46 105.48" stroke="#080908" stroke-miterlimit="10" stroke-linejoin="round"/>
<path d="M80.88 116.63C76.98 117.52 73.04 118.42 69.02 118.53C67.16 118.58 65.3 118.45 63.45 118.24C52.95 117.03 42.85 112.83 34.82 106.34M69.62 53.5498C73.91 52.0198 78.78 51.9898 83.09 53.4598C84.83 54.0498 86.47 54.8798 88.09 55.7298C91.11 57.3298 94.37 59.4998 94.76 62.7398" stroke="#080908" stroke-miterlimit="10" stroke-linejoin="round"/>
<path d="M68.6 57.0502C70.72 55.9402 73.23 55.6002 75.65 55.7202C78.08 55.8402 80.45 56.3802 82.81 56.9202C85.43 57.5202 88.25 58.2302 89.95 60.2002M49.46 52.1802C42.76 54.5602 35.9 57.4202 31.38 62.6502C29.86 64.4102 28.66 66.3802 27.46 68.3502C25.2 72.0602 22.88 76.0202 23.03 80.3002M50.89 57.3702C50.1 58.8502 49.15 60.2502 48.07 61.5602M42.68 68.5002C38.86 72.4602 36.89 77.6402 34.58 82.5402C33.15 85.5802 29.07 95.2002 24.27 91.3802M229.05 71.3602C230.91 89.5202 235.21 107.38 239.51 125.17C243.15 140.27 246.8 155.38 250.44 170.48M229.03 75.1202C224.49 90.9302 225.95 107.92 220.79 123.57C218.56 130.32 215.15 136.66 211.76 142.96C207.72 150.47 203.67 157.98 199.63 165.48M229.28 80.9602C231.21 111.05 226.86 141.14 222.52 171C222.48 171.28 221.91 171.13 222.02 170.88M255.08 70.2802C248.93 70.7402 253 70.8102 246.84 70.4902C243.17 70.3002 239.5 69.9602 235.83 70.0902C233.46 70.1702 231.09 70.4402 228.77 70.8902M250.65 170.95C252.31 175.12 253.98 179.3 255.64 183.47M258.25 183.55C258.64 183.3 259.25 183.81 259.02 184.21C258.62 183.74 258.32 183.19 258.16 182.61C258.89 182.52 259.39 183.58 258.82 184.02C258.44 183.74 258.07 183.46 257.69 183.18M257.51 183.47C258.07 185.39 256.99 187.62 255.08 188.47M198.64 165.92L199.46 167.01C198.95 166.75 198.38 166.42 198.32 165.88C198.25 165.34 199.18 164.9 199.4 165.4C198.8 165.41 198.25 164.85 198.32 164.28L199.12 165.05M199.05 166.35C199.299 167.481 199.18 168.662 198.71 169.72" stroke="#080908" stroke-miterlimit="10" stroke-linejoin="round"/>
<path d="M252.96 181.15C252.3 181.49 251.49 181.26 250.78 181.03C247.16 179.85 243.49 178.64 240.34 176.58C238.22 175.19 236.37 173.45 234.17 172.16C230.38 169.94 225.84 169.24 221.45 168.5C215.61 167.52 209.75 166.37 204.28 164.18M99.63 153.46C99.61 153.49 99.69 153.46 99.66 153.44C99.63 153.42 99.59 153.45 99.57 153.47C99.25 153.77 98.72 153.85 98.33 153.64C98.2 153.57 98.09 153.48 97.95 153.44C97.78 153.39 97.6 153.42 97.43 153.46C96.84 153.57 96.26 153.69 95.67 153.8C95.44 153.84 95.19 153.89 94.98 153.8C94.71 153.69 94.54 153.39 94.25 153.36C94.03 153.34 93.82 153.48 93.6 153.47C93.33 153.46 93.12 153.21 93.07 152.95C93.03 152.69 93.11 152.44 93.19 152.19M74.17 162.72C72.9744 167.774 72.6364 172.994 73.17 178.16M62.98 167.26C63.23 171.88 63.15 176.52 62.74 181.13M48.36 167.04C48.65 171.26 48.64 175.51 48.32 179.73V179.33M43.11 173.93C43.15 174.74 43.18 175.55 43.22 176.37M35.57 164.72C35.97 168.91 36.21 173.12 36.27 177.33M57.21 168.85C57.12 172.38 57.23 175.92 57.55 179.44M67.76 173.3C67.65 175.6 67.54 177.89 67.44 180.19" stroke="#080908" stroke-miterlimit="10" stroke-linejoin="round"/>
<path d="M94.8 153.59C94.67 154.9 94.88 156.22 95.08 157.52C96.1263 164.342 96.9534 171.195 97.56 178.07M107.62 177.84C104.51 179.27 100.8 179.46 97.55 178.38M97.42 178.33C97.66 179.03 97.84 179.76 97.96 180.49M107.92 180.44C107.21 181.26 106.02 181.51 104.91 181.65C103.03 181.88 101.11 181.91 99.27 181.52C98.8 181.42 98.3 181.27 98 180.91M112.31 171.62C112.95 174.7 113.88 177.72 115.1 180.63C115.24 180.97 115.41 181.33 115.75 181.49C116.1 180.74 115.67 179.9 115.32 179.15C114.79 178 114.43 176.78 114.13 175.55C113.54 173.14 113.15 170.69 112.97 168.22M132 188.06C131.14 188.17 130.27 188.17 129.42 188.06C129.367 188.055 129.315 188.038 129.27 188.01C129.19 187.94 129.23 187.8 129.31 187.73C129.4 187.66 129.51 187.64 129.62 187.61C130.3 187.38 130.52 186.6 130.76 185.95C130.81 185.82 130.89 185.66 131.04 185.65C131.15 185.64 131.24 185.71 131.32 185.77C131.92 186.29 132.24 187.09 132.15 187.86M98.49 156.25V156.33M98.76 156.09C98.8 158.58 99.3 161.06 100.24 163.39C100.34 163.63 100.44 163.87 100.65 164.03C101.37 164.58 102.48 163.7 103.33 164.04C103.88 164.26 104.08 164.89 104.21 165.44C105.06 168.93 105.91 172.46 106.02 176.04C106.02 176.17 106.02 176.33 105.9 176.41C105.82 176.46 105.72 176.46 105.63 176.46C103.99 176.44 102.35 176.43 100.72 176.41C100.47 176.41 100.21 176.4 100 176.28C99.65 176.08 99.55 175.66 99.47 175.28C98.17 168.78 96.87 162.19 97.39 155.59C99.17 160.05 100.84 164.56 102.41 169.09C102.97 170.7 103.52 172.35 103.58 174.05M106.65 162.93C106.69 163.55 106.82 164.17 107.01 164.76C106.69 164.23 106.46 163.65 106.35 163.05C106.48 163.1 106.61 163.18 106.72 163.26C106.709 163.122 106.653 162.992 106.56 162.89C107.18 163.11 107.91 163.02 108.44 162.65C108.61 162.53 108.78 162.38 108.99 162.35C109.11 162.33 109.24 162.36 109.36 162.37C109.73 162.4 110.09 162.3 110.46 162.29C110.83 162.28 111.25 162.4 111.4 162.72C111.13 162.9 110.78 162.93 110.45 162.96C109.31 163.03 108.16 163.07 107.01 163.08C108.39 162.98 109.78 162.88 111.16 162.97C109.76 163.42 108.34 163.84 106.91 164.21C107.64 163.77 108.37 163.33 109.16 163.01C108.674 164.079 107.893 164.988 106.91 165.63C107.49 165.06 108.07 164.48 108.65 163.91C108.86 163.7 109.1 163.49 109.4 163.48C109.34 164.71 108.51 165.89 107.33 166.39C107.61 165.41 108.65 164.72 108.82 163.72C107.95 164.38 107.28 165.28 106.94 166.29C107.21 166.3 107.47 166.12 107.54 165.87C107.52 166.15 107.51 166.43 107.49 166.71L107.55 165.8M114.34 162.74C114.65 162.28 115.38 162.14 115.85 162.46C115.18 162.43 114.5 162.39 113.83 162.33C114.39 162.2 114.97 162.21 115.53 162.34C115.32 162.55 114.95 162.6 114.69 162.45C114.79 162.36 114.94 162.37 115.08 162.4C115.52 162.48 115.94 162.66 116.3 162.92C116.35 162.96 116.42 163 116.48 162.97C116.53 162.94 116.54 162.88 116.55 162.82C116.57 162.51 116.57 162.19 116.57 161.88C116.71 161.77 116.95 162.09 117.07 161.96C117.13 161.89 117.06 161.78 116.99 161.72C116.97 161.85 117.01 161.98 117.11 162.07C117.071 161.886 117.017 161.705 116.95 161.53C117.31 162.43 117.67 163.35 117.77 164.31L116.81 162.78C117.01 163.17 117.18 163.57 117.33 163.98C117.41 164.21 117.49 164.48 117.34 164.68C117.15 164.63 117.01 164.48 116.88 164.34C116.475 163.873 116.138 163.351 115.88 162.79C116.54 163.3 117.05 163.98 117.34 164.74C117.15 164.76 116.99 164.61 116.86 164.46C116.29 163.8 115.72 163.14 115.14 162.48C115.95 163.26 116.65 164.13 117.23 165.08C116.88 164.99 116.61 164.72 116.37 164.47C115.6 163.67 114.86 162.86 114.12 162.04C114.79 162.69 115.44 163.35 116.06 164.04C115.84 163.9 115.62 163.76 115.4 163.63M128.85 183.25C129.12 183.28 129.39 183.31 129.66 183.35C129.18 183.43 128.68 183.45 128.2 183.43C128.06 183.42 127.87 183.36 127.91 183.23C128.49 183.17 129.08 183.21 129.65 183.35C129.37 183.53 129 183.49 128.68 183.39C128.14 183.22 127.64 182.91 127.26 182.51C127.98 182.7 128.67 182.99 129.3 183.37C128.99 183.24 128.65 183.19 128.32 183.21C128.65 183.31 128.98 183.41 129.31 183.5C129.39 183.52 129.49 183.56 129.5 183.64C129.52 183.74 129.41 183.81 129.31 183.85C128.84 184.06 128.27 184.27 127.81 184.02C128.44 183.92 129.09 183.94 129.71 184.08C129.77 184.09 129.85 184.13 129.83 184.19C129.63 184.15 129.57 183.88 129.67 183.72C129.77 183.55 129.96 183.46 130.14 183.38C130.32 183.3 130.52 183.21 130.62 183.04C130.35 183.16 130.06 183.22 129.76 183.24C129.83 183.05 130 182.89 130.2 182.81C130.24 182.8 130.28 182.79 130.32 182.79C130.39 182.81 130.44 182.89 130.41 182.96C130.38 183.03 130.29 183.06 130.22 183.02M134.63 189C134.26 189.5 133.53 189.71 132.93 189.49C133.14 189.33 133.43 189.27 133.69 189.32C132.26 189.31 131.03 190.3 129.63 190.54C129.53 190.56 129.4 190.56 129.34 190.49C129.27 190.41 129.39 190.26 129.46 190.33C129.26 190.6 128.88 190.74 128.53 190.67C128.69 190.37 129.08 190.19 129.43 190.26C129.25 190 128.84 190.07 128.53 190.18C127.94 190.38 127.35 190.59 126.76 190.79C127.11 190.33 127.65 190 128.24 189.89C127.75 190.27 127.13 190.49 126.5 190.51C126.73 190.43 126.99 190.4 127.23 190.43C127.19 190.64 127.09 190.85 126.94 191.01C127.3 190.64 127.79 190.38 128.31 190.3C128.25 190.8 127.53 191.11 127.1 190.81C127.57 190.68 128.05 190.58 128.54 190.52C128.04 190.74 127.51 190.9 126.96 191C127.01 190.9 127.12 190.83 127.24 190.82C126.33 190.89 125.39 190.96 124.52 190.7C124.34 190.65 124.15 190.58 123.96 190.55C123.75 190.52 123.53 190.55 123.32 190.57C123.02 190.61 122.72 190.64 122.42 190.68C122.75 190.8 123.09 190.91 123.42 191.03C123.65 191.11 123.88 191.19 124.13 191.2C124.32 191.21 124.5 191.18 124.69 191.14C125.18 191.05 125.67 190.97 126.16 190.88C126.29 190.99 126.46 191.06 126.63 191.06C126.68 191 126.56 190.92 126.49 190.96C126.42 191 126.41 191.09 126.4 191.17M121.29 191.45C120.61 191.4 119.93 191.34 119.24 191.29C119.09 191.28 118.94 191.27 118.78 191.25C118.35 191.22 117.91 191.18 117.48 191.12C117.12 191.07 116.77 191 116.42 190.94C115 190.67 113.58 190.41 112.17 190.14C111.58 190.03 110.94 189.89 110.55 189.45C110.26 189.13 110.16 188.7 110.07 188.29C109.43 185.53 108.8 182.78 108.16 180.02C108.78 180.4 108.77 181.23 108.87 181.92C108.98 182.66 109.28 183.36 109.58 184.05C109.97 184.96 110.37 185.87 110.76 186.78C110.31 185.42 109.86 184.07 109.41 182.71C110.16 183.54 110.92 184.36 111.67 185.19C110.82 183.97 109.96 182.76 109.11 181.54C110.24 183.18 111.36 184.83 112.49 186.47C112.06 186.06 111.64 185.65 111.21 185.25C111.93 185.92 112.77 186.46 113.68 186.86C112.42 186.3 111.2 185.62 110.07 184.85C111.53 185.33 112.9 186.05 114.11 186.97C112.8 186.49 111.51 185.98 110.22 185.46C111.01 185.72 111.75 186.11 112.4 186.61C111.61 186.26 110.81 185.91 110.02 185.57C110.96 186.17 111.89 186.77 112.83 187.37C112.04 186.98 111.25 186.58 110.46 186.19C111.29 186.62 112.08 187.13 112.81 187.7C111.95 187.31 111.09 186.92 110.23 186.52C110.9 186.92 111.56 187.32 112.23 187.73C111.53 187.53 110.87 187.23 110.26 186.84C111 187.26 111.7 187.72 112.38 188.23C111.77 187.97 111.15 187.71 110.54 187.46C111.03 187.73 111.52 188.01 112.02 188.28C111.57 188.23 111.13 188.11 110.72 187.92C111.62 188.18 112.5 188.53 113.33 188.95C112.712 188.96 112.094 188.9 111.49 188.77C112.2 188.93 112.89 189.22 113.51 189.6C112.639 189.63 111.782 189.373 111.07 188.87C112.11 189.04 113.1 189.44 113.96 190.03C113.02 189.87 112.12 189.54 111.32 189.06C111.9 189.13 112.47 189.33 112.97 189.62C112.39 189.48 111.86 189.15 111.51 188.69C112.83 188.79 114.12 189.09 115.34 189.57C114.61 189.23 113.88 188.88 113.14 188.54C114.08 188.75 115.01 189.04 115.9 189.39C114.77 189.17 113.66 188.8 112.63 188.29C114.15 188.36 115.61 188.87 117.04 189.38C115.95 188.88 114.85 188.38 113.76 187.88C114.95 188.12 116.13 188.43 117.28 188.83C116.11 188.36 114.94 187.89 113.78 187.42C115.06 187.63 116.33 187.92 117.58 188.3C116.63 187.89 115.66 187.51 114.68 187.18C116.04 187.46 117.38 187.8 118.7 188.2C117.7 187.68 116.67 187.19 115.63 186.74C116.53 187.1 117.44 187.42 118.37 187.69C117.57 187.32 116.77 186.95 115.97 186.57C116.96 186.8 117.96 186.99 118.96 187.14L116.8 186C117.46 186.09 118.08 186.38 118.55 186.82C117.49 186.79 116.42 186.77 115.36 186.74C116.54 187.79 118.4 187.98 119.45 189.15L117.14 188.73C118.1 188.97 119.04 189.23 119.98 189.53C118.802 189.459 117.631 189.291 116.48 189.03C117.55 189.29 118.58 189.69 119.53 190.23C118.287 190.208 117.059 189.953 115.91 189.48C117.09 189.74 118.26 189.99 119.44 190.25C118.38 190.32 117.32 190.27 116.27 190.1C116.89 190.13 117.51 190.27 118.08 190.5C117.47 190.62 116.82 190.6 116.22 190.43L119.05 190.79C117.72 190.31 116.35 189.93 114.95 189.65C116.13 189.99 117.34 190.23 118.56 190.37C117.56 189.89 116.44 189.62 115.32 189.59C117.03 190.2 118.81 190.62 120.62 190.83C118.98 190.53 117.31 190.31 115.64 190.19C116.8 190.35 117.92 190.69 119.03 191.04C117.38 190.87 115.75 190.53 114.19 190.01C114.36 190.04 114.54 190.08 114.71 190.11L113.84 189.66C114.07 189.77 114.3 189.89 114.53 190C114.18 189.89 113.83 189.78 113.47 189.68M97.52 178.06C97.63 177.89 97.89 177.84 98.06 177.95M98.46 178.01C98.51 178.03 98.57 178.04 98.62 178.06" stroke="#080908" stroke-miterlimit="10" stroke-linejoin="round"/>
<path d="M103.55 162.85C104.51 167.36 105.48 171.89 107.13 176.22M117.79 166.7C115.82 166.09 113.87 165.44 111.93 164.75M116.62 163.93C115.97 165.29 115.16 166.59 114.21 167.78M118.13 171.16C116.703 170.703 115.332 170.089 114.04 169.33M117.09 169.09C116.93 170.43 115.9 171.65 114.56 172.08M119.05 175.8C117.695 175.48 116.425 174.87 115.33 174.01" stroke="white" stroke-miterlimit="10" stroke-linejoin="round"/>
<path d="M117.94 173.26C117.86 174.03 117.77 174.82 117.44 175.54C117.11 176.26 116.5 176.89 115.7 177.06M120.35 180.18C119.37 179.98 118.46 179.52 117.75 178.85M119.41 177.83C119.238 179.116 118.627 180.303 117.68 181.19" stroke="white" stroke-miterlimit="10" stroke-linejoin="round"/>
<path d="M15.28 83.3001C17.7 83.1601 19.76 84.9701 21.44 86.7301C22.08 87.4001 22.71 88.0901 23.09 88.9301C23.57 89.9901 23.59 91.1901 23.61 92.3501C23.64 93.9201 23.63 95.6101 22.71 96.8901M14.92 93.8201C15.38 94.3501 16.05 94.6401 16.69 94.9101C18.07 95.5001 19.44 96.0801 20.82 96.6701C21.34 96.8901 21.91 97.1201 22.46 97.0101" stroke="#080908" stroke-miterlimit="10" stroke-linejoin="round"/>
<path d="M21.95 88.1802C21.45 88.3602 21.2 88.9102 21.03 89.4102C20.86 89.9002 20.72 90.4002 20.63 90.9202C20.24 93.0502 20.73 95.3302 21.97 97.1002" stroke="#080908" stroke-miterlimit="10" stroke-linejoin="round"/>
<path d="M15.14 83.5498C14.466 84.5709 14.1046 85.7664 14.1 86.9898C14.1 87.1798 14.11 87.3798 14.19 87.5598C14.3 87.7898 14.52 87.9398 14.73 88.0898C16.65 89.3698 18.73 90.4098 20.91 91.1698C20.8 91.1798 20.68 91.1998 20.57 91.2098M14.69 88.5198L14.54 90.8398C14.52 91.1298 14.5 91.4198 14.52 91.7098C14.58 92.5298 14.97 93.2898 15.35 94.0198" stroke="#080908" stroke-miterlimit="10" stroke-linejoin="round"/>
<defs>
<linearGradient id="paint0_linear_1230_3565" x1="63.5" y1="30.5" x2="114" y2="160" gradientUnits="userSpaceOnUse">
<stop offset="0.213542" stop-color="#9958FF"/>
<stop offset="1" stop-color="#6906E0"/>
</linearGradient>
</defs>
</svg>
