<svg width="183" height="218" viewBox="0 0 183 218" fill="none" xmlns="http://www.w3.org/2000/svg">
<path d="M50.79 57.4499C56.17 94.6299 61.02 131.89 65.34 169.21M65.38 168.94C65.03 171.23 66.88 173.4 69.05 174.21C71.22 175.02 73.63 174.8 75.94 174.55C91.64 172.87 107.27 170.62 122.8 167.78C125.06 167.37 127.4 166.91 129.28 165.58C131.16 164.25 132.44 161.79 131.69 159.62M131.25 158.87C131.21 150.66 130.5 142.46 129.14 134.36C128.34 129.64 127.32 124.96 126.32 120.28C120.76 94.2699 115.77 68.1399 111.59 41.8799M50.85 57.6599C50.51 54.9599 50.24 52.2399 50.04 49.5199" stroke="#1D1D1B" stroke-width="1.5" stroke-miterlimit="10"/>
<path d="M49.99 49.8598C50.07 47.9698 52.17 46.8998 54 46.3798C62.24 44.0398 70.98 44.5398 79.49 43.5698C88.67 42.5198 97.68 39.7298 106.91 39.8798C108.49 39.8998 110.17 40.0598 111.39 41.0498M77.08 48.3498C79.98 48.0598 82.88 47.7598 85.78 47.4698C86.73 47.3698 87.71 47.2798 88.62 47.5498C88.99 47.6598 89.41 48.0198 89.21 48.3398C89.14 48.4598 88.99 48.5298 88.86 48.5798C84.8937 50.2339 80.5598 50.8066 76.3 50.2398C76.13 50.2198 75.94 50.1898 75.81 50.0598C75.57 49.8298 75.69 49.3898 75.97 49.1998C76.24 49.0098 76.6 48.9898 76.93 48.9898M58.01 50.6498C57.64 50.9398 57.52 51.5198 57.77 51.9198C58.02 52.3198 58.6 52.4698 59.01 52.2298C59.41 51.9898 59.55 51.3798 59.27 50.9998C59.11 50.7798 58.85 50.6498 58.59 50.5298M114.53 55.4398C115.23 55.1598 116.06 55.5798 116.5 56.1898C116.94 56.7998 117.08 57.5798 117.2 58.3298C118.293 64.7872 119.127 71.2857 119.7 77.8098C119.75 78.3798 119.59 79.1898 119.01 79.1498M50.98 62.9198C50.68 62.7598 50.29 62.9998 50.15 63.3098C50.02 63.6298 50.07 63.9798 50.12 64.3198L50.51 66.8598C50.58 67.2998 50.65 67.7498 50.88 68.1298C51.11 68.5098 51.55 68.7998 51.99 68.7298M53.41 82.6998C52.9 82.6898 52.49 83.1698 52.38 83.6698C52.28 84.1698 52.41 84.6898 52.54 85.1798L53.44 88.5698C53.73 89.6698 54.27 90.9898 55.4 91.1098" stroke="#1D1D1B" stroke-width="1.5" stroke-miterlimit="10"/>
<path d="M122.59 149.76C122.6 149.64 122.56 149.49 122.52 149.37C122.29 148.72 122.19 148.1 122.39 147.43C122.49 147.11 122.41 146.67 122.28 146.34C122.16 146.04 122.15 145.74 122.12 145.43C122.09 145.1 122.12 144.85 122.39 144.93C122.58 144.99 122.97 145.16 122.6 144.4C122.56 144.302 122.55 144.194 122.57 144.09C122.71 143.63 122.62 143.26 122.38 142.91C122.3 142.8 122.3 142.64 122.32 142.47C122.37 141.61 122.09 140.79 121.99 139.95C121.95 139.61 121.82 139.36 122.11 139.31C122.2 139.3 122.29 139.11 122.17 138.99C121.92 138.74 121.95 138.45 122 138.13C122.02 137.99 122.03 137.85 121.92 137.82C121.73 137.77 121.73 137.53 121.7 137.31C121.67 137.03 121.62 136.77 121.43 136.6C121.68 136.47 121.94 136.4 121.55 135.96C121.513 135.912 121.495 135.851 121.5 135.79C121.55 135.04 121.27 134.33 121.27 133.58C121.27 133.38 121.29 133.06 121.12 133.03C120.91 132.99 120.92 132.75 120.91 132.56C120.83 131.38 120.77 130.2 120.68 129.03C120.6 128.03 120.66 127.04 120.42 126C120.32 125.55 120.4 125.03 120 124.78C120.31 124.52 120.33 124.2 120.07 123.82C120.021 123.757 119.991 123.681 119.982 123.602C119.974 123.523 119.987 123.442 120.02 123.37C120.11 123.16 120.04 123.06 119.97 122.81C119.79 122.19 119.66 121.43 119.74 120.8C119.81 120.24 119.77 119.78 119.61 119.29C119.56 119.12 119.47 118.9 119.57 118.82C119.96 118.46 119.66 117.89 119.64 117.41C119.63 117.15 119.57 116.92 119.63 116.62C119.72 116.14 119.36 115.64 119.41 115.09C119.41 115.07 119.34 114.97 119.32 114.98C119.12 115.08 119.11 114.69 119.01 114.57C118.9 114.19 119.12 113.86 119 113.47C119.01 113.27 119.1 112.92 118.97 112.89C118.7 112.84 118.77 112.54 118.73 112.33C118.67 111.98 118.69 111.62 118.65 111.28C118.58 110.62 118.38 109.95 118.46 109.3C118.53 108.71 117.99 108.25 118.28 107.67C118.29 107.65 118.25 107.52 118.22 107.51C118 107.43 118.13 107.24 118.14 107.08C118.14 106.89 118.21 106.59 118.12 106.51C117.74 106.2 117.87 105.82 117.91 105.36C117.93 105.14 118.09 104.78 117.81 104.54C117.78 104.51 117.77 104.19 117.79 104.17C118.04 103.98 117.98 103.75 117.83 103.41C117.77 103.28 117.78 103 117.85 102.84C117.94 102.65 117.89 102.42 117.87 102.21C117.9 102.05 117.82 102 117.76 101.95C117.71 101.74 117.74 101.34 117.67 101.35C117.28 101.36 117.49 100.94 117.52 100.82C117.68 100.29 117.55 100.09 117.23 100.1C117.21 99.79 117.46 99.48 117.3 99.4C117.07 99.28 117.05 98.9 116.88 98.78C116.88 98.64 116.64 98.55 116.83 98.37C116.97 98.12 116.93 97.84 116.82 97.55C116.72 97.32 116.51 97.23 116.54 96.86C116.56 96.53 116.33 96.25 116.42 95.91C116.45 95.76 116.13 95.44 116.45 95.42C116.38 95.2 116.29 94.99 116.48 94.85C116.56 94.79 116.55 94.64 116.51 94.5C116.46 94.34 116.36 94.35 116.3 94.4C115.87 94.71 115.8 94.06 115.82 93.67C115.86 93.07 115.67 92.53 115.64 91.94C115.58 90.81 115.25 89.72 115.08 88.59C115.02 88.22 115.05 87.79 114.94 87.5C114.73 86.95 114.92 86.26 114.58 85.8C114.72 85.32 114.27 84.9 114.43 84.4C114.45 84.34 114.43 84.18 114.4 84.14C114.15 83.83 114.23 83.43 114.21 83.05C114.09 82.66 114.1 82.23 114.01 81.82C113.81 81.47 113.57 81.22 113.52 80.64C113.5 80.41 113.34 80.23 113.47 79.94C113.52 79.84 113.51 79.5 113.33 79.39C113.16 79.29 113.11 79.08 113.04 78.79C112.85 78.06 112.82 77.3 112.67 76.57C112.44 76.36 112.69 75.96 112.51 75.74C112.34 75.58 112.1 75.5 112.23 75.03C112.24 74.98 112.23 74.85 112.22 74.85C111.81 74.65 112.03 74.12 111.96 73.74C111.93 73.59 111.95 73.43 111.84 73.35C111.56 73.15 111.53 72.68 111.51 72.33C111.39 70.3 111.01 68.3 110.86 66.28C110.84 66 110.45 65.68 110.35 65.88C110.21 66.18 110.17 65.88 110.11 65.77C109.99 65.53 110.04 65.25 110.01 64.99C109.94 64.54 110.17 64.11 109.93 63.66C109.8 63.63 109.7 63.52 109.62 63.33C109.42 63.01 109.24 62.68 109.36 62.2C109.38 62.15 109.39 62.1 109.4 62.04C109.43 61.72 109.25 61.69 109.16 61.55C109.1 61.07 108.86 60.63 108.95 60.1C108.97 59.96 108.93 59.74 108.78 59.71C108.66 59.68 108.59 59.52 108.57 59.34C108.5 58.65 108.34 58.49 108.01 58.87C107.9 59 107.79 59.04 107.66 59.04C107.17 59.04 106.73 59.28 106.29 59.53C106.27 59.67 106.24 59.74 106.15 59.61C105.94 59.54 105.74 59.65 105.56 59.74C105.16 59.93 104.78 60.27 104.36 60.34C103.38 60.5 102.4 60.61 101.62 61.67C101.53 61.51 101.73 61.19 101.52 61.19C101.29 61.19 101.02 61.19 100.89 61.59C100.82 61.8 100.82 62.12 100.61 62.08C100.39 62.04 100.25 61.62 100.23 61.43C100.13 60.54 99.65 60.09 99.39 59.41C99.3 59.17 99.09 58.91 98.96 58.63L98.24 58.01C98.12 57.49 97.93 57.76 97.76 57.79C97.6 57.96 97.66 58.33 97.56 58.56C97.47 58.85 97.38 58.28 97.29 58.5L97.23 58.65C97.11 58.94 97.06 58.64 96.99 58.52C96.96 58.45 96.94 58.35 96.9 58.32C96.84 58.27 96.81 58.35 96.83 58.45C96.89 58.72 96.85 58.95 96.82 59.2C96.8 59.3 96.78 59.41 96.7 59.37L96.61 59.25C96.43 59.06 96.43 59.06 96.43 59.55L96.4 59.54C96.38 59.91 96.21 60.26 96.43 60.66C96.44 60.7 96.47 60.71 96.48 60.76C96.4514 60.7133 96.414 60.6726 96.37 60.64C96.28 60.59 96.2 60.55 96.12 60.64C96.05 60.71 96.08 60.99 95.97 60.92C95.84 60.84 95.93 60.67 95.95 60.54C95.97 60.38 95.95 60.24 95.86 60.14C95.7 60.05 95.72 60.32 95.66 60.43C95.63 60.6 95.66 60.81 95.58 60.95C95.41 60.83 95.45 60.3 95.19 60.35C95.25 61.09 95.38 61.84 95.36 62.68C95.23 62.33 95.13 62.08 95.04 61.83C94.96 61.77 94.89 61.78 94.82 61.79C94.72 61.9 94.61 62 94.53 62.17C94.53 62.25 94.54 62.33 94.54 62.41C94.51 62.56 94.51 62.72 94.45 62.84C94.5 62.74 94.47 62.65 94.42 62.55C94.43 62.19 94.24 61.96 94.16 61.66C93.82 61.53 94.05 62.12 93.93 62.27C93.88 62.31 93.82 62.36 93.78 62.21C93.73 61.85 93.66 61.68 93.46 61.94C93.26 62.2 93.01 62.37 93.04 62.94C92.62 63.03 92.29 63.64 91.78 63.21C91.57 63.03 91.3 63.21 91.08 62.84C91 62.77 91 63.03 90.96 63.12C90.84 63.41 90.61 63.5 90.47 63.36C90.08 62.95 89.71 62.81 89.31 63.05C89.26 63.08 89.23 63.06 89.23 62.92C89.22 62.47 88.98 62.46 88.88 62.54C88.69 62.71 88.46 62.67 88.28 62.85C88.06 63.08 87.88 63.17 87.84 62.5C87.83 62.38 87.73 62.32 87.65 62.39C87.65 62.94 87.32 62.79 87.16 62.99C87.12 62.99 87.08 63.01 87.05 62.99C86.79 62.8 86.57 63.31 86.37 63.08C86.15 62.81 86.09 62.85 86.07 63.34C85.87 62.69 85.7 62.31 85.42 62.91C85.38 62.99 85.2 63.13 85.26 62.7C85.31 62.3 85.02 62.43 85.02 62.43C84.94 62.98 84.69 62.64 84.59 62.5C84.36 62.2 84.34 62.4 84.29 62.68C84.25 62.89 83.92 62.59 84.03 63.08C84.19 63.8 83.87 63.58 83.73 63.46C83.56 63.32 83.44 63.15 83.3 63.43C83.25 63.53 83.19 63.51 83.14 63.39C83.02 63.08 82.94 63.14 82.89 63.43C82.87 63.58 82.81 63.64 82.73 63.62C82.66 63.6 82.61 63.52 82.62 63.39C82.67 62.84 82.41 63.06 82.37 63.13C82.23 63.35 82.12 63.41 81.94 63.17C81.9 63.12 81.8 63.14 81.76 63.19C81.32 63.78 81.3 63.8 80.73 63.83C80.61 63.84 80.6 63.95 80.61 64.13C80.65 64.89 80.83 65.64 80.81 66.41C80.81 66.46 80.85 66.53 80.87 66.58C81.01 66.81 80.93 66.98 80.87 67.17C80.74 67.11 80.77 66.73 80.63 66.77C80.46 66.81 80.43 67.09 80.42 67.35C80.24 67.21 80.21 66.56 79.97 66.81C79.78 67.01 79.61 66.69 79.44 66.84C79.01 67.24 78.55 67.09 78.07 66.79C77.93 66.7 77.64 66.47 77.56 66.98C77.63 67.24 77.51 67.21 77.43 67.23C77.27 67.28 77.1 67.19 76.96 67.35C76.53 67.44 76.11 67.64 75.68 67.61C75.05 67.56 74.44 67.77 73.81 67.68C73.72 67.55 73.64 67.61 73.57 67.7C73.48 67.78 73.39 67.84 73.28 67.74C73.01 67.78 72.76 67.73 72.48 67.55C72.35 67.47 72.26 67.09 72.08 67.27C71.88 67.48 71.87 66.96 71.72 66.87C71.6 66.8 71.83 66.68 71.83 66.51C71.87 66.44 71.96 66.48 71.99 66.38C72.08 65.88 71.9 65.49 71.67 65.37C71.44 65.25 71.4 65.76 71.29 66.02C71.27 66.08 71.29 66.19 71.29 66.28C71.29 66.43 71.31 66.61 71.18 66.61C71.09 66.61 71.03 66.5 71 66.37C70.93 65.99 70.77 65.6 70.86 65.21C70.91 65 70.87 64.78 70.77 64.82C70.49 64.94 70.29 64.56 70.05 64.45C69.55 64.23 69.03 64.14 68.54 63.76C68.34 63.84 68.48 64.03 68.53 64.2C68.53 64.23 68.55 64.25 68.55 64.28C68.48 64.05 68.4 63.85 68.23 63.83C67.92 63.89 67.66 64.35 67.29 63.97C67.19 63.87 67.14 64.08 67.07 64.13C66.99 64.18 66.96 64.46 66.83 64.29C66.74 64.17 66.72 63.95 66.76 63.79C66.85 63.41 66.63 63.26 66.53 63.04C66.47 62.92 66.33 62.85 66.29 62.98C66.22 63.18 66.14 63.42 66.24 63.71C66.25 63.73 66.26 63.75 66.26 63.77C66.27 63.9 66.28 64.05 66.21 64.12C66.13 64.2 66.07 64.1 66.02 63.97C65.97 63.84 65.92 63.85 65.86 63.92C65.87 64.08 65.88 64.25 65.9 64.41C65.879 64.2424 65.8134 64.0836 65.71 63.95C65.68 63.94 65.66 63.93 65.63 63.93C65.33 63.94 64.95 64.33 64.87 63.31C64.87 63.27 64.81 63.2 64.78 63.21C64.42 63.24 64.1 62.7 63.73 62.8C63.66 62.98 63.79 63.23 63.73 63.42C63.76 63.23 63.73 63.06 63.67 62.88C63.5 62.77 63.39 62.44 63.18 62.4C63.12 62.39 63.07 62.25 63.14 62.16C63.28 61.96 63.1 61.72 63.13 61.51C62.91 61.56 62.7 61.74 62.44 61.51C62.25 61.34 62.16 61.62 62.22 61.88C62.29 62.19 62.21 62.35 62.17 62.6C62.08 63.03 61.92 63.46 62 64C62.08 64.51 62.02 65.01 62.12 65.52C62.09 65.26 62.04 65.12 61.89 65.26C61.76 65.55 61.77 65.88 61.84 66.25C61.9 66.59 61.83 66.77 61.73 66.67C61.45 66.39 61.41 66.54 61.47 67C61.5 67.24 61.48 67.49 61.49 67.73C61.49 67.88 61.5 68.12 61.36 67.9C61.22 67.69 61.21 67.85 61.19 68C61.17 68.28 61.03 68.21 60.93 68.26C60.9 68.26 60.89 68.29 60.88 68.33C60.85 68.47 61.01 68.57 60.95 68.62C60.82 68.73 60.84 68.45 60.79 68.35C60.7724 68.3216 60.7524 68.2948 60.73 68.27L60.6 68.39C60.55 68.55 60.51 68.71 60.43 68.83C60.31 68.98 60.24 69.31 60.05 69.26C59.63 69.13 59.73 69.41 59.92 69.8C59.95 69.86 59.98 69.98 59.97 70.04C59.75 70.91 60 71.84 60.1 72.7C60.32 74.52 60.4 76.35 60.64 78.17C60.6 78.65 60.66 79.15 60.63 79.63C60.58 79.86 60.71 80.12 60.63 80.34C60.58 80.35 60.53 80.36 60.48 80.36C60.37 80.35 60.28 79.92 60.16 80.23C60.09 80.41 60.1 80.64 60.23 80.84C60.34 81.02 60.3 81.22 60.25 81.39C60.21 81.51 60.18 81.72 60.23 81.75C60.59 81.96 60.54 82.53 60.49 82.8C60.35 83.58 60.87 84.59 60.36 85.22C60.33 85.26 60.36 85.44 60.35 85.54C60.3 86 60.49 86.49 60.46 86.88C60.42 87.34 60.53 87.77 60.52 88.12C60.51 88.85 60.45 89.51 60.64 90.25C60.68 90.39 60.6 90.67 60.65 90.95C60.74 91.52 60.83 92.13 60.81 92.69C60.75 93.87 60.74 95.03 60.91 96.23C60.96 96.6 60.84 97.1 60.95 97.33C61.29 98.03 60.93 98.38 60.87 98.88C60.86 98.99 60.82 99.11 60.89 99.14C61.34 99.39 61.03 99.78 61.03 100.11C61.03 100.47 60.99 100.74 60.81 101.01C60.66 101.24 61.13 101.6 61.01 102.04C61.24 102.26 61.26 102.72 61.48 103.04C61.15 102.81 61.12 102.9 61.16 103.44C61.18 103.78 61.37 103.77 61.37 104.07C61.38 105.08 61.73 106.07 61.62 107.12C61.57 107.59 61.48 108.26 61.84 108.72C61.5 109.46 62.26 110.21 61.99 110.96C61.98 110.99 62.01 111.1 62.03 111.13C62.52 111.8 62.5 112.65 62.46 113.5C62.45 113.67 62.42 113.82 62.54 113.88C62.82 114.01 62.74 114.36 62.76 114.65C62.76 114.75 62.74 114.9 62.8 114.95C63.06 115.17 62.81 115.16 62.78 115.25C62.68 115.8 63.11 116.23 63.01 116.79C62.9 117.38 63.11 117.84 63.33 118.29C63.41 118.65 63.15 118.42 63.14 118.62C63.15 118.8 63.23 118.89 63.31 119C63.47 119.24 63.77 119.45 63.44 119.83C63.39 119.89 63.41 120.06 63.5 120.16C63.87 120.56 63.93 120.93 63.72 121.44C63.68 121.53 63.64 121.67 63.69 121.73C63.95 122.05 63.82 122.51 63.91 122.87C64.23 124.1 64.29 125.38 64.43 126.64C64.5 127.26 64.65 127.86 64.77 128.45C64.86 128.91 65 129.32 64.93 129.79C65.08 129.92 64.94 130.19 65.06 130.34C65.28 130.85 65.2 131.39 65.24 131.92C65.25 132.1 65.22 132.42 65.35 132.45C65.59 132.51 65.58 132.85 65.56 132.99C65.52 133.33 65.73 133.66 65.62 133.98C65.61 134 65.66 134.09 65.68 134.16C65.78 134.5 66.11 134.73 65.92 135.22C65.92 135.22 66.01 135.38 66.04 135.37C66.4 135.19 66.34 135.96 66.57 136.09C66.35 136.46 66.7 136.69 66.71 137C66.71 137.06 66.72 137.17 66.71 137.18C66.21 137.36 66.86 137.66 66.73 137.87C66.87 137.92 66.89 138.18 66.99 138.29C67.05 138.38 67.11 138.46 67.18 138.51C67.27 139.18 67.38 139.86 67.46 140.53C67.52 141.07 67.58 141.75 67.8 142.03C68.04 142.35 68.09 142.6 68.05 143.03C68.28 143.04 68.53 142.75 68.52 143.52C68.52 143.88 68.7 144.31 68.69 144.75C68.68 144.9 68.73 145.16 68.86 145.16C69.09 145.17 69.09 145.36 69.05 145.64C69.03 145.81 69.05 145.94 69.17 146C69.36 146.09 69.38 146.35 69.41 146.62C69.46 147.19 69.6 147.92 69.81 148.14C70.11 148.45 70.07 149.02 70.35 149.34C70.49 149.51 70.65 150.16 70.73 150.55C70.98 151.85 71.57 152.85 71.83 154.11C71.89 154.38 72.12 154.51 72.06 154.79C71.97 155.26 72.09 155.71 72.14 156.16C72.35 156.4 72.09 156.34 72.1 156.45C72 157.02 72.46 157.45 72.35 158.07C72.32 158.23 72.52 158.19 72.61 158.17C72.81 158.14 72.93 158.18 73.03 158.6C73.09 158.86 73.17 159.15 73.26 159.4C73.49 160.06 73.43 160.82 73.7 161.51C73.83 161.85 73.98 162.38 73.97 162.83C73.96 163.29 73.99 163.33 74.23 163.19C74.61 162.98 74.65 163.07 74.74 163.83C74.77 164.03 74.72 164.49 75.03 164.34C75.13 164.29 75.07 164.72 75.23 164.77C75.26 164.78 75.25 164.98 75.2 165.05C74.97 165.35 74.99 165.57 75.29 165.87C75.39 165.97 75.5 166.04 75.44 166.24C75.31 166.68 75.51 166.63 75.65 166.7C75.77 166.76 75.96 166.69 75.93 167.12C75.89 167.62 76.04 167.56 76.22 167.43C76.95 166.92 77.69 166.47 78.41 165.93C78.76 165.67 79.19 165.63 79.43 165.04C79.45 164.99 79.44 164.93 79.42 164.87C79.47 164.88 79.47 164.99 79.51 165.02C79.86 164.88 80.15 164.51 80.53 164.49C80.6 164.23 80.73 164.15 80.9 164.21C81.22 163.92 81.64 163.95 81.87 163.42C81.81 163.04 81.82 163.04 82.01 163.17C82.17 163.35 82.15 163.1 82.2 162.98C82.31 162.76 82.45 162.46 82.64 162.63C82.97 162.92 83.18 162.88 83.28 162.32C83.35 161.93 83.37 161.57 83.72 161.82C83.87 161.93 84.02 161.74 84.08 161.42C84.13 161.16 84.18 160.81 84.45 161.04C84.52 161.1 84.62 161.03 84.65 160.92C84.71 160.61 84.81 160.75 84.94 160.85C85.46 161.22 85.55 161.11 85.5 160.21C85.49 159.96 85.52 159.73 85.69 159.68C85.78 159.66 85.88 159.39 85.95 159.6C86.17 160.29 86.44 159.9 86.69 159.92C86.72 159.84 86.73 159.78 86.72 159.73C86.74 159.79 86.77 159.86 86.8 159.91C87.14 160.19 86.77 159.47 86.98 159.55C87.11 159.55 87.03 159.94 87.23 159.93C87.14 159.52 87.12 159.2 87.46 159.43C87.55 159.49 87.58 159.33 87.58 159.19C87.75 159.06 87.72 158.64 87.9 158.51C88.08 158.53 88.21 158.37 88.35 158.24C88.37 158.21 88.38 158.13 88.42 158.16C88.47 158.19 88.39 158.12 88.42 158.21C88.4 158.3 88.38 158.4 88.39 158.51C88.42 158.6 88.47 158.62 88.52 158.64C88.67 158.59 88.78 158.44 88.87 158.24C88.94 158.03 88.92 157.8 88.88 157.56C88.87 157.52 88.85 157.46 88.86 157.43C88.9 157.29 88.9 157.46 88.9 157.46C88.93 157.58 88.94 157.71 88.96 157.83C88.99 158 89.07 158.09 89.14 158.2C89.25 158.54 89.36 158.47 89.48 158.3C89.57 158.17 89.56 158.05 89.45 157.93C89.31 157.78 89.24 157.58 89.32 157.37C89.39 157.18 89.48 157.05 89.67 157.05C89.87 157.05 90.23 157.66 90.26 156.85C90.44 156.95 90.38 157.23 90.51 157.4C90.54 156.82 90.76 157.19 90.91 157.22C90.96 157.07 90.86 156.89 90.91 156.7C90.9 157.03 90.95 157.15 91.12 157.03C91.43 156.68 91.84 156.52 92.16 156.62C92.53 156.74 92.75 156.49 93.04 156.4C93.29 156.32 93.48 156.05 93.73 155.95C94.05 155.82 94.4 155.74 94.71 155.53C94.82 155.45 94.93 155.49 94.85 155.77C94.77 156.08 94.94 156.13 95.03 156.18C95.14 156.26 95.25 156.18 95.3 155.96C95.36 155.64 95.22 155.65 95.1 155.6C95.04 155.57 95.03 155.48 95.03 155.38C95.43 155.43 95.77 155.13 96.18 155.2C96.5 155.26 96.86 155.05 97.15 155.07C97.64 155.11 98.08 154.73 98.58 154.98C98.67 155.03 98.79 155.01 98.85 154.83C98.88 154.76 98.9 154.64 98.99 154.77C99.23 155.09 99.42 154.85 99.63 154.76C99.77 154.7 99.91 154.18 100.1 154.81C100.13 154.92 100.28 154.85 100.28 154.64C100.28 154.47 100.26 154.3 100.25 154.1C100.31 154.13 100.37 154.14 100.38 154.18C100.54 154.77 100.77 154.79 101.09 154.72C101.26 154.68 101.31 154.67 101.28 154.38C101.24 153.99 101.23 153.59 101.2 153.14C101.38 153.33 101.28 153.73 101.45 153.75C101.76 153.79 101.87 155.05 102.29 154.29C102.29 154.29 102.34 154.38 102.38 154.42C102.58 154.64 102.75 154.74 102.82 154.25C102.98 154.38 103.13 154.66 103.32 154.51C103.4 154.45 103.42 154.31 103.41 154.19C103.38 153.81 103.47 153.48 103.42 153.08C103.32 152.27 103.36 152.24 103.77 152.26C103.75 152.57 103.72 152.87 103.71 153.17C103.7 153.58 103.75 153.96 103.95 154.29C104.09 154.54 104.22 154.38 104.35 154.39C104.41 154.4 104.44 154.32 104.4 154.21C104.29 153.84 104.41 153.4 104.22 153.05C104.11 152.75 104.33 152.88 104.35 152.75L104.28 151.95C104.33 151.81 104.32 151.66 104.29 151.5C104.32 151.67 104.36 151.81 104.43 151.95C104.42 152.57 104.58 153.2 104.56 153.83C104.56 153.87 104.57 154.37 104.77 154.34C104.89 154.32 105.11 154.52 105.11 154.08C105.08 153.84 105.07 153.59 105.05 153.35C105.07 153.54 105.1 153.73 105.19 153.89C105.35 154.27 105.55 154.28 105.73 154.11C105.94 153.9 105.73 153.6 105.68 153.35C105.54 152.72 105.36 152.09 105.47 151.43C105.51 151.39 105.47 151.28 105.52 151.26C105.51 151.32 105.51 151.37 105.54 151.42C105.68 151.72 105.61 152.29 105.71 152.35C106.07 152.57 105.96 152.95 105.94 153.29C105.92 153.64 106.08 153.66 106.18 153.73C106.3 153.81 106.32 153.61 106.3 153.44C106.26 152.94 106.39 152.46 106.2 151.93C106.11 151.67 106.12 151.3 106.28 151.04C106.43 151.4 106.26 151.71 106.36 152.01C106.47 152.12 106.58 152.28 106.72 152.22C106.75 151.81 106.61 151.41 106.65 151.02C106.72 150.87 106.5 150.5 106.71 150.51C106.88 150.52 106.84 150.84 106.87 151.05C106.99 151.9 107.04 152.75 107.1 153.6C107.13 153.99 107.22 153.95 107.34 153.79C107.7 154.03 107.78 154.01 107.8 153.5V153.55C107.8 153.92 107.94 154.01 108.11 153.83C108.12 153.78 108.14 153.73 108.15 153.68C108.18 153.66 108.14 153.57 108.18 153.57C108.21 153.58 108.22 153.65 108.24 153.7C108.41 153.95 108.5 153.95 108.45 153.53L108.33 152.75C108.41 152.56 108.34 152.32 108.34 152.1C108.37 152.37 108.37 152.63 108.49 152.85C108.54 153.28 108.61 153.64 108.93 153.76C109.1 153.82 108.98 153.4 109.15 153.5C109.39 153.64 109.38 153.61 109.4 153.22C109.41 152.99 109.26 152.58 109.55 152.6C109.69 152.42 109.65 152.11 109.69 151.87C109.73 151.99 109.71 152.15 109.77 152.27C109.85 152.46 109.98 152.59 109.96 152.86C109.96 152.97 109.96 153.09 110.01 153.2C110.05 153.66 110.23 153.53 110.36 153.49C110.47 153.46 110.72 153.45 110.67 153.31C110.52 152.84 110.75 152.58 110.73 152.21C110.77 152.17 110.79 152.1 110.81 152.03C110.84 152.09 110.82 152.16 110.84 152.23C110.86 152.31 110.87 152.39 110.9 152.47C111.06 152.72 110.98 153.11 111.18 153.47C111.26 152.81 111.09 152.17 111.21 151.62C111.26 151.53 111.22 151.42 111.22 151.32C111.23 151.46 111.3 151.53 111.35 151.63C111.52 152.19 111.48 152.75 111.48 153.33C111.71 153.36 111.94 153.21 112.15 153.28C112.72 153.46 113.25 153.12 113.79 153.26C114.33 153.4 114.69 152.58 115.24 152.95C115.25 152.96 115.26 152.94 115.27 152.92C115.37 152.7 115.64 153.1 115.69 152.66C115.71 152.68 115.74 152.7 115.76 152.72C116.03 152.97 116.27 152.96 116.47 152.61C116.54 152.49 116.66 152.48 116.75 152.63C116.87 152.82 117 152.78 117.12 152.77C117.5 152.73 117.88 152.68 118.26 152.63C118.32 152.45 118.3 152.25 118.27 152.04C118.262 151.977 118.242 151.915 118.21 151.86C118.2 151.85 118.2 151.83 118.19 151.82C118.21 151.83 118.22 151.84 118.24 151.84C118.3 151.81 118.31 151.7 118.35 151.63C118.33 151.71 118.31 151.79 118.29 151.88C118.28 151.94 118.28 152 118.28 152.07C118.31 152.25 118.28 152.44 118.35 152.61C119.5 152.5 120.64 152.4 121.79 152.27C121.99 152.25 122.26 152.41 122.31 151.88C122.32 151.77 122.37 151.81 122.43 151.85C122.82 152.13 122.67 151.99 122.8 151.52C122.98 150.8 122.55 150.35 122.59 149.76V149.76ZM100.24 138.72C97.61 139.5 93.52 140.21 90.69 139.17C90.71 139.31 90.75 139.43 90.76 139.57C90.8 140.11 90.17 140.35 89.76 140.14C82.9 136.75 81.74 128.48 85.22 122.58C85.34 122.16 85.48 121.75 85.67 121.33C86.23 120.14 87.29 119.1 88.57 118.33C88.6 118.29 88.63 118.25 88.67 118.22C92.61 113.97 98.17 114.27 101.66 118.82C101.78 118.98 101.9 119.16 102.02 119.33C102.09 119.4 102.16 119.46 102.23 119.53C102.44 119.67 102.64 119.81 102.83 119.96C103.02 119.85 103.25 119.83 103.49 119.94C111.31 123.42 107.13 136.68 100.24 138.72V138.72Z" fill="url(#paint0_linear_1230_3597)"/>
<path d="M90.4 121C91.28 120.81 92.2 120.79 93.08 120.93M88.73 121.38C88.11 123.1 87.97 124.98 88.3 126.77C88.63 128.56 89.43 130.27 90.57 131.69C90.95 132.17 91.38 132.62 91.89 132.97C92.18 133.17 92.5 133.33 92.82 133.48C93.77 133.91 94.79 134.22 95.83 134.37" stroke="black" stroke-width="1.5" stroke-miterlimit="10"/>
<path d="M93.25 121.56C93.35 122.17 93.45 122.79 93.56 123.4C93.58 123.5 93.59 123.6 93.57 123.7C93.5305 123.813 93.4572 123.911 93.36 123.98C92.94 124.33 92.33 124.45 92 124.89C91.66 125.35 91.73 125.98 91.82 126.54C91.98 127.51 92.19 128.52 92.8 129.3C93.09 129.67 93.46 129.97 93.84 130.25C94.65 130.86 95.51 131.44 96.47 131.79C96.56 131.82 96.67 131.86 96.76 131.81C96.83 131.78 96.88 131.7 96.91 131.63C97.09 131.29 97.27 130.95 97.46 130.61C97.56 130.43 97.66 130.24 97.83 130.11C98.15 129.87 98.6 129.95 98.98 130.06C99.75 130.27 100.5 130.53 101.25 130.8C101.49 130.88 101.72 130.97 101.95 131.07C102.04 131.11 102.13 131.16 102.2 131.23C102.33 131.36 102.39 131.55 102.4 131.73C102.44 132.27 102.13 132.78 101.71 133.13C101.3 133.47 100.79 133.68 100.28 133.87C99.11 134.32 97.89 134.77 96.65 134.67" stroke="black" stroke-width="1.5" stroke-miterlimit="10"/>
<path d="M20.77 42.5002C20.76 44.1702 20.76 45.8402 20.75 47.5002C20.75 47.9002 20.75 48.3302 20.98 48.6702C21.36 49.2402 22.17 49.2902 22.83 49.1302C23.49 48.9702 24.13 48.6502 24.81 48.6902C26.11 48.7602 26.95 50.0402 27.68 51.1202C28.41 52.2002 29.64 53.3002 30.86 52.8402M14.31 143.36C15.99 144.96 18.74 145.3 20.76 144.16C22.52 143.17 24 141.16 25.99 141.47C26.67 141.58 27.34 141.97 28.01 141.82C28.98 141.61 29.36 140.46 30 139.69C31.01 138.48 33 138.26 34.25 139.21M149.66 127.5C151.08 126.69 152.94 126.9 154.33 127.76C155.73 128.61 156.71 130.02 157.36 131.52C157.54 131.93 157.71 132.37 158.08 132.62C158.87 133.15 159.87 132.46 160.78 132.15C162.25 131.65 163.84 132.25 165.32 132.71C166.8 133.17 168.57 133.46 169.79 132.48M143.38 72.6502C144.9 71.2102 146.41 69.7702 147.93 68.3302C148.36 67.9202 148.85 67.4902 149.45 67.4902C149.86 67.4902 150.24 67.7102 150.63 67.8302C151.99 68.2202 153.38 67.3202 154.36 66.3102C155.34 65.2902 156.2 64.0702 157.5 63.5202C159.74 62.5702 162.52 63.9302 164.69 62.8402M116.83 31.0302C116.86 28.8102 117.37 26.3902 119.11 25.0202C119.88 24.4202 120.81 24.0802 121.68 23.6202C124.41 22.1702 126.39 19.3702 126.86 16.3102M66.22 25.7302C66.92 24.1002 66.2 22.1602 65.02 20.8302C63.84 19.5002 62.25 18.6302 60.81 17.6002C59.462 16.6434 58.2185 15.5474 57.1 14.3302C56.58 13.7702 56.08 13.1502 55.88 12.4102C55.68 11.6702 55.85 10.7802 56.47 10.3402C55.9 10.1302 55.33 9.9202 54.76 9.7002M22.36 102.91C19.48 101.35 15.49 102.33 13.66 105.05C13.4 105.44 12.97 105.91 12.57 105.68C12.41 105.59 12.33 105.41 12.26 105.23C10.83 101.6 10.87 97.3602 8.62001 94.1702C7.82001 95.9902 7.02001 97.8002 6.23001 99.6202M99.77 188.71C98.249 190.635 97.0285 192.78 96.15 195.07C97.64 194.21 99.41 193.32 101 193.97C102.85 194.73 103.36 197.17 103.01 199.14C102.67 201.11 101.75 203 101.78 205C101.79 205.54 101.88 206.11 102.24 206.52C102.6 206.93 103.28 207.09 103.68 206.73M153.3 170.35C153.46 171.16 153.71 172.08 154.44 172.45C155.62 173.05 156.96 171.8 158.28 171.89C159.94 172 160.67 174 160.99 175.64C161.31 177.27 162.01 179.28 163.67 179.43" stroke="#1D1D1B" stroke-width="1.5" stroke-miterlimit="10"/>
<defs>
<linearGradient id="paint0_linear_1230_3597" x1="47.5" y1="3" x2="129.5" y2="189.5" gradientUnits="userSpaceOnUse">
<stop offset="0.208333" stop-color="#9958FF"/>
<stop offset="1" stop-color="#6906E0"/>
</linearGradient>
</defs>
</svg>
