<svg width="197" height="141" viewBox="0 0 197 141" fill="none" xmlns="http://www.w3.org/2000/svg">
<path d="M160.99 32.3601C160.79 32.3553 160.598 32.2791 160.45 32.1451C160.301 32.0112 160.206 31.8285 160.18 31.6301C159.98 29.8501 159.68 28.0101 159.4 26.2301C158.67 21.7301 157.92 17.0701 158.62 12.5001C158.68 12.0501 159.1 11.7301 159.55 11.8001H159.57C160.03 11.8701 160.34 12.3001 160.27 12.7501C159.61 17.0501 160.34 21.5801 161.05 25.9601C161.34 27.7601 161.64 29.6101 161.84 31.4401C161.89 31.9001 161.56 32.3101 161.1 32.3601H160.99V32.3601Z" fill="#FC6A27"/>
<path d="M161.11 13.9602C160.73 13.9602 159.11 13.6702 158.74 13.1302C158.655 13.0032 158.604 12.8559 158.594 12.7033C158.583 12.5506 158.613 12.3978 158.68 12.2602C158.99 11.6302 159.57 11.7402 160.95 11.9002L161.33 11.9502H161.59L175.23 11.3002C175.68 11.2702 176.07 11.6002 176.1 12.0502V12.0902C176.11 12.5402 175.77 12.9202 175.32 12.9502L161.81 13.5802C161.65 13.7902 161.41 13.9202 161.15 13.9502L161.11 13.9602V13.9602Z" fill="#FC6A27"/>
<path d="M176.83 29.3602C176.64 29.3562 176.455 29.2961 176.298 29.1877C176.142 29.0792 176.021 28.9271 175.95 28.7502C175.87 28.4802 175.9 28.1902 176.04 27.9402C175.1 22.7602 174.44 17.5402 174.06 12.2902C174.01 11.8302 174.34 11.4202 174.8 11.3702C175.26 11.3202 175.67 11.6502 175.72 12.1102V12.1602C176.11 17.4802 176.79 22.7702 177.75 28.0102C177.91 28.5702 177.59 29.1602 177.02 29.3302C176.96 29.3502 176.89 29.3602 176.83 29.3602V29.3602Z" fill="#FC6A27"/>
<path d="M161.86 31.2298C161.4 31.2298 161.03 30.8498 161.03 30.3898C161.03 29.9898 161.31 29.6498 161.7 29.5798C166.86 28.5798 172.1 28.0598 177.35 28.0098C177.81 28.0098 178.19 28.3798 178.19 28.8398C178.19 29.2998 177.82 29.6798 177.36 29.6798C172.2 29.7198 167.05 30.2398 161.99 31.2198C161.94 31.2198 161.9 31.2298 161.86 31.2298V31.2298ZM178.57 76.3398H178.44C178.332 76.3234 178.228 76.2858 178.134 76.2292C178.04 76.1726 177.958 76.0981 177.893 76.0098C177.828 75.9216 177.781 75.8214 177.755 75.715C177.729 75.6086 177.724 75.4981 177.74 75.3898C178.4 71.0798 177.67 66.5598 176.96 62.1798C176.67 60.3798 176.37 58.5298 176.17 56.7098C176.11 56.2498 176.43 55.8298 176.89 55.7698C177.35 55.7098 177.77 56.0298 177.83 56.4898V56.5298C178.03 58.3098 178.33 60.1498 178.61 61.9198C179.34 66.4198 180.09 71.0798 179.39 75.6498C179.357 75.8431 179.256 76.0185 179.106 76.1448C178.956 76.2712 178.766 76.3402 178.57 76.3398V76.3398Z" fill="#FC6A27"/>
<path d="M162.73 76.8702C162.518 76.8598 162.318 76.7693 162.17 76.6168C162.022 76.4644 161.938 76.2615 161.934 76.0492C161.93 75.8369 162.007 75.6311 162.149 75.4735C162.292 75.3158 162.488 75.2181 162.7 75.2002L176.19 74.5502C176.35 74.3402 176.59 74.2102 176.85 74.1802C177.13 74.1802 178.87 74.4502 179.26 75.0102C179.43 75.2702 179.46 75.6002 179.33 75.8802C179.01 76.5102 178.44 76.4302 177.07 76.2502L176.68 76.2002L162.79 76.8702H162.73V76.8702Z" fill="#FC6A27"/>
<path d="M163.11 76.7598C162.9 76.7603 162.697 76.6812 162.543 76.5383C162.389 76.3954 162.295 76.1994 162.28 75.9898C161.893 70.6739 161.218 65.3829 160.26 60.1398C160.1 59.5698 160.42 58.9798 160.99 58.8098C161.44 58.7198 161.9 58.9598 162.06 59.3898C162.15 59.6598 162.11 59.9498 161.97 60.1998C162.91 65.3798 163.57 70.5998 163.95 75.8498C163.98 76.3098 163.63 76.7098 163.17 76.7498L163.11 76.7598V76.7598Z" fill="#FC6A27"/>
<path d="M160.61 60.1498C160.403 60.1295 160.21 60.0327 160.07 59.8784C159.93 59.724 159.853 59.5231 159.853 59.3148C159.853 59.1064 159.93 58.9056 160.07 58.7512C160.21 58.5969 160.403 58.5001 160.61 58.4798C165.77 58.4398 170.91 57.9198 175.98 56.9398C176.43 56.8498 176.87 57.1498 176.96 57.5998C177.05 58.0498 176.75 58.4898 176.3 58.5798C171.14 59.5798 165.9 60.0998 160.65 60.1498H160.61V60.1498ZM166.88 119.71C166.45 119.71 166.1 119.39 166.05 118.96C165.85 117.18 165.55 115.34 165.27 113.56C164.54 109.06 163.79 104.4 164.49 99.8298C164.57 99.3798 164.99 99.0698 165.44 99.1298C165.9 99.1998 166.21 99.6298 166.14 100.08C165.48 104.39 166.21 108.91 166.92 113.29C167.21 115.09 167.51 116.94 167.71 118.77C167.76 119.23 167.43 119.64 166.97 119.69L166.88 119.71V119.71Z" fill="#FC6A27"/>
<path d="M167 101.3C166.62 101.3 165 101.01 164.62 100.47C164.536 100.342 164.487 100.195 164.479 100.042C164.47 99.8892 164.501 99.7369 164.57 99.6002C164.88 98.9802 165.45 99.0802 166.82 99.2402L167.21 99.2902L181.11 98.6402C181.54 98.5902 181.93 98.8902 181.98 99.3102C181.99 99.3502 181.99 99.3902 181.99 99.4302C182.01 99.8902 181.66 100.28 181.2 100.31L167.7 100.96C167.54 101.16 167.3 101.3 167.04 101.33L167 101.3Z" fill="#FC6A27"/>
<path d="M182.71 116.69C182.52 116.686 182.335 116.626 182.178 116.518C182.022 116.409 181.901 116.257 181.83 116.08C181.75 115.81 181.78 115.52 181.92 115.27C180.98 110.09 180.32 104.87 179.94 99.6201C179.91 99.1601 180.25 98.7601 180.71 98.7201C181.17 98.7001 181.56 99.0401 181.61 99.5001C182 104.81 182.69 110.1 183.66 115.34C183.83 115.89 183.52 116.48 182.97 116.65C182.95 116.66 182.94 116.66 182.92 116.66C182.852 116.681 182.781 116.691 182.71 116.69Z" fill="#FC6A27"/>
<path d="M167.75 118.56C167.29 118.56 166.92 118.18 166.92 117.72C166.92 117.32 167.2 116.98 167.59 116.91C172.75 115.91 177.99 115.39 183.24 115.34C183.447 115.36 183.64 115.457 183.78 115.611C183.92 115.766 183.997 115.967 183.997 116.175C183.997 116.383 183.92 116.584 183.78 116.738C183.64 116.893 183.447 116.99 183.24 117.01C178.08 117.05 172.93 117.56 167.87 118.54C167.83 118.55 167.79 118.56 167.75 118.56V118.56Z" fill="#FC6A27"/>
<path d="M173.4 112.36C173.13 112.36 172.88 112.23 172.72 112.01L169.59 107.59C169.525 107.502 169.479 107.401 169.454 107.295C169.428 107.188 169.424 107.078 169.442 106.97C169.459 106.862 169.498 106.759 169.557 106.666C169.615 106.573 169.691 106.493 169.78 106.43L169.79 106.42C170.17 106.15 170.69 106.24 170.96 106.61L173.05 109.55C174.693 103.297 177.197 97.3032 180.49 91.7399C180.7 91.3199 181.2 91.1499 181.62 91.3599C182.04 91.5699 182.21 92.0699 182 92.4899C181.98 92.5299 181.96 92.5699 181.93 92.5999C178.412 98.5427 175.819 104.987 174.24 111.71C174.17 112.03 173.91 112.28 173.59 112.34C173.52 112.35 173.46 112.36 173.4 112.36V112.36ZM13.92 41.6199H13.84C13.6682 41.5974 13.5121 41.5082 13.4055 41.3717C13.2988 41.2351 13.2502 41.062 13.27 40.8899C14.22 33.4099 16.01 26.0499 18.61 18.9699C18.74 18.6299 19.11 18.4599 19.45 18.5799C19.79 18.7099 19.96 19.0799 19.84 19.4199C17.2845 26.4062 15.5267 33.6588 14.6 41.0399C14.55 41.3799 14.26 41.6299 13.92 41.6199Z" fill="#12100B"/>
<path d="M24.06 41.2998C23.75 41.2998 23.48 41.0798 23.42 40.7798L19.93 23.0898C19.73 21.9398 19.45 20.7998 19.07 19.6998C18.94 19.3598 19.12 18.9898 19.46 18.8598C19.8 18.7298 20.17 18.9098 20.3 19.2498C20.7 20.4198 21 21.6198 21.21 22.8498L24.7 40.5398C24.77 40.8898 24.55 41.2298 24.2 41.2998H24.06V41.2998Z" fill="#12100B"/>
<path d="M24.02 41.9402H23.88C23.795 41.9244 23.714 41.8918 23.6417 41.8444C23.5693 41.797 23.5072 41.7357 23.4588 41.664C23.4104 41.5924 23.3767 41.5118 23.3598 41.427C23.3428 41.3422 23.3429 41.2549 23.36 41.1702V41.1602L28.11 19.0802C28.21 18.7302 28.57 18.5202 28.92 18.6202C29.24 18.7102 29.45 19.0302 29.4 19.3602L24.65 41.4402C24.6133 41.5805 24.532 41.7051 24.4184 41.7952C24.3048 41.8854 24.165 41.9362 24.02 41.9402V41.9402Z" fill="#12100B"/>
<path d="M32.43 40.9202C32.14 40.9202 31.88 40.7302 31.8 40.4502C29.882 33.9073 28.6881 27.1736 28.24 20.3702C28.2347 20.2848 28.2464 20.1992 28.2742 20.1184C28.302 20.0375 28.3455 19.9629 28.4021 19.8988C28.4587 19.8347 28.5274 19.7825 28.6043 19.7449C28.6812 19.7074 28.7646 19.6854 28.85 19.6802C28.9354 19.6749 29.0209 19.6865 29.1018 19.7143C29.1827 19.7421 29.2573 19.7856 29.3213 19.8423C29.3854 19.8989 29.4377 19.9676 29.4752 20.0445C29.5127 20.1213 29.5347 20.2048 29.54 20.2902C29.98 27.0102 31.15 33.6602 33.05 40.1202C33.15 40.4702 32.95 40.8302 32.61 40.9302C32.55 40.9302 32.49 40.9302 32.43 40.9202V40.9202ZM37.42 40.9602C37.18 40.9602 36.95 40.8202 36.84 40.6102C36.32 39.5702 36.54 38.4402 36.69 37.6002L39.59 22.4702C39.93 20.7002 40.56 18.6002 42.45 18.0502C42.53 18.0302 42.61 18.0302 42.7 18.0502C43.29 18.1002 44.07 18.5102 44.37 20.1402C45.59 26.7702 46.55 33.5202 47.23 40.2202C47.29 40.5802 47.05 40.9202 46.7 40.9802C46.34 41.0402 46 40.8002 45.94 40.4502C45.93 40.4202 45.93 40.3902 45.93 40.3602C45.25 33.6902 44.29 26.9702 43.08 20.3702C43.06 20.0002 42.91 19.6602 42.66 19.3802C41.56 19.8202 41.13 21.3902 40.87 22.7302L37.98 37.8602C37.82 38.7102 37.71 39.4502 37.98 40.0202C38.14 40.3402 38.02 40.7302 37.7 40.9002C37.61 40.9502 37.51 40.9702 37.42 40.9602Z" fill="#12100B"/>
<path d="M36.11 30.1999C35.9364 30.2086 35.7664 30.1483 35.6372 30.0321C35.5079 29.916 35.4298 29.7534 35.42 29.5799C35.4 29.2199 35.68 28.9099 36.04 28.8899L49.16 27.5399C49.3236 27.5386 49.4817 27.5984 49.6035 27.7077C49.7252 27.817 49.8017 27.9678 49.818 28.1306C49.8342 28.2933 49.7891 28.4563 49.6914 28.5875C49.5938 28.7188 49.4506 28.8088 49.29 28.8399L36.18 30.1999H36.11ZM60.91 40.3399C60.83 40.3399 60.76 40.3299 60.69 40.2999C59.09 39.7299 57.35 39.6299 55.69 40.0099C55.13 40.1499 54.28 40.3399 53.63 39.7999C53.25 39.4099 53.03 38.8799 53.01 38.3299C52.3 31.5599 52.54 24.7299 53.71 18.0299C53.78 17.6799 54.13 17.4499 54.48 17.5199C54.82 17.5899 55.04 17.9099 54.99 18.2599C53.8395 24.8395 53.6106 31.5472 54.31 38.1899C54.31 38.3399 54.36 38.7099 54.47 38.7999C54.58 38.8899 55.06 38.7999 55.37 38.7399C57.28 38.2999 59.27 38.4099 61.11 39.0699C61.45 39.1899 61.63 39.5599 61.51 39.8999C61.42 40.1599 61.17 40.3399 60.89 40.3399H60.91V40.3399ZM66.52 40.5099C66.36 40.5099 66.2 40.4499 66.08 40.3399C66.0074 40.2752 65.9507 40.1946 65.9143 40.1044C65.8779 40.0142 65.8627 39.9169 65.87 39.8199L66.65 19.5899C66.64 19.2599 66.9 18.9699 67.23 18.9599H67.33C67.69 18.9699 67.97 19.2799 67.96 19.6399L67.21 39.0999L73.33 38.2999C73.68 38.2199 74.04 38.4499 74.11 38.7999C74.19 39.1499 73.96 39.5099 73.61 39.5799C73.57 39.5899 73.53 39.5899 73.5 39.5899L66.62 40.4899L66.52 40.5099V40.5099Z" fill="#12100B"/>
<path d="M65.63 29.5799C65.4647 29.5877 65.3026 29.5321 65.1768 29.4245C65.0511 29.3168 64.9711 29.1653 64.9533 29.0007C64.9354 28.8362 64.981 28.671 65.0807 28.5389C65.1805 28.4068 65.3268 28.3178 65.49 28.2899L71.15 27.0799C71.51 27.0199 71.85 27.2699 71.9 27.6299C71.95 27.9599 71.75 28.2799 71.42 28.3699L65.76 29.5799H65.63ZM65.96 20.5799C65.6 20.5799 65.31 20.2899 65.3 19.9299C65.3 19.6399 65.49 19.3799 65.77 19.2999C68.4 18.5199 71.16 18.2999 73.87 18.6599C74.23 18.7099 74.48 19.0399 74.43 19.3999C74.38 19.7599 74.05 20.0099 73.69 19.9599C71.16 19.6299 68.59 19.8299 66.14 20.5499C66.08 20.5699 66.02 20.5799 65.96 20.5799ZM42.25 82.3599H42.17C41.9982 82.3374 41.8421 82.2482 41.7355 82.1117C41.6288 81.9751 41.5802 81.802 41.6 81.6299C42.55 74.1499 44.34 66.7999 46.93 59.7099C46.953 59.6265 46.9922 59.5485 47.0453 59.4802C47.0985 59.412 47.1645 59.3548 47.2397 59.3121C47.3149 59.2694 47.3978 59.2419 47.4837 59.2313C47.5695 59.2206 47.6566 59.2269 47.74 59.2499C47.8234 59.2729 47.9014 59.3121 47.9697 59.3652C48.0379 59.4183 48.095 59.4844 48.1378 59.5596C48.1805 59.6348 48.208 59.7177 48.2186 59.8036C48.2293 59.8894 48.223 59.9765 48.2 60.0599C48.19 60.0899 48.18 60.1299 48.16 60.1599C45.5948 67.1485 43.8269 74.4045 42.89 81.7899C42.8727 81.9472 42.7977 82.0926 42.6795 82.1978C42.5613 82.3031 42.4083 82.3608 42.25 82.3599V82.3599Z" fill="#12100B"/>
<path d="M52.37 82.04C52.06 82.04 51.79 81.82 51.73 81.52L48.24 63.83C48.04 62.68 47.76 61.55 47.38 60.44C47.25 60.1 47.43 59.73 47.77 59.6C48.11 59.47 48.48 59.65 48.61 59.99C49.01 61.16 49.31 62.36 49.52 63.57L53.01 81.26C53.08 81.62 52.84 81.96 52.49 82.03L52.37 82.04Z" fill="#12100B"/>
<path d="M52.32 82.6801H52.18C52.0108 82.6498 51.8604 82.5541 51.7612 82.4138C51.662 82.2734 51.6221 82.0997 51.65 81.9301V81.9101L56.4 59.8201C56.48 59.4701 56.82 59.2401 57.18 59.3201C57.53 59.4001 57.76 59.7401 57.68 60.1001L52.93 82.1801C52.87 82.4701 52.62 82.6701 52.32 82.6801Z" fill="#12100B"/>
<path d="M60.74 81.66C60.45 81.66 60.19 81.47 60.11 81.19C58.1823 74.6426 56.9883 67.9012 56.55 61.09C56.52 60.73 56.79 60.42 57.15 60.4H57.16C57.52 60.37 57.83 60.64 57.86 61V61.01C58.29 67.73 59.47 74.38 61.37 80.84C61.47 81.19 61.28 81.55 60.93 81.65H60.92C60.86 81.66 60.8 81.66 60.74 81.66V81.66ZM65.73 81.7C65.48 81.7 65.26 81.56 65.15 81.35C64.63 80.34 64.85 79.18 65.01 78.34L67.91 63.21C68.24 61.44 68.88 59.34 70.77 58.8C70.85 58.78 70.93 58.77 71.01 58.77C71.6 58.83 72.38 59.23 72.68 60.86C73.9046 67.5153 74.8587 74.2174 75.54 80.95C75.58 81.31 75.32 81.63 74.96 81.66C74.7894 81.6749 74.6197 81.6227 74.4871 81.5143C74.3545 81.406 74.2694 81.2502 74.25 81.08C73.57 74.4 72.61 67.68 71.4 61.1C71.37 60.73 71.22 60.38 70.98 60.11C69.88 60.55 69.45 62.12 69.2 63.46L66.3 78.59C66.14 79.44 66.03 80.19 66.3 80.75C66.47 81.07 66.34 81.46 66.02 81.63C65.9288 81.672 65.8303 81.6958 65.73 81.7V81.7Z" fill="#12100B"/>
<path d="M64.42 70.94C64.3344 70.945 64.2487 70.9328 64.1679 70.9042C64.087 70.8755 64.0128 70.831 63.9494 70.7732C63.886 70.7155 63.8349 70.6456 63.7989 70.5678C63.763 70.4899 63.7429 70.4057 63.74 70.32C63.72 69.96 64 69.65 64.36 69.64L77.48 68.29C77.84 68.26 78.16 68.52 78.2 68.87C78.24 69.23 77.98 69.55 77.62 69.58L64.5 70.93L64.42 70.94V70.94ZM89.21 81.08C89.1347 81.0813 89.06 81.0677 88.99 81.04C87.3848 80.4687 85.649 80.3715 83.99 80.76C83.43 80.89 82.58 81.09 81.94 80.54C81.55 80.15 81.33 79.63 81.32 79.08C80.61 72.31 80.85 65.48 82.02 58.78C82.09 58.43 82.43 58.2 82.78 58.26C83.13 58.33 83.36 58.66 83.3 59.02C82.1512 65.5996 81.919 72.3067 82.61 78.95C82.61 79.12 82.67 79.47 82.78 79.56C82.89 79.65 83.37 79.56 83.68 79.5C85.58 79.06 87.58 79.17 89.42 79.82C89.76 79.94 89.94 80.31 89.82 80.65C89.73 80.92 89.48 81.09 89.19 81.09L89.21 81.08V81.08ZM94.83 81.25C94.47 81.25 94.18 80.96 94.18 80.6V80.57L94.95 60.34C94.9473 60.2582 94.9611 60.1767 94.9906 60.1004C95.02 60.0241 95.0645 59.9545 95.1214 59.8957C95.1784 59.8369 95.2465 59.7902 95.3219 59.7583C95.3972 59.7264 95.4782 59.71 95.56 59.71H95.63C95.99 59.73 96.27 60.03 96.26 60.39L95.51 79.84L101.63 79.05C101.99 79 102.31 79.26 102.36 79.61C102.41 79.97 102.15 80.29 101.8 80.34L94.91 81.24L94.83 81.25V81.25Z" fill="#12100B"/>
<path d="M93.94 70.3201C93.8546 70.3228 93.7696 70.3086 93.6897 70.2784C93.6098 70.2482 93.5367 70.2025 93.4744 70.144C93.4122 70.0855 93.3621 70.0153 93.327 69.9374C93.292 69.8595 93.2726 69.7755 93.27 69.6901C93.26 69.3701 93.49 69.0801 93.81 69.0301L99.47 67.8201C99.82 67.7501 100.17 67.9701 100.24 68.3201C100.31 68.6701 100.09 69.0201 99.74 69.0901L94.09 70.3001L93.94 70.3201V70.3201ZM94.26 61.3201C94.086 61.3142 93.9212 61.2411 93.8 61.1161C93.6788 60.9912 93.6107 60.8242 93.61 60.6501C93.62 60.3701 93.8 60.1201 94.07 60.0401C96.69 59.2601 99.45 59.0401 102.17 59.4001C102.33 59.4375 102.47 59.5333 102.563 59.6688C102.656 59.8042 102.695 59.9695 102.673 60.1322C102.65 60.2949 102.568 60.4433 102.441 60.5484C102.315 60.6535 102.154 60.7076 101.99 60.7001C99.45 60.3601 96.87 60.5601 94.42 61.2901C94.3695 61.3116 94.3149 61.3218 94.26 61.3201V61.3201ZM30.86 80.8901C30.7 80.8901 30.54 80.8301 30.42 80.7201C30.3507 80.6528 30.2963 80.5718 30.2601 80.4823C30.224 80.3927 30.2069 80.2966 30.21 80.2001L30.99 60.0201C30.9873 59.9383 31.0011 59.8569 31.0306 59.7805C31.06 59.7042 31.1045 59.6346 31.1614 59.5758C31.2183 59.517 31.2865 59.4703 31.3618 59.4384C31.4372 59.4065 31.5182 59.3901 31.6 59.3901H31.67C32.03 59.4001 32.31 59.7101 32.3 60.0701L31.56 79.5201L37.68 78.7201C38.04 78.6801 38.36 78.9301 38.41 79.2801C38.46 79.6401 38.21 79.9701 37.85 80.0101H37.84L30.95 80.8801H30.86V80.8901V80.8901Z" fill="#12100B"/>
<path d="M29.96 69.9698C29.8746 69.9724 29.7896 69.9583 29.7097 69.928C29.6298 69.8978 29.5567 69.8521 29.4944 69.7936C29.4322 69.7351 29.3821 69.6649 29.3471 69.587C29.312 69.5092 29.2926 69.4251 29.29 69.3398C29.28 69.0198 29.51 68.7298 29.83 68.6798L35.47 67.4698C35.82 67.3998 36.17 67.6198 36.24 67.9698C36.31 68.3198 36.09 68.6698 35.74 68.7398L30.1 69.9298C30.05 69.9498 30.01 69.9598 29.96 69.9698V69.9698ZM30.29 60.9598C30.116 60.9538 29.9512 60.8807 29.83 60.7558C29.7088 60.6309 29.6407 60.4638 29.64 60.2898C29.65 60.0098 29.83 59.7598 30.1 59.6798C32.72 58.8998 35.48 58.6798 38.2 59.0398C38.36 59.0772 38.5002 59.173 38.5932 59.3084C38.6861 59.4438 38.7252 59.6091 38.7027 59.7718C38.6801 59.9346 38.5977 60.083 38.4714 60.1881C38.3451 60.2931 38.1841 60.3472 38.02 60.3398C35.49 59.9998 32.92 60.1998 30.47 60.9298C30.42 60.9498 30.35 60.9598 30.29 60.9598V60.9598ZM16.1 70.3198C16.0146 70.3224 15.9296 70.3083 15.8497 70.278C15.7698 70.2478 15.6967 70.2021 15.6344 70.1436C15.5722 70.0851 15.5221 70.0149 15.4871 69.937C15.452 69.8592 15.4326 69.7751 15.43 69.6898C15.42 69.3698 15.65 69.0798 15.97 69.0298L21.63 67.8198C21.98 67.7398 22.33 67.9698 22.41 68.3198C22.49 68.6698 22.26 69.0198 21.91 69.0998L16.25 70.3098L16.1 70.3198V70.3198ZM16.42 61.3198C16.246 61.3138 16.0812 61.2407 15.96 61.1158C15.8388 60.9909 15.7707 60.8238 15.77 60.6498C15.78 60.3698 15.96 60.1198 16.23 60.0398C18.86 59.2598 21.62 59.0398 24.33 59.3998C24.4908 59.4352 24.6325 59.5296 24.7271 59.6643C24.8217 59.7991 24.8624 59.9644 24.841 60.1277C24.8197 60.291 24.7379 60.4403 24.6118 60.5462C24.4857 60.6521 24.3245 60.7069 24.16 60.6998C21.63 60.3598 19.06 60.5598 16.61 61.2898C16.55 61.3098 16.49 61.3198 16.42 61.3198V61.3198Z" fill="#12100B"/>
<path d="M16.8 81.8801H16.76C16.5965 81.8719 16.442 81.8026 16.3272 81.6859C16.2124 81.5692 16.1456 81.4137 16.14 81.2501L15.44 60.8201C15.43 60.4601 15.71 60.1601 16.07 60.1401H16.08C16.42 60.1101 16.73 60.3701 16.76 60.7101V60.7701L17.42 80.0801C17.54 80.2301 17.59 80.4201 17.56 80.6001L17.45 81.3301C17.4 81.6501 17.12 81.8901 16.8 81.8801V81.8801ZM108.73 122.6C108.49 122.6 108.26 122.46 108.15 122.25C107.63 121.23 107.84 120.08 108 119.24L110.89 104.11C111.23 102.34 111.86 100.24 113.76 99.7001C113.84 99.6801 113.92 99.6701 114.01 99.6701C114.6 99.7301 115.38 100.13 115.67 101.76C116.89 108.39 117.86 115.14 118.53 121.84C118.57 122.2 118.31 122.52 117.95 122.55C117.779 122.565 117.61 122.513 117.477 122.404C117.344 122.296 117.259 122.14 117.24 121.97C116.56 115.31 115.6 108.58 114.39 101.99C114.37 101.62 114.22 101.27 113.97 101C112.87 101.44 112.44 103.01 112.19 104.35L109.29 119.48C109.13 120.33 109.02 121.07 109.29 121.65C109.46 121.97 109.33 122.36 109.02 122.52H109.01C108.93 122.56 108.83 122.59 108.73 122.6Z" fill="#12100B"/>
<path d="M107.42 111.83C107.334 111.835 107.249 111.823 107.168 111.794C107.087 111.766 107.013 111.721 106.949 111.663C106.886 111.606 106.835 111.536 106.799 111.458C106.763 111.38 106.743 111.296 106.74 111.21C106.72 110.85 107 110.54 107.36 110.53L120.48 109.18C120.84 109.15 121.15 109.41 121.19 109.76C121.23 110.12 120.97 110.44 120.61 110.47L107.47 111.82H107.42V111.83V111.83ZM16.98 122.51C16.8946 122.509 16.8103 122.491 16.7318 122.457C16.6534 122.423 16.5824 122.374 16.523 122.313C16.4635 122.252 16.4168 122.179 16.3854 122.1C16.354 122.02 16.3385 121.936 16.34 121.85L16.59 104.15C16.62 101.94 17.63 101.42 18.22 101.31C19.05 101.2 19.86 101.62 20.26 102.35C20.54 102.91 20.71 103.52 20.75 104.14C21.01 106.38 21.46 108.6 22.11 110.77C22.94 113.29 23.99 115.73 25.24 118.08L25.44 104.31C25.44 103.27 25.49 101.3 26.87 100.28C27.19 100.11 27.59 100.23 27.76 100.54C27.9 100.8 27.85 101.11 27.65 101.32C26.86 101.9 26.77 103.18 26.75 104.32L26.5 120.68C26.5 121.04 26.2 121.33 25.84 121.32C25.7222 121.319 25.6069 121.286 25.5065 121.224C25.4061 121.163 25.3244 121.075 25.27 120.97C23.63 117.84 21.93 114.6 20.86 111.14C20.19 108.91 19.72 106.63 19.46 104.33C19.44 103.87 19.33 103.42 19.14 103C18.98 102.72 18.68 102.53 18.49 102.58C18.08 102.66 17.93 103.45 17.92 104.15L17.67 121.85C17.6727 121.937 17.6582 122.023 17.6275 122.104C17.5968 122.185 17.5504 122.26 17.4909 122.323C17.4315 122.386 17.3602 122.437 17.2811 122.472C17.202 122.508 17.1167 122.528 17.03 122.53C17.01 122.51 17 122.51 16.98 122.51V122.51ZM45.24 122.51C45.1546 122.509 45.0703 122.491 44.9918 122.457C44.9134 122.423 44.8424 122.374 44.783 122.313C44.7235 122.252 44.6768 122.179 44.6454 122.1C44.614 122.02 44.5985 121.936 44.6 121.85L44.85 104.14C44.88 101.94 45.89 101.42 46.48 101.3C47.31 101.18 48.13 101.6 48.52 102.34C48.8 102.9 48.97 103.51 49.01 104.14C49.27 106.38 49.72 108.6 50.37 110.76C51.2 113.28 52.25 115.72 53.5 118.07L53.7 104.3C53.7 103.26 53.75 101.29 55.13 100.27C55.45 100.1 55.85 100.22 56.02 100.53C56.16 100.79 56.11 101.1 55.91 101.31C55.12 101.89 55.03 103.17 55.01 104.31L54.76 120.67C54.76 121.03 54.46 121.32 54.1 121.31C53.9822 121.309 53.8669 121.276 53.7665 121.214C53.6661 121.153 53.5844 121.065 53.53 120.96C51.89 117.83 50.19 114.59 49.12 111.13C48.45 108.9 47.98 106.62 47.72 104.32C47.7 103.86 47.59 103.41 47.4 102.99C47.3404 102.867 47.2483 102.763 47.1337 102.689C47.0191 102.615 46.8864 102.574 46.75 102.57C46.34 102.65 46.19 103.44 46.18 104.14L45.92 121.88C45.9 122.23 45.6 122.52 45.24 122.51V122.51ZM92.69 122.51C92.6046 122.509 92.5203 122.491 92.4418 122.457C92.3634 122.423 92.2924 122.374 92.233 122.313C92.1735 122.252 92.1268 122.179 92.0954 122.1C92.064 122.02 92.0485 121.936 92.05 121.85L92.3 104.15C92.33 101.94 93.34 101.42 93.93 101.31C94.76 101.19 95.58 101.61 95.97 102.35C96.25 102.91 96.42 103.52 96.46 104.14C96.72 106.38 97.17 108.6 97.82 110.77C98.65 113.29 99.7 115.73 100.95 118.08L101.15 104.31C101.15 103.27 101.2 101.3 102.58 100.28C102.87 100.07 103.28 100.13 103.49 100.42C103.71 100.71 103.65 101.11 103.36 101.33C103.36 101.33 103.35 101.33 103.35 101.34C102.56 101.92 102.47 103.2 102.45 104.34L102.2 120.7C102.19 121.01 101.98 121.27 101.68 121.33C101.39 121.4 101.08 121.26 100.95 121C99.31 117.87 97.61 114.64 96.54 111.17C95.87 108.94 95.4 106.66 95.14 104.36C95.12 103.9 95.01 103.45 94.82 103.03C94.66 102.75 94.37 102.56 94.17 102.61C93.76 102.69 93.61 103.48 93.6 104.18L93.35 121.88C93.35 122.21 93.06 122.51 92.69 122.51ZM35.82 120.39C35.1245 120.373 34.4405 120.21 33.8118 119.912C33.1832 119.614 32.6239 119.187 32.17 118.66C30.85 117.18 30.4 115.2 30.17 113.84C29.85 111.91 29.25 104.25 32.13 101.87C32.78 101.35 33.91 100.83 35.63 101.47C40.15 103.16 41.09 111.7 40.33 115.61C40.01 117.21 39.24 119.26 37.36 120.09C36.87 120.3 36.35 120.4 35.82 120.39V120.39ZM34.08 102.49C33.67 102.48 33.26 102.62 32.95 102.89C30.76 104.69 31.09 111.49 31.45 113.63C31.76 115.54 32.3 116.86 33.13 117.8C33.96 118.74 35.53 119.45 36.81 118.9C38.09 118.35 38.76 116.66 39.01 115.37C39.72 111.79 38.78 104.07 35.15 102.72C34.81 102.58 34.45 102.5 34.08 102.49V102.49ZM62.74 112.17C61.8 112.17 60.87 112.1 59.95 111.95C59.7818 111.919 59.6327 111.823 59.5352 111.683C59.4378 111.542 59.4 111.369 59.43 111.2C59.5 110.85 59.83 110.62 60.18 110.68C61.54 110.89 62.92 110.94 64.29 110.82C64.4624 110.804 64.634 110.858 64.7672 110.968C64.9003 111.079 64.9841 111.238 65 111.41C65.0159 111.583 64.9627 111.754 64.852 111.887C64.7414 112.021 64.5824 112.104 64.41 112.12H64.4C63.84 112.14 63.29 112.17 62.74 112.17V112.17ZM72.58 123.09C72.25 123.09 71.97 122.84 71.93 122.51C71.19 115.63 71.15 108.63 71.12 101.86C71.14 101.51 71.42 101.23 71.77 101.2C72.13 101.2 72.42 101.49 72.43 101.85C72.46 108.3 72.5 114.96 73.14 121.5C73.21 121.61 73.25 121.74 73.24 121.87V122.45C73.2375 122.617 73.1706 122.777 73.0533 122.897C72.936 123.016 72.7772 123.085 72.61 123.09H72.58V123.09Z" fill="#12100B"/>
<path d="M73.86 123.23C73.7204 123.228 73.5851 123.181 73.4737 123.097C73.3623 123.013 73.2806 122.895 73.2405 122.762C73.2003 122.628 73.2039 122.485 73.2505 122.353C73.2972 122.222 73.3846 122.108 73.5 122.03C74.39 121.49 75.37 121.1 76.38 120.85C77.4 120.63 78.37 120.2 79.22 119.59C79.5901 119.257 79.8857 118.85 80.0873 118.395C80.2889 117.94 80.3921 117.447 80.39 116.95C80.44 115.71 79.97 114.5 79.1 113.62C77.53 112.11 74.83 111.72 72.51 112.67C72.3731 112.719 72.2237 112.722 72.0852 112.677C71.9467 112.632 71.827 112.543 71.7447 112.423C71.6624 112.303 71.6222 112.159 71.6304 112.014C71.6386 111.868 71.6947 111.73 71.79 111.62C74.43 108.93 77.01 106.03 76.76 102.62C76.76 102.42 76.72 102.23 76.63 102.06C76.43 101.87 76.16 101.76 75.88 101.76C74.35 101.57 72.82 102.07 71.71 103.12C71.45 103.37 71.04 103.36 70.79 103.1C70.7307 103.038 70.6842 102.965 70.6531 102.886C70.622 102.806 70.6069 102.721 70.6088 102.636C70.6106 102.55 70.6294 102.466 70.6639 102.388C70.6984 102.309 70.7481 102.239 70.81 102.18C71.5088 101.518 72.346 101.021 73.2611 100.723C74.1761 100.426 75.1459 100.336 76.1 100.46C76.74 100.5 77.33 100.8 77.73 101.29C77.97 101.66 78.1 102.09 78.1 102.53C78.31 105.73 76.46 108.49 74.31 110.88C76.39 110.6 78.5 111.26 80.05 112.68C80.6102 113.247 81.0483 113.923 81.3372 114.666C81.6261 115.409 81.7598 116.203 81.73 117C81.72 118.37 81.13 119.68 80.1 120.58C79.11 121.32 77.98 121.84 76.78 122.1C75.89 122.31 75.04 122.65 74.25 123.12C74.13 123.2 74 123.24 73.86 123.23V123.23ZM86.6 122.27C86.29 122.27 86.02 122.05 85.96 121.75C84.7 115.02 84.1 108.19 84.18 101.35C84.18 101 84.46 100.71 84.82 100.7H84.85C85.21 100.7 85.5 101 85.5 101.36C85.43 108.12 86.02 114.87 87.26 121.51C87.32 121.86 87.09 122.2 86.74 122.27H86.6V122.27ZM127.6 122.29H127.53C127.38 122.274 127.24 122.207 127.134 122.099C127.028 121.991 126.963 121.85 126.95 121.7C126.3 114.99 125.49 108.17 124.56 101.45C124.51 101.09 124.75 100.76 125.11 100.71H125.12C125.47 100.66 125.8 100.9 125.85 101.26V101.27C126.75 107.76 127.53 114.32 128.17 120.81C128.34 120.98 128.4 121.23 128.33 121.46L128.22 121.84C128.14 122.11 127.89 122.29 127.6 122.29Z" fill="#12100B"/>
<path d="M137.38 123.29C137.272 123.29 137.165 123.262 137.07 123.21C135.25 122.21 134.58 120.27 133.94 118.38C133.76 117.86 133.57 117.34 133.37 116.81C132.3 114.24 130.27 112.19 127.71 111.1C127.623 111.061 127.545 111.005 127.482 110.934C127.418 110.864 127.37 110.781 127.34 110.69C127.31 110.598 127.302 110.501 127.316 110.406C127.33 110.31 127.365 110.22 127.42 110.14C127.79 109.59 128.2 109.07 128.61 108.54C129.27 107.78 129.83 106.94 130.3 106.05C130.88 104.79 130.93 103 129.85 102.17C129.12 101.69 128.22 101.59 127.4 101.88C126.48 102.22 125.65 102.74 124.94 103.41C124.67 103.65 124.25 103.62 124.02 103.34C123.963 103.276 123.919 103.201 123.892 103.119C123.864 103.037 123.854 102.951 123.86 102.865C123.867 102.779 123.89 102.696 123.93 102.619C123.969 102.543 124.024 102.475 124.09 102.42C124.933 101.629 125.931 101.019 127.02 100.63C128.25 100.2 129.61 100.4 130.67 101.15C132.31 102.4 132.34 104.85 131.52 106.62C131.02 107.61 130.4 108.53 129.68 109.38C129.45 109.67 129.22 109.96 128.99 110.26C131.53 111.56 133.52 113.71 134.62 116.34C134.84 116.86 135.03 117.43 135.23 117.99C135.82 119.72 136.38 121.35 137.76 122.1C138.08 122.27 138.19 122.67 138.02 122.98C137.85 123.18 137.62 123.3 137.38 123.29V123.29ZM142.44 110C142.26 110 142.09 109.98 141.92 109.93C141.26 109.69 140.7 109.23 140.35 108.62C138.865 106.453 137.718 104.073 136.95 101.56C136.85 101.21 137.04 100.85 137.39 100.74C137.73 100.63 138.09 100.82 138.2 101.17V101.18C138.92 103.57 140.01 105.83 141.42 107.89C141.65 108.22 141.94 108.59 142.24 108.68C142.67 108.73 143.09 108.53 143.31 108.16C143.58 107.73 143.78 107.26 143.9 106.76L144 106.43C144.67 104.38 145.8 102.5 147.31 100.95C147.56 100.69 147.97 100.68 148.23 100.93C148.49 101.18 148.5 101.59 148.25 101.85C146.885 103.261 145.859 104.964 145.25 106.83L145.15 107.15C144.991 107.778 144.731 108.376 144.38 108.92C143.94 109.56 143.22 109.96 142.44 110V110Z" fill="#12100B"/>
<path d="M143.11 123.16C143 123.16 142.89 123.13 142.79 123.08C142.62 122.992 142.48 122.856 142.387 122.689C142.295 122.521 142.254 122.33 142.27 122.14L141.8 109.06C141.79 108.7 142.07 108.4 142.43 108.38H142.45C142.8 108.38 143.09 108.66 143.1 109.01L143.55 121.71C143.74 121.83 143.87 122.02 143.9 122.23C143.92 122.52 143.81 122.81 143.59 123.01C143.45 123.12 143.28 123.17 143.11 123.16Z" fill="#12100B"/>
</svg>
