<svg width="216" height="184" viewBox="0 0 216 184" fill="none" xmlns="http://www.w3.org/2000/svg">
<path d="M173.64 114.56C174.72 117.88 175.41 121.33 175.69 124.81C175.77 125.8 175.82 126.79 176.03 127.76C176.26 128.81 176.69 129.81 177.13 130.79C178.3 133.37 179.64 135.88 181.14 138.29M163.92 113.97C163.94 117.15 164.75 120.27 165.56 123.34C166.41 126.57 167.25 129.8 168.1 133.03C168.55 134.75 169.02 136.52 170.08 137.96C170.19 137.79 170.3 137.62 170.41 137.44" stroke="#1D1D1B" stroke-width="1.5" stroke-miterlimit="10" stroke-linecap="square" stroke-linejoin="round"/>
<path d="M51.42 80.0601C51.49 79.6601 50.96 79.8001 50.68 79.7401C50.2 79.6401 50.16 79.6501 50.38 79.3501C50.53 79.1401 49.99 79.2301 50.1 79.0101C50.3 78.6001 50.75 78.5701 51.29 78.5801C51.58 78.4501 51.91 78.5001 52.24 78.5101C51.97 78.4701 51.67 78.5301 51.45 78.3801C51.12 78.3901 50.8 78.4101 50.47 78.4101C49.94 78.4101 49.96 78.2801 50.29 78.1001C50.35 78.0801 50.44 78.0901 50.46 78.0501C50.47 78.0101 50.36 78.0401 50.33 78.0001C50.27 77.9701 50.22 77.9401 50.16 77.9101C49.97 77.6401 50.1 77.4701 50.56 77.5401C51.42 77.6701 52.33 77.6601 53.16 77.8801C53.4 77.9101 53.64 77.9501 53.89 77.8601C53.97 77.8501 53.82 77.7801 53.88 77.8401C53.89 77.8601 53.87 77.8601 53.82 77.8801C53.63 77.9301 53.45 77.9201 53.25 77.8901C52.68 77.7401 52.08 77.7101 51.49 77.6501C51.3 77.6301 51.11 77.6401 50.92 77.6101C50 77.4701 49.93 77.3701 50.34 76.8801C50.16 76.6801 50.13 76.5501 50.61 76.5901C51.66 76.6601 52.72 76.7501 53.78 76.7401C54.05 76.7401 54.43 76.8501 54.47 76.6301C54.52 76.3401 54.03 76.5801 53.86 76.4501C53.39 76.3301 52.87 76.4401 52.38 76.3201C52.33 76.1201 52.54 76.0001 52.7 75.8701C53.09 75.7901 53.44 76.0801 53.91 75.9401C53.61 75.6801 53.16 75.5901 52.83 75.6701C52.14 75.8201 51.58 75.5601 50.96 75.5201C50.75 75.5101 50.51 75.4401 50.63 75.3001C50.72 75.1801 50.79 74.9601 51.21 75.0501C51.62 75.1401 52.07 75.3601 52.41 74.9101C52.5 74.7901 53.19 74.9801 53.58 74.8501C53.65 74.8201 53.72 74.8201 53.78 74.8501C53.76 74.7801 53.62 74.8101 53.58 74.7601C52.79 74.4901 51.99 74.6201 51.19 74.6901C50.87 74.7201 50.47 74.9401 50.25 74.6201C50.07 74.3501 50.12 74.0701 50.62 73.9301C51.16 73.7001 51.82 73.9801 52.29 73.7901C51.72 73.9201 51.06 73.8101 50.4 73.7901C49.86 73.7101 50.15 73.4501 50.14 73.2801C50.13 73.0001 50.74 73.0801 50.8 73.0901C51.57 73.2201 52.37 73.1301 53.13 73.2601C53.5 73.1101 53.92 73.1301 54.51 73.1601C53.95 73.0701 53.53 73.2501 53.16 73.0501C52.83 73.0301 52.5 73.0201 52.16 73.0001C52 72.9501 52.21 72.6801 51.82 72.7701C51.35 72.9701 50.84 72.7101 50.37 72.8001C50.23 72.8201 50.14 72.7801 50.16 72.7001C50.2 72.5201 50.03 72.3301 50.35 72.1801C50.8 71.9801 51.27 71.9801 51.77 72.0601C52.15 72.1301 52.51 72.2201 52.88 72.3101C52.99 71.7601 52.95 71.6901 51.94 71.6801C51.43 71.6701 51.04 71.5001 50.58 71.4701C50.42 71.4601 50.26 71.4101 50.2 71.2901C50.04 71.0001 50.42 70.8501 50.6 70.6601C50.02 70.4901 50.16 70.2701 50.47 70.0401C50.52 70.0001 50.64 69.9501 50.64 69.9401C49.78 69.2301 51.35 69.3101 51.45 68.9001C51.5 68.6801 51.97 68.8801 52.24 68.6801C51.68 68.6301 51.2 68.5801 50.71 68.5601C50.35 68.5401 50.34 68.4801 50.32 68.2401C50.29 67.8001 50.35 67.4901 51.11 67.3801C51.16 67.3701 51.18 67.3001 51.23 67.2201C50.98 67.2001 50.77 67.1901 50.57 67.1701C50.31 67.1301 50.25 66.9301 50.39 66.9001C51.19 66.7601 50.58 66.4701 50.53 66.2701C50.46 65.9601 50.19 65.6601 50.63 65.3901C50.8 65.2901 50.67 65.2401 50.58 65.1901C50.37 65.0801 50.37 64.9101 50.44 64.8001C50.84 64.1701 50.45 63.5001 50.58 62.8401C50.66 62.4501 50.46 61.9201 50.59 61.5001C50.76 60.9501 50.45 60.4301 50.58 59.9001C50.46 59.8801 50.34 59.8801 50.3 59.9501C50.22 60.1001 50.21 60.2901 49.82 60.1501C49.55 60.0501 49.48 59.8901 49.59 59.7501C49.67 59.6501 49.76 59.4201 50.13 59.5901C50.46 59.7401 50.52 59.6001 50.45 59.4401C50.25 58.9801 50.2 58.5001 50.1 58.0401C50.02 57.6801 49.72 57.3701 49.66 57.0201C49.6 56.6101 49.33 56.2601 49.55 55.7801C49.73 55.3701 49.6 54.7801 49.23 54.3001C49.11 54.0601 49.26 54.0001 49.67 54.0801C49.45 53.9701 49.21 54.0701 49.04 53.9801C49.11 53.7701 49.59 53.5401 48.89 53.4001C49.12 53.2601 49.46 53.3801 49.61 53.1601C48.62 52.9601 49.43 52.5901 49.47 52.3201C49.51 52.0601 49.37 51.9201 49.14 51.7901C48.89 51.6401 48.63 51.7001 48.43 51.8601C48.27 51.9801 48.11 51.9701 47.97 51.8301C47.78 51.6301 47.72 51.4701 48.15 51.3901C48.3 51.3101 48.42 51.2101 48.64 51.2101C48.79 51.2001 48.95 51.2001 49.11 51.1901C49.12 51.1901 49.32 51.2301 49.16 51.1401C49.13 51.1201 49.06 51.1401 49 51.1401C48.7 51.1401 48.41 51.1301 48.16 51.0001C47.93 50.8401 47.76 50.6701 47.73 50.4501C47.76 50.3901 47.79 50.3201 47.91 50.3001C48.05 50.3001 48.17 50.3401 48.28 50.3901C48.38 50.3801 48.29 50.4701 48.34 50.4001C48.38 50.3401 48.28 50.3201 48.25 50.2901C48.12 50.0701 47.94 49.8601 48 49.6201C47.88 49.3601 47.36 49.3201 47.22 49.0601C47.04 49.0301 46.84 48.9701 46.94 48.8601C47.29 48.4401 46.89 48.4001 46.37 48.4501C46.39 48.1801 46.86 48.3601 46.88 48.1901C47.01 47.9201 46.06 48.2901 46.47 47.8801C46.7 47.7801 47.04 47.7901 47.1 47.5901C46.93 47.6401 46.88 47.9601 46.49 47.7301C46.56 47.3901 46.12 46.9601 47.01 46.7901C47.28 46.7401 46.97 46.5501 46.96 46.4201C46.93 46.1801 46.66 46.0901 46.35 46.0701C45.24 45.9701 45.11 45.8301 45.66 45.2001C45.8 45.0401 45.98 44.9401 45.62 44.8001C45.49 44.7501 45.42 44.6001 45.51 44.5101C45.83 44.1901 45.41 44.0501 45.1 43.9401C44.72 43.8001 44.51 43.5701 44.67 43.3801C45.04 42.9501 44.6 42.8501 44.14 42.6901C43.47 42.4501 43.46 42.1601 43.87 41.7601C44.11 41.5301 43.77 41.2901 43.51 41.1001C43.38 41.0101 43.07 40.9801 43.31 40.8001C43.51 40.5501 43.5 40.5501 43.03 40.5601C42.42 40.1401 42.53 39.5801 42.23 39.1001C42.34 38.8801 42.26 38.6901 41.95 38.5501C41.99 38.0401 41.59 37.5701 41.48 37.0801C41.52 37.0301 41.66 37.0501 41.68 36.9901C41.61 37.0001 41.54 37.0001 41.48 36.9701C40.79 36.5401 40.82 35.9501 40.56 35.4301C40.02 34.3601 39.59 33.2701 39.1 32.1901C38.97 31.9101 38.92 31.7101 39.53 31.8501C40.04 31.9701 39.99 31.7001 40.09 31.5501C40.21 31.3701 40.18 31.0901 40.7 31.3401C40.94 31.4601 41.04 31.3301 41.18 31.2101C41.6 30.8501 41.87 30.8701 42.2 31.2301C42.28 31.3201 42.51 31.3601 42.53 31.3201C42.62 31.1201 43.13 31.2701 43.09 31.1201C42.96 30.6701 43.51 30.8201 43.76 30.8301C44.7 30.8401 44.82 30.8001 44.63 30.2501C44.5 29.8901 44.55 29.8701 45.11 29.9601C45.66 30.0501 46.35 29.9501 46.78 29.8401C47.67 29.6101 48.59 29.8301 49.44 29.6401C49.7767 29.5673 50.1172 29.5138 50.46 29.4801C50.99 29.4301 51.06 29.2701 51.06 28.9901C51.06 28.8701 51.04 28.5901 51.23 28.6601C51.97 28.9301 52.57 28.3801 53.25 28.6201C53.39 28.6301 53.27 28.9701 53.6 28.7301C54.17 28.7401 54.74 28.6601 55.3 28.8701C55.63 29.0001 55.84 28.7101 56.18 28.6801C57.76 28.5501 59.1 27.9401 60.73 27.8401C61.22 27.8101 62.05 27.7101 62.28 27.5501C62.73 27.2401 63.41 27.4001 63.85 27.0401C64.16 26.7901 65.08 26.7301 65.78 26.7701C66.13 26.7901 66.44 26.8101 66.59 26.5601C66.68 26.4101 66.85 26.3901 67.05 26.4601C67.38 26.5701 67.62 26.6001 67.67 26.2901C67.7 26.1201 68.03 26.1001 68.21 26.1401C68.75 26.2401 69.31 26.0701 69.75 26.1401C70.69 26.2901 70.38 25.8901 70.43 25.5901C70.95 25.7201 71.26 25.7001 71.7 25.4301C72.09 25.1901 72.93 25.2401 73.6 25.2501C74.44 25.2701 75.29 25.2501 76.13 25.2501C76.2 25.1601 76.32 25.1001 76.44 25.0301C76.6 24.9101 76.92 24.9301 77 24.7501C77.24 24.9701 77.72 24.1301 77.85 24.8501C77.85 24.8701 77.99 24.8801 78.07 24.8901C78.45 24.9301 78.79 24.5001 79.21 24.8601C79.41 24.5801 80.34 24.8001 80.18 24.2801C80.17 24.2401 80.38 24.1501 80.38 24.1501C80.95 24.5001 81.29 24.0901 81.73 24.0201C81.81 24.0101 81.93 23.9601 81.96 23.9701C82.33 24.1901 82.77 23.9501 83.18 24.0701C83.35 24.1201 83.77 24.2001 83.88 23.8901C83.94 23.7301 84.32 23.8201 84.55 23.8401C85.21 23.8901 85.86 24.0801 86.52 23.8801C86.72 23.7501 87.03 23.9901 87.21 23.8101C87.78 23.9901 88.3 23.8701 88.88 23.8301C89.63 23.7901 90.38 23.6901 91.16 23.7101C92.73 23.7501 94.3 23.9001 95.87 23.6901C96.33 23.6301 96.87 23.8901 97.31 23.6001C97.39 23.5501 97.55 23.6301 97.66 23.7001C98.24 24.0801 98.71 24.0601 99.27 23.6301C99.41 23.5201 99.62 23.5301 99.68 23.6101C100.09 24.1301 100.4 23.7601 100.72 23.5901C100.87 23.5101 100.98 23.4101 101.21 23.4401C101.46 23.4901 101.13 23.8101 101.59 23.7601C102.18 23.5501 102.78 23.3401 103.49 23.6001C104.16 23.8501 104.76 23.3401 105.42 23.5801C105.52 23.6301 105.47 23.9701 105.78 23.6601C105.85 23.5901 106.02 23.6501 106.15 23.6701C106.51 23.6901 106.93 23.8601 107.13 23.5101C107.22 23.3601 107.4 23.4301 107.61 23.4701C108.64 23.6801 109.68 23.8601 110.59 23.3201C110.64 23.2901 110.77 23.2701 110.81 23.2901C111.68 23.7901 112.73 22.9001 113.58 23.4901C114.22 23.0901 115.01 23.3301 115.59 23.4801C116.87 23.8201 118.14 23.5301 119.38 23.7001C119.74 23.7501 119.76 23.5001 120.18 23.5301C120.86 23.5801 120.96 23.6301 120.62 24.0401C121.05 23.8001 121.63 23.8601 121.93 23.5901C122.44 23.8401 122.98 23.2701 123.23 23.5101C123.53 23.8001 123.85 23.9001 124.29 23.9701C124.69 24.0301 125.12 24.5301 125.5 23.9601C125.56 23.8701 125.7 23.9401 125.83 23.9801C126.42 24.1501 126.8 24.7001 127.71 24.3701C128.01 24.2601 128.61 24.5201 129.07 24.5201C130.57 24.5101 132 24.7401 133.43 25.0301C134.11 25.1701 134.87 25.1601 135.59 25.1401C135.94 25.1301 136.28 25.2801 136.45 25.2501C137.39 25.1301 138.19 25.3201 139.08 25.4701C139.5 25.5401 140.05 25.4801 140.61 25.6101C141.09 25.7301 141.72 25.5601 142.27 25.7101C142.4 25.7401 142.62 25.7301 142.66 25.7801C143.34 26.5901 144.67 26.0701 145.61 26.4001C145.94 26.5201 146.62 26.6901 146.94 26.2401C146.98 26.1801 147.24 26.2601 147.38 26.3301C147.58 26.4401 147.81 26.5301 148.06 26.4101C148.33 26.2801 148.61 26.3101 148.82 26.4301C149.18 26.6401 148.64 26.6901 148.61 26.8301C148.59 26.9001 148.61 26.9701 148.61 27.0401C148.87 27.1801 149.21 27.0601 149.48 27.1601C150.07 27.2901 150.69 27.3001 151.27 27.4401C153.54 27.4501 155.79 27.6701 158.07 27.7201C159.14 27.7401 160.33 27.5701 161.35 28.0301C161.41 28.0601 161.57 28.0401 161.65 28.0101C162.16 27.8301 162.52 27.7401 162.29 28.2901C162.19 28.5301 162.58 28.6901 162.75 28.8901C162.89 29.0201 163.08 29.1101 163.27 29.2001C163.31 29.2701 163.36 29.3301 163.4 29.4001C163.38 29.4301 163.34 29.4501 163.29 29.4701C163.16 29.5201 162.82 29.4401 162.93 29.6401C162.98 29.7301 163.14 29.5301 163.3 29.5901C163.34 29.6101 163.38 29.6301 163.38 29.6701C163.42 29.8101 163.31 29.9901 163.65 30.0701C163.84 30.1101 164.03 30.1701 163.74 30.3101C163.44 30.4701 163.74 30.4901 163.92 30.5201C164.22 30.5601 164.52 30.6301 164.82 30.6301C165.39 30.6301 165.58 30.7101 165.18 31.0401C165.04 31.1601 165.25 31.2901 165.67 31.2701C166.14 31.2501 166.54 31.3001 166.88 31.5201C167.02 31.7601 166.84 31.8001 166.51 31.7901C167.15 31.7401 167.76 31.9301 168.39 31.9101C169.07 31.9001 169.57 32.2001 170.12 32.3901C170.41 32.4901 170.6 32.6301 170.99 32.5901C171.32 32.5601 171.64 32.7301 171.4 32.9501C171.08 33.2601 171.26 33.5701 171.29 33.8901L171.31 33.8801C171.06 33.7801 170.71 34.0001 170.49 33.7701C170.39 33.6701 170.21 33.7001 170.18 33.7801C170.11 34.0501 169.68 34.1401 169.51 34.3501C169.28 34.4101 169.06 34.4101 168.84 34.3401C169.06 34.4601 169.38 34.3301 169.6 34.4601C169.66 34.9701 168.94 35.3101 168.92 35.8001C168.92 35.8401 168.82 35.9101 168.78 35.9101C167.52 35.8301 167.93 36.4201 167.89 36.8301C167.89 36.8601 167.86 36.9001 167.85 36.9301C167.44 37.2201 166.89 37.0901 166.38 37.0901C166.1 37.1001 165.83 37.0701 165.55 37.0201C166.32 37.1501 167.08 37.0501 167.85 37.1301C167.92 37.2201 167.93 37.3001 167.76 37.3401C167.59 37.3801 167.46 37.4501 167.54 37.5701C167.61 37.6801 167.79 37.6901 167.96 37.7101C167.99 37.7101 168.01 37.7001 168.04 37.7001C168.41 37.6201 168.69 37.7701 168.93 37.9101C169.08 37.9901 168.97 38.1701 168.81 38.2301C168.52 38.3301 168.3 38.5901 167.85 38.4001C167.66 38.3201 167.39 38.3001 167.22 38.4101C166.98 38.5501 167.32 38.6501 167.37 38.7701C167.42 38.8801 167.68 38.9801 167.53 39.1001C167.01 39.5301 167.52 39.9601 167.54 40.3901C167.49 40.6101 167.23 40.6901 166.93 40.7401C166.97 40.7501 167 40.7301 167.04 40.7301C167.25 40.6901 167.51 40.5401 167.58 40.8301C167.03 41.4301 166.83 42.1101 166.47 42.7501C166.3 43.0601 165.79 43.2601 165.89 43.6601C165.93 43.8101 165.65 43.8201 165.4 43.7101C164.93 43.5101 164.43 43.6501 163.95 43.6801C163.78 43.6901 163.64 43.7501 163.62 43.8801C163.6 44.0601 163.81 44.0701 164 44.0901C164.11 44.1001 164.25 44.1001 164.32 44.1401C164.62 44.3301 165.23 44.4801 165.04 44.7701C164.85 45.0601 164.34 45.2401 163.75 45.0201C163.62 44.9601 163.69 44.8501 163.61 44.7801C163.4 44.7501 163.3 44.4201 163.19 44.5701C163.05 44.7601 162.41 44.6701 162.63 44.9801C162.83 45.2601 162.34 45.3101 162.22 45.4701C161.95 45.8101 161.85 46.1501 161.85 46.5101C161.7 46.6401 161.76 46.7701 161.85 46.9101C161.94 47.0201 162 47.1401 161.83 47.2401C161.62 48.0801 161.76 48.9401 161.59 49.7901C161.47 50.3701 161.64 50.9801 161.68 51.5701C161.85 51.7901 161.72 52.0101 161.75 52.2301C161.77 52.3401 161.7 52.5001 162.04 52.4501C162.66 52.6501 162.32 53.0001 162.19 53.1701C161.73 53.7701 161.47 54.3601 161.89 55.0201C162.05 55.2701 161.63 55.4501 161.84 55.7401C162.1 56.1001 161.3 56.0301 161.1 56.2501C161.42 56.3201 161.75 56.4001 161.78 56.6501C161.8 56.8501 161.34 56.7501 161.25 56.9101C161.47 57.0201 161.67 57.1601 161.97 57.0201C162.03 56.9901 162.13 56.9501 162.19 56.9601C163.12 57.1301 164.08 57.0301 165.02 57.1101C165.24 57.1301 165.38 57.1601 165.37 57.3301C165.31 58.1101 165.33 58.1401 165.97 58.8501C166.03 58.9101 166.03 59.0501 165.96 59.0901C165.64 59.2801 165.69 59.4501 165.94 59.6701C166.02 59.7401 166.25 60.1301 165.58 59.9701C165.42 59.9301 165.31 59.9801 165.27 60.0801C165.23 60.1901 165.3 60.2801 165.47 60.3401C165.81 60.4601 165.88 60.5801 165.47 60.6901C165.31 60.7301 165.27 60.8101 165.39 60.9001C165.71 61.1301 165.48 61.2701 165.28 61.4701C165.11 61.6401 164.79 62.0401 165.69 61.9501C166.3 61.8901 165.87 62.2901 166.13 62.3701C166.47 62.4901 166.71 62.5501 166.3 62.8001C166.12 62.9101 165.65 63.1901 166.31 63.4001C166.32 63.4001 166.43 63.8201 165.94 63.6801C165.43 63.5301 165.56 63.8001 165.65 63.8601C166.34 64.3401 165.85 64.5101 165.01 64.6601C165.61 64.7801 165.65 64.8701 165.28 65.1201C164.96 65.3401 165.55 65.7401 165.27 66.0601C165.23 66.1001 165.25 66.1601 165.24 66.2101C165.46 66.4701 165.21 66.8701 165.89 66.9801C165.96 67.1001 165.86 67.2301 165.72 67.2101C164.89 67.1401 164.98 67.4001 165.22 67.7401C165.42 68.0201 165.32 68.3201 165.5 68.6101C165.59 68.7601 165.54 69.0901 164.98 69.0101C164.82 68.9901 164.78 69.0201 164.81 69.1001C165.04 69.6801 164.79 70.1501 164.22 70.6101C164.01 70.7701 164.09 71.1101 164.42 71.3201C164.52 71.3801 164.84 71.4401 164.66 71.5201C164.16 71.7501 164.34 72.1401 164.09 72.3901C163.48 73.0001 164.17 73.5601 164.21 74.1501C164.91 74.2101 165.08 74.5801 165.36 74.9001C165.64 75.2201 165.42 75.2901 164.97 75.2801C164.77 75.3101 164.83 75.3901 164.87 75.4701C165.03 75.6601 165.8 75.4601 165.58 75.9001C165.2 75.9601 164.89 76.1701 164.45 76.1001C164.33 76.1501 164.21 76.1601 164.09 76.0801C164.23 76.1801 164.43 76.2201 164.6 76.2801L164.9 76.3101C165.1 76.4401 165.2 76.6101 165.31 76.7701C165.31 76.8701 165.31 76.9701 165.22 77.0701C164.9 77.1501 164.58 77.2301 164.13 77.3501C165.16 77.5301 166.1 77.4801 167.02 77.5401C167.04 77.9001 166.4 77.7501 166.22 77.9501C166.37 78.0801 166.64 78.0801 166.84 78.1601C166.97 78.2601 167.3 78.2901 167.16 78.4901C167.02 78.6001 166.84 78.5901 166.65 78.5401C166.49 78.5001 166.31 78.3401 166.18 78.5001C166.07 78.6401 166.42 78.6601 166.5 78.7601C166.6 78.8801 166.53 78.9901 166.45 79.1001C166.404 79.1486 166.35 79.1892 166.29 79.2201C166.36 79.2301 166.38 79.1901 166.42 79.1801C166.95 78.9501 167.35 79.2501 167.8 79.3401L167.78 79.3701C168.38 79.4601 168.38 79.4601 168.11 79.6701C168.06 79.7101 168 79.7401 167.95 79.7801C167.89 79.8901 168.02 79.9301 168.14 79.9801C168.43 80.0601 168.72 80.1601 169.05 80.1301C169.17 80.1201 169.27 80.1701 169.19 80.2501C169.14 80.3001 169.02 80.3101 168.93 80.3401C168.77 80.4201 168.4 80.4401 168.73 80.6501L168.9 80.7601C169.14 80.9301 168.44 80.9401 168.77 81.1201C169.03 81.3001 169.49 81.2901 169.67 81.5301C169.67 81.7601 169.97 82.0701 169.32 82.1301L168.44 83.0001C168.07 83.1301 167.71 83.3601 167.4 83.4401C166.52 83.6701 165.89 84.2401 164.78 84.2101C164.54 84.2001 164 84.3101 163.91 84.6001C163.83 84.8701 164.22 84.9301 164.46 85.0701C164.93 85.3201 164.88 85.6801 164.85 85.9901C164.82 86.2701 164.46 85.9401 164.25 86.0301C165.41 87.2701 165.38 88.6201 165.41 89.9801C165.42 90.5601 165.78 91.1301 165.94 91.7101C166.02 91.9801 166.12 92.2601 166 92.5401C165.82 92.6301 165.91 92.6901 166.07 92.7401C166.3 93.3801 166.52 94.0301 166.44 94.6901C166.42 94.8601 166.45 95.0201 166.59 95.1901C167 95.7101 166.78 95.9001 165.92 95.8601C165.69 95.8501 165.48 95.9101 165.43 96.0801C165.37 96.2701 165.09 96.3001 164.92 96.2401C164.29 96.0201 163.71 96.2701 163.11 96.2501C162.92 96.3601 162.85 96.5901 162.47 96.4901C162.402 96.4724 162.337 96.4419 162.28 96.4001C161.71 96.1401 161.28 96.3401 160.85 96.5401C160.6 96.6101 160.45 96.7301 160.39 96.8901C159.8 97.1401 159.31 96.7501 158.75 96.7601C158.43 96.7601 158.09 96.6301 157.78 96.7601C157.62 96.8201 157.25 96.8201 157.6 97.0601C157.83 97.2301 157.37 97.7001 157.02 97.6701C154.51 97.5001 152 97.6501 149.49 97.4301C149.06 97.3901 148.48 97.3501 148.19 97.6901C148.07 97.8301 147.88 97.7801 147.69 97.7801C147.22 97.8001 146.6 97.4101 146.28 97.9301C146.202 97.9372 146.124 97.9269 146.05 97.9001C145.49 97.6301 145.35 97.9501 145.13 98.1401C144.82 98.3501 144.38 97.9401 144.08 98.2101C143.16 98.2901 142.22 98.1901 141.29 98.3101C140.93 98.3601 140.66 98.3801 140.51 98.5901C140.35 98.8101 139.93 98.7701 139.81 98.6801C139.48 98.4401 139.23 98.6301 138.95 98.6101C138.23 98.5801 137.88 98.8601 137.42 99.0601C136.91 99.1001 136.39 99.0101 135.88 99.1001C135.42 99.0501 134.93 98.8701 134.51 99.1601C134.46 99.1901 134.26 99.1901 134.19 99.1501C133.61 98.8401 133.02 99.3701 132.45 99.1001C131.83 99.4801 131.02 99.1001 130.31 99.2801C129.94 99.3701 129.42 99.2601 128.95 99.2701C127.54 99.3001 126.14 99.5401 124.75 99.4201C124.03 99.3601 123.34 99.5101 122.6 99.3501C122.12 99.2501 121.32 99.2201 121.62 99.8701C121.66 99.9601 121.66 100.09 121.46 100.13C121.29 100.16 121.09 100.14 121.04 100.02C120.9 99.7301 120.61 99.8201 120.33 99.8801L120.35 99.8901C120.4 99.4301 119.95 99.8101 119.76 99.7401C119.36 99.5601 118.97 99.8201 118.58 99.7201C118.13 99.6101 117.98 99.8901 117.69 99.9801C117.32 100.08 116.97 100.09 116.69 99.8501C116.51 99.5701 116.35 99.8801 116.18 99.8501C116.01 100.07 115.54 100.03 115.35 100.31C115.21 100.51 114.88 100.12 114.5 100.09C114.46 100.53 114.19 100.66 113.57 100.35C113.43 100.28 112.95 99.9301 112.9 100.45C112.89 100.55 112.41 100.44 112.14 100.46C112.06 100.54 112 100.63 111.8 100.57C111.53 100.55 111.25 100.57 111.03 100.42C110.85 100.29 110.51 100.23 110.34 100.29C109.9 100.44 109.6 100.47 109.42 100.1C109.4 100.06 109 100.02 108.97 100.05C108.63 100.39 108.21 100.1 107.95 100.03C107.41 99.8801 106.96 99.6401 106.51 100.1C106.4 100.21 106.04 100.06 105.81 100.02C105.61 99.9901 105.41 99.7701 105.27 100.05C105.26 100.08 105.08 100.11 105.06 100.1C104.4 99.6001 103.73 100.25 103.03 100.05C102.25 99.8201 101.39 99.9801 100.57 99.9501C100.14 99.9301 99.71 99.8401 99.27 99.8601C99 99.8701 98.64 99.7201 98.54 100.08C98.49 100.25 98.07 100.06 97.83 100.01C97.33 100.11 96.97 99.7501 96.48 99.8301C96.31 99.9501 95.84 99.8801 95.92 100.18C95.93 100.21 95.8 100.29 95.77 100.28C95.1 100.11 94.43 100.5 93.86 100.3C93.5 100.17 93.21 100.21 92.88 100.17C92.29 100.1 91.53 100.4 91.17 99.8101C91.08 99.6601 90.79 99.7401 90.58 99.7801C89.94 99.9101 89.38 99.8801 88.7 99.6801C87.94 99.4601 86.99 99.4901 86.19 99.6201C85.87 99.6701 85.74 99.7401 85.5 99.5901C85.32 99.4701 85.16 99.4501 84.94 99.5701C84.43 99.8601 84.04 99.7601 83.77 99.3001C83.4 99.8001 82.78 99.5901 82.2 99.6501C80.89 99.7801 79.69 99.5201 78.44 99.4501C76.98 99.3601 75.53 99.2201 74.07 99.1201C73.83 99.1001 73.54 99.0501 73.45 99.3201C73.38 99.5401 73 99.4601 72.75 99.4201C71.84 99.2801 70.92 99.5301 70.01 99.3201C69.9344 99.312 69.858 99.3259 69.79 99.3601C69.19 99.8101 69.14 99.4501 69.03 99.0801C68.79 99.3101 68.46 99.3201 68.11 99.3201C67.85 99.3201 67.54 99.2801 67.45 99.5201C67.4 99.6601 67.23 99.6301 67.06 99.5801C66.67 99.4501 66.32 99.3601 65.98 99.6501C65.82 99.7901 65.6 99.6301 65.6 99.5101C65.59 99.1001 65.26 99.2301 64.84 99.2201C63.79 99.2101 62.75 99.4401 61.7 99.2101C61.49 99.1601 61.3 99.1401 61.16 99.2201C60.69 99.4901 60.22 99.5401 59.68 99.2701C59.5542 99.2284 59.4194 99.2215 59.29 99.2501C58.3 99.6101 58.57 99.1101 58.68 98.8601C58.83 98.5101 58.53 98.4101 58.12 98.4001C57.74 98.3901 57.37 98.3401 56.98 98.4501C56.55 98.5701 56 98.5901 55.63 98.4101C54.85 98.0201 54.07 98.0401 53.23 98.2301C53.08 98.2601 52.89 98.2801 52.74 98.2501C52.02 98.0901 51.39 98.5901 50.53 98.2001C49.98 97.9501 49.78 98.1201 50.19 97.6401C50.25 97.5701 50.31 97.5101 50.18 97.4701C49.54 97.3001 49.78 96.9601 49.79 96.6901C49.84 95.1201 49.91 93.5401 49.97 91.9701C50.19 91.9101 50.42 91.9801 50.65 91.9801C50.73 91.9901 50.81 92.0001 50.88 92.0201C50.98 92.0501 51.07 92.1001 51.17 92.1401C51.1 92.0801 50.96 92.0501 50.94 91.9601C50.93 91.9301 50.95 91.9001 50.98 91.8701C51.2 91.8301 51.42 91.7701 51.65 91.7401C51.9 91.7601 52.12 91.7001 52.35 91.6601C52.59 91.6501 52.82 91.6701 53.06 91.6801L53.79 91.8401C53.58 91.7601 53.37 91.7601 53.2 91.7001C52.93 91.6501 52.66 91.6701 52.39 91.6501C52.16 91.6701 51.94 91.7501 51.7 91.7301C51.43 91.7601 51.16 91.7901 50.93 91.9001C50.86 91.9301 50.78 91.9401 50.7 91.9501C50.44 91.9501 50.19 91.9501 49.98 91.8301C49.99 91.3001 49.99 90.7801 50.01 90.2501C50.02 90.0801 49.98 89.9001 50.24 89.7701C50.44 89.6701 50.45 89.5001 50.32 89.3901C49.92 89.0501 49.95 88.7301 50.3 88.4001C50.33 88.3701 50.36 88.3401 50.39 88.3201C49.86 88.1801 50.4 87.8901 50.15 87.7101C50.13 87.7001 50.11 87.6701 50.12 87.6601C50.66 86.9901 49.72 86.3401 49.99 85.6401C50.26 84.9301 49.93 84.1501 50.26 83.4101C50.38 83.1301 50.24 82.7901 50.32 82.4901C51.03 82.5801 51.71 82.7501 52.43 82.6201C52.55 82.5701 52.65 82.4901 52.83 82.5001C52.71 82.4801 52.56 82.5101 52.46 82.4301C51.82 82.1601 51 82.2801 50.2 82.0501C50.68 81.8501 51.14 82.0301 51.48 81.8601C51.57 81.8301 51.68 81.8401 51.78 81.8201C51.86 81.8101 51.95 81.8401 52.03 81.8101C51.95 81.7701 51.86 81.7301 51.83 81.6701C51.37 81.6301 51.1 81.2601 50.49 81.3801C50.31 81.4201 50.34 81.0801 50.32 80.9201C50.3 80.7301 50.17 80.4601 50.74 80.4901C50.88 80.4401 51.02 80.4701 51.16 80.4901C51.48 80.5701 51.67 80.4101 51.91 80.3401C52.07 80.2801 52.27 80.3501 52.42 80.3101C52 80.2901 51.62 80.2801 51.42 80.0601V80.0601Z" fill="url(#paint0_linear_1230_3646)"/>
<path d="M25.45 125.36C22.5 134.29 19.15 143.08 15.42 151.72C14.88 152.96 14.31 154.23 13.31 155.13C13.62 154.66 13.93 154.18 14.24 153.71M13.21 156.07V163.44" stroke="#1D1D1B" stroke-width="1.5" stroke-miterlimit="10" stroke-linecap="round" stroke-linejoin="round"/>
<path d="M25.27 126.13C25 123.91 26.65 121.98 27.66 119.98C28.39 118.54 28.8 116.98 29.22 115.42L30.9 109.07M30.75 108.46C37.432 106.888 44.311 106.322 51.16 106.78C54.58 107.01 57.99 107.49 61.41 107.69C65.79 107.95 70.18 107.74 74.57 107.53L125.22 105.13C142.19 104.32 159.32 103.53 176.06 106.4M176.75 107.02C181.8 111.17 184.11 117.7 186.2 123.9L196.46 154.35M195.88 154.69C196.04 156.3 196.19 157.91 196.35 159.53M14.82 158.12C34.77 158.83 54.72 159.54 74.68 160.24C80.53 160.45 86.37 160.65 92.22 160.6C99.11 160.54 105.99 160.12 112.86 159.71C140.54 158.03 168.22 156.36 195.9 154.68M13.12 163.92L74.95 166.86C92.58 167.7 110.3 168.53 127.85 166.61C135.88 165.73 143.84 164.27 151.87 163.36C159.09 162.53 166.35 162.15 173.61 161.76C180.76 161.38 187.91 161 195.06 160.61" stroke="#1D1D1B" stroke-width="1.5" stroke-miterlimit="10" stroke-linecap="round" stroke-linejoin="round"/>
<path d="M31.2 107.47C27.8 79.7802 30.25 51.7502 32.71 23.9702C32.81 22.8002 32.94 21.5702 33.62 20.6202C34.52 19.3702 36.13 18.9202 37.63 18.5902C47.24 16.5202 57.15 16.5002 66.98 16.5002L159.61 16.4702C163.61 16.4702 168.18 16.7302 170.67 19.8502C172.64 22.3202 172.62 25.7602 172.61 28.9202C172.52 55.1902 179.3 81.2502 177.84 107.48" stroke="#1D1D1B" stroke-width="1.5" stroke-miterlimit="10" stroke-linecap="round" stroke-linejoin="round"/>
<path d="M105.74 19.4999C105.71 19.4799 105.69 19.4599 105.66 19.4499C105.53 19.3799 105.38 19.3199 105.24 19.2699C105.06 19.2099 104.86 19.1899 104.67 19.1999C104.3 19.2199 103.91 19.3099 103.61 19.5299C103.29 19.7499 103.04 19.9799 102.84 20.3299C102.75 20.4899 102.68 20.6699 102.62 20.8399C102.56 21.0199 102.54 21.2199 102.54 21.4099C102.53 21.5999 102.56 21.7899 102.61 21.9699C102.65 22.1199 102.72 22.2599 102.79 22.3999C102.81 22.4399 102.83 22.4799 102.85 22.5099C103.06 22.8399 103.32 23.0999 103.66 23.2999C103.88 23.4299 104.14 23.5399 104.39 23.5799C104.58 23.6099 104.78 23.6499 104.97 23.6499C105.17 23.6499 105.37 23.6099 105.57 23.5899C105.84 23.5499 106.1 23.4399 106.33 23.3099C106.39 23.2799 106.45 23.2399 106.51 23.1999C106.67 23.0799 106.84 22.9699 106.98 22.8199C107.11 22.6799 107.23 22.5199 107.34 22.3699C107.39 22.3099 107.43 22.2399 107.46 22.1799C107.686 21.7687 107.81 21.309 107.82 20.8399C107.83 20.6399 107.79 20.4399 107.76 20.2499C107.713 19.9834 107.614 19.7287 107.47 19.4999C107.27 19.1699 107.03 18.9499 106.72 18.7299C106.67 18.6999 106.62 18.6699 106.56 18.6399C106.4 18.5699 106.23 18.4799 106.05 18.4399C105.86 18.3899 105.66 18.3699 105.47 18.3599H105.27C104.82 18.4099 104.57 18.4599 104.16 18.6599C104.05 18.7199 103.95 18.7999 103.85 18.8699C103.75 18.9499 103.65 19.0199 103.57 19.1099C103.46 19.2499 103.33 19.3899 103.25 19.5499C103.17 19.7199 103.08 19.8999 103.05 20.0899C102.99 20.2899 102.98 20.4899 103.02 20.6899C103.03 20.8899 103.09 21.0799 103.2 21.2499C103.29 21.4199 103.42 21.5699 103.59 21.6699C103.73 21.7999 103.9 21.8899 104.1 21.9399C104.48 22.0299 104.92 22.0099 105.26 21.7899C105.36 21.7099 105.46 21.6299 105.56 21.5599C105.75 21.3699 105.87 21.1499 105.95 20.8999C105.957 20.8452 105.971 20.7916 105.99 20.7399L105.84 21.0999C105.86 21.0399 105.89 20.9899 105.93 20.9399C105.85 21.0399 105.77 21.1399 105.7 21.2399C105.738 21.1917 105.782 21.1481 105.83 21.1099C105.73 21.1899 105.63 21.2699 105.53 21.3399C105.59 21.2899 105.66 21.2599 105.73 21.2299L105.37 21.3799C105.46 21.3399 105.55 21.3199 105.64 21.3099C105.51 21.3299 105.37 21.3499 105.24 21.3599C105.34 21.3499 105.44 21.3499 105.54 21.3599C105.407 21.3383 105.274 21.3216 105.14 21.3099C105.23 21.3199 105.32 21.3499 105.41 21.3799L105.05 21.2299C105.12 21.2599 105.18 21.2899 105.23 21.3399C105.13 21.2599 105.03 21.1799 104.93 21.1099C104.98 21.1499 105.03 21.1899 105.07 21.2399C104.99 21.1399 104.91 21.0399 104.84 20.9399C104.89 21.0099 104.93 21.0799 104.97 21.1599L104.82 20.7999C104.85 20.8799 104.87 20.9599 104.89 21.0499C104.868 20.9172 104.852 20.7838 104.84 20.6499C104.85 20.7499 104.85 20.8599 104.84 20.9599C104.86 20.8299 104.88 20.6899 104.89 20.5599C104.87 20.6799 104.84 20.7999 104.79 20.9199L104.94 20.5599C104.89 20.6799 104.82 20.7799 104.75 20.8899C104.83 20.7899 104.91 20.6899 104.98 20.5899C104.91 20.6799 104.82 20.7699 104.73 20.8399C104.83 20.7599 104.93 20.6799 105.03 20.6099C104.94 20.6799 104.85 20.7299 104.75 20.7699L105.11 20.6199C105 20.6599 104.89 20.6899 104.78 20.7099C104.91 20.6899 105.05 20.6699 105.18 20.6599C105.06 20.6699 104.95 20.6699 104.83 20.6599C104.96 20.6799 105.1 20.6999 105.23 20.7099C105.13 20.6899 105.03 20.6699 104.93 20.6299L105.29 20.7799C105.22 20.7499 105.15 20.7099 105.09 20.6699C105.19 20.7499 105.29 20.8299 105.39 20.8999C105.33 20.8499 105.28 20.7999 105.23 20.7399C105.31 20.8399 105.39 20.9399 105.46 21.0399C105.42 20.9899 105.4 20.9399 105.37 20.8899L105.52 21.2499C105.501 21.2051 105.487 21.158 105.48 21.1099C105.5 21.2399 105.52 21.3799 105.53 21.5099C105.52 21.457 105.52 21.4027 105.53 21.3499C105.51 21.4799 105.49 21.6199 105.48 21.7499C105.49 21.6899 105.51 21.6299 105.53 21.5699L105.38 21.9299C105.41 21.8699 105.44 21.8199 105.48 21.7699C105.4 21.8699 105.32 21.9699 105.25 22.0699C105.29 22.0099 105.34 21.9599 105.4 21.9199C105.3 21.9999 105.2 22.0799 105.1 22.1499C105.15 22.1099 105.2 22.0799 105.26 22.0599L104.9 22.2099C104.95 22.1899 105 22.1799 105.05 22.1699C104.92 22.1899 104.78 22.2099 104.65 22.2199H104.76C104.627 22.1983 104.494 22.1816 104.36 22.1699L104.48 22.1999L104.12 22.0499C104.16 22.0699 104.19 22.0899 104.22 22.1099C104.39 22.2199 104.58 22.2799 104.78 22.2899C104.98 22.3299 105.18 22.3299 105.38 22.2599C105.58 22.2099 105.75 22.1199 105.89 21.9899C106.05 21.8799 106.18 21.7399 106.28 21.5699C106.46 21.2199 106.56 20.7999 106.43 20.4099L106.28 20.0499C106.15 19.8199 105.97 19.6399 105.74 19.4999V19.4999Z" fill="#1D1D1B"/>
<path d="M37.9 115.17C38.09 116.71 37.56 118.24 37.03 119.7C34.61 126.42 32.2 133.14 29.78 139.87M38.49 114.53C53.13 113.88 67.74 115.96 82.39 116.22C105.45 116.64 128.38 112.55 151.44 112.43C159.07 112.39 166.71 112.79 174.29 113.62M30.22 142.01C80.67 141.62 131.1 140.17 181.49 137.69M43.28 115.61C41.5689 124.132 40.2011 132.718 39.18 141.35C39.16 141.11 39.13 140.87 39.11 140.63M48.36 115.36C48.42 116.79 48.23 118.22 48.04 119.64C47.1 126.63 46.15 133.62 45.21 140.61" stroke="#1D1D1B" stroke-width="1.5" stroke-miterlimit="10" stroke-linecap="square" stroke-linejoin="round"/>
<path d="M53.77 115.41C54.21 118.91 54.34 122.44 54.16 125.96C53.88 131.32 52.89 136.67 53.28 142.02M61.39 116.16C59.9 124.57 59.05 133.09 58.86 141.63C58.87 141.43 58.88 141.22 58.9 141.02M67.88 115.97C69.05 124.64 65.52 133.42 66.58 142.1C66.57 141.74 66.57 141.38 66.56 141.02M74.27 115.99L74.45 133.1C74.48 135.87 74.51 138.67 75.22 141.35L75.25 140.42M83.25 117.19C82.97 122.25 82.78 127.31 82.69 132.37C82.64 135.4 82.62 138.5 83.57 141.37C83.63 141.05 83.68 140.74 83.74 140.42M91.05 116.6C90.85 120.15 90.66 123.71 90.46 127.26C90.2 132.03 89.95 136.91 91.38 141.47C91.46 141.19 91.53 140.9 91.61 140.62M98.16 116.36C99.82 122.15 99.41 128.25 99.67 134.2M106.61 117.42C107.27 122.92 107.43 128.41 107.55 133.95M114.45 116.4C115 122.05 115.54 127.69 116.09 133.34M123.4 113.78C124.31 120.18 125.34 126.57 126.49 132.94C126.94 135.4 127.46 137.99 129.11 139.86M132.38 113.62C133.22 116.5 134.21 119.33 135.2 122.16L141.8 141.06M143.01 113.35C144.11 118.78 145.21 124.21 146.31 129.63C147.04 133.22 147.79 136.88 149.56 140.09C149.65 139.95 149.74 139.81 149.84 139.67M150.68 113.11C153.46 121.33 156.68 129.4 160.32 137.28C160.42 137.49 160.8 137.66 160.8 137.43" stroke="#1D1D1B" stroke-width="1.5" stroke-miterlimit="10" stroke-linecap="square" stroke-linejoin="round"/>
<path d="M36.67 121.01C59.79 122.91 83.04 123.25 106.21 122.02C129.01 120.81 151.76 118.08 174.6 118.35M34.05 127.77C51.9 128.01 69.76 128 87.61 127.74C93.69 127.65 99.76 127.53 105.84 127.41C114.21 127.25 122.59 127.08 130.96 126.92C145.14 126.64 159.33 126.37 173.5 125.73M32.23 136.88C76.72 136.49 121.19 131.16 165.61 133.56C170.04 133.8 174.56 134.11 178.85 132.99" stroke="#1D1D1B" stroke-width="1.5" stroke-miterlimit="10" stroke-linecap="square" stroke-linejoin="round"/>
<path d="M79.2 147.09C79.15 150.6 79.15 154.1 79.2 157.61L79.41 156.48M79.17 146.07C82.09 146.03 85 145.98 87.92 145.94C92.07 145.88 96.21 145.82 100.35 145.55C110.89 144.88 121.57 142.9 131.91 145.04C132.53 145.17 133.19 145.33 133.61 145.8C133.98 146.21 134.1 146.78 134.2 147.31C134.74 150.03 135.28 152.74 135.83 155.46M78.37 158.69L116.92 156.77C119.52 156.64 122.13 156.51 124.73 156.66C128.48 156.88 132.46 157.65 135.85 156.03" stroke="#1D1D1B" stroke-width="1.5" stroke-miterlimit="10" stroke-linecap="round" stroke-linejoin="round"/>
<path d="M66.53 79.2401C70.14 78.2901 73.95 78.4801 77.68 78.6501C94.45 79.4101 111.23 79.6701 128.02 79.4301" stroke="#1D1D1B" stroke-width="1.5" stroke-miterlimit="10"/>
<path d="M132.42 62.8798C132.23 64.7998 132.13 66.7198 132.13 68.6498C132.13 69.5998 132.09 70.5898 132.22 71.5298C132.35 72.4598 133.25 73.1298 134.19 72.8998C135.11 72.6698 135.43 71.7898 135.3 70.9398C135.23 70.4798 134.71 69.9698 134.25 69.8898C134.24 69.8898 134.22 69.8898 134.21 69.8798C133.44 69.7498 132.56 70.0798 132.36 70.9298C132.19 71.6598 132.58 72.6298 133.41 72.7798C133.42 72.7798 133.44 72.7798 133.45 72.7898L132.4 71.7398C132.4 71.7598 132.4 71.7698 132.41 71.7898L132.56 70.6298C132.55 70.6498 132.54 70.6598 132.54 70.6798L133.44 69.9898C133.42 69.9998 133.41 69.9998 133.39 70.0098L134.55 70.1598C134.53 70.1398 134.51 70.1298 134.49 70.1098L135.18 71.0098C135.19 71.2998 135.19 71.3198 135.18 71.0698C135.18 70.9898 135.17 70.8998 135.17 70.8198C135.16 70.6498 135.16 70.4898 135.15 70.3198C135.14 69.9598 135.13 69.5898 135.13 69.2298C135.12 68.5298 135.13 67.8398 135.15 67.1398C135.19 65.7198 135.28 64.2998 135.42 62.8798C135.5 62.0998 134.68 61.3498 133.92 61.3798C133.04 61.4198 132.5 62.0498 132.42 62.8798V62.8798Z" fill="#1D1D1B"/>
<path d="M134.53 64.0998C135.8 63.8898 137.09 63.8198 138.38 63.8698C138.99 63.8898 139.6 63.9398 140.2 64.0198C140.5 64.0598 140.8 64.1198 141.1 64.1798C141.26 64.2098 141.43 64.2698 141.6 64.2798C141.86 64.2998 141.53 64.1798 141.74 64.3498L141.2 63.8098C141.2 63.6798 141.22 63.6998 141.25 63.8898V63.8598C141.3 64.0498 141.3 64.2698 141.32 64.4698C141.36 64.8798 141.4 65.2898 141.42 65.6998C141.47 66.5198 141.49 67.3398 141.48 68.1598C141.46 69.7398 141.31 71.3098 141.03 72.8698C140.89 73.6698 141.25 74.4898 142.08 74.7198C142.84 74.9298 143.73 74.4598 143.93 73.6698C144.07 73.0798 144.04 72.4398 143.66 71.9398C143.17 71.2998 142.37 70.9598 141.61 71.3998C140.98 71.7698 140.58 72.7998 141.07 73.4498L141.04 72.8698C142 73.1398 142.97 73.3998 143.93 73.6698C144.25 71.8898 144.45 70.0798 144.48 68.2698C144.5 67.4098 144.48 66.5598 144.42 65.6998C144.36 64.8098 144.36 63.7898 144.11 62.9298C143.79 61.8598 142.91 61.4798 141.91 61.2898C141.02 61.1198 140.11 60.9898 139.2 60.9198C137.37 60.7798 135.55 60.8998 133.74 61.2098C132.94 61.3398 132.49 62.3298 132.69 63.0598C132.91 63.8998 133.72 64.2298 134.53 64.0998V64.0998Z" fill="#1D1D1B"/>
<path d="M133.95 74.22C137.3 74.27 140.66 73.91 143.93 73.17C144.92 72.95 145.25 71.78 144.83 70.97C144.14 69.64 143.65 68.29 143.31 66.75C143.17 66.09 143.14 65.38 142.89 64.75C142.48 63.68 141.63 63.19 140.52 63.07C137.77 62.77 134.86 64.45 133.72 66.96C133.47 67.52 133.43 68.12 133.84 68.63C134.19 69.07 134.84 69.37 135.42 69.17C138.4 68.13 140.91 66.27 142.8 63.75C143.15 63.28 143.02 62.5 142.68 62.08C142.32 61.62 141.69 61.36 141.1 61.54C139.44 62.05 137.85 62.78 136.42 63.75L138.24 66.11C138.75 65.62 139.21 65.01 139.37 64.3C139.59 63.35 139.19 62.38 138.35 61.87C137.62 61.42 136.6 61.49 135.87 61.92C135.2 62.31 134.78 62.98 134.48 63.68C134.18 64.37 134.22 65.13 134.87 65.62C135.47 66.07 136.29 66.03 136.84 65.5C137.53 64.85 137.91 63.93 137.88 62.98C137.875 62.7175 137.803 62.4607 137.669 62.2346C137.536 62.0085 137.346 61.8209 137.118 61.69C136.891 61.5591 136.633 61.4893 136.37 61.4876C136.108 61.4858 135.849 61.5521 135.62 61.68C134.72 62.18 134.06 62.97 133.68 63.92C133.3 64.87 133.16 66.21 133.94 67C134.82 67.9 136.26 67.67 137.1 66.83C137.86 66.07 138.12 64.95 137.86 63.92C137.69 63.25 137.07 62.86 136.41 62.82C134.99 62.74 134.18 64.1 133.77 65.26C133.38 66.35 133.38 67.57 133.65 68.68C133.86 69.54 135.08 70.16 135.85 69.58C137.93 68.03 139.45 66.06 140.46 63.68C140.71 63.08 140.29 62.29 139.77 61.99C139.21 61.66 138.41 61.74 137.95 62.22C135.87 64.42 134.3 66.98 133.22 69.8C132.87 70.71 133.76 71.72 134.67 71.7C136.32 71.66 137.38 70.11 138.39 69C139.41 67.86 140.39 66.69 141.34 65.5C141.84 64.87 141.96 64 141.34 63.38C140.77 62.81 139.79 62.8 139.22 63.38C137.239 65.3954 135.515 67.6494 134.09 70.09C133.32 71.42 134.84 72.84 136.14 72.14C137.19 71.57 138.08 70.74 138.92 69.89C139.31 69.5 139.69 69.1 140.09 68.72C140.58 68.26 140.75 68.11 141.24 67.8L139.42 65.44C137.866 66.9171 136.499 68.5795 135.35 70.39C134.55 71.65 136.15 73.24 137.4 72.44C139.01 71.42 140.51 70.2 141.82 68.81C142.38 68.22 142.4 67.27 141.82 66.69C141.25 66.12 140.26 66.11 139.7 66.69L136.59 69.89C136.03 70.47 136.01 71.43 136.59 72.01C137.2 72.62 138.09 72.53 138.71 72.01C139.9 71 141.06 70.1 142.32 69.2L140.27 67.15C139.69 68.13 139.17 68.8 138.36 69.61C137.18 70.79 138.72 72.91 140.18 71.97C141.11 71.37 142.04 70.77 142.97 70.18L140.92 68.13C140.42 68.8 139.95 69.5 139.51 70.22C138.85 71.29 139.95 72.85 141.2 72.42C142.08 72.12 142.84 71.67 143.49 71.01C144.01 70.48 144.07 69.62 143.61 69.04C143.19 68.51 142.29 68.2 141.67 68.65C141.51 68.77 141.35 68.89 141.19 69L143.39 70.69C143.12 71.05 143.08 71.15 143.27 70.98C143.9 70.47 143.8 69.39 143.27 68.86C142.64 68.23 141.78 68.35 141.15 68.86C140.81 69.13 140.64 69.5 140.5 69.89C140.07 71.07 141.66 72.35 142.7 71.58C142.86 71.46 143.02 71.34 143.18 71.23L141.36 68.87C141.26 68.97 141.17 69.06 141.07 69.15C140.88 69.31 141.3 69.04 140.92 69.25C140.83 69.3 140.73 69.36 140.64 69.41C140.27 69.61 140.8 69.37 140.4 69.51L142.09 71.71C142.53 70.99 143 70.3 143.5 69.62C143.89 69.1 143.7 68.23 143.27 67.8C142.81 67.34 142.01 67.21 141.45 67.57C140.52 68.17 139.59 68.77 138.66 69.36L140.48 71.72C141.4 70.8 142.2 69.77 142.86 68.65C143.2 68.08 143.09 67.3 142.63 66.83C142.19 66.39 141.35 66.21 140.81 66.6C139.36 67.6368 137.953 68.731 136.59 69.88L138.71 72L141.82 68.8L139.7 66.68C138.5 67.95 137.33 68.93 135.89 69.85L137.94 71.9C138.98 70.28 140.11 68.92 141.54 67.56C142.76 66.4 141.17 64.29 139.72 65.2C138.7 65.85 137.84 66.69 137 67.55C136.16 68.41 135.56 69.04 134.62 69.54L136.67 71.59C138.01 69.29 139.48 67.37 141.34 65.48L139.22 63.36C138.39 64.4115 137.53 65.4386 136.64 66.44C136.21 66.93 135.77 67.42 135.32 67.89C135.12 68.11 134.92 68.33 134.71 68.54C134.7 68.55 134.4 68.88 134.57 68.68C134.43 68.84 134.47 68.68 134.67 68.68C135.15 69.31 135.63 69.95 136.12 70.58C136.34 70 136.51 69.61 136.83 68.98C137.13 68.39 137.45 67.82 137.8 67.26C138.52 66.12 139.15 65.31 140.08 64.32C139.24 63.83 138.41 63.35 137.57 62.86C137.65 62.68 137.53 62.95 137.5 63C137.44 63.12 137.39 63.24 137.33 63.35C137.22 63.56 137.11 63.77 136.99 63.97C136.87 64.17 136.75 64.37 136.61 64.57C136.54 64.68 136.46 64.79 136.39 64.89C136.37 64.92 136.18 65.17 136.29 65.02C136 65.39 135.68 65.74 135.35 66.07C135.16 66.25 134.97 66.43 134.78 66.6C134.7 66.67 134.62 66.73 134.54 66.8C134.16 67.12 134.75 66.65 134.35 66.95C135.08 67.25 135.82 67.55 136.55 67.85C136.55 67.85 136.45 67.38 136.49 67.61C136.453 67.318 136.45 67.0227 136.48 66.73C136.49 66.62 136.49 66.62 136.48 66.73C136.49 66.65 136.51 66.57 136.53 66.49C136.56 66.36 136.6 66.23 136.64 66.1C136.75 65.74 136.56 66.19 136.74 65.86C136.78 65.79 136.92 65.46 136.97 65.47C136.948 65.502 136.928 65.5354 136.91 65.57C136.77 65.7 136.61 65.77 136.42 65.79C135.94 65.42 135.46 65.06 134.97 64.69C135.01 64.84 135.01 64.86 134.99 64.75C134.97 64.64 134.97 64.66 134.97 64.81C134.99 64.65 134.99 64.62 134.96 64.73C134.93 64.83 134.93 64.81 134.98 64.67C134.96 64.71 134.93 64.74 134.91 64.78C134.94 64.7 135 64.64 135.08 64.61C135.35 64.46 135.89 64.64 136.03 64.8L136.42 65.46C136.41 65.49 136.4 65.51 136.4 65.54V65.32C136.39 65.09 136.35 65.52 136.39 65.29C136.41 65.17 136.45 65.06 136.48 64.94C136.55 64.69 136.45 64.97 136.53 64.84C136.58 64.76 136.63 64.67 136.68 64.59C136.76 64.47 136.58 64.67 136.76 64.5C136.83 64.44 136.9 64.36 136.97 64.3C136.76 64.47 137.13 64.23 137.14 64.22C136.39 63.79 135.64 63.36 134.88 62.92C134.87 63.1 134.88 63.12 134.91 62.97C134.89 63.07 134.87 63.16 134.83 63.26C134.88 63.13 134.86 63.14 134.78 63.3C134.86 63.19 134.84 63.2 134.72 63.33L137.08 65.15C137.17 64.94 137.35 64.57 137.4 64.48C137.34 64.55 137.37 64.52 137.48 64.4C137.45 64.42 137.43 64.44 137.4 64.47C137.34 64.51 137.27 64.53 137.2 64.52C137.08 64.52 137.1 64.53 137.25 64.52C136.88 64.4 136.63 64.37 136.5 63.94C136.49 63.91 136.36 63.5 136.5 63.47C136.53 63.46 136.23 63.86 136.41 63.64C136.32 63.75 136.22 63.85 136.12 63.94C134.91 65.1 136.5 67.26 137.94 66.3C139.24 65.42 140.47 64.83 141.91 64.4L140.22 62.2C138.9 63.96 136.73 65.51 134.63 66.24L136.32 68.44C136.43 68.19 136.56 67.94 136.71 67.71C136.73 67.68 136.94 67.39 136.83 67.53C136.74 67.64 136.99 67.35 137.03 67.31C137.2 67.13 137.39 66.95 137.59 66.79C137.39 66.95 137.68 66.73 137.73 66.7L138.03 66.52C138.13 66.46 138.23 66.41 138.34 66.36C138.64 66.19 138.2 66.4 138.49 66.29C138.75 66.2 139.01 66.11 139.29 66.06C139.33 66.05 139.69 66 139.5 66.02C139.31 66.04 139.68 66.01 139.71 66.01C139.85 66 139.99 66 140.12 66.01C140.19 66.01 140.26 66.02 140.33 66.02C140.43 66.03 140.42 66.03 140.3 66.01L140.45 66.04C140.321 66.0055 140.21 65.9232 140.14 65.81C140 65.7 140.05 65.58 140.12 65.84C140.19 66.11 140.22 66.39 140.26 66.66C140.37 67.29 140.51 67.92 140.68 68.53C141.06 69.89 141.6 71.2 142.25 72.45C142.55 71.72 142.85 70.98 143.15 70.25C140.12 70.93 137.11 71.23 133.97 71.19C133.19 71.18 132.43 71.89 132.47 72.69C132.49 73.54 133.11 74.21 133.95 74.22V74.22ZM66.39 59.98C66.88 63.77 67.08 67.59 66.99 71.42C66.96 72.94 69.03 73.42 69.79 72.18C69.9 72 70 71.83 70.11 71.65C71.11 70 68.52 68.49 67.52 70.14C67.41 70.31 67.31 70.49 67.2 70.66C68.13 70.91 69.06 71.16 70 71.42C70.08 67.6 69.88 63.78 69.4 59.98C69.3 59.18 68.78 58.48 67.9 58.48C67.16 58.48 66.29 59.17 66.39 59.98V59.98Z" fill="#1D1D1B"/>
<path d="M68.48 68.6899C70.8 68.5699 73.11 68.4599 75.43 68.3399C76.21 68.2999 76.97 67.6799 76.93 66.8399C76.9 66.0599 76.27 65.2999 75.43 65.3399C73.11 65.4599 70.8 65.5699 68.48 65.6899C67.7 65.7299 66.94 66.3499 66.98 67.1899C67.02 67.9699 67.64 68.7399 68.48 68.6899Z" fill="#1D1D1B"/>
<path d="M73.2 59.98C73.47 62.19 73.62 64.41 73.63 66.63C73.64 67.71 73.6 68.8 73.55 69.88C73.51 70.87 73.57 71.96 74.19 72.78C74.56 73.27 75.03 73.59 75.68 73.5C76.22 73.42 76.83 73.01 76.93 72.43C76.97 72.16 77.02 71.9 77.06 71.63C77.19 70.83 76.85 70.02 76.01 69.78C75.29 69.58 74.3 70.02 74.16 70.83C74.12 71.1 74.07 71.36 74.03 71.63L76.77 71.27C76.53 70.95 76.53 70.93 76.52 70.53C76.51 70.13 76.54 69.73 76.56 69.33C76.6 68.28 76.62 67.22 76.61 66.17C76.58 64.1 76.43 62.04 76.18 59.99C76.08 59.19 75.56 58.49 74.68 58.49C73.96 58.48 73.1 59.17 73.2 59.98V59.98ZM79.15 59.77L79.3 65.26C79.32 66.16 79.35 67.06 79.37 67.96C79.39 68.85 79.3 69.9 79.85 70.66C80.32 71.31 81.15 71.64 81.9 71.2C82.55 70.82 82.92 69.81 82.44 69.15C82.34 69 82.33 69 82.4 69.14C82.41 69.28 82.41 69.29 82.4 69.18C82.41 69.01 82.39 68.83 82.38 68.66C82.37 68.23 82.36 67.79 82.34 67.36C82.32 66.53 82.29 65.7 82.27 64.86C82.22 63.16 82.18 61.46 82.13 59.77C82.11 58.96 81.46 58.27 80.63 58.27C79.86 58.27 79.13 58.95 79.15 59.77V59.77Z" fill="#1D1D1B"/>
<path d="M81.25 60.82C83.34 61.01 85.42 60.9 87.48 60.57C87.83 60.51 88.21 60.17 88.38 59.88C88.57 59.56 88.65 59.08 88.53 58.72C88.26 57.88 87.52 57.54 86.68 57.67L86.29 57.73C86.23 57.74 86.18 57.75 86.12 57.75C86.31 57.72 86.35 57.72 86.24 57.73C86 57.76 85.76 57.79 85.51 57.81C85.04 57.85 84.57 57.88 84.11 57.9C83.15 57.93 82.2 57.9 81.24 57.81C80.46 57.74 79.71 58.55 79.74 59.31C79.79 60.19 80.42 60.74 81.25 60.82V60.82ZM82.22 66.3C83.86 65.95 85.51 65.64 87.17 65.37C87.52 65.31 87.9 64.97 88.07 64.68C88.26 64.36 88.34 63.88 88.22 63.52C88.1 63.16 87.88 62.81 87.53 62.62C87.15 62.42 86.79 62.4 86.37 62.47C84.71 62.74 83.06 63.05 81.42 63.4C80.65 63.56 80.13 64.51 80.37 65.25C80.64 66.07 81.39 66.47 82.22 66.3V66.3ZM81.3 70.92C82.79 71.17 84.28 71.24 85.77 71.05C86.18 71 86.52 70.92 86.83 70.61C87.09 70.35 87.29 69.92 87.27 69.55C87.25 69.16 87.13 68.76 86.83 68.49C86.56 68.24 86.15 68 85.77 68.05C84.57 68.2 83.36 68.2 82.16 68.04C82.29 68.06 82.43 68.08 82.56 68.09C82.4 68.07 82.25 68.05 82.09 68.02C81.68 67.95 81.31 67.95 80.93 68.17C80.62 68.35 80.32 68.71 80.24 69.07C80.15 69.45 80.17 69.89 80.39 70.23C80.61 70.54 80.93 70.86 81.3 70.92V70.92ZM89.98 59.94C90.51 62.89 90.12 65.92 90.25 68.9C90.29 69.8 90.29 70.83 91.16 71.36C91.86 71.79 92.84 71.77 93.64 71.83C95.21 71.95 96.78 71.89 98.34 71.69C99.14 71.58 99.84 71.08 99.84 70.19C99.84 69.46 99.15 68.58 98.34 68.69C97.32 68.82 96.3 68.89 95.28 68.89C94.8 68.89 94.32 68.87 93.85 68.84C93.58 68.82 93.31 68.8 93.03 68.77C93.03 68.77 92.45 68.64 92.67 68.77L93.21 69.31C93.29 69.79 93.32 69.86 93.28 69.52C93.27 69.42 93.27 69.32 93.26 69.21L93.23 68.5C93.22 68.09 93.21 67.68 93.21 67.28C93.21 66.39 93.23 65.51 93.24 64.62C93.26 62.78 93.19 60.96 92.87 59.15C92.73 58.35 91.75 57.9 91.02 58.1C90.18 58.33 89.83 59.14 89.98 59.94V59.94ZM100.22 59.87C100.41 63.59 100.61 67.31 100.8 71.03C100.84 71.84 101.46 72.53 102.3 72.53C103.12 72.53 103.79 71.84 103.8 71.03V70.78C103.81 68.85 100.81 68.85 100.8 70.78V71.03H103.8C103.61 67.31 103.41 63.59 103.22 59.87C103.18 59.06 102.56 58.37 101.72 58.37C100.94 58.37 100.18 59.06 100.22 59.87V59.87Z" fill="#1D1D1B"/>
<path d="M102.53 60.8601C102.6 60.8201 102.69 60.7901 102.75 60.7501C102.52 60.8401 102.47 60.8601 102.62 60.8101C102.66 60.8001 102.7 60.7801 102.74 60.7701C102.91 60.7201 103.08 60.6801 103.26 60.6501C103.13 60.6701 102.99 60.6901 102.86 60.7001C103.19 60.6601 103.53 60.6601 103.86 60.7001C103.727 60.6785 103.594 60.6618 103.46 60.6501C103.77 60.6901 104.07 60.7601 104.37 60.8601L104.61 60.9501C104.85 61.0401 104.36 60.8301 104.52 60.9101C104.66 60.9801 104.8 61.0401 104.94 61.1201C105.06 61.1901 105.18 61.3001 105.3 61.3501C105.12 61.2101 105.08 61.1701 105.16 61.2501L105.25 61.3401C105.3 61.3901 105.4 61.4601 105.42 61.5201C105.39 61.4401 105.23 61.2401 105.36 61.4501C105.39 61.5001 105.42 61.5901 105.46 61.6301C105.37 61.4101 105.35 61.3501 105.39 61.4601C105.4 61.5001 105.42 61.5401 105.43 61.5801C105.45 61.6601 105.47 61.7401 105.48 61.8201C105.458 61.6874 105.442 61.554 105.43 61.4201C105.44 61.5501 105.44 61.6801 105.43 61.8201C105.45 61.6901 105.47 61.5501 105.48 61.4201C105.47 61.4901 105.36 61.8001 105.47 61.5401C105.58 61.2901 105.46 61.5501 105.42 61.6001C105.24 61.8801 105.64 61.3901 105.44 61.5701C105.38 61.6201 105.33 61.6801 105.27 61.7301C105.17 61.8101 104.98 61.9101 105.33 61.6901C105.26 61.7301 105.2 61.7801 105.13 61.8301C104.646 62.1384 104.142 62.4124 103.62 62.6501C103.54 62.6901 103.45 62.7201 103.37 62.7601C103.76 62.5801 103.48 62.7101 103.39 62.7501C103.19 62.8301 102.98 62.9001 102.78 62.9701C103.27 63.8101 103.75 64.6401 104.24 65.4801C104.36 65.3301 104.47 65.1801 104.59 65.0301C104.85 64.7001 105.03 64.4001 105.03 63.9701C105.03 63.6001 104.87 63.1601 104.59 62.9101C104.3 62.6501 103.93 62.4501 103.53 62.4701C103.16 62.4901 102.71 62.6001 102.47 62.9101C102.35 63.0601 102.24 63.2101 102.12 63.3601C101.91 63.6301 101.75 63.8701 101.71 64.2201C101.67 64.5401 101.71 64.9001 101.89 65.1801C102.24 65.7201 102.94 66.0901 103.58 65.8701C104.51 65.5601 105.41 65.1601 106.26 64.6701C107.17 64.1401 108.05 63.4401 108.35 62.3701C108.67 61.1901 108.18 59.8901 107.26 59.1101C106.487 58.4532 105.557 58.0087 104.56 57.8201C103.34 57.5901 102.12 57.6801 101.02 58.2901C100.33 58.6701 100.05 59.6701 100.48 60.3401C100.92 61.0201 101.79 61.2601 102.53 60.8601V60.8601Z" fill="#1D1D1B"/>
<path d="M135.14 68.4101C137.17 68.3901 139.19 68.3301 141.21 68.2501C141.73 68.2301 142.23 67.8101 142.21 67.2501C142.19 66.7301 141.77 66.2301 141.21 66.2501C139.19 66.3301 137.16 66.3901 135.14 66.4101C134.62 66.4201 134.12 66.8701 134.14 67.4101C134.16 67.9501 134.58 68.4201 135.14 68.4101Z" fill="#E18CB7"/>
<path d="M138.62 65.0499C139.05 65.4899 139.48 65.9199 139.91 66.3599C140.01 66.4699 140.12 66.5699 140.22 66.6799C140.3 66.7599 140.17 66.5999 140.16 66.5999C140.14 66.5499 140.13 66.5499 140.15 66.6099C140.16 66.6399 140.16 66.6699 140.17 66.6999C140.21 66.8699 140.27 67.0599 140.38 67.1999C140.53 67.3999 140.36 66.8299 140.36 66.8199C140.37 66.7999 140.39 66.7699 140.4 66.7499C140.34 66.8399 140.33 66.8499 140.38 66.8099C140.43 66.7399 140.32 66.8699 140.31 66.8899L140.16 67.0399C140.05 67.1599 139.93 67.2699 139.81 67.3899C139.59 67.6099 139.37 67.8299 139.15 68.0399C138.69 68.4799 138.22 68.9099 137.74 69.3299C137.35 69.6799 137.36 70.3999 137.74 70.7399C138.16 71.1299 138.73 71.1099 139.15 70.7399C139.7 70.2599 140.23 69.7699 140.76 69.2599C141.02 69.0099 141.28 68.7499 141.53 68.4899C141.84 68.1799 142.16 67.8299 142.28 67.3999C142.35 67.1399 142.37 66.8699 142.29 66.6099C142.26 66.4899 142.2 66.3699 142.15 66.2599C142.13 66.2299 142.07 66.0499 142.1 66.1699C142.13 66.2999 142.09 66.0299 142.09 66.0299C142.06 65.8999 142.01 65.7799 141.95 65.6699C141.86 65.4999 141.73 65.3499 141.6 65.2099C141.09 64.6799 140.57 64.1599 140.05 63.6399C139.68 63.2699 139 63.2399 138.64 63.6399C138.25 64.0399 138.23 64.6499 138.62 65.0499V65.0499Z" fill="#E18CB7"/>
<path d="M131.81 61.2502C131.34 61.9202 131.23 62.7102 131.17 63.5102C131.09 64.4702 131.06 65.4402 131.05 66.4002C131.02 68.1502 131.09 69.9102 131.25 71.6602C131.4 73.3902 131.54 75.3902 133.41 76.1202C134.93 76.7102 136.82 76.3902 138.39 76.2102C139.24 76.1202 140.08 76.0202 140.93 75.9202C141.75 75.8302 142.65 75.8102 143.43 75.5502C145.24 74.9502 145.79 73.4602 145.96 71.7102C146.13 70.0502 146.26 68.3702 146.16 66.7002C146.06 65.0502 145.9 62.9602 144.64 61.7502C143.36 60.5102 141.2 60.2602 139.52 60.0302C137.54 59.7602 135.55 59.7302 133.56 59.9802C132.76 60.0802 132.06 60.6002 132.06 61.4802C132.06 62.2102 132.75 63.0802 133.56 62.9802C136.25 62.6402 139.02 62.7602 141.64 63.5102C141.99 63.6102 142.44 63.7202 142.65 64.0102C142.93 64.3902 142.98 65.1602 143.05 65.6202C143.24 66.8802 143.21 68.1902 143.14 69.4602C143.1 70.1302 143.04 70.8002 142.98 71.4602C142.95 71.8002 142.95 72.3902 142.73 72.6102C142.54 72.7902 141.96 72.8102 141.69 72.8402L139.53 73.0802C138.15 73.2402 136.76 73.4302 135.36 73.4102C135.11 73.4102 134.85 73.3702 134.6 73.3602C134.39 73.3602 134.39 73.1702 134.53 73.3702C134.56 73.4202 134.49 73.6702 134.45 73.2302C134.41 72.7802 134.3 72.3002 134.25 71.7802C134.1 70.1602 134.03 68.5402 134.04 66.9202C134.04 66.1302 134.06 65.3402 134.1 64.5502C134.13 63.9702 134.05 63.2402 134.39 62.7602C134.86 62.1002 134.51 61.0902 133.85 60.7102C133.11 60.2702 132.28 60.5902 131.81 61.2502V61.2502Z" fill="#1D1D1B"/>
<path d="M135.16 75.0898C137.6 74.8598 140.04 74.5898 142.49 74.4698C143.27 74.4298 144.03 73.8098 143.99 72.9698C143.96 72.1898 143.33 71.4298 142.49 71.4698C140.04 71.5898 137.6 71.8498 135.16 72.0898C134.38 72.1598 133.62 72.7298 133.66 73.5898C133.69 74.3398 134.32 75.1698 135.16 75.0898Z" fill="#1D1D1B"/>
<defs>
<linearGradient id="paint0_linear_1230_3646" x1="57.5" y1="-16" x2="143" y2="141.5" gradientUnits="userSpaceOnUse">
<stop offset="0.276042" stop-color="#FE7332"/>
<stop offset="1" stop-color="#F8570E"/>
</linearGradient>
</defs>
</svg>
