<svg width="173" height="174" viewBox="0 0 173 174" fill="none" xmlns="http://www.w3.org/2000/svg">
<path d="M99.51 102.55C99.53 103.43 99.89 104.34 99.33 105.18C99.25 105.29 99.26 105.41 99.34 105.5C99.87 106.15 99.45 106.9 99.58 107.6C99.72 108.3 98.93 108.68 98.98 109.35C99.03 109.47 99.07 109.59 99.04 109.72C99.01 109.75 98.95 109.8 99.07 109.79C99.13 109.8 99.15 109.83 99.14 109.88C99.29 110.28 99.52 110.68 99.04 111.02C99.02 111.03 99.02 111.12 99.03 111.13C99.58 111.39 99.37 111.83 99.23 112.18C98.97 112.83 99.12 113.49 99.51 114.06C99.73 114.38 99.45 114.81 99.3 115.17C99.24 115.83 98.89 116.44 98.98 117.12C99.52 117.34 98.84 117.66 99.05 117.91C99.24 118.09 99.23 118.31 99.17 118.54C99.28 119.35 99.44 120.13 99.02 120.95C98.87 121.24 98.46 121.26 98.49 121.63C98.36 121.91 98.2 122.18 98.38 122.5C98.82 123.06 98.1 123.39 98.1 123.86C98.1 124 97.84 124.14 97.83 124.29C97.74 125.64 96.83 126 95.69 126.1C95.65 125.93 95.51 125.93 95.38 125.92C95.16 126.03 94.64 125.86 94.91 126.43C95.05 126.63 94.95 126.91 95.14 127.09C95.22 127.25 95.44 127.38 95.23 127.58C95.45 128.24 94.88 128.68 94.64 129.12C94.09 130.09 94.2 131 94.42 131.97C94.44 132.52 93.87 132.93 94.05 133.52C93.88 134.16 93.7 134.8 93.54 135.45C93.34 136.23 92.88 136.74 92.1 136.95C91.96 136.99 91.74 136.93 91.77 137.2C91.31 137.39 91.24 137.86 91.12 138.23C90.98 138.64 91.11 139.19 90.39 139.08C90.35 139.07 90.25 139.19 90.24 139.25C90.03 140.5 89.63 140.96 88.66 141.96C88.04 142.6 87.28 143.17 86.9 144.04C86.82 144.13 86.52 144.05 86.69 144.32C86.07 145.08 86.14 146.2 85.2 146.83C84.45 147.33 83.87 148.07 83.21 148.71C83.08 148.96 82.91 149.18 82.65 149.31C82.48 150.05 80.98 151.33 80.27 151.58C79.25 151.94 78.11 152.23 77.8 153.54C77.77 153.65 77.59 153.71 77.47 153.8C77.18 153.74 77.05 154.08 76.78 154.07C75.88 155.02 74.72 155.59 73.47 155.45C72.37 155.33 71.2 155.69 70.14 154.98C69.77 154.73 69.18 154.86 68.73 154.63C68.44 153.97 67.95 154.49 67.56 154.44C67.29 154.38 67.13 154.14 66.89 154.03C66.57 153.97 66.37 153.75 66.2 153.49C66.03 153.29 65.8 153.19 65.56 153.09C65.27 153 65.12 152.72 64.85 152.61C64.49 152.63 64.36 152.97 64.11 153.14C63.78 153.3 63.42 153.27 63.08 153.33C62.85 153.36 62.69 153.57 62.45 153.56C62.07 153.49 61.89 153.08 61.51 153.02C61.35 152.9 61.25 152.97 61.17 153.12C61.11 153.15 61.1 153.19 61.14 153.23C61.17 153.19 61.21 153.16 61.27 153.15C61.34 153.15 61.4 153.17 61.47 153.2C61.67 153.31 61.87 153.41 62.01 153.6C62.09 153.97 61.74 154.12 61.62 154.39C61.41 154.56 61.2 154.46 60.99 154.39C60.72 154.3 60.44 154.21 60.25 154.53C60.18 154.56 60.11 154.57 60.03 154.56C59.88 154.51 59.78 154.4 59.7 154.27C59.57 154.27 59.72 153.73 59.4 154.12C59.29 154.14 59.18 154.13 59.06 154.11C58.95 154.08 58.84 154.04 58.74 154C58.67 153.97 58.61 153.93 58.54 153.89C58.33 153.75 58.18 153.54 58 153.38C57.89 153.3 57.76 153.3 57.63 153.32C57.49 153.33 57.36 153.31 57.22 153.3C57.04 153.29 56.87 153.34 56.7 153.36C56.63 153.36 56.55 153.36 56.48 153.34C56.3707 153.31 56.2732 153.247 56.2 153.16C56.08 152.98 56.07 152.76 55.96 152.57C55.9045 152.482 55.8372 152.401 55.76 152.33C55.59 152.18 55.34 152.18 55.16 152.05C54.76 151.68 55.09 151.2 54.95 150.79C54.96 150.59 55.14 150.43 55.09 150.21C54.99 149.75 55.1 149.47 55.67 149.56C55.88 149.59 55.93 149.38 55.85 149.18C55.7 149.07 55.62 149.2 55.53 149.28C55.34 149.5 54.93 149.53 55.04 149.99C55.14 150.39 55.04 150.69 54.5 150.55C54.34 150.51 54.45 150.62 54.5 150.66C54.54 150.7 54.59 150.73 54.64 150.77C54.77 150.93 54.86 151.11 54.88 151.32C54.81 152.13 54.26 152.62 53.7 153.12C53.51 153.22 53.32 153.32 53.19 153.04C53.19 152.59 52.82 152.67 52.56 152.6C52.32 152.63 52.41 152.95 52.2 153.01C52.01 153.11 51.81 153.08 51.61 153.11C51.18 153.18 51.61 153.3 51.6 153.4C51.75 153.61 51.8 153.89 52.06 154.02C52.25 154.15 52.43 154.3 52.57 154.49C52.69 154.69 52.86 154.84 53.08 154.94C53.3 155.08 53.5 155.22 53.39 155.53C53.17 155.81 52.8 155.8 52.54 156.01C52.28 156.14 52.03 156.29 51.73 156.31C51.6 156.31 51.48 156.28 51.36 156.24C51.2423 156.202 51.1334 156.141 51.04 156.06C50.86 155.47 51.15 155 51.44 154.53C51.5 154.51 51.56 154.6 51.59 154.57C51.62 154.55 51.58 154.49 51.51 154.48C51.36 154.41 51.27 154.27 51.12 154.2C50.98 154.2 50.89 154.29 50.79 154.36C50.73 154.4 50.68 154.44 50.62 154.48C50.61 154.88 50.31 155.22 50.39 155.63C50.4 155.73 50.38 155.83 50.36 155.92C50.34 155.99 50.37 156.02 50.45 156.02C50.5 156.02 50.53 156.02 50.54 156C50.65 156 50.75 156.03 50.84 156.09C50.99 156.22 51.07 156.4 51.13 156.58C51.17 156.73 51.18 156.88 51.16 157.03C51.04 157.27 51.17 157.54 51.07 157.78C50.98 157.91 50.87 158.02 50.72 158.06C50.45 158.08 50.34 157.87 50.2 157.69C50.09 157.54 49.93 157.52 49.76 157.54C49.63 157.52 49.5 157.54 49.37 157.59C49.01 157.76 49.4 157.96 49.36 158.14C49.42 158.4 49.63 158.61 49.57 158.9C49.41 159.23 49.02 159.29 48.79 159.54C48.65 159.6 48.53 159.7 48.4 159.77L47.99 159.8C47.69 159.75 47.81 159.55 47.91 159.45C48.2 159.18 48.1 158.9 47.99 158.61C48 158.54 48.02 158.47 48.05 158.41C48.08 158.36 48.24 158.32 48.05 158.25C47.91 158.22 47.73 158.08 47.76 158.39C47.82 159 47.48 158.99 47.05 158.85C46.9766 158.829 46.9061 158.799 46.84 158.76C46.65 158.64 46.49 158.48 46.36 158.3C46.21 158.09 46.01 158.12 45.81 158.2C45.55 158.31 45.29 158.18 45.03 158.2C44.86 157.87 44.29 157.92 44.3 157.42C44.4 157.13 44.37 156.89 44.03 156.78C43.88 156.53 43.82 156.27 43.89 155.98C43.92 155.91 44.01 155.84 43.98 155.78C43.93 155.68 43.86 155.79 43.8 155.8C43.69 155.83 43.58 155.84 43.47 155.83C43.18 155.83 42.96 155.64 42.69 155.57C42.56 155.5 42.43 155.41 42.27 155.4C41.68 155.63 41.51 154.87 41.03 154.86C41.33 154.47 40.76 154.63 40.76 154.43C40.64 154.3 40.5 154.17 40.57 153.96C40.5 153.78 40.35 153.86 40.23 153.85C39.9 153.27 39.27 152.93 38.98 152.32C38.9448 152.269 38.9008 152.225 38.85 152.19C38.1 152.77 38.25 151.85 37.98 151.65C37.88 151.57 37.84 151.41 37.77 151.28C37.79 151.11 37.58 151.09 37.54 150.96L37.48 150.46C37.43 150 36.83 150.38 36.75 149.98C36.52 149.58 36.28 149.19 36.05 148.79C36.44 148.62 36.16 148.42 36.08 148.23H36.07C35.98 147.95 35.9 147.67 35.83 147.38C35.38 146.81 34.63 146.57 34.22 145.94C34.28 145.73 34.07 145.72 33.98 145.63C33.91 145.51 33.83 145.39 33.76 145.28C33.52 145.23 33.45 145.02 33.32 144.86C33.21 144.68 33.1 144.49 32.99 144.31C32.85 144.04 32.53 143.91 32.46 143.59C32.24 143.34 32.07 143.05 31.85 142.8C31.67 142.59 31.05 142.39 31.49 141.81C31.55 141.74 30.96 141.1 30.61 140.79C30.1 140.34 29.76 139.88 30.12 139.18C30.1 138.73 29.73 138.67 29.41 138.55C28.89 138.19 29.24 137.34 28.58 137.06C29.06 136.3 28.48 136.17 27.95 135.95C27.77 135.88 27.68 135.62 28.05 135.59C28.47 135.55 28.1 135.3 28.16 135.16C28.02 134.94 27.62 134.93 27.67 134.56C27.23 134.02 27.03 133.32 26.54 132.82C26.42 132.7 26.28 132.49 26.31 132.36C26.53 131.5 25.97 130.94 25.54 130.34C25.43 130.18 25.3 130.08 25.55 129.94C25.87 129.76 25.74 129.45 25.54 129.4C24.93 129.23 25.23 128.87 25.3 128.54C25.29 128.37 25.05 128.37 25.04 128.2C25.07 128.16 25.08 128.12 25.08 128.07C24.96 127.83 24.67 127.7 24.64 127.39C24.52 127 24.24 126.64 24.41 126.31C24.41 126.39 24.32 126.52 24.14 126.59C24.12 126.57 24.09 126.55 24.08 126.53C23.84 125.96 24.32 125.24 23.7 124.74C23.92 124.52 23.63 124.45 23.57 124.32C23.2 123.75 23.09 123.09 22.95 122.44C22.69 122.21 22.78 122.09 23.07 121.99C23.24 121.94 23.49 121.88 23.3 121.6C22.99 121.44 22.84 121.13 22.65 120.87C22.54 120.77 22.43 120.67 22.4 120.51C22.58 120.11 22.26 120.01 22.02 119.86C22.02 119.6 21.95 119.34 22.1 119.1C21.98 118.77 21.96 118.4 21.37 118.52C20.93 118.61 21.08 118.13 21.08 117.89C21.07 117.3 21.21 116.69 20.76 116.18C20.53 116.04 20.66 115.78 20.56 115.59C20.25 115.09 19.81 114.62 19.95 113.97C20 113.75 20.54 113.65 20.08 113.32C20.02 113.14 20.32 112.94 19.96 112.74C19.76 112.62 19.78 112.21 19.97 111.93L20 111.87C19.96 111.56 19.79 111.29 19.75 110.98C19.7 110.97 19.67 110.95 19.65 110.9C19.78 110.63 19.23 110.56 19.46 110.26C19.49 109.91 18.68 110.11 19 109.56C18.94 109.27 19.03 108.93 18.7 108.73C18.5 108.26 17.88 107.79 18.76 107.34C18.84 107.3 18.74 106.9 18.72 106.67C18.74 106.44 17.8 106.43 18.57 106.03C18.41 105.99 18.18 106.12 18.09 105.87C17.83 105.11 17.62 104.39 17.8 103.53C17.9 103.05 17.78 102.3 17.26 101.85C17.4 101.57 17.27 101.31 17.19 101.05C17.21 101 17.22 100.95 17.21 100.89C17.17 100.69 17.43 100.53 17.27 100.32C17.39 99.7202 16.89 99.3102 16.77 98.7702C16.65 98.2602 16.74 97.8402 16.8 97.3802C16.68 97.0302 16.72 96.6202 16.48 96.3102C16 95.0002 16.2 93.5302 15.92 92.1202C16.3 91.9902 16.05 91.6602 16.15 91.4402C16.18 90.9002 15.67 90.5202 15.71 89.9702C15.58 89.7002 15.53 89.4102 15.48 89.1202C15.61 88.8102 15.96 89.5002 16.05 89.0002C16.12 88.5402 15.93 88.1502 15.75 87.7502C15.6 87.6502 15.21 87.6102 15.38 87.4102C15.71 87.0202 15.54 86.7702 15.29 86.5202C14.86 86.0902 15.7 85.7802 15.37 85.3702C15.66 85.1502 15.22 84.9802 15.33 84.7802C15.1 84.5702 15.01 84.2802 14.89 84.0102C14.8 83.6302 15.41 83.4802 15.21 83.0502C15.17 82.6002 14.94 82.1802 15.27 81.7002C15.51 81.3502 14.96 81.0702 14.92 80.7002C14.68 80.2402 14.81 79.6402 14.35 79.2502C14.17 79.1002 14.29 78.8502 14.36 78.6702C14.74 77.6302 14.73 76.6102 14.5 75.5102C14.4 75.0602 14.74 74.4502 14.75 73.8802C15.06 73.7602 15.02 73.5002 14.98 73.2502C14.66 72.0402 14.05 70.8802 14.74 69.5602C14.9 69.2502 15.07 68.8002 15.1 68.4002C15.15 67.7102 15.1 67.0102 15.14 66.3202C15.16 65.9902 14.95 65.5702 15.38 65.3302C15.61 65.0102 15.49 64.6202 15.58 64.2702C15.12 63.5102 15.44 62.7202 15.6 62.0002C15.8 61.0402 15.86 60.0902 15.75 59.1302C15.99 58.8602 15.89 58.2802 16.47 58.2902C16.61 58.0002 16.36 57.8202 16.27 57.6002C16.04 57.2602 16.25 57.0902 16.51 56.9402C16.75 56.7702 16.46 56.4202 16.74 56.2602C16.68 55.9502 16.52 55.7102 16.77 55.3202C16.97 54.9902 16.91 54.4002 16.78 53.9802C16.5 53.1202 16.88 52.4702 17.27 51.7902C17.33 51.4502 17.77 51.4102 17.84 51.0702C17.8008 51.0518 17.7665 51.0244 17.74 50.9902C17.63 50.8002 17.73 50.7102 17.9 50.6502C17.97 50.5802 18.06 50.8502 18.13 50.6402C18.05 50.5002 18.08 50.3302 18.02 50.1802C18.15 49.2202 18.29 48.2602 18.42 47.2902C18.72 47.1902 18.82 46.8702 19.06 46.7102C19.24 46.2602 19.37 45.8202 19.12 45.3502C19.01 45.2602 18.9 45.1702 18.79 45.0702C19.25 44.7002 19.13 43.8402 19.43 43.6802C20.41 43.1702 20.43 42.3302 20.56 41.4802C20.57 41.3902 20.71 41.3202 20.79 41.2402C21.21 40.8502 21.35 40.3602 21.28 39.8002C21.3 39.7202 21.35 39.6602 21.43 39.6302L21.88 39.2702C21.83 39.0002 21.84 38.7302 21.99 38.4802L22.33 38.0802C22.34 37.7902 22.61 37.6502 22.71 37.4202C22.84 37.3202 22.98 37.2802 23.14 37.3202C23.19 37.3402 23.24 37.3602 23.28 37.3902C23.3 37.2702 23.18 37.2402 23.13 37.1602C23.07 37.0502 23.03 36.9502 23.14 36.8502C23.12 36.7102 23.14 36.4902 23.06 36.4502C22.55 36.1702 22.73 35.9402 23.11 35.7602C23.4 35.6102 23.33 35.3302 23.42 35.1002C23.64 35.0102 23.76 35.1002 23.8 35.3502C23.78 35.1102 23.54 34.9902 23.57 34.7502C24.06 34.8402 23.95 34.1502 24.36 34.1302C24.46 33.9602 24.76 33.9502 24.73 33.6802C24.8 33.3902 24.88 33.1102 24.95 32.8202C25.26 32.7502 25.44 32.5902 25.39 32.2402C25.67 31.7702 25.83 31.2202 25.97 30.7302C26.14 30.1102 26.57 29.8102 26.98 29.5402C27.31 29.3302 27.49 29.1202 27.58 28.7802C28.26 28.7902 27.98 28.2802 28.04 27.9602C28.32 26.9402 29.13 26.4002 29.93 25.8302C30.02 25.5502 30.48 25.6602 30.47 25.2902C30.79 24.8602 31.35 24.6802 31.62 24.1902C31.57 24.0402 31.62 23.9302 31.77 23.8702C32.18 23.6302 32.46 23.2502 33.11 23.3502C33.64 23.4302 33.92 22.6802 34.16 22.2502C34.58 21.5002 35.13 20.8802 35.68 20.2402C36.52 20.3002 37.41 19.7202 38.18 20.4202C38.45 20.2602 38.23 20.0302 38.32 19.8602C38.56 19.6502 38.64 19.3302 38.88 19.1302C38.72 18.7402 38.73 18.5402 38.92 18.3702C39.12 18.1402 39.45 18.1002 39.67 17.9002L39.94 17.6302C39.93 17.2102 40.28 17.0102 40.49 16.7302C40.85 16.1302 41.68 16.2402 42.08 15.6302C42.18 15.4702 42.76 15.9002 43.1 15.5502C43.31 15.5202 43.55 15.5702 43.72 15.4002C43.92 15.3202 44.25 15.7702 44.35 15.1602C44.4 14.8802 44.89 14.6802 45.19 14.4402C45.55 14.4402 45.78 14.2502 45.94 13.9502C46.24 13.5102 46.99 13.7002 47.18 13.1002C47.79 12.6602 48.51 13.1302 49.14 12.8602C49.59 12.6802 50.05 12.5702 50.54 12.5802C51.42 11.4802 52.53 10.8302 53.97 10.8402C54.35 10.7802 54.73 10.5002 55.12 10.8302C55.49 10.6502 55.88 10.5102 56.21 10.2802C56.56 10.0402 56.54 10.4102 56.69 10.5002C56.94 10.4502 57.34 10.7102 57.37 10.1902C58.36 9.80017 58.97 10.6202 59.63 11.0302C59.92 11.2102 60.05 11.3502 60.35 11.2102C61.08 10.8702 61.85 10.5802 62.51 10.1402C62.91 9.88018 63.47 10.1702 63.74 9.67018C63.92 9.53018 64.11 9.76018 64.29 9.67018C64.47 9.56018 64.55 9.31018 64.8 9.30018C64.98 9.17018 65.17 9.20018 65.35 9.30018C65.79 9.03018 66.26 9.44017 66.7 9.23017C68.05 9.58017 69.38 10.0802 70.81 9.73017C71.05 9.82017 71.32 9.65018 71.56 9.81018C72.21 9.54018 72.65 9.66018 73.14 10.2502C73.44 10.6102 74.16 10.6702 74.7 10.7502C75.54 10.8702 76.23 11.3202 76.98 11.6202C77.26 11.7302 77.5 12.0002 77.55 12.3502C77.48 12.4702 77.59 12.5202 77.65 12.5902C77.6 13.1802 78.04 13.3402 78.46 13.4202C80.26 13.8002 81.62 14.7202 82.49 16.3702C82.6 16.5802 82.56 16.8102 82.63 16.9202C83.3 17.9902 83.06 19.2502 83.25 20.3902C83.37 21.1102 83.35 22.1602 83 23.0302C82.8 23.5302 82.67 24.0702 82.54 24.6002C82.43 25.0702 82.56 25.1202 83.05 25.0102C83.63 24.8802 84.25 25.1602 84.71 25.3502C85.24 25.5602 85.79 25.6002 86.17 25.4702C87.15 25.1302 87.99 25.4502 88.86 25.7402C89.05 25.8002 89.19 25.8602 89.43 25.7702C90.25 25.4402 91.07 25.9702 91.91 25.8502C92.15 25.8202 92.2 26.3602 92.54 26.5202C93.89 27.1602 94.48 28.5802 95.55 29.5302C95.87 29.8102 95.97 30.5202 95.94 31.0902C95.81 31.1602 95.72 31.2502 95.84 31.4102C96.26 31.5902 95.6 32.2202 96.21 32.3302C96.32 32.5502 96.22 32.8202 96.38 33.0202C96.42 33.1602 96.53 33.2702 96.61 33.3902C97.24 34.5602 97.36 35.7202 96.45 36.8002C96.12 37.1902 96.11 37.5402 96.35 37.9302C96.66 38.4202 96.66 38.9002 96.52 39.4702C96.32 40.2902 96.79 40.9902 97.38 41.4802C97.66 41.7102 97.7 41.9302 97.6 42.1102C97.31 42.6502 97.77 43.2102 97.95 43.2702C98.41 43.4402 98.17 43.7002 98.22 43.9302C98.28 44.2302 98.2 44.5102 98.33 44.8502C98.5 45.3002 98.44 45.9902 97.91 46.4102C97.64 46.6002 97.71 46.9102 97.66 47.1702C97.65 47.3102 97.44 47.4702 97.7 47.5902C97.85 47.7202 97.86 47.9002 97.86 48.0802C97.83 48.1902 97.8 48.3002 97.76 48.4202C97.83 48.7002 97.84 48.9802 97.77 49.2602C97.6 49.6202 97.76 50.0702 97.44 50.3902C97.36 50.7302 97.81 51.2002 97.07 51.4002C96.63 51.5202 97.21 51.7602 97.19 51.9802C97.25 52.2902 97.03 52.5602 97.07 52.8702C96.94 53.1502 96.51 53.3802 97.01 53.7602C97.15 53.8702 97.04 54.3402 96.85 54.5702C96.23 55.3102 96.24 56.2702 95.95 57.1202C95.91 57.3902 96.02 57.6402 96.04 57.9102C95.87 58.5402 96.55 59.1002 96.18 59.7602C96.09 59.9102 96.14 60.1102 95.97 60.2802C95.3 60.9402 95.03 61.7902 94.9 62.7102C94.86 63.0102 94.26 63.1002 94.54 63.5602C94.45 64.4102 94.05 65.2002 94.11 66.1002C94.13 66.4102 93.73 66.7002 93.41 66.9102C93.24 67.0202 92.95 67.1202 93.2 67.4202C93.07 67.6202 93.2 67.9602 92.85 68.0302C92.68 68.0602 92.6 68.1402 92.72 68.3002C92.92 68.8202 92.72 69.2902 92.56 69.7702C93.25 70.1702 92.31 70.3402 92.43 70.6602C91.78 71.3502 91.56 72.2002 91.4 73.1202C91.34 73.4602 91.13 74.1102 90.43 73.9402C90.95 74.6102 91.68 75.1002 92.02 75.9002C92.11 76.1102 92.31 76.3102 92.25 76.5402C91.94 77.7502 92.91 78.3102 93.49 79.0802C93.82 79.5102 94.05 80.0202 94.61 80.2302C94.64 80.4802 94.51 80.7102 94.53 80.9502L94.92 81.4602C94.98 81.7402 94.58 81.8402 94.66 82.1302C94.98 82.7002 94.85 83.3902 95.13 83.9802C95.25 84.2802 94.72 84.6402 95.21 84.9102C95.42 85.3202 95.61 85.7402 95.62 86.2102C95.75 86.9402 95.16 86.7702 94.8 86.8702C94.31 87.0402 94.08 87.5602 93.58 87.7702C93.96 87.8402 94.34 87.6602 94.61 87.9902C94.66 88.0602 94.67 88.1302 94.66 88.2102C94.6 88.3902 94.48 88.5402 94.37 88.6802C94.24 88.7902 94.27 88.8502 94.43 88.8902C94.58 88.9902 94.71 89.1102 94.88 89.1902C94.95 89.2302 95.01 89.2702 95.07 89.3202C95.31 89.6502 95.73 89.7102 96.01 89.9702C96.28 90.4402 96.66 90.7902 97.15 91.0302C97.24 91.2302 97.2 91.4602 97.29 91.6602C97.68 92.0602 98 92.4902 98.11 93.0502C98.09 93.7702 98.61 94.0702 99.13 94.3702C99.27 95.0202 99.43 95.6602 98.96 96.2602C98.58 96.7502 98.97 97.2302 99.03 97.7202C98.99 98.1702 98.89 98.6002 98.82 99.0402C98.82 99.0602 98.77 99.0902 98.77 99.1002C98.8 99.2702 98.88 99.0502 98.92 99.1102C99.43 99.2802 99.22 99.9402 99.64 100.17C99.75 100.35 99.71 100.52 99.55 100.63C99.16 100.91 99.59 100.98 99.67 101.14C99.67 101.4 100.05 101.6 99.79 101.9C99.41 102.01 99.73 102.37 99.51 102.55V102.55Z" fill="url(#paint0_linear_1230_3669)"/>
<path d="M49.43 158.9C49.32 158.67 49.21 158.45 49.1 158.22C49.28 158.1 49.22 157.81 49.46 157.74C49.58 157.7 49.7 157.7 49.83 157.74C50.12 157.87 50.38 158.06 50.7 158.14C50.85 158.25 50.87 158.4 50.86 158.57C50.91 158.71 50.63 158.88 50.91 159C51.05 159.02 51.18 159.07 51.31 159.13C51.4 159.21 51.43 159.31 51.4 159.43C51.35 159.53 51.27 159.61 51.18 159.67C50.94 159.84 51.04 160.01 51.16 160.19C50.87 160.79 50.43 160.51 50.02 160.39C49.46 160.03 49.65 159.39 49.43 158.9V158.9ZM65.83 155.36C65.58 155.42 65.32 155.47 65.07 155.53C64.94 155.61 64.8 155.68 64.64 155.6C64.59 155.54 64.55 155.48 64.51 155.42C64.35 154.98 63.89 155.28 63.64 155.07C63.45 154.89 63.31 154.7 63.52 154.44C63.94 154.43 64.29 154.12 64.73 154.19C64.81 154.21 64.88 154.24 64.95 154.28C65.19 154.56 65.57 154.64 65.81 154.93C65.89 155.05 65.94 155.2 65.83 155.36V155.36ZM43.92 156.02C43.95 156.27 44.14 156.5 44.01 156.77C43.87 157.01 43.73 157.27 43.44 156.92C43.3 156.55 42.25 156.63 42.92 155.87C42.79 155.81 42.67 155.76 42.54 155.7C42.52 155.62 42.54 155.56 42.6 155.52C42.89 155.66 43.19 155.69 43.5 155.68C43.56 155.88 43.74 155.88 43.89 155.93C43.9 155.95 43.91 155.98 43.92 156.02ZM48.03 158.58C48.62 159.05 47.99 159.42 47.93 159.84C47.44 160.11 47.45 159.52 47.18 159.41C46.96 159.25 46.97 159.02 47.02 158.79C47.19 158.65 47.73 159.03 47.55 158.41C47.83 158.15 47.96 158.3 48.03 158.58V158.58Z" fill="#E18CB7"/>
<path d="M49.43 158.9C50.06 159.23 49.67 159.95 50 160.39C49.78 160.32 49.56 160.26 49.34 160.19C48.93 160.15 48.75 159.87 48.61 159.53C48.69 159.05 49.2 159.15 49.43 158.9V158.9ZM14.9 80.7002C15.31 81.1502 15.79 81.5602 15.2 82.2402C15.04 82.4302 15.41 82.7802 15.19 83.0502C14.91 83.0602 15.14 82.7702 15.06 82.7702C13.99 82.8802 15.11 82.1102 14.73 81.9502C15.29 81.6102 14.77 81.1102 14.9 80.7002V80.7002ZM53.26 159.72C52.76 160.35 52.32 160.28 51.92 159.62C51.83 159.36 51.92 159.15 52.1 158.97C52.29 158.86 52.43 158.91 52.56 159.07C52.61 159.13 52.58 159.26 52.71 159.27C52.76 159.11 52.8 158.94 52.95 158.83C53.03 158.8 53.11 158.79 53.2 158.8C53.51 158.91 53.61 159.12 53.53 159.43C53.47 159.55 53.4 159.66 53.26 159.72V159.72ZM54.6 158.57C54.59 158.54 54.57 158.52 54.56 158.49C54.48 158.1 54.82 157.84 55.01 157.95C55.47 158.21 56.18 157.02 56.42 158.21C56.11 158.16 55.88 158.19 56.02 158.6C56.23 158.58 56.25 158.68 56.18 158.85C56.12 158.85 56.07 158.83 56.01 158.81C55.63 159.02 55.38 158.59 55.04 158.6C54.88 158.62 54.74 158.66 54.6 158.57V158.57ZM97.1 91.0002C96.36 91.1202 96.01 90.7402 95.91 90.0602C95.8882 89.9955 95.8861 89.9259 95.9039 89.86C95.9217 89.7942 95.9586 89.7351 96.01 89.6902C96.1 89.6502 96.19 89.6702 96.26 89.7402C96.72 90.0402 97.11 90.3802 97.1 91.0002ZM67.51 154.33C68.21 153.93 68.56 154.01 68.69 154.62C68.1 154.22 67.97 154.91 67.66 155.1C67.47 155.22 67.4 155.34 67.21 155.15C67.09 154.97 67.11 154.78 67.15 154.58C67.21 154.42 67.34 154.34 67.51 154.33ZM19.07 45.3602C19.36 45.8502 19.68 46.3402 19.15 46.8702C18.95 46.9602 18.75 47.0002 18.53 47.0302C18.14 46.5302 18.61 46.2002 18.85 45.9302C19.02 45.7202 19.08 45.5802 19.07 45.3602V45.3602ZM21.35 39.7802C21.46 40.4002 21.59 41.0202 20.75 41.2502C20.77 40.9802 20.21 41.1702 20.38 40.7102C20.53 40.2902 20.9 40.3102 21.17 40.1302C21.13 39.9602 21.18 39.8402 21.35 39.7802V39.7802ZM98.88 109.43C98.75 109.32 98.35 109.28 98.6 109.06C99.07 108.65 99.24 108.07 99.58 107.59C100.08 108.05 99.67 108.33 99.38 108.64C99.41 108.74 99.52 108.81 99.51 108.93C99.49 108.98 99.45 109.01 99.41 109.03C99.19 109.11 99.14 109.43 98.88 109.43ZM22.91 122.5C23.18 123.12 23.66 123.65 23.64 124.38C23.55 124.46 23.48 124.45 23.43 124.34C22.47 123.95 23 123.14 22.91 122.5V122.5ZM98.99 117.12C98.8 116.95 98.66 116.72 98.85 116.51C99.09 116.23 99.13 116.13 98.82 115.79C98.54 115.5 99.03 115.3 99.31 115.17C99.84 115.93 99.08 116.47 98.99 117.12ZM19.95 112C20.14 112.3 19.87 112.76 20.35 113C20.49 113.07 20.05 113.17 20.06 113.39C19.55 113.12 19.5 112.58 19.27 112.12C19.52 112.08 19.74 112.04 19.95 112ZM47.13 13.1002C47.04 13.5702 47.11 14.2302 46.27 13.8102C46.24 13.7902 46.12 13.9502 46.04 14.0202C45.86 14.0902 45.67 14.2102 45.5 14.0002C45.64 13.5902 46.29 13.7002 46.35 13.1902C46.56 13.1102 46.78 13.1302 46.99 13.0702L47.13 13.1002V13.1002ZM50.48 12.5802C50.03 12.7602 49.61 13.0902 49.08 12.8602C49.76 12.0302 49.99 11.9802 50.48 12.5802ZM65.83 155.36C65.81 155.25 65.79 155.14 65.78 155.02C65.7594 154.989 65.7494 154.951 65.7511 154.914C65.7529 154.876 65.7665 154.84 65.79 154.81C65.845 154.758 65.9128 154.721 65.9865 154.704C66.0603 154.686 66.1374 154.688 66.21 154.71C66.35 154.76 66.47 154.84 66.61 154.89C66.85 154.96 67.13 154.97 67.15 155.32C66.71 155.62 66.27 155.65 65.83 155.36V155.36ZM24.1 126.65C24.2 126.43 24.2 126.16 24.47 125.94C24.58 126.46 24.5 126.99 24.77 127.43C24.6 127.49 24.47 127.44 24.35 127.32C24.06 127.18 24.03 126.93 24.1 126.65ZM22.85 120.76L23.27 121.66C23.03 121.79 22.8 122.04 22.51 121.83C22.3 121.67 22.37 121.42 22.47 121.21C22.44 120.93 22.66 120.86 22.85 120.76ZM98.88 99.0902C98.74 99.2202 98.59 99.3502 98.45 99.4902C98.75 98.9102 98.6 98.2102 98.99 97.6902C98.95 98.1502 99.37 98.6502 98.88 99.0902V99.0902ZM46.48 158.2L46.87 158.71C46.82 158.84 46.73 158.94 46.58 158.96L45.86 158.9C45.7 158.15 45.81 158.02 46.48 158.2Z" fill="#E18CB7"/>
<path d="M54.97 158.51C55.08 158.35 55.19 158.08 55.38 158.4C55.53 158.66 55.77 158.71 56 158.81C55.9 159.14 55.72 159.33 55.34 159.16C55.27 159.19 55.2 159.18 55.13 159.13C55.01 158.94 54.9 158.75 54.97 158.51V158.51ZM97.42 50.38C97.53 50.03 97.25 49.61 97.6 49.29C97.75 49.23 97.85 49.28 97.93 49.41C98.01 49.86 98.03 50.29 97.42 50.38V50.38ZM99.09 94.34C98.03 94.15 97.82 93.87 98.07 93.02L98.16 93.26C98.27 93.43 98.33 93.65 98.6 93.64C98.66 93.93 98.89 94.13 99.09 94.34ZM15.74 87.75C16.39 88.03 16.25 88.51 16.04 89C15.87 88.6 15.35 88.28 15.74 87.75V87.75ZM58.42 157.8C58.45 157.25 57.73 157.63 57.66 157.19C57.8 156.98 58.03 156.89 58.22 156.75C58.48 156.82 58.38 157.38 58.82 157.19C58.72 157.42 58.75 157.73 58.42 157.8V157.8ZM97.44 47.2C97.55 46.92 97.5 46.54 97.88 46.4C97.72 46.68 97.79 46.92 97.89 47.21C97.98 47.47 98.2 47.81 97.83 48.07C97.7683 48.0106 97.7195 47.9391 97.6868 47.8599C97.6541 47.7807 97.6382 47.6956 97.64 47.61C97.55 47.48 97.5 47.33 97.44 47.2V47.2ZM18.06 105.95C18.3 106.05 18.51 105.89 18.74 105.89C18.88 105.89 18.92 106.02 18.93 106.14C18.94 106.26 18.94 106.33 18.76 106.35C18.48 106.39 18.48 106.43 18.69 106.75C18.31 106.62 18 106.42 18.06 105.95ZM66.65 9.22998C66.22 9.58998 65.75 9.20998 65.3 9.29998C65.59 8.91998 66.22 9.27998 66.48 8.75998C66.51 8.70998 66.57 9.07998 66.65 9.22998V9.22998ZM96.56 88.75C96.13 89.34 96.15 88.55 95.91 88.54C96 87.87 96.45 88.34 96.74 88.28C96.68 88.43 96.62 88.59 96.56 88.75V88.75ZM29.36 138.62C29.9 138.48 30.25 138.57 30.07 139.25C29.61 139.3 29.41 139.04 29.36 138.62ZM19.72 111.06C20.06 111.28 20.23 111.56 19.97 111.95C19.6 111.73 18.93 111.6 19.72 111.06ZM57.33 10.19C57.31 10.47 57.68 10.33 57.73 10.59C57.35 10.81 56.99 10.8 56.65 10.5C56.83 10.31 57.01 10.11 57.33 10.19ZM18.67 108.82C19.48 108.84 19.21 109.25 18.97 109.65C18.43 109.53 18.57 109.17 18.67 108.82ZM96.02 87.83C95.34 87.53 95.7 87.08 95.86 86.67C95.91 86.68 95.96 86.69 96.01 86.69C96.44 86.93 95.94 87.24 96.07 87.5C96.05 87.61 96.04 87.72 96.02 87.83V87.83ZM40.44 16.73C40.59 17.24 40.04 17.31 39.89 17.63C39.85 17.19 39.74 16.71 40.44 16.73ZM27.62 134.63C27.76 134.85 28.09 134.91 28.11 135.23C27.75 135.38 27.41 135.28 27.24 134.98C27.14 134.8 27.54 134.81 27.62 134.63V134.63ZM62.53 155.71C62.44 155.81 62.34 155.91 62.25 156.01C62.1413 155.955 62.056 155.863 62.01 155.75C61.9581 155.637 61.9341 155.514 61.94 155.39C61.97 155.17 62.04 154.98 62.24 154.85C62.37 154.81 62.49 154.84 62.6 154.92C62.74 155.11 62.72 155.32 62.69 155.53C62.66 155.61 62.61 155.67 62.53 155.71V155.71ZM48.62 159.52C48.86 159.74 49.1 159.96 49.35 160.18C49.08 160.64 48.85 160.17 48.79 160.08C48.68 159.88 48.57 159.79 48.35 159.8C48.44 159.71 48.53 159.62 48.62 159.52ZM23.09 37.43C22.97 37.46 22.85 37.5 22.73 37.53C22.63 37.45 22.47 37.49 22.39 37.36C22.48 36.99 22.7 36.8 23.1 36.86C23.14 36.95 23.18 37.04 23.22 37.12C23.26 37.26 23.23 37.36 23.09 37.43V37.43Z" fill="#E18CB7"/>
<path d="M22.39 37.3498C22.53 37.3498 22.7 37.2998 22.73 37.5198C22.83 37.8998 22.52 37.9698 22.28 38.0798C21.78 37.7598 22.39 37.5998 22.39 37.3498V37.3498ZM46.48 158.2C45.83 158.05 45.91 158.53 45.87 158.91L45.42 158.58C45.37 158.31 45.58 158.24 45.76 158.14C46.04 157.73 46.27 157.88 46.48 158.2ZM16.71 56.2698C16.71 56.5198 16.89 56.8398 16.48 56.9498C16.49 56.6598 16.03 56.8198 16.08 56.6098C16.15 56.3398 16.42 56.2298 16.71 56.2698V56.2698ZM22.33 121.14C22.15 120.93 21.7 121.39 21.68 120.93C21.67 120.53 22.01 120.64 22.26 120.71C22.58 120.81 22.51 120.97 22.33 121.14V121.14ZM36.68 150.04C36.9 150.06 37.12 150.08 37.34 150.11C37.46 150.13 37.66 150.01 37.67 150.21C37.68 150.31 37.51 150.42 37.41 150.52C37.17 150.37 36.66 150.61 36.68 150.04ZM95.18 84.8798C94.33 84.6398 94.82 84.2898 95.1 83.9498C95.37 84.2398 95.08 84.5798 95.18 84.8798ZM16.51 58.4498C16.41 58.3698 16.3 58.2898 16.2 58.1998C16.04 57.9898 16.2 57.7998 16.24 57.6098C16.84 57.7298 16.79 58.0498 16.51 58.4498ZM45.5 14.0098C45.68 14.0198 45.86 14.0198 46.04 14.0298C45.91 14.5498 45.6 14.6498 45.14 14.4398C45.26 14.2898 45.38 14.1498 45.5 14.0098ZM16.14 91.4398C16.59 91.5898 16.15 91.9098 16.26 92.1498C16.29 92.2098 16.03 92.1598 15.91 92.1298C16.24 91.9698 15.43 91.4498 16.14 91.4398ZM62.53 155.71C62.55 155.67 62.56 155.62 62.58 155.58C62.6 155.26 62.78 155.24 63.02 155.34L63.05 155.92C62.67 156.38 62.74 155.7 62.53 155.71V155.71ZM96.02 57.8898C95.76 57.6498 95.5 57.4198 95.93 57.0998C96.17 57.3398 96.51 57.5698 96.02 57.8898ZM92.4 70.6298C92.05 70.2798 92.88 70.0998 92.53 69.7398C93.38 70.1698 92.66 70.3698 92.4 70.6298ZM17.97 50.1798C18.05 50.3298 18.12 50.4798 18.2 50.6298C18.18 50.7998 18.1 50.8598 17.94 50.7598C17.76 50.7398 17.73 50.8698 17.7 50.9998C17.17 50.5198 17.85 50.4398 17.97 50.1798V50.1798ZM22.07 119.17C22.3 119.45 22.09 119.68 21.99 119.93C21.56 119.31 21.56 119.31 22.07 119.17ZM46.59 158.97C46.64 158.84 46.73 158.74 46.88 158.72C46.93 158.75 46.98 158.77 47.03 158.79C47.08 159 47.14 159.21 47.19 159.41C46.68 159.68 46.81 159.08 46.59 158.97V158.97ZM97.92 49.4098L97.59 49.2898C97.64 48.9898 97.68 48.6998 97.73 48.3998C98.07 48.6898 97.93 49.0598 97.92 49.4098ZM95 127.14C95.24 127.12 95.05 126.66 95.34 126.78C95.44 126.82 95.44 127.12 95.49 127.31C95.46 127.46 95.38 127.55 95.23 127.58C95.15 127.43 95.08 127.28 95 127.14ZM17.8 51.0698C17.9 51.5398 17.51 51.6198 17.23 51.7898C17.11 51.3098 17.52 51.2398 17.8 51.0698ZM19.43 110.34C19.48 110.56 20.17 110.58 19.62 110.98C19.54 110.77 18.91 110.73 19.43 110.34ZM42.59 155.51L42.53 155.69C42.25 155.84 42.09 155.82 42.22 155.45C42.29 155.34 42.32 155.17 42.48 155.19C42.67 155.22 42.6 155.38 42.59 155.51V155.51ZM82.62 149.31C82.89 149.19 82.67 148.61 83.18 148.71C83.32 149.21 83.02 149.3 82.62 149.31ZM25.33 32.2398C25.47 32.6498 25.68 33.1198 24.89 32.8198C25.04 32.6198 25.19 32.4298 25.33 32.2398ZM21.94 38.4898C22 38.7698 22 39.0298 21.83 39.2798C21.37 38.9398 21.53 38.6998 21.94 38.4898ZM43.67 15.3898C43.56 15.8398 43.37 15.9698 43.05 15.5398C43.18 15.1998 43.44 15.3398 43.67 15.3898ZM18.53 47.0198C18.7 46.8298 18.91 46.7698 19.15 46.8598C18.98 47.1598 18.69 47.2498 18.37 47.2898C18.43 47.2098 18.48 47.1198 18.53 47.0198ZM86.66 144.31C86.51 144.26 86.18 144.48 86.23 144.18C86.27 143.94 86.63 143.98 86.87 144.03C86.8 144.13 86.73 144.22 86.66 144.31ZM56.9 158.37C56.76 158.26 56.79 158.13 56.87 158C57.14 157.93 57.34 158.03 57.52 158.22C57.46 158.95 57.02 157.96 56.9 158.37ZM61.4 156.25C61.15 156.18 61.02 156.02 61.06 155.75C61.14 155.71 61.22 155.69 61.31 155.69C61.54 155.72 61.74 155.8 61.87 156.01C61.89 156.11 61.86 156.18 61.77 156.23C61.65 156.23 61.53 156.24 61.4 156.25ZM99.66 113.08C99.58 113.24 99.51 113.32 99.38 113.28C99.24 113.23 99.26 113.1 99.31 113.01C99.36 112.91 99.39 112.7 99.58 112.83C99.64 112.88 99.64 113.02 99.66 113.08ZM98.47 122.17C98.47 121.98 98.48 121.8 98.48 121.61C98.68 121.67 98.88 121.75 98.85 122.01C98.83 122.27 98.64 122.23 98.47 122.17V122.17ZM99.51 102.55C99.53 102.31 99.31 101.98 99.74 101.87C99.45 102.03 100.15 102.52 99.51 102.55ZM23.43 124.34C23.5 124.35 23.57 124.37 23.64 124.38C23.76 124.48 24.03 124.36 24.04 124.55C24.05 124.72 23.84 124.78 23.67 124.79C23.58 124.65 23.51 124.5 23.43 124.34ZM24.67 33.6798C25.04 34.2398 24.44 33.9998 24.3 34.1298C24.33 33.8898 24.53 33.8098 24.67 33.6798Z" fill="#E18CB7"/>
<path d="M61.77 156.22C61.8 156.16 61.83 156.11 61.85 156.05C61.89 155.9 61.98 155.8 62.14 155.77C62.17 155.85 62.21 155.92 62.24 156C62.14 156.18 62.21 156.76 61.77 156.22ZM33.92 145.7C34.1 145.74 34.26 145.35 34.43 145.62C34.53 145.79 34.25 145.87 34.16 146.01C34.08 145.9 34 145.8 33.92 145.7V145.7ZM99.51 108.94C99.47 108.84 99.42 108.75 99.38 108.65C99.56 108.77 99.93 108.57 99.94 108.88C99.94 109.09 99.67 108.93 99.51 108.94ZM56.17 158.85C56.12 158.77 56.07 158.69 56.01 158.6C56.21 158.48 56.39 158.51 56.53 158.69C56.57 158.74 56.58 158.88 56.55 158.91C56.42 159.02 56.29 158.91 56.17 158.85V158.85ZM95.79 31.4202C95.66 31.3502 95.38 31.4102 95.44 31.1802C95.49 30.9902 95.72 31.0602 95.89 31.1102C96.07 31.2702 95.81 31.3102 95.79 31.4202V31.4202ZM57.51 158.23C57.29 158.16 57.08 158.08 56.86 158.01L56.77 157.62C56.95 157.54 57.07 157.59 57.14 157.76C57.19 157.97 57.4 157.98 57.53 158.08C57.54 158.13 57.53 158.18 57.51 158.23V158.23ZM97.25 91.6202C97.02 91.4502 96.99 91.2402 97.11 90.9902C97.48 91.1302 97.24 91.4102 97.25 91.6202ZM91.75 137.19C91.64 137.11 91.48 137.02 91.63 136.88C91.77 136.75 91.94 136.89 92.08 136.94C91.98 137.02 91.86 137.11 91.75 137.19ZM99.47 109.45C99.57 109.33 99.63 109.11 99.84 109.29C99.88 109.32 99.85 109.44 99.86 109.51C99.73 109.49 99.6 109.46 99.47 109.44V109.45V109.45ZM40.17 153.91C40.28 153.8 40.4 153.65 40.58 153.79C40.68 153.87 40.68 153.98 40.52 154.02C40.41 153.95 40.23 154.12 40.17 153.91V153.91ZM24.99 128.26C25.14 128.33 25.28 128.4 25.25 128.6C25.1 128.58 24.91 128.69 24.81 128.51C24.73 128.36 24.83 128.28 24.99 128.26ZM92.69 68.2702C92.49 68.3902 92.42 68.2502 92.44 68.1102C92.47 67.8402 92.66 67.9502 92.82 67.9902C92.78 68.0902 92.73 68.1802 92.69 68.2702ZM96.28 33.0802C96.3 32.9702 96.17 32.8202 96.39 32.7802C96.55 32.9502 96.54 33.1702 96.56 33.3902C96.4 33.3402 96.29 33.2502 96.28 33.0802ZM64.67 155.51C64.64 155.56 64.62 155.6 64.59 155.65C64.53 155.66 64.48 155.66 64.42 155.66C64.32 155.63 64.23 155.61 64.13 155.58C64.25 155.29 64.53 155.49 64.71 155.39C64.7 155.43 64.68 155.47 64.67 155.51V155.51ZM53.58 153.03C53.99 152.45 54.46 151.92 54.77 151.26C54.69 151.09 54.72 150.94 54.85 150.81C54.89 150.79 54.93 150.78 54.97 150.76C55.51 151.07 54.74 151.7 55.27 152.01C55.37 152.16 55.51 152.3 55.51 152.5C55.49 152.58 55.44 152.63 55.38 152.67C55.33 152.68 55.28 152.66 55.24 152.62C55.2 152.66 55.22 152.68 55.27 152.7C55.44 152.76 55.52 152.89 55.58 153.05C55.6 153.12 55.61 153.19 55.61 153.27C55.54 153.43 55.62 153.51 55.76 153.56C56.03 153.76 55.97 154.01 55.72 154.09C55.19 154.26 55.7 154.4 55.7 154.55C55.72 154.63 55.72 154.71 55.7 154.79C55.56 155.21 56.01 155.86 55.23 156.04C55.07 156.07 54.91 156.07 54.75 156.04C54.6726 156.02 54.6008 155.982 54.54 155.93C54.4916 155.871 54.4559 155.802 54.4353 155.728C54.4146 155.654 54.4094 155.576 54.42 155.5C54.43 155.45 54.44 155.4 54.43 155.35C54.43 155.34 54.39 155.38 54.35 155.42C54.26 155.51 54.15 155.59 54.09 155.71C54.05 155.81 54 155.91 53.96 156.02C53.86 156.37 54.31 156.68 54.03 157.04C53.95 157.07 53.88 157.08 53.79 157.08C53.56 157.01 53.35 157.01 53.23 157.27C53.13 157.34 53.02 157.36 52.9 157.37C52.71 157.38 52.52 157.43 52.32 157.44C52.1606 157.441 52.0057 157.388 51.88 157.29C51.66 157.04 51.17 157.19 51.07 156.75C51.04 156.57 50.91 156.37 51.19 156.27C51.35 156.23 51.53 156.32 51.66 156.17L52.38 155.84C52.68 155.85 52.95 155.75 53.21 155.6C53.32 155.24 53.03 155.16 52.8 155.05C52.8 154.97 52.84 154.9 52.91 154.86C53.01 154.78 53.17 154.9 53.24 154.74C53.19 154.75 53.13 154.75 53.08 154.73C52.85 154.67 52.69 154.36 52.4 154.56C52.21 154.42 52.02 154.28 51.82 154.14C51.79 153.88 51.64 153.68 51.5 153.48C51.37 153.43 51.23 153.39 51.1 153.32C50.94 153.23 50.82 153.1 50.9 152.91C50.98 152.73 51.14 152.82 51.27 152.84C51.55 152.88 51.83 152.91 52.11 152.95C52.21 152.9 52.32 152.86 52.44 152.87C52.59 152.88 52.74 152.9 52.87 153C53 153.17 53.13 153.35 53.38 153.28C53.44 153.23 53.6 153.37 53.59 153.17L53.53 153.12L53.58 153.03V153.03Z" fill="#E18CB7"/>
<path d="M57.84 155.84C57.57 155.99 57.26 156.51 57.07 155.77C56.71 155.51 56.68 155.21 56.95 154.87C57.14 154.7 57.37 154.81 57.59 154.79C57.3 154.16 56.82 154.64 56.44 154.58C55.81 154.27 55.84 153.76 56.52 153.2C56.56 153.21 56.61 153.23 56.65 153.24C56.76 153.38 56.88 153.46 57.04 153.31C57.19 153.28 57.33 153.32 57.47 153.36C57.72 153.49 57.84 153.18 58.05 153.18C58.22 153.37 58.39 153.55 58.55 153.74C58.72 154.08 58.37 154.3 58.38 154.61C58.3 154.96 58.46 155.32 58.34 155.67C58.24 155.91 58.06 155.93 57.84 155.84V155.84ZM51.92 157.16C52.08 157.21 52.24 157.27 52.4 157.32C52.42 157.35 52.43 157.38 52.45 157.42C52.43 157.65 52.59 157.82 52.64 158.03C52.64 158.15 52.61 158.26 52.55 158.37C52.42 158.58 52.3 158.79 52.09 158.93C51.88 158.82 51.66 159.45 51.46 158.92C51.41 158.77 51.54 158.67 51.55 158.54C51.42 158.58 51.32 158.68 51.18 158.7C50.89 158.88 51.33 158.97 51.23 159.13C51.06 159.31 50.97 159.12 50.86 159.05C50.55 159 50.7 158.81 50.73 158.65C50.88 158.38 50.76 158.04 50.95 157.77C50.94 157.53 50.7 157.26 51.02 157.04C51.32 157.13 51.61 157.25 51.92 157.16V157.16ZM54.56 150.81C54.23 150.89 54 150.78 53.91 150.43C53.88 150.31 53.88 150.19 54 150.14C54.32 150.01 54.48 150.4 54.85 150.42C54.64 149.8 54.87 149.35 55.39 149.04C55.58 148.95 55.8 149 55.98 148.9C56.23 149.83 56.09 149.98 55.18 149.74C55.13 150.09 55.36 150.5 54.97 150.77L54.94 150.78C54.82 150.83 54.7 150.99 54.56 150.81V150.81ZM94.65 86.7602C94.62 87.0802 95.07 87.2602 94.91 87.6202C94.91 87.8602 94.79 88.0002 94.56 88.0602C94.1 87.7002 93.75 88.1302 93.27 88.2902C93.39 87.7602 93.17 87.1802 94.03 87.1702C94.53 87.1702 94.03 86.6102 94.26 86.4102C94.51 86.4402 94.51 86.6802 94.65 86.7602V86.7602ZM59.38 151.42C59.12 151.45 58.79 151.54 58.7 151.22C58.52 150.61 58.13 150.76 57.74 150.94C57.66 150.57 58.1 150.62 58.07 150.33C58.05 150.15 58.03 149.81 58.34 149.96C58.59 150.08 59.07 150.05 59.05 150.34C59.02 150.89 59.17 151.03 59.67 150.88C59.7 151.05 59.73 151.21 59.77 151.38C59.63 151.42 59.51 151.43 59.38 151.42V151.42ZM50.53 154.24C50.59 154.26 50.66 154.28 50.72 154.3C51.25 154.45 50.86 153.97 51.01 153.87C51.35 153.92 51.38 154.27 51.6 154.45C51.62 154.52 51.59 154.57 51.52 154.6C51.2 154.99 51.23 155.5 51.06 155.94C51.06 156.14 50.93 156.2 50.76 156.2C50.66 156.16 50.55 156.12 50.45 156.08C50.31 156.14 50.2 156.1 50.12 155.97C50.16 155.86 50.19 155.74 50.23 155.63C50.43 155.36 50.72 155.13 50.38 154.75C50.22 154.59 50.33 154.36 50.53 154.24ZM61.2 155.81C61.15 155.79 61.11 155.77 61.06 155.75C61.02 155.67 60.98 155.59 60.95 155.51C61.02 154.91 60.41 154.84 60.16 154.49C59.91 153.5 60.78 154.43 60.89 154.07C61.1 154.17 61.25 154.48 61.55 154.26C61.69 154.24 61.74 154.33 61.79 154.44C61.81 154.6 61.94 154.68 62.07 154.75C62.18 154.88 62.15 155.01 62.08 155.14C61.98 155.19 61.85 155.24 61.99 155.39C61.9793 155.462 61.9592 155.533 61.93 155.6C61.76 155.9 61.42 155.67 61.2 155.81V155.81ZM62.6 155C62.49 154.96 62.39 154.92 62.28 154.88C62.18 154.77 62.14 154.63 62.11 154.49L62.08 154.28C62.07 154.1 62.07 153.92 62.2 153.77C62.42 153.76 62.27 153.51 62.4 153.44C62.57 153.31 62.74 153.19 62.91 153.06C62.99 153.23 63.19 153.33 63.21 153.53C63.23 153.79 63.25 154.05 63.32 154.31C63.31 154.51 63.35 154.71 63.24 154.89C63.06 155.04 62.86 155.21 62.6 155V155Z" fill="#E18CB7"/>
<path d="M58.23 155.69C58.21 155.31 58.09 154.94 58.24 154.56C58.34 154.22 58.53 154.37 58.67 154.5C58.95 154.76 59.17 154.71 59.38 154.43C59.48 154.3 59.57 154.17 59.75 154.14L59.99 154.44C60.08 154.62 60.05 154.79 59.91 154.93C59.89 155.13 59.9 155.35 59.66 155.44C59.48 155.28 59.38 155.44 59.26 155.53C59.06 155.6 58.84 155.62 58.65 155.73C58.5 155.78 58.36 155.83 58.23 155.69V155.69ZM59.38 151.42C59.49 151.31 59.62 151.32 59.75 151.38C59.45 151.73 59.81 152.15 59.63 152.53C59.56 152.67 59.64 152.87 59.4 152.92C59.22 152.96 59.04 152.95 58.97 152.74C58.82 152.35 58.07 151.83 59.19 151.69C59.27 151.68 59.32 151.51 59.38 151.42V151.42ZM64.73 154.27C64.34 154.3 64 154.73 63.57 154.41C63.55 154.37 63.54 154.34 63.52 154.3C63.52 154.22 63.53 154.14 63.56 154.06C63.73 153.74 63.76 153.35 64.03 153.08C64.12 152.59 64.47 152.4 64.9 152.3C65.04 152.57 64.94 152.82 64.85 153.08C64.72 153.25 64.6 153.42 64.53 153.63C64.41 153.99 64.88 153.76 64.89 153.99C64.9 154.11 64.86 154.21 64.73 154.27V154.27Z" fill="#E18CB7"/>
<path d="M65.57 152.9C65.9 152.97 66.18 153.13 66.39 153.4C66.43 153.98 66 154.2 65.6 154.45C65.49 154.51 65.38 154.55 65.25 154.51C65.09 154.37 65.13 154.16 65.07 153.98C65.03 153.84 64.93 153.72 64.92 153.57C64.96 153.37 65.08 153.23 65.25 153.13C65.46 153.19 65.57 153.12 65.57 152.9V152.9ZM56.52 153.19C56.19 153.4 56.32 153.82 56.11 154.11C55.87 154.45 56.42 154.2 56.45 154.41C56.51 154.56 56.64 154.7 56.52 154.87C56.13 155.04 55.91 154.74 55.64 154.56C55.48 154.2 55.1 154.57 54.86 154.37C55.09 154.05 55.47 154.11 55.71 153.91C55.9 153.75 55.76 153.68 55.63 153.61C55.59 153.37 55.82 153.34 55.93 153.22C56.01 153.15 56.1 153.09 56.2 153.07C56.29 153.11 56.4 153.15 56.52 153.19V153.19ZM64.03 153.08C64.09 153.54 63.92 153.91 63.62 154.24C63.12 154.21 63.26 153.76 63.12 153.5C63.05 153.35 62.99 153.21 62.92 153.06C63.29 153.06 63.66 153.07 64.03 153.08ZM67.24 154.59C66.97 154.48 66.81 154.75 66.59 154.78C66.46 154.63 66.33 154.63 66.21 154.79C66.09 154.81 65.97 154.83 65.86 154.85C65.78 154.73 65.79 154.61 65.84 154.49C66.07 154.02 66.63 154.07 66.97 153.77C67.15 153.96 67.34 154.15 67.52 154.34C67.42 154.42 67.33 154.5 67.24 154.59V154.59ZM61.63 151.45C61.6 151.64 61.58 151.84 61.54 152.14C61.28 151.9 60.99 151.47 61.03 151.46C61.54 151.3 61.17 150.29 61.98 150.48C62.04 150.61 62 150.71 61.88 150.78C61.65 150.84 61.76 151.02 61.74 151.15C61.78 151.29 61.76 151.39 61.63 151.45V151.45ZM81.73 30.91C81.85 31.16 80.93 31.1 81.56 31.53C81.65 31.59 81.46 31.69 81.35 31.67C80.93 31.6 80.99 31.18 80.82 30.93C80.57 30.57 81.05 30.65 81.15 30.48C81.48 30.42 81.64 30.61 81.73 30.91V30.91ZM59.55 154.64C59.08 155.34 58.67 154.76 58.25 154.57C58 154.17 58.51 154.03 58.55 153.73C58.61 153.75 58.67 153.77 58.72 153.79C58.77 153.89 58.81 153.98 58.86 154.08C59.01 154.26 59.23 154.31 59.41 154.45C59.46 154.51 59.51 154.57 59.55 154.64ZM46.6 156.08C46.83 156.16 46.86 156.37 46.79 156.51C46.67 156.74 46.44 156.94 46.18 156.9C45.94 156.87 45.92 156.58 45.97 156.39C46.05 156.07 46.39 156.18 46.6 156.08ZM53.49 151.17C53.43 151.29 53.44 151.54 53.18 151.56C53.11 151.57 53 151.52 52.97 151.46C52.83 151.2 53.02 151.12 53.22 151.03C53.27 151.01 53.31 150.86 53.3 150.85C53.07 150.72 52.91 150.57 53.16 150.33C53.24 150.25 53.37 150.26 53.45 150.38C53.61 150.62 53.63 150.86 53.49 151.17V151.17ZM62.41 153.44C62.4 153.56 62.52 153.73 62.3 153.79C62.15 153.83 62.03 153.79 61.95 153.66C61.73 153.55 61.43 153.56 61.37 153.23C61.3 153.09 61.34 152.98 61.47 152.9C62 152.71 62.1 153.26 62.41 153.44V153.44ZM63.01 151.79C63.2 152.14 63.3 151.9 63.41 151.73C63.56 151.68 63.68 151.72 63.74 151.87C63.72 151.92 63.7 151.96 63.68 152.01C63.5 152.15 63.44 152.46 63.12 152.4C62.87 152.2 62.63 152.41 62.34 152.43C62.4 152.14 62.45 151.87 62.5 151.6C62.69 151.61 62.86 151.68 63.01 151.79V151.79ZM95.86 89.1C95.81 89.34 95.89 89.54 96.05 89.72C96.01 89.83 95.96 89.94 95.92 90.06C95.55 89.84 95 89.87 94.86 89.31C94.913 89.2526 94.9832 89.214 95.06 89.2C95.3 89.2 95.5 89.08 95.71 88.99C95.78 88.98 95.83 89.02 95.86 89.1V89.1ZM50.53 154.24C50.46 154.46 50.45 154.62 50.61 154.85C50.87 155.23 50.64 155.51 50.22 155.62C50.14 155.52 50.05 155.42 49.97 155.32C50.42 155.12 50.23 154.77 50.2 154.43C50.18 154.28 50.37 154.24 50.53 154.24V154.24ZM94.56 88.06L94.91 87.62C95 87.99 95.54 88.36 94.93 88.75C94.48 88.82 94.28 88.69 94.52 88.22C94.54 88.17 94.56 88.12 94.56 88.06ZM52.83 153C52.7 153.01 52.57 153.02 52.43 153.02C52.31 152.83 52.2 152.64 52.48 152.48C52.77 152.47 53.08 152.17 53.35 152.52C53.5 152.71 53.32 152.83 53.22 152.96C53.1 153.07 52.98 153.18 52.83 153V153ZM51.38 22.68C51.27 22.52 51.16 22.37 51.05 22.21C51.37 22.38 51.9 22.02 52.05 22.58C52.13 22.88 51.96 23.01 51.66 22.96C51.5937 22.9404 51.5333 22.9045 51.4844 22.8556C51.4354 22.8067 51.3996 22.7463 51.38 22.68V22.68ZM56.72 148.97C56.38 148.65 56.27 148.16 56.65 147.96C57.13 147.71 56.9 148.47 57.21 148.58C57.06 148.73 56.77 148.7 56.72 148.97ZM95.49 125.79C95.37 125.99 95.24 126.2 95.12 126.4C95.04 126.44 94.96 126.47 94.88 126.51C94.68 126.41 94.48 126.31 94.44 126.05C94.87 126.3 94.97 125.24 95.49 125.79ZM51.92 157.16C51.54 157.66 51.26 157.47 51.02 157.03C51 156.9 50.97 156.78 50.95 156.65C51.01 156.6 51.05 156.6 51.09 156.63C51.13 156.66 51.14 156.69 51.14 156.7C51.25 157.12 51.91 156.59 51.92 157.16ZM42.9 154.11C42.99 153.94 42.85 153.61 43.23 153.62C43.41 153.63 43.47 153.74 43.53 153.87C43.66 154.18 43.31 154.14 43.22 154.29C43.07 154.56 42.84 154.48 42.62 154.4C42.53 154.13 42.88 154.27 42.9 154.11V154.11ZM48.55 155.16C48.08 155.41 49.07 155.93 48.39 156.13C48.27 156.16 48.11 156.16 48.1 156.05C48.06 155.68 48.22 155.38 48.55 155.16V155.16ZM42.12 148.99C42.11 149.19 42.25 149.54 41.84 149.41C41.49 149.3 41.46 148.88 41.47 148.63C41.48 148.38 41.71 148.6 41.83 148.69C41.99 148.73 42.06 148.86 42.12 148.99ZM50.45 148C50.94 147.99 51.3 148.13 51.64 147.73C51.26 148.57 51.22 148.58 50.45 148ZM98.02 98.16C97.9 98.27 97.81 98.48 97.62 98.39C97.44 98.31 97.35 98.08 97.38 97.9C97.41 97.76 97.61 97.76 97.75 97.81C97.91 97.86 98.09 97.91 98.02 98.16Z" fill="#E18CB7"/>
<path d="M61.95 153.65C62.07 153.69 62.18 153.74 62.3 153.78C62.29 153.96 62.29 154.14 62.28 154.32C62.07 154.36 61.94 154.69 61.67 154.48C61.63 154.4 61.59 154.32 61.55 154.25C61.48 153.92 61.82 153.86 61.95 153.65ZM94.52 88.2198C94.48 88.5298 94.64 88.6898 94.93 88.7498C94.92 88.7998 94.91 88.8398 94.89 88.8898C94.85 89.0198 94.79 89.1398 94.74 89.2598C94.33 89.4498 94.45 88.9998 94.29 88.8898C94.12 88.8798 94.08 88.7998 94.18 88.6498C94.26 88.4898 94.28 88.2698 94.52 88.2198V88.2198ZM95.17 93.0398C95.46 93.2098 95.66 93.4298 95.5 93.7698C95.47 93.8298 95.32 93.8998 95.3 93.8798C94.99 93.6498 95.23 93.3298 95.17 93.0398ZM40.79 153.06C40.66 153.21 40.56 153.41 40.32 153.36C40.15 153.33 40.07 153.21 40.13 153.05C40.22 152.82 40.44 152.82 40.64 152.83C40.75 152.83 40.83 152.92 40.79 153.06ZM21.51 41.3498C21.86 41.4298 22.14 41.4998 22.52 41.5898C22.03 41.9798 21.76 41.8398 21.51 41.3498ZM23.9 118.87C23.58 119 23.33 119.03 23.09 118.85C23.07 118.84 23.1 118.67 23.15 118.65C23.43 118.49 23.66 118.56 23.9 118.87ZM45.81 153.66C45.7 154.01 45.91 154.3 45.61 154.45C45.56 154.47 45.4 154.36 45.35 154.27C45.16 153.92 45.47 153.87 45.81 153.66V153.66ZM48.68 149.94C48.8 150.31 48.7 150.59 48.41 150.87C48.2 150.39 48.62 150.22 48.68 149.94ZM47.78 151.64C47.87 151.43 48.02 151.42 48.16 151.46C48.38 151.53 48.33 151.74 48.31 151.89C48.3 152.02 48.16 152.05 48.04 152.01C47.9628 151.984 47.8958 151.934 47.849 151.868C47.8022 151.801 47.778 151.721 47.78 151.64ZM37.35 147.26C37.04 147.57 36.77 147.32 36.48 147.29C36.49 147.21 36.48 147.1 36.52 147.07C36.86 146.86 37.06 147.22 37.35 147.26ZM58.41 148.22C58.89 148.53 59.17 148.7 59.51 148.92C58.85 149.22 58.77 148.73 58.41 148.22ZM83.3 29.7098C83.51 29.9498 83.69 30.1598 83.86 30.3598C83.42 30.3598 83.02 30.3398 83.3 29.7098ZM46.41 144.74C46.57 144.84 46.68 144.98 46.6 145.17C46.55 145.3 46.41 145.42 46.26 145.29C46.13 145.17 46.05 145 46.11 144.82C46.16 144.67 46.29 144.71 46.41 144.74V144.74ZM60.26 151.34C60.77 151.7 60.48 152.08 60.4 152.71C60.15 152.1 60.53 151.69 60.26 151.34ZM48.03 158.58C47.9 158.44 47.75 158.37 47.56 158.4C47.57 158.25 47.27 158.11 47.51 157.97C47.81 157.8 47.98 158.05 48.15 158.24C48.19 158.32 48.18 158.39 48.09 158.44C48.08 158.48 48.06 158.53 48.03 158.58V158.58ZM50.6 158.19C50.3 158.17 50.03 158.07 49.79 157.9C49.67 157.39 50.08 157.57 50.3 157.51C50.43 157.67 50.39 157.95 50.65 158.01C50.7 158.1 50.68 158.15 50.6 158.19V158.19ZM53.55 147.95C53.99 148.2 54.02 148.44 53.68 148.75C53.44 148.51 53.57 148.25 53.55 147.95ZM56.18 153.07C56.13 153.19 56.09 153.31 56.04 153.43C55.85 153.43 55.66 153.42 55.56 153.22V153.23C55.53 153.01 55.64 152.84 55.75 152.66C55.82 152.56 55.91 152.47 56.04 152.45C56.21 152.64 56.27 152.84 56.18 153.07ZM81.96 30.7998C82.07 30.5398 81.84 29.9598 82.51 30.2198L82.57 30.6298C82.41 30.6998 82.31 30.8998 82.1 30.8498C82.06 30.8298 82.01 30.8198 81.96 30.7998ZM39.1 148.6C39.32 148.17 39.43 147.96 39.55 147.74C39.74 148.16 39.74 148.16 39.1 148.6ZM81.7 29.9598C81.57 30.0798 81.6 30.5298 81.25 30.1698C81.14 30.0498 80.97 29.9098 81.15 29.7598C81.41 29.5498 81.54 29.8198 81.7 29.9598ZM88.34 31.2098C88.31 31.1398 88.27 31.0698 88.24 31.0098C88.15 30.7498 87.74 30.5198 88.15 30.1998C88.54 30.1598 88.74 30.3098 88.7 30.7198C88.65 30.9298 88.51 31.0798 88.34 31.2098Z" fill="#E18CB7"/>
<path d="M89.15 30.52C88.89 30.44 88.73 30.65 88.53 30.73C88.63 30.39 88.39 30.29 88.15 30.2C88.53 29.99 88.85 30.19 89.17 30.37C89.24 30.43 89.23 30.48 89.15 30.52ZM60.44 13.77C60.52 13.21 60.81 13.28 61.16 13.25C60.99 13.57 60.77 13.65 60.44 13.77ZM42.29 154.26C42.09 154.38 41.89 154.5 41.7 154.26C41.67 154.22 41.68 154.07 41.73 154.04C41.96 153.86 42.15 154.08 42.36 154.14C42.4 154.21 42.38 154.26 42.29 154.26ZM51.14 156.7C51.08 156.68 51.01 156.67 50.95 156.65C50.88 156.5 50.81 156.34 50.75 156.19C50.85 156.1 50.95 156.01 51.05 155.93C51.16 155.97 51.28 156.02 51.39 156.06C51.44 156.19 51.4 156.3 51.27 156.36C51.04 156.4 51.18 156.59 51.14 156.7ZM51.38 22.68C51.53 22.72 51.63 22.8 51.66 22.96C51.67 23.22 51.58 23.36 51.31 23.19C50.95 22.98 51.23 22.83 51.38 22.68ZM52.48 152.49C52.46 152.67 52.45 152.85 52.43 153.03L52.13 152.94C52.2 152.62 52.28 152.3 52.35 151.97C52.68 152.11 52.5 152.31 52.48 152.49V152.49ZM95.38 92.67C95.31 92.38 95.05 92.23 95.23 91.99C95.26 91.95 95.43 91.96 95.45 92C95.58 92.19 95.67 92.4 95.38 92.67ZM43.8 155.72C43.81 155.59 43.73 155.39 43.89 155.33C44.12 155.25 44.16 155.49 44.23 155.63C44.39 155.96 44.08 155.92 43.93 156.01L43.92 155.94C43.84 155.89 43.76 155.84 43.8 155.72V155.72ZM51.16 150.11C50.99 149.6 51.11 149.35 51.25 148.92C51.48 149.41 51.31 149.65 51.16 150.11ZM60.12 153.54C59.91 153.31 59.84 153.11 60.07 152.91C60.1 152.88 60.26 152.91 60.29 152.96C60.44 153.21 60.27 153.36 60.12 153.54V153.54ZM49.45 157.77C49.37 157.95 49.35 158.17 49.1 158.22C48.9 157.47 48.9 157.47 49.34 157.57C49.4 157.59 49.44 157.63 49.45 157.69V157.77ZM59.38 154.59C59.11 154.45 58.73 154.49 58.61 154.12C58.75 154.06 58.89 154.02 59.01 153.93C59.12 153.96 59.24 153.98 59.35 154.01C59.57 154.2 59.62 154.39 59.38 154.59V154.59ZM58.04 153.18C57.87 153.32 58 153.9 57.49 153.56C57.43 153.41 57.57 153.33 57.62 153.23C57.74 152.96 57.87 152.84 58.04 153.18V153.18ZM55.47 152.45C55.24 152.38 55.16 152.24 55.27 152.02C55.56 151.91 55.76 152.06 55.95 152.25C55.88 152.53 55.68 152.51 55.47 152.45V152.45ZM44.59 154.36C44.51 154.5 44.4 154.46 44.29 154.42C44.18 154.38 44.05 154.33 44.1 154.18C44.15 154.03 44.29 154.08 44.39 154.12C44.51 154.16 44.63 154.2 44.59 154.36V154.36ZM61.87 150.79C61.9 150.69 61.94 150.59 61.97 150.49C62.25 150.59 62.4 150.78 62.48 151.07C62.15 151.16 62.09 150.83 61.87 150.79ZM61.48 152.9C61.44 153.01 61.41 153.12 61.38 153.23C61.32 153.22 61.27 153.21 61.21 153.19C61.15 153.22 61.1 153.21 61.06 153.18C61.02 153.15 61.01 153.12 61.02 153.11C61.17 152.94 60.91 152.61 61.21 152.54C61.4 152.49 61.34 152.81 61.48 152.9V152.9ZM36.09 145.17C36.2 145.22 36.28 145.32 36.2 145.43C36.14 145.51 36.01 145.57 35.91 145.57C35.78 145.56 35.74 145.42 35.79 145.31C35.85 145.19 35.95 145.14 36.09 145.17ZM33.91 141.8C33.62 141.92 33.41 142.01 33.23 141.77C33.21 141.74 33.23 141.63 33.26 141.62C33.47 141.54 33.65 141.64 33.91 141.8ZM63.12 152.4C63.31 152.27 63.49 152.14 63.68 152.01C63.64 152.15 63.98 152.3 63.67 152.42C63.48 152.48 63.28 152.82 63.12 152.4V152.4ZM57.33 149.84C57.47 149.91 57.43 150.03 57.4 150.14C57.36 150.25 57.31 150.38 57.16 150.32C57.01 150.27 57.05 150.13 57.09 150.03C57.13 149.92 57.18 149.8 57.33 149.84V149.84ZM57.22 148.59C57.4 148.48 57.49 148.18 57.78 148.3C57.84 148.32 57.89 148.5 57.88 148.51C57.68 148.63 57.48 148.88 57.22 148.59V148.59ZM54.29 15.35C54.59 15.38 54.78 15.42 54.77 15.69C54.77 15.75 54.67 15.87 54.63 15.86C54.37 15.82 54.41 15.58 54.29 15.35V15.35ZM98.72 102.16C98.86 102.29 98.81 102.42 98.75 102.55C98.7 102.67 98.57 102.73 98.49 102.63C98.44 102.57 98.46 102.42 98.49 102.32C98.51 102.22 98.58 102.11 98.72 102.16Z" fill="#E18CB7"/>
<path d="M50.31 157.52C50.15 157.66 49.84 157.61 49.79 157.91C49.68 157.87 49.56 157.82 49.45 157.78V157.79C49.41 157.56 49.59 157.55 49.73 157.5C49.94 157.06 50.12 157.38 50.31 157.52V157.52ZM47.21 153.13C47.29 153.23 47.29 153.34 47.2 153.43C47.11 153.52 46.99 153.54 46.89 153.45C46.79 153.36 46.78 153.25 46.89 153.16C47 153.1 47.1 153.05 47.21 153.13V153.13ZM25.58 35.64C25.21 35.45 25.31 35.16 25.09 34.77C25.55 35.06 25.6 35.29 25.58 35.64ZM49.13 144.01C49.24 143.76 49.42 143.69 49.67 143.77C49.69 143.78 49.7 143.93 49.67 143.99C49.5 144.28 49.32 144.2 49.13 144.01ZM54.59 147.79C54.75 147.8 54.84 147.87 54.74 147.99C54.66 148.09 54.53 148.13 54.41 148.2C54.35 148.08 54.23 147.94 54.25 147.85C54.31 147.67 54.5 147.84 54.59 147.79V147.79ZM49.13 144.01C49.03 144.19 49.09 144.48 48.79 144.53C48.76 144.53 48.67 144.41 48.68 144.35C48.7 144.07 48.84 143.94 49.13 144.01ZM94.74 89.26C94.59 89.05 94.64 88.93 94.89 88.89C95.05 89.01 95.23 88.96 95.4 88.91L95.43 89.03C95.41 89.24 95.24 89.29 95.08 89.34C95 89.33 94.92 89.31 94.84 89.3C94.81 89.29 94.78 89.27 94.74 89.26V89.26ZM48.02 156.52C48.34 156.65 48.31 156.82 48.08 157C47.78 157.24 47.79 156.96 47.75 156.78C47.71 156.57 47.88 156.56 48.02 156.52V156.52ZM40.56 143.27C40.22 143.21 40.18 143.02 40.1 142.67C40.4 142.83 40.54 142.95 40.56 143.27ZM49.5 147.14C49.43 147.34 49.31 147.48 49.09 147.48C49.04 147.48 48.95 147.37 48.96 147.33C49 147.14 49.18 147.11 49.34 147.09C49.4 147.05 49.44 147.04 49.47 147.07C49.5 147.09 49.51 147.12 49.5 147.14V147.14ZM40.92 148.17C41 148.03 41.07 147.91 41.19 148.01C41.25 148.06 41.25 148.21 41.22 148.3C41.2 148.38 41.16 148.57 41.01 148.43C40.95 148.37 40.94 148.24 40.92 148.17ZM50.49 151.13C50.54 151.2 50.65 151.28 50.66 151.38C50.67 151.52 50.53 151.54 50.41 151.53C50.28 151.51 50.21 151.41 50.21 151.29C50.22 151.14 50.32 151.1 50.49 151.13ZM50.37 146.55C50.43 146.61 50.53 146.67 50.52 146.71C50.49 146.9 50.33 146.87 50.2 146.88C50.07 146.89 49.95 146.8 50.01 146.7C50.06 146.61 50.23 146.6 50.37 146.55V146.55ZM47.15 156.06C46.92 155.65 47.14 155.49 47.16 155.15C47.34 155.52 47.33 155.74 47.15 156.06ZM52.52 145.36C52.61 145.36 52.7 145.41 52.65 145.49C52.58 145.6 52.47 145.72 52.36 145.76C52.23 145.8 52.17 145.67 52.19 145.55C52.23 145.37 52.38 145.37 52.52 145.36ZM55.47 152.45C55.63 152.38 55.79 152.32 55.95 152.25C55.98 152.32 56.01 152.39 56.05 152.46C56.01 152.56 55.97 152.66 55.93 152.77C55.7 152.88 55.53 152.83 55.43 152.59C55.44 152.54 55.45 152.49 55.47 152.45V152.45ZM50.6 158.19C50.62 158.13 50.64 158.08 50.66 158.02C50.73 157.9 50.78 157.77 50.95 157.76C51.02 158.08 50.94 158.37 50.79 158.65C50.74 158.68 50.7 158.68 50.68 158.65C50.66 158.62 50.65 158.6 50.65 158.58C50.71 158.45 50.71 158.31 50.6 158.19V158.19ZM26.86 30.16C27.03 29.78 27.21 29.74 27.54 29.9C27.3 29.99 27.13 30.06 26.86 30.16ZM56.98 150.61C56.97 150.85 56.97 151.08 56.96 151.42C56.62 151.1 56.82 150.85 56.98 150.61ZM48.12 147.98C48.09 147.98 48.21 147.95 48.31 147.98C48.47 148.02 48.39 148.15 48.36 148.24C48.32 148.34 48.27 148.46 48.13 148.41C47.98 148.37 48.01 148.26 48.12 147.98V147.98ZM45.83 147.72C45.95 147.77 46.03 147.85 45.97 147.98C45.92 148.09 45.8 148.15 45.69 148.09C45.63 148.06 45.58 147.95 45.59 147.88C45.6 147.74 45.69 147.68 45.83 147.72ZM46.11 146.65C46.04 146.75 45.95 146.86 45.84 146.79C45.79 146.76 45.81 146.58 45.85 146.49C45.87 146.43 45.99 146.36 46.04 146.37C46.19 146.41 46.15 146.53 46.11 146.65V146.65ZM57.33 151.59C57.39 151.69 57.47 151.76 57.46 151.82C57.44 151.98 57.3 151.96 57.19 151.93C57.1 151.9 56.92 151.88 57.02 151.72C57.07 151.64 57.22 151.63 57.33 151.59ZM57 153.37C57.04 153.26 57.08 153.15 57.11 153.05C57.28 153.11 57.45 153.17 57.62 153.22C57.77 153.41 57.55 153.45 57.49 153.55C57.33 153.49 57.17 153.43 57 153.37V153.37ZM43.21 150.74C43.25 150.79 43.33 150.86 43.33 150.92C43.31 151.14 43.1 151.13 42.96 151.16C42.85 151.18 42.88 151.05 42.91 150.98C42.96 150.85 43.01 150.71 43.21 150.74ZM94.18 88.66C94.22 88.74 94.26 88.82 94.29 88.9C94.14 89 93.94 89.23 93.82 88.98C93.7 88.72 94 88.7 94.18 88.66ZM37.41 145.14C37.71 145.22 37.75 145.41 37.79 145.67C37.49 145.63 37.45 145.43 37.41 145.14ZM93.14 65.5C93.16 65.62 93.2 65.7 93.18 65.76C93.14 65.88 93.04 65.95 92.93 65.87C92.89 65.84 92.89 65.71 92.92 65.64C92.95 65.58 93.04 65.56 93.14 65.5ZM17.94 50.76C18.03 50.72 18.11 50.68 18.2 50.63C18.3 50.73 18.63 50.71 18.46 50.92C18.3 51.12 18.05 51.03 17.94 50.76V50.76ZM32.66 142.86C32.54 142.84 32.44 142.86 32.42 142.82C32.3679 142.725 32.3404 142.618 32.34 142.51C32.34 142.42 32.45 142.35 32.51 142.43C32.59 142.54 32.6 142.68 32.66 142.86ZM22.35 40.7C22.41 40.78 22.5 40.85 22.5 40.9C22.49 41.05 22.36 41.06 22.25 41.01C22.2 40.98 22.14 40.88 22.15 40.83C22.17 40.78 22.27 40.75 22.35 40.7V40.7ZM22.69 118.08C22.73 118.24 22.77 118.34 22.78 118.44C22.79 118.54 22.71 118.62 22.63 118.55C22.55 118.49 22.51 118.37 22.48 118.27C22.47 118.23 22.58 118.17 22.69 118.08V118.08ZM42.12 148.99C41.97 148.94 41.86 148.85 41.84 148.69C41.92 148.59 41.96 148.37 42.14 148.52C42.29 148.65 42.15 148.83 42.12 148.99V148.99ZM49.9 153.77C49.89 153.98 49.88 154.19 49.87 154.45C49.54 154.2 49.68 154 49.9 153.77ZM44.02 146.03C44.01 146.28 43.81 146.47 43.67 146.4C43.41 146.27 43.63 146.15 43.78 146.07C43.84 146.04 43.93 146.04 44.02 146.03ZM52.66 149.84C52.62 149.87 52.52 149.95 52.5 149.94C52.41 149.88 52.35 149.79 52.28 149.71C52.35 149.67 52.42 149.6 52.49 149.6C52.61 149.58 52.68 149.66 52.66 149.84V149.84ZM50.1 155.96C50.21 156 50.32 156.03 50.43 156.07C50.34 156.22 50.36 156.54 50.08 156.41C49.91 156.34 50.06 156.12 50.1 155.96V155.96ZM47.57 142.79C47.58 142.84 47.62 142.92 47.6 142.99C47.57 143.11 47.46 143.19 47.35 143.09C47.31 143.06 47.31 142.93 47.33 142.86C47.36 142.78 47.44 142.73 47.57 142.79ZM55.98 148.9C55.85 149.24 55.62 149.15 55.39 149.04C55.52 148.72 55.75 148.8 55.98 148.9ZM47.42 149.28C47.21 149.06 47.13 148.99 47.06 148.9C47.01 148.84 46.99 148.75 46.93 148.61C47.23 148.7 47.38 148.83 47.42 149.28ZM49.27 150.47C49.42 150.29 49.52 150.22 49.63 150.29C49.68 150.32 49.68 150.43 49.71 150.5C49.61 150.53 49.51 150.59 49.41 150.58C49.35 150.58 49.29 150.49 49.27 150.47ZM61.01 153.11C61.07 153.14 61.14 153.17 61.2 153.19C61.08 153.38 60.95 153.62 60.69 153.44C60.64 153.41 60.85 153.17 61.01 153.11ZM47.16 157.63C46.81 157.41 46.75 157.24 46.78 156.95C47.04 157.07 47.06 157.27 47.16 157.63ZM38 149.26C38.01 149.34 38.04 149.45 38.04 149.55C38.04 149.66 37.94 149.7 37.87 149.62C37.8045 149.533 37.7662 149.429 37.76 149.32C37.76 149.24 37.85 149.19 38 149.26V149.26ZM50.46 152.36C50.22 152.47 49.95 152.45 49.87 152.19C49.81 152 50.05 152.04 50.19 152.06C50.23 152.21 50.45 152.19 50.46 152.36V152.36ZM39.05 144.1C39.15 143.99 39.25 143.92 39.36 144C39.41 144.04 39.44 144.16 39.41 144.21C39.35 144.32 39.23 144.35 39.12 144.29C39.07 144.26 39.07 144.16 39.05 144.1V144.1ZM89.53 30.54C89.55 30.48 89.57 30.42 89.58 30.36C89.68 30.38 89.83 30.36 89.88 30.42C89.96 30.52 89.88 30.64 89.76 30.68C89.64 30.73 89.56 30.67 89.53 30.54V30.54ZM24.95 39.53C24.84 39.55 24.76 39.59 24.69 39.58C24.57 39.55 24.51 39.44 24.58 39.33C24.61 39.28 24.73 39.24 24.79 39.26C24.84 39.28 24.86 39.38 24.95 39.53Z" fill="#E18CB7"/>
<path d="M48.02 156.52L47.75 156.79C47.64 156.74 47.45 156.73 47.58 156.54C47.7 156.34 47.86 156.33 48.02 156.52V156.52ZM48.36 146.98C48.41 147.1 48.47 147.18 48.47 147.25C48.47 147.31 48.38 147.36 48.33 147.41C48.29 147.34 48.22 147.27 48.23 147.21C48.22 147.14 48.29 147.08 48.36 146.98V146.98ZM21.48 43.53C21.28 43.33 21.39 43.17 21.53 43.01C21.62 43.2 21.63 43.36 21.48 43.53ZM49.48 155C49.55 155.09 49.62 155.15 49.64 155.22C49.67 155.33 49.58 155.37 49.5 155.34C49.4285 155.309 49.3714 155.252 49.34 155.18C49.32 155.14 49.42 155.07 49.48 155ZM49.73 157.5C49.64 157.6 49.54 157.69 49.45 157.79C49.41 157.72 49.38 157.65 49.34 157.58C49.36 157.48 49.38 157.38 49.4 157.27C49.51 157.34 49.62 157.42 49.73 157.5V157.5ZM22.03 40.03C22.09 40.11 22.13 40.16 22.17 40.22C22.1 40.25 22.03 40.31 21.96 40.31C21.91 40.31 21.87 40.21 21.83 40.16C21.88 40.11 21.95 40.08 22.03 40.03ZM49.5 147.14C49.45 147.12 49.4 147.1 49.34 147.08C49.31 146.92 49.28 146.76 49.25 146.59C49.3 146.59 49.37 146.57 49.4 146.6C49.58 146.75 49.57 146.94 49.5 147.14V147.14ZM96.85 124.24C96.89 124.34 96.92 124.41 96.95 124.48C96.89 124.5 96.8 124.56 96.76 124.54C96.7306 124.517 96.7064 124.489 96.6891 124.456C96.6719 124.423 96.6619 124.387 96.66 124.35C96.66 124.32 96.77 124.29 96.85 124.24ZM51.76 146.88C51.66 146.89 51.57 146.93 51.53 146.9C51.47 146.86 51.45 146.78 51.42 146.71C51.49 146.69 51.57 146.62 51.61 146.65C51.67 146.68 51.7 146.77 51.76 146.88ZM23.68 36.62C23.55 36.59 23.48 36.53 23.53 36.44C23.56 36.39 23.67 36.37 23.74 36.37C23.78 36.37 23.82 36.45 23.85 36.49C23.79 36.54 23.73 36.59 23.68 36.62ZM51.87 152.35C51.82 152.36 51.74 152.39 51.67 152.38C51.58 152.37 51.52 152.29 51.59 152.21C51.63 152.16 51.73 152.13 51.8 152.14C51.9 152.15 51.93 152.23 51.87 152.35V152.35ZM49.28 144.89C49.3 144.76 49.38 144.71 49.46 144.76C49.52 144.79 49.58 144.87 49.6 144.94C49.62 145.06 49.51 145.07 49.43 145.04C49.36 145.01 49.32 144.94 49.28 144.89ZM41.88 152.91L42.02 153.24C41.95 153.26 41.86 153.33 41.82 153.31C41.7891 153.286 41.7634 153.256 41.7445 153.221C41.7256 153.187 41.7139 153.149 41.71 153.11C41.73 153.05 41.81 152.99 41.88 152.91V152.91ZM24.75 118.34C24.64 118.35 24.56 118.38 24.51 118.34C24.46 118.3 24.45 118.21 24.42 118.15C24.49 118.13 24.57 118.08 24.62 118.11C24.67 118.14 24.69 118.23 24.75 118.34ZM42.71 148.76C42.81 148.77 42.89 148.83 42.83 148.9C42.77 148.97 42.65 149 42.56 149.03C42.54 149.04 42.47 148.95 42.47 148.91C42.46 148.73 42.62 148.79 42.71 148.76V148.76ZM41.97 146.99C42 146.87 42.06 146.79 42.15 146.84C42.2 146.87 42.22 146.98 42.22 147.05C42.22 147.09 42.15 147.12 42.11 147.16L41.97 146.99V146.99ZM42.27 145.8C42.18 145.82 42.07 145.88 41.97 145.87C41.86 145.85 41.88 145.74 41.96 145.7C42.06 145.65 42.17 145.64 42.28 145.61C42.28 145.66 42.28 145.71 42.27 145.8V145.8ZM82.1 30.85C82.26 30.78 82.41 30.7 82.57 30.63C82.45 30.78 82.52 31.34 82.1 30.85ZM39.21 140.14C39.23 140.21 39.27 140.31 39.27 140.41C39.27 140.44 39.14 140.46 39.07 140.49C39.05 140.41 39.02 140.33 39.01 140.25C39.01 140.14 39.06 140.09 39.21 140.14ZM31.5 26.24C31.54 26.32 31.58 26.38 31.61 26.44C31.54 26.47 31.48 26.54 31.42 26.53C31.37 26.52 31.33 26.43 31.29 26.38L31.5 26.24ZM93.58 89.46C93.59 89.51 93.62 89.59 93.61 89.66C93.6 89.75 93.52 89.81 93.44 89.74C93.39 89.7 93.36 89.6 93.37 89.53C93.38 89.43 93.46 89.41 93.58 89.46V89.46ZM45.06 153.48C45.07 153.54 45.11 153.62 45.1 153.69C45.09 153.78 45 153.85 44.92 153.77C44.8689 153.708 44.8406 153.63 44.84 153.55C44.86 153.44 44.94 153.42 45.06 153.48V153.48ZM46.69 146.86C46.89 146.81 46.97 146.98 47.09 147.07C47.06 147.1 47.02 147.16 47.01 147.15C46.87 147.11 46.66 147.11 46.69 146.86V146.86ZM47.7 13.83C47.66 13.69 47.6 13.59 47.61 13.5C47.62 13.4 47.73 13.41 47.79 13.47C47.85 13.53 47.89 13.6 47.93 13.67C47.87 13.71 47.81 13.75 47.7 13.83ZM45.1 149.73C45.14 149.61 45.21 149.56 45.3 149.62C45.36 149.66 45.42 149.75 45.42 149.81C45.42 149.93 45.32 149.92 45.25 149.88C45.18 149.85 45.14 149.78 45.1 149.73V149.73ZM44.71 150.73C44.81 150.7 44.91 150.64 45.02 150.64C45.13 150.65 45.13 150.76 45.05 150.81C44.95 150.87 44.84 150.88 44.73 150.92C44.72 150.87 44.72 150.82 44.71 150.73ZM44.61 151.81C44.68 151.91 44.73 152 44.79 152.09C44.72 152.1 44.64 152.13 44.58 152.11C44.49 152.08 44.34 152.07 44.4 151.91C44.4 151.86 44.51 151.85 44.61 151.81V151.81ZM42.29 154.26C42.31 154.22 42.33 154.17 42.35 154.13L42.9 154.1C43.03 154.41 42.64 154.23 42.62 154.4C42.51 154.36 42.4 154.31 42.29 154.26V154.26ZM44.92 145.75C44.86 145.88 44.79 145.92 44.73 145.84C44.67 145.76 44.61 145.64 44.62 145.55C44.62 145.44 44.74 145.45 44.79 145.51C44.85 145.58 44.88 145.68 44.92 145.75V145.75ZM52.45 158.26C52.48 158.17 52.52 158.07 52.55 157.98C52.53 157.76 52.38 157.57 52.4 157.34L52.39 157.32C52.53 157.2 52.68 157.12 52.87 157.15C53.05 157.17 53.15 157.72 53.4 157.22C53.5 157.02 53.69 156.97 53.88 156.92C53.94 156.94 53.99 156.96 54.05 156.98C54.17 156.95 54.28 156.97 54.4 156.96C54.6 156.93 54.8 156.91 54.94 157.09C55.31 157.48 54.88 157.39 54.72 157.45C54.15 157.65 54.19 157.66 54.04 158.23C53.98 158.46 53.59 158.55 53.54 158.86C53.35 158.97 53.17 158.73 52.98 158.84V158.83C52.1 159.32 52.51 158.57 52.45 158.26ZM57.04 154.86C56.86 155.17 56.97 155.47 57.07 155.77C56.91 155.83 56.84 155.97 56.79 156.12C56.82 156.25 56.79 156.36 56.67 156.44C56.24 156.5 55.81 156.22 55.37 156.4C55.3 156.56 55.33 156.8 55.04 156.77C54.71 156.44 54.82 156.16 55.14 155.9C55.33 155.73 55.9 155.74 55.37 155.26C55.14 155.05 55.46 154.88 55.59 154.71C55.92 154.69 56.24 155.38 56.59 154.73C56.66 154.59 56.77 154.53 56.93 154.59C57.08 154.65 57.09 154.75 57.04 154.86V154.86Z" fill="#E18CB7"/>
<path d="M55.38 156.4C55.82 155.88 56.25 156.15 56.68 156.43C56.7 156.46 56.72 156.49 56.74 156.53C56.77 156.7 56.99 156.83 56.82 157.03C56.75 157.07 56.68 157.1 56.6 157.14C56.13 156.99 55.67 156.83 55.38 156.4ZM54.79 159.12C54.62 159.25 54.46 159.38 54.29 159.51C53.78 159.8 54 159.09 53.7 159.08C53.62 159.04 53.6 158.99 53.67 158.92C53.97 158.81 54.27 158.71 54.58 158.6C54.82 158.71 54.92 158.87 54.79 159.12V159.12ZM55.16 155.9C55.06 156.18 54.97 156.46 55.06 156.77C54.85 156.83 54.97 156.99 54.96 157.11C54.71 157 54.53 157.23 54.3 157.22C54.18 156.88 54.27 156.58 54.45 156.29C54.52 156.13 54.64 156.02 54.79 155.94C54.89 155.84 55.02 155.85 55.16 155.9V155.9ZM57.15 157.76C57.03 157.71 56.9 157.66 56.78 157.62C56.74 157.54 56.7 157.45 56.65 157.37C56.98 157.17 57.12 157.51 57.33 157.62C57.27 157.66 57.21 157.71 57.15 157.76ZM59.23 155.49C59.34 155.18 59.5 155.29 59.66 155.45C59.72 155.92 59.67 156.34 59.16 156.56C58.78 156.2 57.96 156.65 57.84 155.84L58.23 155.69C58.34 155.67 58.45 155.65 58.56 155.62C58.68 155.52 58.61 156.03 58.81 155.7C58.9 155.55 59.07 155.53 59.23 155.49V155.49ZM60.19 155.04C60.4 154.93 60.61 154.96 60.81 155.08C60.74 155.19 60.66 155.3 60.59 155.41L60.54 155.48L60.52 155.56H60.53C60.27 155.48 60.3 155.22 60.19 155.04V155.04ZM60.52 155.56C60.7 155.83 60.51 155.91 60.3 155.97C60.26 155.98 60.14 155.88 60.14 155.83C60.16 155.6 60.42 155.69 60.53 155.56H60.52V155.56ZM95.86 89.1C95.8116 89.0789 95.7614 89.0622 95.71 89.05C95.59 89.09 95.49 89.08 95.4 88.98V88.92C95.59 88.83 95.19 88.22 95.79 88.48C95.81 88.68 95.83 88.89 95.86 89.1V89.1ZM65.23 154.43L64.9 154.34C64.84 154.32 64.79 154.29 64.73 154.27C64.77 154.17 64.81 154.06 64.85 153.96C64.94 153.81 65.06 153.78 65.21 153.87C65.39 154.04 65.3 154.23 65.23 154.43ZM58.23 156.75C58.15 157.03 58.04 157.28 57.67 157.19C57.47 157.09 57.18 157.22 57.04 156.96C57.01 156.81 57.09 156.73 57.2 156.67C57.24 156.66 57.28 156.66 57.32 156.65C57.38 156.67 57.45 156.7 57.51 156.72C57.69 156.62 57.87 156.67 58.05 156.73C58.11 156.74 58.17 156.75 58.23 156.75V156.75ZM63.27 154.87C63.34 154.96 63.41 155.04 63.48 155.13C63.54 155.17 63.59 155.21 63.65 155.25C63.61 155.41 63.51 155.49 63.34 155.47C63.24 155.42 63.13 155.38 63.03 155.33C62.88 155.41 62.73 155.49 62.59 155.57C62.46 155.37 62.53 155.19 62.61 155C62.83 154.96 63.05 154.91 63.27 154.87V154.87Z" fill="#E18CB7"/>
<path d="M63.34 155.47L63.65 155.25C63.8 155.4 63.77 155.56 63.62 155.65C63.46 155.75 63.38 155.61 63.34 155.47ZM52.5 159.22C52.6 159.38 52.7 159.54 52.92 159.55C52.81 159.69 52.67 159.82 52.51 159.73C52.27 159.59 52.46 159.39 52.5 159.22V159.22ZM56.7 156.42C56.84 156.68 57.12 156.58 57.33 156.66C57.23 156.76 57.13 156.86 57.04 156.96C56.97 156.98 56.89 157 56.82 157.03C56.84 156.81 56.24 156.72 56.7 156.42V156.42ZM51.18 158.69C51.35 158.54 51.45 158.09 51.71 158.29C52.1 158.59 51.6 158.72 51.46 158.91C51.37 158.83 51.27 158.76 51.18 158.69ZM54.58 156.49C54.45 156.46 54.26 156.47 54.2 156.39C54.06 156.19 54.35 156.14 54.39 155.99C54.42 155.83 54.48 155.76 54.63 155.89C54.68 155.91 54.73 155.92 54.77 155.93C54.71 156.12 54.64 156.3 54.58 156.49ZM53.92 155.65C53.86 155.1 54.43 155.35 54.61 155.11C54.7 155.25 54.6 155.37 54.56 155.5C54.4 155.77 54.19 155.84 53.92 155.65ZM65.01 153.58C64.81 153.58 64.62 153.58 64.42 153.59C64.44 153.31 64.54 153.08 64.83 152.99C64.99 153.05 65.15 153.11 65.31 153.16L65.01 153.58V153.58ZM95.4 88.98C95.5 89 95.6 89.02 95.71 89.05C95.6 89.36 95.39 89.45 95.08 89.35C95.19 89.23 95.3 89.1 95.4 88.98V88.98Z" fill="#E18CB7"/>
<path d="M132.78 149.45C134.27 140.84 138.58 133.02 142.36 125.14C146.14 117.26 155.08 109.6 154.45 100.89C153.56 88.4901 144.68 76.7601 147.51 64.6501C148.24 61.5301 148.86 56.9001 145.7 56.3501C139.72 60.6901 135.86 67.8201 135.48 75.1901C135.25 79.6901 136.24 84.1701 136.32 88.6801C136.39 93.1901 135.33 98.0701 131.88 100.98C129.43 103.05 125.75 104.26 125.03 107.39M98.88 146.72C93.74 139.11 91.11 127.9 94.66 119.95C101.08 105.59 102.83 103.57 100.23 77.9301C99.34 69.1901 94.42 59.6801 95.93 51.0201C96.19 49.5201 97.21 47.7901 98.52 47.0101C99.83 46.2301 101.69 47.3201 102.55 49.1601" stroke="black" stroke-width="1.5" stroke-miterlimit="10" stroke-linecap="round" stroke-linejoin="round"/>
<path d="M109.81 86.7199C109.35 60.9999 102.05 55.4699 101.97 39.9599C101.96 37.3599 102.03 34.4399 103.88 32.6099C107.22 29.3199 111.66 33.9699 112.03 39.1599" stroke="black" stroke-width="1.5" stroke-miterlimit="10" stroke-linecap="round" stroke-linejoin="round"/>
<path d="M119.09 84.3299C124.42 65.1299 108.22 46.0199 112.11 26.4799C112.39 25.0699 113.21 21.9799 115.13 20.6899C116.18 19.9899 120.17 20.0599 121.08 22.7799C121.89 25.1999 121.66 28.1399 121.51 30.6899" stroke="black" stroke-width="1.5" stroke-miterlimit="10" stroke-linecap="round" stroke-linejoin="round"/>
<path d="M129.36 80.2299C129.27 71.3899 128.26 59.6899 125.8 51.1899C123.22 42.2599 119.14 33.0899 122.91 28.2399C123.4 27.6099 125.36 25.0899 127.25 26.5599C130.21 28.8599 130.62 32.0299 131.61 35.6399C133.88 43.9699 139.15 51.5099 141.42 59.8399M31.16 54.1299C38.85 47.1399 47.49 40.4899 57.7 38.5699C67.91 36.6499 79.96 40.8999 83.88 50.5199C84.5 52.0399 84.91 53.7199 84.6 55.3299C84.32 56.7899 83.48 58.0799 82.62 59.2899C77.16 66.9899 69.68 75.3099 71.97 84.4799C73.77 91.6999 81.32 96.5799 82.57 103.92C83.29 108.13 81.77 112.36 80.28 116.37C77.89 122.8 74.62 130.07 68.01 131.88C61.14 133.76 54.34 128.67 49.83 123.16C48.38 121.38 46.95 119.27 47.25 117C47.77 113.03 52.7 111.7 55.96 109.37C59.61 106.76 61.52 101.82 60.29 97.4999C59.06 93.1799 54.59 89.9399 50.13 90.3899C45.66 90.8399 41.86 95.1599 42.24 99.6299" stroke="black" stroke-width="1.5" stroke-miterlimit="10" stroke-linecap="round" stroke-linejoin="round"/>
<defs>
<linearGradient id="paint0_linear_1230_3669" x1="14" y1="-18.5" x2="100" y2="180" gradientUnits="userSpaceOnUse">
<stop offset="0.234375" stop-color="#FF81F2"/>
<stop offset="1" stop-color="#FF01B0"/>
</linearGradient>
</defs>
</svg>
