<svg width="178" height="126" viewBox="0 0 178 126" fill="none" xmlns="http://www.w3.org/2000/svg">
<path d="M132.89 80.09C127.51 77.62 120.29 81.35 119.18 87.16M164.38 70.23C154.201 58.3606 143.849 46.6394 133.33 35.07C126.38 27.43 119.29 19.79 110.84 13.85C106.79 11 102.15 8.48004 97.21 8.73004C92.27 8.98004 87.25 13 87.58 17.94M86.01 107.66C75.8305 95.7906 65.4794 84.0694 54.96 72.5C48.01 64.86 40.92 57.22 32.47 51.28C28.42 48.43 23.78 45.91 18.84 46.16C13.9 46.41 8.88001 50.43 9.21001 55.37" stroke="black" stroke-width="1.5" stroke-miterlimit="10" stroke-linecap="round" stroke-linejoin="round"/>
<path d="M108.89 113.59C108.96 113.59 108.99 113.61 109.04 113.57C109.1 113.52 109.19 113.5 109.24 113.43C109.25 113.42 109.26 113.41 109.27 113.41C109.37 113.44 109.42 113.36 109.49 113.31C109.52 113.29 109.56 113.29 109.59 113.27C109.62 113.26 109.65 113.24 109.66 113.22C109.68 113.15 109.73 113.13 109.78 113.13C109.85 113.13 109.89 113.1 109.94 113.06C110 113.02 110.06 112.97 110.13 112.94C110.19 112.91 110.23 112.84 110.29 112.81C110.33 112.79 110.37 112.76 110.41 112.75C110.47 112.74 110.52 112.68 110.56 112.63C110.61 112.56 110.66 112.53 110.74 112.53C110.76 112.53 110.8 112.5 110.81 112.48C110.82 112.42 110.87 112.41 110.91 112.39C110.98 112.37 111.03 112.32 111.1 112.25C111.13 112.22 111.18 112.19 111.22 112.17C111.27 112.14 111.33 112.12 111.38 112.09C111.4 112.08 111.42 112.06 111.42 112.04C111.44 111.97 111.48 111.93 111.53 111.9C111.62 111.85 111.7 111.77 111.82 111.76C111.9 111.75 111.97 111.68 112.01 111.6C112.07 111.49 112.07 111.49 112.19 111.47C112.22 111.43 112.23 111.37 112.27 111.36C112.31 111.34 112.34 111.34 112.37 111.3C112.42 111.25 112.49 111.24 112.51 111.16C112.51 111.15 112.54 111.15 112.56 111.14C112.58 111.13 112.59 111.13 112.61 111.12C112.65 111.08 112.63 110.98 112.73 110.99C112.77 110.94 112.82 110.89 112.86 110.84C112.87 110.83 112.89 110.81 112.9 110.81C112.96 110.82 112.99 110.79 113 110.73C113 110.71 113.02 110.69 113.03 110.69C113.11 110.69 113.14 110.61 113.19 110.58C113.25 110.55 113.23 110.5 113.24 110.46C113.27 110.43 113.32 110.5 113.34 110.42C113.35 110.39 113.42 110.38 113.44 110.35C113.46 110.32 113.46 110.27 113.47 110.22C113.5 110.21 113.54 110.19 113.57 110.18C113.65 110.16 113.68 110.11 113.67 110.03C113.67 110.02 113.68 110.01 113.68 109.99C113.72 109.99 113.76 109.98 113.79 109.98C113.79 109.91 113.87 109.9 113.9 109.85C113.93 109.81 113.96 109.76 114 109.72C114.04 109.68 114.08 109.65 114.13 109.62C114.12 109.53 114.23 109.53 114.26 109.45C114.28 109.38 114.33 109.32 114.37 109.26C114.39 109.23 114.4 109.2 114.43 109.19C114.49 109.16 114.52 109.11 114.54 109.05C114.56 108.99 114.61 108.97 114.67 108.97C114.7 108.91 114.68 108.83 114.77 108.81C114.81 108.8 114.83 108.74 114.85 108.69C114.88 108.62 114.91 108.54 114.97 108.49C115.09 108.38 115.1 108.37 115.13 108.29C115.18 108.12 115.15 108.13 115.35 108.07C115.37 108.03 115.33 107.97 115.4 107.95C115.41 107.95 115.42 107.92 115.41 107.91C115.4 107.86 115.41 107.82 115.46 107.82C115.53 107.81 115.55 107.77 115.55 107.7C115.55 107.58 115.55 107.58 115.67 107.56C115.65 107.48 115.66 107.4 115.76 107.37C115.81 107.36 115.83 107.31 115.81 107.27C115.79 107.21 115.8 107.16 115.84 107.1C115.88 107.05 115.93 107.04 115.98 107.02C115.99 106.9 115.99 106.77 116.14 106.73C116.13 106.67 116.12 106.62 116.12 106.57C116.17 106.55 116.21 106.53 116.26 106.5C116.23 106.39 116.26 106.29 116.32 106.2C116.37 106.1 116.41 106 116.46 105.91C116.5 105.83 116.52 105.74 116.55 105.65C116.58 105.58 116.6 105.53 116.68 105.52C116.68 105.48 116.68 105.46 116.67 105.43C116.659 105.402 116.654 105.372 116.658 105.342C116.661 105.313 116.672 105.284 116.69 105.26C116.729 105.207 116.763 105.15 116.79 105.09C116.8 105.07 116.81 105.06 116.81 105.04C116.83 104.86 116.92 104.7 116.96 104.52C116.96 104.5 116.97 104.47 116.98 104.45C117.03 104.36 117.03 104.36 117 104.27C117.08 104.22 117.11 104.14 117.1 104.04C117.09 103.96 117.11 103.9 117.15 103.84C117.2 103.76 117.25 103.66 117.2 103.55C117.19 103.52 117.2 103.46 117.21 103.43C117.29 103.26 117.31 103.14 117.28 102.98C117.268 102.94 117.272 102.897 117.29 102.86C117.31 102.81 117.33 102.76 117.33 102.7C117.33 102.62 117.37 102.54 117.38 102.46C117.39 102.38 117.41 102.31 117.43 102.23C117.44 102.17 117.44 102.12 117.42 102.07C117.392 101.99 117.388 101.902 117.41 101.82C117.43 101.71 117.43 101.6 117.44 101.49C117.44 101.41 117.45 101.33 117.45 101.25C117.45 101.15 117.49 101.09 117.57 101.04C117.59 101.03 117.6 101.02 117.62 101C117.57 100.84 117.67 100.71 117.71 100.57C117.72 100.53 117.78 100.5 117.83 100.46C117.82 100.4 117.83 100.35 117.9 100.3C117.98 100.25 118.02 100.16 118 100.06C117.98 99.98 118 99.93 118.08 99.9C118.101 99.8887 118.119 99.8713 118.13 99.85C118.18 99.72 118.21 99.58 118.23 99.42C118.27 99.4 118.32 99.39 118.34 99.33C118.36 99.21 118.41 99.09 118.46 98.97C118.49 98.9 118.51 98.82 118.48 98.74C118.45 98.65 118.48 98.59 118.57 98.55C118.65 98.52 118.67 98.45 118.67 98.37C118.67 98.35 118.66 98.32 118.66 98.3C118.67 98.25 118.66 98.19 118.69 98.16C118.78 98.07 118.76 97.96 118.76 97.85C118.76 97.76 118.77 97.67 118.85 97.6C118.9 97.56 118.92 97.51 118.9 97.45C118.86 97.36 118.9 97.29 118.94 97.23C118.98 97.16 119 97.1 118.99 97.02C118.98 96.95 118.99 96.89 119.02 96.82C119.04 96.79 119.05 96.75 119.05 96.72C119.07 96.62 119.08 96.53 119.13 96.44C119.14 96.43 119.14 96.41 119.14 96.39C119.15 96.08 119.16 96.04 119.25 95.83C119.21 95.69 119.2 95.56 119.33 95.44C119.29 95.29 119.31 95.13 119.31 94.97C119.33 94.95 119.36 94.93 119.39 94.91C119.31 94.71 119.32 94.65 119.44 94.55C119.41 94.42 119.35 94.28 119.39 94.13C119.41 94.11 119.44 94.1 119.46 94.08C119.45 93.96 119.45 93.84 119.44 93.73C119.43 93.6771 119.43 93.6228 119.44 93.57C119.44 93.53 119.45 93.5 119.44 93.46C119.43 93.42 119.43 93.36 119.45 93.34C119.53 93.28 119.51 93.2 119.5 93.13C119.49 93.02 119.48 92.91 119.45 92.81C119.42 92.71 119.42 92.61 119.41 92.5C119.41 92.46 119.41 92.41 119.43 92.38C119.5 92.29 119.48 92.21 119.43 92.13C119.41 92.09 119.39 92.04 119.37 92C119.44 91.86 119.46 91.71 119.38 91.57C119.35 91.52 119.34 91.47 119.31 91.41C119.33 91.38 119.35 91.35 119.36 91.32C119.37 91.29 119.36 91.26 119.35 91.23L119.23 90.83C119.2 90.74 119.18 90.64 119.16 90.55C119.15 90.5208 119.15 90.4891 119.16 90.46C119.24 90.33 119.18 90.22 119.12 90.1C119.05 89.96 118.99 89.81 118.99 89.65C118.98 89.49 118.93 89.34 118.88 89.19C118.83 89.06 118.76 88.94 118.79 88.79C118.79 88.77 118.78 88.75 118.78 88.74C118.7 88.56 118.65 88.37 118.59 88.19C118.53 87.99 118.46 87.8 118.36 87.61C118.342 87.5716 118.329 87.5313 118.32 87.49C118.31 87.46 118.31 87.42 118.29 87.4C118.23 87.33 118.22 87.25 118.19 87.17C118.14 87.02 118.08 86.87 118.03 86.73C118.02 86.71 118.01 86.68 118 86.67C117.9 86.57 117.86 86.43 117.81 86.3C117.76 86.18 117.7 86.06 117.64 85.94C117.61 85.88 117.59 85.8 117.51 85.77C117.49 85.76 117.49 85.73 117.48 85.71C117.452 85.6022 117.405 85.5006 117.34 85.41C117.31 85.37 117.29 85.32 117.27 85.28C117.22 85.2 117.19 85.1 117.1 85.05C117.088 85.0437 117.078 85.0352 117.069 85.0249C117.06 85.0146 117.054 85.0028 117.05 84.99C116.96 84.82 116.83 84.67 116.79 84.47C116.77 84.39 116.72 84.34 116.67 84.29C116.61 84.23 116.57 84.18 116.52 84.11C116.431 83.9692 116.327 83.8384 116.21 83.72C116.11 83.62 116.03 83.49 115.95 83.37C115.9 83.3 115.85 83.24 115.8 83.17C115.69 83.05 115.54 82.96 115.49 82.79C115.41 82.73 115.36 82.63 115.29 82.55C115.24 82.49 115.18 82.43 115.14 82.37C115.07 82.25 114.97 82.15 114.88 82.04C114.86 82.02 114.84 81.99 114.82 81.97C114.66 81.89 114.58 81.73 114.43 81.65C114.41 81.64 114.4 81.62 114.39 81.61C114.26 81.43 114.15 81.32 113.95 81.17C113.82 81.07 113.7 80.94 113.57 80.83C113.56 80.82 113.54 80.81 113.53 80.79C113.43 80.6 113.26 80.48 113.09 80.36C113.02 80.32 112.97 80.26 112.91 80.21C112.73 80.06 112.53 79.95 112.34 79.82C112.24 79.7634 112.152 79.6888 112.08 79.6C112.04 79.55 111.96 79.52 111.9 79.49C111.82 79.44 111.73 79.39 111.66 79.33C111.46 79.15 111.22 79.03 110.99 78.89C110.82 78.79 110.65 78.67 110.46 78.6C110.44 78.59 110.43 78.58 110.42 78.57C110.33 78.46 110.19 78.41 110.07 78.35C109.98 78.31 109.89 78.27 109.81 78.22C109.58 78.1 109.35 77.97 109.12 77.85C108.91 77.74 108.69 77.67 108.48 77.57C108.33 77.5 108.18 77.43 108.04 77.35C108.02 77.34 108 77.33 107.97 77.32C107.83 77.27 107.68 77.23 107.54 77.18C107.43 77.14 107.33 77.09 107.22 77.05C107.16 77.02 107.1 77 107.04 76.97C107.02 76.96 107 76.95 107 76.94C106.96 76.82 106.85 76.82 106.76 76.8C106.65 76.78 106.55 76.77 106.46 76.7C106.45 76.69 106.43 76.68 106.43 76.69C106.34 76.75 106.27 76.65 106.19 76.67C106.16 76.68 106.11 76.67 106.08 76.65C105.95 76.57 105.79 76.56 105.65 76.51C105.59 76.49 105.53 76.49 105.47 76.47C105.42 76.46 105.37 76.45 105.33 76.44C105.03 76.36 104.73 76.27 104.43 76.2C104.19 76.14 103.94 76.11 103.7 76.06C103.68 76.06 103.66 76.06 103.65 76.05C103.439 75.973 103.215 75.9358 102.99 75.94H102.95C102.78 75.87 102.6 75.89 102.43 75.88C102.27 75.86 102.11 75.88 101.97 75.79C101.948 75.7743 101.921 75.7667 101.893 75.7686C101.866 75.7704 101.84 75.7815 101.82 75.8C101.8 75.82 101.75 75.82 101.72 75.82L101.41 75.79C101.31 75.78 101.22 75.76 101.12 75.78H101.07C100.99 75.79 100.93 75.68 100.83 75.74C100.77 75.78 100.68 75.75 100.6 75.72C100.59 75.71 100.56 75.72 100.55 75.73C100.5 75.79 100.44 75.77 100.38 75.77C100.25 75.77 100.12 75.77 100 75.73C99.95 75.72 99.9 75.71 99.87 75.76C99.86 75.77 99.83 75.78 99.81 75.78C99.62 75.77 99.42 75.76 99.23 75.79C99.11 75.81 98.99 75.79 98.87 75.81C98.76 75.83 98.64 75.81 98.53 75.87C98.51 75.88 98.49 75.89 98.48 75.88C98.38 75.85 98.28 75.89 98.17 75.9C98.1 75.9 98.04 75.92 97.97 75.93L97.61 75.99C97.53 76.01 97.45 76.03 97.36 76.05C97.29 76.07 97.22 76.1 97.15 76.1C97.0476 76.0953 96.9454 76.1124 96.85 76.15C96.57 76.23 96.29 76.3 96 76.38C95.77 76.44 95.54 76.49 95.32 76.59C95.12 76.67 94.91 76.7 94.72 76.79C94.63 76.83 94.53 76.86 94.44 76.91C94.35 76.96 94.24 76.97 94.15 77.01C94.08 77.04 94.01 77.05 93.95 77.11C93.87 77.18 93.78 77.18 93.64 77.16C93.62 77.18 93.61 77.21 93.58 77.24H93.46C93.45 77.25 93.43 77.26 93.43 77.27C93.36 77.43 93.2 77.45 93.06 77.5C92.99 77.48 92.93 77.48 92.89 77.56C92.89 77.57 92.87 77.58 92.86 77.58C92.72 77.6 92.61 77.7 92.48 77.74C92.46 77.74 92.45 77.76 92.43 77.76C92.36 77.77 92.38 77.88 92.3 77.87C92.23 77.86 92.19 77.91 92.14 77.94C92.11 77.96 92.07 77.98 92.03 78.01C92 78.03 91.97 78.05 91.95 78.08C91.87 78.19 91.77 78.23 91.63 78.23C91.61 78.26 91.59 78.3 91.56 78.34C91.53 78.34 91.49 78.33 91.46 78.34C91.4229 78.3574 91.3891 78.3811 91.36 78.41C91.32 78.45 91.28 78.5 91.21 78.5C91.19 78.5 91.17 78.54 91.14 78.56C91.11 78.59 91.08 78.63 91.05 78.64C90.97 78.68 90.88 78.72 90.84 78.82C90.82 78.86 90.77 78.88 90.71 78.88C90.68 78.88 90.63 78.89 90.61 78.91C90.57 78.95 90.54 79.01 90.5 79.05C90.46 79.09 90.41 79.1 90.37 79.15C90.3057 79.252 90.206 79.3268 90.09 79.36C90.06 79.37 90.05 79.4 90.02 79.42C89.98 79.45 89.95 79.49 89.91 79.51C89.85 79.53 89.8 79.55 89.79 79.62C89.78 79.68 89.71 79.66 89.66 79.68C89.64 79.72 89.63 79.75 89.61 79.8C89.56 79.8 89.51 79.81 89.46 79.81C89.43 79.91 89.38 79.99 89.26 80.02C89.17 80.04 89.15 80.12 89.14 80.21C89.07 80.24 88.98 80.23 88.97 80.33C88.88 80.43 88.79 80.53 88.69 80.62C88.61 80.69 88.54 80.75 88.47 80.83C88.42 80.9 88.35 80.95 88.29 81.01C88.26 81.04 88.23 81.07 88.21 81.1C88.18 81.15 88.14 81.18 88.08 81.19C88.04 81.19 88 81.21 88 81.25C87.98 81.38 87.89 81.44 87.78 81.5C87.75 81.52 87.72 81.55 87.71 81.58C87.7 81.66 87.64 81.69 87.6 81.74C87.56 81.8 87.5 81.85 87.43 81.87C87.36 81.89 87.31 81.93 87.26 81.98C87.25 81.99 87.22 82.01 87.22 82.02C87.23 82.14 87.11 82.18 87.07 82.28C87.04 82.28 87.01 82.29 86.98 82.29C86.92 82.3 86.87 82.33 86.85 82.4C86.83 82.48 86.77 82.53 86.69 82.55C86.56 82.58 86.55 82.6 86.56 82.76C86.47 82.85 86.39 82.96 86.24 82.96C86.27 83 86.26 83 86.26 83.01C86.26 83.15 86.17 83.24 86.08 83.33C86.04 83.37 86 83.41 85.94 83.4C85.88 83.4 85.86 83.44 85.84 83.48C85.82 83.53 85.81 83.57 85.8 83.62C85.79 83.65 85.77 83.67 85.76 83.7C85.69 83.73 85.62 83.73 85.57 83.8C85.53 83.86 85.5 83.92 85.52 84C85.45 84.05 85.39 84.09 85.33 84.15C85.27 84.2 85.22 84.25 85.21 84.34C85.2 84.43 85.13 84.51 85.09 84.6C85.08 84.61 85.06 84.62 85.04 84.62C84.96 84.66 84.89 84.7 84.92 84.81C84.92 84.83 84.91 84.86 84.9 84.88C84.86 84.94 84.83 84.99 84.79 85.04C84.78 85.06 84.75 85.08 84.73 85.08C84.64 85.09 84.6 85.16 84.61 85.23C84.62 85.32 84.58 85.38 84.54 85.45C84.46 85.58 84.38 85.71 84.31 85.84C84.17 86.08 84.04 86.33 83.9 86.57C83.87 86.62 83.86 86.67 83.81 86.7C83.8 86.7 83.8 86.71 83.8 86.71C83.76 86.9 83.63 87.06 83.55 87.23C83.42 87.55 83.28 87.87 83.13 88.18C83.03 88.4 82.95 88.61 82.88 88.84C82.86 88.91 82.83 88.98 82.8 89.04C82.74 89.15 82.72 89.27 82.69 89.39C82.66 89.51 82.61 89.63 82.57 89.75C82.53 89.86 82.47 89.97 82.47 90.09C82.47 90.15 82.44 90.21 82.42 90.26C82.37 90.4 82.36 90.56 82.28 90.69C82.27 90.7 82.27 90.73 82.27 90.74C82.29 90.83 82.26 90.91 82.23 90.99C82.2 91.1 82.16 91.21 82.15 91.33C82.15 91.38 82.12 91.43 82.09 91.48C82.03 91.58 81.99 91.67 82.01 91.79C82.01 91.82 81.99 91.85 81.99 91.87C81.98 91.94 81.96 92.01 81.97 92.07C81.99 92.18 81.96 92.28 81.95 92.38C81.95 92.4 81.93 92.43 81.93 92.45C81.93 92.55 81.94 92.65 81.92 92.74C81.9 92.83 81.87 92.91 81.87 93.01C81.85 93.18 81.82 93.36 81.8 93.53V93.64L81.77 93.8C81.74 93.93 81.69 94.05 81.76 94.19C81.78 94.23 81.76 94.28 81.76 94.33C81.76 94.38 81.74 94.43 81.75 94.47C81.78 94.66 81.78 94.85 81.72 95.04C81.7 95.11 81.7 95.2 81.73 95.25C81.77 95.33 81.78 95.4 81.77 95.48C81.77 95.71 81.8 95.94 81.77 96.17C81.75 96.3 81.77 96.44 81.77 96.57C81.77 96.64 81.77 96.71 81.74 96.78C81.73 96.81 81.73 96.85 81.73 96.89C81.73 97.15 81.71 97.41 81.69 97.67C81.68 97.79 81.65 97.92 81.69 98.05V98.09C81.7 98.19 81.64 98.28 81.67 98.39C81.7 98.48 81.66 98.59 81.67 98.7C81.68 98.86 81.68 99.02 81.66 99.17C81.69 99.26 81.67 99.35 81.66 99.44C81.65 99.52 81.67 99.61 81.67 99.69C81.68 99.89 81.68 100.09 81.69 100.29C81.69 100.37 81.7 100.45 81.7 100.53C81.7 100.6 81.71 100.67 81.72 100.74C81.74 100.91 81.75 101.08 81.75 101.24C81.75 101.33 81.75 101.41 81.78 101.49C81.8 101.55 81.81 101.62 81.82 101.68C81.84 101.85 81.83 102.03 81.87 102.21C81.88 102.24 81.86 102.27 81.86 102.3C81.86 102.39 81.85 102.48 81.92 102.56C81.95 102.59 81.96 102.64 81.94 102.68C81.91 102.76 81.93 102.83 81.96 102.89C82 102.97 82 103.04 82 103.12C82 103.19 82.01 103.27 82.02 103.34C82.06 103.52 82.11 103.69 82.14 103.87C82.18 104.04 82.19 104.22 82.24 104.39C82.27 104.51 82.31 104.63 82.34 104.76C82.4 105.03 82.48 105.3 82.58 105.56C82.59 105.59 82.61 105.63 82.61 105.67C82.6 105.74 82.64 105.8 82.66 105.86C82.69 105.95 82.74 106.05 82.74 106.15C82.74 106.17 82.74 106.19 82.76 106.2C82.83 106.26 82.84 106.34 82.86 106.43C82.88 106.49 82.89 106.56 82.92 106.62C83.02 106.82 83.09 107.02 83.14 107.24C83.16 107.32 83.17 107.41 83.25 107.46C83.27 107.47 83.28 107.51 83.29 107.54C83.38 107.77 83.48 107.99 83.59 108.21C83.65 108.33 83.69 108.46 83.75 108.57C83.76 108.58 83.76 108.59 83.76 108.61C83.74 108.73 83.82 108.81 83.87 108.91C83.94 109.04 84 109.17 84.07 109.3C84.09 109.33 84.1 109.37 84.13 109.39C84.24 109.52 84.32 109.67 84.4 109.82C84.42 109.86 84.45 109.91 84.48 109.94C84.57 110.03 84.66 110.12 84.69 110.25C84.69 110.26 84.7 110.26 84.7 110.27C84.81 110.35 84.85 110.47 84.9 110.59C84.93 110.64 84.97 110.69 85.01 110.73C85.1 110.81 85.17 110.91 85.23 111.02C85.26 111.08 85.3 111.13 85.36 111.17C85.43 111.23 85.49 111.31 85.54 111.39C85.61 111.51 85.7 111.63 85.81 111.73C85.91 111.83 86 111.94 86.09 112.04C86.25 112.22 86.41 112.4 86.57 112.59C86.61 112.63 86.64 112.68 86.67 112.72C86.7 112.77 86.74 112.79 86.8 112.8C86.91 112.82 86.99 112.91 87.06 113C87.14 113.11 87.24 113.2 87.35 113.27C87.42 113.32 87.52 113.35 87.56 113.44C87.77 113.63 87.99 113.8 88.22 113.95C88.4 114.07 88.57 114.2 88.73 114.33C88.76 114.36 88.79 114.37 88.84 114.39C88.93 114.42 89.01 114.46 89.06 114.55C89.1 114.62 89.15 114.64 89.22 114.64C89.28 114.64 89.34 114.67 89.39 114.7C89.56 114.81 89.75 114.9 89.93 115C90.02 115.05 90.1 115.12 90.18 115.18C90.24 115.22 90.29 115.29 90.37 115.23C90.38 115.22 90.42 115.24 90.44 115.25C90.59 115.32 90.76 115.38 90.87 115.53C90.9 115.52 90.93 115.51 90.95 115.5C90.99 115.5 91.03 115.49 91.06 115.51C91.13 115.57 91.21 115.58 91.29 115.6C91.37 115.62 91.44 115.67 91.52 115.71C91.53 115.72 91.54 115.72 91.55 115.72C91.66 115.72 91.73 115.78 91.81 115.85C91.88 115.85 91.95 115.83 92.02 115.87C92.09 115.9 92.17 115.91 92.25 115.93C92.33 115.95 92.4 115.97 92.47 116.02C92.59 116.1 92.72 116.14 92.88 116.1C92.91 116.13 92.94 116.15 92.97 116.18C93.01 116.21 93.04 116.22 93.08 116.19C93.09 116.18 93.12 116.17 93.13 116.17C93.2 116.22 93.3 116.17 93.36 116.26C93.38 116.3 93.45 116.31 93.5 116.28C93.57 116.24 93.63 116.27 93.69 116.31C93.78 116.36 93.87 116.39 93.97 116.4C93.99 116.4 94.02 116.41 94.04 116.4C94.2 116.34 94.34 116.4 94.47 116.47C94.51 116.49 94.55 116.5 94.59 116.48C94.7 116.43 94.82 116.46 94.93 116.48C94.98 116.49 95.02 116.51 95.07 116.52C95.14 116.53 95.2 116.56 95.27 116.55C95.37 116.54 95.46 116.52 95.55 116.58C95.57 116.59 95.61 116.59 95.64 116.58C95.71 116.55 95.77 116.57 95.84 116.57C95.96 116.58 96.08 116.58 96.2 116.59C96.3 116.6 96.39 116.61 96.49 116.61H96.83C96.88 116.61 96.94 116.61 96.99 116.63C97.04 116.66 97.09 116.59 97.13 116.62C97.19 116.66 97.24 116.65 97.3 116.62C97.34 116.6 97.38 116.6 97.42 116.6C97.6 116.6 97.77 116.58 97.94 116.59C98.06 116.59 98.18 116.58 98.3 116.57C98.3904 116.557 98.4826 116.563 98.57 116.59C98.65 116.62 98.73 116.62 98.81 116.56C98.88 116.5 98.96 116.49 99.04 116.56C99.08 116.6 99.14 116.6 99.18 116.56C99.3 116.45 99.44 116.5 99.56 116.51C99.67 116.52 99.76 116.54 99.85 116.45C99.86 116.44 99.88 116.43 99.9 116.43C100.05 116.42 100.19 116.37 100.34 116.4C100.44 116.42 100.53 116.43 100.61 116.35C100.63 116.33 100.68 116.33 100.71 116.32C100.87 116.3 101.03 116.27 101.2 116.26C101.25 116.26 101.29 116.26 101.33 116.23C101.38 116.18 101.45 116.21 101.51 116.21C101.59 116.21 101.67 116.24 101.73 116.17C101.89 116.16 102.05 116.07 102.21 116.1C102.23 116.1 102.25 116.11 102.26 116.1C102.4 116.04 102.54 116.04 102.68 115.99C102.73 115.97 102.78 115.95 102.84 115.95C102.91 115.95 103.05 115.89 103.14 115.85C103.2 115.83 103.27 115.83 103.33 115.82C103.44 115.81 103.56 115.8 103.65 115.73C103.66 115.72 103.69 115.71 103.7 115.71C103.76 115.74 103.81 115.7 103.86 115.68C103.97 115.64 104.09 115.62 104.21 115.59C104.33 115.56 104.43 115.49 104.55 115.47C104.69 115.45 104.8 115.37 104.92 115.33C104.98 115.31 105.03 115.28 105.09 115.29C105.12 115.29 105.16 115.28 105.19 115.26C105.26 115.21 105.33 115.18 105.41 115.19C105.46 115.19 105.5 115.18 105.53 115.15C105.58 115.1 105.64 115.09 105.71 115.07C105.76 115.06 105.84 115.07 105.86 114.99C105.86 114.98 105.92 114.98 105.94 114.98C105.98 114.99 106.02 115 106.05 114.97C106.11 114.92 106.18 114.9 106.26 114.89C106.32 114.88 106.38 114.83 106.43 114.8C106.49 114.76 106.55 114.72 106.63 114.72C106.68 114.72 106.73 114.68 106.77 114.65C106.84 114.61 106.89 114.54 106.98 114.57C107.03 114.53 107.07 114.52 107.14 114.52C107.19 114.52 107.25 114.47 107.3 114.44C107.35 114.42 107.38 114.39 107.42 114.35C107.44 114.33 107.47 114.32 107.5 114.32C107.53 114.32 107.56 114.32 107.58 114.29C107.6 114.26 107.62 114.25 107.66 114.26C107.68 114.26 107.72 114.26 107.73 114.25C107.77 114.18 107.85 114.17 107.91 114.15C107.98 114.13 108.04 114.09 108.11 114.07C108.17 114.05 108.23 114.04 108.25 113.97C108.26 113.93 108.3 113.92 108.34 113.93C108.4 113.95 108.44 113.92 108.48 113.87C108.53 113.81 108.58 113.78 108.66 113.78C108.74 113.79 108.84 113.73 108.89 113.59V113.59Z" fill="url(#paint0_linear_1230_3689)"/>
<path d="M113.45 100.06C113.21 97.6399 112.31 95.2999 110.88 93.3399C110.28 92.5199 109.54 91.7299 108.57 91.4099C107.6 91.0899 106.37 91.3799 105.9 92.2899C105.6 92.8599 105.66 93.5399 105.64 94.1899C105.607 95.434 105.274 96.6518 104.67 97.7399C104.35 98.3099 103.94 98.8699 103.36 99.1699C102.2 99.7599 100.76 99.1399 99.83 98.2399C98.9 97.3399 98.25 96.1599 97.3 95.2799C96.35 94.3999 94.86 93.8499 93.75 94.5199C92.8 95.0899 92.48 96.3099 92.45 97.4099C92.42 98.5099 92.61 99.6399 92.32 100.71C92.04 101.78 91.06 102.79 89.97 102.6" stroke="black" stroke-width="1.5" stroke-miterlimit="10" stroke-linecap="round" stroke-linejoin="round"/>
<path d="M159.35 97.7902C159.42 97.7902 159.45 97.8102 159.5 97.7702C159.56 97.7202 159.65 97.7002 159.7 97.6302C159.71 97.6202 159.72 97.6102 159.73 97.6102C159.83 97.6402 159.88 97.5602 159.95 97.5102C159.98 97.4902 160.02 97.4902 160.05 97.4702C160.08 97.4602 160.11 97.4402 160.12 97.4202C160.14 97.3502 160.19 97.3302 160.24 97.3302C160.31 97.3302 160.35 97.3002 160.4 97.2602C160.46 97.2202 160.52 97.1702 160.59 97.1402C160.65 97.1102 160.69 97.0402 160.75 97.0102C160.79 96.9902 160.83 96.9602 160.87 96.9502C160.93 96.9402 160.98 96.8802 161.02 96.8302C161.07 96.7602 161.12 96.7302 161.2 96.7302C161.22 96.7302 161.26 96.7002 161.27 96.6802C161.28 96.6202 161.33 96.6102 161.37 96.5902C161.44 96.5702 161.49 96.5202 161.56 96.4502C161.59 96.4202 161.64 96.3902 161.68 96.3702C161.73 96.3402 161.79 96.3202 161.84 96.2902C161.86 96.2802 161.88 96.2602 161.88 96.2402C161.9 96.1702 161.94 96.1302 161.99 96.1002C162.08 96.0502 162.16 95.9702 162.28 95.9602C162.36 95.9502 162.43 95.8802 162.47 95.8002C162.53 95.6902 162.53 95.6902 162.65 95.6702C162.68 95.6302 162.69 95.5702 162.73 95.5602C162.77 95.5402 162.8 95.5402 162.83 95.5002C162.88 95.4502 162.95 95.4402 162.97 95.3602C162.97 95.3502 163 95.3502 163.02 95.3402C163.04 95.3302 163.05 95.3302 163.07 95.3202C163.11 95.2802 163.09 95.1802 163.19 95.1902C163.23 95.1402 163.28 95.0902 163.32 95.0402C163.33 95.0302 163.35 95.0102 163.36 95.0102C163.42 95.0202 163.45 94.9902 163.46 94.9302C163.46 94.9102 163.48 94.8902 163.49 94.8902C163.57 94.8902 163.6 94.8102 163.65 94.7802C163.71 94.7502 163.69 94.7002 163.7 94.6602C163.73 94.6302 163.78 94.7002 163.8 94.6202C163.81 94.5902 163.88 94.5802 163.9 94.5502C163.92 94.5202 163.92 94.4702 163.93 94.4202C163.96 94.4102 164 94.3902 164.03 94.3802C164.11 94.3602 164.14 94.3102 164.13 94.2302C164.13 94.2202 164.14 94.2102 164.14 94.1902C164.18 94.1902 164.22 94.1802 164.25 94.1802C164.25 94.1102 164.33 94.1002 164.36 94.0502C164.39 94.0102 164.42 93.9602 164.46 93.9202C164.5 93.8802 164.54 93.8502 164.59 93.8202C164.58 93.7302 164.69 93.7302 164.71 93.6502C164.73 93.5802 164.78 93.5202 164.82 93.4602C164.84 93.4302 164.85 93.4002 164.88 93.3902C164.94 93.3602 164.97 93.3102 164.99 93.2502C165.01 93.1902 165.06 93.1702 165.12 93.1702C165.15 93.1102 165.13 93.0302 165.22 93.0102C165.26 93.0002 165.28 92.9402 165.3 92.8902C165.33 92.8202 165.36 92.7402 165.42 92.6902C165.54 92.5702 165.55 92.5702 165.58 92.4902C165.63 92.3202 165.6 92.3302 165.8 92.2702C165.82 92.2302 165.78 92.1702 165.85 92.1502C165.86 92.1502 165.87 92.1202 165.86 92.1102C165.85 92.0602 165.86 92.0202 165.91 92.0202C165.98 92.0102 166 91.9702 166 91.9002C166 91.7802 166 91.7802 166.12 91.7602C166.1 91.6802 166.11 91.6002 166.21 91.5702C166.26 91.5602 166.28 91.5102 166.26 91.4702C166.24 91.4102 166.25 91.3602 166.29 91.3002C166.33 91.2502 166.38 91.2402 166.43 91.2202C166.44 91.1002 166.44 90.9702 166.59 90.9302C166.58 90.8702 166.57 90.8202 166.57 90.7702C166.62 90.7502 166.66 90.7302 166.71 90.7002C166.68 90.5902 166.71 90.4902 166.77 90.4002C166.82 90.3002 166.86 90.2002 166.91 90.1102C166.95 90.0302 166.97 89.9402 167 89.8502C167.03 89.7802 167.05 89.7302 167.13 89.7202C167.13 89.6802 167.13 89.6602 167.12 89.6302C167.108 89.6025 167.104 89.5723 167.108 89.5426C167.111 89.5128 167.122 89.4844 167.14 89.4602C167.179 89.4071 167.213 89.3502 167.24 89.2902C167.25 89.2702 167.26 89.2602 167.26 89.2402C167.28 89.0602 167.37 88.9002 167.4 88.7202C167.4 88.7002 167.41 88.6702 167.42 88.6502C167.47 88.5602 167.47 88.5602 167.44 88.4702C167.52 88.4202 167.55 88.3402 167.54 88.2402C167.53 88.1602 167.55 88.1002 167.59 88.0402C167.64 87.9602 167.69 87.8602 167.64 87.7502C167.63 87.7202 167.64 87.6602 167.65 87.6302C167.73 87.4602 167.75 87.3402 167.72 87.1802C167.708 87.1403 167.712 87.0975 167.73 87.0602C167.75 87.0102 167.77 86.9602 167.77 86.9002C167.77 86.8202 167.81 86.7402 167.82 86.6602C167.83 86.5802 167.85 86.5102 167.87 86.4302C167.88 86.3702 167.88 86.3202 167.86 86.2702C167.832 86.1897 167.828 86.1026 167.85 86.0202C167.87 85.9102 167.87 85.8002 167.88 85.6902C167.88 85.6102 167.89 85.5302 167.89 85.4502C167.89 85.3502 167.93 85.2902 168.01 85.2402C168.03 85.2302 168.04 85.2202 168.06 85.2002C168.01 85.0402 168.11 84.9102 168.15 84.7702C168.16 84.7302 168.22 84.7002 168.27 84.6602C168.26 84.6002 168.27 84.5502 168.34 84.5002C168.42 84.4502 168.46 84.3602 168.44 84.2602C168.42 84.1802 168.44 84.1302 168.52 84.1002C168.541 84.0889 168.559 84.0715 168.57 84.0502C168.62 83.9202 168.65 83.7802 168.67 83.6202C168.71 83.6002 168.76 83.5902 168.78 83.5302C168.8 83.4102 168.85 83.2902 168.9 83.1702C168.93 83.1002 168.95 83.0202 168.92 82.9402C168.89 82.8502 168.92 82.7902 169.01 82.7502C169.09 82.7202 169.11 82.6502 169.11 82.5702C169.11 82.5502 169.1 82.5202 169.1 82.5002C169.11 82.4502 169.1 82.3902 169.13 82.3602C169.22 82.2702 169.2 82.1602 169.2 82.0502C169.2 81.9602 169.21 81.8702 169.29 81.8002C169.34 81.7602 169.36 81.7102 169.33 81.6502C169.29 81.5602 169.33 81.4902 169.37 81.4202C169.41 81.3502 169.43 81.2902 169.42 81.2102C169.41 81.1402 169.42 81.0802 169.45 81.0102C169.47 80.9802 169.48 80.9402 169.48 80.9102C169.5 80.8102 169.51 80.7202 169.56 80.6302C169.57 80.6202 169.57 80.6002 169.57 80.5802C169.58 80.2702 169.59 80.2302 169.68 80.0202C169.64 79.8802 169.63 79.7502 169.76 79.6302C169.72 79.4802 169.74 79.3202 169.74 79.1602C169.76 79.1402 169.79 79.1202 169.82 79.1002C169.74 78.9002 169.75 78.8402 169.87 78.7402C169.84 78.6102 169.78 78.4702 169.81 78.3202C169.83 78.3002 169.86 78.2902 169.88 78.2702C169.87 78.1502 169.87 78.0302 169.86 77.9202C169.85 77.8673 169.85 77.813 169.86 77.7602C169.86 77.7202 169.87 77.6902 169.86 77.6502C169.85 77.6102 169.85 77.5502 169.87 77.5302C169.95 77.4702 169.93 77.3902 169.92 77.3202C169.91 77.2102 169.9 77.1002 169.87 77.0002C169.84 76.9002 169.84 76.8002 169.83 76.6902C169.83 76.6502 169.83 76.6002 169.85 76.5702C169.92 76.4802 169.9 76.4002 169.85 76.3202C169.83 76.2802 169.81 76.2302 169.79 76.1902C169.86 76.0502 169.88 75.9002 169.8 75.7602C169.77 75.7102 169.76 75.6602 169.73 75.6002C169.75 75.5702 169.77 75.5402 169.78 75.5102C169.79 75.4802 169.78 75.4502 169.77 75.4202L169.65 75.0202C169.62 74.9302 169.6 74.8302 169.58 74.7402C169.57 74.711 169.57 74.6793 169.58 74.6502C169.66 74.5202 169.59 74.4102 169.54 74.2902C169.47 74.1502 169.41 74.0002 169.41 73.8402C169.4 73.6802 169.35 73.5302 169.3 73.3802C169.25 73.2502 169.18 73.1302 169.21 72.9802C169.21 72.9602 169.2 72.9402 169.2 72.9302C169.12 72.7502 169.07 72.5602 169.01 72.3802C168.95 72.1802 168.88 71.9902 168.78 71.8002C168.76 71.7602 168.75 71.7202 168.74 71.6802C168.73 71.6502 168.73 71.6102 168.71 71.5902C168.65 71.5202 168.64 71.4402 168.61 71.3602C168.56 71.2102 168.5 71.0602 168.45 70.9202C168.44 70.9002 168.43 70.8702 168.42 70.8602C168.32 70.7602 168.28 70.6202 168.23 70.4902C168.18 70.3702 168.12 70.2502 168.06 70.1302C168.03 70.0702 168.01 69.9902 167.93 69.9602C167.91 69.9502 167.91 69.9202 167.9 69.9002C167.872 69.7925 167.825 69.6908 167.76 69.6002C167.73 69.5602 167.71 69.5102 167.69 69.4702C167.64 69.3902 167.61 69.2902 167.52 69.2402C167.508 69.234 167.498 69.2254 167.489 69.2152C167.48 69.2049 167.474 69.193 167.47 69.1802C167.38 69.0102 167.25 68.8602 167.21 68.6602C167.19 68.5802 167.14 68.5302 167.09 68.4802C167.03 68.4202 166.99 68.3702 166.94 68.3002C166.851 68.1594 166.747 68.0286 166.63 67.9102C166.53 67.8102 166.45 67.6802 166.37 67.5602C166.32 67.4902 166.27 67.4302 166.22 67.3602C166.11 67.2402 165.96 67.1502 165.91 66.9802C165.83 66.9202 165.78 66.8202 165.71 66.7502C165.66 66.6902 165.6 66.6302 165.56 66.5702C165.49 66.4502 165.39 66.3502 165.3 66.2402C165.28 66.2202 165.26 66.1902 165.24 66.1702C165.08 66.0902 165 65.9302 164.85 65.8502C164.83 65.8402 164.82 65.8202 164.81 65.8102C164.68 65.6302 164.57 65.5202 164.37 65.3702C164.24 65.2702 164.12 65.1402 163.99 65.0302C163.98 65.0202 163.96 65.0102 163.95 64.9902C163.85 64.8002 163.68 64.6802 163.51 64.5702C163.44 64.5302 163.39 64.4702 163.33 64.4202C163.15 64.2702 162.95 64.1602 162.76 64.0302C162.66 63.9736 162.572 63.899 162.5 63.8102C162.46 63.7602 162.38 63.7302 162.32 63.7002C162.24 63.6502 162.15 63.6002 162.08 63.5402C161.88 63.3602 161.64 63.2402 161.41 63.1002C161.24 63.0002 161.07 62.8902 160.88 62.8102C160.865 62.8027 160.851 62.7925 160.84 62.7802C160.75 62.6702 160.61 62.6202 160.49 62.5602C160.4 62.5202 160.31 62.4802 160.23 62.4302C160 62.3102 159.77 62.1802 159.54 62.0602C159.33 61.9502 159.11 61.8802 158.9 61.7802C158.75 61.7102 158.6 61.6402 158.46 61.5602C158.437 61.5484 158.414 61.5383 158.39 61.5302C158.25 61.4802 158.1 61.4402 157.96 61.3902C157.85 61.3502 157.75 61.3002 157.64 61.2602C157.58 61.2302 157.52 61.2102 157.46 61.1802C157.44 61.1702 157.42 61.1602 157.42 61.1502C157.38 61.0302 157.27 61.0302 157.18 61.0102C157.07 60.9902 156.97 60.9802 156.88 60.9102C156.87 60.9002 156.85 60.8902 156.85 60.9002C156.76 60.9602 156.69 60.8602 156.61 60.8802C156.58 60.8902 156.53 60.8802 156.5 60.8602C156.37 60.7802 156.21 60.7702 156.07 60.7202C156.01 60.7002 155.95 60.7002 155.89 60.6802C155.84 60.6702 155.79 60.6602 155.75 60.6502C155.45 60.5702 155.15 60.4802 154.85 60.4102C154.61 60.3502 154.36 60.3202 154.12 60.2802C154.1 60.2802 154.08 60.2802 154.07 60.2702C153.859 60.1933 153.635 60.156 153.41 60.1602H153.37C153.2 60.0902 153.02 60.1102 152.85 60.1002C152.69 60.0802 152.53 60.1002 152.39 60.0102C152.368 59.9945 152.341 59.987 152.313 59.9888C152.286 59.9906 152.26 60.0017 152.24 60.0202C152.22 60.0402 152.17 60.0402 152.14 60.0402L151.83 60.0102C151.73 60.0002 151.64 59.9802 151.54 60.0002H151.49C151.41 60.0102 151.35 59.9002 151.25 59.9602C151.19 60.0002 151.1 59.9702 151.02 59.9402C151.01 59.9302 150.98 59.9402 150.97 59.9502C150.92 60.0102 150.86 59.9902 150.8 59.9902C150.67 59.9902 150.54 59.9902 150.42 59.9502C150.37 59.9402 150.32 59.9302 150.29 59.9802C150.28 59.9902 150.25 60.0002 150.23 60.0002C150.04 59.9902 149.84 59.9802 149.65 60.0102C149.53 60.0302 149.41 60.0102 149.29 60.0302C149.18 60.0502 149.06 60.0302 148.95 60.0902C148.93 60.1002 148.91 60.1102 148.9 60.1002C148.8 60.0802 148.7 60.1102 148.59 60.1202C148.52 60.1202 148.46 60.1402 148.39 60.1502L148.03 60.2102C147.95 60.2302 147.87 60.2502 147.78 60.2702C147.71 60.2902 147.64 60.3202 147.57 60.3202C147.468 60.3156 147.365 60.3326 147.27 60.3702C146.99 60.4502 146.71 60.5202 146.42 60.6002C146.19 60.6602 145.96 60.7102 145.74 60.8102C145.54 60.8902 145.33 60.9202 145.14 61.0102C145.05 61.0502 144.95 61.0802 144.86 61.1302C144.77 61.1802 144.66 61.1902 144.57 61.2302C144.5 61.2602 144.43 61.2702 144.37 61.3302C144.29 61.4002 144.2 61.4002 144.06 61.3902C144.04 61.4102 144.03 61.4402 144.01 61.4702H143.89C143.88 61.4802 143.86 61.4902 143.86 61.5002C143.79 61.6602 143.63 61.6802 143.49 61.7302C143.42 61.7102 143.36 61.7102 143.32 61.7902C143.32 61.8002 143.3 61.8102 143.29 61.8102C143.15 61.8302 143.04 61.9302 142.91 61.9702C142.89 61.9702 142.88 61.9902 142.86 61.9902C142.79 62.0002 142.81 62.1102 142.73 62.1002C142.66 62.0902 142.62 62.1402 142.57 62.1702C142.54 62.1902 142.5 62.2102 142.46 62.2402C142.43 62.2602 142.4 62.2802 142.38 62.3102C142.31 62.4202 142.2 62.4602 142.06 62.4602C142.04 62.4902 142.02 62.5302 141.99 62.5702C141.96 62.5702 141.92 62.5602 141.89 62.5702C141.853 62.5876 141.819 62.6113 141.79 62.6402C141.75 62.6802 141.71 62.7302 141.64 62.7302C141.62 62.7302 141.6 62.7702 141.57 62.7902C141.54 62.8202 141.51 62.8602 141.48 62.8702C141.4 62.9202 141.31 62.9502 141.27 63.0502C141.25 63.0902 141.2 63.1102 141.14 63.1102C141.11 63.1102 141.06 63.1202 141.04 63.1402C141 63.1802 140.97 63.2402 140.93 63.2802C140.89 63.3202 140.84 63.3302 140.8 63.3802C140.736 63.4823 140.636 63.557 140.52 63.5902C140.49 63.6002 140.48 63.6302 140.45 63.6502C140.41 63.6802 140.38 63.7202 140.34 63.7402C140.28 63.7602 140.23 63.7802 140.22 63.8502C140.21 63.9102 140.14 63.8902 140.09 63.9102C140.07 63.9502 140.06 63.9802 140.04 64.0302C139.99 64.0302 139.94 64.0402 139.89 64.0402C139.86 64.1402 139.81 64.2202 139.69 64.2502C139.6 64.2702 139.58 64.3502 139.57 64.4402C139.5 64.4702 139.41 64.4602 139.4 64.5602C139.31 64.6602 139.22 64.7602 139.12 64.8502C139.04 64.9202 138.97 64.9802 138.9 65.0602C138.85 65.1302 138.78 65.1802 138.72 65.2402C138.69 65.2702 138.66 65.3002 138.64 65.3302C138.61 65.3802 138.57 65.4102 138.51 65.4202C138.47 65.4202 138.43 65.4402 138.43 65.4802C138.41 65.6102 138.32 65.6702 138.21 65.7302C138.18 65.7502 138.15 65.7802 138.14 65.8102C138.13 65.8902 138.07 65.9202 138.03 65.9802C137.99 66.0402 137.93 66.0902 137.86 66.1102C137.79 66.1302 137.74 66.1702 137.69 66.2202C137.68 66.2302 137.65 66.2502 137.65 66.2602C137.66 66.3802 137.54 66.4202 137.5 66.5202C137.47 66.5202 137.44 66.5302 137.41 66.5302C137.35 66.5402 137.3 66.5702 137.28 66.6402C137.26 66.7202 137.2 66.7702 137.12 66.7902C136.99 66.8202 136.98 66.8402 136.99 67.0002C136.9 67.0902 136.82 67.2002 136.67 67.2002L136.65 67.2202C136.65 67.3602 136.56 67.4502 136.47 67.5402C136.43 67.5802 136.39 67.6202 136.33 67.6102C136.27 67.6102 136.25 67.6502 136.23 67.6902C136.21 67.7402 136.2 67.7802 136.19 67.8302C136.18 67.8602 136.16 67.8802 136.15 67.9102C136.08 67.9402 136.01 67.9402 135.96 68.0102C135.92 68.0702 135.89 68.1302 135.91 68.2102C135.84 68.2602 135.78 68.3002 135.72 68.3602C135.66 68.4102 135.61 68.4602 135.6 68.5502C135.59 68.6402 135.52 68.7202 135.48 68.8102C135.47 68.8202 135.45 68.8302 135.43 68.8302C135.35 68.8702 135.28 68.9102 135.31 69.0202C135.31 69.0402 135.3 69.0702 135.29 69.0902C135.25 69.1502 135.22 69.2002 135.18 69.2502C135.17 69.2702 135.14 69.2902 135.12 69.2902C135.03 69.3002 134.99 69.3702 135 69.4402C135.01 69.5302 134.97 69.5902 134.93 69.6602C134.85 69.7902 134.77 69.9202 134.7 70.0502C134.56 70.2902 134.43 70.5402 134.29 70.7802C134.26 70.8302 134.25 70.8802 134.2 70.9102C134.19 70.9102 134.19 70.9202 134.19 70.9202C134.15 71.1102 134.02 71.2702 133.95 71.4402C133.82 71.7602 133.68 72.0802 133.54 72.3902C133.44 72.6102 133.36 72.8202 133.29 73.0502C133.27 73.1202 133.24 73.1902 133.21 73.2502C133.15 73.3602 133.13 73.4802 133.1 73.6002C133.07 73.7202 133.02 73.8402 132.98 73.9602C132.94 74.0702 132.88 74.1802 132.88 74.3002C132.88 74.3602 132.85 74.4202 132.83 74.4702C132.78 74.6102 132.77 74.7702 132.69 74.9002C132.68 74.9102 132.68 74.9402 132.68 74.9502C132.7 75.0402 132.67 75.1202 132.64 75.2002C132.61 75.3102 132.57 75.4202 132.57 75.5402C132.57 75.5902 132.54 75.6402 132.51 75.6902C132.45 75.7902 132.41 75.8802 132.43 76.0002C132.43 76.0302 132.41 76.0602 132.41 76.0802C132.4 76.1502 132.38 76.2202 132.39 76.2802C132.41 76.3902 132.38 76.4902 132.37 76.5902C132.37 76.6102 132.35 76.6402 132.35 76.6602C132.35 76.7602 132.36 76.8602 132.34 76.9502C132.32 77.0402 132.29 77.1202 132.29 77.2202C132.27 77.3902 132.24 77.5702 132.22 77.7402V77.8502L132.19 78.0102C132.16 78.1402 132.11 78.2602 132.18 78.4002C132.2 78.4402 132.18 78.4902 132.18 78.5402C132.18 78.5902 132.16 78.6402 132.17 78.6802C132.2 78.8702 132.2 79.0602 132.14 79.2602C132.12 79.3302 132.12 79.4202 132.15 79.4702C132.19 79.5502 132.2 79.6202 132.19 79.7002C132.19 79.9302 132.22 80.1602 132.19 80.3902C132.17 80.5202 132.19 80.6602 132.19 80.7902C132.19 80.8602 132.19 80.9302 132.16 81.0002C132.15 81.0302 132.15 81.0702 132.15 81.1102C132.15 81.3702 132.13 81.6302 132.11 81.8902C132.1 82.0102 132.07 82.1402 132.11 82.2702V82.3102C132.12 82.4102 132.06 82.5002 132.09 82.6102C132.12 82.7002 132.08 82.8102 132.09 82.9202C132.1 83.0802 132.1 83.2302 132.08 83.3902C132.11 83.4802 132.09 83.5702 132.08 83.6602C132.07 83.7402 132.09 83.8302 132.09 83.9102C132.1 84.1102 132.1 84.3102 132.11 84.5102C132.11 84.5902 132.12 84.6702 132.12 84.7502C132.12 84.8202 132.13 84.8902 132.14 84.9602C132.16 85.1302 132.17 85.3002 132.17 85.4602C132.17 85.5502 132.17 85.6302 132.2 85.7102C132.22 85.7702 132.23 85.8402 132.24 85.9002C132.26 86.0702 132.25 86.2502 132.29 86.4302C132.3 86.4602 132.28 86.4902 132.28 86.5202C132.28 86.6102 132.27 86.7002 132.34 86.7802C132.37 86.8102 132.38 86.8602 132.36 86.9002C132.33 86.9802 132.35 87.0502 132.38 87.1102C132.42 87.1902 132.42 87.2602 132.42 87.3402C132.42 87.4102 132.43 87.4902 132.44 87.5602C132.48 87.7402 132.53 87.9102 132.56 88.0902C132.6 88.2602 132.61 88.4402 132.66 88.6102C132.7 88.7302 132.73 88.8502 132.76 88.9802C132.82 89.2502 132.9 89.5202 133 89.7802C133.01 89.8102 133.03 89.8502 133.03 89.8902C133.02 89.9602 133.06 90.0202 133.08 90.0802C133.11 90.1702 133.16 90.2702 133.16 90.3702C133.16 90.3902 133.16 90.4102 133.18 90.4202C133.25 90.4802 133.26 90.5602 133.28 90.6502C133.3 90.7102 133.31 90.7802 133.34 90.8402C133.44 91.0402 133.51 91.2402 133.56 91.4602C133.58 91.5402 133.59 91.6302 133.68 91.6802C133.7 91.6902 133.71 91.7302 133.72 91.7602C133.81 91.9902 133.91 92.2102 134.02 92.4302C134.08 92.5502 134.12 92.6802 134.18 92.7902C134.19 92.8002 134.19 92.8102 134.19 92.8302C134.17 92.9502 134.25 93.0302 134.3 93.1302C134.37 93.2602 134.43 93.3902 134.5 93.5202C134.52 93.5502 134.53 93.5902 134.56 93.6102C134.67 93.7402 134.75 93.8902 134.83 94.0402C134.85 94.0802 134.88 94.1302 134.91 94.1602C135 94.2502 135.09 94.3402 135.12 94.4702C135.12 94.4802 135.13 94.4802 135.13 94.4902C135.24 94.5702 135.28 94.6902 135.33 94.8102C135.36 94.8602 135.4 94.9102 135.44 94.9502C135.53 95.0302 135.6 95.1302 135.66 95.2402C135.69 95.3002 135.73 95.3502 135.79 95.3902C135.86 95.4502 135.92 95.5302 135.97 95.6102C136.04 95.7302 136.13 95.8502 136.24 95.9502C136.34 96.0502 136.43 96.1602 136.52 96.2602C136.68 96.4402 136.84 96.6202 137 96.8102C137.04 96.8502 137.07 96.9002 137.1 96.9402C137.13 96.9902 137.17 97.0102 137.23 97.0202C137.34 97.0402 137.42 97.1302 137.49 97.2202C137.57 97.3302 137.67 97.4202 137.78 97.4902C137.85 97.5402 137.95 97.5702 137.99 97.6602C138.2 97.8502 138.42 98.0202 138.65 98.1702C138.83 98.2902 139 98.4202 139.16 98.5502C139.19 98.5802 139.22 98.5902 139.27 98.6102C139.36 98.6402 139.44 98.6802 139.49 98.7702C139.53 98.8402 139.58 98.8602 139.66 98.8602C139.72 98.8602 139.78 98.8902 139.83 98.9202C140 99.0302 140.19 99.1202 140.37 99.2202C140.46 99.2702 140.54 99.3402 140.62 99.4002C140.68 99.4402 140.73 99.5102 140.81 99.4502C140.82 99.4402 140.86 99.4602 140.88 99.4702C141.03 99.5402 141.2 99.6002 141.31 99.7502C141.34 99.7402 141.37 99.7302 141.39 99.7202C141.43 99.7202 141.47 99.7102 141.5 99.7302C141.57 99.7902 141.65 99.8002 141.73 99.8202C141.81 99.8402 141.88 99.8902 141.96 99.9302C141.97 99.9402 141.98 99.9402 141.99 99.9402C142.1 99.9402 142.17 100 142.25 100.07C142.32 100.07 142.39 100.05 142.46 100.09C142.53 100.12 142.61 100.13 142.69 100.15C142.77 100.17 142.84 100.19 142.91 100.24C143.03 100.32 143.16 100.36 143.32 100.31C143.35 100.34 143.38 100.36 143.41 100.39C143.45 100.42 143.48 100.43 143.52 100.4C143.53 100.39 143.56 100.38 143.57 100.38C143.64 100.43 143.74 100.38 143.8 100.47C143.82 100.51 143.89 100.52 143.94 100.49C144.01 100.45 144.07 100.48 144.13 100.51C144.22 100.56 144.31 100.59 144.41 100.6C144.43 100.6 144.46 100.61 144.48 100.6C144.64 100.54 144.78 100.6 144.91 100.67C144.95 100.69 144.99 100.7 145.03 100.68C145.14 100.63 145.26 100.66 145.37 100.68C145.42 100.69 145.46 100.71 145.51 100.72C145.58 100.73 145.64 100.76 145.71 100.75C145.81 100.74 145.9 100.72 145.99 100.78C146.01 100.79 146.05 100.79 146.08 100.78C146.15 100.75 146.21 100.76 146.28 100.77C146.4 100.78 146.52 100.78 146.64 100.79C146.74 100.8 146.83 100.81 146.93 100.81H147.27C147.32 100.81 147.38 100.81 147.43 100.83C147.48 100.86 147.53 100.79 147.57 100.82C147.63 100.86 147.68 100.85 147.74 100.82C147.78 100.8 147.82 100.8 147.86 100.8C148.04 100.8 148.21 100.78 148.38 100.79C148.5 100.79 148.62 100.78 148.74 100.77C148.83 100.757 148.923 100.764 149.01 100.79C149.09 100.82 149.17 100.82 149.25 100.76C149.32 100.7 149.4 100.69 149.48 100.76C149.52 100.8 149.58 100.8 149.62 100.76C149.74 100.65 149.88 100.7 150 100.71C150.11 100.72 150.2 100.74 150.29 100.65C150.3 100.64 150.32 100.63 150.34 100.63C150.49 100.62 150.63 100.57 150.78 100.6C150.88 100.62 150.97 100.63 151.05 100.55C151.07 100.53 151.12 100.53 151.15 100.52C151.31 100.5 151.47 100.47 151.64 100.46C151.69 100.46 151.73 100.46 151.77 100.43C151.82 100.38 151.89 100.41 151.95 100.41C152.03 100.41 152.11 100.44 152.17 100.37C152.33 100.36 152.49 100.27 152.65 100.3C152.67 100.3 152.69 100.31 152.7 100.3C152.84 100.24 152.98 100.23 153.12 100.19C153.17 100.17 153.22 100.15 153.28 100.15C153.35 100.15 153.49 100.09 153.58 100.05C153.64 100.03 153.71 100.03 153.77 100.02C153.88 100.01 154 100 154.09 99.9302C154.1 99.9202 154.13 99.9102 154.14 99.9102C154.2 99.9402 154.25 99.9002 154.3 99.8802C154.41 99.8402 154.53 99.8202 154.65 99.7902C154.77 99.7602 154.87 99.6902 154.99 99.6702C155.13 99.6502 155.24 99.5702 155.36 99.5202C155.42 99.5002 155.47 99.4702 155.53 99.4802C155.56 99.4802 155.6 99.4702 155.63 99.4502C155.7 99.4002 155.77 99.3702 155.85 99.3802C155.9 99.3802 155.94 99.3702 155.97 99.3402C156.02 99.2902 156.08 99.2802 156.15 99.2602C156.2 99.2502 156.28 99.2602 156.3 99.1802C156.3 99.1702 156.36 99.1702 156.38 99.1702C156.42 99.1802 156.46 99.1902 156.49 99.1602C156.55 99.1102 156.62 99.0902 156.7 99.0802C156.76 99.0702 156.82 99.0202 156.87 98.9902C156.93 98.9502 156.99 98.9102 157.07 98.9102C157.12 98.9102 157.17 98.8702 157.21 98.8402C157.28 98.8002 157.33 98.7302 157.42 98.7602C157.47 98.7202 157.51 98.7102 157.58 98.7102C157.63 98.7102 157.69 98.6602 157.74 98.6302C157.79 98.6102 157.82 98.5802 157.86 98.5402C157.88 98.5202 157.91 98.5102 157.94 98.5102C157.97 98.5102 158 98.5102 158.02 98.4802C158.04 98.4502 158.06 98.4402 158.1 98.4502C158.12 98.4502 158.16 98.4502 158.17 98.4402C158.21 98.3702 158.29 98.3602 158.35 98.3402C158.42 98.3202 158.48 98.2802 158.55 98.2602C158.61 98.2402 158.67 98.2302 158.69 98.1602C158.7 98.1202 158.74 98.1102 158.78 98.1202C158.84 98.1402 158.88 98.1102 158.92 98.0602C158.96 98.0002 159.02 97.9702 159.1 97.9702C159.2 97.9802 159.31 97.9302 159.35 97.7902V97.7902Z" fill="url(#paint1_linear_1230_3689)"/>
<path d="M164.37 80.39C163.92 78.11 163.03 75.92 161.75 73.98C160.94 72.75 159.82 71.53 158.35 71.43C155.96 71.25 154.45 74.09 154.42 76.49C154.4 78.89 155.18 81.35 154.49 83.65C154.29 84.33 153.93 85 153.32 85.38C152.1 86.13 150.46 85.31 149.62 84.16C148.77 83.01 148.4 81.57 147.61 80.38C146.82 79.19 145.31 78.23 144 78.79C142.58 79.4 142.33 81.26 142.33 82.8C142.33 84.55 142.39 86.31 142.5 88.06" stroke="black" stroke-width="1.5" stroke-miterlimit="10" stroke-linecap="round" stroke-linejoin="round"/>
<defs>
<linearGradient id="paint0_linear_1230_3689" x1="100.584" y1="75.7158" x2="100.584" y2="116.646" gradientUnits="userSpaceOnUse">
<stop offset="0.286458" stop-color="#FE7332"/>
<stop offset="1" stop-color="#F8570E"/>
</linearGradient>
<linearGradient id="paint1_linear_1230_3689" x1="151.003" y1="59.936" x2="151.003" y2="100.847" gradientUnits="userSpaceOnUse">
<stop offset="0.286458" stop-color="#FE7332"/>
<stop offset="1" stop-color="#F8570E"/>
</linearGradient>
</defs>
</svg>
