<svg width="230" height="164" viewBox="0 0 230 164" fill="none" xmlns="http://www.w3.org/2000/svg">
<path d="M87.17 57.0799C84.32 56.4899 79.14 48.8799 76.33 49.4899C72.15 50.4099 70.21 58.8498 66.32 60.7598C64.7 61.5598 63.19 62.5898 61.67 63.5698C57.96 65.9498 58.04 66.2598 54.21 68.4298C52.53 69.3798 47.29 74.7198 46.85 76.5898C46.8 76.7798 46.74 76.9699 46.67 77.1599C45.46 80.4699 40.3 82.3798 37.67 94.3198C37.75 96.2698 37.78 98.2298 37.86 100.18C37.91 101.44 37.38 102.65 37.17 103.9C37.03 104.7 36.96 105.51 36.88 106.32C36.85 106.68 37.02 106.89 37.41 106.8C37.68 106.73 37.88 106.83 38.13 106.93C38.74 107.19 39.38 107.45 40.05 107.11C40.57 106.85 41.13 107.69 41.62 107.03C41.68 107.13 41.74 107.22 41.8 107.32C41.87 107.44 42 107.67 42.02 107.66C42.71 107.37 43.36 107.99 43.9 107.87C44.7 107.69 45.38 107.89 46.11 108.03C46.7 107.99 47.11 108.44 47.64 108.57C48.32 108.49 46.26 105.7 46.7 106.27C47.27 105.36 48.17 105.78 48.78 105.98C49.63 106.25 49.82 105.85 49.94 105.28C50.34 103.33 50.62 99.6698 50.82 97.6798C51.1 94.9298 54.59 91.6798 54.55 88.9498C55.33 87.1598 58.97 86.1099 60.93 84.7999C63.75 82.8999 63.58 83.1199 66.28 81.0799C68.26 79.5899 70.28 78.1498 72.41 76.8398C74.27 75.6998 81.6 74.1299 83.67 73.4799" fill="#52D1CA"/>
<path d="M79.37 68.23C78.42 67.68 77.5 67.1 76.61 66.48C76.64 66.57 76.67 66.65 76.71 66.74C77.5 67.45 78.28 68.17 79.04 68.91C79.19 69.02 79.35 69.12 79.51 69.23C79.78 69.08 80.05 68.94 80.32 68.8C80.13 68.63 79.96 68.46 79.77 68.29C79.64 68.32 79.5 68.31 79.37 68.23V68.23Z" fill="#52D1CA"/>
<path d="M195.06 42.1298C194.95 41.9898 194.99 41.6998 194.86 41.6098C194.29 41.1898 193.76 40.7898 194.34 39.9598C193.56 39.9898 193.43 39.7298 193.42 39.0698C193.42 38.7298 192.88 38.2198 192.99 38.0698C193.46 37.3998 192.38 36.3798 193.55 35.8798C193.74 35.7998 193.87 35.0798 193.73 34.8098C193.16 33.7298 192.9 32.5698 192.58 31.4098C192.35 30.5798 191.7 29.8698 191.26 29.0998C191.12 28.8598 191.08 28.5598 191.05 28.2798C190.69 27.6598 189.72 27.5798 189.63 26.6098C189.61 26.4098 189.16 26.2598 188.93 26.0598C188.31 25.5198 187.72 24.9498 187.07 24.4398C186.87 24.2798 186.53 24.2698 186.25 24.2198C186.14 24.1998 186.03 24.2498 185.92 24.2498C185.14 24.1998 184.5 23.4298 183.57 23.8898C183.38 23.9798 182.81 23.4498 182.5 23.1298C180.62 21.1998 178.11 20.5498 175.7 19.7098C174.78 19.3898 173.83 19.1498 172.92 18.8098C172.55 18.6698 172.29 18.2298 171.92 18.1098C170.95 17.7798 169.96 17.4898 168.95 17.2998C166.82 16.9098 164.68 16.5998 162.55 16.2598C161.06 16.0198 159.58 15.7698 158.09 15.5298H153.7C152.8 15.6398 151.9 15.7298 151.01 15.8698C150.16 16.0098 148.96 15.9198 148.55 16.4398C147.9 17.2498 147.2 17.1898 146.44 17.2598C144.99 17.3798 143.54 17.4098 142.1 17.5998C140.56 17.7998 139.05 18.2098 137.52 18.4198C135.82 18.6498 134.04 18.5298 132.41 18.9598C130.34 19.5098 128.15 19.7098 126.26 20.8598C126.13 20.9398 125.92 20.8598 125.75 20.8798C125.2 20.9598 124.65 21.0198 124.11 21.1498C123.5 21.2898 122.9 21.4898 122.3 21.6798C120.97 22.1198 119.64 22.5598 118.31 23.0098C117.32 23.3498 116.33 23.6998 115.35 24.0698C113.34 24.8198 111.32 25.5598 109.33 26.3498C108.21 26.7998 107.14 27.3498 106.04 27.8498C105.32 26.2398 104.77 26.0598 103.41 26.9098C102.68 27.3698 102.03 27.9698 101.29 28.4098C100.7 28.7598 99.96 28.8798 99.4 29.2598C97.96 30.2298 96.58 31.2798 95.19 32.3098C94.41 32.8898 93.45 33.3498 92.92 34.1098C91.83 35.6698 90.39 36.8998 88.87 37.8598C87.28 38.8598 86.36 40.3398 85.2 41.6498C84.7 42.2098 84.17 42.7398 83.68 43.2898C83.39 43.6098 82.96 43.9398 82.91 44.2998C82.8 45.2598 81.94 45.6198 81.46 46.2498C80.95 46.9198 80.17 47.4098 79.49 47.9398C79.09 48.2498 78.63 48.4898 78.2 48.7598C77.86 48.9698 77.47 49.1298 77.17 49.3898C75.98 50.4198 74.86 51.5198 73.64 52.5198C72.96 53.0698 72.14 53.4298 71.41 53.9298C70.94 54.2498 70.48 54.6098 70.02 54.9698C70.08 55.0698 70.14 55.1798 70.21 55.2798C70.88 56.3298 71.55 57.3898 72.24 58.4398C73 59.0598 73.76 59.6898 74.52 60.2998C76.91 62.1998 79.36 64.0198 81.6 66.0698C81.92 65.9098 82.23 65.7498 82.55 65.5898C83.72 64.9898 84.74 63.9698 86.24 64.2398C86.52 64.2898 86.83 64.3398 87.1 64.2798C89.21 63.7998 91.3 63.2798 93.41 62.7998C93.81 62.7098 94.29 62.5598 94.63 62.6898C96.5 63.4298 98.31 64.2998 100.18 65.0198C102.19 65.7898 104.39 66.0498 106.38 66.7898C109.42 67.9098 112.45 67.3498 115.48 67.4198C116.69 67.4498 117.92 67.3198 119.11 67.0898C120.29 66.8598 120.63 67.5398 120.94 68.3898C120.98 68.4998 121.02 68.5998 121.06 68.7098C122 71.0198 123.57 72.9998 124.52 75.3098C125.14 76.8098 125.96 78.2198 126.73 79.6598C127.28 80.6998 127.92 81.6898 128.46 82.7298C129.38 84.5098 130.25 86.3098 131.15 88.0998C131.71 89.2298 132.37 90.3098 132.83 91.4798C133.49 93.1798 134 94.9498 134.58 96.6798C135.14 98.3398 135.78 99.9698 136.97 101.31C136.91 101.52 136.85 101.73 136.74 102.15C137.08 101.87 137.24 101.73 137.44 101.57C137.68 101.95 137.91 102.33 138.08 102.6C137.38 103.12 136.48 103.85 135.51 104.48C134.58 105.08 133.58 105.55 132.62 106.11C131.78 106.59 131.15 107.61 129.94 107.14C129.897 107.125 129.852 107.12 129.807 107.125C129.762 107.13 129.718 107.146 129.68 107.17C128.74 107.72 127.71 108.16 126.91 108.87C126.32 109.39 125.85 109.96 125.03 110.17C124.62 110.27 124.23 110.57 123.9 110.85C122.41 112.14 120.71 113.01 118.85 113.65C117.77 114.02 116.72 114.55 116.2 115.76C115.35 115.55 114.85 115.9 114.45 116.7C113.91 117.76 113.73 118.75 113.83 119.98C113.94 121.36 114.16 122.68 114.66 123.93C114.84 124.4 115.48 124.71 115.95 125.02C116.14 125.15 116.45 125.11 116.71 125.15C116.57 125.39 116.43 125.64 116.23 126C116.61 126.35 117.01 126.86 117.53 127.19C118.21 127.62 118.54 128.17 118.74 128.93C118.82 129.23 119.33 129.65 119.61 129.62C120.52 129.53 121.44 129.33 122.31 129.04C123.3 128.71 124.25 128.26 125.21 127.83C127.04 127 128.84 126.12 130.67 125.29C132.73 124.36 134.8 123.44 136.89 122.57C139.05 121.66 141.23 120.78 143.42 119.94C144.91 119.37 146.41 118.83 147.71 117.86C148.28 117.43 148.88 117.03 149.47 116.61C150.03 117.83 150.69 118.05 151.67 117.25C152.49 116.59 153.2 115.8 153.93 115.03C154.25 114.7 154.47 114.28 154.75 113.91C154.96 113.63 155.12 113.28 155.39 113.09C156.05 112.63 156.23 111.93 155.95 111.65C156.03 110.16 156.16 108.85 156.15 107.54C156.14 106.69 156.01 105.81 155.79 104.99C155.41 103.62 155.94 101.91 154.36 100.96C154.29 100.92 154.32 100.74 154.28 100.63C153.9 99.5598 153.51 98.4898 153.15 97.4098C153.09 97.2298 153.15 97.0098 153.14 96.8098C153.12 96.4798 153.18 96.0998 153.04 95.8298C152.68 95.0998 152.2 94.4198 152.51 93.5398C152.54 93.4598 152.37 93.3098 152.32 93.1898C152.2 92.9198 152.06 92.6398 151.99 92.3598C151.75 91.3898 151.63 90.3898 151.31 89.4498C150.79 87.9498 150.12 86.4898 149.56 84.9998C149.05 83.6398 148.76 82.2198 148.64 80.7598C148.6 80.2398 148.18 79.7698 148.11 79.2498C147.94 77.8598 147.86 76.4598 147.75 75.0798C148.03 74.9098 148.32 74.6698 148.66 74.5398C149.75 74.1398 150.54 73.0198 151.93 73.2398C152.26 73.2898 152.67 72.8798 153.04 72.6798C153.77 72.2898 154.51 71.9298 155.22 71.5198C156.05 71.0398 157.46 71.3098 157.48 69.6998C157.48 69.4698 158.28 69.1498 158.75 69.0598C159.39 68.9298 160.14 69.1698 160.7 68.9198C162.09 68.3098 163.37 67.4498 164.75 66.8198C165.74 66.3698 166.91 66.2598 167.18 64.9198C167.26 64.5398 167.39 64.1698 167.54 63.6298C167.64 63.5698 168 63.4298 168.26 63.1898C168.76 62.7398 169.23 62.2598 169.66 61.7498C170.13 61.1798 170.97 60.8698 170.94 59.9198C170.93 59.5698 171.03 59.1298 171.25 58.8898C172.09 57.9598 173.04 57.1198 173.88 56.1998C174.43 55.5998 174.88 54.8998 175.43 54.1798C175.07 54.0798 174.86 54.0298 174.44 53.9098C174.85 53.2398 175.23 52.6698 175.57 52.0598C175.72 51.7898 175.89 51.4698 175.87 51.1798C175.83 50.5498 176.21 50.3298 176.66 50.0898C179.01 48.8198 181.35 47.5398 183.71 46.2798C184.17 46.0298 184.77 45.9598 185.14 45.6198C185.54 45.2398 185.91 45.0198 186.33 45.3698C186.64 45.6298 186.78 46.0698 187 46.4298C186.94 46.4898 186.88 46.5398 186.81 46.5998C187.59 47.0698 188.35 47.0898 189.11 46.5198C189.89 47.1998 189.88 47.1798 190.79 46.6998C191.22 46.4698 191.72 46.3498 192.15 46.1198C192.58 45.8998 193.01 45.6598 193.36 45.3498C194.16 44.6398 194.92 43.8698 195.69 43.1198V42.7698C195.44 42.5098 195.22 42.3398 195.06 42.1298V42.1298ZM67.72 61.4898C69.01 62.5798 70.29 63.6698 71.54 64.7798C70.48 63.5498 69.14 62.4398 67.72 61.4898Z" fill="url(#paint0_linear_1230_3695)"/>
<path d="M94.15 67.5899C95.86 68.0499 97.77 68.7199 99.63 68.9399C101.18 68.6999 102.72 68.3099 104.28 67.9999C104.34 67.9899 104.39 67.9999 104.44 67.9999L109.14 57.4899L105.76 55.5999C102.09 54.3099 99.65 49.4899 97.3 46.3699C95.46 43.9299 84.67 32.8499 82.51 30.6899L65.24 57.0699C65.24 57.0699 80.62 72.6499 86.84 70.1099C93.07 67.5699 89.78 64.8899 91.85 65.5599C92.6 65.7999 93.41 66.6299 94.15 67.5899Z" fill="#F9AD73"/>
<path d="M38.1 108.22C38.48 109.14 38.85 110.12 38.71 111.1C38.61 111.77 38.29 112.37 38 112.98C37.47 114.08 37.04 115.22 36.71 116.4C36.56 116.93 36.43 117.48 36.44 118.03C36.46 119.32 37.25 120.49 38.26 121.3C39.27 122.1 40.48 122.59 41.68 123.07M57.54 119.74C56.91 119.59 56.27 119.45 55.68 119.16C55.1 118.87 54.56 118.43 54.29 117.84C54.15 117.52 54.08 117.18 53.95 116.85C53.77 116.41 53.47 116.04 53.17 115.67C52.42 114.77 52.46 114.73 51.63 113.91C51.63 113.91 50.53 113.63 48.97 114.33C48.45 114.57 47.86 114.67 47.42 115.03C46.37 115.87 46.13 117.38 46.26 118.72C46.31 119.3 46.45 119.92 46.89 120.3" stroke="#1D1D1B" stroke-miterlimit="10"/>
<path d="M41.12 116.41C40.5 116.28 39.75 116.37 39.4 116.9C39.24 117.14 39.19 117.44 39.2 117.74C39.23 118.56 39.68 119.29 40.12 119.98C40.67 120.85 41.23 121.72 41.78 122.58" stroke="#1D1D1B" stroke-miterlimit="10"/>
<path d="M42.5499 119.21C41.9899 119.24 41.2599 119.84 41.2799 120.41C41.2799 120.41 41.2899 121.19 41.4399 121.67C41.4399 121.67 42.2099 122.84 42.6599 123.07C43.1199 123.31 43.6199 123.42 44.1299 123.52C44.4199 123.58 44.7099 123.63 45.0099 123.65C45.8399 123.72 46.1399 123.63 46.9199 123.33L47.2899 123.28C47.7899 123.1 48.3399 123.17 48.8599 123.25C49.2999 123.32 49.7499 123.38 50.1899 123.45C50.7099 123.53 51.2499 123.6 51.7399 123.43M53.3199 117.96C53.1099 118.01 52.9699 118.22 52.8899 118.42C52.5899 119.1 52.7399 119.86 52.7799 120.61C52.8199 121.45 54.5299 122.41 54.7499 122.58C55.2199 122.94 55.8899 122.67 56.4699 122.74C56.7699 122.77 57.4599 122.87 57.5499 122.8C57.6599 122.71 58.0399 122.6 58.1799 122.6L58.7899 122.34C59.5399 121.97 59.9899 121.08 59.8399 120.25C59.6599 119.3 59.4599 118.86 58.5299 118.63L57.5499 118.42C57.1299 116.64 56.8399 115.43 56.4199 113.65C56.2999 113.12 56.1699 112.59 55.8999 112.12C55.0999 110.75 53.3399 110.35 52.0699 109.4C51.1257 108.698 50.4542 107.691 50.1699 106.55" stroke="#1D1D1B" stroke-miterlimit="10"/>
<path d="M50.87 123.52C51.13 123.57 51.49 123.15 51.59 122.9C51.68 122.65 51.66 122.37 51.63 122.1C51.61 121.94 51.59 121.76 51.48 121.64L51.07 121.52C50.44 121.5 49.83 121.27 49.34 120.88C49.23 120.79 49.12 120.69 48.99 120.61C48.81 120.5 48.6 120.45 48.4 120.41C47.99 120.32 47.58 120.22 47.16 120.26L46.44 120.53C46.32 120.72 46.1 120.82 45.87 120.85C45.65 120.88 45.42 120.79 45.2 120.8C44.24 120.83 43.54 120.45 43.54 120.45C42.85 119.88 42.81 118.85 42.65 117.96C42.48 116.99 42.11 116.05 41.54 115.24M51.13 123.52C51.76 123.77 62.02 126.49 62.02 126.49L74.11 129.92" stroke="#1D1D1B" stroke-miterlimit="10"/>
<path d="M51.48 121.65C52.83 122.15 54.43 122.68 55.86 122.9C56.4 122.99 57.41 122.72 57.96 122.82C58.66 122.94 59.51 123.17 59.51 123.17L74.12 129.93M56.77 125.09C59.24 128.03 61.69 130.4 64.29 133.22M60.34 126.05C61.79 128.33 64.37 133.3 64.37 133.3M44.59 123.83C44.73 124.45 45.08 125.02 45.56 125.42C45.69 125.52 45.82 125.62 45.96 125.7C46.94 126.29 48.13 126.42 49.28 126.5C49.46 126.16 49.64 125.78 49.57 125.4C49.51 125.12 49.33 124.89 49.15 124.67C48.87 124.33 48.17 123.51 47.88 123.17M39.31 117.48C39.52 117.62 39.84 117.84 39.98 118.05C40.06 118.17 40.33 118.27 40.44 118.36C40.58 118.48 40.77 118.51 40.95 118.54C41.38 118.61 42.23 118.63 42.61 118.41M46.25 117.37C46.85 117.65 47.52 117.78 48.18 117.76C48.39 117.75 48.6 117.73 48.8 117.79C49 117.85 49.18 118.02 49.18 118.23C49.18 118.43 49.02 118.58 48.86 118.7C48.27 119.14 47.55 119.4 46.81 119.44M180.62 96.68C179.65 99.17 178.67 101.67 177.7 104.16M191.73 36.46C203.43 53.46 188.26 72.2 183.54 89.2M162.64 66.96C158.82 82.01 157.93 97.18 157.04 112.34C157.04 114.12 158.82 115.91 159.85 117.63M131.87 92.16C129.533 97.236 128.687 102.872 129.43 108.41M177.55 104.26C184.35 103.64 191.2 103.52 198.03 103.88C204.37 104.22 210.78 105.01 216.62 107.51M159.62 118.44C168.02 121.4 177.24 119.19 186.15 119.05C192.9 118.94 199.67 120.03 206.39 119.38C210.11 119.02 213.82 118.12 217.53 118.51M83.38 131.99C83.1 132.39 83.09 132.96 83.36 133.37C83.45 133.5 83.59 133.63 83.75 133.6M117.36 118.04C112.13 120.27 106.21 119.88 100.53 120.16C99.45 120.21 98.35 120.3 97.34 120.67C96.14 121.11 95.12 121.91 94.02 122.55C92.57 123.39 90.96 123.93 89.52 124.8C87.21 126.2 85.48 128.34 83.79 130.44C83.5 130.8 83.2 131.29 83.44 131.68" stroke="#1D1D1B" stroke-miterlimit="10"/>
<path d="M97.87 123.41C96.16 124.85 93.83 125.26 91.86 126.31C91.27 126.63 90.7 127 90.14 127.37C89.67 127.68 89.21 127.99 88.74 128.3C86.94 129.5 85.13 130.71 83.38 131.98M83.82 133.49C84.1 133.52 84.39 133.55 84.67 133.5C84.99 133.44 85.27 133.26 85.55 133.1M99.55 126.44C98.59 126.91 97.48 127.02 96.54 127.52C96.21 127.7 95.9 127.92 95.59 128.12C92.8 129.93 89.27 130.39 86.59 132.36C86.36 132.53 86.12 132.72 86.01 132.99C85.9 133.26 85.95 133.61 86.2 133.76M86.31 133.97C87.05 134.21 87.84 133.92 88.6 133.72C90.47 133.23 92.55 133.27 94.14 132.17M103.32 128.75C100.66 129.24 98.35 130.88 95.74 131.57C95.28 131.69 94.8 131.79 94.41 132.05C94.02 132.31 93.73 132.81 93.86 133.26C93.95 133.56 94.19 133.78 94.43 133.98M94.33 134.12C94.88 134.43 95.55 134.48 96.17 134.39C96.79 134.3 97.39 134.08 97.99 133.87C100.37 133.04 102.8 132.37 105.26 131.87M105.21 131.89C105.64 131.84 106.08 131.78 106.51 131.73C108.16 131.53 109.82 131.32 111.42 130.88C112.81 130.49 114.15 129.93 115.48 129.37C115.9 129.19 116.32 129.01 116.76 128.87C118.01 128.48 119.34 128.46 120.65 128.45" stroke="#1D1D1B" stroke-miterlimit="10"/>
<path d="M106.91 53.7002C108.8 56.2602 109.75 59.7002 108.66 62.6902C108.3 63.6702 107.75 64.5602 107.19 65.4402L105.9 67.5102M11.89 128.43C12.56 130.05 13.24 131.67 13.91 133.29M13.24 123.33C14.03 127.69 14.83 132.05 15.62 136.42M16.19 127.99C16.33 130.3 16.67 132.6 17.23 134.85M68.96 120.39C67.77 123.58 67.68 127.05 67.61 130.45C67.57 132.21 67.58 134.12 68.65 135.52M65.66 128.64C65.5 130.56 65.47 132.49 65.57 134.41M161.22 130.08C162.35 133.16 163.03 136.4 163.25 139.67M164.34 134.53C164.37 135.7 164.51 136.87 164.75 138.02M195.32 125.42C193.353 128.999 192.343 133.026 192.39 137.11M196.27 133.6C196.11 134.38 195.94 135.15 195.78 135.93M89.46 149.25C89.62 150.26 89.77 151.28 89.93 152.29M91.24 141.79C91.92 145.24 92.18 148.78 92.01 152.29M96.45 147.62C96.37 148.4 96.29 149.18 96.22 149.96M79.43 104.86C79.3 105.64 79.34 106.45 79.56 107.22M18.62 89.2002C19.56 91.7702 20.51 94.3302 21.45 96.9002M21.91 92.7002C21.91 93.1302 22.09 93.5602 22.39 93.8702M27.52 93.8702V95.7402" stroke="#080908" stroke-miterlimit="10"/>
<path d="M183.56 89.0702C182.899 91.8343 181.919 94.5122 180.64 97.0502M170 106.25C171.55 106.51 173.19 106.18 174.51 105.32M176.43 105.88C176.1 107.66 174.8 109.08 173.55 110.39M159.82 117.76C160.35 118.35 161.07 118.77 161.85 118.93M156.81 111.79C156.98 111.73 157.15 111.68 157.32 111.62M157.33 97.3902C156.82 98.2402 156.02 98.9102 155.09 99.2602M156.11 95.1602C155.99 95.8802 155.63 96.5602 155.1 97.0602M191.88 50.9702C192.32 53.4502 191.04 55.8802 190.75 58.3802M190.89 58.6402C191.29 58.9802 191.84 59.1002 192.36 59.0802C192.88 59.0602 193.39 58.9202 193.9 58.7802" stroke="#1D1D1B" stroke-miterlimit="10"/>
<path d="M91.62 42.9098C92.07 42.4798 92.38 41.9498 92.3 41.3198C92.23 40.6998 91.86 40.1698 91.43 39.7398C91.05 39.3598 90.56 39.0098 90.34 38.4998C90.09 37.9198 90.25 37.2498 90.37 36.6598C90.5 36.0298 89.54 35.7598 89.41 36.3898C89.28 36.9998 89.16 37.6098 89.25 38.2398C89.33 38.8298 89.62 39.3298 90.03 39.7698C90.39 40.1498 90.84 40.4698 91.12 40.9198C91.24 41.1098 91.35 41.3398 91.32 41.5698C91.29 41.8398 91.1 42.0298 90.91 42.1998C90.44 42.6498 91.15 43.3498 91.62 42.9098V42.9098ZM64.31 26.4898C63.4856 27.2577 62.9079 28.2531 62.65 29.3498C62.57 29.6898 62.51 30.0598 62.35 30.3798C62.02 31.0398 61.23 31.4998 60.66 31.9498C59.96 32.5098 59.26 33.0698 58.56 33.6198C58.35 33.7898 58.39 34.1498 58.56 34.3298C58.77 34.5398 59.06 34.4998 59.27 34.3298C59.95 33.7898 60.63 33.2398 61.32 32.6998C61.93 32.2098 62.66 31.7498 63.1 31.0798C63.51 30.4598 63.55 29.6898 63.79 29.0098C64.04 28.3098 64.48 27.6998 65.01 27.1998C65.49 26.7498 64.78 26.0498 64.31 26.4898V26.4898Z" fill="#1D1D1B"/>
<path d="M59.13 33.2C58.43 33.63 57.87 34.2 57.54 34.96C57.16 35.83 56.84 36.73 56.5 37.61C56.33 38.05 56.15 38.5 55.98 38.94C55.84 39.3 55.61 39.71 55.61 40.11C55.61 41.18 56.94 40.96 57.65 40.97C58.29 40.97 58.29 39.97 57.65 39.97C57.35 39.97 56.96 39.9 56.66 39.97H56.54C56.56 40.02 56.59 40.07 56.61 40.12C56.61 40.12 56.65 39.97 56.66 39.95C56.71 39.79 56.78 39.63 56.85 39.47C57.12 38.77 57.39 38.08 57.66 37.38C57.91 36.73 58.15 36.06 58.43 35.42C58.69 34.83 59.1 34.4 59.64 34.07C60.19 33.73 59.68 32.87 59.13 33.2V33.2Z" fill="#1D1D1B"/>
<path d="M57.16 40.5202C57.6 41.7102 57.33 42.9502 57.21 44.1802C57.08 45.5102 57.39 46.8402 57.16 48.1502C56.99 49.1402 56.22 50.2802 56.82 51.2502C57.09 51.6802 57.53 51.8302 58.02 51.8402C58.71 51.8602 59.42 51.7902 60.12 51.7602C60.76 51.7302 60.76 50.7302 60.12 50.7602C59.51 50.7802 58.91 50.8102 58.3 50.8302C58.03 50.8402 57.74 50.8902 57.62 50.6002C57.53 50.3802 57.63 50.1002 57.7 49.8802C58.05 48.8202 58.29 47.8202 58.24 46.7002C58.19 45.5702 58.17 44.5302 58.3 43.4002C58.42 42.3402 58.5 41.2702 58.12 40.2502C57.9 39.6602 56.94 39.9202 57.16 40.5202V40.5202Z" fill="#1D1D1B"/>
<path d="M59.72 51.5502C59.96 51.9702 59.77 52.4802 59.65 52.9202C59.52 53.4202 59.42 53.9302 59.36 54.4502C59.25 55.4902 59.31 56.5502 59.54 57.5702C59.73 58.4202 60.01 59.4902 60.74 60.0302C61.36 60.4902 62.42 60.4102 62.75 59.6302C63 59.0502 62.14 58.5402 61.89 59.1302C61.79 59.3602 61.55 59.3702 61.35 59.2402C61.05 59.0502 60.91 58.6302 60.79 58.3202C60.5 57.5102 60.34 56.6602 60.3 55.8002C60.27 54.9702 60.35 54.1302 60.56 53.3202C60.76 52.5502 60.98 51.7802 60.56 51.0502C60.27 50.4802 59.41 50.9902 59.72 51.5502V51.5502Z" fill="#1D1D1B"/>
<path d="M62.4901 59.7801C62.7601 59.5901 62.9801 59.3701 63.1501 59.0901C63.2401 58.9501 63.3001 58.8001 63.3601 58.6501C63.3801 58.6101 63.3901 58.5301 63.4201 58.4901C63.3901 58.5601 63.3901 58.5701 63.4101 58.5201C63.4201 58.5101 63.4201 58.5001 63.4301 58.4901C63.4301 58.4801 63.4801 58.4101 63.4801 58.4001C63.4801 58.4201 63.4101 58.4701 63.4701 58.4201L63.4901 58.4001C63.4301 58.4601 63.4901 58.4101 63.5101 58.3901C63.5201 58.3801 63.5301 58.3801 63.5501 58.3701C63.5901 58.3501 63.5701 58.3601 63.4901 58.3901C63.5101 58.3901 63.5501 58.3701 63.5701 58.3701C63.5901 58.3701 63.6701 58.3501 63.5801 58.3601C63.4901 58.3801 63.5901 58.3601 63.6101 58.3601H63.6801C63.7201 58.3601 63.8001 58.3901 63.6601 58.3501C63.6901 58.3601 63.7201 58.3601 63.7501 58.3701C63.8001 58.3801 63.8501 58.3901 63.8901 58.4101C63.9101 58.4201 63.9501 58.4401 63.9701 58.4401C63.9001 58.4101 63.8801 58.4001 63.9201 58.4201C63.9301 58.4301 63.9501 58.4301 63.9601 58.4401L64.1101 58.5301C64.3301 58.6701 64.6701 58.5801 64.7901 58.3501C64.9201 58.1001 64.8501 57.8201 64.6101 57.6701C64.0701 57.3301 63.3401 57.2201 62.8201 57.6401C62.7001 57.7401 62.6001 57.8701 62.5301 58.0101C62.4734 58.1353 62.4201 58.262 62.3701 58.3901C62.3301 58.4901 62.4101 58.3101 62.3701 58.4001C62.3401 58.4601 62.3101 58.5201 62.2701 58.5801L62.2101 58.6701C62.2001 58.6901 62.1801 58.7101 62.1701 58.7301C62.1801 58.7101 62.1901 58.7001 62.2101 58.6801C62.2001 58.7301 62.0901 58.8101 62.0601 58.8501C62.0301 58.8701 62.0101 58.9001 61.9801 58.9201C61.8801 59.0001 62.0401 58.8801 61.9601 58.9401C61.8515 59.011 61.7704 59.1168 61.7301 59.2401C61.7001 59.3601 61.7101 59.5201 61.7801 59.6301C61.9401 59.8101 62.2601 59.9401 62.4901 59.7801V59.7801Z" fill="#1D1D1B"/>
<path d="M64.3001 58.5099C64.6801 58.5699 64.9201 58.8599 65.1601 59.1899C65.4601 59.5999 65.77 60.0399 66.25 60.2599C66.75 60.4799 67.36 60.4899 67.78 60.0999C67.97 59.9299 68.09 59.6999 68.22 59.4799L68.67 58.7299C69 58.1799 68.14 57.6699 67.81 58.2299C67.69 58.4399 67.5601 58.6499 67.4401 58.8599C67.3401 59.0299 67.23 59.2699 67.11 59.3799C67.08 59.4099 67.12 59.3899 67.06 59.4099C67.12 59.3799 67.0301 59.4199 67.0101 59.4199C66.9801 59.4299 66.9801 59.4299 67.0101 59.4199H66.96C66.96 59.4199 66.83 59.4099 66.86 59.4099C66.7217 59.3817 66.5937 59.3159 66.49 59.2199C66.18 58.9399 65.98 58.5699 65.7 58.2499C65.41 57.9199 65.02 57.6199 64.58 57.5499C64.31 57.5099 64.04 57.6199 63.96 57.8999C63.89 58.1299 64.0401 58.4699 64.3001 58.5099V58.5099Z" fill="#1D1D1B"/>
<path d="M68.4001 59.24C69.5301 57.98 69.5801 56.28 70.1201 54.76C70.3601 54.09 70.7501 53.38 71.5201 53.27C72.3301 53.16 73.3401 53.12 74.0801 53.53C74.6401 53.85 75.1501 52.98 74.5801 52.67C73.7101 52.18 72.7001 52.19 71.7301 52.25C71.2501 52.28 70.7801 52.37 70.3801 52.66C70.0101 52.93 69.7201 53.28 69.5001 53.68C69.0701 54.47 68.9001 55.37 68.6901 56.23C68.4901 57.04 68.2701 57.89 67.7001 58.52C67.2701 59.01 67.9701 59.72 68.4001 59.24V59.24Z" fill="#1D1D1B"/>
<path d="M74.11 53.4501C74.83 53.7201 75.69 53.5101 76.04 52.7801C76.41 52.0101 76.2 50.9501 76.16 50.1301C76.12 49.1501 76.06 48.1701 76.05 47.1901C76.04 46.2501 76.46 45.5201 76.95 44.7401C77.3 44.2001 76.43 43.6901 76.09 44.2401C75.69 44.8701 75.28 45.5201 75.13 46.2601C74.97 47.0301 75.07 47.8501 75.11 48.6401C75.14 49.5001 75.18 50.3601 75.21 51.2201C75.22 51.5501 75.3 51.9801 75.17 52.3001C75.03 52.6601 74.69 52.6201 74.38 52.5001C73.78 52.2601 73.51 53.2201 74.11 53.4501V53.4501Z" fill="#1D1D1B"/>
<path d="M76.72 44.9898C77.12 44.4798 77.75 44.2998 78.38 44.2398C79.18 44.1598 80.02 44.1898 80.78 43.8898C81.44 43.6298 82.01 43.1798 82.26 42.4998C82.4 42.1098 82.4 41.6898 82.38 41.2898C82.36 40.8598 82.33 40.4198 82.31 39.9898C82.28 39.3498 81.27 39.3498 81.31 39.9898C81.33 40.3898 81.35 40.7898 81.38 41.1898C81.4 41.5298 81.44 41.9098 81.31 42.2298C81.09 42.7598 80.47 42.9998 79.95 43.0998C78.6 43.3698 76.99 43.0798 76.02 44.2898C75.85 44.4998 75.81 44.7898 76.02 44.9998C76.19 45.1698 76.55 45.2098 76.72 44.9898V44.9898Z" fill="#1D1D1B"/>
<path d="M82.4 40.6601C82.36 40.1001 82.31 39.5201 82.49 38.9801C82.56 38.7701 82.65 38.6101 82.82 38.4701C82.77 38.5101 82.9 38.4201 82.9 38.4201C82.91 38.4201 83.04 38.3601 82.97 38.3801C82.98 38.3801 83.12 38.3301 83.04 38.3601C83.1 38.3601 83.11 38.3601 83.06 38.3501C83.09 38.3501 83.11 38.3601 83.14 38.3701C83.17 38.3801 83.17 38.3801 83.14 38.3701C83.16 38.3801 83.19 38.3901 83.21 38.4101C83.24 38.4301 83.24 38.4301 83.21 38.4101C83.2391 38.4305 83.2659 38.454 83.29 38.4801C83.37 38.5501 83.44 38.6301 83.5 38.7201C83.67 38.9201 83.84 39.1101 84.07 39.2601C84.55 39.5701 85.15 39.6201 85.7 39.6601C85.97 39.6801 86.2 39.4201 86.2 39.1601C86.2 38.8701 85.97 38.6801 85.7 38.6601C85.18 38.6201 84.7 38.5801 84.35 38.1801C84.17 37.9701 84 37.7601 83.78 37.6001C83.5 37.4001 83.16 37.3401 82.83 37.4001C82.2 37.5101 81.75 38.0901 81.54 38.6601C81.31 39.3001 81.35 40.0001 81.4 40.6701C81.42 40.9401 81.62 41.1701 81.9 41.1701C82.16 41.1601 82.42 40.9301 82.4 40.6601V40.6601Z" fill="#1D1D1B"/>
<path d="M85.58 39.7201C85.92 39.7201 86.27 39.7301 86.61 39.7301C86.93 39.7301 87.28 39.7001 87.59 39.7501C88.11 39.8401 88.37 40.3601 88.57 40.7901C88.82 41.3201 89.06 41.8501 89.5 42.2601C89.93 42.6601 90.47 42.9301 91.05 43.0101C91.32 43.0501 91.59 42.9401 91.67 42.6601C91.73 42.4301 91.59 42.0801 91.32 42.0401C90.8 41.9701 90.32 41.7301 89.99 41.3101C89.62 40.8401 89.47 40.2201 89.14 39.7301C88.79 39.2201 88.32 38.8401 87.69 38.7601C87 38.6701 86.28 38.7201 85.58 38.7101C84.94 38.7101 84.94 39.7101 85.58 39.7201V39.7201ZM90.41 36.5301C90.42 35.8601 90.61 35.2401 90.37 34.5901C90.16 34.0201 89.8 33.5501 89.49 33.0401C89.16 32.5101 88.95 31.9301 88.91 31.3001C88.86 30.6901 88.87 30.0601 88.49 29.5401C88.33 29.3201 88.06 29.2201 87.81 29.3601C87.59 29.4801 87.47 29.8301 87.63 30.0401C87.96 30.4901 87.88 31.1001 87.95 31.6301C88.03 32.2401 88.22 32.8201 88.53 33.3601C88.79 33.8301 89.15 34.2401 89.37 34.7301C89.64 35.3201 89.43 35.9001 89.42 36.5201C89.4 37.1701 90.4 37.1701 90.41 36.5301V36.5301ZM64.63 27.6601C65.31 26.9801 66.16 26.5101 67.11 26.3301C68.07 26.1501 68.9 26.2201 69.73 25.5901C70.52 24.9901 71.29 24.4801 72.24 24.1901C73.1445 23.9239 74.094 23.8456 75.03 23.9601C75.67 24.0301 75.66 23.0301 75.03 22.9601C73.04 22.7301 71.03 23.3101 69.45 24.5401C68.97 24.9101 68.57 25.1701 67.95 25.2301C67.46 25.2801 66.98 25.3101 66.51 25.4401C65.53 25.7001 64.64 26.2301 63.92 26.9501C63.47 27.4001 64.17 28.1101 64.63 27.6601V27.6601Z" fill="#1D1D1B"/>
<path d="M75 24.0301C75.55 23.9401 76.1 24.3101 76.57 24.5401C77.15 24.8301 77.73 25.0501 78.38 25.0301C79.55 25.0101 80.8 24.2701 81.95 24.7401C82.2 24.8401 82.5 24.6301 82.57 24.3901C82.65 24.1001 82.47 23.8801 82.22 23.7701C80.93 23.2401 79.68 24.0001 78.39 24.0201C77.74 24.0301 77.21 23.7201 76.64 23.4401C76.03 23.1401 75.43 22.9401 74.75 23.0501C74.48 23.0901 74.34 23.4301 74.4 23.6701C74.46 23.9701 74.73 24.0701 75 24.0301Z" fill="#1D1D1B"/>
<path d="M81.8199 24.6899C82.5799 24.9099 83.3299 25.2399 83.9499 25.7399C84.2099 25.9399 84.4599 26.1999 84.5699 26.5099C84.7099 26.8999 84.6799 27.3099 84.8599 27.6999C85.1699 28.3599 85.8099 28.7699 86.4299 29.0999C86.9599 29.3899 87.9499 29.8499 87.8199 30.6099C87.7099 31.2399 88.6799 31.5099 88.7799 30.8799C88.9399 29.9299 88.3999 29.1599 87.6399 28.6499C87.0299 28.2399 86.0399 27.9699 85.7399 27.2299C85.5699 26.8199 85.6199 26.3599 85.4199 25.9499C85.2399 25.5799 84.9499 25.2699 84.6299 25.0099C83.8899 24.4099 82.9999 23.9999 82.0899 23.7399C81.4599 23.5399 81.1999 24.5099 81.8199 24.6899V24.6899Z" fill="#1D1D1B"/>
<defs>
<linearGradient id="paint0_linear_1230_3695" x1="84" y1="16" x2="184.5" y2="121.5" gradientUnits="userSpaceOnUse">
<stop offset="0.301436" stop-color="#0AC4B4"/>
<stop offset="1" stop-color="#079592"/>
</linearGradient>
</defs>
</svg>
