<svg width="272" height="112" viewBox="0 0 272 112" fill="none" xmlns="http://www.w3.org/2000/svg">
<path d="M96.74 91.2699H95.3C94.79 89.2999 93.18 89.0599 91.54 88.8599C91.31 88.8299 91.09 88.7199 90.86 88.6699C88.9 88.2499 86.94 87.8699 84.99 87.4099C83.74 87.1199 82.52 86.7099 81.29 86.3499C81.17 86.3099 81.06 86.1099 80.96 86.1199C79.26 86.3599 77.88 85.6599 76.58 84.6799C76.22 84.4099 75.78 84.2299 75.35 84.0399C74.08 83.4999 72.81 82.9499 71.53 82.4399C69.66 81.6999 67.83 80.7999 65.9 80.3199C62.81 79.5399 60.15 77.9399 57.39 76.4799C56.84 76.1899 56.36 75.6899 57.14 75.0299C57.3 74.8899 57.29 74.5699 57.37 74.3199C56.95 74.3199 56.56 74.4399 56.36 74.2999C55.87 73.9299 55.47 73.4299 55.02 73.0199C54.81 72.8299 54.54 72.7099 54.3 72.5599C54.24 72.8599 54.18 73.1599 54.1 73.5999C53.89 73.2899 53.68 73.0699 53.57 72.7999C53.21 71.9599 53 71.0199 52.51 70.2599C51.36 68.4899 51.4 66.7599 52.62 65.1599C53.4 64.1399 54.48 63.3499 55.46 62.4999C55.58 62.3899 55.99 62.4899 56.19 62.6099C57.12 63.1699 58.01 63.7999 58.94 64.3499C59.19 64.4999 59.55 64.4699 59.86 64.5199C60.6 64.6499 61.4 64.6299 62.06 64.9299C64.19 65.8699 66.16 67.2699 68.66 67.0799C68.81 67.0699 68.97 67.1399 69.12 67.1799C69.9 67.3699 70.68 67.5899 71.46 67.7599C71.96 67.8699 72.5 67.8199 72.98 67.9799C73.98 68.3099 74.93 68.8499 75.94 69.0999C77.97 69.6199 80.04 70.0099 82.1 70.4499C83.72 70.7899 85.34 71.1399 86.96 71.4399C88.09 71.6499 89.3 71.5999 90.34 71.9999C92.15 72.6999 93.92 72.7399 95.76 72.3299C97.13 72.0199 98.51 71.7699 99.89 71.4699C101.43 71.1399 102.97 70.7999 104.5 70.4699C102.64 69.8299 100.87 69.2899 99.06 68.9799C96.16 68.4899 93.2 68.2699 90.32 67.7099C88.83 67.4199 87.43 66.6399 86.01 66.0399C85.67 65.8999 85.43 65.5399 85.15 65.2899C84.8 65.1799 84.13 64.8299 84.03 64.9499C83.27 65.8599 82.56 65.2199 81.84 64.9799C78.12 63.7399 74.4 62.4999 70.69 61.2299C70.37 61.1199 70.16 60.6999 69.85 60.5099C69.39 60.2199 68.89 59.6499 68.45 60.3699C66.98 59.7299 65.52 59.1299 64.09 58.4699C62.78 57.8699 61.49 57.2199 60.2 56.5599C58.25 55.5699 56.39 54.3699 54.36 53.6299C52.79 53.0599 51.71 52.0099 50.55 50.9699C50.4 50.8299 50.44 50.4699 50.4 50.2099C50.36 49.9399 50.41 49.5599 50.26 49.4199C49.4 48.6699 48.48 47.9699 47.52 47.2099C48.36 45.5599 49.25 43.6999 50.23 41.8999C50.99 40.5099 53.2 40.3199 54.24 41.3299C55.02 42.0899 56 42.6499 56.95 43.2099C57.65 43.6199 58.43 43.9199 59.19 44.2199C60.45 44.7099 61.53 45.8799 63.1 45.3099C63.24 45.2599 63.48 45.3799 63.63 45.4699C65.07 46.3199 66.49 47.1999 67.94 48.0399C68.27 48.2299 68.67 48.3799 69.05 48.4199C71.21 48.5899 73.43 48.3999 75.34 49.7799C75.53 49.9199 75.89 49.7999 76.16 49.8599C77.45 50.1299 78.75 50.3699 80.03 50.7199C80.93 50.9699 81.79 51.3899 82.68 51.6799C84.39 52.2299 86.11 52.7499 87.84 53.2399C88.38 53.3899 88.97 53.3499 89.51 53.4899C90.42 53.7199 91.3 54.0699 92.21 54.2999C94.41 54.8599 96.63 55.3399 98.82 55.9199C101.26 56.5599 103.69 57.2899 106.26 56.8699C107.44 56.6699 108.6 56.3699 109.78 56.2299C110.62 56.1399 111.57 56.4999 112.31 56.2099C114.21 55.4799 116.1 55.2199 118.11 55.4999C118.47 55.5499 118.9 55.3599 119.25 55.1899C120.24 54.6999 121.35 54.3199 122.16 53.6099C123.82 52.1599 125.9 51.9699 127.86 51.4599C131.46 50.5199 135.1 49.7199 138.7 48.7799C140.74 48.2399 142.7 47.3399 144.76 46.9499C147.84 46.3699 150.89 45.6399 154.12 45.9199C157.15 46.1899 159.7 47.3199 161.81 49.3299C162.98 50.4399 163.76 51.9799 164.69 53.3399C166.6 56.0999 166.83 59.2599 166.79 62.4699C166.78 63.4599 166.64 64.4499 166.74 65.4299C167.08 68.6499 166.51 71.7599 165.75 74.8399C165.24 76.8999 164.56 78.9199 163.92 80.9399C163.31 82.8599 163.41 85.1599 160.87 86.0099C160.08 86.2699 159.48 87.0999 158.77 87.6299C158.56 87.7799 158.21 87.9599 158.02 87.8799C156.7 87.3699 155.67 88.2799 154.53 88.5799C152.72 89.0599 150.93 89.5099 149.1 88.7799C148.47 88.5299 147.89 88.0999 147.25 87.9599C145.58 87.6099 143.85 87.5999 142.23 86.9799C142.12 86.9399 141.99 86.9599 141.87 86.9699C140.17 87.0899 138.47 87.2499 136.77 87.3299C135.67 87.3799 134.42 87.7299 133.65 86.6499C133.18 85.9799 132.64 85.9699 132.01 86.0199C131.23 86.0799 130.44 86.1399 129.66 86.2599C125.19 86.9499 120.73 87.6799 116.26 88.3599C115.44 88.4799 114.57 88.3199 113.75 88.4399C109.65 89.0399 105.56 89.6799 101.47 90.3499C99.88 90.5799 98.31 90.9499 96.74 91.2699V91.2699Z" fill="url(#paint0_linear_1230_3721)"/>
<path d="M115.39 59.7798C113.32 57.3998 111.16 54.8398 110.72 51.7398C110.38 49.3198 108.35 40.9198 107.67 38.5598L83.15 37.5098C83.15 37.5098 86.26 62.6598 91.6 63.4498C96.94 64.2398 99.22 62.1298 100.41 63.4398C101.6 64.7498 103.71 68.2598 103.71 68.2598L105.39 70.9398L116.98 61.6698L115.39 59.7798V59.7798Z" fill="#F9DCB2"/>
<path d="M115.73 60.0898C115.81 60.5798 115.81 61.0698 115.75 61.5598C115.56 63.0898 114.7 64.4698 113.6 65.5398C112.5 66.6198 111.17 67.4198 109.83 68.1698C108.19 69.0898 106.36 69.9798 104.52 69.6398M162.67 87.7298C177.941 92.9612 193.727 96.5482 209.76 98.4298" stroke="#1D1D1B" stroke-miterlimit="10" stroke-linejoin="round"/>
<path d="M209.61 98.5202C212.64 98.1102 215.2 96.0602 217.33 93.8602C226.02 84.9002 230.24 72.6102 237.13 62.2002C239.01 59.3602 241.1 56.6402 242.59 53.5802M208.41 76.7502C215.62 68.5102 222.1 59.6602 228.56 50.8202M228.38 50.6702C229.06 50.3002 229.86 50.1902 230.63 50.0902C232.71 49.8202 234.8 49.5502 236.89 49.6902C238.98 49.8302 241.09 50.4202 242.74 51.7102C243.01 51.9202 243.28 52.1702 243.38 52.5002C243.47 52.8302 243.32 53.2502 242.98 53.3302M188.79 45.0302C194.52 52.6002 197.22 62.0702 202.64 69.8602M188.99 45.0502C189.223 44.1383 189.657 43.2902 190.261 42.5685C190.865 41.8468 191.623 41.2699 192.48 40.8802C193.79 40.2902 195.26 40.1802 196.69 40.0802L200.04 39.8402M200.31 39.6102C201.8 40.9402 202.87 42.6602 203.92 44.3502C207.92 50.8102 211.92 57.2802 215.93 63.7402C216.02 63.8802 216.1 64.0702 215.98 64.1902C215.86 64.3102 215.68 64.0002 215.84 64.0202M202.61 69.8102C203.67 71.4102 204.72 73.0202 205.78 74.6202M163.01 53.0102C165.92 54.3302 168.91 55.7002 171.14 57.9902C172.95 59.8402 174.16 62.2002 175.82 64.1802C178.59 67.4902 182.48 69.6402 186.35 71.5602C192.83 74.7702 199.62 77.5602 206.77 78.6102M207.05 78.7402C207.73 77.8002 208.41 76.8502 209.09 75.9102M186.99 37.4102C188.03 39.1302 189.07 40.8602 190.1 42.5802M195.18 34.1602C196.51 36.0202 197.84 37.8702 199.17 39.7302C199.29 39.5202 199.2 39.2202 198.98 39.1102M231.7 49.7802C233.44 47.8402 235.23 45.9402 237.07 44.0802M241.84 51.3102C242.87 50.0302 243.9 48.7602 244.93 47.4802" stroke="#1D1D1B" stroke-miterlimit="10" stroke-linejoin="round"/>
<path d="M236.69 44.2C238.05 42.57 240.37 41.69 242.4 42.3C244.44 42.91 245.93 45.15 245.45 47.22M237.51 42.21L237.1 42.53C238.24 40.99 239.38 39.44 240.52 37.9C240.99 37.27 241.47 36.62 242.12 36.17C242.83 35.68 243.68 35.45 244.53 35.31C248.22 34.69 252.13 35.47 255.29 37.47M245.8 47.83C249.12 46.6957 252.626 46.2036 256.13 46.38M186.7 37.32C187.235 35.7869 188.352 34.526 189.81 33.81C191.25 33.11 192.98 33.01 194.49 33.55L194.33 33.77M180.81 27.79C180.77 29.83 182.41 31.46 183.32 33.29C183.55 33.74 183.73 34.22 183.99 34.65C184.44 35.41 185.11 36.02 185.77 36.62C186.05 36.87 186.35 37.13 186.71 37.2L186.31 37.17" stroke="#1D1D1B" stroke-miterlimit="10" stroke-linejoin="round"/>
<path d="M181.24 27.2602C185.65 22.5002 192.14 20.3802 198.34 18.4402L202.47 17.1502C204.36 16.5602 206.79 16.1102 208.02 17.6602C208.89 18.7502 208.68 20.4102 207.92 21.5802C207.16 22.7502 205.97 23.5602 204.84 24.3802C200.999 27.1642 197.507 30.4009 194.44 34.0202" fill="#1D1D1B"/>
<path d="M181.24 27.2602C185.65 22.5002 192.14 20.3802 198.34 18.4402L202.47 17.1502C204.36 16.5602 206.79 16.1102 208.02 17.6602C208.89 18.7502 208.68 20.4102 207.92 21.5802C207.16 22.7502 205.97 23.5602 204.84 24.3802C200.999 27.1642 197.507 30.4009 194.44 34.0202" stroke="#1D1D1B" stroke-miterlimit="10" stroke-linejoin="round"/>
<path d="M181.68 27.5699C181.42 27.5699 181.16 27.7299 181.03 27.9599C181.24 27.8999 181.41 27.7499 181.51 27.5599C181.41 27.7999 181.31 28.0499 181.21 28.2899C181.47 27.9999 181.72 27.7099 181.98 27.4199C181.77 27.7999 181.56 28.1799 181.36 28.5599C181.68 28.2899 181.99 27.9899 182.26 27.6799C182.12 27.9799 181.99 28.2899 181.85 28.5899C182.11 28.3699 182.33 28.1099 182.51 27.8199C182.28 28.1899 182.04 28.5599 181.81 28.9299C182.18 28.6599 182.51 28.3099 182.76 27.9299C182.57 28.2599 182.38 28.5899 182.2 28.9099C182.55 28.5399 182.9 28.1799 183.25 27.8099C182.96 28.3699 182.67 28.9299 182.38 29.4799C182.85 29.0099 183.31 28.5299 183.78 28.0599C183.41 28.6399 183.03 29.2199 182.66 29.7899L184.19 28.3199C183.82 28.8299 183.46 29.3399 183.09 29.8499L184.48 28.4899C184.16 29.0399 183.84 29.5999 183.52 30.1499C184.03 29.6799 184.53 29.2099 185.04 28.7299C184.72 29.2399 184.4 29.7599 184.08 30.2699C184.64 29.8899 185.16 29.4599 185.63 28.9699C185.26 29.4499 184.89 29.9299 184.52 30.4199L186.07 29.1699C185.65 29.6699 185.3 30.2199 185.02 30.8099C185.48 30.4399 185.9 30.0199 186.28 29.5599C185.86 29.9799 185.49 30.4499 185.19 30.9599C185.74 30.5599 186.26 30.1099 186.74 29.6199C186.32 30.0799 185.95 30.5899 185.66 31.1399C186.21 30.8299 186.72 30.4399 187.15 29.9899C186.74 30.3199 186.4 30.7199 186.14 31.1799C186.77 30.7499 187.36 30.2699 187.91 29.7499C187.32 30.3299 186.79 30.9899 186.35 31.6899C187.01 31.2699 187.63 30.7799 188.18 30.2299C187.6 30.7099 187.11 31.2899 186.72 31.9299C187.33 31.5099 187.92 31.0399 188.45 30.5199C187.85 30.9599 187.38 31.5899 187.13 32.2999L189.02 30.7399C188.43 31.0699 187.95 31.6099 187.69 32.2399C188.2 32.0199 188.67 31.7099 189.07 31.3199C188.56 31.7499 188.1 32.2399 187.7 32.7899C188.32 32.4399 188.91 32.0399 189.46 31.5899C188.98 31.9399 188.56 32.3599 188.22 32.8499C188.8 32.5999 189.34 32.2499 189.8 31.8199C189.25 32.1099 188.78 32.5399 188.44 33.0599C189.04 32.8499 189.61 32.5299 190.1 32.1299C189.69 32.3499 189.32 32.6499 189.04 33.0199C189.72 32.8399 190.38 32.5599 190.98 32.1999C190.48 32.3999 190.01 32.6599 189.56 32.9599C190.17 32.8499 190.77 32.6799 191.35 32.4599C190.73 32.5499 190.13 32.7799 189.6 33.1099C190.23 33.2199 190.9 33.0399 191.39 32.6399C191.19 32.6699 191 32.7699 190.86 32.9099C191.12 32.8799 191.38 32.7899 191.6 32.6499C191.42 32.7299 191.24 32.8099 191.07 32.8899C191.25 32.9999 191.52 32.9099 191.61 32.7199C191.39 32.7399 191.17 32.8099 190.97 32.9299" stroke="#1D1D1B" stroke-miterlimit="10" stroke-linejoin="round"/>
<path d="M189.18 33.51C188.39 33.99 187.64 34.54 186.96 35.18C187.79 34.57 188.58 33.92 189.34 33.22C188.3 34.08 187.35 35.04 186.5 36.09C187.35 35.16 188.2 34.23 189.05 33.31C188.17 34.05 187.34 34.87 186.59 35.74C187.21 34.98 187.83 34.21 188.45 33.45C187.65 34.14 186.94 34.92 186.33 35.79C186.9 35.09 187.43 34.36 187.92 33.6C187.27 34.15 186.7 34.8 186.24 35.52C186.94 34.72 187.58 33.86 188.15 32.96C187.37 33.54 186.69 34.26 186.15 35.06L187.62 33.02C186.98 33.56 186.39 34.17 185.86 34.84C186.35 34.27 186.74 33.62 187.01 32.93C186.39 33.39 185.87 34 185.52 34.69C186.12 34.11 186.57 33.39 186.84 32.6C186.21 33.07 185.65 33.65 185.18 34.29C185.69 33.68 186.13 33.02 186.5 32.32C185.85 32.76 185.27 33.31 184.78 33.93C185.22 33.28 185.65 32.62 186.09 31.97C185.47 32.31 184.93 32.82 184.55 33.42C184.88 32.91 185.21 32.4 185.54 31.9C185.01 32.16 184.53 32.55 184.17 33.03L185.35 31.34C184.94 31.67 184.53 31.99 184.13 32.32C184.42 32.05 184.63 31.71 184.74 31.33C184.43 31.46 184.15 31.65 183.91 31.89C184.09 31.49 184.27 31.1 184.45 30.7C184.13 30.87 183.83 31.1 183.58 31.37L183.88 30.71C183.64 30.79 183.45 30.98 183.36 31.21C183.51 30.92 183.6 30.61 183.61 30.28C183.43 30.46 183.25 30.65 183.07 30.83C183.05 30.63 183.03 30.42 183.02 30.22C182.91 30.22 182.8 30.28 182.74 30.37C182.21 30.09 181.81 29.56 181.69 28.96C182.54 30.02 183.23 31.21 183.73 32.48C184.26 33.81 184.64 35.32 185.77 36.18C185.81 36.0838 185.828 35.9794 185.821 35.8752C185.814 35.771 185.783 35.6699 185.73 35.58L185.79 35.85M243.92 37.5L241.31 39.42C242.1 38.78 242.82 38.05 243.43 37.24C242.15 38.01 240.99 39 240.04 40.15C240.54 39.69 240.97 39.16 241.31 38.57C240.54 39.17 239.91 39.95 239.49 40.83C239.67 40.76 239.8 40.58 239.82 40.38C239.47 40.8 239.15 41.24 238.86 41.7C238.791 41.6923 238.721 41.7078 238.661 41.744C238.601 41.7801 238.555 41.835 238.53 41.9C238.2 41.9 237.88 42.12 237.77 42.44C237.86 42.33 237.95 42.22 238.05 42.11C238.02 42.24 237.93 42.36 237.82 42.43C239.13 41.11 240.37 39.72 241.52 38.27C240.71 38.68 240.1 39.4 239.51 40.1C240.17 39.33 240.84 38.57 241.5 37.8C241.84 37.41 242.18 37.01 242.61 36.71C241.91 37.04 241.35 37.64 241.07 38.36C241.9 37.66 242.71 36.94 243.48 36.18C242.79 36.88 242.09 37.58 241.4 38.28C242.26 37.56 243.16 36.89 244.1 36.27C243.64 36.85 243.11 37.38 242.54 37.85C243.42 37.18 244.3 36.5 245.18 35.83C244.68 36.12 244.26 36.54 243.94 37.02C244.52 36.5 245.1 35.98 245.67 35.46C244.92 35.66 244.59 36.52 244.38 37.26C245.1 36.68 245.82 36.09 246.52 35.48C245.79 36 245.12 36.61 244.55 37.3C245.52 36.64 246.49 35.97 247.46 35.31L245.89 37.18C246.6 36.75 247.28 36.28 247.94 35.77C247.5 36.2 247.1 36.68 246.75 37.19C247.46 36.67 248.17 36.16 248.87 35.64C248.49 36.09 248.11 36.54 247.73 37C248.38 36.59 249.01 36.16 249.61 35.7C249.22 36.2 248.83 36.7 248.45 37.2C249.07 36.8 249.68 36.41 250.3 36.01C249.92 36.49 249.59 37 249.33 37.55C249.97 37.07 250.6 36.59 251.24 36.11C250.77 36.71 250.35 37.34 249.98 38C250.59 37.65 251.19 37.31 251.8 36.96C251.29 37.36 250.85 37.84 250.49 38.38C251.03 38.05 251.52 37.65 251.95 37.18C251.37 37.59 250.81 38.03 250.28 38.51C250.73 38.01 251.14 37.46 251.48 36.88C251.34 36.9 251.2 36.92 251.06 36.95C251.05 36.74 251.21 36.54 251.42 36.51C251.62 36.48 251.84 36.63 251.89 36.83C251.841 36.7586 251.813 36.6753 251.808 36.5891C251.802 36.5028 251.82 36.4168 251.86 36.34C251.86 39.31 251.87 42.28 251.87 45.24C251.87 45.39 251.87 45.55 251.81 45.7C251.69 45.99 251.37 46.14 251.07 46.24C250.39 46.47 249.68 46.6 248.97 46.63C248.14 46.67 247.28 46.58 246.52 46.92C246.34 47 246.17 47.11 245.98 47.17C245.87 46.55 246.25 45.9 246.09 45.29C245.95 44.78 245.48 44.45 245.14 44.05C244.84 43.7 244.64 43.27 244.31 42.95C244.02 42.66 243.65 42.48 243.28 42.3C242.65 41.99 242 41.69 241.31 41.55C240.62 41.41 239.87 41.44 239.25 41.78C239.8 41.3 240.41 40.89 241.07 40.57C241.24 40.49 241.41 40.41 241.53 40.27C241.65 40.13 241.7 39.91 241.58 39.76C240.86 40.14 240.21 40.66 239.69 41.28C240.63 40.43 241.62 39.63 242.66 38.9C242.22 39.23 241.84 39.64 241.55 40.1C242.03 39.8 242.52 39.5 243 39.2C242.62 39.66 242.24 40.12 241.86 40.57C242.45 40.25 243.02 39.88 243.54 39.46C243.01 39.8 242.52 40.2 242.09 40.67C242.706 40.7003 243.321 40.5802 243.88 40.32C243.21 40.35 242.55 40.46 241.91 40.66C242.12 40.86 242.41 40.96 242.69 40.95C242.564 40.8591 242.409 40.8153 242.254 40.8262C242.099 40.8372 241.952 40.9022 241.84 41.01C242.11 41.25 242.46 41.4 242.82 41.44C242.34 41.33 241.89 41.13 241.48 40.86C242.11 41.12 242.72 41.43 243.3 41.79C243.24 41.61 243.13 41.44 242.98 41.32C243.57 42.12 244.15 42.92 244.74 43.72C244.38 42.59 243.91 41.5 243.35 40.45C243.79 41.12 244.24 41.79 244.68 42.46C244.43 41.28 244.1 40.12 243.71 38.98C243.83 39.57 244.02 40.15 244.28 40.69C244.32 40.04 244.27 39.38 244.12 38.74C244.08 38.55 244.01 38.34 243.83 38.27C243.52 38.15 243.26 38.53 243.18 38.85C243.25 38.92 243.33 38.99 243.4 39.06C244.027 38.7016 244.547 38.1842 244.91 37.56C244.37 37.45 243.76 37.73 243.51 38.23C243.78 38.44 244.16 38.33 244.47 38.19C245.27 37.84 246.02 37.37 246.69 36.81C246.02 37.1 245.37 37.45 244.77 37.86C244.56 38 244.32 38.23 244.4 38.47C245 38.23 245.57 37.9 246.08 37.49C245.53 37.94 245.08 38.49 244.75 39.11C245.487 38.8616 246.165 38.4632 246.74 37.94C246.15 38.41 245.61 38.94 245.15 39.54C245.59 39.78 246.16 39.67 246.58 39.4C247 39.13 247.32 38.72 247.62 38.32C247.194 38.5023 246.82 38.788 246.532 39.1511C246.244 39.5143 246.051 39.9435 245.97 40.4C247.011 39.8088 247.937 39.0328 248.7 38.11C247.87 38.42 247.17 39.07 246.79 39.87C247.53 39.35 248.26 38.83 249 38.32L247.45 40.35" stroke="#1D1D1B" stroke-miterlimit="10" stroke-linejoin="round"/>
<path d="M248.46 37.4902C248.29 37.3102 247.99 37.3902 247.77 37.5002C247.25 37.7502 246.78 38.1002 246.39 38.5102C247.14 37.9502 247.85 37.3602 248.54 36.7202C247.64 37.2302 246.76 37.7702 245.9 38.3402C246.586 37.7504 247.363 37.2743 248.2 36.9302C248.01 37.6302 247.19 38.0702 247.1 38.7902C247.86 38.4402 248.58 38.0102 249.25 37.5102C248.96 38.0002 248.54 38.4002 248.14 38.7902C248.73 38.4302 249.33 38.0802 249.92 37.7202C249.41 38.3002 248.9 38.8802 248.39 39.4702C248.2 39.6902 247.99 39.9302 247.92 40.2102C248.76 39.6202 249.56 38.9802 250.32 38.3002C249.64 38.8602 249.06 39.5302 248.61 40.2802C249.77 39.7702 250.57 38.6902 251.63 38.0102C250.74 38.8002 249.9 39.6502 249.11 40.5502C249.48 40.5402 249.81 40.3102 250.11 40.0902C250.71 39.6402 251.31 39.1802 251.89 38.7202C251.18 39.3702 250.55 40.1102 250.01 40.9002" stroke="#1D1D1B" stroke-miterlimit="10" stroke-linejoin="round"/>
<path d="M250.8 39.6699C250.42 39.6899 250.12 39.9799 249.86 40.2599C249.21 40.9599 248.62 41.6999 248.08 42.4899C248.6 41.9899 248.99 41.3699 249.21 40.6799C249.27 40.4999 249.31 40.2699 249.16 40.1399C249.05 40.0399 248.88 40.0599 248.76 40.1299C248.64 40.1999 248.55 40.3299 248.48 40.4599C248.2 40.9499 248.02 41.5099 247.97 42.0799C247.95 42.2699 248.01 42.5299 248.2 42.5399C248.35 42.5499 248.45 42.3799 248.48 42.2299C248.65 41.5199 248.29 40.7999 247.89 40.1899C247.79 40.0299 247.63 39.8499 247.44 39.8999C247.34 39.9299 247.27 40.0099 247.22 40.0999C246.9 40.5899 246.83 41.2299 247.03 41.7799C247.12 42.0299 247.36 42.2899 247.6 42.1999C247.84 42.0999 247.83 41.7499 247.74 41.4999C247.53 40.9699 247.13 40.5099 246.63 40.2499C246.33 40.0899 245.93 40.0199 245.69 40.2599C245.43 40.5199 245.56 40.9799 245.76 41.2899C245.91 41.5199 246.1 41.7399 246.36 41.8299C246.5 41.8799 246.67 41.8799 246.78 41.7899C247.01 41.5999 246.84 41.2299 246.63 41.0199C246.28 40.6699 245.83 40.4199 245.34 40.3099C245.14 40.2599 244.87 40.2899 244.82 40.4799C244.8 40.5399 244.82 40.6099 244.84 40.6699C244.99 41.1699 245.42 41.5699 245.92 41.6799C246.04 41.7099 246.17 41.7199 246.28 41.6599C246.42 41.5799 246.47 41.3899 246.43 41.2399C246.39 41.0899 246.29 40.9499 246.19 40.8299C245.81 40.4099 245.33 40.0899 244.8 39.8899C244.63 40.0699 244.67 40.3599 244.74 40.5899C244.88 41.0499 245.1 41.4899 245.38 41.8799C245.52 42.0699 245.69 42.2499 245.92 42.2899C246.29 42.3499 246.61 41.8699 246.43 41.5499" stroke="#1D1D1B" stroke-miterlimit="10" stroke-linejoin="round"/>
<path d="M244.96 42.0598C244.66 42.2798 244.83 42.7498 245.03 43.0698C245.16 43.2698 245.29 43.4698 245.49 43.5998C245.69 43.7298 245.97 43.7698 246.16 43.6298C246.36 43.4798 246.4 43.1898 246.3 42.9598C246.2 42.7298 245.99 42.5798 245.77 42.4698C245.5 42.3398 245.11 42.3198 244.98 42.5798C244.89 42.7698 245 42.9998 245.11 43.1798C245.35 43.5698 245.71 43.9998 246.17 43.9698C246.48 43.9498 246.75 43.6898 246.84 43.3798C246.92 43.0798 246.84 42.7398 246.66 42.4798C246.55 42.3198 246.4 42.1798 246.21 42.1698C245.83 42.1498 245.66 42.6298 245.65 43.0098C245.64 43.3598 245.68 43.7498 245.96 43.9598C246.3 44.2198 246.85 44.0098 247.03 43.6198C247.21 43.2298 247.1 42.7598 246.85 42.3998C246.812 42.3354 246.757 42.2833 246.69 42.2498C246.47 42.1598 246.29 42.4298 246.23 42.6598C246.14 43.0498 246.18 43.5398 246.52 43.7398C246.77 43.8898 247.09 43.8298 247.35 43.7198C247.77 43.5398 248.13 43.2398 248.37 42.8598C248.55 42.5798 248.65 42.1798 248.43 41.9298C248.15 41.6098 247.61 41.8098 247.28 42.0798C246.99 42.3198 246.73 42.6298 246.68 42.9998C246.63 43.3698 246.85 43.7898 247.22 43.8498C247.41 43.8798 247.59 43.8098 247.76 43.7298C248.306 43.465 248.766 43.0528 249.09 42.5398C249.21 42.3498 249.28 42.0498 249.08 41.9498C248.97 41.8898 248.83 41.9398 248.72 41.9998C248.29 42.2498 248.02 42.7498 248.04 43.2498C248.04 43.3098 248.05 43.3798 248.09 43.4298C248.18 43.5298 248.34 43.4798 248.45 43.4198C249.07 43.1098 249.57 42.5798 249.86 41.9498C249.95 41.7498 249.99 41.4598 249.79 41.3698C249.62 41.2898 249.43 41.4598 249.33 41.6098C249.21 41.7798 249.11 41.9798 249.09 42.1898C249.07 42.3998 249.16 42.6298 249.34 42.7298C249.61 42.8798 249.94 42.6998 250.16 42.4798C250.65 41.9798 250.85 41.2098 250.66 40.5298C250.61 40.3598 250.52 40.1698 250.35 40.1198C250.23 40.0898 250.1 40.1398 249.98 40.1998C249.19 40.6298 248.87 41.6198 248.86 42.5198C248.86 42.6198 248.86 42.7198 248.92 42.8098C249.05 42.9998 249.35 42.9198 249.55 42.7998C250.17 42.4298 250.7 41.8898 251.05 41.2498C251.14 41.0898 251.22 40.8998 251.18 40.7198C251.13 40.4998 250.89 40.3598 250.66 40.3698C250.43 40.3698 250.23 40.4898 250.06 40.6398C249.838 40.8477 249.676 41.1117 249.592 41.4038C249.507 41.696 249.503 42.0055 249.58 42.2998C249.61 42.4198 249.67 42.5498 249.78 42.6198C249.98 42.7498 250.24 42.6298 250.43 42.4898C250.66 42.3198 250.87 42.1198 251.06 41.8998C251.27 41.6498 251.44 41.3598 251.47 41.0398C251.5 40.7198 251.37 40.3698 251.08 40.2198C250.66 40.0098 250.16 40.3098 249.87 40.6798C249.41 41.2698 249.22 42.0698 249.37 42.7998C249.44 43.1198 249.69 43.4998 250.01 43.3998" stroke="#1D1D1B" stroke-miterlimit="10" stroke-linejoin="round"/>
<path d="M247.82 42.6599C247.726 42.563 247.608 42.4933 247.477 42.4581C247.347 42.4229 247.21 42.4235 247.08 42.4599C246.82 42.5399 246.62 42.7699 246.58 43.0299C247.04 42.7099 247.5 42.3999 247.96 42.0799C247.221 42.7634 246.59 43.5559 246.09 44.4299C246.81 44.1099 247.44 43.6099 248.07 43.1099C247.26 43.6499 246.59 44.3899 246.14 45.2399C246.49 45.1499 246.81 44.9199 247.01 44.6199C246.66 44.8899 246.46 45.3399 246.49 45.7799C247.01 45.3599 247.4 44.7699 247.59 44.1299C246.94 44.7499 246.56 45.6499 246.58 46.5499C247.07 46.0299 247.47 45.4199 247.76 44.7699C247.42 45.4099 247.09 46.0599 246.96 46.7699C247.72 45.8499 248.39 44.8499 248.95 43.7999C248.295 44.462 247.87 45.3176 247.74 46.2399C248.1 45.9799 248.32 45.5899 248.52 45.1899C248.92 44.3999 249.25 43.5799 249.52 42.7299C248.66 43.7199 248 44.8699 247.57 46.0999C247.51 46.2699 247.48 46.5099 247.64 46.5999C248.696 45.7323 249.558 44.6522 250.17 43.4299C250.27 43.2399 250.31 42.9299 250.1 42.8799C249.13 43.7799 248.54 45.0699 248.49 46.3899C249.02 46.2099 249.41 45.7499 249.72 45.2899C250.15 44.6699 250.51 43.9999 250.79 43.3099C250.86 43.1399 250.91 42.9099 250.75 42.8099C249.77 43.4899 249.1 44.5899 248.93 45.7599C248.91 45.8799 248.91 46.0199 249.01 46.0799C249.14 46.1599 249.29 46.0399 249.4 45.9299C250.42 44.8099 251.2 43.4799 251.69 42.0499C251.28 42.1499 251 42.5299 250.79 42.8999C250.45 43.4999 250.18 44.1299 249.98 44.7899C249.88 45.1299 249.83 45.5599 250.12 45.7599C250.99 44.5099 251.89 43.1999 252.11 41.6899C251.24 42.5999 250.83 43.9399 251.04 45.1899C251.57 44.6199 251.92 43.8899 252.03 43.1299C251.63 43.6999 251.35 44.3499 251.23 45.0399C251.61 44.8299 251.89 44.4399 251.96 44.0099C251.88 44.0199 251.81 44.0399 251.73 44.0499M236.98 43.5099C239.43 42.4299 242.48 42.9099 244.47 44.6899C245.04 45.1999 245.52 45.7899 245.95 46.4199C245.99 46.4699 246 46.3499 245.95 46.3099M241.3 42.5699C242.44 42.8799 243.55 43.2599 244.65 43.6999M225.77 82.3899C226.44 83.0099 226.83 83.8599 227.2 84.6999C227.65 85.7099 228.1 86.7499 228.15 87.8499C228.23 90.1499 226.44 92.1799 224.33 93.0999C222.22 94.0199 219.85 94.0699 217.55 94.0999C217.44 94.0999 217.31 94.0899 217.26 93.9899C217.21 93.8899 217.4 93.7899 217.42 93.8899M165.72 56.3399C165.93 57.5499 165.82 58.8099 165.41 59.9599M165.29 60.1299C166.52 60.4099 167.62 61.1299 168.56 61.9799C169.5 62.8299 170.3 63.8199 171.13 64.7699C171.29 64.9499 171.51 65.1499 171.74 65.0899C171.85 65.0599 171.94 64.9699 172.02 64.8799C172.57 64.2299 172.73 63.3399 172.87 62.4899M164.65 85.9099C166.12 84.9299 166.94 83.1499 167 81.3899C167.06 79.6299 166.43 77.8899 165.47 76.4099M2.71997 45.2799C9.46997 51.0999 16.22 56.9199 22.97 62.7499C22.78 62.4999 22.59 62.2499 22.4 61.9899" stroke="#1D1D1B" stroke-miterlimit="10" stroke-linejoin="round"/>
<path d="M3.07996 17.3901C10.74 28.3901 17.18 36.9501 24.84 47.9501L28.6 52.6701C30.21 54.3101 27.06 59.5301 23.61 62.3601C23.09 62.7901 21.56 61.8401 21.24 61.2501M24.84 71.1901C25.28 70.6901 25.91 70.3801 26.56 70.2801C27.21 70.1801 27.89 70.2701 28.52 70.4801M39.21 58.3001C38.68 58.4401 38.28 57.7301 37.73 57.7201C37.51 57.7201 37.29 57.8401 37.14 58.0001C36.64 58.5201 36.71 59.4101 37.14 59.9901C37.44 60.3901 37.69 60.6201 38.18 60.7201L38.65 61.0101M59.14 67.1901C57.68 67.3901 56.2 67.4101 54.73 67.2401C54.46 67.2101 54.18 67.1701 53.92 67.0801C53.2 66.8401 52.63 66.2601 51.92 66.0101L48.82 63.1601M25.16 68.5601C25.31 68.9801 25.77 69.1801 26.18 69.3401C29.4 70.5601 32.82 71.2201 36.26 71.3001" stroke="#1D1D1B" stroke-miterlimit="10" stroke-linejoin="round"/>
<path d="M38.41 60.8698L39.58 61.4698C40.06 61.7198 40.54 61.9698 40.95 62.3198C41.36 62.6698 41.68 63.1498 41.75 63.6798C41.81 64.1298 41.68 64.5898 41.48 64.9998C41.24 65.4998 40.86 65.9598 40.35 66.1798L40.26 66.3498C38.5072 67.6083 36.4077 68.293 34.25 68.3098C32.32 68.3198 30.42 67.7898 28.49 67.7598C27.36 67.7398 26.22 67.8898 25.13 68.2098M48.82 63.1698C48.06 62.4498 47.3 61.7198 46.45 61.1198C45.56 60.4898 44.59 59.9898 43.62 59.4998L43.16 59.2398C42.32 58.5998 41.94 58.1998 40.89 58.2498C40.35 58.2798 39.79 58.4998 39.28 58.3098L38.87 58.2798M24.61 71.5298C24.72 71.8198 25.02 71.9998 25.32 72.0698C25.62 72.1398 25.93 72.1198 26.24 72.1298C28.12 72.1898 29.79 73.4398 31.66 73.6198C32.45 73.6998 33.24 73.5798 34.04 73.5698C35.01 73.5498 35.99 73.6998 36.91 73.9898M29.58 73.6798C29.37 73.7098 29.16 73.7298 28.97 73.8298C28.78 73.9298 28.62 74.0998 28.61 74.3198C28.59 74.6898 28.99 74.9298 29.34 75.0398C29.73 75.1498 30.14 75.2098 30.55 75.1898C30.9 75.1798 31.24 75.1198 31.58 75.1398C32.17 75.1798 32.73 75.4498 33.33 75.4498C33.75 75.4498 34.15 75.3098 34.56 75.2198C35.47 75.0098 36.42 75.0098 37.35 75.0198L43.28 75.0498C44.36 75.1098 45.44 75.2498 46.52 75.1998C47.15 75.1698 47.77 75.0698 48.4 75.0598C50.48 75.0398 52.43 76.0398 54.5 76.2198M48.37 27.8198C48.65 27.8998 48.83 28.1998 48.84 28.4898C48.85 28.7798 48.75 29.0698 48.66 29.3398C48.2 30.6398 47.83 32.0398 48.18 33.3698C48.41 34.2298 48.92 34.9798 49.16 35.8298C49.38 36.5698 49.39 37.3498 49.46 38.1098C49.64 39.9098 50.19 41.6798 51.06 43.2698" stroke="#1D1D1B" stroke-miterlimit="10" stroke-linejoin="round"/>
<path d="M47.8 49.1499C46.75 48.8699 45.7 48.5899 44.64 48.3199C44.28 48.2299 43.93 48.1299 43.58 48.0099C42.63 47.6899 41.74 47.1799 40.81 46.8099C39.88 46.4399 39.65 46.1099 38.66 46.3199L37.93 46.3099C35.58 46.6499 33.24 46.9999 30.89 47.3399C30.49 47.3999 30.08 47.3599 29.67 47.3699C27.93 47.4199 28.21 46.3099 28.21 46.3099C29.4 45.2499 30.75 45.6599 32.28 45.2299C33.05 45.0099 33.79 44.7199 34.5 44.3599C34.92 44.1399 35.48 43.4399 35.41 42.9699C34.36 42.0999 32.86 42.1299 31.49 42.0299C29.73 41.8999 27.98 41.4899 26.35 40.8099C26.25 40.4599 26.47 40.0799 26.76 39.8799C27.06 39.6699 27.43 39.5999 27.78 39.5299L28.52 39.5199C29.65 39.4499 30.22 39.5599 31.32 39.7999C31.65 39.8699 31.98 39.9599 32.31 40.0299C33.23 40.2199 33.46 40.3099 34.4 40.2699L34.97 39.9199C35.1 39.9799 35.1 39.7199 35.01 39.6099C33.95 38.4499 32.26 38.1599 30.91 37.3499C30.59 37.1599 30.28 36.9299 29.93 36.7999C29.41 36.5999 28.83 36.5999 28.29 36.4399C27.75 36.2799 27.21 35.8799 27.19 35.3199C27.17 34.7599 27.52 34.6999 27.52 34.6999C28.33 34.2599 29.07 34.5699 29.97 34.7399C30.33 34.8099 30.68 34.9299 31.03 35.0399L36.01 36.7199L36.33 36.6399C36.47 36.6399 36.56 36.4699 36.54 36.3299C36.52 36.1899 36.42 36.0799 36.32 35.9699C35.6 35.1599 34.88 34.3599 34.16 33.5499C33.78 33.1299 33.4 32.6999 32.93 32.3599C32.34 31.9299 31.63 31.6599 31.12 31.1499C30.97 30.9999 30.82 30.7999 30.84 30.5799C30.86 30.3599 31.06 30.1799 31.27 30.1099L32.25 30.0699C33.36 30.0299 34.25 30.9099 35.13 31.5799C35.7 32.0099 36.31 32.3799 36.92 32.7399C38.19 33.4899 39.45 34.2499 40.72 34.9999L41.82 35.5099C42.35 35.6299 42.9 35.5299 43.42 35.3899C43.8 35.2899 44.19 35.1699 44.46 34.8799C44.7 34.6299 44.81 34.2899 44.89 33.9599C45.2 32.7499 45.24 31.4799 45.63 30.2899C45.63 30.2899 46.52 26.7799 48.36 27.8099M25.06 64.1499C26.7513 63.7877 28.2541 62.825 29.29 61.4399C30.319 60.0494 30.8125 58.3346 30.68 56.6099M23.61 62.3599C24.17 62.8099 24.72 63.2599 25.28 63.7099" stroke="#1D1D1B" stroke-miterlimit="10" stroke-linejoin="round"/>
<path d="M29.0399 53.9302C28.9899 54.5102 30.1799 55.5802 30.8899 56.7502C30.7799 56.7402 30.6699 56.7402 30.5599 56.7302M31.3099 56.8902C33.6499 58.3502 35.4699 60.6302 36.3499 63.2502C36.3799 63.3302 36.4299 63.4402 36.5199 63.4402C36.6099 63.4402 36.5899 63.2502 36.5199 63.3002M36.1799 63.8702C35.8499 65.1502 35.2499 66.3702 34.4499 67.4202M29.5499 76.1902C28.0099 78.6502 26.1499 80.9102 24.0199 82.8902C23.7699 83.1202 23.4799 83.3602 23.1399 83.3602C22.8299 83.3502 22.5699 83.1402 22.3299 82.9402C20.9699 81.7802 19.5199 80.4502 19.2799 78.6802C19.1599 77.8002 19.3499 76.9202 19.5499 76.0602C20.4999 71.8402 21.5399 67.4302 24.4299 64.2102" stroke="#1D1D1B" stroke-miterlimit="10" stroke-linejoin="round"/>
<path d="M22.37 69.4402C22.11 70.7002 21.86 71.9702 21.6 73.2302C21.9 71.5802 22.2 69.9202 22.51 68.2702C22.01 69.8402 21.51 71.4002 21.01 72.9702C21.36 72.0002 21.71 71.0202 22.06 70.0502C21.47 70.7602 21.18 71.7202 21.29 72.6402C21.88 71.0302 22.47 69.4102 23.06 67.8002C22.81 69.3702 22.56 70.9402 22.32 72.5102C22.67 71.3502 23.01 70.2002 23.36 69.0402C23.18 70.1502 23.01 71.2602 22.83 72.3702C23.05 71.3602 23.27 70.3402 23.48 69.3302C23.45 69.9602 23.5 70.5902 23.63 71.2102C23.77 70.5002 23.65 69.7502 23.29 69.1202C23.74 69.4202 24.13 69.8002 24.44 70.2402C24.45 69.8002 24.24 69.3602 23.89 69.1102C24.08 69.2402 24.32 69.3102 24.55 69.3102C24.5611 69.1978 24.5348 69.0849 24.4751 68.9891C24.4155 68.8932 24.3258 68.8198 24.22 68.7802C24.4 69.0902 24.78 69.2802 25.14 69.2402C24.98 69.1402 24.81 69.0302 24.65 68.9302C24.74 69.3802 25.28 69.6802 25.71 69.5402C25.57 69.4902 25.42 69.4402 25.28 69.3802C25.52 69.5302 25.26 69.9502 24.98 69.9002C24.7 69.8502 24.54 69.5602 24.45 69.2902C24.05 68.0902 24.27 66.7002 25.03 65.6902C24.55 66.7502 24.08 67.8102 23.6 68.8702C23.89 67.9002 24.18 66.9202 24.48 65.9502C23.89 66.5202 23.4 67.2102 23.07 67.9702C23.45 67.1602 23.83 66.3402 24.21 65.5302C23.97 65.8202 23.72 66.1002 23.48 66.3902C23.8558 65.6466 24.4394 65.0283 25.16 64.6102C25.13 64.8502 25.49 65.0102 25.65 64.8402C25.65 65.0102 25.74 65.1802 25.88 65.2802C25.9581 65.2058 26.01 65.1081 26.028 65.0018C26.046 64.8955 26.0292 64.7862 25.98 64.6902C25.71 65.2902 25.45 65.8902 25.18 66.4802C25.33 66.1802 25.47 65.8802 25.62 65.5902C25.14 66.1902 24.71 66.8302 24.32 67.4902C25.12 67.2902 25.87 66.9202 26.52 66.4202L24.72 67.5902C25.41 67.6302 26.12 67.4702 26.73 67.1502C26.37 67.2602 26.03 67.4302 25.72 67.6302C26.57 67.3702 27.41 67.1002 28.26 66.8402C27.69 66.8802 27.12 66.9102 26.55 66.9502C27.59 66.6302 28.66 66.4302 29.74 66.3602C28.6604 66.0682 27.5113 66.1821 26.51 66.6802C27.44 66.7202 28.36 66.0802 28.64 65.1902C27.77 65.8302 26.95 66.5102 26.16 67.2502C26.53 66.3302 27.14 65.5102 27.91 64.8902C27.19 65.8202 26.31 66.6102 25.32 67.2402C26.2 66.1802 27.08 65.1202 27.96 64.0502C27.01 64.9602 26.05 65.8702 25.1 66.7902C25.96 65.4702 26.9 64.1902 27.91 62.9702C27.22 63.6702 26.53 64.3602 25.84 65.0602C26.59 64.1802 27.45 63.3902 28.4 62.7302C28.07 63.1302 27.74 63.5402 27.41 63.9402C28.63 63.1702 29.69 62.1502 30.51 60.9602C30.05 61.4102 29.67 61.9402 29.41 62.5302C29.98 62.0202 30.51 61.4702 30.99 60.8802C30.44 61.5602 30.01 62.3302 29.7 63.1402C30.39 62.4002 30.99 61.5802 31.49 60.7002C30.59 62.0402 29.7 63.3802 28.8 64.7202C29.29 64.0202 29.78 63.3302 30.26 62.6302C30.15 62.9202 30.04 63.2102 29.92 63.5102C29.98 63.3902 30.04 63.2602 30.1 63.1402" stroke="#1D1D1B" stroke-miterlimit="10" stroke-linejoin="round"/>
<path d="M31.18 57.4901C31.26 58.5501 31.33 59.6001 31.41 60.6601C31.3399 59.5441 31.3499 58.4246 31.44 57.3101C31.58 58.3501 31.46 59.4301 31.1 60.4101C31.25 59.6101 31.26 58.7901 31.12 57.9901C30.67 58.9001 30.32 59.8601 30.08 60.8401C30.75 59.9401 31.31 58.9501 31.75 57.9101C31.76 58.5101 31.85 59.1201 32.03 59.7001C32.1 59.3001 32.13 58.9001 32.11 58.5001C32.24 59.5601 32.71 60.5701 33.44 61.3401C33.03 60.3201 32.55 59.3301 32 58.3801C32.84 59.3201 33.59 60.3401 34.25 61.4201C33.69 60.6101 33.05 59.8601 32.35 59.1701C33.43 59.7001 34.06 60.8101 34.62 61.8701C34.2075 61.3648 33.8706 60.8022 33.62 60.2001C34.23 61.2501 34.83 62.3101 35.39 63.3801C34.94 62.9901 34.59 62.4801 34.4 61.9101C34.87 62.4701 35.09 63.2401 34.98 63.9701L34.89 62.4401C34.97 63.4101 34.95 64.3901 34.81 65.3601C34.86 64.8701 34.91 64.3801 34.97 63.8901C34.95 64.6401 34.79 65.3801 34.51 66.0701C34.7162 65.1746 35.0968 64.3285 35.63 63.5801C35.21 64.5001 34.8 65.4301 34.38 66.3501C34.38 66.2101 34.39 66.0801 34.39 65.9401C34.24 66.4801 33.71 66.8501 33.16 66.9701C32.61 67.0901 32.04 67.0101 31.49 66.9301C30.97 66.8601 30.45 66.7801 29.93 66.7101C29.47 66.6401 28.94 66.6001 28.59 66.9101C30.4 67.1901 32.24 67.2301 34.06 67.0501C33.98 67.1601 33.89 67.2701 33.81 67.3901C34.1 67.1401 34.23 66.7201 34.12 66.3601" stroke="#1D1D1B" stroke-miterlimit="10" stroke-linejoin="round"/>
<path d="M35.08 63.13L33.34 66.58C33.84 65.34 34.25 64.06 34.55 62.75C34.59 62.59 34.61 62.4 34.48 62.31C34.29 62.17 34.06 62.41 33.95 62.62C33.27 63.97 32.79 65.42 32.53 66.9C33.4 65.11 33.95 63.16 34.12 61.17C33.98 61.03 33.77 61.23 33.69 61.4C32.89 62.98 32.25 64.63 31.79 66.34C32.73 64.82 33.35 63.1 33.59 61.33C33.23 61.34 32.97 61.68 32.79 61.99C31.9751 63.3803 31.5149 64.9498 31.45 66.56C32.47 64.7 33.05 62.59 33.13 60.47C32.59 60.56 32.25 61.1 32.01 61.6C31.31 63.06 30.81 64.62 30.53 66.21C31.22 64.95 31.83 63.64 32.36 62.29C32.6 61.68 32.82 61.06 32.87 60.41C31.6896 62.1519 30.7825 64.064 30.18 66.08C31.1889 63.9207 31.9085 61.6377 32.32 59.29C31.9 59.32 31.68 59.78 31.54 60.18L29.71 65.31C30.5 63.47 31.29 61.62 32.07 59.78C31 61.41 29.93 63.03 28.86 64.66C29.22 63.76 29.66 62.9 30.16 62.07C29.49 62.96 28.93 63.94 28.52 64.98C28.81 64.18 28.91 63.32 28.84 62.47C28.31 62.88 27.95 63.51 27.86 64.17C28.42 63.5 29.04 62.88 29.7 62.31C29.2484 63.3487 29.0104 64.4675 29 65.6C29.73 64.82 30.29 63.87 30.63 62.86C30.18 63.73 29.72 64.6 29.27 65.47L30.05 63.85C29.82 64.37 29.67 64.93 29.6 65.5C29.58 65.63 29.58 65.78 29.68 65.87C29.78 65.97 29.95 65.94 30.08 65.9C30.44 65.79 30.78 65.6 31.07 65.36C31.16 65.28 31.26 65.19 31.38 65.19C31.48 65.19 31.56 65.24 31.65 65.3C32.21 65.66 32.76 66.02 33.32 66.38C33.09 66.44 32.88 66.6 32.81 66.82C32.74 67.04 32.84 67.33 33.07 67.4C33.29 67.47 33.57 67.25 33.51 67.03C33.59 67.17 33.67 67.3 33.75 67.44C34.03 65.71 34.49 64 35.11 62.36C35.19 62.15 35.27 61.92 35.22 61.7C35.16 61.48 34.89 61.31 34.7 61.44M23.38 70.88C23.33 70.59 23.68 70.31 23.95 70.42L23.77 72.66L23.89 70.75C23.3 72.44 23.05 74.24 23.16 76.03C23.13 74.81 22.88 73.59 22.43 72.45V77.86C22.47 76.49 22.34 75.12 22.06 73.78C21.98 73.39 21.85 72.96 21.5 72.76C21.07 74.52 20.82 76.32 20.76 78.12C21.05 76.53 21.31 74.76 20.44 73.4C20.22 74.6 20.24 75.85 20.5 77.04C20.62 76.14 20.62 75.23 20.52 74.34C20.5 75.65 20.52 76.95 20.57 78.26C20.81 77.4 20.79 76.46 20.5 75.61C20.35 76.66 20.34 77.72 20.48 78.77C20.5 78.94 20.58 79.15 20.75 79.14C20.93 79.13 20.97 78.88 20.94 78.71C20.88 78.36 20.73 78.03 20.51 77.75C20.56 78.57 20.78 79.38 21.15 80.12C21.35 79.28 21.22 78.36 20.8 77.6C21.02 78.66 21.35 79.7 21.77 80.7C22.11 80.29 22.01 79.69 21.9 79.17C21.53 77.43 21.16 75.68 20.8 73.94C21.2 76.23 21.74 78.5 22.42 80.73C23 78.37 21.75 75.87 22.15 73.47C22.3 76.22 22.36 78.97 22.34 81.72C22.54 79.69 21.96 77.67 21.4 75.72C21.64 77.56 22.03 79.39 22.56 81.17C22.153 80.1918 21.441 79.3711 20.53 78.83C20.88 79.48 21.23 80.12 21.58 80.77C21.11 80.26 20.69 79.7 20.32 79.11C20.79 80.09 21.27 81.07 21.74 82.05C21.3941 80.9203 20.76 79.9002 19.9 79.09C20.6 80.02 21.33 80.93 22.1 81.81C22.22 81.56 22.34 81.31 22.47 81.07" stroke="#1D1D1B" stroke-miterlimit="10" stroke-linejoin="round"/>
<path d="M23.1401 81.9801V82.5201C23.1401 82.0801 23.1301 81.6301 23.1301 81.1901C23.1301 80.9701 23.0601 80.6901 22.8401 80.6801C22.7001 80.6801 22.5901 80.8201 22.5301 80.9501C22.4231 81.1844 22.3635 81.4376 22.355 81.6951C22.3464 81.9525 22.3889 82.2091 22.4801 82.4501C22.5201 82.5601 22.5801 82.6701 22.6901 82.7101C22.8701 82.7701 23.0301 82.5801 23.1201 82.4101C23.6601 81.3501 23.4201 79.9501 22.5701 79.1201C22.4101 80.0001 22.6501 80.9601 23.2201 81.6501C23.7101 81.0701 23.8701 80.2101 23.6101 79.5001C23.6201 80.0401 23.7001 80.5801 23.8401 81.1101C23.8601 81.2001 23.9001 81.2901 23.9701 81.3301C24.1501 81.4301 24.3201 81.1901 24.3801 80.9901C24.6401 80.1701 24.9001 79.2701 24.5901 78.4701C24.1486 79.5483 23.9309 80.7051 23.9501 81.8701C24.3401 81.1101 24.6501 80.3101 24.9001 79.4901C24.5501 80.1301 24.3101 80.8301 24.1801 81.5501C24.5501 81.5401 24.8601 81.1601 24.7901 80.7901C24.4101 80.7201 24.0901 81.2601 24.3301 81.5601C25.1101 80.4701 25.8501 79.3601 26.5601 78.2201C25.9701 78.8001 25.5301 79.5201 25.3001 80.3101C26.2301 79.2401 27.0501 78.0801 27.7501 76.8501C27.0701 77.8101 26.4801 78.8501 26.0101 79.9301C26.6501 79.0001 27.2601 78.0501 27.8401 77.0801C27.4001 77.5301 27.0301 78.0501 26.7401 78.6101C27.2201 78.0601 27.5701 77.4001 27.7701 76.6901C26.6501 77.9901 25.6901 79.4101 24.7301 80.8201C25.1501 79.0901 25.8401 77.4301 26.7801 75.9201C25.6801 77.6201 24.6601 79.3701 23.7201 81.1601C24.5201 79.0301 25.3101 76.8901 26.1101 74.7601C24.9201 76.3601 23.9001 78.0901 23.0801 79.9101C24.0301 77.8401 24.9801 75.7601 25.6901 73.6001C24.4901 75.1801 23.5701 76.9601 22.9701 78.8401C23.4201 77.2601 23.8801 75.6701 24.3301 74.0901C24.1501 73.9501 23.9101 74.2001 23.8201 74.4201C23.3405 75.5372 22.9297 76.6827 22.5901 77.8501C23.0501 76.4801 23.5101 75.1001 23.6601 73.6601C22.9803 74.713 22.6128 75.9369 22.6001 77.1901C23.1301 75.7801 23.4601 74.3001 23.5801 72.8101C23.1601 73.4701 23.0801 74.3401 23.3601 75.0601" stroke="#1D1D1B" stroke-miterlimit="10" stroke-linejoin="round"/>
<path d="M23.86 71.88C23.8 71.95 23.76 71.75 23.85 71.76C23.94 71.77 23.97 71.89 23.98 71.98C24.05 72.86 24.09 73.77 24.5 74.55C24.23 73.52 23.89 72.52 23.47 71.54C24.6 72.18 24.44 74.03 25.51 74.76C24.96 74 24.42 73.24 23.87 72.48C24.58 73.23 25.38 73.89 26.24 74.45C25.63 73.81 25.02 73.18 24.41 72.54C25.26 73.17 26.12 73.8 26.97 74.43C26.3 73.67 25.53 73.01 24.67 72.47C25.42 72.8 26.14 73.22 26.79 73.72L25.63 72.83C26.26 73.06 26.88 73.29 27.51 73.52C27.29 73.36 27.07 73.19 26.86 73.03C27.13 73.28 27.48 73.45 27.85 73.49C27.6 73.41 27.35 73.33 27.11 73.26C27.43 73.37 27.8 73.32 28.08 73.13C27.54 73.66 27.21 74.4 27.18 75.16C27.38 74.96 27.35 74.58 27.12 74.42C26.83 75.34 26.75 76.32 26.87 77.28C26.99 76.44 26.78 75.56 26.29 74.87C26.41 75.69 26.6 76.51 26.87 77.29C27.16 76.51 27.32 75.68 27.33 74.85C27.8 75.16 28.04 75.77 27.92 76.31C28.14 75.59 28.17 74.8 28 74.07L28.03 76.59C28.15 76.07 28.1 75.51 27.88 75.02C28.08 75.57 28.28 76.13 28.48 76.68C28.44 76.45 28.41 76.2 28.47 75.98C28.53 75.75 28.73 75.54 28.96 75.54C28.96 75.74 28.89 75.94 28.76 76.1C28.91 76 28.97 75.8 28.9 75.64" stroke="#1D1D1B" stroke-miterlimit="10" stroke-linejoin="round"/>
<path d="M108.5 38.0498C107.28 37.8998 105.77 40.2498 105.06 41.2598C104.31 42.3198 104.12 43.8298 103 44.4898C100.85 45.7498 98.3099 42.4598 95.9499 43.2498C95.5799 43.3798 95.2299 43.5998 94.8399 43.6498C93.6799 43.7998 92.99 42.4598 92.68 41.3498C92.38 40.2398 91.81 38.8798 90.64 38.8898C90.19 38.8898 89.78 39.1198 89.39 39.3398C88.1 40.0598 86.82 40.7798 85.53 41.4998C84.9 41.8598 83.88 42.3898 83.21 42.9498M83 43.0598C82.38 43.0498 82.09 42.3298 81.97 41.7398C81.43 39.1398 81.2799 36.4498 81.5199 33.7798" stroke="black" stroke-miterlimit="10" stroke-linecap="round" stroke-linejoin="round"/>
<path d="M81.23 34.6501C81.38 31.9701 81.7 28.9501 83.75 27.4501C86.42 25.5101 90.29 27.2701 93.6 26.8501C95.66 26.5901 97.46 25.4701 99.45 24.9301C103.48 23.8501 108.4 25.5601 110.8 29.3701C113.05 32.9401 112.82 37.4101 112.51 41.5101C112.33 43.7901 112.06 46.2901 110.43 47.7301C108.701 45.2623 107.239 42.6174 106.07 39.8401" stroke="black" stroke-miterlimit="10" stroke-linecap="round" stroke-linejoin="round"/>
<defs>
<linearGradient id="paint0_linear_1230_3721" x1="92" y1="24" x2="155.5" y2="106.5" gradientUnits="userSpaceOnUse">
<stop offset="0.234375" stop-color="#9958FF"/>
<stop offset="1" stop-color="#6906E0"/>
</linearGradient>
</defs>
</svg>
