<svg width="220" height="277" viewBox="0 0 220 277" fill="none" xmlns="http://www.w3.org/2000/svg">
<path d="M136.16 51.7102C137.32 54.5802 136.29 56.7802 136.23 59.8802L136.11 66.0102C136.1 66.5102 136.14 67.1002 136.58 67.3402C136.84 67.4802 137.15 67.4502 137.44 67.4202C139.47 67.2102 141.55 67.3902 143.51 67.9602M126.31 25.6802C127.56 27.3502 128.01 29.4902 128.07 31.5802C128.12 33.6602 127.81 35.7402 127.68 37.8202C127.54 40.1102 127.63 42.4202 127.95 44.6902" stroke="#FFD000" stroke-miterlimit="10" stroke-linejoin="round"/>
<path d="M127.4 28.83C128.15 34.05 125.7 39.25 125.97 44.51C126.05 46.15 126.4 47.77 126.75 49.38C127.03 50.67 127.31 51.96 127.58 53.25C127.71 53.84 127.85 54.46 128.25 54.91C128.96 55.72 130.22 55.72 131.26 55.47C133.7 54.87 135.9 53.23 138.41 53.25C138.81 57.02 137.86 59.85 137.53 63.63C137.4 65.13 137.38 66.98 138.69 67.73C139.06 67.94 139.49 68.02 139.91 68.07C142 68.34 144.17 68 146.08 67.1C146.32 66.99 146.55 66.87 146.72 66.66C146.93 66.4 146.98 66.06 147.03 65.74C149.13 51.88 152.06 38.96 155.03 25.25L149.76 25.73C143.92 26.27 138.05 26.8 132.2 26.42C130.47 26.31 128.66 26.13 127.04 26.74C127.69 27.79 127.84 29.15 127.43 30.32" fill="#DBB288"/>
<path d="M138.53 54.6001C138.45 56.1001 137.58 56.6301 137.86 58.1101C137.28 56.1801 137.8 55.1901 137.47 53.2001C137.63 54.3101 136.81 54.4301 136.97 55.5301C136.72 54.4001 137.54 54.2301 137.48 53.0701C137.5 54.6101 136.63 55.1601 136.84 56.6801C136.6 55.1601 137.35 54.6201 137.11 53.1001C137.27 54.5001 136.44 54.9201 136.6 56.3301C136.63 54.8601 137.46 54.3601 137.12 52.9301C137.56 54.5801 137.02 55.2401 137.46 56.8801C137.51 54.9801 138.43 54.0701 138.24 52.1801C138.36 54.0901 137.5 55.0101 137.62 56.9101C137.53 54.8301 138.23 53.7401 137.78 51.7101C137.72 54.1101 136.8 55.5301 137 57.9201C137.01 55.7801 137.87 54.6201 137.62 52.4901C137.54 55.7801 136.79 58.0901 137.34 61.3301C137.25 58.5901 137.94 56.8501 137.43 54.1601C137.45 57.0101 136.5 58.8701 136.52 61.7201C136.22 59.2601 137.16 57.7501 137.38 55.2801C137.13 58.3001 136.08 60.3601 136.2 63.3901C136.12 60.8101 136.04 58.2301 135.97 55.6601C135.9 58.2701 135.92 60.8701 136.05 63.4801L135.45 58.0501C135.82 60.1501 136.14 62.2601 136.43 64.3701C136.32 62.9801 136.22 61.5801 136.11 60.1901C136.04 62.0401 136.12 63.9001 136.36 65.7301C136.44 64.0601 136.63 62.3901 136.93 60.7401C136.43 62.5601 136.27 64.4801 136.46 66.3701C136.76 64.4001 137.07 62.4301 137.37 60.4601C136.99 62.2601 136.82 64.1001 136.86 65.9401C137.37 64.5601 137.68 63.1001 137.77 61.6301C137.29 62.9801 137.02 64.4001 136.99 65.8301C137.22 64.8101 137.45 63.7801 137.69 62.7601C137.39 63.6301 137.24 64.5501 137.27 65.4701C137.51 65.2501 137.49 64.8201 137.24 64.6201C137.36 64.6901 137.21 64.9001 137.07 64.8601C136.93 64.8201 136.87 64.6601 136.83 64.5301C136.32 62.8001 136.4 60.9601 136.33 59.1601C136.23 56.2901 136.73 54.4101 135.9 51.6701C135.34 52.1001 135.48 52.9701 135.64 53.6501C136.57 57.5001 135.63 60.5201 135.81 64.4801C135.85 65.3401 136 66.3701 136.79 66.7201C137.21 66.9101 137.74 66.8201 138.08 66.5101C137.72 66.2901 137.36 66.0801 136.99 65.8601C137.81 66.3501 138.8 66.5601 139.75 66.4401M126.04 25.2901C135.42 25.9801 144.95 24.3201 154.21 25.9701C147.813 27.4509 141.229 27.9599 134.68 27.4801C138.79 25.7001 143.86 27.7401 147.89 25.7901C141.09 27.4701 133.93 25.3001 126.95 25.8801C127.06 26.2401 127.29 26.6801 127.66 26.6201C127.77 26.6001 127.86 26.5401 127.95 26.4801C129.45 25.5201 131.37 25.2401 133.09 25.7301C132.2 26.2301 131.2 26.5201 130.19 26.5701C133.05 26.3101 135.91 26.0501 138.77 25.7801C141.62 25.5201 144.53 25.2601 147.31 25.9401" stroke="#FFD000" stroke-miterlimit="10" stroke-linejoin="round"/>
<path d="M80.39 117.11C81.72 115.59 83.2 114.19 84.45 112.61C85.43 111.37 85.93 109.71 87.04 108.63C88.96 106.76 90.34 104.53 91.9 102.42C94.07 99.4899 96.05 96.4099 98.14 93.4199C98.83 92.4299 99.66 91.5299 100.37 90.5399C102.76 87.1799 105.12 83.7899 107.5 80.4199C108.83 78.5399 110.19 76.6699 111.57 74.8099C111.89 74.3799 112.27 73.8599 112.73 73.6999C113.72 73.3699 113.98 72.6099 114.32 71.7699C115.03 69.9899 116.28 68.6399 118.03 67.8299C119.21 67.2899 120.49 66.9499 120.81 65.3899C120.88 65.0599 121.46 64.8199 121.83 64.5899C122.37 64.2599 123.21 64.1199 123.43 63.6599C123.8 62.9099 124.11 63.1699 124.61 63.3199C125.1 63.4699 125.63 63.4699 126.01 63.5199C126.03 62.9199 125.93 62.5299 126.08 62.3199C126.38 61.8899 126.89 61.6099 127.17 61.1799C127.93 60.0199 128.8 60.2399 129.86 60.7199C130.79 61.1399 131.82 61.3599 132.82 61.5599C133.92 61.7699 135.05 61.8499 136.17 61.9999C138.14 62.2599 140.14 62.8399 142.09 62.7099C144.77 62.5299 147.41 61.7799 150.08 61.3199C151.22 61.1199 152.61 60.5699 153.47 61.0099C154.38 61.4699 154.79 62.9099 155.45 63.9699C157.01 63.9699 158.4 64.5499 159.24 66.0799C160.04 67.5399 160.75 69.0599 161.52 70.5399C162.59 72.5999 163.71 74.6399 164.74 76.7199C164.9 77.0499 164.85 77.6399 164.66 77.9599C164.08 78.8899 164.22 79.6899 164.82 80.5199C165.04 80.8199 165.15 81.1999 165.29 81.5499C167.31 86.7299 169.33 91.9099 171.34 97.0899C172.67 100.52 173.96 103.95 175.3 107.38C175.58 108.08 176.01 108.72 176.3 109.42C177.54 112.35 177.82 112.89 179 115.85C179.71 117.63 176.12 118.54 176.75 120.35C178.13 124.32 174.68 120.7 176.01 124.68C175.63 126.04 172.46 125.84 171.47 126.24C170.58 126.6 169.87 125.48 167.65 126.05C166.62 126.31 167.48 125.82 166.37 125.43C165.22 125.03 165.65 124.55 165.27 123.73C164.26 123.79 164.86 122.61 163.79 122.68C159.6 116.33 166.15 128.01 162.73 120.78C162.62 121.6 162.32 122.52 162.64 123.11C163.8 125.23 163.13 127.47 163.18 129.62C163.22 131.6 162.67 133.62 160.7 134.8C160.52 134.91 160.4 135.1 160.23 135.22C158.31 136.6 156.54 138.35 154.41 139.24C151.79 140.33 148.88 140.71 146.08 141.35C145.61 141.46 144.89 141.09 144.61 141.33C143.37 142.39 141.97 142.1 140.55 142.1C136.03 142.11 131.98 140.59 128.04 138.54C126.44 137.71 124.66 137.24 122.96 136.62C122.38 136.41 121.71 135.94 121.23 136.08C119.81 136.49 119.67 135.49 119.35 134.64C119.23 134.33 119.21 133.99 119.12 133.54C118.43 133.62 117.78 133.69 117.16 133.75C117.01 132.34 116.84 130.82 116.68 129.31C116.26 129.54 115.94 129.72 115.52 129.94C114.83 121.8 114.17 113.88 113.46 105.54C112.68 106.16 112.22 106.52 111.77 106.88C111.73 106.8 111.66 106.62 111.56 106.4C110.79 107.15 110.03 107.88 109.28 108.62C107.93 109.96 106.66 111.37 105.25 112.64C103.05 114.61 100.76 116.48 98.52 118.4C96.97 119.73 95.41 121.05 93.91 122.43" fill="url(#paint0_linear_1230_3746)"/>
<path d="M118.09 100.93C116.44 102.54 114.78 104.15 113.13 105.75M159.59 112.37C160.8 115.08 162.13 117.74 163.57 120.33M114.71 192.76C115.72 206.38 111.23 219.72 108.7 232.85C107.59 240.88 117.69 242.75 123.44 241.14C128.29 212.92 135.2 185.47 148.43 160.06M132.87 199.38C148.09 198.33 163.49 197.28 178.52 199.92" stroke="#080908" stroke-miterlimit="10" stroke-linejoin="round"/>
<path d="M105.93 109.17C104.73 109.37 105.23 109.17 104.83 109.68C104.74 109.63 103.46 109.58 103.48 109.79C103.49 109.83 103.74 109.81 103.73 109.93C103.45 110.15 103.19 109.85 102.94 109.81C103.02 109.82 103.54 110.23 103.28 110.25C102.66 110.31 102.9 109.81 102.38 110.26C102.2 110.42 102.61 110.6 101.97 110.5C101.9 110.48 100.53 111.92 100.56 112.08C100.61 112.34 100.07 111.9 100.1 111.91C99.91 112.34 98.96 113.43 98.34 113.73C98.26 113.81 98.17 113.89 98.09 113.97C98.18 114.05 98.25 114.12 98.1 114.26C97.99 114.27 97.88 114.27 97.78 114.25C97.67 114.35 97.55 114.44 97.44 114.53C97.59 114.94 97.38 114.92 97.07 114.82C97.05 114.83 97.04 114.85 97.02 114.86C96.96 114.96 96.9 115.06 96.83 115.16C97 115.26 97.11 115.38 97.04 115.53C97.05 115.51 96.9 115.45 96.7 115.37C96.69 115.39 96.67 115.41 96.66 115.44C96.85 115.56 96.96 115.68 96.87 115.79C96.7405 115.796 96.6112 115.776 96.49 115.73C96.58 115.81 96.59 115.92 96.52 116.04C96.4738 116.05 96.4261 116.05 96.38 116.04C96.37 116.06 96.36 116.09 96.34 116.11C96.23 116.27 96.12 116.42 96 116.57C96 116.58 96.01 116.58 96.01 116.59C96.01 116.67 95.95 116.73 95.86 116.76L95.65 117.03C95.65 117.07 95.65 117.1 95.66 117.1C95.65 117.1 95.63 117.1 95.6 117.09L95.59 117.1C95.55 117.16 95.5 117.21 95.46 117.27L95.47 117.28C95.47 117.31 95.45 117.32 95.42 117.34C95.08 117.78 94.74 118.23 94.41 118.67C94.33 118.77 94.21 118.85 94.07 118.91C93.84 119.18 93.48 119.46 93.19 119.8C93.05 119.96 92.75 120.44 92.43 120.67C92.38 120.75 92.34 120.83 92.3 120.91C92.25 121 92.17 121.09 92.08 121.16C92.02 121.63 90.54 121.32 90.13 121.43C89.32 121.64 89.26 121.42 88.23 121.03C86.64 120.42 82.64 118.8 76.37 115.07C73.96 113.63 71.45 112.46 68.99 111.01C68.71 110.85 65.48 108.27 65.48 108.27C66.88 108.02 67.22 106.42 68.81 106.25C68.31 105.7 69.2 106.24 69.32 105.93C69.49 105.47 67.33 104.63 67.48 103.93C67.58 103.47 68.37 104.22 68.14 103.6C68.33 104.11 68.92 103.58 68.74 103.59C68.99 103.58 69.55 103.9 69.66 103.95C69.5 103.77 69.89 103.78 69.89 103.77C69.73 103.72 69.6 103.64 69.47 103.56C69.6517 103.52 69.8416 103.541 70.01 103.62C69.88 103.54 69.8 103.45 69.77 103.34C70.11 103.51 70.46 103.66 70.82 103.8C70.67 103.71 70.63 103.61 70.71 103.49C71.15 103.4 70.99 103.56 71.42 103.56C71.1998 103.473 70.9967 103.347 70.82 103.19C70.83 103.11 72.01 102.87 72.37 102.46C72.57 102.24 73.2 101.15 73.22 100.93C73.03 100.87 72.94 100.78 72.95 100.66C73.63 100.91 73.45 100.06 73.92 100.21C72.91 99.5199 74.45 99.5499 74.62 99.4099C74.79 99.2599 74.84 98.6199 74.79 98.6399C76.27 98.0699 75.8 98.6599 77.52 98.8899C77.52 98.7999 76.91 98.4699 77.75 98.7399M175.04 124.63C174.79 123.98 175 124.25 174.53 124.04C174.57 123.99 174.54 123.3 174.36 123.31C174.32 123.31 174.36 123.45 174.25 123.45C174.04 123.3 174.3 123.16 174.31 123.02C174.31 123.06 173.97 123.35 173.93 123.21C173.84 122.88 174.3 123 173.87 122.73C173.72 122.63 173.58 122.85 173.63 122.51C173.65 122.47 172.28 121.74 172.14 121.76C171.91 121.79 172.27 121.5 172.27 121.51C171.88 121.41 170.85 120.9 170.55 120.57C170.47 120.53 170.39 120.48 170.32 120.44C170.25 120.49 170.2 120.53 170.07 120.45C170.052 120.395 170.049 120.336 170.06 120.28L169.79 120.1C169.43 120.18 169.44 120.07 169.51 119.9C169.499 119.888 169.485 119.877 169.47 119.87C169.38 119.84 169.28 119.8 169.19 119.77C169.11 119.86 169 119.92 168.87 119.88C168.89 119.88 168.94 119.81 169 119.69C168.98 119.68 168.96 119.67 168.94 119.67C168.85 119.77 168.74 119.83 168.64 119.78C168.629 119.712 168.64 119.642 168.67 119.58C168.6 119.63 168.51 119.64 168.39 119.6C168.38 119.58 168.38 119.55 168.38 119.53C168.36 119.52 168.33 119.52 168.31 119.51C168.16 119.45 168.02 119.39 167.88 119.33L167.87 119.34C167.8 119.34 167.74 119.31 167.71 119.26C167.63 119.22 167.54 119.18 167.46 119.15H167.4C167.4 119.15 167.4 119.14 167.41 119.12C167.41 119.12 167.4 119.12 167.4 119.11C167.35 119.09 167.29 119.06 167.24 119.04C167.22 119.04 167.2 119.03 167.18 119.01C166.77 118.83 166.35 118.65 165.94 118.47C165.85 118.43 165.771 118.368 165.71 118.29C165.46 118.17 165.19 117.98 164.86 117.82C164.71 117.75 164.27 117.59 164.04 117.42C163.97 117.4 163.89 117.37 163.82 117.35C163.734 117.322 163.654 117.282 163.58 117.23C163.16 117.2 163.35 116.4 163.23 116.18C162.99 115.74 163.19 115.71 163.49 115.15C163.95 114.29 165.18 112.12 168.17 108.71C169.32 107.4 170.23 106.04 171.4 104.7C171.53 104.55 173.66 102.79 173.66 102.79C173.96 103.54 175.41 103.72 175.65 104.58C176.11 104.3 175.68 104.79 175.97 104.85C176.39 104.94 177.02 103.77 177.66 103.85C178.08 103.9 177.45 104.33 177.99 104.2C177.54 104.31 178.05 104.62 178.04 104.52C178.06 104.65 177.81 104.96 177.77 105.02C177.92 104.93 177.93 105.14 177.94 105.14C177.98 105.06 178.04 104.98 178.11 104.91C178.16 105.01 178.15 105.11 178.09 105.2C178.15 105.13 178.23 105.09 178.33 105.07C178.2 105.25 178.08 105.45 177.97 105.64C178.04 105.56 178.13 105.54 178.24 105.58C178.35 105.82 178.19 105.73 178.21 105.96C178.28 105.83 178.38 105.73 178.51 105.63C178.58 105.63 178.86 106.27 179.25 106.46C179.46 106.57 180.47 106.9 180.66 106.91C180.7 106.81 180.78 106.76 180.89 106.76C180.71 107.13 181.46 107.03 181.35 107.28C181.91 106.73 181.97 107.56 182.1 107.65C182.24 107.74 182.82 107.77 182.8 107.74C183.39 108.53 182.84 108.28 182.73 109.22C182.81 109.22 183.07 108.89 182.88 109.34" fill="#3345E3"/>
<path d="M52.21 92.3301C52.51 94.4601 53.81 96.4301 55.65 97.5401C56.61 98.1201 57.68 98.4701 58.72 98.8701C61.99 100.12 65.05 101.89 67.76 104.09" stroke="#080908" stroke-miterlimit="10" stroke-linejoin="round"/>
<path d="M52.34 92.4298C52.1 91.7598 51.99 91.0498 52.01 90.3398C52.01 90.2798 52.02 90.2198 52.04 90.1598C52.07 90.0998 52.13 90.0598 52.18 90.0198C52.46 89.8198 52.76 89.6498 53.08 89.5098C53.22 89.4498 53.37 89.3998 53.51 89.3398C53.71 89.2598 53.92 89.1898 54.12 89.1098C54.49 88.9698 54.85 88.8398 55.22 88.6998C55.44 88.6198 55.7 88.5398 55.89 88.6698M56.06 88.6598C57.14 88.9998 58.16 89.5198 59.07 90.1998C59.3 90.3798 59.54 90.5798 59.61 90.8598M59.49 91.1098C59.58 91.3298 59.42 91.5898 59.2 91.6898C58.98 91.7898 58.73 91.7698 58.49 91.7498C58.02 91.7098 57.56 91.6698 57.1 91.5698C56.62 91.4698 56.08 91.3098 55.69 91.5898C55.45 91.7598 55.33 92.0598 55.23 92.3398" stroke="#080908" stroke-miterlimit="10" stroke-linejoin="round"/>
<path d="M54 88.7299C54.04 88.1799 54.15 87.6399 54.32 87.1199C54.42 86.7999 54.55 86.4799 54.81 86.2599C54.96 86.1299 55.15 86.0499 55.34 85.9699C56.79 85.4199 58.47 85.5099 59.85 86.2199C61.23 86.9299 62.29 88.2299 62.7 89.7299" stroke="#080908" stroke-miterlimit="10" stroke-linejoin="round"/>
<path d="M58.0801 88.5698C58.5601 88.6398 58.9501 88.9998 59.4301 89.0698C59.6001 89.0998 59.7801 89.0897 59.9601 89.0897C60.8301 89.0997 61.6901 89.3998 62.3901 89.9198M55.5601 85.2098C55.5901 85.2898 55.6301 85.3798 55.6601 85.4598C55.6401 84.9098 55.6701 84.3498 55.7501 83.7998C55.7701 83.6798 55.7901 83.5598 55.8901 83.4798C55.9801 83.3998 56.1201 83.4098 56.2401 83.4198C57.7201 83.5198 59.2301 83.6298 60.5901 84.2098C61.2001 84.4698 61.8001 84.8498 62.1301 85.4298C62.4601 86.0098 62.5101 86.7898 63.0601 87.1798M63.1001 87.6798C63.0578 87.8311 62.9749 87.968 62.8603 88.0755C62.7457 88.1831 62.6038 88.2572 62.4501 88.2898" stroke="#080908" stroke-miterlimit="10" stroke-linejoin="round"/>
<path d="M53.6999 87.6001L52.9199 83.6001C52.8917 83.4889 52.8883 83.3728 52.9099 83.2601C52.9599 83.1001 53.1199 83.0101 53.2699 82.9301C54.3899 82.3201 55.6199 81.7201 56.8799 81.8701C58.1999 82.0201 59.2799 82.9601 60.2699 83.8501M63.4799 87.1701C65.3299 88.1701 66.6399 89.9301 67.6999 91.7501C68.7599 93.5701 69.6299 95.5001 70.9199 97.1601C71.7399 98.2201 72.7199 99.1401 73.6899 100.06M54.7299 81.8901C54.6099 81.6001 54.4999 81.2801 54.5599 80.9601C54.6099 80.6501 54.8699 80.3501 55.1899 80.3501C55.3399 80.3501 55.4899 80.4201 55.6399 80.4501C55.7199 80.4701 55.8099 80.4701 55.8699 80.5201C55.9399 80.5701 55.9699 80.6501 55.9999 80.7201C56.1299 81.0301 56.2599 81.3501 56.3899 81.6601M170.09 107.32C170.73 106.53 171.02 105.5 171.08 104.49C171.14 103.48 170.99 102.46 170.84 101.46C170.72 100.67 170.61 99.8801 170.49 99.0901C170.28 97.6501 170.07 96.1501 170.51 94.7701M170.41 94.1001C170.46 92.8101 170.67 91.5401 170.87 90.2701C170.93 89.9201 170.98 89.5701 171.14 89.2501C171.29 88.9301 171.55 88.6501 171.89 88.5501C172.32 88.4301 172.77 88.6201 173.17 88.8001M173.92 91.1701C174.17 90.6701 173.95 90.0601 174 89.5001C174.07 88.8201 174.54 88.2601 174.99 87.7401C175.13 87.5801 175.27 87.4201 175.45 87.3101C175.84 87.0801 176.32 87.1101 176.77 87.1601C176.88 87.1701 176.99 87.1801 177.07 87.2501C177.18 87.3301 177.22 87.4801 177.25 87.6101C177.41 88.3301 177.51 89.0701 177.54 89.8201M177.31 87.1401C177.51 86.5201 178.02 86.0201 178.61 85.7401C179.2 85.4601 179.87 85.3801 180.52 85.4101C180.65 85.4201 180.79 85.4301 180.92 85.4801C181.13 85.5701 181.28 85.7701 181.39 85.9701C181.99 87.0001 182.11 88.2501 182.05 89.4501M181.22 85.1701C181.28 84.7901 181.38 84.4101 181.59 84.0901C181.79 83.7601 182.11 83.5001 182.48 83.4201C182.85 83.3401 183.24 83.4601 183.59 83.6201C183.99 83.8101 184.37 84.0701 184.62 84.4401" stroke="#080908" stroke-miterlimit="10" stroke-linejoin="round"/>
<path d="M184.57 84.3502C185.78 85.6002 185.99 87.4802 186.12 89.2102C186.22 90.4402 186.32 91.6802 186.41 92.9102M185.52 85.4302C185.55 85.1302 185.58 84.8302 185.72 84.5702C185.86 84.3102 186.14 84.1002 186.44 84.1402C186.7 84.1702 186.91 84.3902 187.02 84.6402C187.13 84.8802 187.15 85.1502 187.2 85.4202C187.27 85.7902 187.37 86.1602 187.52 86.5102M187.54 86.6202C188.96 89.6202 189.07 93.2202 187.84 96.3102" stroke="#080908" stroke-miterlimit="10" stroke-linejoin="round"/>
<path d="M179.89 109.37C181.53 107.54 182.25 105.09 183.34 102.89C184.56 100.44 186.26 98.2701 187.95 96.1201" stroke="#080908" stroke-miterlimit="10" stroke-linejoin="round"/>
<path d="M83.33 101.24C83.55 100.12 85.28 99.95 86.07 100.77C86.86 101.59 86.91 102.87 86.77 104C86.45 106.54 85.4 108.93 84.36 111.28C82.83 114.73 81.31 118.18 79.78 121.63M88.57 102.96C88.99 102.26 89.74 101.76 90.55 101.66M90.74 101.93C92.2 102.84 92.24 104.92 92.07 106.64C91.52 112.39 90.6 118.11 89.32 123.75M79.3 99.3201C79.53 98.6301 80.56 98.3801 81.09 98.8801M81.29 99.0801C83.01 101.73 82.36 105.24 81.29 108.21C80.14 111.39 78.59 114.43 76.68 117.23M85.05 124.49L88.92 127.13M89.29 127.12L95.26 124M85.11 124.58C83.31 136.12 81.5 147.66 79.7 159.2M95.47 124.11C97.38 139.5 99.28 154.89 101.19 170.28M79.79 158.81C78.87 163.21 78.87 167.82 77.26 172.02M77.4 171.94C78.75 171.63 80.11 171.32 81.46 171L83.03 170.64L90.19 168.99M90.29 168.94L92.79 169.27C93.75 169.4 94.72 169.53 95.66 169.78C96.24 169.94 96.81 170.14 97.38 170.34C98.52 170.74 99.66 171.15 100.8 171.55C100.83 171.56 100.86 171.57 100.9 171.58M76.27 122.16C77.24 122.93 78.28 123.61 79.37 124.18M79.31 124.51C80.55 124.35 81.8 124.27 83.05 124.25M75.69 122.48C74.8 124.15 74.35 126 73.9 127.84C70.33 142.32 66.2 156.66 61.52 170.82M83.19 124.57C80.06 140.68 77.2 156.85 74.62 173.06M61.48 171C63.86 169.93 66.56 169.87 69.13 169.4C69.39 169.35 69.67 169.29 69.83 169.07M70.11 169.24C71.34 170.64 72.63 171.99 73.98 173.27M72 120.39C72.62 122.12 73.39 123.79 74.31 125.38M71.52 120.63C66 136.43 60.48 152.24 54.97 168.04" stroke="#1D1D1B" stroke-miterlimit="10" stroke-linejoin="round"/>
<path d="M55 167.69C56.23 166.99 57.5 166.38 58.82 165.87C59 165.8 59.19 165.73 59.38 165.77C59.54 165.8 59.67 165.91 59.79 166.02C60.5 166.64 61.13 167.35 61.66 168.13M75.13 170.8C75.7043 171.464 76.3958 172.016 77.17 172.43C77.17 172.3 77.11 172.17 77.01 172.09M67.1 170.35C69.06 171.29 71.02 172.22 72.97 173.16M73.97 120.08C74.78 120.83 75.59 121.58 76.4 122.32M74.16 119.81C75.74 120.42 77.3 121.1 78.83 121.85M79.66 121.85C80.92 122.88 82.31 123.73 83.8 124.39M86.45 122.66C88.19 122.86 89.91 123.21 91.62 123.56C92.63 123.77 93.64 123.97 94.66 124.18M83.55 123.29C84.17 123.68 84.78 124.07 85.4 124.45M83.28 123.03C83.82 123.12 84.37 123.07 84.91 123.01L87.04 122.8M71.4 120.44C71.59 120.13 71.79 119.81 72.1 119.61C72.41 119.41 72.85 119.37 73.12 119.62M74.33 119.46C75.38 118.86 76.27 117.98 76.87 116.92M72.3 118.75C72.1 116.93 72.39 115.05 73.15 113.38M78.49 120.45C78.36 119.33 78.38 118.18 78.55 117.07M84.34 122.93C83.9553 122.369 83.6894 121.736 83.5587 121.069C83.428 120.401 83.4353 119.714 83.58 119.05M53.9 161.11C54.3 163.24 54.58 165.39 54.75 167.54M67.4 120.79C68.65 119.96 70.13 119.49 71.63 119.45M66.62 120.99C63.96 128.2 61.3 135.4 58.63 142.61C57.98 144.37 57.33 146.13 56.72 147.91C55.26 152.21 54.06 156.59 53.13 161.04M67.31 118.46C68.25 116.46 69.63 114.67 71.33 113.25M157.15 136.47C168.97 133.66 180.79 130.84 192.61 128.03M156.85 137.02C157.89 151.22 158.94 165.42 159.98 179.62M193.05 128.49C196.58 142.75 201.11 156.75 206.61 170.37M159.57 180.69C163.96 178.8 168.7 177.89 173.4 177C184 174.98 194.6 172.97 205.2 170.95" stroke="#1D1D1B" stroke-miterlimit="10" stroke-linejoin="round"/>
<path d="M156.12 174.48C157.42 176.45 158.67 178.46 159.85 180.51C159.88 180.57 159.92 180.64 159.9 180.71C159.88 180.78 159.76 180.79 159.75 180.72M153.23 137.11C153.61 149.56 153.37 162.04 153.32 174.5M153.14 136.74C153.53 137.14 153.92 137.53 154.31 137.93M154.59 138.21C155.27 137.68 155.95 137.14 156.63 136.61M153.31 135.68C165 132.21 176.87 129.32 188.85 127.02C188.98 127.4 189.26 127.73 189.62 127.92M167.65 106.95C164.93 116.89 166.57 127.43 168.23 137.6M180.39 110.93C183.84 118.47 185.02 127.03 183.74 135.23M164.79 131.56C164.2 124.33 164.99 116.99 167.11 110.05M178.76 129C179.64 125.03 179.78 120.91 179.18 116.89M149.26 142.34C148.65 154.44 147.88 166.53 146.95 178.61M146.98 178.48L146.41 182.82M155.27 175.65C155.59 178.66 156.05 181.65 156.65 184.61C156.61 184.55 156.57 184.49 156.52 184.43M156.85 185.37C172.73 183.55 188.45 180.29 203.74 175.65M203.28 171.58C203.62 172.85 203.96 174.12 204.31 175.4M156.06 174.44C155.8 174.69 155.54 174.93 155.27 175.18C155.17 175.27 155.07 175.37 154.97 175.46C154.47 175.93 153.98 176.42 153.51 176.92M153.23 174.51C153.26 175.23 153.3 175.95 153.33 176.67M146.57 182.99C147.47 182.12 148.47 181.34 149.54 180.68C149.58 180.66 149.62 180.66 149.66 180.66C149.7 180.66 149.75 180.62 149.74 180.58C149.73 180.54 149.65 180.56 149.68 180.6M150.21 180.49C150.59 181.06 151.12 181.51 151.64 181.95L155.71 185.42C155.81 185.51 155.9 185.69 155.78 185.74M149.4 139.86C149.4 140.94 149.34 142.02 149.23 143.09M149.55 139.55C150.08 140.16 150.68 140.72 151.32 141.22M151.42 141.42L152.92 139.89M149.59 139.2C150.54 138.65 151.54 138.19 152.58 137.84M160.25 133.2C161.403 124.811 163.715 116.623 167.12 108.87M176.11 121.22C176.92 123.72 176.97 126.46 176.24 128.98C176.29 128.83 176.34 128.68 176.38 128.52" stroke="#1D1D1B" stroke-miterlimit="10" stroke-linejoin="round"/>
<path d="M163.6 184.8C165.49 185.14 167.4 185.39 169.31 185.54M140.05 179.68L146.13 181.39C146.17 181.4 146.21 181.42 146.21 181.46C146.21 181.5 146.13 181.48 146.16 181.46M9.34998 83.63C11.23 79.45 14.98 76.16 19.37 74.83C20.47 74.5 21.61 74.28 22.73 74C27.36 72.83 31.69 70.49 35.2 67.25M33.54 199.7C34.77 199.84 35.41 198.33 36.22 197.4C37.19 196.28 38.76 195.87 40.24 195.87C41.72 195.88 43.17 196.24 44.64 196.42C45.49 196.53 46.36 196.57 47.2 196.37C47.97 196.19 48.67 195.81 49.36 195.43C51.34 194.36 53.33 193.28 55.31 192.21M81.1 227.31C85.79 223.65 92.94 223.95 97.05 219.64M102.59 116.87C104.973 133.264 108.556 149.461 113.31 165.33M105.39 164.62C107.77 165.29 110.18 165.82 112.62 166.22M104.94 164.68C104.1 166.35 103.02 167.9 101.74 169.26M102.04 117.38C101.3 119.22 100.57 121.07 99.83 122.91C99.78 123.03 99.71 123.16 99.58 123.17C99.45 123.18 99.41 122.93 99.53 122.95" stroke="#080908" stroke-miterlimit="10" stroke-linejoin="round"/>
<path d="M95.76 121.93C96.47 122.2 97.11 122.21 97.85 122.43C98.23 122.54 100.36 123.28 99.51 123.11M95.16 121.93C94.92 122.81 94.69 123.68 94.45 124.56M99.21 117.86C100.21 117.68 101.19 117.41 102.14 117.04M93.41 100.18C96.14 101.17 97.76 104.01 98.56 106.8C99.65 110.6 99.64 114.71 98.55 118.52M92.37 123.32C93.19 122.98 93.98 122.57 94.74 122.12" stroke="#080908" stroke-miterlimit="10" stroke-linejoin="round"/>
<path d="M109.67 238.12C109.68 238.99 109.52 239.86 109.37 240.72L108.62 244.96M122.75 241.44C121.97 243.59 121.13 245.72 120.24 247.83" stroke="#1D1D1B" stroke-miterlimit="10" stroke-linejoin="round"/>
<path d="M108.5 245.3C109.15 246.93 110.58 248.18 112.21 248.83C113.84 249.48 115.65 249.56 117.39 249.29C118.63 249.1 119.97 248.63 120.53 247.51" stroke="#1D1D1B" stroke-miterlimit="10" stroke-linejoin="round"/>
<path d="M107.73 246.13C107.73 246.13 95.17 251.53 88.89 254.24C87.87 254.68 86.8 255.15 86.12 256.03C84.84 257.67 85.42 260.2 86.86 261.69C88.3 263.19 90.36 263.89 92.35 264.48C94.77 265.19 97.26 265.81 99.78 265.74C101.14 265.71 102.49 265.47 103.83 265.24C109.14 264.32 114.45 263.41 119.75 262.49C120.18 262.42 120.62 262.34 120.99 262.1C121.91 261.52 122.04 260.24 122.03 259.15C122 256.1 121.63 253.05 120.95 250.07C120.96 250.08 110.67 250.12 107.73 246.13V246.13Z" fill="#1D1D1B" stroke="#1D1D1B" stroke-miterlimit="10" stroke-linejoin="round"/>
<path d="M88.67 262.83C96.51 265.16 104.9 263.09 112.81 261.02C115.8 260.24 118.82 259.44 121.56 258.01M169.56 185.78C171.68 185.76 173.79 185.73 175.91 185.71C176.28 185.71 176.68 185.71 176.97 185.93C177.24 186.13 177.37 186.47 177.48 186.79C177.88 187.94 178.29 189.09 178.69 190.24C179.05 191.27 179.42 192.32 179.43 193.41C179.44 194.49 179.11 195.54 178.78 196.57C178.47 197.52 178.17 198.47 177.86 199.42M126.1 23.9899C127.16 20.9999 128.41 17.7999 131.11 16.1399C131.98 15.6099 132.94 15.2699 133.9 14.9399C136.57 14.0099 139.28 13.0799 142.09 12.8499C144.91 12.6199 147.9 13.1799 150.09 14.9699C151.99 16.5199 153.13 18.8499 153.68 21.2499C154.23 23.6499 154.24 26.1199 154.25 28.5799M126 24.6399C134.74 28.1899 144.41 29.4399 153.77 28.2299M140.59 12.7199C140.44 11.7699 141.12 10.7699 142.05 10.5499C142.54 10.4299 143.09 10.5299 143.46 10.8599C143.84 11.1899 144 11.7599 143.8 12.2199L143.94 12.0499" stroke="#1D1D1B" stroke-miterlimit="10" stroke-linejoin="round"/>
<path d="M162.62 23.9099C163.15 24.1299 163.6 24.4899 163.99 24.9099C164.22 25.1599 164.45 25.4699 164.39 25.7999C164.35 26.0299 164.19 26.2199 164.02 26.3699C163.23 27.0799 162.14 27.3299 161.09 27.5099C158.26 28.0099 155.4 28.2899 152.53 28.3299M153.91 23.7199C156.26 23.4399 158.64 23.3999 161 23.5899M128.87 21.7299C128.71 22.0899 128.55 22.4399 128.39 22.7999C128.33 22.9299 128.27 23.0699 128.32 23.1999C128.38 23.3799 128.59 23.4499 128.77 23.4999C129.19 23.6099 129.62 23.7099 130.04 23.8199C131.29 24.1299 132.54 24.4499 133.83 24.5599C133.93 24.5699 134.03 24.5799 134.14 24.5799M128.94 21.5099C130.74 20.6399 132.95 20.6799 134.71 21.6199C134.95 21.7499 135.19 21.8999 135.31 22.1399C135.44 22.4099 135.39 22.7299 135.31 23.0099C135.16 23.5499 134.93 24.0599 134.62 24.5199M130 23.9499C129.66 24.3699 129.42 24.8499 129.29 25.3699M133.74 26.0599H133.67M135.74 26.2299V26.1599M143.02 12.8799C143.45 13.0699 143.76 13.4399 144.05 13.8099C147.36 18.0599 148.66 23.6199 148.61 29.0099C148.58 28.7899 148.55 28.5699 148.51 28.3499M140.94 13.3999C141.99 18.3999 141.83 23.6399 140.49 28.5599M132.93 20.7399C134.561 17.5647 137.075 14.9289 140.17 13.1499" stroke="#1D1D1B" stroke-miterlimit="10" stroke-linejoin="round"/>
<path d="M126.7 25.21C125.583 26.3794 124.956 27.9326 124.95 29.55C125.51 29.06 126.38 29.19 127.08 29.46C127.78 29.73 128.49 30.11 129.23 30.02C129.81 29.95 130.31 29.59 130.87 29.42C131.96 29.09 133.13 29.48 134.15 29.98C134.75 30.27 135.36 30.6 136.02 30.6C136.62 30.6 137.18 30.32 137.77 30.21C138.48 30.08 139.2 30.18 139.92 30.16C141.17 30.12 142.4 29.68 143.4 28.92M148.86 29.77C149.28 30.42 149.66 31.1 149.99 31.8C150.26 32.38 150.51 32.99 150.52 33.62C150.53 34.1 150.41 34.58 150.3 35.05C149.98 36.42 149.77 37.81 149.65 39.2C149.62 39.57 149.64 40.01 149.95 40.2C150.11 40.3 150.32 40.3 150.51 40.3C150.77 40.3 151.02 40.29 151.28 40.29C151.41 40.29 151.54 40.29 151.65 40.22C151.77 40.15 151.84 40.02 151.91 39.9C152.17 39.4 152.44 38.91 152.7 38.41" stroke="#1D1D1B" stroke-miterlimit="10" stroke-linejoin="round"/>
<path d="M152.32 38.7501C152.75 38.2601 153.02 37.6201 153.05 36.9701C153.07 36.6301 153.03 36.2901 153.07 35.9601C153.15 35.3301 153.52 34.7801 153.73 34.1801C154.11 33.0901 153.95 31.8701 154.39 30.8101C154.48 30.5801 154.61 30.3601 154.68 30.1201C154.84 29.6101 154.75 29.0301 154.44 28.6001M178.57 198.48C179.83 198.41 181.08 198.17 182.27 197.75M177.99 187.61C179.37 188.07 180.83 188.28 182.29 188.23" stroke="#1D1D1B" stroke-miterlimit="10" stroke-linejoin="round"/>
<path d="M183.91 214.22C178.8 210.77 180.27 206.38 180.27 206.38L182.6 197.66C184.19 194.88 184.15 191.24 182.5 188.49L188.33 187.05C190.57 187.92 193.01 188.99 194.02 191.17C194.32 191.83 194.47 192.55 194.58 193.26C195.08 196.56 194.76 199.94 194.2 203.23C193.71 206.14 192.94 209.18 190.88 211.3C190.88 211.3 188 215.53 183.68 214.52" fill="#1D1D1B"/>
<path d="M183.91 214.22C178.8 210.77 180.27 206.38 180.27 206.38L182.6 197.66C184.19 194.88 184.15 191.24 182.5 188.49L188.33 187.05C190.57 187.92 193.01 188.99 194.02 191.17C194.32 191.83 194.47 192.55 194.58 193.26C195.08 196.56 194.76 199.94 194.2 203.23C193.71 206.14 192.94 209.18 190.88 211.3C190.88 211.3 188 215.53 183.68 214.52" stroke="#1D1D1B" stroke-miterlimit="10" stroke-linejoin="round"/>
<path d="M180.71 198.94C180.56 201.42 180.42 203.9 180.27 206.38C180.21 207.38 180.15 208.4 180.32 209.39C180.67 211.44 182.04 213.3 183.91 214.22C184.15 214.34 184.61 214.24 184.47 214.01M117.34 134.97C115.63 147.69 113.93 160.41 112.22 173.12C111.42 179.1 110.76 185.74 114.27 190.66C114.28 190.68 114.29 190.69 114.3 190.71" stroke="#1D1D1B" stroke-miterlimit="10" stroke-linejoin="round"/>
<path d="M122.39 147.53C120.83 153.71 119.72 159.99 118.6 166.26C117 175.27 115.4 184.29 114.63 193.41" stroke="#080908" stroke-miterlimit="10" stroke-linejoin="round"/>
<defs>
<linearGradient id="paint0_linear_1230_3746" x1="142" y1="14.5" x2="138.5" y2="142" gradientUnits="userSpaceOnUse">
<stop offset="0.213542" stop-color="#6E7CF6"/>
<stop offset="1" stop-color="#1B2FDB"/>
</linearGradient>
</defs>
</svg>
