<svg width="145" height="148" viewBox="0 0 145 148" fill="none" xmlns="http://www.w3.org/2000/svg">
<path d="M52.5 66.72C53.14 67.18 53.99 67.23 54.78 67.26C55.72 67.3 56.69 67.33 57.6 67.06C58.51 66.79 59.36 66.14 59.62 65.23C59.93 64.16 59.36 63.02 58.61 62.2C57.94 61.46 57.08 60.77 56.94 59.78C56.74 58.37 58.16 56.96 57.62 55.64C56.51 52.92 53.52 55.87 52.79 57.18C51.67 59.2 51.2 61.65 51.34 63.93C51.41 64.98 51.67 66.12 52.5 66.72ZM29.89 115.16C27.84 113.42 25.91 111.17 25.83 108.49C25.81 107.76 25.93 107.01 25.74 106.3C25.48 105.34 24.66 104.61 23.74 104.23C22.66 103.78 19.6 102.92 19.18 104.2C18.67 105.79 20.15 108.69 20.86 109.69C23.3 113.14 25.41 114.71 28.31 117.76C28.61 118.12 28.98 118.42 29.4 118.63C30.16 118.94 31.07 118.67 31.84 118.98C32.56 119.27 32.98 120 33.55 120.54C34.11 121.07 35.12 121.37 35.61 120.77C34.26 118.44 31.94 116.9 29.89 115.16V115.16ZM128.73 46.58C127.19 43.34 126.68 42.75 125.36 40.24C123.8 37.28 121.8 33.07 119.45 30.67C116.35 27.52 114.75 25.24 111.28 22.49C110.69 22.02 110.02 21.55 109.28 21.6C109.25 21.6 109.22 21.62 109.19 21.63C109.27 20.66 108.63 19.72 107.91 19.01C105.2 16.33 101.57 14.82 97.98 13.56C95.48 12.69 92.94 11.91 90.38 11.22C88.06 10.61 86.45 10.01 84.17 10.97C79.88 12.76 76.86 16.95 75.55 21.3C75.17 22.53 74.9 23.83 74.19 24.91C73.61 25.79 72.78 26.47 71.93 27.09C70.7481 27.9908 69.4539 28.7337 68.08 29.3C65.92 30.14 63.54 30.31 61.36 31.09C59.18 31.87 57.06 33.61 56.91 35.93C56.8 37.53 57.65 39.02 57.96 40.58C58.44 42.97 57.76 45.68 59.11 47.71C59.35 48.1 59.69 48.41 60.1 48.61C61.11 49.05 62.22 48.45 63.22 47.99C65.21 47.08 67.38 46.65 69.56 46.73C70.65 46.77 71.74 46.93 72.82 46.77C73.14 46.71 73.46 46.63 73.77 46.52C73.35 47.1 73.31 47.68 72.94 48.46C72.42 49.54 71.44 50.38 70.44 51.01C68.95 51.95 67.25 52.63 66.08 53.95C65.26 54.87 64.77 56.04 64.35 57.2C63.74 58.89 63.31 60.97 64.5 62.32C65.12 63.02 66.05 63.34 66.91 63.7C69.32 64.7 71.52 66.15 73.39 67.97C73.89 68.46 74.38 68.98 75 69.27C75.4 69.44 75.83 69.53 76.26 69.54C76.2 69.72 76.19 69.9 76.23 70.08C76.41 70.84 77.64 71.71 78.11 72.3C78.93 73.32 79.64 74.43 80.22 75.6C80.88 76.92 81.37 78.32 81.99 79.67C83.07 82 85.64 87.1 88.75 87.41C88.46 87.6 88.17 87.83 88.07 88.15C87.94 88.59 88.2 89.08 88.58 89.34C88.97 89.58 89.41 89.74 89.87 89.81C90.39 89.92 90.9 90.02 91.42 90.13C92.56 90.37 93.81 90.6 94.85 90.05C96.3 89.29 98.23 86.13 96.32 85.06L96.98 84.82C97.42 84.69 97.83 84.49 98.19 84.21C98.77 83.74 99.03 82.99 99.26 82.28C99.72 80.87 101 78.86 100.79 77.36C100.51 75.36 97.72 74.87 96.62 73.17C95.76 71.84 96.14 70.09 96.67 68.61C97.35 66.71 98.23 64.9 99.31 63.19C100.59 61.16 102.23 58.87 101.49 56.58L101.24 56.67C102.02 55.63 102.43 54.28 101.99 53.08C101.16 50.83 97.89 50.13 97.29 47.8C97.09 47.02 97.24 46.19 97.18 45.39C97.12 44.59 96.72 43.69 95.94 43.49C95.43 43.36 94.9 43.57 94.4 43.73C92.97 44.2 91.46 44.36 89.96 44.18C89.4 44.11 88.83 43.99 88.39 43.64C87.95 43.29 87.71 42.65 87.96 42.14C88.16 41.72 88.64 41.52 89.09 41.37C93.95 39.74 99.29 40.4 103.62 43.15C104.32 43.6 105 44.11 105.81 44.31C107.92 44.82 109.82 43.07 111.43 41.62C112.39 40.76 113.42 39.95 114.63 39.54C115.84 39.13 117.28 39.18 118.31 39.94C118.92 40.39 119.32 41.03 119.78 41.63C121.35 43.7 123.82 45.29 125.92 46.77C127.42 47.83 127.94 50.03 129.75 49.72C129.78 49.28 128.92 46.9 128.74 46.51L128.73 46.58V46.58ZM119.47 75.08C117.88 75.08 112.08 77.73 115.09 79.18C115.42 79.32 115.76 79.4 116.11 79.43C115.69 79.57 115.3 79.81 114.99 80.13C113.14 82.1 115.92 84.52 117.54 85.34C117.85 85.5 118.2 85.67 118.35 85.99C118.57 86.46 118.22 87.03 117.77 87.3C117.32 87.57 116.78 87.63 116.29 87.8C113.82 88.69 114.12 91.12 114.43 93.16C114.79 95.5 113.97 97.87 112.24 99.5C111.55 100.13 110.74 100.62 110.15 101.34C109.56 102.06 109.25 103.13 109.75 103.92C110.24 104.71 111.43 104.9 112.3 104.5C113.17 104.1 113.74 103.26 114.13 102.39C114.53 101.52 114.77 100.59 115.2 99.74C115.669 98.7997 116.35 97.9814 117.19 97.35C118.85 96.08 121.16 95.49 122.18 93.66C123.53 91.22 121.76 88.18 122.18 85.42C122.47 83.41 123.85 81.65 124.1 79.65C124.16 79.13 123.97 78.54 123.49 78.3C123.47 78.3 123.45 78.3 123.43 78.29C123.61 78.23 123.81 78.16 123.95 78.11C124.05 78.08 124.14 78.02 124.21 77.95C124.41 77.72 124.22 77.37 124.02 77.14C123.439 76.5015 122.732 75.9898 121.944 75.6371C121.156 75.2843 120.303 75.0981 119.44 75.09L119.47 75.08V75.08ZM18.5 87.97C19.16 87.77 19.86 87.81 20.55 87.78C21.87 87.74 23.18 87.47 24.41 86.97C25.85 86.39 27.31 85.29 27.39 83.74C27.45 82.78 26.95 81.87 26.38 81.1C24.32 78.32 21.2 76.57 18.17 74.9C22.68 75.15 26.82 77.49 29.36 81.23C30.05 82.27 30.74 83.51 31.95 83.81C33.01 84.08 34.13 83.5 34.82 82.65C35.51 81.8 35.86 80.74 36.19 79.7C37.22 76.44 38.26 73.18 39.3 69.92C39.88 68.09 40.64 66.03 39.83 64.18C39.44 63.29 39 62.43 38.51 61.6C38.22 61.07 37.83 60.61 37.35 60.24C37.44 59.82 37.32 59.36 37.17 58.94C36.47 56.9 35.72 54.7 36.28 52.62C36.97 50.08 39.46 48.42 41.99 47.72C43.47 47.32 45.31 46.91 45.75 45.43C46.21 43.89 44.71 42.47 43.24 41.83C40.49 40.62 37.33 40.62 34.41 41.27C31.48 41.92 28.76 43.24 26.09 44.63C25.52 44.93 24.85 45.24 24.26 44.97C23.57 44.66 23.41 43.76 23.38 43C23.33 41.73 23.35 40.46 23.44 39.19C23.53 38 23.64 36.65 22.85 35.75C22.38 35.21 21.43 34.75 20.7 34.8C19.64 34.86 19.63 35.3 19.22 36.19C18.39 38.01 17.12 39.4 15.91 40.96C12.17 45.79 10.6 51.91 9.10997 57.83C8.47997 60.34 7.84997 62.9 7.95997 65.49C7.99997 66.5 8.24997 67.59 8.97997 68.25C8.76997 68.27 8.55997 68.3 8.33997 68.31L8.53997 69.3C8.05997 70.7 8.08997 72.24 8.15997 73.73C8.48997 79.98 10.16 85.17 12.69 90.9C13.36 92.43 12.69 92.64 15.39 94.86C16.16 95.49 15.54 97.77 16.49 97.48C17.25 97.25 18.13 96.38 18.25 95.59C18.36 94.8 18.17 94 17.98 93.23C17.74 92.22 17.49 91.21 17.25 90.2C17.168 89.9175 17.1309 89.6239 17.14 89.33C17.21 88.65 17.83 88.12 18.49 87.92L18.5 87.97V87.97ZM49.58 56.04C50.3 55.67 50.72 54.9 51.02 54.14C51.48 53 51.76 51.73 51.46 50.54C51.3 49.9 50.95 49.29 50.39 48.96C48.22 47.71 47.91 50.87 47.77 52.17L47.51 54.49C47.45 54.8 47.46 55.11 47.54 55.41C47.8 56.18 48.87 56.42 49.58 56.04V56.04ZM67.91 121.51C66.2 120.75 64.47 121.4 63.92 123.25C63.66 124.09 63.83 124.99 64.36 125.69C64.89 126.34 65.72 126.65 66.5 126.94L68.06 127.51C69.03 127.87 70.05 128.22 71.06 128.02C71.33 127.98 71.59 127.85 71.78 127.66C72.13 127.26 71.98 126.65 71.8 126.15C71.08 124.2 69.8 122.35 67.91 121.51V121.51ZM75.39 96.05C74.96 95.85 74.45 96.03 74.01 96.2C73.86 96.26 73.72 96.33 73.57 96.4C74.68 95.76 75.72 95.11 75.02 93.9C74.53 93.05 73.06 92.46 72.35 91.76C71.1894 90.6396 70.2676 89.296 69.64 87.81C69.27 86.92 69 85.98 68.46 85.19C67.92 84.4 67.01 83.75 66.06 83.87C65 84.01 64.26 85 63.79 85.96C63.44 86.69 63.15 87.44 62.94 88.22C62.75 88.92 62.57 89.71 61.96 90.09C61.56 90.34 61.07 90.36 60.6 90.38C56.1 90.62 51.55 92.14 48.26 95.22C46.46 96.91 45.06 99.02 43.14 100.58C41.57 101.86 39.7 102.73 38.1 103.98C34.98 106.43 33.11 114.17 38.93 114.77C40.81 114.96 42.94 114.01 44.76 113.63C45.57 113.45 46.35 113.17 47.08 112.79C46.89 113.16 46.86 113.6 47 113.99C47.79 115.84 52.83 115.29 54.61 116.53C56.18 117.62 57.34 119.47 59.22 119.81C61.3 120.19 63.24 118.45 64.06 116.5C64.88 114.55 64.92 112.38 65.4 110.32C65.57 109.58 65.83 108.82 66.35 108.27C68.09 106.48 71.36 108.02 73.5 106.73C75 105.83 75.42 103.87 75.64 102.13C75.81 100.75 75.95 99.36 76.05 97.98C76.1 97.26 76.05 96.37 75.39 96.06V96.05V96.05ZM109.84 90.99C109.33 90.26 108.43 89.78 107.55 89.94C106.73 90.1 106.11 90.76 105.64 91.45C105.29 91.98 104.98 92.54 104.71 93.11C104.4 93.74 104.1 94.41 104.06 95.11C104.01 95.82 104.26 96.58 104.83 96.98C105.47 97.43 106.35 97.34 107.09 97.09C108.8 96.53 110.36 95.44 110.46 93.53C110.51 92.64 110.35 91.72 109.84 90.99V90.99Z" fill="url(#paint0_linear_1230_3776)"/>
<path d="M74.11 10.0801C73.83 10.1301 73.73 10.1601 74.15 10.1301C74.15 10.1101 74.15 10.1001 74.11 10.0801ZM73.78 11.2601C73.78 11.1901 73.68 11.0901 73.76 11.0401C73.84 10.9901 73.9 10.9701 73.95 10.9001C73.9834 10.8481 74.0072 10.7905 74.02 10.7301C74.02 10.7101 74.03 10.6901 74.04 10.6701C74.06 10.5901 74.13 10.5301 74.22 10.5401C74.18 10.4801 74.01 10.3801 74.09 10.3401V10.2601L73.48 10.3501C73.35 10.2501 71.01 10.4201 73.19 10.1501C72.53 10.2101 71.88 10.2701 71.23 10.3501C69.98 10.4501 68.73 10.6601 67.52 10.9901C66.59 11.1901 65.27 11.8001 66.02 11.4501C65.53 11.6201 65.04 11.8101 64.55 12.0101L63.83 12.3401L63.17 12.6301L63.13 12.6201C61.8 13.1401 60.34 13.3301 58.74 13.4001C57.9 13.4301 57.06 13.5101 56.23 13.6301C55.33 13.7701 54.46 14.0701 53.66 14.5001C53.39 14.6601 53.14 14.8401 52.9 15.0401C52.76 15.1401 52.63 15.2501 52.51 15.3601C52.41 15.4501 52.31 15.5601 52.19 15.6501C52.17 15.6501 52.15 15.7001 52.12 15.6901H52.04C51.75 15.7301 51.47 15.8201 51.2 15.9601C50.95 16.0801 50.72 16.2301 50.47 16.3801L50.14 16.5001C49.89 16.6801 49.59 16.8901 49.27 17.0901C48.99 17.2701 48.68 17.4201 48.36 17.5301H48.3C48.26 17.5301 48.21 17.5401 48.17 17.5401C48.1 17.5201 48.02 17.5001 47.94 17.4901C47.74 17.4401 47.54 17.3801 47.35 17.3401C47.0719 17.2618 46.7875 17.2083 46.5 17.1801C46.32 17.1201 46.13 17.0701 45.95 17.0401C45.89 17.0201 45.83 17.0201 45.77 17.0101C45.69 16.9901 45.61 16.9901 45.53 16.9801C45.42 16.9701 45.31 16.9801 45.21 17.0101L45.02 17.0401C44.51 17.1401 43.92 17.2801 43.29 17.4401C42.07 17.7501 40.87 18.1401 39.71 18.6101L39.64 18.5901C39.49 18.5701 39.35 18.5701 39.2 18.5801C39 18.6101 38.8 18.6601 38.61 18.7201C38.29 18.8301 38.05 18.9501 37.83 19.0401L37.8 19.1901C37.46 19.3501 37.14 19.5201 36.82 19.6501C36.68 19.7201 36.54 19.7701 36.39 19.8201C36.34 19.8401 36.28 19.8501 36.22 19.8501H36.19C36.18 19.9201 36.17 19.9901 36.14 20.0501L36.1 19.8301C35.82 19.7801 35.52 19.7801 35.24 19.8301C35 19.9001 34.79 19.9401 34.54 20.0001C33.96 20.1101 33.42 20.3701 32.97 20.7401C33.03 20.7301 33.09 20.7201 33.15 20.7201C33.07 20.8001 32.98 20.8801 32.9 20.9601L32.79 21.0901L32.74 21.1601C32.69 21.1901 32.4 21.3401 32.21 21.4601C31.98 21.6101 31.77 21.7801 31.57 21.9701C31.36 22.1801 31.18 22.4101 31.04 22.6701C30.96 22.8001 30.9 22.9401 30.84 23.0801C30.76 23.2501 30.72 23.4301 30.72 23.6201V23.8601C30.73 24.0901 30.77 24.0301 30.8 24.0501C30.86 24.0801 30.9 24.1201 30.94 24.1701C30.99 24.3101 30.82 24.4101 30.71 24.4501C30.64 24.4701 30.58 24.4801 30.51 24.4701H30.46L30.31 24.5301C30.2 24.5801 30.1 24.6501 30.01 24.7301C29.8 24.9301 29.62 25.1601 29.48 25.4201H29.47C29.54 25.2901 29.61 25.1701 29.7 25.0501C29.8 24.8901 29.93 24.7601 30.08 24.6501C30.14 24.6101 30.21 24.5701 30.26 24.5401L30.2 24.5701C30.06 24.6501 29.94 24.7501 29.83 24.8601C29.68 25.0201 29.54 25.2001 29.43 25.3901L29.33 25.3001L28.94 24.9201C28.74 25.0601 28.55 25.2201 28.37 25.4001L27.87 25.8501L27.18 26.5001C26.73 26.9401 26.29 27.3801 25.86 27.8201C25 28.7001 24.19 29.5601 23.39 30.3201C22.92 30.8801 22.56 31.2701 22.21 31.6301C22.18 31.6601 22.16 31.6901 22.13 31.7201C21.96 31.9001 21.77 32.0901 21.59 32.2901L21.44 32.4501C21.44 32.4901 21.43 32.5401 21.42 32.5801C21.41 32.6201 21.41 32.6501 21.4 32.6801C21.38 32.6901 21.35 32.7001 21.33 32.7001C21.28 32.7001 21.23 32.7201 21.21 32.7701L21.26 32.7801L21.33 32.8101C21.33 33.0401 21.53 33.0101 21.49 33.2801C21.4801 33.3882 21.4495 33.4934 21.4 33.5901C21.3636 33.5716 21.3326 33.5441 21.31 33.5101C21.2742 33.451 21.2265 33.3999 21.17 33.3601C21.13 33.4501 21.11 33.5501 21.1 33.6501C21.07 33.6301 21.03 33.6201 21 33.7001C21.01 33.7601 21.01 33.8201 21.02 33.8801C21.03 33.9701 21.05 34.0501 21.12 34.0601H21.17C21.17 34.1701 21.21 34.2701 21.27 34.3501C21.27 34.3701 21.29 34.3801 21.3 34.4101C21.31 34.4301 21.35 34.4101 21.37 34.4201C21.43 34.4601 21.45 34.5701 21.56 34.5701L21.49 34.7701L21.67 34.8301C21.67 34.9401 21.59 35.1501 21.69 35.1401C21.75 35.1901 21.77 34.8201 21.83 34.9601C21.89 34.9001 21.88 35.0501 21.89 35.0501C21.9 35.0501 21.95 34.9801 21.99 35.0001C22.02 35.0301 22.07 35.1401 22.13 35.2001C22.26 35.3101 22.42 35.3901 22.59 35.4201C22.93 35.3301 23.24 35.6201 23.52 35.7801C23.56 35.8101 23.6 35.7201 23.65 35.7501C23.75 35.9101 24.13 35.9401 24.38 36.0301C24.43 36.0401 24.41 36.1301 24.47 36.1301C24.78 36.2101 25.07 36.3401 25.32 36.5201C25.48 36.5501 25.64 36.5901 25.79 36.6501C25.91 36.7001 26.04 36.7401 26.18 36.7501C26.28 36.7501 26.26 36.7501 26.38 36.8001C26.45 36.8301 26.48 36.7501 26.52 36.7601C26.52 36.7601 26.52 36.8301 26.54 36.8401C26.57 36.8501 26.6 36.8501 26.63 36.8601C26.76 36.8001 26.73 36.8901 26.9 36.8601C27.18 36.9001 27.51 37.0601 27.73 36.9801C27.73 37.0801 27.82 37.0601 27.89 37.0901L28.07 37.1301C28.14 37.1601 28.17 37.0601 28.25 37.1001C29.46 37.4101 30.6 37.4101 31.8 37.5801C31.84 37.5401 31.89 37.5201 31.94 37.5301C32.17 37.5301 32.48 37.6801 32.65 37.5401C32.65 37.7001 32.86 37.5901 32.96 37.6401L33.31 37.6801C33.34 37.6401 33.39 37.6201 33.45 37.6201C33.85 37.6801 34.26 37.6901 34.68 37.7301C34.72 37.6801 34.79 37.6501 34.85 37.6701C35.39 37.7501 35.88 37.6901 36.43 37.7401C36.44 37.7401 36.51 37.7301 36.52 37.7401C36.57 37.8401 36.53 37.7301 36.61 37.7401C36.69 37.7501 36.77 37.8301 36.83 37.8201C36.9 37.8101 37 37.7501 37.08 37.7501C37.16 37.7501 37.27 37.8201 37.36 37.8201C37.5 37.7901 37.65 37.7901 37.79 37.8201L38.31 37.8101C38.36 37.8601 38.43 37.8901 38.5 37.8701C38.87 37.8901 39.22 37.6701 39.61 37.7301C39.65 37.7401 39.69 37.7901 39.75 37.7901C39.97 37.7801 40.18 37.7601 40.4 37.7201C40.4 37.7201 40.39 37.6401 40.42 37.6401C40.46 37.6401 40.44 37.7101 40.48 37.7101C40.64 37.7201 40.8 37.7001 40.95 37.6601C41.02 37.6301 41.02 37.5701 41.11 37.5601C41.14 37.5601 41.22 37.6101 41.3 37.6001C41.67 37.6001 42.01 37.4501 42.4 37.4001C42.42 37.3601 42.44 37.3101 42.5 37.3101C44 37.0201 45.32 36.3501 46.83 35.9001C46.91 35.8401 46.99 35.7701 47.07 35.7001C47.42 35.7001 47.78 35.3901 48.13 35.2301C48.18 35.2501 48.23 35.2501 48.28 35.2301C48.65 35.0501 48.79 34.8301 49.16 34.7901L49.48 34.5901C49.55 34.5101 49.63 34.6501 49.7 34.5401C49.87 34.4701 50.02 34.2501 50.22 34.1701C50.24 34.1701 50.28 34.1101 50.29 34.1201C50.38 34.1801 50.29 34.1201 50.43 34.0201C50.44 34.0201 50.48 33.9601 50.49 33.9701C50.51 33.9901 50.52 34.0101 50.53 34.0301C50.59 34.0101 50.54 33.9301 50.56 33.9201C50.58 33.9101 50.64 33.9601 50.67 33.9201C50.67 33.9201 50.67 33.8901 50.65 33.8701C50.65 33.8601 50.65 33.8501 50.66 33.8401C50.68 33.8201 50.75 33.8501 50.8 33.8201C50.79 33.8201 50.74 33.7001 50.8 33.7301C50.86 33.7601 50.91 33.7701 50.94 33.7101C50.99 33.6101 50.98 33.6501 51.14 33.5401C51.82 33.1101 52.38 32.3601 53.06 31.7301C53.09 31.7001 53.16 31.7101 53.22 31.6601C53.38 31.5201 53.52 31.3001 53.67 31.1501C53.69 31.1001 53.59 31.0101 53.63 30.9701C53.75 30.9501 53.86 30.9001 53.95 30.8201C54.06 30.7401 53.98 30.6201 54.01 30.5101C54.21 30.6401 54.29 30.3101 54.46 30.3001L54.83 29.8101C54.96 29.6801 55.06 29.5401 55.14 29.3701C55.18 29.3001 55.25 29.3601 55.3 29.2801C55.3 29.2401 55.27 29.2001 55.3 29.1501C55.33 29.1101 55.4 29.1401 55.4 29.1301C55.42 29.0901 55.39 28.9901 55.44 28.9301C55.47 28.9001 55.58 28.9301 55.6 28.8301C55.64 28.6901 55.88 28.5701 55.79 28.4101C55.76 28.4901 55.69 28.4401 55.71 28.4001V28.3801C55.82 28.3601 55.93 28.3701 56.02 28.4301C55.98 28.3101 56.02 28.2901 56.07 28.2701C56.16 28.2501 56.17 28.4501 56.27 28.3801C56.3 28.2601 56.47 28.2701 56.6 28.2401C56.91 28.3101 57.39 28.0401 57.81 28.0901C58.04 27.9101 58.39 27.9201 58.64 27.7601C58.7 27.8101 58.96 27.8201 58.93 27.6601C58.84 27.5701 58.69 27.7101 58.59 27.6201C58.42 27.5901 58.42 27.7201 58.31 27.6301C58.28 27.4701 58.51 27.5401 58.58 27.4701C58.68 27.4401 58.78 27.4101 58.87 27.3701C58.97 27.2801 59.01 27.4801 59.09 27.4501C59.07 27.3501 59.17 27.3601 59.23 27.3201C59.25 27.2701 59.27 27.2301 59.33 27.2001C59.44 27.1201 59.51 27.3701 59.63 27.2401C59.66 27.1801 59.61 27.0701 59.7 27.0601C59.79 27.0501 59.93 26.8601 60.01 27.0101C60.11 26.9701 60.08 26.8401 60.23 26.8301C60.29 26.7101 60.48 26.9601 60.43 26.7501C60.41 26.7501 60.39 26.7401 60.39 26.7201C60.39 26.7101 60.39 26.6901 60.4 26.6801C60.63 26.7701 60.6 26.5201 60.77 26.4301C61 26.3701 61.23 26.3501 61.46 26.3401C61.43 26.2301 61.49 26.3301 61.53 26.3001C61.47 26.1901 61.5 26.1601 61.55 26.1301C61.65 26.0901 61.75 26.0401 61.75 25.9401C61.81 25.9701 61.89 25.9701 61.95 25.9301C62.04 25.7601 62.24 25.8801 62.31 25.6501C62.36 25.7401 62.43 25.6101 62.49 25.7201C62.54 25.7501 62.59 25.7501 62.64 25.7201C62.8 25.6601 62.97 25.4501 63.13 25.5201C63.1 25.4301 63.11 25.3601 63.17 25.3201C63.25 25.4501 63.35 25.2501 63.44 25.2401C63.5 25.1801 63.59 25.1601 63.66 25.1901C63.59 25.0401 63.8 25.0601 63.85 24.9901C63.97 25.0501 64.1 25.1801 64.22 25.0901C64.28 25.0201 64.11 24.8301 64.26 24.8001C64.41 24.7701 64.3 24.6201 64.44 24.6001C64.67 24.4801 64.84 24.4601 64.99 24.3901C65.12 24.3701 64.99 24.2101 65.05 24.1701C65.17 24.2701 65.28 24.1501 65.39 24.1901C65.36 24.1101 65.39 24.0201 65.45 23.9601C65.61 24.0801 65.68 23.8001 65.73 23.7401C65.8 23.8201 65.86 23.6801 65.92 23.7801C66.06 23.7801 65.86 23.4601 66.02 23.6101L66.19 23.8501C66.32 23.7601 66.03 23.5001 66.15 23.4101C66.28 23.5801 66.35 23.1701 66.48 23.3301C66.34 23.4401 66.56 23.4101 66.54 23.5601C66.77 23.3601 66.79 23.4301 67 23.2701C66.92 23.1301 66.65 23.0401 66.73 23.2201C66.75 23.3301 66.62 23.3501 66.51 23.3001C66.42 23.0301 66.71 23.0901 66.74 22.9201C66.81 22.9301 66.87 22.9101 66.92 22.8601L67.32 22.5001C67.35 22.4601 67.39 22.4601 67.43 22.5001C67.45 22.3701 67.56 22.2601 67.69 22.2501C67.69 22.2001 67.74 21.9801 67.85 22.1001C67.99 22.2601 67.9 22.3401 67.82 22.4201C67.89 22.5201 68.08 22.2801 68.17 22.2001C68.17 22.2001 68.23 22.2601 68.25 22.2201C68.24 22.2401 68.25 22.0201 68.37 22.0001C68.42 21.8701 68.52 22.0001 68.57 21.9001C68.56 21.7201 68.8 21.6101 68.91 21.4601C68.91 21.3901 68.84 21.3001 68.91 21.2601C68.98 21.2201 69.1 21.4001 69.14 21.2401C69.17 21.1601 69.24 21.0801 69.2 20.9701C69.01 20.9401 69.06 21.2001 68.93 21.1501C68.83 20.9501 69 20.8701 69.15 20.9201C69.1068 20.882 69.074 20.8336 69.0547 20.7794C69.0355 20.7251 69.0304 20.6668 69.04 20.6101C69.26 20.6901 69.18 20.5401 69.26 20.3901C69.46 20.4201 69.37 20.1401 69.59 20.1501C69.65 20.0801 69.49 19.9601 69.61 19.9101C69.67 20.1701 69.76 19.8501 69.91 20.0201C69.86 20.0601 69.82 20.1001 69.87 20.1801C69.95 20.1301 69.99 20.0401 69.97 19.9601C69.9 19.9401 69.77 19.8801 69.81 19.8101C69.9 19.7701 69.94 19.5201 70.07 19.6201C70.18 19.6501 70.24 19.4901 70.36 19.5201C70.26 19.4501 70.28 19.4001 70.32 19.3501C70.45 19.2901 70.37 19.1801 70.44 19.1001C70.68 19.1401 70.59 18.9501 70.82 19.0101C70.76 18.9101 70.69 18.8101 70.77 18.7301C70.86 18.7301 70.85 18.6301 70.97 18.6001C70.99 18.5501 70.97 18.4901 71.01 18.4501C71.06 18.3801 71.07 18.4501 71.08 18.3601C71.08 18.3001 71.19 18.3201 71.25 18.2801C71.3 18.2401 71.21 18.2201 71.22 18.2101C71.23 18.2001 71.32 18.2401 71.33 18.1901C71.33 18.1801 71.3 18.1201 71.29 18.1201C71.32 18.0801 71.38 18.1301 71.4 18.1001C71.43 18.0701 71.36 18.0101 71.4 17.9901C71.44 17.9701 71.54 18.0501 71.56 18.0201C71.58 17.9901 71.48 17.9101 71.48 17.8801C71.5 17.7901 71.65 17.7801 71.73 17.7101C71.74 17.7001 71.69 17.6301 71.73 17.6001C71.77 17.5701 71.82 17.5901 71.86 17.5601C71.89 17.5301 71.82 17.5101 71.83 17.5001C71.84 17.4901 71.94 17.5001 71.96 17.4601C71.99 17.3601 72.07 17.2701 72.16 17.2201C72.21 17.1701 72.12 17.0801 72.21 17.0401C72.25 16.9801 72.34 17.0801 72.29 16.9601C72.33 16.9101 72.46 17.0601 72.47 16.9601C72.34 16.8701 72.51 16.8601 72.5 16.8101L72.61 16.6801C72.64 16.6101 72.84 16.8401 72.85 16.7301C72.73 16.6401 72.69 16.5701 72.74 16.5301C72.74 16.4101 72.94 16.3401 73.02 16.1701C73.15 16.2001 73.18 16.0501 73.3 16.0601C73.25 16.0001 73.15 15.8401 73.37 15.9701C73.39 16.1201 73.26 16.2101 73.17 16.3301C73.23 16.3801 73.25 16.3301 73.27 16.3101L73.33 16.2401L73.46 16.0801C73.48 16.0101 73.6 16.1101 73.6 16.0101C73.48 15.8501 73.41 16.0201 73.41 15.9001C73.49 15.8801 73.33 15.7801 73.35 15.7501C73.46 15.8501 73.48 15.8001 73.52 15.7701C73.61 15.7401 73.48 15.6501 73.55 15.6201C73.75 15.7401 73.53 15.5201 73.55 15.5001C73.75 15.7001 73.65 15.4201 73.79 15.5501C73.88 15.5201 73.71 15.4101 73.75 15.3701C73.81 15.4301 74 15.4601 73.86 15.3401C73.84 15.3701 73.76 15.2901 73.86 15.3401C73.86 15.2301 74 15.3401 74.06 15.3201C73.99 15.2201 74.07 15.1801 74.06 15.1001C74.14 15.1501 74.15 15.0801 74.18 15.0501C74.21 15.0201 74.29 15.0601 74.31 15.0101C74.19 14.9101 74.23 14.8501 74.28 14.8101C74.08 14.6801 74.13 14.6301 74.1 14.5701C74.62 14.2101 75.12 13.9301 75.31 13.4501C75.2586 13.3299 75.2315 13.2008 75.23 13.0701L75.28 13.0001C75.28 12.9701 75.23 12.9401 75.22 12.9601C75.13 12.9801 75.19 13.2401 74.96 13.0501C74.98 12.9801 75.11 13.0801 75.11 12.9801C74.94 12.8801 75.23 12.9001 75.06 12.8001C74.95 12.9601 74.71 12.9901 74.7 13.1701C74.52 13.0801 74.5 13.2301 74.33 13.1701C74.39 13.0701 74.29 13.1301 74.22 13.0801C74.15 13.0301 74.22 13.0001 74.14 12.9501C74.04 12.9801 73.97 13.0401 73.87 13.0601C73.84 13.0901 73.83 13.1701 73.74 13.1101C73.7 13.1401 73.79 13.2501 73.69 13.1801C73.65 13.1101 73.61 13.0401 73.59 12.9601C73.48 12.8601 73.52 12.8101 73.49 12.7401C73.61 12.6401 73.53 12.4701 73.52 12.3401C73.6 12.2801 73.59 12.2001 73.59 12.1201C73.64 12.0601 73.7 11.9901 73.52 11.8601C73.43 11.9001 73.45 12.1101 73.3 12.0401C73.36 11.7401 73.54 11.3501 73.78 11.2601V11.2601ZM21.49 34.7201C21.51 34.6601 21.54 34.6801 21.56 34.6701L21.62 34.6901C21.58 34.7801 21.53 34.7201 21.49 34.7201V34.7201ZM50.62 33.6601C50.58 33.6501 50.59 33.5701 50.62 33.5801C50.65 33.5901 50.64 33.6701 50.62 33.6601ZM46.7 21.1101C46.66 21.0901 46.64 21.0301 46.66 21.0301C46.68 21.0401 46.71 21.1201 46.7 21.1101ZM51.08 28.5401V28.5601C51.08 28.5701 51.04 28.5601 51.06 28.5601V28.5501C51.06 28.5001 51.02 28.5101 51.08 28.5001C51.08 28.5301 51.08 28.5401 51.06 28.5501L51.08 28.5401V28.5401ZM52.68 28.5701C52.65 28.5301 52.7 28.4701 52.71 28.4901C52.71 28.5101 52.69 28.5801 52.68 28.5701ZM50.24 19.0701V19.0501C50.25 19.0501 50.25 19.0601 50.24 19.0701ZM55.09 28.2101C55.06 28.1801 55.1 28.1201 55.12 28.1401C55.13 28.1601 55.12 28.2301 55.09 28.2101ZM55.51 27.7101C55.51 27.6201 55.58 27.6201 55.6 27.6901C55.56 27.7401 55.53 27.7901 55.51 27.7101ZM56.31 28.0701C56.28 28.0401 56.31 27.9701 56.33 27.9901C56.36 28.0201 56.34 28.0901 56.31 28.0701ZM56.29 27.6301C56.25 27.6001 56.29 27.5401 56.31 27.5601C56.34 27.5701 56.32 27.6501 56.29 27.6301ZM56.9 28.0301C56.9 27.9401 56.91 27.8701 56.98 27.8601C56.98 27.9501 56.97 28.0201 56.9 28.0301ZM57.78 27.8801C57.76 27.8101 57.81 27.8101 57.84 27.7801C57.86 27.8601 57.8 27.8601 57.78 27.8801ZM57.73 27.7401C57.71 27.6601 57.79 27.6601 57.83 27.6401C57.85 27.7201 57.78 27.7201 57.73 27.7401ZM58.05 27.7201C57.85 27.8701 57.93 27.5201 58.05 27.7201C58.2 27.6001 58.13 27.9301 58.05 27.7201ZM64.03 24.9001C64 24.8201 64.04 24.8401 64.07 24.8801C64.1 24.9501 64.04 24.9301 64.03 24.9001ZM65.36 22.9401L65.26 23.0201L65.02 23.2101C64.98 23.1301 65.05 23.1101 65.08 23.0701L65.18 22.9901L65.42 22.8001C65.47 22.8701 65.4 22.8901 65.36 22.9401ZM68.7 21.5301C68.65 21.5501 68.56 21.4801 68.5 21.5101C68.48 21.6001 68.5 21.6901 68.55 21.7701C68.51 21.8301 68.45 21.7701 68.4 21.8101C68.37 21.9501 68.11 22.4201 67.87 22.0101C68.03 21.8801 68.04 21.9401 68.14 21.7601C68.17 21.8001 68.15 21.8401 68.2 21.9001C68.31 22.0201 68.22 21.7501 68.36 21.7401C68.39 21.7101 68.33 21.6501 68.3 21.6001C68.52 21.4601 68.5 21.2501 68.7 21.1001C69.01 21.3901 68.5 21.2301 68.7 21.5001V21.5301V21.5301ZM68.92 19.6201C68.45 20.3801 67.51 21.0001 67 21.7201C66.55 21.9401 66.12 22.4501 65.67 22.7801C65.63 22.6901 65.72 22.6601 65.77 22.6101C65.82 22.5601 65.78 22.5001 65.82 22.4601C66.14 22.2601 66.4 21.9401 66.71 21.7001C66.8 21.6401 66.89 21.5901 66.98 21.5501C67.69 21.0601 68.12 20.2501 68.76 19.6901L68.94 19.5001C69.02 19.4801 68.97 19.5701 68.92 19.6201ZM70.22 19.5001C70.17 19.5001 70.17 19.4201 70.19 19.4201C70.21 19.4201 70.24 19.5101 70.22 19.5001ZM70.64 18.5901C70.6 18.5701 70.59 18.5101 70.6 18.5201C70.64 18.5301 70.66 18.6001 70.64 18.5901ZM71.39 17.7301C71.35 17.7201 71.33 17.6501 71.35 17.6601C71.36 17.6701 71.41 17.7301 71.39 17.7301ZM72.08 17.1201C72.02 17.0801 72.06 17.0601 72.06 17.0401C72.12 17.0801 72.08 17.1001 72.08 17.1201ZM72.14 17.0601C72.01 16.9701 72.06 16.9401 72.08 16.9101C72.14 16.9701 72.17 17.0301 72.14 17.0601ZM72.08 16.7901C72.02 16.7501 72.06 16.7301 72.06 16.7001C72.11 16.7501 72.08 16.7601 72.08 16.7901ZM72.15 16.5901C72.2 16.6101 72.25 16.5901 72.28 16.5501C72.38 16.6201 72.27 16.7501 72.15 16.5901ZM72.46 16.7901C72.41 16.7401 72.44 16.7201 72.44 16.7001C72.5 16.7401 72.47 16.7601 72.46 16.7901ZM72.84 16.1001C72.8 16.0901 72.78 16.0301 72.8 16.0301C72.81 16.0401 72.86 16.1101 72.84 16.1001ZM72.84 15.4101C72.8 15.4001 72.78 15.3301 72.8 15.3401C72.82 15.3501 72.85 15.4201 72.84 15.4101ZM73.39 15.8801C73.35 15.8801 73.33 15.8101 73.35 15.8201C73.37 15.8301 73.41 15.8901 73.39 15.8801ZM73.63 15.4701C73.57 15.4101 73.62 15.4101 73.64 15.4401C73.71 15.4901 73.66 15.4801 73.63 15.4701ZM73.59 15.2801C73.52 15.2101 73.59 15.1801 73.6 15.1401C73.74 15.2201 73.65 15.2501 73.74 15.3201C73.71 15.3401 73.61 15.2501 73.59 15.2801ZM73.84 15.0801C73.77 15.0201 73.82 15.0001 73.84 14.9601C73.9 15.0201 73.85 15.0501 73.84 15.0801ZM73.97 15.1501C73.9 15.1001 73.95 15.0701 73.97 15.0401C74.04 15.0901 73.99 15.1201 73.97 15.1501ZM73.92 14.9701C73.87 14.9301 73.9 14.9101 73.9 14.8801C73.96 14.9301 73.92 14.9401 73.92 14.9701ZM74.09 14.9901C73.96 14.9001 74.01 14.8701 74.03 14.8301C74.09 14.9001 74.13 14.9501 74.09 14.9901ZM74.04 13.8701C74.22 14.0301 74.06 14.0201 73.99 14.0501C73.88 14.0901 74.04 14.2501 73.87 14.2101L73.58 14.5901C73.56 14.6301 73.47 14.5901 73.45 14.6301C73.4 14.6301 73.3 14.5601 73.28 14.6101C73.04 14.8801 72.88 15.2501 72.56 15.4101C72.63 15.5401 72.22 15.5301 72.33 15.6901C72.44 15.8501 72.14 15.6601 72.24 15.8001C72.26 15.8401 72.28 15.8901 72.24 15.9101C72.2 15.9301 72.11 15.9001 72.08 16.0001C72.08 16.0001 72.17 16.0801 72.12 16.0601C71.97 16.0001 71.76 16.4001 71.75 16.5201C71.75 16.5301 71.69 16.6101 71.68 16.6101C71.57 16.5601 71.63 16.6701 71.57 16.7401C71.56 16.7601 71.48 16.7201 71.47 16.7601C71.47 16.7601 71.52 16.8001 71.5 16.8201C71.4 16.9901 71.24 17.1301 71.06 17.2201C71.01 17.2301 71.07 17.3201 71.04 17.3501C71.01 17.3801 70.95 17.3901 70.89 17.4101C70.86 17.5501 70.69 17.5901 70.6 17.7501L70.29 18.1101C70.25 18.1601 70.2 18.1601 70.15 18.1901C70.07 18.2301 70.01 18.2901 69.97 18.3601C70.1 18.4901 69.85 18.3601 69.86 18.4901C69.57 18.7801 69.31 19.1001 69.1 19.4501C68.87 19.2701 69.2 19.2101 69.23 19.0801L69.49 18.7901C69.62 18.5901 69.93 18.4201 69.92 18.1801C70.12 18.0701 70.14 18.0301 70.19 17.9501C70.2383 17.8699 70.3074 17.8043 70.39 17.7601C70.47 17.6901 70.5 17.5301 70.64 17.5701C70.5 17.3701 70.89 17.5201 70.76 17.3301C70.79 17.2301 71.02 17.2901 71.03 17.1301C71.03 17.1001 70.98 17.0301 71.03 17.0201C71.19 16.9301 71.32 16.8101 71.43 16.6601C71.47 16.6101 71.43 16.5501 71.45 16.5201C71.47 16.4901 71.53 16.5301 71.56 16.5001C71.8 16.2601 72.02 16.0001 72.21 15.7201C72.25 15.6501 72.25 15.5601 72.29 15.5001C72.3 15.4801 72.32 15.4401 72.34 15.4401C72.37 15.4401 72.39 15.4501 72.42 15.4601C72.45 15.4301 72.39 15.3801 72.42 15.3501C72.45 15.3201 72.57 15.2701 72.62 15.2201C72.62 15.2201 72.56 15.1301 72.6 15.1301C72.64 15.1301 72.64 15.1701 72.67 15.1601C72.7 15.1501 72.83 15.0301 72.81 14.9801C72.79 14.9301 72.83 14.9601 72.87 14.9101C72.96 14.7901 73.07 14.6501 73.18 14.5101C73.53 14.3101 73.65 13.9901 74.07 13.8401L74.04 13.8701V13.8701ZM55.75 13.6401C56.89 13.4401 57.77 13.5201 58.05 13.4101C57.28 13.4001 56.51 13.4801 55.75 13.6401ZM53.23 14.7601C53.37 14.6701 53.52 14.5801 53.67 14.5101C54.31 14.1001 55.02 13.8101 55.76 13.6401C54.8398 13.8076 53.9726 14.1915 53.23 14.7601V14.7601ZM30.43 24.4801C30.41 24.4801 30.39 24.4901 30.38 24.5001L30.43 24.4801ZM118.39 114.77C118.24 114.68 118.23 114.54 118.13 114.44L118.12 114.43C118.081 114.478 118.028 114.511 117.969 114.526C117.909 114.54 117.846 114.535 117.79 114.51C117.78 114.51 117.76 114.5 117.75 114.5C117.725 114.465 117.692 114.437 117.653 114.418C117.615 114.399 117.573 114.389 117.53 114.39C117.35 114.28 117.42 113.96 117.13 113.95C117 114.35 117.2 114.57 117.05 114.83C117.3 114.9 117.57 114.89 117.8 114.78C117.92 114.74 118.03 114.71 118.15 114.68H118.2L118.11 115.11C118.14 115.18 118.25 115.17 118.24 115.28C118.27 115.25 118.29 115.21 118.31 115.18C118.3 115.16 118.29 115.15 118.28 115.15L118.31 115.01C118.36 115.01 118.38 115.02 118.38 115.06C118.42 114.99 118.45 114.91 118.46 114.83C118.44 114.83 118.42 114.82 118.41 114.81L118.39 114.77V114.77ZM117.32 115.57C117.19 115.53 117.06 115.5 116.92 115.46L116.78 115.42C116.54 115.37 116.31 115.35 116.07 115.35C115.93 115.25 115.9 115.04 115.67 115.02H115.61C115.59 115.1 115.61 115.22 115.53 115.22C115.47 115.11 115.48 115.04 115.61 115.02C115.6 114.94 115.49 114.96 115.5 114.86H115.38C115.28 114.86 115.45 115.21 115.18 115.14C115.13 115 115.38 114.91 115.2 114.85C115.06 114.89 115.19 115.25 115.04 115.28L114.26 115.27H113.86C113.77 115.23 113.53 115.36 113.53 115.2C113.8 115.2 113.8 115.2 113.72 114.98C113.4 114.86 113.52 115.18 113.4 115.28C113.2 115.19 113 115.36 112.84 115.32C112.76 115.31 112.78 115.18 112.68 115.19C112.82 115.47 112.39 115.24 112.43 115.43C112.28 115.31 112.26 115.44 112.09 115.47C112.04 115.37 112 115.51 111.89 115.49C111.86 115.41 111.75 115.45 111.67 115.45C111.47 115.57 111.11 115.51 110.73 115.63C110.53 115.51 110.09 115.81 109.96 115.59C110.06 115.57 110.16 115.55 110.16 115.46C110.04 115.53 109.71 115.49 109.74 115.65C109.99 115.63 109.64 115.78 109.54 115.78C109.68 115.53 109.41 115.75 109.34 115.62C109.74 115.47 109.83 115.39 110.22 115.37C110.38 115.23 110.03 115.19 110.22 115.07C110.31 115.27 110.42 114.88 110.6 115.06C110.72 114.95 110.88 114.89 111.04 114.89C111.24 115.02 111.46 115.09 111.7 115.09C111.95 115.12 112.22 115.12 112.48 115.12C112.3 114.64 112.96 114.85 113.24 114.76C113.3 114.54 113.08 114.64 112.95 114.64C112.82 114.63 112.84 114.45 112.65 114.52H112.58C112.57 114.6 112.47 114.7 112.44 114.6C112.44 114.54 112.49 114.51 112.58 114.52C112.53 114.37 112.61 114.32 112.62 114.22C112.31 114.24 112.28 114.48 111.98 114.51C111.8 114.49 111.78 114.24 111.5 114.35C111.43 114.43 111.37 114.52 111.3 114.61C111.29 114.71 111.2 114.79 111.1 114.79C111.05 114.74 110.87 114.73 111 114.66C110.97 114.59 110.84 114.64 110.82 114.55C110.94 114.39 110.71 114.32 110.58 114.23C110.62 114.43 110.64 114.63 110.35 114.65C110.268 114.61 110.199 114.547 110.15 114.47C109.98 114.45 110.22 114.41 110.19 114.32C109.77 114.41 109.36 114.52 108.95 114.66C108.35 114.76 107.76 114.92 107.2 115.16C107.01 115.09 107.01 115.36 106.84 115.17C106.67 115.32 106.48 115.44 106.28 115.53C106.12 115.65 106.06 115.49 105.88 115.65C105.18 116.02 104.51 116.44 103.88 116.9C103.81 116.95 103.74 117 103.68 117.05C103.58 117.12 103.48 117.19 103.39 117.25C103.31 117.18 103.35 117.32 103.25 117.35L103.1 117.47C103.03 117.5 102.96 117.51 102.89 117.51C102.81 117.49 102.74 117.47 102.67 117.44C102.54 117.42 102.45 117.46 102.33 117.44H102.17C102.12 117.46 102.17 117.51 102.18 117.51C102.26 117.55 102.41 117.42 102.45 117.58L101.46 117.59C101.4 117.59 101.29 117.56 101.32 117.67C101.43 117.67 101.58 117.62 101.67 117.73C101.67 117.6 101.74 117.72 101.79 117.73C101.78 117.63 101.87 117.67 101.94 117.66H102.89L102.69 117.82L102.41 118.06C102.38 118.03 102.35 118.02 102.31 118.03C102.26 118.11 101.99 118.01 101.85 117.96C101.46 117.97 101.07 117.97 100.69 118C100.67 118.14 100.43 118.02 100.42 118.16C100.32 118 100.17 118.15 100.04 118.11C99.67 118.14 99.29 118.18 98.93 118.21C98.86 118.23 98.82 118.14 98.75 118.16C98.75 118.31 98.64 118.12 98.59 118.25C98.5 118.29 98.4 118.25 98.36 118.17C98.35 118.16 98.35 118.15 98.35 118.14C98.53 118.15 98.61 118.06 98.74 118.01L99 117.99C99.1 118.05 99.05 117.76 99.15 117.97C99.25 117.99 99.19 117.83 99.32 117.88L99.59 117.86C99.54 117.7 99.44 117.84 99.37 117.8L98.87 117.85C98.77 117.96 98.73 117.85 98.63 117.95C98.44 117.85 98.55 118.02 98.43 118.05C98.33 117.95 98.21 118.01 98.1 118.02C98.08 118.07 98.12 118.19 98.04 118.18C97.94 118.14 97.93 117.98 97.9 118.12C97.83 118.14 97.78 118.05 97.72 118.08C97.18 118.16 96.64 118.27 96.13 118.39C96.13 118.3 96.09 118.24 96.03 118.26C94.86 118.4 93.91 118.9 92.84 119.15C92.71 119.15 92.81 119.3 92.68 119.3C92.37 119.41 92.12 119.58 91.79 119.72C91.73 119.75 91.69 119.69 91.65 119.71C91.61 119.73 91.65 119.81 91.59 119.83C91.53 119.85 91.48 119.81 91.42 119.83C91.21 119.91 91.01 120.02 90.84 120.16C90.75 120.24 90.76 120.25 90.65 120.27C90.54 120.29 90.52 120.38 90.47 120.46C90.32 120.45 90.31 120.62 90.12 120.68C90.0591 120.679 89.9986 120.69 89.942 120.712C89.8853 120.734 89.8337 120.768 89.79 120.81C89.66 120.77 89.55 120.91 89.41 120.81C89.75 120.43 90.03 120.38 90.34 120.1C90.34 120.04 90.27 119.94 90.34 119.92C90.44 119.8 90.56 119.87 90.67 119.81C91.16 119.53 91.65 119.27 92.15 119.04C92.2 119.01 92.27 119.09 92.32 119.04C92.32 118.92 92.52 119.02 92.63 118.91C92.88 118.66 93.34 118.79 93.58 118.52C93.64 118.46 93.62 118.47 93.75 118.46C93.89 118.45 94.01 118.34 94.17 118.31C94.17 118.23 94.26 118.21 94.27 118.12C94.4 118.3 94.31 118 94.44 118.14C94.41 118.06 94.46 118.09 94.48 118.14L94.59 118.1C94.99 117.89 95.66 117.92 96.03 117.71C96.09 117.67 96.14 117.61 96.15 117.53C95.3 117.73 94.23 117.98 93.65 118.34C93.64 118.25 93.6 118.19 93.54 118.22C93.37 118.28 93.21 118.34 93.05 118.41C92.9495 118.38 92.8443 118.37 92.74 118.38C91.81 118.81 90.92 119.35 90.1 119.98C90.1 120.07 90.02 120.12 90.03 120.2C89.71 120.22 89.44 120.44 89.36 120.75C89.27 120.63 89.22 120.81 89.16 120.8C89.1 120.84 89.03 120.89 88.98 120.94C88.93 120.99 88.98 121.06 88.91 121.1C88.85 121.07 88.79 121.09 88.75 121.14C88.66 121.17 88.77 121.29 88.64 121.32C88.41 121.56 88 121.74 87.91 122.05C87.73 122 87.82 122.23 87.64 122.2C87.7 122.28 87.61 122.31 87.58 122.36C87.59 122.41 87.58 122.46 87.55 122.5C87.51 122.59 87.4 122.46 87.37 122.58C87.28 122.83 87.14 123.06 86.95 123.24C86.87 123.28 87 123.39 86.88 123.43L86.74 123.6C86.71 123.65 86.63 123.69 86.71 123.77C86.57 123.73 86.51 123.92 86.43 124.01C86.39 124.23 86.1 124.6 85.92 124.85C85.88 124.9 85.88 125.04 85.74 124.98C85.75 125.29 85.38 125.52 85.41 125.83C85.19 126.16 85.25 126.35 85.02 126.69C85.04 127.09 84.63 127.41 84.67 127.82C84.6045 127.867 84.5493 127.926 84.508 127.995C84.4667 128.064 84.4401 128.14 84.43 128.22V128.24C84.43 128.26 84.43 128.27 84.47 128.29C84.47 128.25 84.57 128.34 84.47 128.29V128.33C84.47 128.33 84.47 128.35 84.45 128.36C84.42 128.37 84.37 128.36 84.35 128.4C84.33 128.44 84.35 128.4 84.35 128.4C84.34 128.41 84.34 128.42 84.34 128.44C84.38 128.46 84.4 128.51 84.33 128.47C84.17 128.69 84.1 128.97 84.13 129.25L84.08 129.42C84.05 129.47 84.16 129.58 84.04 129.52L83.94 129.87C83.87 130.07 83.82 130.29 83.76 130.5C83.44 130.65 83.11 130.8 82.77 130.95C82.55 131.26 81.96 131.31 81.76 131.65C81.37 131.8 81.19 132.11 80.84 132.3C80.82 132.44 80.67 132.5 80.64 132.61C80.51 132.69 80.39 132.78 80.27 132.87C79.98 133.28 79.65 133.65 79.29 133.99C79.24 134.05 79.19 133.97 79.13 134.03C78.96 134.2 78.7 134.31 78.65 134.54C78.5 134.49 78.38 134.72 78.26 134.81C78.17 135.21 77.84 135.42 77.68 135.7C77.55 135.65 77.66 135.8 77.52 135.75C77.43 135.61 77.41 135.82 77.34 135.83C77.32 135.87 77.41 135.97 77.37 136.01L77.26 136.12C77.46 136.32 77.27 136.32 77.44 136.49C77.6 136.58 77.72 136.41 77.86 136.36C78.28 137.01 78.38 136.11 78.7 136.32C78.54 136.5 78.55 136.89 78.28 136.89C78.44 137.2 78.44 136.72 78.56 136.91C78.65 136.88 78.69 136.63 78.81 136.75C78.85 136.9 78.71 136.95 78.72 137.07L78.52 137.29C78.52 137.3 78.54 137.31 78.54 137.32C78.71 137.56 78.74 137.2 78.91 137.41L78.83 137.49C78.85 137.54 78.89 137.58 78.93 137.61C79.03 137.69 79.09 137.55 79.21 137.73C79.18 137.8 79.11 137.84 79.06 137.9C79 137.94 78.97 138.02 79 138.09C79.2 137.94 79.42 137.94 79.62 137.83C79.74 137.84 79.85 137.82 79.96 137.79C80.09 137.89 80.16 137.67 80.32 137.96C80.39 137.78 80.52 137.92 80.61 137.86C80.66 137.83 80.7 137.74 80.76 137.72H80.79C82.65 137.4 84.49 136.97 86.31 136.46C87.68 136.07 89.04 135.62 90.36 135.14C93.379 134.03 96.2965 132.662 99.08 131.05L98.36 131.27C99.01 130.91 99.65 130.54 100.27 130.15C100.79 129.88 101.01 129.86 99.65 130.67C100.14 130.42 100.61 130.13 101.05 129.8C101.34 129.59 101.6 129.37 101.86 129.12C104.14 127.69 101.77 129.38 101.64 129.51L101.75 129.44L102.83 128.72L102.58 128.87C103.4 128.23 103.47 128.15 105 127.04C105.99 126.36 105.56 126.76 105.94 126.48C105.94 126.48 105.98 126.47 106.07 126.4C106.16 126.33 106.3 126.22 106.52 126.04C107.27 125.47 107.99 124.9 108.71 124.3L107.76 124.91C108.64 124.13 109.66 123.32 108.86 123.85C109.88 123.1 110.86 122.29 111.78 121.42C112.42 120.83 113.08 120.18 113.7 119.54C113.86 119.38 114 119.25 114.17 119.05C114.32 118.86 114.45 118.66 114.56 118.44C114.7 118.11 114.88 117.79 115.1 117.5C115.15 117.45 115.21 117.4 115.27 117.38C115.35 117.34 115.44 117.31 115.54 117.26C115.56 117.25 115.59 117.24 115.61 117.23C115.39 117.21 115.16 117.19 114.91 117.18H114.86C114.81 117.22 114.75 117.25 114.68 117.25H113.93C113.79 117.22 113.8 117.39 113.64 117.32C112.85 117.38 112.15 117.58 111.44 117.67C111.29 117.7 111.28 117.83 111.08 117.82C110.71 117.75 110.2 117.99 109.77 118.12C109.63 118.15 109.58 117.98 109.44 118C109.4 117.97 109.15 117.8 109.17 118.02C109.23 118.02 109.3 117.98 109.32 118.04C109.27 118.04 109.19 118.08 109.17 118.02C109.05 118.04 108.95 118.1 108.89 118.21C108.76 118.17 108.66 118.08 108.5 118.14C108.2 118.22 108.21 118.3 107.98 118.31C108.06 118.45 107.78 118.44 107.71 118.52C107.63 118.49 107.53 118.57 107.46 118.48C107.56 118.43 107.71 118.4 107.66 118.29C107.49 118.32 107.27 118.6 107.14 118.48C107.44 118.26 107.8 118.13 108.18 118.12C108.16 118.02 108.24 118.1 108.3 118.06C108.29 117.97 108.34 117.84 108.4 117.94C108.46 117.89 108.38 117.79 108.46 117.74C108.58 117.76 108.7 117.74 108.81 117.68C108.89 117.7 108.93 117.81 109.06 117.74C108.99 117.63 109.06 117.59 109.13 117.56C109.24 117.54 109.21 117.46 109.3 117.42C109.34 117.58 109.54 117.37 109.65 117.38L110.04 117.25C110.29 117.18 110.52 117.12 110.76 117.06C110.8 117 110.86 116.96 110.93 116.94C111.4 116.82 111.96 116.77 112.3 116.62C112.56 116.61 112.82 116.59 113.07 116.54C113.47 116.49 113.91 116.47 114.36 116.46C114.78 116.44 115.19 116.47 115.6 116.55H115.62C115.7 116.57 115.76 116.61 115.82 116.63C115.83 116.64 115.84 116.64 115.86 116.64C115.97 116.64 116.09 116.62 116.2 116.61C116.23 116.61 116.26 116.65 116.3 116.68C116.5 116.5 116.73 116.35 116.97 116.22L117.58 115.82C117.63 115.78 117.69 115.74 117.75 115.69L117.4 115.6L117.32 115.58V115.57V115.57ZM110.77 114.79C110.81 114.82 110.73 114.89 110.71 114.87C110.69 114.86 110.74 114.77 110.77 114.79ZM93.55 118.31C93.58 118.34 93.57 118.41 93.55 118.39C93.53 118.38 93.54 118.3 93.55 118.31ZM93.35 118.39L93.45 118.35C93.49 118.43 93.42 118.42 93.38 118.45L93.28 118.49C93.25 118.42 93.32 118.41 93.35 118.39ZM115.1 117.37C115.13 117.41 115.06 117.46 115.05 117.44C115.04 117.42 115.09 117.34 115.1 117.37ZM109.45 115.73C109.49 115.75 109.32 115.99 109.19 115.9C109.14 115.85 109.39 115.69 109.45 115.73ZM108.44 114.92C108.53 114.9 108.57 114.86 108.57 114.8C108.97 114.84 109.5 114.64 109.95 114.61C109.91 114.71 109.91 114.81 109.95 114.91C109.57 114.88 109.47 115.11 109.26 115.34C108.97 115.36 108.69 115.43 108.42 115.54C108.39 115.47 108.49 115.45 108.54 115.41C108.46 115.29 108.24 115.46 108.22 115.22C108.02 115.31 107.89 115.31 107.84 115.12C108.04 115.07 108.24 114.99 108.44 114.92V114.92ZM107.6 115.23C107.64 115.39 107.47 115.47 107.34 115.43C107.32 115.22 107.41 115.31 107.6 115.23ZM103.86 117.28L104.17 117.06V117.05C104.23 117 104.29 116.96 104.35 116.92C104.55 116.8 104.75 116.68 104.82 116.53C104.95 116.53 105.08 116.48 105.18 116.38C105.54 116.07 106.04 115.92 106.76 115.53C106.85 115.64 106.99 115.62 107.06 115.79C107.24 115.73 107.4 115.71 107.51 115.82C107.25 116.05 106.83 115.94 106.9 116.19C107.21 116.04 107.53 115.86 107.78 115.86C107.93 115.72 108.25 115.6 108.37 115.86C108.47 116 107.74 116.09 108.06 116.13C108.26 116.06 108.53 115.89 108.61 116.08C108.65 116.07 108.7 116.06 108.7 116.12C108.66 116.13 108.61 116.14 108.61 116.08C108.44 116.25 108.28 116.15 107.97 116.33C107.72 116.45 107.47 116.56 107.22 116.68C107.09 116.56 106.8 116.92 106.68 116.79C106.63 116.45 107.08 116.59 107.33 116.39C107.42 116.3 107.3 116.32 107.23 116.35L107.03 116.45C106.95 116.31 106.72 116.57 106.58 116.6C106.39 116.67 106.66 116.87 106.42 116.93C106.37 117.06 106.22 117.15 106.12 117.01C106.19 116.92 106.5 116.9 106.42 116.76C105.99 116.98 105.7 116.78 105.3 116.98C105.19 117.19 105.07 117.38 104.94 117.57L104.78 117.63C104.75 117.63 104.7 117.62 104.66 117.61H104.62L104.27 117.58H104.22C104.2 117.58 104.19 117.58 104.17 117.57C103.99 117.56 103.8 117.53 103.62 117.5C103.6 117.41 103.8 117.36 103.86 117.28ZM106.44 118.01C106.49 118.13 106.42 118.21 106.27 118.28C106.1 118.13 106.34 118.09 106.44 118.01ZM87.74 131.01C87.71 130.98 87.75 130.91 87.77 130.93C87.79 130.95 87.76 131.03 87.74 131.01ZM90.18 134.06C90.18 134.09 90.19 134.13 90.19 134.16C90.1869 134.133 90.1802 134.106 90.17 134.08C90.16 134.05 90.17 134.07 90.18 134.06V134.06ZM89.71 131.35C89.71 131.3 89.7 131.26 89.69 131.22V131.24L89.71 131.35V131.35ZM90.2 134.24V134.3C90.2 134.28 90.19 134.26 90.18 134.24C90.18 134.21 90.18 134.19 90.17 134.16C90.17 134.18 90.18 134.21 90.19 134.23L90.2 134.24V134.24ZM91.57 121.42C91.61 121.44 91.61 121.51 91.59 121.5C91.56 121.48 91.55 121.4 91.57 121.42ZM94 124.81C93.95 124.73 94 124.72 94.05 124.79C94.05 124.83 94.05 124.88 94 124.81ZM94.13 124.99C94.09 124.97 94.09 124.91 94.11 124.92C94.13 124.94 94.15 125 94.13 124.99ZM92.44 121.11C92.48 121.13 92.47 121.19 92.45 121.18C92.43 121.17 92.42 121.09 92.44 121.11ZM94 122C93.96 121.94 94 121.94 94.02 121.92C94.06 121.97 94.02 121.98 94 122ZM94.09 121.97C94.05 121.9 94.11 121.89 94.14 121.87C94.19 121.94 94.12 121.94 94.09 121.97ZM94.25 121.9C94.21 121.84 94.26 121.84 94.27 121.81C94.31 121.88 94.27 121.88 94.25 121.9ZM94.33 121.79C94.36 121.81 94.36 121.88 94.33 121.87C94.31 121.86 94.3 121.77 94.33 121.79ZM94.54 121.87C94.51 121.84 94.51 121.78 94.54 121.79C94.56 121.81 94.57 121.88 94.54 121.87ZM95.03 121.7C94.99 121.62 95.05 121.62 95.09 121.6L95.18 121.57C95.22 121.64 95.15 121.64 95.12 121.66L95.03 121.7V121.7ZM94.4 119.66C94.36 119.63 94.37 119.56 94.4 119.58C94.43 119.6 94.42 119.67 94.4 119.66ZM94.5 119.63C94.46 119.6 94.47 119.54 94.5 119.55C94.53 119.56 94.52 119.64 94.5 119.63ZM94.85 119.98C94.82 119.91 94.85 119.92 94.88 119.89C94.91 119.96 94.87 119.96 94.85 119.98ZM95.14 119.66C95.11 119.6 95.16 119.59 95.17 119.57L95.27 119.54C95.31 119.6 95.26 119.6 95.24 119.62L95.14 119.66ZM95.24 119.78C95.27 119.81 95.26 119.87 95.24 119.86C95.22 119.84 95.23 119.76 95.24 119.78ZM95.62 119.67C95.67 119.75 95.54 119.82 95.45 119.8C95.36 119.77 95.56 119.59 95.62 119.67ZM95.34 119.59C95.3 119.56 95.32 119.5 95.34 119.51C95.36 119.53 95.36 119.62 95.34 119.59ZM95.47 119.55C95.44 119.52 95.46 119.46 95.47 119.47C95.49 119.5 95.49 119.57 95.47 119.55ZM96.02 119.49C96.12 119.75 95.79 119.65 95.69 119.73C95.6 119.6 95.74 119.47 95.83 119.62C95.89 119.58 95.89 119.48 96.02 119.49ZM95.79 119.47C95.75 119.3 95.87 119.29 95.99 119.27C96.09 119.49 95.88 119.44 95.79 119.47ZM96.51 121.05C96.48 120.98 96.51 120.99 96.54 120.96C96.56 121.02 96.59 121.02 96.6 121.02C96.67 121.02 96.62 120.94 96.67 120.93C96.73 120.88 96.8 121.03 96.87 120.96L97.14 120.91C97.21 120.94 97.29 120.78 97.37 120.94L96.91 121.03L96.46 121.13L96.33 121.17C96.29 121.17 96.28 121.11 96.3 121.1L96.51 121.05V121.05ZM96.27 119.35C96.19 119.33 96.11 119.49 96.03 119.26C96.06 119.24 96.07 119.28 96.1 119.32C96.13 119.3 96.34 119.25 96.27 119.35ZM96.37 119.41C96.4 119.49 96.34 119.48 96.3 119.5L96.16 119.53C96.13 119.45 96.19 119.46 96.22 119.44L96.37 119.41V119.41ZM97.62 120.81C97.59 120.78 97.6 120.72 97.62 120.73C97.64 120.75 97.64 120.83 97.62 120.81ZM97.02 119.42C97 119.37 97.02 119.35 96.99 119.27L97.06 119.26C97.15 119.4 97.06 119.4 97.02 119.42V119.42ZM97.72 120.64C97.7 120.53 97.78 120.52 97.83 120.47C98.01 120.45 98.02 120.49 98.16 120.41C98.2 120.49 98.22 120.44 98.2 120.41C98.25 120.42 98.28 120.54 98.33 120.54C98.29 120.38 98.38 120.6 98.4 120.61C98.47 120.64 98.55 120.55 98.63 120.58L98.73 120.57C98.75 120.64 98.71 120.63 98.69 120.65L98.45 120.68C98.39 120.65 98.31 120.79 98.25 120.63C98.24 120.69 98.18 120.74 98.12 120.73C97.99 120.72 97.86 120.57 97.72 120.64V120.64ZM96.13 120.9C96.16 120.93 96.15 121 96.13 120.98C96.11 120.96 96.11 120.89 96.13 120.9ZM104.55 122.17L104.58 122.2L104.59 122.21L104.6 122.24C104.587 122.214 104.57 122.191 104.55 122.17V122.17ZM106.11 124.31L106.1 124.28L106.09 124.24L106.15 124.38L106.11 124.31V124.31ZM106.24 124.54L106.25 124.56L106.24 124.54ZM106.22 124.53V124.51C106.23 124.52 106.23 124.53 106.24 124.54L106.22 124.53ZM105.8 123.46V123.47V123.46ZM105.9 123.77V123.78V123.77ZM105.9 123.77V123.73L105.91 123.76V123.77H105.9ZM105.79 123.4C105.79 123.37 105.77 123.33 105.76 123.31C105.77 123.34 105.78 123.36 105.79 123.39V123.4ZM105.73 123.2L105.72 123.17V123.13L105.73 123.2V123.2ZM103.68 120.01L103.81 119.89C103.95 120.11 103.74 120.1 103.68 120.19C103.55 120.06 103.83 120.15 103.68 120.01V120.01ZM103.32 119.07C103.3 119 103.35 119.01 103.38 119V119.03C103.38 119.04 103.38 119.05 103.37 119.06C103.35 119.06 103.34 119.06 103.32 119.07V119.07ZM103.42 118.2C103.41 118.12 103.48 118.15 103.53 118.13C103.52 118.22 103.46 118.19 103.42 118.2ZM103.27 118.49C103.25 118.42 103.31 118.43 103.33 118.42C103.35 118.48 103.31 118.47 103.27 118.49ZM103.4 118.71C103.4 118.85 103.34 118.78 103.27 118.74C103.25 118.73 103.24 118.71 103.22 118.71C103.2 118.69 103.18 118.69 103.16 118.71C103.16 118.44 103.25 118.64 103.35 118.7C103.36 118.7 103.38 118.7 103.4 118.71ZM103.51 118.71C103.54 118.68 103.57 118.66 103.61 118.66H103.62C103.7 118.64 103.78 118.64 103.85 118.65C103.97 118.67 104.09 118.68 104.21 118.67C104.21 118.74 104.17 118.72 104.14 118.74C104.05 118.7 104.11 118.88 104.05 118.88C103.99 118.88 103.96 118.79 103.88 118.8C103.815 118.78 103.745 118.78 103.68 118.8C103.58 118.82 103.48 118.86 103.43 118.8C103.43 118.72 103.47 118.63 103.5 118.73L103.51 118.71ZM104.89 119.07H104.91C105.08 118.98 105.23 118.86 105.36 118.71C105.54 118.86 105.33 118.89 105.26 118.96L104.99 119.16C104.974 119.166 104.96 119.175 104.947 119.188C104.935 119.2 104.926 119.214 104.92 119.23C104.91 119.27 104.89 119.3 104.87 119.34C104.6 119.31 104.69 119.71 104.4 119.43C104.44 119.39 104.48 119.39 104.52 119.43C104.6 119.27 104.73 119.15 104.89 119.07V119.07ZM104.61 118.84C104.58 118.8 104.61 118.75 104.64 118.77C104.67 118.79 104.62 118.86 104.61 118.84ZM104.72 118.05V118.09L104.71 118.11C104.71 118.08 104.7 118.05 104.69 118.02L104.68 117.95V117.92L104.71 117.89C104.74 117.89 104.79 117.9 104.77 117.91L104.72 118.05ZM104.78 118.31C104.78 118.31 104.76 118.31 104.75 118.32C104.74 118.34 104.77 118.32 104.78 118.31ZM104.48 117.9C104.42 117.83 104.36 117.83 104.32 117.87C104.3 117.85 104.28 117.83 104.28 117.8L104.51 117.83C104.49 117.85 104.48 117.88 104.48 117.9ZM104.82 118.74H104.85C104.87 118.75 104.89 118.75 104.91 118.75V118.84C104.92 118.87 104.92 118.9 104.94 118.92C104.92 118.93 104.89 118.93 104.87 118.94C104.85 118.95 104.84 118.96 104.83 118.97C104.8 118.91 104.75 118.861 104.69 118.83C104.69 118.76 104.75 118.74 104.82 118.74ZM104.97 117.83C105.04 117.8 105.06 117.75 105.03 117.69C105.16 117.55 105.26 117.57 105.32 117.76C105.12 117.7 105.2 117.96 105.04 118.04C104.97 117.96 104.91 117.88 104.97 117.83V117.83ZM105.62 118.88C105.66 118.95 105.57 118.99 105.52 119.04C105.48 118.96 105.57 118.93 105.62 118.88ZM105.38 119.14C105.33 119.13 105.36 119.04 105.38 119.04C105.4 119.04 105.4 119.14 105.38 119.14ZM103.7 119.1H103.58C103.55 118.86 103.87 118.94 103.97 119.03C104.06 118.95 104.2 118.95 104.28 119.04C104.3 119.2 104.09 119.06 104.02 119.11L103.7 119.1ZM104.24 119.56C104.35 119.68 104.15 119.67 104.14 119.74C104.19 119.82 104.1 119.85 104.07 119.89C104.04 119.93 103.96 119.87 103.92 119.92C103.89 119.83 103.95 119.78 104.02 119.72C104.1 119.69 104.17 119.63 104.24 119.56V119.56ZM104.52 119.71L104.62 119.62L104.88 119.42C104.92 119.49 104.85 119.52 104.81 119.57L104.7 119.65L104.47 119.84C104.42 119.76 104.49 119.75 104.52 119.71ZM106.25 119.15C105.83 119.42 105.5 119.67 105.2 119.91L105.16 119.85C105.13 119.9 105.11 119.94 105.07 119.98C104.98 120.07 104.87 120.16 104.74 120.28C104.55 120.1 104.79 120.1 104.84 120.01L105.04 119.84L105.1 119.79L105.15 119.85C105.17 119.72 105.26 119.62 105.38 119.58C105.48 119.55 105.43 119.56 105.5 119.49C105.57 119.42 105.64 119.49 105.68 119.45C105.72 119.41 105.7 119.36 105.73 119.32C105.88 119.12 106.09 119.14 106.27 118.95C106.32 118.92 106.37 118.87 106.43 118.85C106.49 118.82 106.52 118.88 106.52 118.88C106.58 118.86 106.77 118.49 106.94 118.79C106.64 118.87 106.57 119.08 106.25 119.14V119.15V119.15ZM105.25 117.53C105.34 117.51 105.44 117.55 105.48 117.64C105.38 117.75 105.32 117.63 105.25 117.53ZM103.18 117.69C103.23 117.7 103.28 117.7 103.32 117.67C103.48 117.7 103.64 117.72 103.8 117.72C103.9 117.78 104 117.84 104.11 117.88C104.15 117.92 104.2 117.95 104.26 117.96C104.25 118 104.24 118.04 104.24 118.07C104.32 117.98 104.39 118.09 104.46 118.18C104.45 118.2 104.44 118.22 104.42 118.23C104.34 118.2 104.29 118.07 104.19 118.08C104.12 118.07 104.06 118.07 103.99 118.05C103.76 118.03 103.68 118.02 103.36 117.98C103.36 117.9 103.43 117.93 103.41 117.84C103.33 117.86 103.19 117.82 103.1 117.82C103.12 117.79 103.13 117.73 103.18 117.69ZM102.62 118.15C102.7 118.23 102.64 118.1 102.71 118.07C102.8 117.95 102.91 118.07 102.99 117.93L103.02 117.92C103.09 117.94 103.2 117.85 103.22 117.99C103.11 118.03 103.3 118.1 103.3 118.21L102.61 118.2C102.61 118.19 102.61 118.17 102.62 118.15V118.15ZM103.72 120.37L103.86 120.25L103.9 120.21C103.83 120.12 103.92 120.19 103.92 120.19C104.01 120.14 104.18 119.95 104.35 119.83C104.42 119.82 104.4 119.89 104.37 119.91L104.25 120.01L104.07 120.17C104 120.22 103.93 120.29 103.84 120.36C103.76 120.42 103.78 120.51 103.65 120.43L103.72 120.37V120.37ZM103.17 120.08C103.17 120.12 103.1 120.05 103.12 120.03C103.11 120.02 103.1 120.01 103.1 119.99C103.11 120.01 103.14 120.05 103.17 120.08ZM103.37 120.57C103.37 120.6 103.27 120.48 103.29 120.54C103.21 120.46 103.25 120.39 103.37 120.57ZM102.95 120.07C102.94 120 103.03 120.11 103.06 120.07C103.15 120.21 103.03 120.14 103.04 120.18L103 120.21C102.81 120 102.96 120.15 102.95 120.07ZM102.83 120.02C102.84 120.03 102.84 120.05 102.85 120.06C102.84 120.04 102.83 120.03 102.83 120.02C102.79 119.99 102.77 119.95 102.74 119.92C102.77 119.95 102.78 119.97 102.81 120L102.83 120.02V120.02ZM101.87 118.51C101.94 118.52 102.01 118.52 102.07 118.51C102.05 118.71 101.91 118.64 101.77 118.59C101.696 118.56 101.614 118.56 101.54 118.59C101.58 118.4 101.71 118.47 101.87 118.51ZM101.44 118.52C101.46 118.59 101.41 118.58 101.38 118.59C101.36 118.53 101.42 118.54 101.44 118.52ZM100.7 118.55C100.79 118.52 100.89 118.55 100.95 118.61L100.91 118.46C100.99 118.43 101.06 118.46 101.11 118.6C101.2 118.48 101.29 118.63 101.44 118.66C101.47 118.82 101.24 118.72 101.2 118.66C101.09 118.77 100.84 118.62 100.62 118.69C100.59 118.6 100.53 118.63 100.48 118.62C100.45 118.47 100.64 118.59 100.7 118.55V118.55ZM100.45 118.64C100.51 118.84 100.33 118.78 100.23 118.8C100.11 118.53 100.38 118.69 100.45 118.64ZM100.05 118.74C100.05 118.72 100.09 118.6 100.14 118.66C100.19 118.72 100.06 118.88 100.05 118.74ZM99.37 118.57L99.55 118.55C99.62 118.74 99.58 118.45 99.71 118.54L99.9 118.53C99.84 118.8 99.43 118.69 99.21 118.67C99.14 118.5 99.33 118.61 99.37 118.57ZM98.86 118.55C98.96 118.49 99.03 118.61 99.11 118.6C99.14 118.71 98.89 118.79 98.86 118.55ZM98.34 118.32C98.38 118.35 98.35 118.42 98.34 118.4C98.33 118.38 98.33 118.3 98.34 118.32ZM98.65 118.72C98.69 118.85 98.65 118.89 98.56 118.88C98.44 118.67 98.6 118.75 98.65 118.72ZM98.66 118.94L98.77 118.93C98.79 119 98.74 118.99 98.73 119L98.62 119.02C98.59 118.95 98.64 118.96 98.66 118.94V118.94ZM98.09 118.27C98.16 118.25 98.2 118.35 98.27 118.32C98.33 118.44 98.11 118.48 98.09 118.27ZM98.32 118.76C98.45 118.67 98.41 118.96 98.32 118.76C98.25 118.73 98.17 118.88 98.12 118.71C98.19 118.75 98.28 118.6 98.32 118.76ZM98.01 118.36C98.04 118.45 97.96 118.43 97.93 118.45C97.89 118.36 97.96 118.38 98.01 118.36ZM97.36 118.76C97.39 118.82 97.34 118.82 97.32 118.84C97.29 118.77 97.34 118.77 97.36 118.76ZM97.25 118.77C97.29 118.81 97.26 118.87 97.25 118.85C97.24 118.84 97.24 118.76 97.25 118.77ZM95.75 119.11C95.87 119.04 96.07 119.06 96.2 119C96.25 118.98 96.28 118.91 96.3 118.9C96.32 118.89 96.41 118.95 96.44 118.95C96.47 118.95 96.48 118.86 96.51 118.85C96.57 118.84 96.62 118.89 96.68 118.89C96.83 118.89 96.95 118.81 97.11 118.81C97.26 118.91 96.95 118.9 96.89 118.93C96.97 119.08 97.06 118.93 97.13 118.96L97.41 118.91C97.46 118.91 97.48 118.87 97.49 118.82C97.83 118.88 98.17 118.88 98.5 118.96C98.54 119.07 98.44 119.04 98.38 119.06C98.43 119.14 98.49 119.2 98.55 119.18C98.53 119.38 98.23 119.24 98.12 119.24C98.02 119.04 98.33 119.27 98.23 119.07C98.14 118.96 98 119.16 97.91 119.2C97.87 119.13 97.91 119.11 97.88 119.05C97.81 119.05 97.84 119.14 97.77 119.14C97.72 119.14 97.67 119.12 97.63 119.08C97.5 119.14 97.22 119.06 97.2 119.24C97.14 119.27 97.09 119.18 97.02 119.19C96.98 119.24 96.78 119.14 96.84 119.3C96.7 119.24 96.62 119.18 96.56 119.28C96.59 119.33 96.63 119.36 96.66 119.33C96.69 119.41 96.64 119.42 96.59 119.42C96.54 119.43 96.47 119.45 96.42 119.3L96.28 119.33C96.26 119.13 96.36 119.26 96.42 119.15C96.29 118.98 96.2 119.18 96.14 119.21C95.9 119.18 95.51 119.21 95.39 119.41C95.15 119.42 94.9 119.46 94.67 119.54C94.65 119.34 94.84 119.42 94.94 119.38C95 119.36 95.01 119.28 95.04 119.27C95.13 119.24 95.21 119.3 95.24 119.28C95.27 119.26 95.24 119.2 95.24 119.2C95.27 119.18 95.33 119.25 95.38 119.24L95.62 119.18C95.67 119.16 95.67 119.1 95.69 119.09L95.75 119.11V119.11ZM94.24 118.78L94.69 118.64C94.84 118.66 95 118.64 95.15 118.59C95.22 118.74 94.96 118.63 95.01 118.77C94.65 118.83 94.3 119.09 93.94 119.04C93.89 118.84 94.28 118.97 94.24 118.78ZM93.8 119.01C93.84 119.03 93.82 119.1 93.8 119.08C93.77 119.07 93.78 119 93.8 119.01ZM93.84 119.78L93.9 119.76L94.04 119.71C94.07 119.8 93.99 119.8 93.95 119.82C93.9 119.89 93.69 119.84 93.84 119.78ZM92.32 120.51C92.36 120.58 92.3 120.59 92.26 120.62C92.22 120.54 92.29 120.54 92.32 120.51ZM91.14 121.24L91.2 121.21C91.33 121.36 90.96 121.31 91.14 121.24ZM90.89 121.39C90.94 121.46 90.88 121.47 90.85 121.5C90.8 121.43 90.86 121.41 90.89 121.39ZM90.89 121.56L91.01 121.48C91.1 121.42 91.19 121.37 91.28 121.31C91.31 121.28 91.34 121.25 91.26 121.16C91.35 121.14 91.44 121.14 91.53 121.16C92.06 120.9 92.28 120.65 92.85 120.42C92.69 120.31 92.57 120.52 92.42 120.54C92.29 120.29 92.62 120.34 92.72 120.23C92.77 120.2 92.84 120.2 92.89 120.23C92.95 120.12 93.06 120.05 93.18 120.03C93.28 120.16 93.34 119.98 93.36 120.2C93.4 120.11 93.51 120.01 93.66 120.23C93.84 120.3 93.81 120.18 94 120.19C94.14 120.14 94.29 120.08 94.42 120.04C94.51 120.25 94.22 120.19 94.24 120.34C93.86 120.26 93.68 120.58 93.37 120.68C93.22 120.43 93.49 120.69 93.42 120.5C93.33 120.36 93.27 120.53 93.19 120.52C93.03 120.41 93.12 120.62 92.99 120.52C92.92 120.53 92.97 120.62 92.91 120.64L92.79 120.7C92.75 120.64 92.68 120.65 92.72 120.73C92.56 120.61 92.65 120.87 92.49 120.76C92.47 120.84 92.35 120.86 92.39 120.97C92.03 120.94 91.73 121.36 91.38 121.36L91.13 121.5L90.86 121.67C90.82 121.6 90.86 121.58 90.91 121.56H90.89V121.56ZM90.74 121.64C90.78 121.66 90.78 121.73 90.76 121.72C90.74 121.71 90.73 121.62 90.74 121.64ZM89.1 121.1C89.13 121.06 89.18 121.17 89.1 121.1C89.07 121.13 89.01 121.03 89.1 121.1ZM89.61 122.74C89.82 122.57 90.04 122.4 90.26 122.24L90.32 122.2C90.15 122.09 90.49 122.05 90.49 122.08C90.48 122.03 90.51 121.88 90.67 121.95C90.73 121.78 90.85 121.84 91 121.75C91.15 121.66 91.26 121.58 91.4 121.5C91.49 121.64 91.29 121.6 91.26 121.67L91.09 121.79C90.84 122.08 90.51 122.31 90.15 122.44L89.64 122.84C89.56 122.95 89.52 122.77 89.62 122.76L89.61 122.74V122.74ZM88.29 130.66C88.57 130.58 88.86 130.54 89.15 130.52C89.28 130.53 89.41 130.51 89.54 130.47V130.46V130.5C89.54 130.58 89.56 130.64 89.57 130.7C89.58 130.76 89.58 130.79 89.59 130.83C89.57 130.81 89.55 130.81 89.53 130.83C89.44 130.84 89.42 130.8 89.29 130.86C89.18 130.81 89.15 130.92 89.04 130.75C88.95 130.81 88.85 130.85 88.75 130.87C88.6202 130.893 88.4867 130.887 88.36 130.85C88.39 130.72 88.36 130.68 88.26 130.73C88.24 130.66 88.26 130.65 88.29 130.65V130.66V130.66ZM88.03 130.86C88.1 130.81 88.07 130.64 88.2 130.68C88.21 130.79 88.11 131.04 88.03 130.86C87.98 130.86 87.97 130.74 87.93 130.73C87.91 130.53 88.05 130.7 88.03 130.86ZM87.8 130.91C87.79 130.8 87.75 130.66 87.84 130.68L87.87 130.83C87.85 130.83 87.83 130.85 87.85 130.91H87.8C87.82 130.99 87.75 130.96 87.8 130.91V130.91ZM87.56 130.74L87.64 130.72C87.64 130.82 87.56 130.8 87.5 130.82C87.49 130.75 87.54 130.76 87.56 130.74V130.74ZM90.23 134.66V134.68V134.66ZM114 117.72C114.02 117.63 114.07 117.57 114.17 117.58C114.14 117.67 114.09 117.72 114 117.72ZM114.67 117.34C114.67 117.34 114.69 117.31 114.7 117.31C114.71 117.31 114.7 117.3 114.71 117.3H114.73C114.76 117.34 114.69 117.39 114.67 117.37C114.66 117.34 114.68 117.36 114.67 117.34V117.34ZM114 117.43C114.03 117.47 113.96 117.53 113.94 117.51C113.92 117.49 113.98 117.41 114 117.43ZM113.94 117.58C113.94 117.65 113.87 117.64 113.83 117.65C113.83 117.58 113.9 117.6 113.94 117.58ZM107.36 118.48C107.41 118.5 107.36 118.58 107.34 118.57C107.29 118.56 107.34 118.47 107.36 118.48ZM107.12 118.03C106.99 118.09 106.86 118.16 106.75 118.23C106.49 118.39 106.23 118.54 106.01 118.69C105.97 118.61 106.07 118.58 106.13 118.53L106.3 118.42L106.66 118.22C106.92 118.06 107.2 117.92 107.47 117.79C107.53 117.93 107.22 117.95 107.13 118.05L107.12 118.03ZM107.65 117.69C107.61 117.47 107.87 117.63 107.97 117.54C108 117.76 107.74 117.6 107.65 117.69ZM108.19 117.52C108.14 117.5 108.19 117.42 108.22 117.42C108.25 117.42 108.22 117.53 108.19 117.52ZM108.29 117.4C108.27 117.32 108.38 117.29 108.46 117.25C108.47 117.33 108.36 117.36 108.29 117.4ZM108.75 117.21L108.55 117.29C108.53 117.23 108.61 117.21 108.65 117.17L108.85 117.1C108.87 117.17 108.79 117.18 108.75 117.21ZM112.56 116.29C112.38 116.21 112.34 116.16 112.39 115.94C112.25 116 111.94 115.91 111.93 116.07C112.02 116.07 112.03 116.15 112.14 116.12C112.18 116.25 111.85 116.26 111.93 116.07C111.89 116.08 111.86 116.09 111.88 116.15C111.77 116.38 111.42 116.07 111.42 116.38C111.36 116.26 111.1 116.45 111.05 116.31C110.92 116.34 111.01 116.51 110.81 116.51C110.791 116.433 110.798 116.352 110.83 116.28C110.47 116.36 110.16 116.48 110 116.71C109.71 116.74 109.63 116.9 109.41 116.97C109.21 117.1 109.17 116.93 109.03 116.94C108.83 117.04 108.62 117.09 108.4 117.1C108.2 117.13 108.27 117.27 108.11 117.31L107.66 117.51C107.63 117.52 107.55 117.48 107.56 117.48C107.5 117.52 107.51 117.57 107.47 117.61C107.34 117.72 107.16 117.78 106.99 117.77L106.74 117.9C106.66 117.95 106.5 118.02 106.58 117.9C106.95 117.7 107.34 117.5 107.72 117.31C108 117.25 108.1 117.01 108.25 117.07C108.38 117.03 108.37 116.93 108.49 116.89C109.03 116.64 109.79 116.52 110.19 116.25C110.28 116.21 110.39 116.21 110.48 116.25C110.86 116 111.61 115.96 112.12 115.87C112.33 115.87 112.34 115.71 112.58 115.75C112.48 115.98 112.63 116.11 112.57 116.26L112.56 116.29ZM112.65 115.83C112.61 115.79 112.69 115.73 112.7 115.75C112.71 115.77 112.66 115.85 112.65 115.83ZM113.11 115.72C113.04 115.83 112.9 115.87 112.78 115.81C112.77 115.81 112.94 115.59 113.11 115.72ZM113.51 115.91C113.42 115.91 113.28 115.91 113.32 116.07C113.18 116.03 112.87 116.22 112.92 115.96C112.97 115.97 113.05 115.96 113.06 116.02C113.15 116.02 113.12 115.8 113.18 115.94C113.23 115.92 113.26 115.87 113.24 115.79C113.37 115.78 113.48 115.81 113.51 115.91C113.57 116.01 113.6 115.9 113.51 115.91ZM113.71 115.83C113.77 115.7 113.91 115.66 114.09 115.68H114.34C114.33 115.77 114.22 115.74 114.14 115.76C113.96 115.76 113.83 115.98 113.7 115.83H113.71V115.83ZM114.39 116.05H114.14C114.14 115.96 114.25 115.99 114.33 115.98H114.6C114.59 116.07 114.49 116.04 114.41 116.05H114.39ZM114.85 116.06H114.66C114.67 115.97 114.77 116 114.85 115.99H115.03C115.03 116.08 114.93 116.05 114.85 116.06ZM115.21 116.08C115.19 116.04 115.26 115.99 115.27 116.01C115.29 116.03 115.23 116.09 115.21 116.08ZM115.75 115.24C115.77 115.16 115.81 115.21 115.8 115.24C115.79 115.32 115.75 115.28 115.75 115.24ZM90.24 134.68C90.24 134.62 90.21 134.55 90.2 134.49L90.23 134.69L90.24 134.68ZM90.13 134.11V134.09C90.12 134.07 90.12 134.05 90.12 134.03V134.11H90.13ZM105.82 123.95C105.83 123.96 105.84 123.98 105.85 123.99C105.83 123.99 105.82 123.96 105.82 123.95ZM104.4 122.02C104.38 122 104.37 121.98 104.35 121.96L104.41 122.05L104.44 122.08C104.423 122.063 104.41 122.042 104.4 122.02V122.02ZM103.23 120.54V120.53C103.24 120.54 103.25 120.55 103.25 120.57V120.56C103.25 120.55 103.24 120.55 103.24 120.55" fill="url(#paint1_linear_1230_3776)"/>
<path d="M8.91998 71.2001C9.16998 70.7201 9.36998 70.2601 9.38998 69.8801C9.52998 67.1501 11.25 64.9801 11.4 62.1801C11.57 58.9301 11.59 55.6501 11.96 52.4801C12.13 50.9201 12.43 49.3801 12.85 47.8601C13 47.3301 13.17 46.8101 13.35 46.2901C14 44.4901 14.92 42.7901 16.09 41.2701C16.35 40.9201 16.6 40.5601 16.82 40.1901C16.94 40.0101 17.04 39.8201 17.15 39.6301C18.13 37.8301 19.24 36.1101 20.5 34.4801C21.84 32.7501 23.28 31.1001 24.81 29.5401V29.5301C24.81 29.5301 24.81 29.5201 24.82 29.5101C25.63 28.6801 26.45 27.8801 27.29 27.1201C27.29 27.1101 27.3 27.1101 27.31 27.1001C27.32 27.0901 27.31 27.1001 27.31 27.0901C27.82 26.6101 28.34 26.1601 28.85 25.7001C28.86 25.7201 28.88 25.7401 28.9 25.7501C29.93 26.8301 29.75 24.8801 30.84 24.9201C31.19 24.9401 31.93 24.4801 31.45 24.1001C31.16 23.8801 31.13 24.0301 31.13 23.7801V23.4901C31.24 23.0801 31.44 22.7101 31.72 22.3901C32.07 22.0101 32.49 21.7101 32.96 21.5101C33.36 20.9501 33.95 20.7301 34.56 20.5901C34.78 20.5401 35 20.5001 35.24 20.4601L35.45 20.4301C35.62 20.4201 35.79 20.4301 35.95 20.4601C36.15 20.5501 36.45 20.4801 36.8 20.3401H36.82C36.93 20.3001 37.03 20.2601 37.13 20.2101C37.89 19.8701 38.78 19.3501 39.31 19.3301C39.44 19.3101 39.57 19.3601 39.66 19.4501C41.44 18.6101 45.45 17.7201 45.45 17.7201C45.55 17.7201 45.66 17.7301 45.76 17.7501H45.78C46.43 17.8401 47.07 17.9701 47.7 18.1501C47.84 18.1901 47.98 18.2101 48.12 18.2301C48.23 18.2301 48.33 18.2201 48.43 18.1901H48.45C49.67 17.8701 51.35 16.0601 52.28 16.2601C53.79 14.8001 55.18 14.2801 56.59 14.0801C58.81 13.7601 61.09 14.2101 63.99 12.8901C64.5 12.6501 65.03 12.4501 65.55 12.2601C65.62 12.2401 65.7 12.2101 65.78 12.1901C69.14 11.0401 72.82 10.7401 76.42 10.5301C76.64 10.5201 76.86 10.5001 77.08 10.5001H77.11C78.86 10.4301 80.61 10.4801 82.36 10.6601H82.43L83.3 10.7601C84.08 10.8501 84.85 10.9601 85.6 11.1101H85.64C85.73 11.1201 85.81 11.1401 85.9 11.1501H85.91C86.9 11.3501 87.88 11.5901 88.85 11.8701C89.34 12.0201 89.83 12.1601 90.33 12.3201L90.47 12.3601C90.65 12.4201 90.84 12.4801 91.02 12.5401C91.71 12.7701 92.39 13.0301 93.08 13.2901C93.11 13.3001 93.14 13.3101 93.16 13.3201L93.64 13.5101C93.65 13.5201 93.67 13.5301 93.69 13.5301C94.24 13.7601 94.81 14.0001 95.36 14.2501H95.38L96.19 14.6201C96.22 14.6301 96.24 14.6501 96.27 14.6601C98.32 15.6201 100.38 16.7101 102.5 17.8901C102.78 18.0501 104.13 18.1601 104.98 18.2901C105.21 18.3101 105.43 18.3701 105.64 18.4601C108.1 19.9101 109.58 20.3601 111.69 22.1101C112.04 22.4001 112.2 23.0701 112.39 23.6701C112.52 24.0701 112.66 24.4301 112.88 24.6301C117.83 29.1501 122.19 34.1501 125.34 40.3701C126.26 42.1901 127.73 44.9001 127.48 46.1101C127.28 47.1301 128.84 47.7801 129.23 48.7501C129.53 49.4801 130.01 50.1001 130.1 50.9701M130.14 51.0101C130.23 51.9301 130.03 53.1301 130.31 54.0101C130.37 54.2001 130.46 54.3901 130.56 54.5601V54.6001C131.08 55.5601 132 56.3801 132.25 57.4501C132.49 58.5201 132.66 59.6101 132.75 60.7001C132.93 62.5801 132.95 64.4501 133.09 66.3201C133.16 67.4601 133.92 68.5401 133.92 69.6801C133.92 70.8201 133.44 71.9301 133.38 73.0801C133.208 75.9006 132.831 78.7047 132.25 81.4701C131.85 83.4301 131.42 85.2801 130.95 87.0601C130.4 89.2301 129.73 91.3701 128.96 93.4701C128.24 95.4201 127.43 97.3201 126.51 99.1801C125.97 100.27 125.4 101.38 124.76 102.52C124.61 102.78 123.4 103.57 123.26 104.39C123.2 104.82 122.61 107.57 122.51 107.76C121.1 110.13 119.21 111.55 117.96 113.08C117.69 113.41 118.01 113.95 118.09 114.43C118.14 114.63 118.1 114.85 117.97 115.02C117.65 115.4 117.14 115.64 116.64 115.96C116.33 116.14 116.05 116.37 115.8 116.63C115.56 116.9 114.99 116.95 114.76 117.22C114.43 117.58 114.27 118.04 114.04 118.45C113.96 118.6 113.85 118.74 113.74 118.87C110.653 122.079 107.26 124.979 103.61 127.53C102.65 128.21 101.68 128.85 100.69 129.46C96.69 131.99 92.4 134.03 87.9 135.53C80.8684 137.851 73.4148 138.609 66.06 137.75C65.4 137.68 64.24 136.57 63.6 136.48C62.67 136.35 62.24 137.23 61.31 137.07C60.38 136.91 60.26 136.1 59.34 135.9C58.42 135.7 56.72 136.13 55.8 135.89C53.5933 135.321 51.42 134.63 49.29 133.82C48.92 133.68 48.61 133.09 48.24 132.94C46.24 132.13 44.2 131.65 42.28 130.59C41.96 130.41 41.63 130.23 41.31 130.05C38.0714 128.197 35.0437 125.997 32.28 123.49C29.8583 121.299 27.6516 118.881 25.69 116.27C25.04 115.41 24.42 114.53 23.81 113.62C22.82 112.13 21.9 110.58 21.03 108.97C19.72 106.54 21.03 108.97 21.02 108.96V108.94C20.58 108.13 20.17 107.31 19.77 106.47C19.28 105.46 18.8 104.45 18.32 103.43C17.85 102.41 17.36 101.38 16.89 100.36C16.06 98.5201 16.8 96.0601 15.45 94.5701C14.9 93.9601 13.99 93.5901 13.85 93.2201C13.36 91.9801 13.09 91.2401 12.64 89.9901C11.7 87.3301 10.98 84.5901 10.5 81.8001V81.7701C10.46 81.5601 10.43 81.3501 10.39 81.1401C10.39 81.1201 10.39 81.0901 10.38 81.0701C10.38 81.0001 10.36 80.9401 10.35 80.8701V80.8601C10.29 80.4401 10.22 80.0101 10.17 79.5901C10.08 78.8301 9.99998 78.0801 9.93998 77.3201C9.88998 76.7001 9.43998 76.2601 8.99998 75.6801C8.57998 75.1601 8.28998 74.5501 8.15998 73.8901C7.98998 73.0001 8.48998 72.0701 8.88998 71.2601L130.14 51.0101V51.0101Z" stroke="black" stroke-width="1.5" stroke-miterlimit="10" stroke-linecap="round" stroke-linejoin="round"/>
<defs>
<linearGradient id="paint0_linear_1230_3776" x1="68.8491" y1="10.4663" x2="68.8491" y2="128.078" gradientUnits="userSpaceOnUse">
<stop offset="0.25" stop-color="#0AC4B4"/>
<stop offset="1" stop-color="#079592"/>
</linearGradient>
<linearGradient id="paint1_linear_1230_3776" x1="69.73" y1="10.0801" x2="69.73" y2="138.09" gradientUnits="userSpaceOnUse">
<stop stop-color="#0AC4B4"/>
<stop offset="1" stop-color="#079592"/>
</linearGradient>
</defs>
</svg>
