<svg width="116" height="208" viewBox="0 0 116 208" fill="none" xmlns="http://www.w3.org/2000/svg">
<path d="M46.61 121.76C41.57 118.33 35.24 116.25 29.32 117.7C23.4 119.15 18.35 124.87 19.07 130.92C19.4 133.66 20.79 136.13 21.82 138.69C24.47 145.29 24.73 152.81 22.53 159.57C20.93 164.5 18.1 168.95 16.17 173.76C13.7132 179.92 12.7669 186.579 13.41 193.18C13.63 195.38 14.06 197.66 15.42 199.41C17.48 202.06 21.63 202.79 24.47 201.01C27.32 199.23 28.46 195.18 26.98 192.17" stroke="black" stroke-width="1.5" stroke-miterlimit="10" stroke-linecap="round" stroke-linejoin="round"/>
<path d="M26.91 192.13C26.61 189.19 28.11 185.29 28.83 182.15" stroke="black" stroke-width="1.451" stroke-miterlimit="10" stroke-linecap="round" stroke-linejoin="round"/>
<path d="M27.85 196.14C29.26 196.93 30.9 197 31.68 196.69C33.4 196.01 34.39 193.82 34.54 191.83C34.69 189.84 34.2 187.92 33.98 185.97C33.76 184.02 33.87 181.83 35 180.19" stroke="black" stroke-width="1.558" stroke-miterlimit="10" stroke-linecap="round" stroke-linejoin="round"/>
<path d="M35.54 191.81C38.21 190.58 40.12 187.84 40.35 184.91C40.61 181.56 38.84 178.24 39.4 174.93M40.69 184.17C43.11 184.15 43.96 181.3 44.41 178.31C44.86 175.32 44.25 173.33 43.37 171.68M53.06 144.98C49.42 150.1 47.36 156.33 47.22 162.61C47.16 165.14 47.41 167.68 47.16 170.19C46.91 172.71 47.81 176.62 44.75 177.04M72.71 158.05C75.56 159.09 78.41 160.14 81.26 161.18M65.23 161.27C65.95 164.83 68.14 168.07 71.17 170.07M57.8 164.49C58.55 167.53 59.62 170.48 60.99 173.3" stroke="black" stroke-width="1.5" stroke-miterlimit="10" stroke-linecap="round" stroke-linejoin="round"/>
<path d="M94.62 87.8998C93.01 83.8998 91.87 79.7698 91.05 75.5298C90.04 70.2898 90.29 64.9998 90.27 59.7198C90.26 56.7898 90.8 53.9198 91.15 51.0298C91.44 48.6198 92.07 46.2998 93.2 44.0998C94.3 41.9598 95.53 38.7498 96.58 36.2298C96.84 35.7698 97.05 35.3198 97.17 34.8598C97.31 34.3098 97.46 33.7498 97.59 33.1998C97.73 32.5998 97.67 32.1798 97.45 32.1398C96.75 32.0298 95.98 32.1898 95.49 31.3398C95.45 31.2598 95.34 31.2998 95.26 31.3498C95.03 31.4798 94.87 31.3298 94.69 31.2798C93.89 31.0698 93.17 30.4198 92.14 31.2698C92.09 31.3098 92.01 31.3098 92.01 31.3098C92.15 30.1898 91.63 31.1998 91.48 31.0098C91.56 30.5898 91.78 30.3598 91.84 29.9498C92.13 28.1798 92.46 26.3998 92.92 24.6298C93.42 23.8898 93.53 22.7698 93.89 21.8798C94.14 21.2698 94.13 20.7398 93.84 20.6098C93.72 20.2898 94.24 19.0398 93.64 19.3998C93.62 19.4098 93.61 19.2498 93.6 19.1598C93.43 18.1998 93.94 17.6798 94.3 16.8398C94.19 17.4498 94.1 17.8798 94.05 18.2898C94 18.7198 94.09 18.9098 94.33 18.6698C94.52 18.4798 95.14 16.6698 95.05 16.5598C94.69 16.1398 95.13 15.7598 95.28 15.3598C95.45 14.8998 95.77 14.1998 95.4 14.1898C94.93 14.1798 94.63 13.6398 94.18 13.5698C93.22 13.4198 92.35 12.8998 91.36 12.8498C90.51 12.8098 89.71 12.4698 88.89 12.2698C88.59 12.1898 88.3 12.1198 88 12.0398C87.54 11.9598 87.14 11.6598 86.6 11.9198C86.53 11.5098 86.35 11.8598 86.19 12.0498C85.81 12.0398 85.44 12.0198 85.06 12.0098L84.47 12.0998C84.13 11.8798 83.67 12.3198 83.31 12.5898C82.23 13.4298 81.41 13.0898 80.54 12.9598C80.02 12.8798 79.6 12.3898 78.97 12.8198C78.59 13.1298 78.33 12.8298 78.02 12.8198C78.02 12.4398 77.86 12.6998 77.75 12.7498C77.6 12.6898 77.44 12.6798 77.25 12.8598C76.44 12.6198 76.44 12.6198 75.84 14.6098C75.78 14.8198 75.67 14.9998 75.59 15.1898C75.37 15.6998 75.2 16.2498 75.18 16.7798C75.16 17.3198 75.04 17.8498 74.91 18.3898C74.71 18.4898 74.9 17.8898 74.76 17.8798C74.95 16.6598 75.07 15.4398 75.43 14.1998C75.52 13.8898 75.75 13.4598 75.6 13.3498C75.4 13.1998 75.34 13.7898 75.24 14.0998C75.21 14.2098 75.18 14.3198 75.16 14.4298C75.02 14.4098 74.9 14.3598 75 13.9198C75.07 13.5998 75.11 13.3498 74.92 13.3498C74.63 13.3598 74.36 13.5098 74.09 14.1698C73.99 14.0598 73.89 13.9598 73.79 13.8498C73.4 14.3998 72.9 14.4698 72.66 15.6898C72.61 15.7598 72.56 15.8198 72.51 15.8898C72.42 15.6498 72.29 15.5698 72.12 15.5598L71.79 15.7098C71.55 15.7998 71.34 16.5698 71.15 16.5598C70.67 16.5298 70.46 17.4198 70.25 18.0998C70.01 18.8798 69.83 19.7198 69.67 20.5298C69.58 20.9598 69.5 21.1898 69.22 21.4298C69.58 20.2398 69.5 19.0998 70.11 18.1198C70.21 17.9598 70.31 17.5798 70.27 17.3898C70.22 17.1198 70.07 17.4398 69.95 17.5698C69.53 18.0398 69.18 18.6498 69.01 20.0298C68.92 18.8498 68.63 19.3598 68.33 19.7798C68.09 20.0998 67.89 20.5898 67.63 20.8198C67.31 21.0998 67.13 21.4998 67.09 22.2498C67.06 22.7898 66.9 23.5798 66.51 23.3498C66.29 23.2298 66.08 23.5498 65.88 23.9898C65.1 25.6898 64.31 27.3698 63.65 29.2698C63.44 29.8698 63.56 30.0398 63.69 30.3498C63.36 30.3998 63.09 30.6898 62.9 31.3898L63.83 31.7398L63.27 31.6898C62.37 33.4498 61.58 35.2598 60.98 37.1498C60.09 39.9398 59.62 42.8198 59.25 45.7098C58.72 49.9198 58.04 54.1198 58 58.3898C57.98 60.9098 58.11 63.4198 58.03 65.9298C57.91 69.5398 58.19 73.0998 58.81 76.6598C59.46 80.3598 60.12 84.0498 61.14 87.6698C61.87 90.2798 62.6 92.8998 63.59 95.4298C64.27 97.1798 65.19 98.8498 65.53 100.7C66.06 103.52 66.28 106.39 66.43 109.25C66.47 110.09 66.48 110.94 66.37 111.77C66.25 112.64 66.13 113.56 65.27 114.1C63.8 115.01 62.36 115.95 60.58 116.18C57.98 116.51 55.36 116.77 52.83 117.51C51.42 117.92 49.95 118.19 48.68 119C48.14 119.35 48.05 119.65 48.2 120.32C48.32 120.9 49.02 121.32 48.75 121.91C48.3 122.88 49.19 123.66 48.99 124.58C48.95 124.75 49.18 124.78 49.32 124.8C49.92 124.88 49.82 125.22 49.51 125.49C49.02 125.91 48.8 126.44 49.17 126.92C49.75 127.67 49.28 128.56 49.64 129.29C50.06 130.14 50.18 130.93 49.77 131.82C49.65 132.07 49.85 132.49 49.96 132.81C50.33 133.87 50.81 134.91 50.7 136.09C50.68 136.32 50.78 136.57 50.89 136.78C51.22 137.4 51.24 138.02 51.24 138.74C51.24 139.87 50.98 141.11 51.73 142.16C52.26 142.92 51.52 143.8 51.95 144.58C52.19 144.93 51.89 145.49 52.41 145.74C52.67 146.11 52.94 146.54 53.45 146.44C54.01 146.33 54.52 146.57 55.06 146.6C57.44 146.71 59.8 146.45 62.16 146.26C65.54 145.99 68.93 145.99 72.2 144.68C76.57 142.93 80.87 141.11 84.63 138.2C87.87 135.69 90.67 132.76 92.72 129.21C94.95 125.33 96.42 121.17 97.05 116.7C97.52 113.31 97.61 109.92 97.66 106.51C97.68 104.62 97.32 102.77 97.24 100.89C96.99 96.4298 96.3 92.0698 94.62 87.8998V87.8998ZM74.31 23.2798C74.27 23.3698 74.23 23.4498 74.19 23.5398C74.22 23.4398 74.26 23.3398 74.31 23.2798Z" fill="url(#paint0_linear_1230_3780)"/>
<defs>
<linearGradient id="paint0_linear_1230_3780" x1="38" y1="-3" x2="119.5" y2="163" gradientUnits="userSpaceOnUse">
<stop stop-color="#FE7332"/>
<stop offset="1" stop-color="#F8570E"/>
</linearGradient>
</defs>
</svg>
