<svg width="152" height="273" viewBox="0 0 152 273" fill="none" xmlns="http://www.w3.org/2000/svg">
<path d="M42.46 242.95C42.01 246.1 41.86 249.09 41.91 252.28C52.3882 254.771 63.0124 256.601 73.72 257.76C74.97 257.9 76.29 258.01 77.45 257.54C78.62 257.07 79.57 255.8 79.24 254.58C79.1719 254.339 79.0674 254.11 78.93 253.9C77.76 252.11 76.04 250.75 74.16 249.73L57.65 241.41C52.96 244.33 44.22 243.41 42.46 242.95V242.95Z" fill="black" stroke="black" stroke-miterlimit="10" stroke-linecap="round" stroke-linejoin="round"/>
<path d="M43.16 206.61C43.07 224.9 43.28 220.03 43.19 238.32C43.18 240.34 43.2 242.48 44.22 244.23M56.03 114.56C65.38 157.8 63.82 195.22 57.73 239.38" stroke="black" stroke-miterlimit="10" stroke-linecap="round" stroke-linejoin="round"/>
<path d="M18.73 246.77C18.13 249.9 18.41 249.34 18.31 252.52C28.66 255.5 39.19 257.83 49.83 259.49C51.07 259.68 52.38 259.86 53.57 259.45C54.76 259.03 55.77 257.81 55.5 256.58C55.37 255.97 54.95 255.46 54.53 255C52.16 252.43 49.12 250.58 46.13 248.77C42.08 246.32 38.02 243.87 33.97 241.43C29.15 244.11 24.17 245.77 19.03 243.75C19.35 243.94 18.61 246.17 18.73 246.77V246.77Z" fill="black" stroke="black" stroke-miterlimit="10" stroke-linecap="round" stroke-linejoin="round"/>
<path d="M17.58 115.24C15.48 132.75 13.42 148.07 16.39 163.16C20.99 186.5 20.17 201.53 19.55 233.8C19.51 235.82 19.36 237.96 20.3 239.75M43.19 134.46C50.5 178.09 47.95 176.04 35.11 239.7M31.45 131.6C28.59 137.75 25.19 141.4 22.27 140.89" stroke="black" stroke-miterlimit="10" stroke-linecap="round" stroke-linejoin="round"/>
<path d="M80.63 53.6502C80.52 55.3202 80.24 57.0002 79.86 58.6402C79.56 59.9302 79.19 61.2102 78.64 62.4102C76.91 66.1702 73.33 69.4202 69.39 69.6902C68.71 69.7402 68.04 69.8702 67.51 70.3102C67.02 70.7102 66.73 71.3102 66.47 71.8902C65.2129 74.6198 64.0915 77.4099 63.11 80.2502L49.4 75.5902C50.78 72.7502 52.15 69.9202 53.53 67.0802C54.91 64.2302 56.34 61.1702 56.02 58.0902C55.77 55.6802 55.88 46.4302 55.96 43.9902L69.61 42.4902" fill="#874C2B"/>
<path d="M59.12 29.6502C59.34 30.8302 59.46 31.4202 59.96 32.6202L60.33 33.2402C61.63 33.4202 63.13 32.8402 63.74 31.7602L63.86 31.4502C63.57 30.6602 63.03 29.4502 62.61 28.7202M60.05 33.0302C57.69 33.5802 55.59 35.7502 54.84 37.9302C54.09 40.1102 54.14 42.4702 54.19 44.7802L54.28 48.6202V48.1202" stroke="#1D1D1B" stroke-miterlimit="10" stroke-linejoin="round"/>
<path d="M54.28 48.6298L55.7 46.5198C55.87 46.2498 56.06 45.9698 56.35 45.8198C57.03 45.4598 57.87 45.9198 58.66 45.9398C59.67 45.9698 60.49 45.2598 61.34 44.7598C62.19 44.2598 63.46 44.0098 64.1 44.7698C64.32 45.0298 64.41 45.3598 64.62 45.6198C65.22 46.3798 66.44 46.3098 67.29 46.8098C68.16 47.3198 68.55 48.3898 69.44 48.8698C71.75 50.1098 74.65 46.4598 76.85 47.8598C77.52 48.2898 77.83 49.0598 78.15 49.7598C78.9 51.4198 79.43 52.2498 80.64 53.6598L81.61 54.0998C82.48 49.5198 83.29 44.5898 81.14 40.3498C79.71 37.5398 77.09 35.3598 74.17 33.9098C71.0172 32.3441 67.5401 31.5425 64.02 31.5698M57.06 29.5398C54.28 29.4698 51.52 28.1898 49.8 26.0998C48.08 24.0098 47.47 21.1198 48.32 18.6398C48.95 16.7998 50.29 15.2598 51.74 13.9098C52.57 13.1398 53.47 12.4098 54.54 11.9698C57.71 10.6698 61.54 12.3198 63.93 14.7598C64.7 15.5398 65.38 16.4198 65.78 17.4098C66.53 19.2298 66.28 21.2698 65.76 23.1298C65.24 24.9998 64.4 26.8598 62.91 28.1798C61.42 29.4998 59.57 30.4798 57.64 29.7598L57.06 29.5398Z" stroke="#1D1D1B" stroke-miterlimit="10" stroke-linejoin="round"/>
<path d="M58.9 148.99C58.74 149.47 64.2 145.14 64.45 144.11C64.59 143.55 64.71 142.99 64.82 142.43C64.87 142.19 64.91 141.96 64.96 141.72C64.94 141.82 64.92 141.92 64.9 142C64.84 142.38 64.63 143.29 64.9 142C65.09 140.89 65.25 139.78 65.41 138.67C65.74 136.44 64.75 129.29 65.36 127.11C65.45 126.79 65.48 122.59 65.37 122.25C65.29 122.01 65.89 120 66.15 119.78C67.11 118.97 69.02 115.3 69.81 114.34C71.34 112.49 74.09 108.75 74.74 107.53C75.4 106.27 75.45 104.85 75.91 103.54C76.56 101.67 76.15 99.4401 76.12 97.4301C76.09 95.3901 77.66 94.0001 77.44 91.9801C77.24 90.2101 76.93 88.4601 76.44 86.7601C75.43 83.2401 78.51 82.2101 75.85 79.7601C72.58 76.7501 72.5 75.4101 68.29 73.9101C66.96 73.4401 65.89 73.2001 65.89 73.2001C65.84 73.3401 65.04 75.1801 64.99 75.3201C64.55 76.4001 64.15 76.9801 62.7 76.5601C61.33 76.1701 60.49 76.2401 59.16 75.6101C57.5 74.8201 55.84 74.0601 54.15 73.3301C53.53 73.0601 53.01 72.6401 52.45 72.2901C51.97 71.9801 52.14 72.0201 52.11 70.9801L52.43 69.7201C52.54 69.2901 52.97 68.4101 52.97 68.4101C50.85 67.7401 42.56 65.9601 41.68 66.1601C40.92 66.3301 40.12 66.4001 39.35 66.5801C35.68 67.4401 33.57 66.6401 30.31 68.7301C26.61 71.1001 25.05 76.3801 22.99 80.2001C22.32 81.4401 20.53 83.6901 19.92 84.9601C19.65 85.5201 19.39 87.2401 19.38 87.8901C19.37 88.8901 17.98 116.62 14.21 122.36C14.16 122.43 14.11 122.51 14.06 122.58C14 123.58 11.67 124.88 11.22 125.79C12.12 123.95 11.13 126.12 10.96 126.58C10.75 127.16 10.57 127.76 10.41 128.36C10.33 128.67 10.25 128.98 10.18 129.3C10.15 129.42 10.12 129.65 10.09 129.81C10.04 130.13 10.06 130.02 10.09 129.81C10.11 129.68 10.14 129.47 10.18 129.17C10.11 129.68 10.03 130.19 9.96002 130.7C10.06 131.15 12.65 135.12 12.57 135.26C12.14 136.05 12.99 136.07 13.26 136.38C13.99 137.2 15.5 142.84 16.53 143.25C18.98 144.23 23.17 139.12 25.85 139.51C29.2 140.01 26.17 140.79 29.36 142.05C32.68 143.37 39.87 143.01 43.13 144.51C45.2 145.46 47.25 146.43 49.07 147.82C50.31 148.77 51.56 149.77 52.99 150.39C54.46 151.03 54.06 149.78 55.4 149.69C55.96 149.66 58.97 148.79 58.9 148.99V148.99Z" fill="url(#paint0_linear_1230_3786)"/>
<path d="M55.45 84.4098C57.05 86.9798 55.05 96.3398 57.53 97.9998C61.23 100.48 68.96 95.8798 73.19 97.4198C74.95 98.0598 76.81 98.4498 78.64 98.8998C83.09 99.9798 84.86 98.1798 89.24 99.4898C91.16 100.07 97.35 101.7 99.07 100.68C99.25 100.57 99.44 100.49 99.63 100.41C102.99 98.9398 108.13 101.45 118.98 94.8498C120.39 93.3898 121.84 91.9598 123.25 90.4998C124.15 89.5598 125.45 89.0798 126.53 88.3498C127.23 87.8798 127.89 87.3498 128.56 86.8198C128.85 86.5898 128.89 86.2998 128.54 86.0798C128.3 85.9298 128.22 85.7098 128.12 85.4498C127.88 84.8098 127.61 84.1398 126.88 83.8798C126.32 83.6798 126.54 82.6498 125.69 82.7598C125.72 82.6498 125.75 82.5398 125.78 82.4198C125.82 82.2798 125.9 82.0198 125.88 82.0098C125.17 81.6998 121.35 80.2498 121.46 79.4998C120.37 79.7198 120.04 78.7498 119.74 78.1398C119.34 77.3098 118.9 77.4498 118.38 77.7698C116.63 78.8598 113.68 81.2898 112.04 82.5698C109.78 84.3298 104.83 84.0498 102.8 86.0398C100.9 86.7398 97.49 84.7498 95.1 84.2298C91.65 83.4698 91.93 83.4398 88.46 82.8798C85.92 82.4698 83.38 81.9798 80.87 81.3198C78.68 80.7498 72.23 76.3598 70.25 75.2798" fill="url(#paint1_linear_1230_3786)"/>
<path d="M126.33 84.5798C134.71 81.4998 137.88 75.5698 136.81 73.4898M133.95 68.3298C131.3 66.1498 130.39 68.8598 129.06 70.1498C129.06 70.1498 127.79 71.3898 125.43 73.3698M120.5 78.9598C120.95 77.6598 121.28 76.3198 121.46 74.9598C121.59 74.0398 121.65 73.0998 121.86 72.1998C122.42 69.8198 124.16 67.7198 126.34 66.6098M129.32 73.8498C131.09 71.4598 133.08 70.6898 135.2 67.1898C135.94 65.9698 139.48 62.3698 140.38 63.2198L140.99 64.5498C140.05 66.3398 138.43 67.9998 137.27 69.6398C134.96 72.8998 134.3 72.8698 131.64 75.0998M136.57 70.5898C138.12 73.4598 135.08 75.9098 132.63 77.4898M125.14 74.3798C124.84 73.1598 125.35 71.0498 125.78 70.1198C126.4 68.7698 126.7 67.7898 126.35 66.6098" stroke="black" stroke-miterlimit="10" stroke-linecap="round" stroke-linejoin="round"/>
<path d="M29.72 70.9502C27.2 72.6202 26.03 75.0502 24.43 77.5702C22.05 81.3302 17.21 93.0002 16.82 94.8402C15.86 99.3202 15.42 103.88 14.97 108.43C14.77 110.43 14.88 112.43 14.9 114.43C14.9 114.64 14.88 114.85 14.86 115.05C14.44 118.69 15.12 122.2 16.1 125.68C16.65 127.63 17.16 129.6 17.71 131.56C18.07 132.82 17.83 134.17 17.92 135.48C17.98 136.32 18.1 137.16 18.22 138C18.27 138.37 18.5 138.55 18.87 138.35C19.12 138.22 19.35 138.26 19.63 138.31C20.31 138.42 21.02 138.53 21.61 138.03C22.07 137.64 22.84 138.36 23.17 137.57C23.25 137.65 23.33 137.74 23.42 137.82C23.52 137.92 23.7 138.13 23.72 138.11C24.35 137.65 25.15 138.12 25.67 137.86C26.44 137.48 27.17 137.52 27.94 137.48C28.52 137.3 29.05 137.65 29.61 137.65C30.28 137.4 30.92 137.4 31.51 137.87C31.87 136.82 32.87 137.02 33.55 137.07C34.47 137.14 34.57 136.69 34.55 136.08C34.49 134.02 34.63 131.95 34.35 129.89C33.96 127.05 32.88 124.39 32.18 121.63C31.58 119.28 31.33 116.93 31.38 114.48C31.46 110.95 31.66 107.43 32.13 103.95C32.47 101.4 32.9 98.8502 33.48 96.3202C33.99 94.1102 35.15 92.3002 36.18 90.2902" fill="url(#paint2_linear_1230_3786)"/>
<path d="M30.07 123.05C26.76 108.06 27.4 103.74 32.77 90.1001" stroke="black" stroke-miterlimit="10" stroke-linecap="round" stroke-linejoin="round"/>
<defs>
<linearGradient id="paint0_linear_1230_3786" x1="38" y1="42" x2="61" y2="157.5" gradientUnits="userSpaceOnUse">
<stop offset="0.234375" stop-color="#9958FF"/>
<stop offset="1" stop-color="#6906E0"/>
</linearGradient>
<linearGradient id="paint1_linear_1230_3786" x1="80" y1="75" x2="114.5" y2="103.5" gradientUnits="userSpaceOnUse">
<stop stop-color="#8F47F9"/>
<stop offset="1" stop-color="#7F2BEE"/>
</linearGradient>
<linearGradient id="paint2_linear_1230_3786" x1="25.4567" y1="70.9502" x2="25.4567" y2="138.433" gradientUnits="userSpaceOnUse">
<stop offset="0.0989583" stop-color="#944FFC"/>
<stop offset="1" stop-color="#7317E6"/>
</linearGradient>
</defs>
</svg>
