<svg width="219" height="273" viewBox="0 0 219 273" fill="none" xmlns="http://www.w3.org/2000/svg">
<path d="M183.2 126.67C183.01 125.29 181.3 124.66 180.12 124.92C174.41 126.2 168.76 126.21 163.05 124.95C161.61 124.63 159.72 125.65 159.89 127.36C160.09 129.4 160.48 131.33 161.38 132.93L161.44 137.5C158.92 138.1 159.67 141.71 162 142.23C162.72 143.15 164.06 143.45 165.24 142.9C166.31 142.39 167.41 141.98 168.52 141.62C172.26 141.28 176.01 141.14 179.78 141.21C180.29 141.22 180.72 141.09 181.08 140.86C181.17 140.88 181.26 140.88 181.35 140.9C182.81 141.19 184.66 140.22 184.51 138.49C184.19 134.55 183.74 130.61 183.2 126.67V126.67ZM178.99 133.49C179 133.46 179.02 133.43 179.03 133.4C179.03 133.45 179.04 133.49 179.04 133.54C179.03 133.52 179.01 133.51 178.99 133.49V133.49ZM178.77 131.17C178.59 130.86 178.35 130.58 178.06 130.37C178.26 130.34 178.46 130.32 178.66 130.29C178.69 130.58 178.73 130.87 178.77 131.17V131.17ZM166.42 136.74C166.51 136.76 166.59 136.79 166.68 136.81C166.59 136.82 166.51 136.82 166.42 136.83V136.74ZM127.23 255.05C126.69 254.5 126.02 254.3 125.37 254.34C124.06 253.52 122.09 253.75 121.66 255.68C121.84 254.85 116.8 252.45 116.14 252.18C114.21 251.37 112.27 251.01 110.21 250.78C109.17 250.66 108.28 251.44 107.91 252.38C106.57 252.25 105.13 253.04 105.15 254.77C105.18 257.42 105.2 260.07 105.23 262.72C105.25 265.25 108.57 266.05 109.89 263.98C109.9 263.97 109.91 263.95 109.91 263.94C109.94 264.12 109.96 264.3 109.99 264.48C110.19 265.94 111.88 266.39 113.07 266.23L119.72 265.33C120.5 265.23 121.42 265.17 122.36 265.09C122.64 265.18 122.93 265.27 123.21 265.36C125.85 266.17 128.68 265.74 129.88 262.95C131.18 259.9 129.3 257.18 127.23 255.05V255.05Z" fill="#FF64E3"/>
<path d="M110.08 251C108.37 251.34 106.67 251.76 105 252.24M104.91 251.9C104.74 256.31 104.92 260.73 105.45 265.11C105.48 265.37 105.52 265.65 105.71 265.84C105.94 266.07 106.3 266.07 106.63 266.07L129.66 265.41C128.71 260.6 127.56 255.83 126.21 251.12C126.1 250.74 125.98 250.34 125.67 250.1C125.36 249.86 124.95 249.83 124.56 249.82C120.95 249.7 121.25 249.89 117.67 250.39" stroke="black" stroke-miterlimit="10" stroke-linecap="round"/>
<path d="M133.33 117.51C129.91 114.59 128.89 118.44 123.73 115.12" stroke="black" stroke-miterlimit="10" stroke-linecap="round" stroke-linejoin="round"/>
<path d="M132.46 118.45C136.79 114.92 146.05 116.47 151.49 114.74C151.71 114.67 151.95 114.59 152.1 114.41C152.29 114.18 152.29 113.85 152.28 113.56C152.09 109.33 150.84 105.15 148.68 101.51C143.29 105.95 135.5 108.68 131.02 115.66" stroke="black" stroke-miterlimit="10" stroke-linecap="round"/>
<path d="M123.9 121.59C125.18 121.99 126.57 122 127.86 121.61C128.36 121.46 128.84 121.25 129.35 121.12C130.34 120.87 131.4 120.92 132.36 121.28C132.85 121.46 133.38 121.84 133.33 122.35C133.33 122.35 132.03 124.79 129.08 124.6C126.13 124.41 125.58 124.16 122.66 124.14" stroke="black" stroke-miterlimit="10" stroke-linecap="round" stroke-linejoin="round"/>
<path d="M133.33 122.95C137.44 122.18 134.57 120.38 133.86 119.78C133.15 119.17 132.26 118.69 131.32 118.69C130.29 118.68 128.87 118.99 127.84 119.08C126.59 119.19 125.63 119.3 124.72 118.85M122.68 48.8599C122.93 50.4099 123.07 51.7299 124.24 57.5599C120.88 58.0099 118.9 59.3199 111.38 57.9899" stroke="black" stroke-miterlimit="10" stroke-linecap="round" stroke-linejoin="round"/>
<path d="M111.91 55.6398C110.79 57.2298 111.72 62.2698 111.72 62.2698L106.63 65.4298L95.27 59.1198L96.67 55.9698C98.6 53.0898 97.76 48.3498 97.77 44.8698C97.78 42.1498 99.55 28.4798 99.93 25.7998L126.33 35.3698C126.33 35.3698 123.69 54.6898 117.9 56.1998" fill="#F2AA91"/>
<path d="M118.89 20.13C119.47 20.39 120.03 20.68 120.57 21C123.97 23.04 126.55 26.31 128.05 29.98C128.82 31.85 130.65 37.36 127.22 37.75L125.91 37.39M125.91 37.39L107.58 32.3C107.58 32.3 103.77 31.48 103.21 34.98C102.65 38.48 98.93 52.25 98.08 52.32C98.08 52.32 93.28 51.75 89.32 48.4C88.74 47.79 93 37.76 93.64 35.54C94.6 32.21 93.8 27.07 96.6 23.48C99.32 20 105.35 18.83 110.18 19.3M119.38 19.79C121.44 18.52 122.53 15.86 121.96 13.51C121.39 11.16 119.2 9.30003 116.79 9.11003C115.06 8.98003 113.33 9.64003 111.94 10.68C110.5 11.75 109.34 13.3 109.05 15.07C108.82 16.47 109.23 18.01 110.17 19.04" stroke="black" stroke-miterlimit="10" stroke-linecap="round" stroke-linejoin="round"/>
<path d="M82.02 63.6198C82.72 62.7498 83.38 61.8998 84.05 61.0798C84.89 60.0698 85.91 59.3798 86.95 58.6598C88.1 57.8598 89.35 57.2898 90.47 56.3898C91.38 55.6598 92.59 55.7698 93.68 55.6198C94.57 55.4898 95.49 55.2698 96.27 56.0498C96.33 56.4998 96.61 56.7998 96.84 57.1198C98.21 57.7798 99.62 58.2298 101.1 58.4198C103.91 58.7898 106.77 58.6798 109.55 59.4698C109.87 59.5598 110.09 59.3598 110.3 59.1398C110.83 58.5498 111.44 58.4298 112.14 58.6398C112.39 58.7198 112.61 58.7598 112.9 58.4898C113.62 57.8098 114.24 58.1398 114.39 59.1898C114.51 60.0098 114.36 60.9298 114.99 61.5898C115.06 62.5098 114.99 63.4498 115.47 64.2698C115.57 64.3398 115.74 64.3898 115.77 64.4898C116.11 65.6498 116.82 65.1198 118.47 67.0898L133.45 84.7598C132.84 84.5798 133.77 86.3898 134.42 88.3398C135.25 90.8398 133.76 94.5098 134.69 96.9498C135.87 100.04 135.73 91.8698 137.22 94.7898C137.7 95.7398 124.9 109.18 125.22 110.21C125.78 112.01 122.34 114.68 123 116.42C123.06 116.58 123.07 116.77 123.08 116.94L123.26 120.41C123.28 120.87 123.34 121.2 122.68 121.03C121.7 120.77 130.22 121.14 130.21 122.34C130.21 122.95 130.22 123.57 129.99 124.14C129.97 124.43 129.84 124.65 129.66 124.84C127.81 125.14 128.17 124.76 126.32 124.82C125.55 124.85 125.58 125.02 125.76 125.79C126.16 127.53 125.78 129.16 126 130.95C126.1 131.81 125.68 132.27 124.94 132.61C123.42 133.31 121.8 133.25 120.24 133.62C118.78 133.97 128.38 134.57 126.91 134.78C124.2 135.18 121.56 136.11 118.77 136.08C117.26 136.06 120.16 135.48 118.66 135.86C118.09 136 117.54 136.03 116.98 135.99C115.22 135.87 114.67 136.56 112.94 136.73C110.82 136.94 108.7 136.95 106.59 136.69C105.74 136.59 104.9 136.75 104.06 136.73C100.62 136.65 86.2 135.87 82.75 135.96C80.63 136.02 78.54 135.83 76.43 136.56C75.25 136.97 73.83 136.81 72.54 136.41C71.92 136.12 72.26 135.37 71.98 134.91C71.65 133.92 72.56 134.52 72.73 134.07C71.81 133.63 71.9 132.73 71.96 131.78C72.03 130.58 71.84 129.38 71.93 128.16C72 127.26 71.17 127.19 70.69 127.44C69.8 127.91 72.92 124.92 72.08 125.15C71.76 125.24 71.59 124.74 71.43 124.4C71.57 124.85 71.26 125.03 71.11 125.27C70.72 125.35 70.68 124.74 70.33 124.76C70.16 124.7 70.07 124.54 69.99 124.37C69.85 124.32 69.71 124.26 69.57 124.21C69.48 124.09 69.47 123.94 69.45 123.79C69.38 123.93 69.32 124.08 69.24 124.21C68.66 124.6 68.77 124.05 68.78 123.74C68.83 122.52 69.86 120.27 70.16 119.06C70.82 116.36 70.91 113.51 71.59 110.81C72.54 107.02 73.72 103.31 75.14 99.7198C75.77 98.1198 75.88 96.3898 76.28 94.7398C76.82 92.4998 72.03 83.7098 72.84 81.5898C73.45 79.9998 73.42 78.2398 73.99 76.6598C74.03 76.5498 73.77 76.2398 73.61 76.0898" fill="url(#paint0_linear_1230_3799)"/>
<path d="M90.42 60.9C89.38 60.79 88.34 60.78 87.31 60.65C86.32 60.53 85.4 59.89 84.43 59.66C82.38 59.17 80.72 57.75 78.85 56.82C77.52 56.15 76.24 55.28 75.05 54.34C74.27 53.73 73.64 52.84 73.21 51.92C72.42 50.2 72.9 49.55 74.02 48.15C75.31 46.54 77.03 45.73 78.91 45.14C80.44 44.66 81.81 43.86 83.23 43.17C84.75 42.43 86.15 41.5 87.57 40.58C87.86 40.39 88.18 40.41 88.5 40.36C89.36 40.22 89.5 39.89 89.3 39.07C89.04 37.96 88.24 37.04 88.09 35.95C88 35.27 87.35 34.7 87.72 33.92C87.84 33.67 87.78 33.19 87.24 33.21C87.1 33.21 87.04 33.09 87.05 33.03C87.22 32.43 86.73 31.97 86.69 31.41C86.65 30.73 86.85 30 86.33 29.39C86.26 29.3 86.18 29.12 86.22 29.04C86.62 28.29 85.94 27.9 85.67 27.37C85.62 27.26 85.77 27.17 85.71 27.06C85.57 26.59 85.19 26.58 84.82 26.63C83.67 26.77 82.62 27.17 81.57 27.69C79.24 28.84 77.19 30.45 74.79 31.47C73.15 32.16 71.44 32.66 69.86 33.49C68.16 34.38 66.5 35.31 65.22 36.81C63.79 38.48 55.15 43.06 59.64 54.4C60.66 57.19 62.23 57.55 64.1 59.9C65.89 62.16 68.1 65.94 70.26 67.71C73.09 70.02 70.92 71.16 74.1 72.85C76.11 73.92 83.43 75.35 85.6 75.75C86.17 75.85 95.3 76.13 95.86 76.06C96.4 75.99 96.53 76.23 96.56 76.75" fill="url(#paint1_linear_1230_3799)"/>
<path d="M95.72 61.23C97.17 63.66 99.82 65.26 102.62 65.67C105.42 66.08 108.32 65.34 110.73 63.87M90.04 26.02C89.06 26.62 88.16 27.34 87.25 28.04C85.9312 29.0545 84.584 30.0316 83.21 30.97M96.59 23.48C93.83 23.53 92.26 24.66 90.04 26.02M93.84 34.33L90.45 36.43C89.73 36.88 88.99 37.33 88.17 37.53M108.02 81.56C107.66 83.74 109.04 85.79 110.36 87.57C111.82 89.55 113.28 91.53 114.75 93.5C115.05 93.9 115.36 94.34 115.36 94.84C115.36 95.19 115.21 95.52 115.06 95.84C113.34 99.53 111.62 103.22 109.89 106.91" stroke="black" stroke-miterlimit="10" stroke-linecap="round" stroke-linejoin="round"/>
<path d="M79.63 234.71C79.68 193.73 72.06 177.58 74.71 137.19M95.69 156.7C94.52 185.67 102.06 200.34 101.98 237.67M119.16 141.29C124.53 166.02 116.1 202.98 112.58 237.61M95.9 159.74C95.44 182.78 95.82 204.39 90.71 235.03" stroke="black" stroke-miterlimit="10" stroke-linecap="round"/>
<path d="M102.03 236.63C100.99 238.64 100.52 239.9 99.8 242.05C106.26 246.19 112.98 249.91 119.91 253.21C120.72 253.6 121.58 253.98 122.47 253.94C123.36 253.9 124.3 253.27 124.37 252.37C124.4 251.93 124.22 251.49 124.03 251.09C122.93 248.85 121.23 246.97 119.55 245.13C117.28 242.63 115.01 240.14 112.73 237.64C108.89 238.49 105.15 238.61 102.05 236.19C102.26 236.41 101.81 237.34 102.03 236.63V236.63Z" stroke="black" stroke-miterlimit="10" stroke-linecap="round" stroke-linejoin="round"/>
<path d="M100.36 242.07L100.72 240.67C100.89 239.58 101.17 238.52 101.54 237.47C101.67 237.12 102.06 237.04 102.36 237.16C102.46 237.11 102.58 237.09 102.72 237.13C104.19 237.49 105.68 237.76 107.2 237.9C108.29 238 109.5 237.89 110.59 238.14C111.14 237.99 111.69 237.8 112.22 237.58C112.67 237.4 113.3 237.89 113.05 238.38C113.24 238.52 113.34 238.75 113.34 238.96C115.84 240.98 118.14 243.26 120.12 245.81C120.97 246.91 121.76 248.07 122.47 249.26C122.71 249.62 122.92 249.99 123.12 250.38C123.24 250.61 123.36 250.86 123.46 251.11C123.73 251.08 124.01 251.22 124.12 251.49C124.42 252.22 124.31 252.98 123.78 253.57C123.54 253.84 123.02 253.92 122.8 253.57C122.73 253.59 122.67 253.61 122.6 253.61C122.35 253.86 121.88 253.81 121.65 253.53C121.59 253.46 121.53 253.38 121.47 253.3C121.32 253.49 121.07 253.58 120.76 253.46C117.388 252.114 114.142 250.471 111.06 248.55C109.42 247.53 107.85 246.39 106.23 245.33C106.2 245.32 106.17 245.32 106.13 245.31C104.24 244.68 102.46 243.81 100.78 242.75C100.77 242.75 100.77 242.74 100.76 242.73C100.48 242.66 100.27 242.43 100.36 242.07V242.07Z" fill="black"/>
<path d="M124.2 253.21C123.66 254.86 121.74 255.72 120.01 255.61C118.28 255.5 116.69 254.64 115.17 253.81C113.47 252.88 111.78 251.94 110.08 251.01C108.5 250.14 106.92 249.27 105.37 248.37C104.02 247.59 102.66 246.77 101.57 245.65C100.48 244.53 99.66 243.07 99.63 241.5M91.22 235.78C91.95 238.2 92.21 239.67 92.55 242.18C84.61 245.39 76.48 248.1 68.2 250.29C67.23 250.55 66.21 250.8 65.24 250.56C64.27 250.33 63.37 249.45 63.48 248.45C63.54 247.96 63.82 247.52 64.12 247.12C65.78 244.89 68.03 243.18 70.25 241.5C73.25 239.23 76.26 236.96 79.26 234.69C83.29 236.41 87.37 237.31 91.27 235.29C91.02 235.49 91.33 236.6 91.22 235.78Z" stroke="black" stroke-miterlimit="10" stroke-linecap="round" stroke-linejoin="round"/>
<path d="M91.94 242.09C91.9 241.55 91.87 241.02 91.83 240.48C91.86 239.25 91.78 238.03 91.58 236.81C91.51 236.4 91.1 236.24 90.75 236.3C90.6387 236.215 90.4993 236.176 90.36 236.19C88.67 236.29 86.98 236.27 85.29 236.11C84.07 236 82.77 235.63 81.52 235.68C80.95 235.4 80.39 235.08 79.84 234.73C79.39 234.44 78.6 234.85 78.76 235.43C78.52 235.55 78.37 235.77 78.33 236C75.17 237.71 72.18 239.73 69.49 242.12C68.3292 243.154 67.2306 244.256 66.2 245.42C65.87 245.77 65.55 246.13 65.26 246.52C65.08 246.75 64.89 247 64.73 247.25C64.5844 247.203 64.4274 247.205 64.283 247.256C64.1386 247.306 64.0146 247.403 63.93 247.53C63.45 248.27 63.41 249.12 63.88 249.88C64.09 250.22 64.64 250.42 64.96 250.08C65.03 250.12 65.1 250.15 65.17 250.16C65.4 250.49 65.92 250.53 66.23 250.27L66.47 250.06C66.59 250.29 66.85 250.45 67.21 250.38C71.19 249.59 75.08 248.46 78.86 246.99C80.87 246.21 82.83 245.28 84.82 244.45C84.86 244.45 84.89 244.45 84.93 244.44C87.13 244.13 89.26 243.55 91.32 242.73C91.33 242.73 91.34 242.72 91.35 242.72C91.69 242.71 91.97 242.5 91.94 242.09V242.09Z" fill="black"/>
<path d="M63.51 249.42C63.76 251.34 65.7 252.68 67.62 252.92C69.54 253.15 71.45 252.54 73.29 251.93C75.34 251.25 77.4 250.58 79.45 249.9C81.36 249.27 83.27 248.64 85.16 247.97C86.8 247.39 88.46 246.77 89.88 245.76C91.31 244.76 92.5 243.32 92.86 241.61" stroke="black" stroke-miterlimit="10" stroke-linecap="round" stroke-linejoin="round"/>
<path d="M146.34 212.61C146.94 216.75 146.39 221.04 144.77 224.9C144.58 225.34 144.39 225.88 144.68 226.27C144.83 226.48 145.09 226.58 145.33 226.67C151.69 229.07 158.04 231.47 164.4 233.87C165.472 228.214 167.058 222.667 169.14 217.3C161.406 215.022 153.74 212.521 146.15 209.8M180.28 224.26C180.11 228.77 180.29 234.29 180.83 238.77C180.86 239.04 180.91 239.32 181.09 239.51C181.32 239.74 181.7 239.75 182.03 239.74C189.88 239.51 199.73 239.29 207.59 239.06C206.62 234.14 205.44 229.27 204.07 224.44C203.96 224.05 203.83 223.64 203.52 223.4C203.21 223.16 202.78 223.13 202.38 223.11C195.63 222.88 186.85 222.72 180.37 224.6M43 208.64C46.89 209.13 50.19 211.6 53.51 213.68C57.7268 216.309 62.2551 218.402 66.99 219.91C67.24 219.99 67.53 220.06 67.76 219.92C68.04 219.74 68.05 219.35 68.03 219.02L66.98 203.14C66.94 202.6 66.9 202.04 66.61 201.59C66.35 201.19 65.92 200.93 65.5 200.68C60.14 197.51 54.79 194.35 49.43 191.18C49.19 191.04 48.91 190.9 48.66 191C48.46 191.08 48.35 191.29 48.25 191.48C45.56 196.95 43.23 202.6 41.3 208.39M192.77 208.45C190.425 208.22 188.06 208.31 185.74 208.72C185.21 208.81 184.64 208.92 184.13 208.74C183.53 208.53 183.13 207.99 182.77 207.47L179.72 203.13C179.49 202.8 179.25 202.46 179.16 202.07C179.06 201.63 179.15 201.17 179.25 200.73C179.74 198.44 180.23 196.15 180.71 193.86C180.79 193.5 180.9 193.1 181.22 192.94C181.72 192.69 182.25 193.18 182.79 193.35C183.83 193.68 185.32 192.86 185.87 193.8C186.09 194.18 185.98 194.65 185.88 195.07C184.89 199.14 184.44 203.35 184.55 207.54" stroke="black" stroke-miterlimit="10" stroke-linecap="round"/>
<path d="M185.26 193.79L193.25 193.82C193.22 198.68 193.19 203.54 193.17 208.4M25.02 54.8999C24.34 55.3399 24.76 56.3999 25.26 57.0299C28.51 61.0799 33.11 64.0399 38.15 65.3099C35.57 70.4199 32.57 75.3199 29.18 79.9499C28.96 80.2499 28.69 80.5799 28.32 80.6299C28.01 80.6699 27.72 80.4899 27.45 80.3199C21.4 76.3999 16.93 70.5299 12.59 64.7799C11 62.6699 9.33999 60.3799 9.20999 57.7399C14.2 56.3599 18.98 54.2099 23.33 51.3999C23.84 51.9799 24 52.8499 23.73 53.5699M163.98 141.64H183.68C184.02 141.64 184.4 141.63 184.64 141.38C184.88 141.14 184.9 140.76 184.9 140.42C184.89 135.2 184.23 129.98 182.96 124.91C176.86 128.64 169.03 127.04 162.15 125.07L160.14 141.67" stroke="black" stroke-miterlimit="10" stroke-linecap="round"/>
<path d="M35.52 242.89C32.3 243.44 29.07 243.58 25.84 243.71L22.06 243.96C18.72 244.09 15.56 243.63 12.23 243.76C11.96 240.12 11.7 236.47 11.43 232.83C14.4 232.8 17.36 232.43 20.25 231.72L29.11 231.3C31.04 230.84 33.01 230.61 34.96 230.62C35.42 234.37 36 238.7 35.91 242.52C35.91 242.68 35.83 242.91 35.69 242.87" stroke="black" stroke-miterlimit="10" stroke-linecap="round" stroke-linejoin="round"/>
<path d="M31.48 237.82C31.63 238.29 32.23 238.52 32.68 238.33C33.13 238.14 33.4 237.63 33.37 237.14C33.33 236.51 32.81 235.94 32.18 235.88C31.55 235.83 30.92 236.34 30.89 236.97C30.86 237.6 31.48 238.19 32.1 238.09M21.75 240.81C19.73 241.08 17.7 241.28 15.67 241.42C15.16 239.29 15.03 237.06 15.3 234.88C17.08 234.48 18.89 234.19 20.7 234.02L28.12 234.23C28.46 236.51 28.81 238.78 29.15 241.06C27.68 241.27 26.09 240.87 24.61 241.08L21.75 240.81V240.81Z" stroke="black" stroke-miterlimit="10" stroke-linecap="round" stroke-linejoin="round"/>
<path d="M15.45 217.03C27.28 217.4 39.24 217.76 50.85 215.47C51.12 215.42 51.43 215.37 51.66 215.53C51.91 215.71 51.95 216.07 51.96 216.38C52.2 222.17 52.45 227.95 52.69 233.74C43.94 234.87 35.07 235.09 26.28 234.38C24.258 228.996 23.0513 223.341 22.7 217.6" fill="#FF64E3"/>
<path d="M15.45 217.03C27.28 217.4 39.24 217.76 50.85 215.47C51.12 215.42 51.43 215.37 51.66 215.53C51.91 215.71 51.95 216.07 51.96 216.38C52.2 222.17 52.45 227.95 52.69 233.74C43.94 234.87 35.07 235.09 26.28 234.38C24.258 228.996 23.0513 223.341 22.7 217.6" stroke="black" stroke-miterlimit="10" stroke-linecap="round"/>
<defs>
<linearGradient id="paint0_linear_1230_3799" x1="91.5" y1="38.5" x2="115" y2="156" gradientUnits="userSpaceOnUse">
<stop offset="0.197917" stop-color="#FF81F2"/>
<stop offset="1" stop-color="#FF01B0"/>
</linearGradient>
<linearGradient id="paint1_linear_1230_3799" x1="77.4593" y1="26.6099" x2="77.4593" y2="76.75" gradientUnits="userSpaceOnUse">
<stop stop-color="#FF81F2"/>
<stop offset="1" stop-color="#FF68E5"/>
</linearGradient>
</defs>
</svg>
