<svg width="190" height="189" viewBox="0 0 190 189" fill="none" xmlns="http://www.w3.org/2000/svg">
<path d="M114.29 138.54C112.77 138.36 111.26 138.3 109.75 138.3C109.4 138.3 109.19 138.11 108.83 138.1C108.69 138.29 109.57 138.67 108.63 138.71C108.62 138.71 108.63 138.8 108.67 138.84C109.47 139.78 108.99 140.65 108.88 141.54C108.85 141.75 108.75 141.93 108.87 142.16C108.92 142.24 108.95 142.34 108.89 142.4C108.22 143.06 108.42 143.85 108.39 144.61C108.38 144.85 108.03 144.99 107.52 144.94C107.05 144.9 106.57 144.84 106.1 144.78C103.86 144.51 101.61 144.38 99.43 144.44C94.94 144.56 90.44 144.09 85.96 143.45C82.65 142.97 79.34 142.61 76.02 142.26C73.21 141.97 70.38 141.91 67.57 141.62C66.26 141.48 64.95 141.29 63.63 141.22C60.17 141.02 56.74 140.48 53.3 140.15C52.56 140.08 51.83 140.07 51.09 140.13C49.84 140.23 48.51 140.04 47.25 139.84C46.43 139.71 45.58 139.58 44.77 139.49C43.24 139.31 41.8 138.89 40.31 138.72C39.03 138.57 37.86 138.32 36.7 137.97C36.23 137.83 35.79 137.67 35.52 137.41C35.46 137.33 35.46 137.21 35.2 137.3C35.02 137.36 34.82 137.44 34.57 137.31C34.22 137.28 33.92 137.19 33.59 137.1C32.48 136.79 32.32 136.84 32.25 137.44C32.65 137.88 32.37 138.11 31.55 138.04C31.12 138 30.71 137.86 30.22 137.85C31.14 138.33 31.14 138.37 30.07 138.47C29.61 138.51 29.36 138.68 29.05 138.81C28.38 139.09 27.69 139.05 26.9 138.81C25.27 137.88 24.18 136.77 22.67 135.81C21.18 134.86 20.46 133.72 19.49 132.64C18.65 131.7 18.08 130.73 17.54 129.77C17.24 129.23 16.47 128.68 16.83 128.06C16.96 127.84 16.25 127.51 16.19 127.17C16.15 126.94 16.11 126.74 16.37 126.57C17.23 126.55 18.11 126.6 18.99 126.65C19.5 126.68 19.99 126.78 20.46 126.93C20.71 127.01 20.89 127.11 20.83 127.27C20.78 127.41 20.54 127.41 20.32 127.4C19.7 127.37 19.07 127.37 18.62 127.19C19.65 127.55 20.71 127.37 21.79 127.26C20.79 126.63 19.65 126.44 18.31 126.56C17.71 126.62 17.04 126.64 16.38 126.47C15.59 126.24 16.45 126.07 16.26 125.86C16.97 125.95 17.62 125.93 18.25 125.8C19.01 125.65 19.84 125.63 20.72 125.74C21.05 125.78 21.47 125.89 21.78 125.61C20.78 125.57 19.9 125.68 19 125.43C18.76 125.36 18.69 125.54 18.53 125.6C17.87 125.81 17.22 126.08 16.27 125.76C16 125.72 15.81 125.6 15.98 125.5C16.26 125.34 15.96 125.18 15.97 125.02C16.43 124.85 16.43 124.85 17.27 125.17C16.86 125.01 16.48 124.83 16.01 124.73C16.06 124.42 16.56 124.32 16.9 124.12C16.57 124.1 16.18 124.12 15.91 123.93C15.65 123.79 15.59 123.66 15.78 123.52C16.08 123.3 16.61 123.51 16.96 123.42C16.56 123.39 16.07 123.43 15.83 123.12C15.66 122.5 15.78 121.89 15.93 121.31C16.19 120.34 16.07 119.35 16.16 118.37C16.24 117.42 16.45 116.49 16.81 115.57C17.06 114.94 17.65 114.36 17.33 113.64C17.31 113.59 17.3 113.51 17.34 113.5C18.01 113.31 17.82 112.9 17.91 112.57C18.09 111.9 18.68 111.35 19.25 110.8C19.86 110.22 20.24 109.58 20.19 108.89C20.14 108.15 20.36 107.43 20.7 106.8C21.07 106.13 20.92 105.36 21.62 104.72C22.06 104.31 22.24 103.74 22.58 103.25C22.78 102.96 23.17 102.9 23.66 103.06C24.67 103.39 25.87 103.42 26.8 103.94C27.43 104.29 28.55 104.19 29.01 103.85C29.21 103.76 29.01 103.51 29.43 103.5C29.65 103.46 29.7 103.58 29.8 103.64C29.87 103.68 29.99 103.73 29.97 103.76C29.9 103.9 29.89 103.89 30.13 103.97C30.22 104 30.27 104.05 30.31 104.09C30.31 104.15 30.3 104.22 30.3 104.28C30.54 104.39 30.78 104.44 31.08 104.4C32.23 104.23 32.44 104.31 32.71 104.96C33.49 105.18 33.91 104.87 34.46 104.76C34.62 104.69 34.82 104.66 35.01 104.63C36.02 104.7 36.36 104.25 36.89 103.99C37.67 103.62 38.41 103.54 39.41 103.9C40.2 104.02 41 104.1 41.79 104.26C42.12 104.5 41.63 104.52 41.51 104.63C41.77 104.99 42.45 104.97 42.92 105.14C43.42 105.8 44.19 105.41 44.96 105.48C44.53 105.29 44.13 105.31 43.8 105.19C43.52 105.07 43.64 104.98 43.82 104.92C44.1 104.81 44.32 104.67 44.59 104.56C45.09 104.4 45.66 104.39 46.28 104.49C46.35 104.51 46.48 104.56 46.47 104.57C46.4 104.62 46.53 104.59 46.43 104.55C46.4053 104.543 46.3817 104.533 46.36 104.52C45.73 104.29 44.87 104.34 44.41 103.92C44.33 103.75 44.36 103.6 44.42 103.44C44.44 103.4 44.47 103.36 44.5 103.32C44.69 103.17 43.89 102.94 44.49 102.82C46.56 102.47 48.82 102.67 51.01 102.89C53 103.1 54.97 103.09 56.95 103.35C59.77 103.71 62.6 103.83 65.42 104.15C68.69 104.51 71.96 104.81 75.23 105.32C78.08 105.76 80.99 105.95 83.86 106.35C86.62 106.73 89.3 106.65 92.02 106.81C93.75 106.91 95.49 107.04 97.19 107.05C98.68 107.06 100.14 107.19 101.61 107.38C103.1 107.57 104.58 107.78 106.07 107.99C106.67 108.07 106.93 108.31 107.01 108.65C107.26 108.46 107.39 108.31 107.91 108.43C109.55 108.81 111.02 109.36 112.51 109.9C112.89 110.04 113.18 110.21 113.1 110.46C112.95 110.92 113.62 110.95 114.07 110.89C114.7 110.8 115.05 110.92 115.31 111.22C115.52 111.46 115.94 111.59 116.24 111.79C116.62 112.04 117.07 112.26 116.09 112.55C117.26 112.5 117.79 112.77 118.23 113.13C118.35 113.23 118.62 113.33 118.4 113.43C118.24 113.5 117.92 113.46 117.77 113.38C116.9 112.9 115.96 113.18 114.93 113C115.15 113.25 115.35 113.3 115.72 113.32C116.41 113.36 117.13 113.4 117.8 113.52C118.38 113.63 119.15 113.7 119.16 114.21C119.17 114.41 119.83 114.51 119.92 114.75C119.62 114.99 119.25 115.08 118.7 114.81C118.01 114.48 117.47 114.69 116.83 114.85C117.8 114.93 118.67 114.88 119.56 114.96C119.76 114.98 119.93 114.98 120.08 115.07C120.08 115.24 120.03 115.4 119.84 115.53C119.49 115.8 118.85 115.68 118.39 115.64C117.36 115.55 116.31 115.55 115.57 115.36C116.88 115.6 118.45 115.7 120.03 115.66C121.07 115.7 121.17 116.22 121.66 116.54C121.12 116.87 120.61 116.52 120.09 116.38C120.39 116.47 120.47 116.58 120.37 116.72C120.27 116.86 120.03 116.81 119.81 116.78C119.53 116.75 119.22 116.73 118.97 116.65C117.52 116.15 115.94 116.01 114.39 115.81C114.17 115.78 114.01 115.67 113.77 115.65C113.66 115.62 113.78 115.73 113.77 115.66C113.77 115.65 113.8 115.64 113.86 115.66C114.44 115.88 115.12 115.93 115.71 115.96C117.18 116.04 118.34 116.68 119.79 116.79C120.33 116.83 120.88 116.64 121.42 116.91C121.99 117.09 122.14 117.34 122.17 117.65C122.19 117.85 121.98 117.85 121.7 117.83C121.06 117.75 120.44 117.63 119.81 117.49C120.38 117.63 121.08 117.67 121.29 118.08L121.57 118.11C121.84 118.16 122.34 118.13 122.23 118.37C122.15 118.55 121.77 118.38 121.51 118.33C120.44 118.16 119.42 118.24 118.38 118.24C117.99 118.33 117.63 118.24 117.26 118.12C115.99 117.71 114.62 117.49 113.29 117.2C114.4 117.42 115.53 117.62 116.57 117.98C116.68 118.07 116.76 118.16 116.69 118.26C116.43 118.43 116.04 118.4 115.67 118.35C114.68 118.22 113.73 118.28 112.8 118.2C114.14 119.04 115.95 119.09 117.65 119.34C118.22 119.42 118.77 119.53 119.25 119.75C119.64 119.92 120.12 119.89 120.53 119.93C121.03 119.98 121.54 120.06 122.03 120.07C122.66 120.09 122.86 120.27 122.92 120.55C122.97 120.65 123.2 120.78 122.88 120.84C122.55 120.97 122.1 121.01 121.87 121.24C121.68 121.44 121.15 121.32 120.74 121.29C120.41 121.26 120.1 121.07 119.7 121.2C120.06 121.45 120.5 121.41 120.91 121.43C121.64 121.46 122.37 121.48 122.95 121.84C123.36 122.43 122.99 122.96 122.96 123.52C122.92 124.47 122.71 125.39 123.5 126.39C123.76 126.72 124.17 127.14 124.01 127.53C123.93 127.93 123.32 127.96 122.69 128C123.01 128.12 123.37 128.19 123.57 128.37C123.65 128.81 123.09 128.73 122.58 128.65C121.68 128.51 120.81 128.22 119.87 128.26C119.63 128.26 119.4 128.27 119.17 128.27C118.06 128.29 117.02 127.82 115.84 127.88C115.99 128.12 116.47 128.41 115.72 128.55C116.28 128.62 116.77 128.81 116.95 128.39C117.05 128.15 117.61 128.26 118.01 128.36C118.14 128.41 118.23 128.47 118.28 128.54C118.5 128.96 118 129.32 118.32 129.76C118.45 129.94 118.44 130.11 118.84 130.21C119.31 130.34 119.42 130.54 119.27 130.77C119.16 130.91 119.03 131.02 118.65 130.94C118.95 131.02 119.18 131.16 119.51 131.22C120.26 131.35 120.13 131.56 119.82 131.77C119.95 131.79 120.12 131.81 120.18 131.77C120.54 131.47 120.98 131.33 121.74 131.58C121.89 131.63 122.01 131.53 122.09 131.47C122.18 131.4 122.4 131.34 122.46 131.39C122.94 131.74 123.94 131.77 124.25 132.23C124.15 133.13 123.94 134.02 123.98 134.93C124.02 135.99 123.66 136.99 123.62 138.03C123.6 138.52 123.18 138.92 123.21 139.42C123.23 139.81 122.63 139.59 122.23 139.49C121.88 139.4 121.53 139 121.21 139.45C121.13 139.56 119.56 139.21 119.39 139.04C119.17 138.83 119.32 138.7 119.69 138.68C120.03 138.66 120.41 138.69 120.92 138.7C120.19 138.46 119.71 138 118.93 138.35C118.86 138.38 118.72 138.41 118.74 138.44C119.09 139.01 118 138.67 117.75 138.85C117.51 139.02 117.14 139.04 116.77 138.97C115.93 138.79 115.11 138.66 114.29 138.54V138.54Z" fill="url(#paint0_linear_1230_3823)"/>
<path d="M44.48 102.81C44.24 102.96 44.56 103.03 44.71 103.13C44.86 103.23 45.07 103.35 44.62 103.33C44.28 103.22 43.93 103.18 43.51 103.17C43.92 103.24 44.28 103.21 44.62 103.33C44.59 103.53 44.57 103.72 44.54 103.92C43.84 104.09 43.09 104 42.33 103.84C41.92 103.7 41.94 103.5 41.97 103.31C41.99 103.14 41.97 102.98 41.53 102.94C40.13 102.75 39.87 102.8 39.33 103.39C39.23 103.48 38.81 103.42 38.96 103.63C39.06 103.77 39.44 103.85 39.33 104.02C37.93 103.42 37.31 104.05 36.46 104.31C36.05 104.44 36.24 104.68 36.28 104.94C35.85 104.77 35.46 104.54 35.01 104.72C34.74 104.34 35.58 104.18 35.38 103.81C35.2 103.81 35.19 104.01 34.91 103.91C34.21 103.35 34.35 102.94 35.34 102.72C35.67 102.64 35.67 102.55 35.3 102.46C34.75 102.33 34.81 102.17 34.92 101.94C35.08 101.6 34.8 101.22 34.9 100.86C35.02 100.46 34.9 100.03 34.94 99.6298C34.97 99.2998 35.25 99.7798 35.55 99.6798C35.62 99.5398 35.52 99.3198 35.23 99.2098C34.71 98.9998 35.05 98.8298 35.22 98.7698C35.51 98.6698 35.94 98.6698 36.06 98.9798C36.74 99.2398 37.71 99.3198 37.97 99.8698C38.04 100.01 38.41 99.9998 38.63 100.07C39.28 100.15 39.96 100.16 40.46 100.51C40.61 100.61 40.86 100.62 41.09 100.6C41.27 100.59 41.46 100.6 41.65 100.62C42.69 100.72 43.34 101.18 42.78 101.54C42.37 101.8 43.13 101.77 42.84 101.95C40.94 101.64 38.9 101.67 36.89 101.18C37.55 101.03 38.18 100.89 38.99 101.17C39.32 101.29 39.72 101.34 40.09 101.28C40.22 101.26 40.25 101.16 40.15 101.12C39.84 100.99 39.48 100.88 39.1 100.85C38.34 100.77 37.57 100.78 36.81 100.61C36.36 100.51 36.18 100.74 35.71 100.74C36.47 100.92 36.53 101.13 36.19 101.37C36.02 101.49 35.9 101.63 36.2 101.76C36.7 101.99 36.28 101.6 36.57 101.6C36.82 101.6 37.09 101.59 37.29 101.66C38.28 102.03 39.43 102.02 40.45 102.27C41.28 102.47 42.23 102.38 42.98 102.84C43.4 103.08 43.96 102.79 44.48 102.81V102.81ZM117.94 118.48C118.41 118.53 118.86 118.56 119.31 118.5C119.76 118.43 120.23 118.52 120.68 118.66C120.85 118.72 121.01 118.8 121.19 118.83C122.9 119.14 122.9 119.13 122.77 120.03C122.53 120.19 122.17 120.13 121.83 120.09C120.18 119.91 118.62 119.54 117.08 119.12C116.57 118.98 116.06 118.86 115.56 118.72C115.35 118.66 115.14 118.58 115.2 118.44C115.27 118.29 115.5 118.25 115.78 118.31C116.16 118.4 116.53 118.41 116.9 118.39C117.24 118.34 117.59 118.47 117.94 118.48V118.48ZM124.25 132.22C124.04 132.08 123.85 131.92 123.46 131.95C123.29 131.96 123.1 132.01 122.98 131.86C122.73 131.56 122.57 131.16 122.08 131.75C121.96 131.9 121.28 131.53 120.78 131.5C120.85 132.27 119.83 131.79 119.19 131.79C119.18 131.64 119.31 131.58 119.53 131.61C119.76 131.64 119.91 131.64 119.89 131.49C119.87 131.35 119.71 131.31 119.5 131.33C118.85 131.39 118.81 130.91 118.17 130.9C118.47 130.79 118.99 130.99 119.03 130.71C119.17 130.65 119.36 130.64 119.49 130.58C120.04 130.36 120.53 129.91 121.26 130.65C121.34 130.73 121.71 130.79 121.95 130.72C122.03 130.62 121.89 130.56 121.77 130.5C121.49 130.37 121.16 130.25 121.31 130.03C121.43 129.86 121.73 129.83 122.06 129.85C122.47 129.88 122.9 129.92 123.08 130.19C123.15 130.29 123.24 130.39 123.22 130.49C123.16 130.84 123.53 131.02 124.14 131.11C124.22 131.14 124.29 131.18 124.35 131.22C124.33 131.57 124.29 131.89 124.25 132.22V132.22Z" fill="#FF5B5D"/>
<path d="M116.98 118.46C116.56 118.6 116.15 118.45 115.73 118.35C115.56 118.31 115.41 118.34 115.35 118.42C115.28 118.53 115.46 118.56 115.61 118.59C117.54 119.02 119.37 119.63 121.37 119.94C121.83 120.01 122.31 120.1 122.76 120.01C122.92 120.18 122.93 120.35 122.89 120.52C122.69 120.32 122.53 120.22 122 120.16C120.74 120.04 119.46 119.94 118.22 119.56C117.1 119.22 115.84 119.22 114.63 119.07C114.3 119.03 113.94 119.04 113.89 118.76C113.85 118.57 113.51 118.54 113.22 118.51C112.8 118.47 112.41 118.38 112.05 118.12C113.56 117.9 115.14 118.26 116.62 118.21C116.79 118.28 116.91 118.36 116.98 118.46ZM119.72 128.12C120.72 127.99 121.63 128.34 122.57 128.5C122.99 128.57 123.43 128.73 123.35 128.33C123.38 128.06 123.6 127.96 124.14 128.12L124.2 129.32C124.1 129.4 123.94 129.43 123.76 129.44C123.52 129.44 123.31 129.4 123.18 129.27C123.11 129.18 123.09 129.06 122.86 129.03C122.65 129 122.67 129.12 122.6 129.18C121.95 129.44 121.61 129.06 121.18 128.89C121.16 129.25 120.5 129.52 120.87 129.96C120.93 130.11 120.87 130.23 120.55 130.22C120.31 130.21 120.18 130.09 120.12 129.97C120.06 129.86 120.06 129.74 120.06 129.63C120.07 129.42 119.94 129.25 119.62 129.08C118.97 128.72 119.02 128.36 119.72 128.12V128.12ZM38.63 100.06C38.1 100.11 37.7 100.06 37.55 99.7001C37.48 99.5101 37.39 99.3301 36.81 99.4101C36.47 99.4501 36.36 99.1101 36.05 98.9801C36.4 98.8801 36.7 98.6901 37.21 98.9201C37.44 99.1301 37.71 99.0301 37.97 99.0101C39.1 99.3501 40.28 99.3701 41.45 99.4401C41.73 99.4601 42.03 99.4501 42.29 99.5101C42.59 99.5701 43.17 99.5701 43.07 99.7901C43.01 99.9101 42.65 100.1 42.13 100.09C41.42 100.07 40.89 99.7301 40.14 99.7301C39.54 99.7301 38.89 99.6701 38.27 99.6401C38.22 99.6101 38.14 99.5901 38.11 99.6201C38.05 99.7001 38.14 99.7701 38.24 99.8401C38.39 99.9001 38.51 99.9801 38.63 100.06V100.06ZM16.36 126.44C17.13 126.42 17.98 126.5 18.64 126.37C19.25 126.25 19.89 126.59 20.41 126.36C20.51 126.31 20.69 126.44 20.75 126.52C20.95 126.77 21.28 126.91 21.78 126.97C22.07 127 22.21 127.13 22.22 127.28C22.24 127.52 21.87 127.37 21.68 127.39C20.4 127.48 19.11 127.51 17.82 127.06C18.03 126.93 18.34 126.93 18.63 127.06C19.17 127.3 19.76 127.21 20.32 127.28C20.49 127.3 20.64 127.29 20.66 127.19C20.68 127.09 20.54 127.05 20.38 127C19.81 126.84 19.21 126.7 18.62 126.71C17.86 126.72 17.11 126.61 16.36 126.54V126.44ZM26.89 138.77C27.65 138.87 28.38 138.99 28.95 138.62C29.34 138.37 29.98 138.23 30.77 138.3C30.67 138.19 30.65 138.15 30.61 138.13C30.32 138.01 29.62 138.07 29.82 137.74C29.98 137.48 30.42 137.64 30.83 137.75C31.89 138.04 32.3 137.92 32.24 137.38C32.57 137.41 33.08 137.52 33.02 137.64C32.9 137.9 32.53 138.12 32.07 138.24C31.61 138.36 31.07 138.42 30.55 138.48C29.84 138.57 29.33 138.76 29.07 139.12C28.94 139.3 28.04 139.38 27.82 139.25C27.67 139.15 28.4 139.15 27.87 139C27.65 138.94 27.38 139.04 27.16 138.9C27.07 138.87 26.98 138.82 26.89 138.77ZM16.25 125.73C17.17 125.73 18.22 125.84 18.5 125.22C18.57 125.07 18.8 125.17 18.95 125.22C19.75 125.51 20.54 125.48 21.33 125.41C21.54 125.39 21.76 125.33 21.95 125.45C22.14 125.57 22.06 125.71 22 125.83C21.92 126 21.63 125.95 21.38 125.92C20.5 125.81 19.63 125.72 18.77 125.82C18.31 125.87 18 126.06 17.44 126.03C17.02 126 16.63 126 16.26 125.84C16.25 125.79 16.25 125.76 16.25 125.73V125.73ZM29.39 103.47C29.25 103.59 29.11 103.7 28.97 103.82C29.01 103.67 28.73 103.6 28.62 103.48C27.79 103.06 26.72 103.04 25.78 102.82C25.66 102.79 25.54 102.78 25.45 102.72C24.98 102.55 24.52 102.38 24.05 102.21C23.85 102.14 23.78 102.05 23.9 101.96C23.99 101.89 24.09 101.76 24.3 101.86C25.45 102.44 26.89 102.52 28.22 102.79C28.87 102.93 29.25 103.12 29.39 103.47V103.47ZM121.39 116.88C120.46 117.03 119.47 116.68 118.52 116.73C118.34 116.74 118.05 116.66 117.91 116.58C117.04 116.07 115.94 116.06 114.89 115.94C114.335 115.886 113.795 115.727 113.3 115.47C114.04 115.59 114.62 115.66 115.18 115.77C116.5 116.03 117.95 116 119.13 116.57C119.18 116.59 119.24 116.61 119.3 116.62C119.6 116.66 119.98 116.8 120.17 116.64C120.41 116.44 119.81 116.39 119.69 116.21C120.37 116.18 120.92 116.71 121.61 116.5C121.55 116.63 121.47 116.76 121.39 116.88V116.88Z" fill="#FC6723"/>
<path d="M120.67 129.92C120.28 129.64 120.58 129.39 120.72 129.19C120.8 129.06 121.14 129.02 120.76 128.84C120.62 128.77 120.68 128.69 120.86 128.65C121.12 128.6 121.25 128.68 121.39 128.8C121.65 129.03 121.92 129.27 122.5 129.13C122.76 129.09 123.02 129.12 123.26 129.22C123.38 129.35 123.61 129.36 123.82 129.38C124.05 129.48 124.23 129.6 124.36 129.74C124.62 130.26 124.4 130.74 124.38 131.23C124.32 131.22 124.26 131.21 124.2 131.21C123.98 131.07 123.98 130.92 124.01 130.78C124.11 130.31 123.59 129.99 122.86 129.72C122.51 129.56 122.14 129.51 121.74 129.55C121.16 129.53 120.97 129.76 120.67 129.92V129.92ZM122.94 121.83C122.22 121.64 121.5 121.51 120.73 121.55C120.46 121.56 120.17 121.52 119.89 121.48C119.55 121.43 119.21 121.29 119.28 121.13C119.36 120.96 119.79 120.92 120.12 120.99C120.83 121.14 121.63 121.6 121.9 120.87C121.93 120.8 122.52 120.84 122.85 120.83C122.88 121.16 122.65 121.48 122.94 121.83V121.83ZM120 115.63C119.78 115.97 119.16 115.74 118.78 115.73C117.4 115.69 115.98 115.71 114.47 115.13C116.4 115.26 118.13 115.62 119.82 115.51L120 115.63ZM120.06 115.04C119.27 115.06 118.44 114.9 117.67 115.02C117.24 115.09 116.82 114.92 116.39 114.78C116.71 114.6 117.24 114.63 117.56 114.43C117.81 114.28 118.47 114.5 118.72 114.65C119.21 114.93 119.52 114.82 119.9 114.71C119.96 114.83 120.01 114.94 120.06 115.04V115.04ZM114.29 138.54C114.91 138.52 115.51 138.54 116.15 138.72C116.65 138.86 117.21 138.92 117.72 138.83C117.63 139.16 117.2 139.25 116.66 139.09C115.9 138.86 114.96 138.94 114.29 138.54V138.54ZM32.68 104.94C32.26 104.55 31.89 104.15 30.94 104.48C30.71 104.56 30.44 104.39 30.27 104.26C30.57 104.29 30.94 104.4 31.12 104.23C31.56 103.83 32.16 104.11 32.7 104.25C33.41 104.43 32.47 104.57 32.78 104.76C32.82 104.8 32.72 104.88 32.68 104.94V104.94ZM25.44 102.72C26.6 102.74 27.65 103.03 28.7 103.33C28.82 103.36 28.74 103.45 28.62 103.48C27.7 103.31 26.79 103.13 25.87 102.96C25.61 102.92 25.44 102.87 25.44 102.72V102.72ZM34.92 103.91C35.34 103.88 34.93 103.36 35.51 103.54C35.94 103.67 35.7 103.99 35.53 104.2C35.38 104.38 35.19 104.55 35.02 104.72C34.87 104.82 34.64 104.77 34.44 104.75L34.47 104.46C34.7 104.38 34.86 104.27 34.89 104.11L34.92 103.91V103.91ZM116.98 118.46C116.73 118.43 116.61 118.35 116.62 118.22C116.56 118.15 116.51 118.07 116.45 118C116.62 117.76 116.94 117.91 117.22 117.99C117.6 118.07 117.97 118.15 118.35 118.22C118.36 118.37 117.84 118.27 117.94 118.47C117.65 118.61 117.3 118.48 116.98 118.46ZM124.14 128.13C123.76 128.1 123.54 128.2 123.35 128.34C123.02 128.23 122.69 128.12 122.26 127.97C122.89 127.8 123.72 127.88 124 127.52C124.05 127.72 124.1 127.93 124.14 128.13V128.13ZM15.88 123.9C16.25 123.94 16.62 123.98 16.99 124.03C16.95 124.4 16.34 124.5 15.99 124.71C15.54 124.41 15.92 124.17 15.88 123.9V123.9ZM15.8 123.09C16.29 123.39 17.12 123.11 17.67 123.55C16.97 123.53 16.36 123.5 15.76 123.48C15.77 123.35 15.78 123.22 15.8 123.09ZM121.26 118.06C120.75 117.72 120.03 117.63 119.15 117.43C120.18 117.36 120.93 117.56 121.67 117.81C121.3 117.78 121.26 117.91 121.26 118.06Z" fill="#FC6723"/>
<path d="M15.99 124.7C16.71 124.73 17.21 125.09 18.11 125.16C17.49 125.32 17.04 125.31 16.73 125.06C16.41 124.8 16.21 124.99 15.95 125C15.96 124.9 15.97 124.8 15.99 124.7ZM30.27 104.07C29.8 103.99 29.49 103.88 29.75 103.61C29.99 103.67 30.22 103.73 30.46 103.8C30.61 103.84 30.78 103.89 30.73 103.99C30.68 104.1 30.46 104.08 30.27 104.07ZM34.56 137.27C34.84 137.3 35.03 137.24 35.16 137.13C35.29 137.02 35.47 136.99 35.69 137.1C36.09 137.3 35.54 137.27 35.5 137.37C35.2 137.31 34.86 137.51 34.56 137.27V137.27ZM124.35 129.75C123.99 129.7 123.81 129.58 123.81 129.39C123.9 129.32 124.05 129.32 124.2 129.33C124.38 129.47 124.68 129.6 124.35 129.75V129.75ZM37.98 98.9899C37.8 99.3199 37.32 99.0799 36.99 99.0199C36.88 98.9999 37.1 98.9299 37.22 98.8999C37.47 98.9799 37.74 98.8599 37.98 98.9899V98.9899ZM34.9 104.1C35.27 104.41 34.92 104.45 34.48 104.45C34.47 104.28 34.55 104.14 34.9 104.1ZM29.76 103.61C29.64 103.56 29.51 103.52 29.39 103.47C29.44 103.32 29.57 103.16 29.9 103.28C30.32 103.44 29.63 103.46 29.76 103.61ZM38.27 99.8199C37.89 99.7599 37.88 99.6199 37.96 99.4799C37.99 99.4199 38.11 99.3599 38.2 99.4099C38.28 99.4599 38.26 99.5599 38.29 99.6299C38.29 99.6899 38.28 99.7499 38.27 99.8199ZM122.82 129.67C123.28 129.66 124.16 130.08 124.19 130.35C124.22 130.64 124.19 130.93 124.18 131.22C123.39 131.17 122.86 131.07 123.03 130.53C123.11 130.28 122.73 129.96 121.98 129.98C121.75 129.99 121.54 129.99 121.47 130.11C121.38 130.26 121.61 130.31 121.82 130.37C122.14 130.47 122.47 130.59 122.37 130.81C122.32 130.93 122.08 131.02 121.89 130.94C121.54 130.79 120.9 130.94 120.8 130.57C120.77 130.47 120.79 130.36 120.54 130.33C120.29 130.3 120.26 130.41 120.19 130.5C119.97 130.74 119.58 130.81 119.05 130.74C119.03 130.62 119.34 130.47 119.01 130.38C117.59 130 117.95 129.46 118.09 128.93C118.12 128.8 118.13 128.67 118.14 128.54C118.91 128.86 119.75 129.14 120.33 129.59C120.33 129.73 120.3 129.88 120.34 130.02C120.36 130.09 120.48 130.19 120.67 130.14C120.84 130.1 120.71 130 120.68 129.93C120.63 129.54 121.03 129.42 121.7 129.45C122.03 129.59 122.38 129.72 122.82 129.67V129.67ZM42.25 103.75C43.02 103.88 43.77 103.86 44.54 103.91C45.03 104.25 46.03 104.06 46.4 104.52C45.84 104.59 45.18 104.47 44.66 104.62C44 104.75 43.33 104.61 42.66 104.46C42.39 104.38 42.07 104.4 41.81 104.29C40.97 104.33 40.17 104.06 39.34 104C39.2 103.86 38.86 103.81 38.8 103.64C39.04 103.6 39.19 103.53 39.21 103.39C39.4 102.67 40.29 102.47 41.59 102.87C41.77 103.18 41.31 103.13 41.01 103.13C40.48 103.13 40.29 103.26 40.47 103.54C40.65 103.81 41.02 103.8 41.41 103.76C41.67 103.74 41.9 103.57 42.25 103.75V103.75Z" fill="#FC6723"/>
<path d="M117.96 128.42C117.68 128.48 116.75 128.05 117.18 128.68C117.28 128.83 116.77 128.87 116.55 128.81C116.11 128.7 115.65 128.67 115.12 128.57C116.01 128.36 116.01 128.36 115.51 127.79C116.75 127.53 117.93 128.15 119.15 128.16C118.99 128.48 118.21 128.19 117.96 128.42V128.42ZM18.29 127.91C18.29 127.79 18.49 127.71 18.63 127.73C19.42 127.87 20.16 127.53 20.96 127.89C21.27 128.03 21.38 127.87 21.58 127.82C21.84 127.75 22.16 127.7 22.45 127.8C22.62 127.86 22.61 128.02 22.51 128.07C22.29 128.18 22.29 128.43 21.77 128.37C21.18 128.3 20.61 128.45 20 128.08C19.68 127.88 18.87 128.11 18.29 127.91V127.91ZM115.21 120.01C115.46 119.95 115.75 119.98 115.92 120.08C116.56 120.46 117.34 120.6 118.17 120.7C118.43 120.73 118.73 120.78 118.72 120.95C118.7 121.15 118.34 121.14 118.07 121.08C117.57 120.96 117.13 120.9 116.64 121C116.42 121.04 116.03 121.03 116.09 120.74C116.15 120.43 115.2 120.34 115.21 120.01V120.01ZM42.57 104.29C43.23 104.54 43.96 104.51 44.66 104.63C44.38 104.8 44.11 104.96 43.83 105.13C43.67 105.43 43.16 105.14 42.86 105.22C42.1 105.1 41.39 104.95 41.01 104.51C41.65 104.58 42.36 104.76 42.57 104.29V104.29Z" fill="#FC6723"/>
<path d="M117.96 128.42C117.78 128.18 118.01 128.14 118.38 128.17C118.64 128.19 118.93 128.27 119.14 128.16L119.72 128.13C119.34 128.42 119.1 128.72 119.9 129.05C120.28 129.2 120.23 129.41 120.32 129.59C119.56 129.26 118.62 129.04 118.13 128.54C118.08 128.5 118.02 128.46 117.96 128.42V128.42ZM117.22 117.99C116.96 117.98 116.66 117.88 116.45 118C115.64 117.72 114.67 117.72 113.87 117.39C113.58 117.27 113.38 117.57 112.98 117.55C112.97 117.5 112.94 117.46 112.95 117.42C113.02 116.89 113.21 116.86 114.24 117.23C115.19 117.56 116.34 117.59 117.22 117.99V117.99ZM42.86 105.21C43.08 105.01 43.56 105.25 43.83 105.12C44.39 105.17 44.96 105.23 45.47 105.49C45.11 105.68 44.58 105.53 44.17 105.59C43.76 105.66 43.28 105.64 42.81 105.66C42.66 105.47 43.52 105.42 42.86 105.21V105.21ZM114.4 137.47C113.25 137.94 112.17 137.57 111.09 137.28C112.15 137.27 113.2 137.24 114.4 137.47ZM110.63 113.22C111.19 112.93 112.04 113.1 112.46 112.87C112.89 112.64 112.46 112.17 113.05 111.94C113.12 112.23 112.96 112.52 113.44 112.8C113.65 112.92 113.6 113.05 113.24 113.07C112.41 113.11 111.58 113.16 110.63 113.22ZM117.09 114.2C116.21 114.07 115.33 114.03 114.45 114C114.31 114 114.12 114.03 114.07 113.9C114.03 113.81 114.12 113.68 114.22 113.71C115.04 113.94 115.82 113.51 116.63 113.88C116.81 113.97 117.15 113.99 117.09 114.2ZM26.07 104.67C25.19 104.74 24.47 104.42 23.69 104.26C23.39 104.2 23.65 104.03 23.75 103.93C23.89 103.79 24.05 103.79 24.34 103.92C24.9 104.16 25.18 104.62 26.07 104.67ZM105.75 110.62C105.98 110.28 106.4 110.01 106.81 109.74C106.97 109.86 106.94 109.96 106.78 110.04C106.88 110.38 106.71 110.64 106.12 110.76C105.91 110.79 105.81 110.72 105.75 110.62ZM42.57 104.29C42.5 104.96 42.42 104.97 41.01 104.51C41.18 104.36 41.77 104.58 41.8 104.3C42.04 104.26 42.29 104.24 42.57 104.29ZM24.28 105.4C24.92 105.28 25.47 105.37 25.92 105.74C25.31 105.71 24.84 105.46 24.28 105.4ZM114.87 116.73C114.26 116.67 113.74 116.51 113.29 116.25C113.89 116.33 114.49 116.4 114.87 116.73ZM45.39 103.33C45.82 103.38 46.26 103.43 46.76 103.49C46.26 103.94 45.83 103.49 45.39 103.33Z" fill="#FC6723"/>
<path d="M106.78 110.04L106.81 109.74C106.87 109.61 106.73 109.44 107.05 109.32C107.21 109.63 107.5 109.92 106.78 110.04ZM105.75 110.62C105.87 110.67 106 110.72 106.12 110.76C105.9 110.99 105.61 111.1 105.08 110.79C105.31 110.73 105.53 110.68 105.75 110.62ZM118.43 117.54C117.71 117.78 118.02 117.32 117.66 117.28C118.02 117.15 118.22 117.34 118.45 117.34C118.57 117.42 118.54 117.48 118.43 117.54V117.54ZM113.97 114.76C113.61 115.06 113.12 114.92 112.86 115.03C113 114.79 113.33 114.75 113.97 114.76ZM114.86 116.73C115.08 116.76 115.3 116.78 115.5 116.72C115.63 116.68 115.79 116.66 115.9 116.76C115.95 116.82 115.98 116.9 115.94 116.94C115.85 117.04 115.68 116.98 115.54 116.93C115.32 116.86 115.01 116.88 114.86 116.73ZM23.61 105.24C23.19 105.28 22.81 105.23 22.4 105.01C22.92 104.96 23.23 105.19 23.61 105.24ZM114.32 111.48C114.34 111.41 114.4 111.35 114.54 111.41C114.65 111.46 114.75 111.54 114.79 111.61C114.83 111.68 114.73 111.72 114.58 111.7C114.33 111.68 114.32 111.58 114.32 111.48V111.48ZM39.44 106.14C39.58 106.15 39.7 106.2 39.71 106.27C39.73 106.37 39.57 106.39 39.41 106.39C39.28 106.39 39.15 106.36 39.14 106.27C39.15 106.18 39.28 106.15 39.44 106.14ZM46.4 104.52C46.64 104.55 46.91 104.56 47.03 104.73C46.66 104.81 46.52 104.67 46.4 104.52ZM113.4 111.39C113.5 111.43 113.62 111.45 113.63 111.48C113.67 111.56 113.57 111.59 113.44 111.57C113.37 111.56 113.28 111.51 113.26 111.48C113.25 111.46 113.34 111.43 113.4 111.39Z" fill="#FC6723"/>
<path d="M118.43 117.54C118.44 117.47 118.44 117.41 118.45 117.34C118.53 117.29 118.66 117.26 118.73 117.33C118.87 117.49 118.6 117.5 118.43 117.54V117.54ZM42.53 106.78C42.66 106.8 42.75 106.82 42.7 106.88C42.67 106.91 42.57 106.93 42.5 106.93C42.39 106.93 42.33 106.88 42.37 106.83C42.39 106.8 42.49 106.79 42.53 106.78V106.78ZM42.25 103.75C41.95 103.71 41.84 103.85 41.61 103.88C41.23 103.93 40.86 103.99 40.45 103.82C39.98 103.62 40.19 103.37 40.11 103.16C40.04 102.95 40.52 103.05 40.74 103.01C41.01 102.96 41.48 103.15 41.58 102.88C41.98 102.84 42.35 102.73 42.22 103.15C42.17 103.32 41.98 103.53 42.25 103.75V103.75ZM44.61 103.33C44.07 103.39 43.55 103.36 42.91 103.11C43.6 103.05 44.15 102.9 44.61 103.33ZM39.21 103.4C39.28 103.49 39.45 103.63 39.39 103.66C39.26 103.75 39 103.65 38.79 103.64C38.62 103.56 38.37 103.48 38.55 103.37C38.72 103.28 38.98 103.31 39.21 103.4V103.4ZM35.38 100.02C35.41 100.05 35.49 100.11 35.47 100.13C35.43 100.18 35.34 100.22 35.27 100.27C35.24 100.23 35.17 100.19 35.17 100.16C35.16 100.09 35.19 100.03 35.38 100.02ZM123.25 129.22C122.99 129.28 122.73 129.25 122.49 129.13C122.52 129.01 122.27 128.78 122.81 128.87C123.12 128.93 123.6 128.96 123.25 129.22V129.22ZM122.82 129.67C122.25 130.03 121.96 129.76 121.69 129.44C122.11 129.41 122.58 129.28 122.82 129.67ZM118.92 129.86C118.91 129.9 118.88 129.98 118.68 129.97C118.48 129.96 118.4 129.89 118.39 129.8C118.38 129.7 118.43 129.6 118.68 129.62C118.86 129.64 118.94 129.72 118.92 129.86V129.86Z" fill="#FC6723"/>
<path d="M141.22 28.13C140.73 30.04 140.37 31.94 140.06 33.83C139.99 34.27 139.76 34.52 139.67 34.97C139.83 35.17 140.38 34.09 140.23 35.29C140.23 35.3 140.32 35.29 140.37 35.25C141.47 34.34 142.25 35.04 143.1 35.26C143.3 35.31 143.47 35.47 143.72 35.33C143.81 35.28 143.92 35.24 143.97 35.32C144.5 36.23 145.32 36.06 146.07 36.18C146.31 36.22 146.38 36.67 146.22 37.31C146.08 37.91 145.93 38.5 145.77 39.09C145.04 41.9 144.47 44.72 144.08 47.48C143.29 53.16 141.92 58.79 140.37 64.38C139.23 68.51 138.19 72.66 137.17 76.81C136.31 80.33 135.68 83.9 134.82 87.42C134.42 89.06 133.97 90.7 133.62 92.36C132.73 96.71 131.49 100.98 130.46 105.3C130.24 106.23 130.08 107.15 129.99 108.09C129.84 109.68 129.38 111.34 128.93 112.91C128.64 113.94 128.33 114.99 128.08 116.01C127.6 117.93 126.88 119.7 126.41 121.56C126 123.17 125.52 124.62 124.93 126.05C124.69 126.63 124.45 127.17 124.13 127.49C124.03 127.56 123.92 127.55 123.95 127.89C123.97 128.12 124.01 128.38 123.83 128.68C123.73 129.12 123.57 129.49 123.42 129.89C122.89 131.26 122.91 131.47 123.49 131.62C124.01 131.16 124.19 131.53 123.95 132.57C123.83 133.11 123.6 133.61 123.49 134.24C124.15 133.13 124.19 133.14 124.07 134.5C124.02 135.08 124.14 135.42 124.21 135.82C124.35 136.69 124.18 137.57 123.78 138.54C122.53 140.5 121.2 141.77 119.93 143.58C118.68 145.36 117.4 146.16 116.12 147.27C115.01 148.23 113.92 148.86 112.86 149.44C112.26 149.76 111.55 150.68 111.01 150.17C110.82 149.99 110.34 150.85 110 150.88C109.77 150.9 109.56 150.93 109.44 150.6C109.6 149.51 109.82 148.4 110.05 147.3C110.18 146.66 110.38 146.04 110.63 145.47C110.76 145.16 110.9 144.95 111.04 145.04C111.17 145.12 111.13 145.42 111.07 145.7C110.92 146.48 110.79 147.28 110.52 147.83C111.09 146.56 111.12 145.21 111.22 143.83C110.39 145.03 109.97 146.45 109.82 148.15C109.75 148.92 109.65 149.76 109.34 150.58C108.96 151.55 108.95 150.45 108.71 150.67C108.94 149.79 109.05 148.96 109.05 148.15C109.05 147.17 109.2 146.13 109.49 145.03C109.6 144.61 109.79 144.1 109.58 143.67C109.34 144.93 109.27 146.06 108.84 147.16C108.73 147.46 108.89 147.56 108.91 147.78C108.99 148.64 109.13 149.48 108.62 150.66C108.52 150.99 108.36 151.22 108.3 151.01C108.2 150.65 107.97 151 107.82 150.97C107.74 150.37 107.74 150.37 108.23 149.34C107.99 149.84 107.73 150.31 107.53 150.89C107.23 150.8 107.23 150.15 107.1 149.71C107.01 150.13 106.95 150.62 106.71 150.94C106.52 151.25 106.37 151.32 106.27 151.06C106.12 150.66 106.42 150.01 106.41 149.56C106.3 150.06 106.24 150.68 105.89 150.96C105.24 151.11 104.65 150.9 104.11 150.65C103.2 150.23 102.18 150.27 101.22 150.06C100.28 149.86 99.4 149.51 98.56 148.96C97.98 148.58 97.52 147.77 96.73 148.1C96.68 148.12 96.6 148.13 96.59 148.07C96.53 147.2 96.09 147.4 95.78 147.26C95.15 146.97 94.71 146.17 94.28 145.39C93.82 144.57 93.26 144.02 92.56 144.01C91.81 144 91.13 143.65 90.58 143.16C89.98 142.63 89.19 142.73 88.69 141.79C88.37 141.19 87.83 140.91 87.41 140.42C87.16 140.13 87.18 139.64 87.44 139.03C87.97 137.78 88.24 136.27 88.95 135.16C89.43 134.4 89.55 132.97 89.31 132.36C89.26 132.1 88.97 132.33 89.04 131.79C89.05 131.5 89.17 131.46 89.25 131.33C89.3 131.24 89.38 131.1 89.41 131.13C89.53 131.23 89.52 131.24 89.65 130.95C89.7 130.84 89.75 130.78 89.81 130.73L90 130.76C90.16 130.46 90.26 130.17 90.28 129.78C90.34 128.31 90.47 128.05 91.17 127.77C91.55 126.81 91.32 126.25 91.33 125.53C91.3 125.32 91.31 125.07 91.31 124.82C91.59 123.55 91.2 123.07 91.05 122.38C90.83 121.36 90.91 120.42 91.47 119.18C91.75 118.19 92 117.19 92.31 116.22C92.62 115.83 92.53 116.45 92.63 116.61C93.04 116.31 93.16 115.46 93.42 114.89C94.18 114.33 93.94 113.31 94.17 112.34C93.9 112.86 93.84 113.37 93.65 113.77C93.47 114.11 93.41 113.95 93.38 113.72C93.33 113.35 93.23 113.06 93.17 112.71C93.11 112.06 93.22 111.34 93.45 110.57C93.49 110.48 93.56 110.33 93.57 110.34C93.61 110.43 93.6 110.27 93.54 110.39C93.54 110.4 93.52 110.42 93.49 110.48C93.13 111.25 93.01 112.34 92.5 112.88C92.32 112.97 92.17 112.92 92.03 112.82C91.9891 112.787 91.9551 112.746 91.93 112.7C91.82 112.45 91.42 113.43 91.43 112.66C91.49 110 92.15 107.18 92.82 104.43C93.43 101.94 93.82 99.45 94.47 96.98C95.4 93.46 96.09 89.89 96.98 86.37C98 82.28 98.96 78.17 100.12 74.1C101.14 70.55 101.92 66.89 102.89 63.31C103.83 59.86 104.28 56.47 104.99 53.05C105.44 50.88 105.92 48.7 106.27 46.55C106.58 44.67 107 42.84 107.49 41C107.98 39.14 108.49 37.29 109 35.44C109.2 34.69 109.49 34.38 109.84 34.33C109.7 34 109.58 33.82 109.8 33.17C110.51 31.13 111.36 29.34 112.19 27.52C112.4 27.05 112.63 26.7 112.87 26.84C113.3 27.08 113.47 26.24 113.5 25.66C113.54 24.86 113.73 24.43 114.08 24.13C114.36 23.89 114.58 23.37 114.83 23.02C115.16 22.57 115.47 22.02 115.56 23.29C115.75 21.81 116.12 21.16 116.57 20.65C116.69 20.51 116.85 20.18 116.91 20.46C116.95 20.67 116.85 21.07 116.73 21.25C116.08 22.3 116.16 23.52 115.78 24.79C116.07 24.54 116.17 24.29 116.26 23.83C116.44 22.96 116.62 22.06 116.88 21.23C117.1 20.5 117.33 19.55 117.84 19.58C118.04 19.59 118.27 18.77 118.53 18.67C118.71 19.08 118.72 19.55 118.34 20.22C117.87 21.06 117.97 21.76 118 22.59C118.27 21.38 118.4 20.27 118.66 19.15C118.72 18.9 118.76 18.69 118.88 18.51C119.05 18.52 119.2 18.61 119.29 18.86C119.49 19.33 119.24 20.13 119.1 20.71C118.8 22 118.59 23.33 118.25 24.25C118.75 22.62 119.17 20.64 119.44 18.65C119.69 17.34 120.23 17.27 120.65 16.68C120.87 17.4 120.42 18.01 120.17 18.64C120.31 18.27 120.45 18.18 120.57 18.32C120.69 18.46 120.59 18.76 120.52 19.03C120.43 19.39 120.35 19.77 120.22 20.08C119.43 21.86 118.97 23.84 118.46 25.78C118.39 26.06 118.24 26.25 118.18 26.55C118.13 26.69 118.26 26.54 118.19 26.55C118.18 26.55 118.18 26.51 118.21 26.44C118.55 25.73 118.74 24.88 118.89 24.14C119.26 22.29 120.14 20.89 120.54 19.07C120.69 18.39 120.61 17.68 120.99 17.02C121.28 16.32 121.57 16.15 121.88 16.15C122.08 16.15 122.04 16.41 121.97 16.76C121.77 17.56 121.51 18.34 121.25 19.11C121.5 18.4 121.68 17.52 122.14 17.3C122.17 17.18 122.19 17.06 122.23 16.95C122.34 16.61 122.41 15.98 122.62 16.14C122.78 16.26 122.53 16.72 122.44 17.05C122.06 18.38 121.92 19.68 121.72 20.99C121.73 21.49 121.57 21.94 121.37 22.39C120.7 23.95 120.2 25.65 119.65 27.31C120.1 25.93 120.52 24.53 121.09 23.25C121.2 23.11 121.31 23.03 121.4 23.12C121.52 23.46 121.41 23.95 121.28 24.42C120.95 25.65 120.82 26.87 120.55 28.03C121.66 26.42 122.08 24.14 122.67 22.02C122.87 21.31 123.09 20.63 123.4 20.04C123.65 19.56 123.72 18.96 123.84 18.44C123.99 17.82 124.17 17.18 124.28 16.56C124.42 15.77 124.65 15.54 124.94 15.48C125.05 15.43 125.23 15.15 125.23 15.56C125.3 15.99 125.24 16.56 125.43 16.87C125.59 17.13 125.36 17.79 125.25 18.3C125.16 18.71 124.9 19.09 124.95 19.6C125.27 19.17 125.32 18.61 125.42 18.09C125.6 17.17 125.77 16.25 126.25 15.56C126.93 15.1 127.38 15.63 127.93 15.71C128.87 15.85 129.75 16.21 130.9 15.31C131.29 15.01 131.78 14.55 132.15 14.78C132.53 14.92 132.44 15.7 132.36 16.49C132.55 16.1 132.68 15.65 132.9 15.42C133.35 15.36 133.16 16.07 132.97 16.7C132.65 17.82 132.19 18.89 132.03 20.08C131.98 20.38 131.95 20.67 131.9 20.97C131.7 22.37 131.01 23.64 130.84 25.14C131.11 24.97 131.49 24.39 131.49 25.36C131.67 24.66 131.97 24.06 131.58 23.79C131.36 23.64 131.59 22.95 131.77 22.44C131.84 22.29 131.92 22.18 132.01 22.12C132.47 21.89 132.73 22.55 133.23 22.2C133.43 22.06 133.6 22.09 133.79 21.59C134.01 21.01 134.24 20.89 134.43 21.11C134.55 21.26 134.63 21.44 134.47 21.91C134.61 21.54 134.8 21.26 134.93 20.85C135.21 19.92 135.39 20.1 135.54 20.52C135.59 20.36 135.64 20.14 135.61 20.07C135.39 19.58 135.33 19.01 135.74 18.08C135.82 17.9 135.75 17.74 135.7 17.63C135.65 17.51 135.63 17.23 135.7 17.15C136.15 16.58 136.38 15.32 136.9 14.98C137.78 15.2 138.63 15.56 139.54 15.6C140.6 15.65 141.53 16.22 142.56 16.37C143.04 16.44 143.36 17.02 143.87 17.03C144.26 17.04 143.92 17.78 143.74 18.28C143.58 18.71 143.11 19.11 143.49 19.56C143.59 19.67 142.91 21.62 142.71 21.82C142.46 22.07 142.36 21.87 142.41 21.41C142.46 20.97 142.56 20.51 142.68 19.86C142.3 20.76 141.74 21.32 141.93 22.34C141.95 22.43 141.95 22.61 141.98 22.59C142.62 22.21 142.06 23.55 142.19 23.88C142.31 24.2 142.25 24.66 142.11 25.13C141.8 26.08 141.51 27.1 141.22 28.13V28.13Z" fill="url(#paint1_linear_1230_3823)"/>
<path d="M91.44 112.65C91.54 112.96 91.67 112.57 91.8 112.39C91.93 112.22 92.09 111.96 91.98 112.53C91.8 112.94 91.69 113.39 91.6 113.92C91.75 113.41 91.8 112.95 91.98 112.53C92.17 112.58 92.36 112.63 92.55 112.69C92.58 113.59 92.34 114.53 92.03 115.47C91.8 115.97 91.61 115.92 91.43 115.87C91.26 115.82 91.1 115.84 90.97 116.39C90.5 118.14 90.5 118.47 90.97 119.22C91.04 119.35 90.9 119.88 91.13 119.71C91.29 119.6 91.45 119.12 91.6 119.28C90.72 120.99 91.22 121.83 91.31 122.93C91.35 123.46 91.63 123.25 91.91 123.22C91.65 123.75 91.34 124.21 91.43 124.8C91 125.1 91 124.03 90.59 124.25C90.56 124.48 90.75 124.51 90.6 124.85C89.9 125.68 89.52 125.46 89.49 124.18C89.48 123.76 89.39 123.74 89.23 124.2C88.99 124.88 88.84 124.79 88.63 124.63C88.32 124.39 87.88 124.71 87.55 124.55C87.17 124.36 86.72 124.47 86.33 124.38C86.01 124.3 86.54 124.01 86.5 123.61C86.37 123.51 86.14 123.61 85.96 123.97C85.64 124.61 85.54 124.16 85.52 123.94C85.48 123.57 85.56 123.02 85.9 122.9C86.3 122.06 86.57 120.86 87.17 120.57C87.32 120.5 87.39 120.03 87.51 119.76C87.72 118.95 87.87 118.09 88.32 117.49C88.45 117.31 88.51 117 88.54 116.71C88.56 116.48 88.61 116.24 88.67 116C88.98 114.7 89.57 113.92 89.81 114.67C89.98 115.21 90.11 114.25 90.23 114.64C89.54 117.01 89.15 119.59 88.26 122.07C88.25 121.22 88.23 120.41 88.68 119.41C88.86 119 88.99 118.5 89.02 118.03C89.03 117.86 88.93 117.82 88.87 117.94C88.67 118.32 88.5 118.76 88.39 119.24C88.16 120.2 88.01 121.17 87.69 122.11C87.5 122.67 87.69 122.92 87.6 123.51C87.93 122.56 88.16 122.52 88.33 122.97C88.42 123.19 88.53 123.36 88.73 122.99C89.06 122.38 88.59 122.88 88.65 122.51C88.7 122.19 88.74 121.85 88.86 121.6C89.43 120.38 89.65 118.94 90.11 117.67C90.48 116.64 90.58 115.44 91.19 114.53C91.49 114.04 91.32 113.3 91.44 112.65V112.65ZM121.92 21.4702C122.06 20.8802 122.19 20.3202 122.21 19.7402C122.24 19.1702 122.41 18.5802 122.65 18.0302C122.74 17.8202 122.85 17.6302 122.92 17.4002C123.57 15.2702 123.57 15.2702 124.43 15.5302C124.54 15.8502 124.41 16.2902 124.3 16.7302C123.79 18.8002 123.1 20.7302 122.37 22.6402C122.13 23.2702 121.9 23.9102 121.66 24.5202C121.56 24.7802 121.43 25.0402 121.31 24.9502C121.18 24.8502 121.18 24.5602 121.3 24.2102C121.46 23.7302 121.55 23.2702 121.6 22.8002C121.63 22.3502 121.84 21.9202 121.92 21.4702ZM136.92 14.9102C136.74 15.1602 136.54 15.3802 136.49 15.8802C136.47 16.1002 136.47 16.3402 136.3 16.4802C135.95 16.7702 135.52 16.9302 136.01 17.6002C136.14 17.7702 135.62 18.5802 135.5 19.2102C136.29 19.2002 135.59 20.4402 135.47 21.2402C135.32 21.2402 135.29 21.0702 135.36 20.7902C135.43 20.5102 135.46 20.3202 135.32 20.3302C135.17 20.3402 135.11 20.5402 135.09 20.8102C135.02 21.6402 134.53 21.6402 134.4 22.4402C134.35 22.0402 134.65 21.4102 134.39 21.3302C134.36 21.1502 134.38 20.9102 134.36 20.7302C134.25 20.0102 133.9 19.3502 134.78 18.5002C134.88 18.4002 135.01 17.9402 134.99 17.6302C134.91 17.5102 134.82 17.6902 134.74 17.8402C134.55 18.1802 134.36 18.5902 134.18 18.3802C134.04 18.2102 134.06 17.8302 134.15 17.4102C134.26 16.8902 134.39 16.3602 134.69 16.1602C134.8 16.0902 134.92 15.9802 135.01 16.0102C135.35 16.1202 135.6 15.6702 135.82 14.9102C135.87 14.8202 135.92 14.7302 135.97 14.6602C136.28 14.7502 136.6 14.8302 136.92 14.9102V14.9102Z" fill="#FD6F2D"/>
<path d="M121.71 22.6901C121.76 23.2301 121.54 23.7401 121.35 24.2601C121.28 24.4701 121.27 24.6701 121.34 24.7401C121.43 24.8401 121.5 24.6201 121.57 24.4301C122.39 22.0401 123.37 19.7901 124.08 17.2901C124.25 16.7101 124.43 16.1101 124.43 15.5401C124.63 15.3501 124.81 15.3601 124.97 15.4201C124.73 15.6501 124.59 15.8501 124.44 16.5101C124.06 18.0901 123.7 19.7001 123.08 21.2201C122.52 22.5901 122.26 24.2001 121.87 25.7001C121.76 26.1101 121.7 26.5701 121.41 26.6101C121.21 26.6401 121.11 27.0701 121.02 27.4401C120.89 27.9701 120.73 28.4401 120.39 28.8801C120.48 26.9501 121.15 24.9901 121.4 23.1201C121.49 22.9001 121.59 22.7601 121.71 22.6901V22.6901ZM131.91 20.2101C131.98 18.9301 132.51 17.8201 132.87 16.6501C133.03 16.1301 133.28 15.5801 132.86 15.6501C132.6 15.5801 132.54 15.2901 132.81 14.6401C133.21 14.6501 133.62 14.6701 134.02 14.6801C134.08 14.8201 134.07 15.0201 134.05 15.2501C134 15.5501 133.92 15.8101 133.76 15.9601C133.65 16.0401 133.53 16.0601 133.46 16.3401C133.39 16.6001 133.51 16.5901 133.55 16.6901C133.68 17.5401 133.24 17.9201 132.97 18.4501C133.33 18.5101 133.47 19.3701 133.97 18.9501C134.13 18.8901 134.24 18.9801 134.16 19.3801C134.1 19.6801 133.96 19.8301 133.82 19.9001C133.69 19.9601 133.58 19.9501 133.47 19.9401C133.27 19.9001 133.07 20.0601 132.83 20.4401C132.35 21.2201 132.01 21.1201 131.91 20.2101V20.2101ZM87.51 119.75C87.45 120.42 87.33 120.93 86.93 121.07C86.73 121.14 86.53 121.23 86.49 121.97C86.47 122.41 86.1 122.51 85.9 122.88C85.87 122.43 85.74 122.02 86.07 121.41C86.33 121.14 86.29 120.79 86.31 120.46C86.88 119.07 87.14 117.58 87.45 116.1C87.52 115.75 87.58 115.37 87.69 115.04C87.81 114.67 87.93 113.93 88.13 114.09C88.24 114.17 88.35 114.66 88.24 115.3C88.08 116.2 87.63 116.82 87.48 117.77C87.36 118.52 87.17 119.34 87.01 120.13C86.97 120.18 86.93 120.29 86.95 120.32C87.01 120.41 87.11 120.3 87.2 120.17C87.3 120.04 87.4 119.89 87.51 119.75V119.75ZM109.37 150.57C109.51 149.6 109.75 148.53 109.76 147.68C109.76 146.9 110.23 146.12 110.11 145.44C110.09 145.3 110.25 145.1 110.34 145.03C110.63 144.81 110.84 144.4 111 143.78C111.09 143.42 111.24 143.25 111.4 143.25C111.65 143.25 111.42 143.7 111.4 143.95C111.23 145.58 111 147.21 110.29 148.79C110.21 148.51 110.27 148.12 110.46 147.77C110.81 147.11 110.84 146.36 111.02 145.66C111.08 145.45 111.09 145.25 110.99 145.22C110.89 145.18 110.82 145.36 110.75 145.56C110.48 146.26 110.22 147.01 110.11 147.75C109.97 148.72 109.71 149.65 109.48 150.59C109.43 150.58 109.4 150.57 109.37 150.57V150.57ZM123.81 138.53C124.06 137.57 124.33 136.67 124.08 135.91C123.91 135.39 123.89 134.57 124.13 133.57C124 133.69 123.96 133.71 123.93 133.76C123.75 134.12 123.67 135.01 123.39 134.72C123.16 134.49 123.41 133.95 123.61 133.44C124.11 132.13 124.07 131.6 123.53 131.62C123.63 131.21 123.84 130.58 123.94 130.66C124.18 130.84 124.32 131.33 124.35 131.93C124.38 132.53 124.33 133.21 124.29 133.88C124.24 134.78 124.32 135.45 124.63 135.82C124.78 136 124.69 137.15 124.5 137.41C124.37 137.59 124.52 136.67 124.26 137.33C124.16 137.6 124.2 137.95 124.02 138.22C123.95 138.32 123.88 138.42 123.81 138.53V138.53ZM108.64 150.64C108.82 149.47 109.15 148.17 108.58 147.75C108.44 147.65 108.59 147.37 108.67 147.19C109.13 146.21 109.25 145.21 109.34 144.21C109.36 143.95 109.34 143.66 109.5 143.44C109.66 143.21 109.79 143.32 109.89 143.41C110.04 143.53 109.93 143.89 109.85 144.2C109.56 145.3 109.29 146.39 109.22 147.49C109.18 148.07 109.3 148.49 109.16 149.2C109.05 149.73 108.96 150.22 108.73 150.67C108.704 150.651 108.672 150.641 108.64 150.64V150.64ZM89.05 131.77L89.32 132.34C89.18 132.27 89.05 132.62 88.91 132.75C88.32 133.76 88.09 135.11 87.67 136.27C87.62 136.41 87.58 136.57 87.51 136.68C87.25 137.25 86.98 137.82 86.72 138.4C86.61 138.64 86.51 138.73 86.44 138.57C86.39 138.45 86.28 138.3 86.43 138.05C87.24 136.66 87.62 134.84 88.15 133.2C88.41 132.38 88.68 131.91 89.05 131.77V131.77ZM121.02 16.9601C120.98 18.1501 120.43 19.3601 120.29 20.5601C120.26 20.7801 120.12 21.1501 120.01 21.3201C119.33 22.3701 119.09 23.7601 118.76 25.0701C118.59 25.7701 118.37 26.3501 117.97 27.0301C118.23 26.1101 118.42 25.3901 118.65 24.6901C119.18 23.0501 119.44 21.2101 120.25 19.7801C120.28 19.7201 120.32 19.6401 120.34 19.5701C120.44 19.1901 120.66 18.7201 120.54 18.4701C120.39 18.1501 120.22 18.9001 120.02 19.0301C120.13 18.1701 120.77 17.5301 120.7 16.6301C120.8 16.7301 120.91 16.8501 121.02 16.9601Z" fill="#FD6F2D"/>
<path d="M133.9 19.1899C133.54 19.6599 133.36 19.2499 133.18 19.0599C133.07 18.9399 133.1 18.5099 132.84 18.9799C132.74 19.1499 132.67 19.0699 132.67 18.8399C132.67 18.4999 132.78 18.3599 132.93 18.1899C133.21 17.8799 133.51 17.5599 133.49 16.8199C133.51 16.4899 133.58 16.1699 133.73 15.8699C133.89 15.7299 133.94 15.4399 134 15.1799C134.15 14.8999 134.3 14.6899 134.47 14.5399C135.04 14.2599 135.48 14.5899 135.97 14.6699L135.91 14.8999C135.73 15.1599 135.58 15.1499 135.44 15.0899C134.99 14.9199 134.56 15.5399 134.14 16.4399C133.91 16.8599 133.79 17.3299 133.75 17.8299C133.6 18.5299 133.8 18.7899 133.9 19.1899V19.1899ZM126.27 15.4999C125.93 16.3899 125.66 17.2899 125.54 18.2599C125.5 18.5999 125.4 18.9699 125.3 19.3099C125.18 19.7299 124.98 20.1499 124.83 20.0399C124.67 19.9299 124.72 19.3799 124.86 18.9599C125.16 18.0799 125.77 17.1099 125.1 16.6899C125.04 16.6499 125.2 15.8999 125.25 15.4799C125.59 15.5099 125.87 15.8299 126.27 15.4999ZM119.48 18.5899C119.78 18.8999 119.42 19.6599 119.33 20.1399C119.01 21.8699 118.75 23.6699 117.86 25.5199C118.38 23.0999 119.08 20.9499 119.32 18.7999C119.38 18.7299 119.43 18.6599 119.48 18.5899V18.5899ZM118.91 18.4499C118.77 19.4499 118.44 20.4799 118.41 21.4599C118.39 22.0199 118.14 22.5199 117.92 23.0499C117.81 22.6299 117.94 21.9699 117.81 21.5399C117.71 21.2099 118.07 20.3999 118.26 20.0899C118.64 19.4899 118.59 19.0999 118.56 18.6099C118.68 18.5599 118.8 18.4999 118.91 18.4499ZM141.22 28.1299C141.33 27.3399 141.47 26.5899 141.77 25.7999C142.01 25.1899 142.18 24.4899 142.2 23.8199C142.51 23.9599 142.52 24.5199 142.25 25.1799C141.87 26.1299 141.75 27.3299 141.22 28.1299V28.1299ZM91.19 127.76C90.72 128.25 90.24 128.68 90.38 129.92C90.41 130.22 90.19 130.55 90.02 130.75C90.11 130.37 90.29 129.92 90.16 129.68C89.85 129.09 90.25 128.36 90.5 127.69C90.82 126.82 90.78 128.01 91.03 127.65C91.07 127.58 91.13 127.71 91.19 127.76V127.76ZM87.51 136.69C87.77 135.23 88.26 133.93 88.78 132.64C88.84 132.49 88.9 132.61 88.91 132.76C88.55 133.9 88.19 135.04 87.84 136.19C87.74 136.49 87.65 136.7 87.51 136.69ZM90.6 124.83C90.65 124.3 90.05 124.76 90.35 124.04C90.57 123.5 90.84 123.85 91.01 124.08C91.16 124.28 91.29 124.54 91.43 124.78C91.5 124.98 91.4 125.26 91.34 125.52C91.24 125.5 91.15 125.47 91.05 125.45C91.02 125.15 90.93 124.94 90.79 124.88C90.73 124.87 90.67 124.85 90.6 124.83V124.83ZM121.71 22.6899C121.63 22.9999 121.52 23.1399 121.4 23.1199L121.15 23.3099C120.95 23.0699 121.16 22.6799 121.29 22.3299C121.44 21.8599 121.6 21.3999 121.75 20.9299C121.9 20.9399 121.7 21.5799 121.92 21.4799C121.99 21.8499 121.79 22.2799 121.71 22.6899V22.6899ZM132.81 14.6299C132.7 15.1099 132.76 15.3999 132.86 15.6399C132.68 16.0399 132.51 16.4499 132.28 16.9699C132.24 16.1599 132.48 15.1199 132.18 14.7199C132.39 14.6999 132.6 14.6599 132.81 14.6299V14.6299ZM106.73 150.91C106.85 150.45 106.96 149.99 107.08 149.52C107.45 149.61 107.41 150.39 107.56 150.86C107.18 151.41 107.01 150.89 106.73 150.91V150.91ZM105.91 150.94C106.31 150.35 106.19 149.27 106.75 148.63C106.58 149.52 106.44 150.28 106.3 151.04C106.16 151.01 106.04 150.97 105.91 150.94ZM122.17 17.2399C121.73 17.8499 121.5 18.7499 121.12 19.8399C121.25 18.5299 121.61 17.6099 122 16.6999C121.89 17.1599 122.02 17.2199 122.17 17.2399ZM107.56 150.86C107.74 149.96 108.2 149.35 108.45 148.23C108.49 149.02 108.38 149.6 108.07 149.96C107.74 150.34 107.9 150.61 107.85 150.94C107.75 150.92 107.65 150.89 107.56 150.86V150.86ZM89.83 130.72C89.66 131.31 89.48 131.69 89.27 131.32C89.38 131.03 89.49 130.73 89.6 130.44C89.67 130.26 89.76 130.05 89.84 130.12C89.94 130.21 89.88 130.48 89.83 130.72V130.72ZM123.86 128.69C123.95 128.34 123.93 128.09 123.84 127.91C123.76 127.74 123.76 127.51 123.92 127.23C124.2 126.75 124.06 127.44 124.16 127.49C124.03 127.89 124.16 128.34 123.86 128.69Z" fill="#FD6F2D"/>
<path d="M134.46 14.5302C134.34 14.9802 134.18 15.2002 133.99 15.1702C133.94 15.0502 133.97 14.8602 134.01 14.6702C134.19 14.4602 134.39 14.0902 134.46 14.5302ZM86.31 120.46C86.6 120.73 86.26 121.3 86.14 121.71C86.1 121.85 86.07 121.56 86.07 121.41C86.19 121.11 86.13 120.75 86.31 120.46ZM90.79 124.88C91.18 124.44 91.14 124.89 91.05 125.45C90.89 125.44 90.76 125.33 90.79 124.88ZM89.27 131.32C89.2 131.47 89.13 131.62 89.06 131.78C88.92 131.7 88.79 131.52 88.97 131.12C89.21 130.6 89.09 131.47 89.27 131.32ZM87.19 120.18C87.05 120.66 86.91 120.66 86.78 120.53C86.73 120.48 86.69 120.33 86.76 120.22C86.82 120.12 86.92 120.15 87 120.13C87.07 120.15 87.13 120.16 87.19 120.18V120.18ZM134.08 16.4602C134.16 15.8802 134.76 14.8102 135.04 14.8002C135.34 14.7902 135.62 14.8602 135.91 14.9002C135.7 15.8902 135.49 16.5502 134.98 16.2802C134.75 16.1502 134.35 16.6002 134.22 17.5502C134.18 17.8402 134.14 18.1002 134.25 18.2102C134.38 18.3402 134.48 18.0502 134.58 17.8002C134.75 17.4102 134.93 17.0002 135.13 17.1602C135.24 17.2402 135.28 17.5402 135.16 17.7802C134.94 18.2002 134.96 19.0302 134.57 19.1202C134.46 19.1402 134.36 19.1102 134.27 19.4202C134.19 19.7302 134.3 19.7802 134.36 19.8802C134.56 20.1802 134.54 20.6902 134.37 21.3402C134.25 21.3502 134.16 20.9402 134.01 21.3502C133.34 23.1002 132.88 22.6002 132.38 22.3602C132.26 22.3002 132.13 22.2902 132 22.2502C132.48 21.3102 132.93 20.2702 133.49 19.5902C133.63 19.6102 133.77 19.6502 133.92 19.6202C134 19.6102 134.12 19.4602 134.11 19.2202C134.1 19.0002 133.98 19.1502 133.9 19.1802C133.5 19.2102 133.46 18.6902 133.63 17.8402C133.84 17.4402 134.04 17.0102 134.08 16.4602V16.4602ZM91.93 115.56C92.21 114.61 92.35 113.65 92.56 112.69C93 112.11 93.01 110.82 93.54 110.4C93.5 111.11 93.24 111.93 93.29 112.61C93.29 113.46 93.01 114.29 92.73 115.12C92.6 115.46 92.55 115.86 92.39 116.18C92.26 117.24 91.83 118.23 91.6 119.26C91.44 119.42 91.31 119.84 91.13 119.9C91.14 119.6 91.1 119.39 90.96 119.35C90.28 119.04 90.26 117.89 90.92 116.3C91.26 116.11 91.12 116.67 91.06 117.05C90.96 117.72 91.05 117.97 91.36 117.78C91.67 117.59 91.73 117.11 91.77 116.62C91.8 116.29 91.68 115.98 91.93 115.56V115.56Z" fill="#FD6F2D"/>
<path d="M131.85 22.47C131.86 22.83 131.23 23.96 131.95 23.48C132.12 23.37 132.06 24.02 131.96 24.3C131.76 24.84 131.64 25.42 131.43 26.08C131.4 24.93 131.4 24.93 130.73 25.51C130.72 23.92 131.58 22.49 131.83 20.95C132.12 21.17 131.67 22.13 131.85 22.47V22.47ZM111.22 148.29C111.1 148.28 111.06 148.02 111.11 147.85C111.41 146.87 111.22 145.89 111.74 144.93C111.94 144.56 111.81 144.39 111.79 144.14C111.77 143.8 111.79 143.4 111.95 143.03C112.04 142.82 112.2 142.85 112.23 142.99C112.3 143.28 112.54 143.31 112.38 143.95C112.19 144.69 112.23 145.42 111.73 146.16C111.48 146.52 111.55 147.57 111.22 148.29V148.29ZM122.89 25.08C122.88 24.76 122.97 24.39 123.1 24.19C123.61 23.43 123.91 22.45 124.17 21.41C124.25 21.09 124.37 20.71 124.53 20.74C124.73 20.78 124.64 21.24 124.53 21.57C124.31 22.19 124.16 22.74 124.16 23.37C124.16 23.65 124.07 24.14 123.78 24.04C123.5 23.94 123.22 25.12 122.89 25.08V25.08ZM92.53 115.21C92.91 114.41 93.03 113.47 93.29 112.61L93.62 113.71C93.89 113.94 93.49 114.56 93.51 114.94C93.24 115.89 92.94 116.77 92.43 117.2C92.64 116.41 92.96 115.53 92.53 115.21V115.21Z" fill="#FD6F2D"/>
<path d="M131.85 22.4698C131.58 22.6698 131.59 22.3698 131.69 21.9098C131.76 21.5798 131.9 21.2298 131.83 20.9498L131.92 20.2098C132.14 20.7198 132.39 21.0598 132.87 20.0698C133.1 19.5998 133.29 19.6898 133.5 19.5898C133.02 20.5198 132.61 21.6798 132.01 22.2498C131.95 22.3298 131.9 22.3998 131.85 22.4698V22.4698ZM121.29 22.3298C121.22 22.6598 121.07 23.0198 121.15 23.3098C120.7 24.2998 120.51 25.5198 120.02 26.4998C119.84 26.8498 120.1 27.1398 120 27.6398C119.95 27.6498 119.9 27.6798 119.86 27.6698C119.34 27.5298 119.35 27.2898 119.93 26.0198C120.44 24.8498 120.7 23.4098 121.29 22.3298V22.3298ZM93.51 114.94C93.35 114.64 93.69 114.06 93.62 113.71C93.79 113 93.96 112.3 94.32 111.68C94.44 112.15 94.18 112.81 94.16 113.34C94.15 113.86 94.03 114.46 93.95 115.07C93.73 115.21 93.85 114.13 93.51 114.94V114.94ZM140.17 27.8798C140.41 29.3798 139.81 30.7098 139.31 32.0398C139.52 30.7098 139.7 29.3698 140.17 27.8798ZM115.19 30.1798C115.01 29.4398 115.35 28.3898 115.21 27.8298C115.06 27.2698 114.52 27.7598 114.4 26.9898C114.71 26.9398 114.97 27.1598 115.33 26.5898C115.49 26.3398 115.61 26.4198 115.56 26.8798C115.43 27.9098 115.32 28.9598 115.19 30.1798ZM117.47 22.1098C117.16 23.2098 116.94 24.3198 116.74 25.4298C116.71 25.6098 116.71 25.8498 116.57 25.8998C116.47 25.9398 116.36 25.8098 116.41 25.6898C116.8 24.6698 116.53 23.6498 117.06 22.6598C117.18 22.4398 117.28 22.0098 117.47 22.1098V22.1098ZM89.58 136.09C89.47 137.2 89 138.09 88.69 139.05C88.57 139.42 88.45 139.08 88.37 138.94C88.26 138.75 88.29 138.55 88.48 138.2C88.84 137.51 89.35 137.2 89.58 136.09V136.09ZM111.6 36.0698C111.31 35.7498 111.12 35.1898 110.94 34.6398C111.09 34.4498 111.18 34.4998 111.24 34.7098C111.6 34.6198 111.82 34.8598 111.82 35.6198C111.8 35.8798 111.71 35.9998 111.6 36.0698ZM92.53 115.21C93.19 115.37 93.18 115.47 92.43 117.2C92.31 116.97 92.65 116.25 92.38 116.18C92.39 115.87 92.42 115.55 92.53 115.21V115.21ZM89.95 138.42C89.96 137.6 90.16 136.92 90.62 136.38C90.47 137.16 90.12 137.73 89.95 138.42ZM119.55 25.1798C119.37 25.9498 119.1 26.5898 118.76 27.1198C118.95 26.3698 119.14 25.6198 119.55 25.1798ZM92.14 111.55C92.28 111.01 92.41 110.46 92.57 109.83C92.93 110.51 92.39 111.01 92.14 111.55Z" fill="#FD6F2D"/>
<path d="M111.24 34.7102C111.14 34.6902 111.04 34.6702 110.94 34.6402C110.82 34.5502 110.62 34.7002 110.57 34.3002C110.91 34.1202 111.26 33.7902 111.24 34.7102V34.7102ZM111.6 36.0702C111.67 35.9202 111.75 35.7702 111.82 35.6202C112 35.9302 112.06 36.3002 111.64 36.9302C111.63 36.6302 111.62 36.3502 111.6 36.0702V36.0702ZM121.08 20.7502C121.18 21.6802 120.78 21.2502 120.67 21.7002C120.61 21.2302 120.84 21.0002 120.89 20.7102C120.99 20.5702 121.04 20.6102 121.08 20.7502ZM117.4 26.1002C117.62 26.5902 117.38 27.1902 117.45 27.5302C117.24 27.3402 117.26 26.9102 117.4 26.1002ZM119.55 25.1802C119.62 24.9002 119.69 24.6302 119.67 24.3802C119.66 24.2102 119.67 24.0002 119.79 23.8802C119.86 23.8202 119.95 23.7902 119.98 23.8502C120.06 23.9702 119.96 24.1802 119.89 24.3502C119.77 24.6202 119.73 25.0102 119.55 25.1802V25.1802ZM89.65 139.25C89.6195 139.786 89.4544 140.305 89.17 140.76C89.24 140.1 89.53 139.73 89.65 139.25ZM114.2 25.3302C114.14 25.3002 114.09 25.2202 114.18 25.0502C114.25 24.9102 114.35 24.7902 114.44 24.7502C114.51 24.7102 114.54 24.8402 114.49 25.0302C114.39 25.3302 114.3 25.3502 114.2 25.3302ZM93.75 119.35C93.79 119.17 93.86 119.03 93.93 119.02C94.04 119.01 94.03 119.21 93.99 119.41C93.96 119.58 93.9 119.74 93.82 119.73C93.73 119.73 93.72 119.56 93.75 119.35V119.35ZM93.54 110.4C93.62 110.1 93.68 109.76 93.88 109.62C93.87 110.1 93.71 110.26 93.54 110.4ZM113.92 26.4902C113.98 26.3702 114.03 26.2202 114.06 26.2002C114.15 26.1502 114.16 26.2902 114.11 26.4502C114.09 26.5302 114.02 26.6502 113.98 26.6602C113.96 26.6902 113.95 26.5702 113.92 26.4902Z" fill="#FD6F2D"/>
<path d="M145.67 63.5301C143.78 71.6401 141.88 79.7501 139.99 87.8601M157.75 96.1201C154.77 96.1901 136.44 95.3901 140.01 88.8701M153.81 19.4201C155.41 18.5001 157.3 18.4601 159.02 19.0101M149.1 71.4901C150 71.4601 150.89 71.4301 151.79 71.3901C153.56 71.3301 155.36 71.2601 157.09 71.6201C159.69 72.1601 162.08 73.6701 163.68 75.7901M149.11 72.1201C148.13 76.6401 147.21 81.1701 146.34 85.7101C146.28 86.0301 146.22 86.3601 146.32 86.6601C146.42 86.9801 146.68 87.2101 146.94 87.4201C150.63 90.4701 156.18 91.05 160.43 88.84M163.85 76.1201C163.65 80.3801 162.78 84.61 161.27 88.59C161.34 88.47 161.3 88.3001 161.19 88.2301M153.63 18.7801C147.41 14.4101 140.09 11.3101 132.49 11.1701C124.89 11.0301 117.03 14.1401 112.49 20.2301C110.27 23.2001 108.92 26.7301 107.76 30.2501C105.97 35.7101 104.6 41.3701 104.58 47.1101C104.56 52.8501 105.99 58.7201 109.39 63.3501C111.42 66.1101 114.07 68.3501 116.69 70.5601C121.08 74.2501 125.46 77.9401 129.85 81.6401C132.86 84.1701 135.92 86.7401 139.49 88.3801" stroke="black" stroke-width="1.5" stroke-miterlimit="10" stroke-linecap="round" stroke-linejoin="round"/>
<path d="M107.91 58.8799C112.12 64.7099 118.38 68.6499 124.49 72.4499C129.85 75.7799 135.2 79.1099 140.56 82.4399C140.83 82.6099 141.2 82.7599 141.42 82.5399C141.64 82.3199 141.04 81.9799 141.09 82.2899M168.41 73.9099C170.42 73.0599 172.35 71.9999 174.15 70.7699C174.82 70.3099 175.5 69.8199 176.3 69.7199C177.56 69.5599 178.85 70.6199 178.94 71.8899M168.44 74.3299C168.15 79.2799 168.01 84.2399 168 89.1899C168 89.8399 168 90.5099 168.26 91.0999C168.52 91.6899 169.1 92.1899 169.75 92.1499C170.68 92.0899 171.18 91.0299 171.42 90.1299C172.81 84.8299 171.94 78.9799 169.08 74.3099" stroke="black" stroke-width="1.5" stroke-miterlimit="10" stroke-linecap="round" stroke-linejoin="round"/>
<path d="M170.58 91.67C173.95 91.13 177.43 89.56 178.97 86.51C179.46 85.54 179.72 84.48 179.9 83.41C180.57 79.42 180.11 75.24 178.59 71.48" stroke="black" stroke-width="1.5" stroke-miterlimit="10" stroke-linecap="round" stroke-linejoin="round"/>
<path d="M172.2 80.7C174.91 80.64 177.35 79.06 179.37 77.25C179.43 77.2 179.51 77.17 179.58 77.12C179.64 77.07 179.68 76.96 179.62 76.91C179.56 76.86 179.45 76.99 179.53 77.01M162.28 20.33C165.5 18.8 168.19 21.09 170.16 23.47M158.04 96.34L159.97 96.55C160.41 96.6 160.85 96.64 161.28 96.56C161.94 96.43 162.5 96 163.04 95.59C164.83 94.21 166.61 92.82 168.4 91.44M159.77 19.11C160.72 19.14 161.68 19.09 162.62 18.97M155.27 17.23C154.72 15.67 154.15 14.02 154.48 12.4C154.69 11.37 155.24 10.45 155.89 9.63C156.24 9.19 156.68 8.75 157.24 8.75C157.54 8.75 157.82 8.88 158.07 9.04C159.52 9.98 160.04 11.95 159.68 13.64C159.32 15.33 158.25 16.78 157.07 18.05" stroke="black" stroke-width="1.5" stroke-miterlimit="10" stroke-linecap="round" stroke-linejoin="round"/>
<path d="M151.97 17.48C151.49 15.98 151.41 14.32 151.99 12.86C152.58 11.4 153.91 10.2 155.47 10.02M162.62 64.13C159.83 49.82 157.83 35.82 161.36 21.37M170.02 23.68C174.63 29.95 176.04 38.01 176.34 45.79C176.64 53.57 175.96 61.4 176.98 69.11M162.58 64.57C162.32 65.77 162.24 67 162.34 68.22C162.36 68.46 162.39 68.71 162.54 68.89C162.75 69.14 163.12 69.18 163.45 69.12C164.72 68.89 165.5 67.4 165.26 66.13C165.02 64.86 164.01 63.84 162.86 63.25M153.38 19.23C151.11 20.56 149.77 23.09 149.23 25.67C148.69 28.24 148.85 30.91 148.92 33.53C149.14 41.53 148.54 49.56 147.13 57.44C146.68 59.96 146.13 62.51 144.92 64.76M30.83 92.98C31.31 91.46 31.78 89.93 32.26 88.41C32.44 87.84 32.62 87.26 32.92 86.74C33.16 86.32 33.47 85.94 33.76 85.55C34.8927 84.009 35.7085 82.2585 36.16 80.4M36.36 79.84C39.5 78.27 43.26 78.63 46.64 79.54C50.02 80.45 53.29 81.88 56.76 82.39C58.94 82.71 61.23 82.67 63.23 83.59M63.61 83.94C63.9 85.09 64.2 86.25 64.17 87.44C64.16 87.84 64.11 88.23 64.09 88.63C63.99 90.31 64.32 92.01 65.05 93.52M37.57 89.28C42.16 89.28 46.34 86.76 50.07 84.09M19.17 94.84C25.42 98.56 32.73 100.06 39.95 100.94C48.14 101.94 56.42 102.22 64.66 101.78M18.81 94.65C17.97 94.22 17.72 93.05 18.08 92.18C18.44 91.31 19.24 90.69 20.08 90.26C23.24 88.62 27.03 88.96 30.57 89.35M65.36 93.18C68.05 93.74 70.6 94.97 72.72 96.71M30.52 93.87C34.44 96.86 39.68 97.31 44.6 97.56C51.47 97.9 58.35 98.04 65.22 97.99" stroke="black" stroke-width="1.5" stroke-miterlimit="10" stroke-linecap="round" stroke-linejoin="round"/>
<path d="M121.19 74.8998C120.42 74.7598 119.65 74.6598 118.87 74.6198C117.9 74.5698 116.87 74.6598 115.99 74.0098C115.86 73.9098 115.62 73.9298 115.44 73.9598C114.02 74.2198 112.61 73.9898 111.22 73.7798C107.86 73.2598 104.5 73.0598 101.11 73.4198C97.76 73.7798 94.62 74.9398 91.58 76.3798C89.82 77.2098 88.08 78.1098 86.28 78.8398C84.64 79.4998 83.15 80.4798 81.56 81.2498C79.57 82.2098 77.86 83.6798 76.04 84.9398C74.78 85.8098 73.63 86.8798 72.64 88.0998C72.55 88.1498 72.53 88.2298 72.56 88.3298C72.66 88.3798 72.66 88.4898 72.57 88.4798H72.55C72.56 88.4598 72.57 88.4398 72.57 88.3998C72.5 88.3398 72.43 88.3398 72.35 88.4198L72.33 88.4398C72.06 89.0498 71.62 89.4798 71.06 89.7798C69.71 90.8898 68.89 92.4298 67.94 93.8698C67.68 94.2498 67.56 94.7298 67.21 95.0398L67.22 95.0298C67.17 95.3998 66.72 95.8798 67.46 96.0298C67.56 95.9898 67.61 95.9298 67.62 95.8298C67.65 95.9198 67.62 95.9998 67.54 96.0398C67.27 96.4998 66.84 95.9698 66.52 96.2098C66.26 96.3498 66.12 96.5798 65.98 96.8598C64.79 99.3098 63.42 101.67 62.56 104.28C62 105.83 61.28 107.29 60.89 108.96C59.52 114.87 58.78 120.86 58.43 126.9C58.37 127.92 58.22 129.01 58.4 130C59 133.4 58.54 136.99 59.93 140.25L59.92 140.23C60.12 141.76 60.45 143.24 61.18 144.59C61.4 145.22 61.57 145.87 61.85 146.48L61.83 146.45C61.82 146.64 61.91 146.75 62.08 146.8C62.07 146.98 62.17 147.09 62.31 147.16C62.61 148.26 63.19 149.21 63.75 150.18C66.4 154.7 69.5 158.8 73.56 162C74.74 163.02 75.74 164.29 77.24 164.86L77.23 164.85C78.24 165.92 79.33 166.86 80.7 167.4C80.95 167.5 81.21 167.67 81.37 167.92C81.92 168.75 82.73 169.06 83.63 169.2L83.64 169.19C84.25 169.71 84.82 170.29 85.53 170.67C88.66 172.35 91.93 173.64 95.36 174.48V174.47C96.73 174.54 97.97 175.2 99.35 175.31C102.86 175.57 106.33 176.25 109.89 176.04C112.5 175.89 115.11 175.83 117.61 174.85L117.6 174.86C119.56 174.72 121.34 173.83 123.22 173.35L123.21 173.36C124.51 173.18 125.58 172.32 126.82 171.94L126.81 171.95C128.18 171.97 129.17 170.87 130.42 170.53L130.41 170.54C132.15 169.95 133.67 168.91 135.28 168.04L135.26 168.06C135.44 168.06 135.55 167.97 135.59 167.79C135.76 167.79 135.86 167.7 135.92 167.53L135.97 167.6L135.93 167.53C136.71 167.54 137.2 166.96 137.77 166.53L137.75 166.55C137.91 166.52 138.02 166.43 138.08 166.27C139.65 165.25 141.18 164.19 142.24 162.53C142.38 162.49 142.49 162.4 142.56 162.26C142.7 162.22 142.81 162.13 142.88 161.99C143.02 161.95 143.13 161.86 143.2 161.72C143.77 161.59 144.03 161.16 144.15 160.6L144.2 160.66L144.15 160.59C145.69 159.28 146.75 157.56 147.84 155.86L147.83 155.87C149.11 154.11 150.3 152.29 151.11 150.23C151.83 149.95 151.74 149.15 151.97 148.61C153.1 145.9 154.2 143.19 154.77 140.24C155.11 138.49 155.16 136.7 155.66 134.99C155.89 134.85 155.9 134.59 155.92 134.35C156.45 129.68 157.08 125.01 157.43 120.33C157.54 118.88 157.61 117.38 157.54 115.89C157.43 113.4 156.84 111.01 156.54 108.56C156.46 107.88 156.53 107.16 155.99 106.64C155.67 105.47 155.4 104.28 155.02 103.13C153.78 99.3598 152.5 95.6198 150.34 92.2798C148.91 90.0698 147.45 87.9198 145.61 86.0598C143.37 83.8098 140.84 81.9898 138.1 80.5098C135.94 79.3398 133.7 78.3898 131.41 77.5998L121.19 74.8998V74.8998ZM126.13 87.1598C129.65 88.0798 133.12 89.1998 136.28 91.2498C139.52 93.3598 141.83 96.1898 143.51 99.7798C145.75 104.54 146.87 109.59 147.57 114.8C147.64 115.32 147.5 115.88 147.47 116.42C147.38 117.91 146.9 119.39 147.34 120.9C147.42 121.16 147.33 121.51 147.26 121.8C146.59 124.49 146.81 127.27 146.35 129.98C145.88 132.72 145.34 135.44 144.96 138.2C144.66 140.36 143.89 142.49 142.87 144.43C141.41 147.2 139.92 149.96 138.02 152.44C137.11 153.63 136 154.55 134.92 155.55C131.8 158.46 128.08 160.15 124.27 161.66C120.18 163.28 116 164.64 111.66 165.22C109.71 165.48 107.77 165.79 105.76 165.29C104.59 165 103.28 165.06 102.03 164.97C98.13 164.69 94.49 163.5 91.02 161.68C89 160.62 87.07 159.4 85.15 158.16C82.25 156.29 79.41 154.35 76.85 151.99C73.33 148.74 70.45 144.97 68.71 140.35C67.9 138.21 67.59 135.91 67.28 133.63C66.91 130.93 66.61 128.22 66.95 125.48C67.2 123.44 67.41 121.39 67.65 119.34C67.84 117.66 68.07 115.97 68.21 114.28C68.48 111.1 69.4 108.1 70.6 105.18C72.14 101.44 73.88 97.7898 76.65 94.8398C78 93.3998 79.12 91.6498 81.01 90.8398C81.42 90.6598 81.75 90.2698 82.11 89.9698C83.09 89.1498 84.1 88.7398 85.38 89.2398C86.24 89.5798 87.11 89.3198 88.03 89.0198C92.65 87.5298 97 85.1098 101.83 84.3098C103.17 84.0898 104.5 83.8298 105.86 83.9898C107.8 84.2198 109.73 84.4998 111.68 84.6298C112.35 84.6798 113.02 84.7298 113.69 84.7998L126.13 87.1598V87.1598ZM115.64 85.0298C118.29 85.3698 120.91 85.8698 123.49 86.4998C123.8 86.5798 124.11 86.6498 124.43 86.7298L115.64 85.0298V85.0298ZM129.75 77.0398C128.27 76.5798 126.78 76.1798 125.28 75.8298C124.55 75.6598 123.82 75.4698 123.08 75.2998" fill="black"/>
<path d="M129.75 77.0398C128.27 76.5798 126.78 76.1798 125.28 75.8298C124.55 75.6598 123.82 75.4698 123.08 75.2998M121.19 74.8998C120.42 74.7598 119.65 74.6598 118.87 74.6198C117.9 74.5698 116.87 74.6598 115.99 74.0098C115.86 73.9098 115.62 73.9298 115.44 73.9598C114.02 74.2198 112.61 73.9898 111.22 73.7798C107.86 73.2598 104.5 73.0598 101.11 73.4198C97.76 73.7798 94.62 74.9398 91.58 76.3798C89.82 77.2098 88.08 78.1098 86.28 78.8398C84.64 79.4998 83.15 80.4798 81.56 81.2498C79.57 82.2098 77.86 83.6798 76.04 84.9398C74.78 85.8098 73.63 86.8798 72.64 88.0998C72.55 88.1498 72.53 88.2298 72.56 88.3298C72.66 88.3798 72.66 88.4898 72.57 88.4798H72.55C72.56 88.4598 72.57 88.4398 72.57 88.3998C72.5 88.3398 72.43 88.3398 72.35 88.4198L72.33 88.4398C72.06 89.0498 71.62 89.4798 71.06 89.7798C69.71 90.8898 68.89 92.4298 67.94 93.8698C67.68 94.2498 67.56 94.7298 67.21 95.0398L67.22 95.0298C67.17 95.3998 66.72 95.8798 67.46 96.0298C67.56 95.9898 67.61 95.9298 67.62 95.8298C67.65 95.9198 67.62 95.9998 67.54 96.0398C67.27 96.4998 66.84 95.9698 66.52 96.2098C66.26 96.3498 66.12 96.5798 65.98 96.8598C64.79 99.3098 63.42 101.67 62.56 104.28C62 105.83 61.28 107.29 60.89 108.96C59.52 114.87 58.78 120.86 58.43 126.9C58.37 127.92 58.22 129.01 58.4 130C59 133.4 58.54 136.99 59.93 140.25L59.92 140.23C60.12 141.76 60.45 143.24 61.18 144.59C61.4 145.22 61.57 145.87 61.85 146.48L61.83 146.45C61.82 146.64 61.91 146.75 62.08 146.8C62.07 146.98 62.17 147.09 62.31 147.16C62.61 148.26 63.19 149.21 63.75 150.18C66.4 154.7 69.5 158.8 73.56 162C74.74 163.02 75.74 164.29 77.24 164.86L77.23 164.85C78.24 165.92 79.33 166.86 80.7 167.4C80.95 167.5 81.21 167.67 81.37 167.92C81.92 168.75 82.73 169.06 83.63 169.2L83.64 169.19C84.25 169.71 84.82 170.29 85.53 170.67C88.66 172.35 91.93 173.64 95.36 174.48V174.47C96.73 174.54 97.97 175.2 99.35 175.31C102.86 175.57 106.33 176.25 109.89 176.04C112.5 175.89 115.11 175.83 117.61 174.85L117.6 174.86C119.56 174.72 121.34 173.83 123.22 173.35L123.21 173.36C124.51 173.18 125.58 172.32 126.82 171.94L126.81 171.95C128.18 171.97 129.17 170.87 130.42 170.53L130.41 170.54C132.15 169.95 133.67 168.91 135.28 168.04L135.26 168.06C135.44 168.06 135.55 167.97 135.59 167.79C135.76 167.79 135.86 167.7 135.92 167.53L135.97 167.6L135.93 167.53C136.71 167.54 137.2 166.96 137.77 166.53L137.75 166.55C137.91 166.52 138.02 166.43 138.08 166.27C139.65 165.25 141.18 164.19 142.24 162.53C142.38 162.49 142.49 162.4 142.56 162.26C142.7 162.22 142.81 162.13 142.88 161.99C143.02 161.95 143.13 161.86 143.2 161.72C143.77 161.59 144.03 161.16 144.15 160.6L144.2 160.66L144.15 160.59C145.69 159.28 146.75 157.56 147.84 155.86L147.83 155.87C149.11 154.11 150.3 152.29 151.11 150.23C151.83 149.95 151.74 149.15 151.97 148.61C153.1 145.9 154.2 143.19 154.77 140.24C155.11 138.49 155.16 136.7 155.66 134.99C155.89 134.85 155.9 134.59 155.92 134.35C156.45 129.68 157.08 125.01 157.43 120.33C157.54 118.88 157.61 117.38 157.54 115.89C157.43 113.4 156.84 111.01 156.54 108.56C156.46 107.88 156.53 107.16 155.99 106.64C155.67 105.47 155.4 104.28 155.02 103.13C153.78 99.3598 152.5 95.6198 150.34 92.2798C148.91 90.0698 147.45 87.9198 145.61 86.0598C143.37 83.8098 140.84 81.9898 138.1 80.5098C135.94 79.3398 133.7 78.3898 131.41 77.5998L121.19 74.8998V74.8998ZM134.69 89.2998C138.21 90.2198 141.68 91.3398 144.84 93.3898C148.08 95.4998 150.39 98.3298 152.07 101.92C154.31 106.68 155.43 111.73 156.13 116.94C156.2 117.46 156.06 118.02 156.03 118.56C155.94 120.05 155.46 121.53 155.9 123.04C155.98 123.3 155.89 123.65 155.82 123.94C155.15 126.63 155.37 129.41 154.91 132.12C154.44 134.86 153.9 137.58 153.52 140.34C153.22 142.5 152.45 144.63 151.43 146.57C149.97 149.34 148.48 152.1 146.58 154.58C145.67 155.77 144.56 156.69 143.48 157.69C140.36 160.6 136.64 162.29 132.83 163.8C128.74 165.42 124.56 166.78 120.22 167.36C118.27 167.62 116.33 167.93 114.32 167.43C113.15 167.14 111.84 167.2 110.59 167.11C106.69 166.83 103.05 165.64 99.58 163.82C97.56 162.76 95.63 161.54 93.71 160.3C90.81 158.43 87.97 156.49 85.41 154.13C81.89 150.88 79.01 147.11 77.27 142.49C76.46 140.35 76.15 138.05 75.84 135.77C75.47 133.07 75.17 130.36 75.51 127.62C75.76 125.58 75.97 123.53 76.21 121.48C76.4 119.8 76.63 118.11 76.77 116.42C77.04 113.24 77.96 110.24 79.16 107.32C80.7 103.58 82.44 99.9298 85.21 96.9798C86.56 95.5398 87.68 93.7898 89.57 92.9798C89.98 92.7998 90.31 92.4098 90.67 92.1098C91.65 91.2898 92.66 90.8798 93.94 91.3798C94.8 91.7198 95.67 91.4598 96.59 91.1598C101.21 89.6698 105.56 87.2498 110.39 86.4498C111.73 86.2298 113.06 85.9698 114.42 86.1298C116.36 86.3598 118.29 86.6398 120.24 86.7698C120.91 86.8198 121.58 86.8698 122.25 86.9398L134.69 89.2998V89.2998ZM124.2 87.1698C126.85 87.5098 129.47 88.0098 132.05 88.6398C132.36 88.7198 132.67 88.7898 132.99 88.8698L124.2 87.1698V87.1698Z" stroke="#1D1D1B" stroke-width="1.5" stroke-miterlimit="10"/>
<path d="M105.76 121.45C102.02 112.09 97.75 102.95 92.97 94.0801M102.46 124.19C93.1527 122.119 83.9601 119.562 74.92 116.53M77.4 143.07C86.27 139.51 94.93 135.43 103.33 130.85M101.71 158.48C105.76 150.44 105.76 142.84 107.74 132.42M130.84 155.16C128.27 149.46 125.7 143.77 123.13 138.07M115.86 125.63C119.72 123.07 124.15 121.39 128.74 120.74C132.91 120.15 137.29 120.4 141.18 118.77M117.1 110.02C118.49 107.69 124.96 95.8201 127.14 94.2001M111.31 133.83C115.39 141.33 118.66 149.28 121.03 157.49M24.52 141.89C23.36 148.08 21.1 154.18 17.11 159.04M25.91 123.08C25.8 129.37 25.68 135.7 24.52 141.89" stroke="black" stroke-width="1.5" stroke-miterlimit="10" stroke-linecap="round" stroke-linejoin="round"/>
<path d="M17.03 149.61C14.19 148.92 10.83 149.09 8.85 151.24C7.76 152.43 7.27 154.05 6.98 155.64C6.55 158 6.54 160.6 7.88 162.6C8.62 163.7 9.71 164.52 10.78 165.31C11.79 166.06 12.81 166.82 13.99 167.24C16.59 168.18 19.64 167.3 21.67 165.42C23.71 163.54 24.81 160.82 25.16 158.07C25.4 156.18 25.3 154.18 24.45 152.47C23.6 150.76 21.91 149.39 20 149.31" stroke="black" stroke-width="1.5" stroke-miterlimit="10" stroke-linecap="round" stroke-linejoin="round"/>
<defs>
<linearGradient id="paint0_linear_1230_3823" x1="69.9594" y1="102.63" x2="69.9594" y2="144.95" gradientUnits="userSpaceOnUse">
<stop stop-color="#FC6622"/>
<stop offset="1" stop-color="#FA5D15"/>
</linearGradient>
<linearGradient id="paint1_linear_1230_3823" x1="117" y1="-2" x2="117" y2="164" gradientUnits="userSpaceOnUse">
<stop offset="0.244792" stop-color="#FE7332"/>
<stop offset="1" stop-color="#F8570E"/>
</linearGradient>
</defs>
</svg>
