<svg width="294" height="49" viewBox="0 0 294 49" fill="none" xmlns="http://www.w3.org/2000/svg">
<g clip-path="url(#clip0_2030_3110)">
<path d="M267.615 0H26.3846C11.8128 0 0 10.969 0 24.5C0 38.031 11.8128 49 26.3846 49H267.615C282.187 49 294 38.031 294 24.5C294 10.969 282.187 0 267.615 0Z" fill="white"/>
<path d="M127.359 23.919C127.359 27.693 129.96 30.192 133.428 30.192C136.437 30.192 138.817 28.407 139.276 25.466H136.624C136.267 26.979 135.043 27.829 133.428 27.829C131.218 27.829 129.977 26.299 129.977 23.919C129.977 21.539 131.218 20.009 133.428 20.009C135.043 20.009 136.267 20.859 136.624 22.372H139.276C138.817 19.431 136.437 17.646 133.428 17.646C129.96 17.646 127.359 20.145 127.359 23.919ZM146.839 21.063V22.151C146.278 21.335 145.275 20.859 144.017 20.859C141.433 20.859 139.92 22.933 139.92 25.517C139.92 28.101 141.433 30.175 144.017 30.175C145.275 30.175 146.278 29.699 146.839 28.883V29.971H149.066V21.063H146.839ZM146.72 25.517C146.72 26.962 145.87 28.05 144.527 28.05C143.184 28.05 142.334 26.962 142.334 25.517C142.334 24.072 143.184 22.984 144.527 22.984C145.87 22.984 146.72 24.072 146.72 25.517ZM155.804 20.995C155.804 20.995 155.6 20.978 155.515 20.978C154.002 20.978 153.322 21.692 152.999 22.219V21.063H150.772V29.971H153.186V25.534C153.186 23.902 153.917 23.205 155.328 23.205C155.549 23.205 155.804 23.256 155.804 23.256V20.995ZM162.403 22.015C161.944 21.403 161.026 20.859 159.768 20.859C157.184 20.859 155.671 22.933 155.671 25.517C155.671 28.101 157.184 30.175 159.768 30.175C161.026 30.175 162.029 29.699 162.59 28.883V29.971H164.817V17.221H162.403V22.015ZM162.471 25.517C162.471 26.962 161.621 28.05 160.278 28.05C158.935 28.05 158.085 26.962 158.085 25.517C158.085 24.072 158.935 22.984 160.278 22.984C161.621 22.984 162.471 24.072 162.471 25.517ZM169.685 30.175C172.099 30.175 173.459 28.917 173.459 27.319C173.459 23.664 168.529 25.16 168.529 23.664C168.529 23.171 168.971 22.797 169.753 22.797C170.62 22.797 171.045 23.307 171.096 23.868H173.425C173.357 22.559 172.439 20.859 169.77 20.859C167.577 20.859 166.2 22.185 166.2 23.8C166.2 27.336 171.147 25.925 171.147 27.421C171.147 27.914 170.671 28.237 169.753 28.237C168.75 28.237 168.308 27.676 168.274 27.081H165.826C165.945 28.747 166.897 30.175 169.685 30.175ZM181.21 21.063V20.298C181.21 19.55 181.584 19.312 182.162 19.312C182.434 19.312 182.536 19.329 182.536 19.329V17.255C182.536 17.255 182.247 17.221 181.822 17.221C180.02 17.221 178.796 18.207 178.796 20.349V21.063H177.521V22.967H178.796V29.971H181.21V22.967H182.587V21.063H181.21ZM187.432 30.175C190.288 30.175 192.107 28.05 192.107 25.517C192.107 22.984 190.288 20.859 187.432 20.859C184.576 20.859 182.757 22.984 182.757 25.517C182.757 28.05 184.576 30.175 187.432 30.175ZM185.171 25.517C185.171 23.919 186.157 22.984 187.432 22.984C188.707 22.984 189.693 23.919 189.693 25.517C189.693 27.115 188.707 28.05 187.432 28.05C186.157 28.05 185.171 27.115 185.171 25.517ZM198.293 20.995C198.293 20.995 198.089 20.978 198.004 20.978C196.491 20.978 195.811 21.692 195.488 22.219V21.063H193.261V29.971H195.675V25.534C195.675 23.902 196.406 23.205 197.817 23.205C198.038 23.205 198.293 23.256 198.293 23.256V20.995ZM213.202 17.901H210.72V22.712H205.671V17.901H203.189V29.971H205.671V24.99H210.72V29.971H213.202V17.901ZM219.047 30.175C221.648 30.175 223.093 29.053 223.093 26.163V21.063H220.679V26.197C220.679 27.438 220.118 28.016 219.047 28.016C217.976 28.016 217.415 27.438 217.415 26.197V21.063H215.001V26.163C215.001 29.053 216.446 30.175 219.047 30.175ZM232.703 24.905C232.703 23.664 233.298 22.933 234.437 22.933C235.508 22.933 235.865 23.698 235.865 24.684V29.971H238.279V24.412C238.279 22.338 237.191 20.859 235.049 20.859C233.774 20.859 232.873 21.25 232.091 22.117C231.581 21.335 230.714 20.859 229.507 20.859C228.232 20.859 227.348 21.386 226.94 22.151V21.063H224.713V29.971H227.127V24.854C227.127 23.664 227.739 22.933 228.861 22.933C229.932 22.933 230.289 23.698 230.289 24.684V29.971H232.703V24.905ZM246.259 21.063V22.151C245.698 21.335 244.695 20.859 243.437 20.859C240.853 20.859 239.34 22.933 239.34 25.517C239.34 28.101 240.853 30.175 243.437 30.175C244.695 30.175 245.698 29.699 246.259 28.883V29.971H248.486V21.063H246.259ZM246.14 25.517C246.14 26.962 245.29 28.05 243.947 28.05C242.604 28.05 241.754 26.962 241.754 25.517C241.754 24.072 242.604 22.984 243.947 22.984C245.29 22.984 246.14 24.072 246.14 25.517ZM252.419 21.063H250.192V29.971H252.606V24.871C252.606 23.681 253.252 22.933 254.425 22.933C255.496 22.933 255.938 23.647 255.938 24.684V29.971H258.352V24.412C258.352 22.287 257.213 20.859 255.071 20.859C253.745 20.859 252.827 21.386 252.419 22.151V21.063ZM261.192 19.907C262.042 19.907 262.654 19.312 262.654 18.462C262.654 17.612 262.042 17 261.192 17C260.342 17 259.73 17.612 259.73 18.462C259.73 19.312 260.342 19.907 261.192 19.907ZM259.985 29.971H262.399V21.063H259.985V29.971ZM266.837 22.967H268.146V21.063H266.837V18.853H264.423V21.063H263.216V22.967H264.423V29.971H266.837V22.967ZM269.831 33.507H272.211L277.192 21.063H274.676L272.517 27.013L270.375 21.063H267.808L271.327 29.818L269.831 33.507Z" fill="black"/>
<path d="M19.5862 18.6427V20.0389H18V21.8595H19.5862V29.1785C19.5862 29.7338 20.1609 30.1787 20.8834 30.1787C21.606 30.1787 22.1943 29.7372 22.1943 29.1819V21.863H24.3028V20.0423H22.1943V18.6427C22.1943 16.9586 23.5143 16.648 25.3212 17.0496V15.229C22.7769 14.6612 19.5862 14.9252 19.5862 18.6427ZM27.7108 21.863H27.6562V20.0423H25.5454V29.1842C25.5454 29.7395 26.1144 30.1844 26.8426 30.1844C27.5709 30.1844 28.1501 29.7395 28.1501 29.1842V24.5814C28.1501 22.4103 29.5645 21.8584 31.277 21.8584V19.8102C29.7283 19.8022 28.2775 20.3131 27.7108 21.863ZM45.94 19.8147C43.4252 19.8147 41.3884 21.0607 41.3884 23.5095C41.3884 24.8135 41.9676 25.7762 42.8904 26.3918C42.8221 26.4362 42.7561 26.4817 42.6913 26.5295C41.5477 27.3749 41.4248 28.8326 42.4728 29.628C41.9596 30.0831 41.2325 30.8979 41.2325 32.0335C41.2325 33.8359 42.9166 35 45.9388 35C48.9611 35 51.2688 33.5833 51.2688 31.402C51.2688 29.2206 49.7531 28.3638 46.988 28.3638H45.1799C43.9134 28.3638 44.0215 27.4887 44.4391 27.1121C44.4607 27.0927 44.4835 27.0745 44.5085 27.0552C44.9791 27.1541 45.4591 27.2022 45.94 27.1986C48.4559 27.1986 50.4916 25.9469 50.4916 23.5061C50.4973 23.0007 50.3977 22.4996 50.1991 22.0348C50.5843 21.9294 50.981 21.8725 51.3803 21.8652V20.0446C50.2617 20.0446 49.5403 20.1197 48.7756 20.4918C48.0007 20.0355 47.0142 19.809 45.94 19.809V19.8147ZM44.5574 30.1878H46.9857C47.9825 30.1878 48.6618 30.4973 48.6618 31.402C48.6618 32.6172 47.6195 33.1771 45.9309 33.1771C43.3387 33.1714 43.4935 31.0412 44.5574 30.1821V30.1878ZM45.94 25.3779C44.8647 25.3779 43.9908 24.9603 43.9908 23.5084C43.9908 22.0564 44.8647 21.6388 45.94 21.6388C47.0153 21.6388 47.8903 22.0553 47.8903 23.5084C47.8903 24.9615 47.0176 25.3779 45.94 25.3779ZM36.0095 19.809C33.183 19.809 31.4579 21.558 31.4579 24.9956C31.4579 28.4332 33.1853 30.1821 36.0095 30.1821C38.8338 30.1821 40.5611 28.4332 40.5611 24.9956C40.5611 21.558 38.8372 19.809 36.0095 19.809ZM36.0095 28.3581C34.9331 28.3581 34.0603 27.9211 34.0603 24.9956C34.0603 22.0701 34.9388 21.6354 36.0095 21.6354C37.0803 21.6354 37.9588 22.0712 37.9588 24.9956C37.9588 27.92 37.086 28.3581 36.0095 28.3581Z" fill="black"/>
<path d="M56.9153 20.3198C57.4137 20.3198 57.7968 20.4146 58.0646 20.6043C58.1976 20.7 58.3043 20.8278 58.3745 20.9758C58.4448 21.1239 58.4763 21.2873 58.4663 21.4509C58.4705 21.6327 58.4315 21.8128 58.3525 21.9766C58.2804 22.1207 58.1707 22.2425 58.035 22.3294C57.881 22.4264 57.7099 22.4932 57.5309 22.5262C57.3102 22.5693 57.0856 22.5899 56.8607 22.5877H56.4659V23.9042H55.9697V20.4063C56.1234 20.3701 56.2798 20.3473 56.4374 20.338C56.6138 20.3255 56.7719 20.3198 56.9153 20.3198ZM56.9563 20.7545C56.7446 20.7545 56.5819 20.7602 56.4693 20.7704V22.1632H56.8436C56.996 22.164 57.1482 22.1529 57.2988 22.1302C57.4182 22.1121 57.5337 22.0736 57.6402 22.0164C57.732 21.9655 57.8077 21.8898 57.8586 21.798C57.9136 21.6887 57.9398 21.5674 57.9349 21.4452C57.94 21.3264 57.9129 21.2084 57.8564 21.1038C57.8035 21.0157 57.7291 20.9425 57.6402 20.891C57.5432 20.8345 57.4368 20.796 57.3261 20.7773C57.2037 20.7595 57.08 20.7519 56.9563 20.7545Z" fill="black"/>
<path d="M59.767 21.1743C59.9314 21.17 60.0953 21.1954 60.2506 21.2494C60.3722 21.2918 60.4813 21.3637 60.5681 21.4588C60.6497 21.5517 60.7085 21.6623 60.7399 21.7819C60.7754 21.9163 60.7926 22.0549 60.7911 22.1939V23.8575L60.6193 23.8859C60.5465 23.8984 60.4634 23.9087 60.3713 23.9189C60.2791 23.9291 60.179 23.9394 60.072 23.9474C59.965 23.9553 59.8581 23.9599 59.7522 23.9599C59.6125 23.9613 59.4731 23.946 59.3369 23.9144C59.2193 23.8873 59.108 23.8379 59.0092 23.7687C58.9161 23.7006 58.842 23.6097 58.7941 23.5047C58.7401 23.3803 58.7141 23.2455 58.7179 23.1099C58.7145 22.978 58.745 22.8475 58.8067 22.7309C58.8656 22.6269 58.9492 22.539 59.0502 22.4749C59.1605 22.4069 59.2818 22.3583 59.4086 22.3315C59.5498 22.3005 59.6941 22.2852 59.8387 22.286C59.8885 22.2859 59.9383 22.2886 59.9878 22.294C60.0367 22.2983 60.0853 22.3051 60.1334 22.3145L60.2541 22.3372L60.3257 22.352V22.2189C60.3253 22.1423 60.3165 22.066 60.2996 21.9913C60.284 21.9172 60.2525 21.8473 60.2074 21.7865C60.1601 21.7238 60.0974 21.6744 60.0253 21.6431C59.9308 21.6032 59.8286 21.5845 59.7261 21.5885C59.588 21.5868 59.4501 21.5983 59.3142 21.6226C59.2243 21.6373 59.1359 21.6601 59.0502 21.6909L58.9944 21.2972C59.0937 21.2599 59.1967 21.2332 59.3016 21.2175C59.4552 21.1897 59.6109 21.1752 59.767 21.1743ZM59.808 23.5639C59.9218 23.5639 60.0208 23.5639 60.1073 23.5571C60.1807 23.5535 60.2538 23.544 60.3257 23.5286V22.7321C60.2722 22.7101 60.2159 22.6956 60.1585 22.6888C60.0661 22.676 59.9729 22.6699 59.8797 22.6706C59.8036 22.6711 59.7276 22.6764 59.6521 22.6866C59.5756 22.6959 59.5011 22.7174 59.4314 22.7503C59.3669 22.7819 59.3102 22.8274 59.2652 22.8834C59.2176 22.9494 59.1942 23.0298 59.1992 23.111C59.192 23.1796 59.2034 23.2489 59.2322 23.3116C59.261 23.3743 59.3063 23.428 59.3631 23.4672C59.5006 23.5366 59.6543 23.5676 59.808 23.5571V23.5639Z" fill="black"/>
<path d="M62.5117 21.1847C62.5527 21.1847 62.5993 21.1847 62.6528 21.1926C62.7063 21.2006 62.7575 21.2051 62.8087 21.2131L62.9498 21.2393C62.9817 21.2449 63.0133 21.2525 63.0442 21.262L62.9623 21.6762C62.901 21.657 62.8387 21.641 62.7757 21.6284C62.6651 21.6072 62.5526 21.5977 62.44 21.6C62.3513 21.5998 62.2627 21.6094 62.176 21.6284L62.0053 21.666V23.9042H61.5286V21.3542C61.6657 21.3066 61.806 21.2686 61.9484 21.2404C62.1337 21.2018 62.3225 21.1831 62.5117 21.1847Z" fill="black"/>
<path d="M63.8998 21.242H64.908V21.6414H63.8998V22.8749C63.8976 22.9857 63.9079 23.0964 63.9305 23.2048C63.9444 23.2795 63.976 23.3497 64.0227 23.4097C64.0627 23.4587 64.116 23.4951 64.1763 23.5144C64.2459 23.536 64.3185 23.5464 64.3913 23.5451C64.507 23.5485 64.6224 23.5324 64.7327 23.4973L64.9148 23.4279L65.0069 23.8216C64.926 23.8581 64.8423 23.8882 64.7566 23.9115C64.6234 23.9493 64.4854 23.9673 64.347 23.965C64.1946 23.9697 64.0427 23.9466 63.8986 23.8967C63.7866 23.8545 63.6882 23.7825 63.6142 23.6885C63.5386 23.5876 63.4868 23.4708 63.4628 23.3471C63.4323 23.1927 63.4178 23.0356 63.4196 22.8783V20.4989L63.8964 20.417L63.8998 21.242Z" fill="black"/>
<path d="M68.9431 22.5733C68.9453 22.7668 68.9141 22.9593 68.8509 23.1422C68.7943 23.3044 68.7065 23.454 68.5926 23.5826C68.4821 23.7047 68.3467 23.8017 68.1955 23.8671C67.8739 23.9991 67.5133 23.9991 67.1918 23.8671C67.0406 23.8017 66.9052 23.7047 66.7947 23.5826C66.6808 23.454 66.593 23.3044 66.5364 23.1422C66.4133 22.7706 66.4133 22.3692 66.5364 21.9975C66.5936 21.836 66.6817 21.6872 66.7958 21.5594C66.9063 21.4373 67.0418 21.3403 67.193 21.2749C67.352 21.2088 67.5225 21.1748 67.6948 21.1748C67.867 21.1748 68.0376 21.2088 68.1966 21.2749C68.3478 21.3403 68.4832 21.4373 68.5937 21.5594C68.7079 21.6887 68.7957 21.8391 68.852 22.0021C68.9149 22.1858 68.9457 22.3791 68.9431 22.5733ZM68.4458 22.5733C68.4594 22.3194 68.3886 22.0681 68.2444 21.8587C68.1782 21.7763 68.0943 21.7098 67.999 21.6642C67.9037 21.6185 67.7993 21.5948 67.6936 21.5948C67.588 21.5948 67.4836 21.6185 67.3883 21.6642C67.293 21.7098 67.2091 21.7763 67.1429 21.8587C66.9987 22.0681 66.9279 22.3194 66.9415 22.5733C66.9279 22.8272 66.9987 23.0785 67.1429 23.2879C67.2094 23.3699 67.2933 23.436 67.3886 23.4814C67.4839 23.5269 67.5881 23.5504 67.6936 23.5504C67.7992 23.5504 67.9034 23.5269 67.9987 23.4814C68.094 23.436 68.1779 23.3699 68.2444 23.2879C68.3886 23.0785 68.4594 22.8272 68.4458 22.5733Z" fill="black"/>
<path d="M70.602 19.9308C70.7229 19.9291 70.8437 19.9394 70.9627 19.9616C71.0351 19.9741 71.1062 19.9927 71.1755 20.0173L71.0878 20.427C71.0324 20.4022 70.9744 20.3835 70.9149 20.3712C70.8238 20.3504 70.7306 20.3409 70.6372 20.3428C70.4153 20.3428 70.2606 20.4031 70.1718 20.5248C70.0763 20.6691 70.0296 20.8402 70.0387 21.013V21.2406H71.0628V21.64H70.0387V23.9044H69.5619V21.0005C69.5425 20.7128 69.6323 20.4284 69.8134 20.2039C69.981 20.0226 70.2439 19.9316 70.602 19.9308Z" fill="black"/>
<path d="M57.5344 30.2391C57.2899 30.2429 57.0468 30.2012 56.8175 30.1162C56.6129 30.0393 56.4291 29.9158 56.2804 29.7555C56.1269 29.5879 56.0106 29.3897 55.9391 29.174C55.8579 28.9192 55.8195 28.6528 55.8253 28.3855C55.8203 28.1163 55.8667 27.8487 55.9618 27.5969C56.0443 27.38 56.1706 27.1825 56.3328 27.0166C56.4891 26.8577 56.6777 26.7343 56.8858 26.6547C57.1037 26.5715 57.3353 26.5298 57.5685 26.5318C57.7024 26.5307 57.8362 26.5421 57.9679 26.566C58.0736 26.5844 58.1781 26.6091 58.2809 26.6399C58.3566 26.6619 58.4301 26.6909 58.5005 26.7264L58.6234 26.7935L58.4345 27.3204C58.3241 27.2576 58.2064 27.2086 58.084 27.1747C57.9233 27.1277 57.7565 27.1043 57.589 27.1053C57.4419 27.1045 57.296 27.1315 57.1589 27.185C57.0288 27.2378 56.9122 27.3191 56.8175 27.4228C56.7148 27.5387 56.6373 27.6747 56.5899 27.8222C56.5323 28.0027 56.5046 28.1914 56.508 28.3809C56.5065 28.5552 56.528 28.7288 56.5717 28.8975C56.6101 29.0451 56.6774 29.1835 56.7697 29.3049C56.8598 29.4205 56.9771 29.512 57.1111 29.5711C57.2661 29.6382 57.4339 29.6704 57.6027 29.6656C57.7909 29.6708 57.9788 29.6478 58.1602 29.5973C58.2746 29.5625 58.3861 29.5187 58.4937 29.4665L58.6678 29.9933C58.615 30.0264 58.559 30.0539 58.5005 30.0752C58.4194 30.1066 58.3366 30.1332 58.2524 30.1549C58.1467 30.183 58.0391 30.2036 57.9304 30.2163C57.7991 30.2329 57.6668 30.2405 57.5344 30.2391Z" fill="black"/>
<path d="M60.0822 27.4185C60.2579 27.4138 60.4331 27.4396 60.5999 27.4948C60.7254 27.5352 60.8386 27.607 60.9286 27.7034C61.0186 27.7998 61.0825 27.9175 61.1143 28.0455C61.1515 28.1866 61.1695 28.332 61.1677 28.4779V30.1017C61.0722 30.1222 60.9276 30.1472 60.7353 30.1756C60.519 30.2064 60.3007 30.2209 60.0822 30.2189C59.9342 30.2204 59.7864 30.2051 59.6418 30.1734C59.5191 30.1475 59.4029 30.0967 59.3005 30.0243C59.2058 29.9553 59.1299 29.8638 59.0797 29.758C59.0237 29.6309 58.9969 29.4929 59.0012 29.3541C58.9969 29.2189 59.0274 29.0849 59.0899 28.9649C59.1488 28.8602 59.2324 28.7716 59.3335 28.7066C59.4421 28.6368 59.5629 28.5882 59.6896 28.5632C59.8283 28.5332 59.9699 28.5183 60.1118 28.5189C60.1837 28.5191 60.2555 28.5237 60.3268 28.5325C60.4081 28.5417 60.4887 28.5562 60.5681 28.5758V28.4733C60.5683 28.4042 60.5595 28.3354 60.5419 28.2685C60.5262 28.203 60.4943 28.1424 60.4492 28.0923C60.4041 28.0422 60.3472 28.0042 60.2836 27.9818C60.1988 27.9521 60.1094 27.9382 60.0196 27.9408C59.8877 27.9399 59.756 27.9502 59.6259 27.9715C59.5265 27.9869 59.4287 28.0109 59.3335 28.0432L59.2572 27.5414C59.3689 27.5059 59.483 27.4785 59.5986 27.4595C59.7582 27.4313 59.9201 27.4176 60.0822 27.4185ZM60.1334 29.7273C60.2793 29.7308 60.4252 29.7206 60.5692 29.6966V29.0138C60.5202 29.0005 60.4704 28.9902 60.4201 28.9831C60.3489 28.9726 60.277 28.9677 60.2051 28.9683C60.1358 28.9682 60.0666 28.9731 59.998 28.9831C59.9324 28.9921 59.8687 29.0113 59.8091 29.04C59.7543 29.0652 59.7072 29.1045 59.6725 29.1538C59.6367 29.2093 59.6189 29.2744 59.6213 29.3404C59.6149 29.399 59.6244 29.4583 59.6488 29.512C59.6733 29.5657 59.7117 29.6117 59.7602 29.6454C59.8753 29.7069 60.0053 29.7353 60.1357 29.7273H60.1334Z" fill="black"/>
<path d="M64.3401 28.8258C64.3417 29.0165 64.3149 29.2063 64.2604 29.3891C64.213 29.5489 64.1358 29.6983 64.0328 29.8294C63.9331 29.9529 63.8056 30.0512 63.6608 30.1162C63.5022 30.1866 63.3301 30.2216 63.1567 30.2186C63.039 30.2199 62.9218 30.2045 62.8085 30.1731C62.7182 30.1485 62.6308 30.1141 62.5479 30.0707V31.1096H61.9277V27.5718C62.054 27.5377 62.2099 27.5047 62.3943 27.474C62.5873 27.4428 62.7825 27.4275 62.978 27.4285C63.172 27.425 63.365 27.4578 63.547 27.5252C63.7083 27.5862 63.8543 27.6818 63.9748 27.8051C64.0956 27.9308 64.1879 28.081 64.2456 28.2455C64.3114 28.4318 64.3434 28.6283 64.3401 28.8258ZM63.7051 28.836C63.7192 28.6057 63.6528 28.3777 63.5174 28.1909C63.3937 28.0391 63.1935 27.9633 62.9166 27.9633C62.8585 27.9633 62.7971 27.9633 62.7345 27.9712C62.6713 27.976 62.6088 27.987 62.5479 28.0042V29.5347C62.6156 29.5789 62.6886 29.6145 62.7652 29.6405C62.8581 29.6729 62.9559 29.689 63.0543 29.6883C63.1492 29.6962 63.2446 29.6793 63.3311 29.6394C63.4176 29.5996 63.4924 29.538 63.5481 29.4608C63.6624 29.2732 63.7172 29.0554 63.7051 28.836Z" fill="black"/>
<path d="M67.1918 29.8907C67.1918 30.3178 67.0833 30.6303 66.8664 30.8283C66.6494 31.0263 66.3175 31.1253 65.8707 31.1253C65.7101 31.1256 65.5498 31.1119 65.3916 31.0844C65.2481 31.058 65.1069 31.0199 64.9695 30.9706L65.0833 30.4437C65.1998 30.491 65.3206 30.5268 65.444 30.5507C65.5883 30.5789 65.7351 30.5926 65.8821 30.5916C66.1317 30.5916 66.3092 30.5404 66.4146 30.438C66.4709 30.3771 66.5141 30.3053 66.5416 30.227C66.569 30.1487 66.58 30.0656 66.5739 29.9829V29.8805C66.4953 29.9176 66.4139 29.9484 66.3304 29.9726C66.2194 30.0043 66.1044 30.0196 65.989 30.0181C65.8291 30.02 65.6701 29.9922 65.5202 29.9362C65.3827 29.8844 65.2587 29.8024 65.1572 29.6961C65.051 29.5822 64.9707 29.4468 64.9217 29.299C64.8622 29.1216 64.8337 28.9353 64.8375 28.7482C64.8356 28.5654 64.8656 28.3836 64.9262 28.2112C64.9821 28.0539 65.0714 27.9106 65.188 27.7913C65.3064 27.6722 65.4488 27.5795 65.6056 27.5193C65.7836 27.4521 65.9728 27.4193 66.1631 27.4226C66.3537 27.4219 66.544 27.4371 66.7321 27.4681C66.913 27.4988 67.0666 27.5318 67.1929 27.566L67.1918 29.8907ZM65.4667 28.7528C65.4667 29.016 65.5236 29.2083 65.6374 29.3297C65.6945 29.3894 65.7635 29.4364 65.84 29.4676C65.9165 29.4988 65.9987 29.5135 66.0812 29.5106C66.1757 29.5112 66.2697 29.4974 66.36 29.4697C66.4352 29.4479 66.5069 29.4153 66.5728 29.373V27.9847C66.5187 27.9728 66.464 27.9637 66.4089 27.9574C66.3274 27.9473 66.2453 27.9428 66.1631 27.9438C66.0651 27.9386 65.9671 27.9564 65.8772 27.996C65.7873 28.0355 65.7079 28.0956 65.6454 28.1713C65.5207 28.3392 65.4576 28.545 65.4667 28.7539V28.7528Z" fill="black"/>
<path d="M67.8323 28.8363C67.8273 28.6274 67.8616 28.4193 67.9335 28.223C67.9951 28.0579 68.09 27.9072 68.2123 27.7804C68.325 27.6642 68.4612 27.5734 68.6117 27.5141C68.7581 27.4547 68.9146 27.4242 69.0726 27.4242C69.2325 27.415 69.3926 27.4407 69.5415 27.4997C69.6905 27.5586 69.8248 27.6494 69.9351 27.7656C70.1422 27.9932 70.2457 28.3345 70.2457 28.7897C70.2457 28.8238 70.2457 28.8617 70.2457 28.9035C70.2457 28.9456 70.2457 28.9843 70.2389 29.0173H68.4718C68.4746 29.1115 68.4963 29.2041 68.5353 29.2899C68.5744 29.3757 68.6302 29.4528 68.6993 29.5168C68.8672 29.6448 69.0759 29.7074 69.2865 29.6932C69.4249 29.6943 69.563 29.6806 69.6984 29.6522C69.7991 29.6319 69.8977 29.6026 69.9931 29.5646L70.0751 30.0721C70.0295 30.0936 69.9823 30.1115 69.934 30.1256C69.8668 30.1467 69.7984 30.1638 69.7291 30.1768C69.6518 30.1927 69.5698 30.2052 69.4811 30.2155C69.3908 30.2256 69.3 30.2305 69.2091 30.2303C68.9995 30.2352 68.7908 30.1997 68.5947 30.1256C68.4307 30.0629 68.2835 29.9632 68.1645 29.8343C68.0508 29.7069 67.9655 29.5568 67.9142 29.3939C67.8579 29.2135 67.8302 29.0253 67.8323 28.8363ZM69.629 28.5644C69.6297 28.4823 69.6178 28.4005 69.5937 28.322C69.5719 28.249 69.536 28.1809 69.4879 28.1217C69.4419 28.0659 69.3845 28.0205 69.3195 27.9886C69.2424 27.9545 69.1591 27.9369 69.0748 27.9369C68.9906 27.9369 68.9072 27.9545 68.8302 27.9886C68.7606 28.0224 68.6987 28.07 68.6481 28.1286C68.5987 28.1881 68.5602 28.2559 68.5343 28.3288C68.5075 28.4024 68.4888 28.4787 68.4786 28.5564L69.629 28.5644Z" fill="black"/>
<path d="M72.4305 28.7542C72.4445 28.5464 72.4082 28.3384 72.3247 28.1477C72.2835 28.0831 72.2249 28.0313 72.1557 27.9983C72.0865 27.9653 72.0095 27.9524 71.9333 27.9611C71.8572 27.9612 71.7812 27.9662 71.7057 27.9758C71.6238 27.9861 71.5623 27.9952 71.5214 28.002V30.164H70.9023V27.5719C71.0562 27.5303 71.2124 27.4976 71.37 27.474C71.5726 27.4428 71.7773 27.4276 71.9822 27.4285C72.1371 27.4231 72.2916 27.4475 72.4374 27.5002C72.5474 27.5426 72.6477 27.6068 72.7321 27.6891C72.7778 27.657 72.8257 27.6281 72.8755 27.6026C72.9381 27.5697 73.0032 27.5415 73.07 27.5184C73.1443 27.4916 73.2204 27.4699 73.2976 27.4535C73.3777 27.4367 73.4593 27.4283 73.5411 27.4285C73.717 27.4223 73.8922 27.4529 74.0555 27.5184C74.1823 27.5711 74.2921 27.6577 74.3729 27.7687C74.4535 27.8854 74.5079 28.0182 74.5322 28.1579C74.562 28.3227 74.5765 28.49 74.5755 28.6574V30.1629H73.9565V28.7542C73.9701 28.5468 73.935 28.3391 73.8541 28.1477C73.7858 28.0236 73.6538 27.9611 73.4592 27.9611C73.3633 27.9603 73.2681 27.9769 73.1781 28.01C73.1077 28.0331 73.0405 28.0648 72.9779 28.1044C73.006 28.1925 73.025 28.2833 73.0348 28.3752C73.0465 28.4757 73.053 28.5768 73.0541 28.6779V30.1572H72.4351L72.4305 28.7542Z" fill="black"/>
<path d="M76.0253 26.7011C76.0276 26.7527 76.0186 26.8042 75.9989 26.8519C75.9793 26.8997 75.9494 26.9426 75.9115 26.9776C75.8393 27.0448 75.7439 27.0815 75.6452 27.08C75.5448 27.0822 75.4474 27.0455 75.3733 26.9776C75.3353 26.9426 75.3055 26.8997 75.2858 26.8519C75.2662 26.8042 75.2572 26.7527 75.2595 26.7011C75.2569 26.6486 75.2657 26.5962 75.2854 26.5475C75.305 26.4988 75.335 26.4549 75.3733 26.4189C75.4474 26.351 75.5448 26.3144 75.6452 26.3165C75.7439 26.315 75.8393 26.3517 75.9115 26.4189C75.9497 26.4549 75.9797 26.4988 75.9994 26.5475C76.019 26.5962 76.0279 26.6486 76.0253 26.7011ZM75.9581 30.1626H75.3391V27.484H75.9581V30.1626Z" fill="black"/>
<path d="M76.7467 27.5718C76.8998 27.5303 77.0552 27.4977 77.2121 27.4739C77.4222 27.442 77.6345 27.4268 77.847 27.4284C78.0339 27.4228 78.2201 27.4533 78.3955 27.5183C78.5309 27.5702 78.6508 27.656 78.7437 27.7675C78.8341 27.8814 78.8972 28.0145 78.928 28.1566C78.9657 28.3204 78.984 28.4881 78.9826 28.6562V30.1616H78.3625V28.754C78.3644 28.6317 78.3549 28.5094 78.334 28.3888C78.3211 28.3012 78.2897 28.2175 78.2419 28.143C78.1998 28.0797 78.1389 28.0311 78.0678 28.0042C77.9817 27.9733 77.8906 27.9587 77.7992 27.9609C77.7171 27.961 77.635 27.9659 77.5534 27.9757C77.4681 27.986 77.4044 27.9951 77.3645 28.0019V30.1639H76.7444L76.7467 27.5718Z" fill="black"/>
<path d="M80.4335 26.7011C80.4358 26.7527 80.4268 26.8042 80.4071 26.8519C80.3875 26.8997 80.3576 26.9426 80.3197 26.9776C80.2475 27.0448 80.1521 27.0815 80.0534 27.08C79.953 27.0822 79.8556 27.0455 79.7815 26.9776C79.7435 26.9426 79.7137 26.8997 79.694 26.8519C79.6744 26.8042 79.6654 26.7527 79.6677 26.7011C79.6651 26.6486 79.6739 26.5962 79.6936 26.5475C79.7132 26.4988 79.7432 26.4549 79.7815 26.4189C79.8556 26.351 79.953 26.3144 80.0534 26.3165C80.1521 26.315 80.2475 26.3517 80.3197 26.4189C80.3579 26.4549 80.3879 26.4988 80.4076 26.5475C80.4272 26.5962 80.4361 26.6486 80.4335 26.7011ZM80.3663 30.1626H79.7473V27.484H80.3663V30.1626Z" fill="black"/>
<path d="M82.385 26.6138H83.0302V30.1629H82.385V26.6138Z" fill="black"/>
<path d="M83.8437 27.5718C83.9968 27.5302 84.1522 27.4975 84.3091 27.4739C84.5192 27.442 84.7315 27.4268 84.944 27.4284C85.1309 27.4228 85.3171 27.4533 85.4925 27.5183C85.6287 27.5705 85.7493 27.6567 85.8429 27.7686C85.9334 27.8825 85.9964 28.0157 86.0273 28.1578C86.0646 28.3216 86.0825 28.4893 86.0808 28.6573V30.1628H85.4572V28.754C85.4585 28.6317 85.449 28.5095 85.4288 28.3888C85.4148 28.3015 85.3834 28.2179 85.3366 28.143C85.294 28.0801 85.2333 28.0317 85.1625 28.0042C85.0764 27.9734 84.9853 27.9588 84.8939 27.9609C84.8118 27.961 84.7297 27.9659 84.6482 27.9757C84.5628 27.986 84.4991 27.9951 84.4581 28.0019V30.1639H83.8391L83.8437 27.5718Z" fill="black"/>
<path d="M87.4579 30.163C87.2864 29.8118 87.1108 29.4082 86.931 28.9523C86.742 28.4718 86.5779 27.9818 86.4395 27.4844H87.1006C87.1381 27.6346 87.1814 27.7962 87.2314 27.9691C87.2815 28.1421 87.3338 28.3105 87.3907 28.4857C87.4476 28.661 87.5045 28.8271 87.566 28.9875C87.6274 29.148 87.6798 29.2959 87.7321 29.4256C87.7844 29.2959 87.8391 29.1503 87.8971 28.9875C87.9551 28.8248 88.0109 28.6587 88.0689 28.4857C88.127 28.3128 88.1827 28.1444 88.2316 27.9691C88.2806 27.7939 88.3272 27.6346 88.3648 27.4844H89.0054C88.8575 28.0063 88.6936 28.4956 88.5138 28.9523C88.3341 29.4089 88.1584 29.8125 87.987 30.163H87.4579Z" fill="black"/>
<path d="M89.2511 28.8362C89.2465 28.6251 89.2821 28.415 89.3558 28.2171C89.4174 28.0521 89.5123 27.9014 89.6346 27.7745C89.7473 27.6584 89.8834 27.5676 90.034 27.5082C90.1786 27.4496 90.3331 27.4191 90.4892 27.4183C90.6491 27.4091 90.8091 27.4348 90.9581 27.4938C91.1071 27.5528 91.2414 27.6435 91.3517 27.7597C91.5588 27.9873 91.6623 28.3287 91.6623 28.7838C91.6623 28.818 91.6623 28.8559 91.6623 28.8976C91.6623 28.9397 91.6623 28.9784 91.6555 29.0114H89.8952C89.8981 29.1056 89.9197 29.1983 89.9587 29.2841C89.9978 29.3698 90.0536 29.4469 90.1228 29.5109C90.2907 29.6389 90.4993 29.7016 90.7099 29.6873C90.8483 29.6884 90.9864 29.6747 91.1218 29.6463C91.2225 29.6261 91.3211 29.5967 91.4165 29.5587L91.4985 30.0662C91.4529 30.0877 91.4057 30.1056 91.3574 30.1197C91.2902 30.1408 91.2218 30.1579 91.1526 30.1709C91.0752 30.1868 90.9932 30.1994 90.9045 30.2096C90.8142 30.2197 90.7234 30.2247 90.6325 30.2244C90.4229 30.2293 90.2143 30.1938 90.0181 30.1197C89.8542 30.0571 89.7069 29.9574 89.5879 29.8284C89.4742 29.701 89.3889 29.5509 89.3376 29.388C89.2803 29.2097 89.2512 29.0235 89.2511 28.8362ZM91.0479 28.5642C91.0485 28.4821 91.0366 28.4004 91.0126 28.3218C90.9908 28.2488 90.9548 28.1807 90.9068 28.1216C90.8607 28.0657 90.8033 28.0203 90.7384 27.9884C90.6613 27.9543 90.578 27.9367 90.4937 27.9367C90.4094 27.9367 90.3261 27.9543 90.2491 27.9884C90.1795 28.0222 90.1175 28.0698 90.067 28.1284C90.0176 28.1879 89.9791 28.2557 89.9532 28.3287C89.9264 28.4023 89.9077 28.4786 89.8975 28.5562L91.0479 28.5642Z" fill="black"/>
<path d="M92.3234 27.5721C92.4765 27.5305 92.6319 27.4979 92.7888 27.4742C92.9985 27.4416 93.2104 27.4256 93.4226 27.4264C93.6095 27.4208 93.7958 27.4513 93.9711 27.5163C94.1073 27.5686 94.228 27.6547 94.3216 27.7667C94.4111 27.8811 94.474 28.0141 94.5059 28.1558C94.5426 28.3198 94.5606 28.4874 94.5594 28.6554V30.1608H93.9404V28.7544C93.9417 28.632 93.9322 28.5098 93.9119 28.3891C93.8979 28.3018 93.8666 28.2183 93.8197 28.1433C93.7771 28.0805 93.7164 28.032 93.6456 28.0045C93.5595 27.9738 93.4685 27.9591 93.3771 27.9613C93.2949 27.9613 93.2129 27.9662 93.1313 27.976C93.046 27.9863 92.9822 27.9954 92.9413 28.0022V30.1642H92.3223L92.3234 27.5721Z" fill="black"/>
<path d="M95.2877 26.7772L95.9079 26.6748V27.4839H96.8603V28.0016H95.9079V29.0917C95.8947 29.2521 95.9304 29.4128 96.0103 29.5526C96.0529 29.602 96.1067 29.6405 96.1674 29.6647C96.228 29.6888 96.2936 29.698 96.3585 29.6914C96.4594 29.6926 96.5601 29.6803 96.6578 29.655C96.7279 29.6366 96.797 29.6146 96.8649 29.589L96.9673 30.0805C96.8758 30.1182 96.7819 30.1498 96.6862 30.175C96.5525 30.21 96.4147 30.2264 96.2766 30.2239C96.1134 30.2285 95.9509 30.2023 95.7975 30.1465C95.6776 30.1016 95.5722 30.0249 95.4925 29.9246C95.4143 29.8198 95.3603 29.699 95.3344 29.5708C95.3017 29.4151 95.286 29.2564 95.2877 29.0974V26.7772Z" fill="black"/>
</g>
<defs>
<clipPath id="clip0_2030_3110">
<rect width="294" height="49" fill="white"/>
</clipPath>
</defs>
</svg>
