<svg width="66" height="32" viewBox="0 0 66 32" fill="none" xmlns="http://www.w3.org/2000/svg">
<path d="M22.5999 19.2002H23.5999L22.9999 23.6002C21.2999 24.4002 19.6999 25.0002 16.9999 25.0002C11.8999 25.0002 8.3999 21.2002 8.3999 16.0002C8.3999 9.9002 12.3999 6.2002 17.3999 6.2002C20.0999 6.2002 21.7999 6.9002 22.9999 7.8002V11.8002H22.0999C21.3999 8.8002 19.6999 7.5002 17.2999 7.5002C13.0999 7.5002 11.2999 11.0002 11.2999 15.2002C11.2999 19.9002 13.3999 23.6002 17.5999 23.6002C20.0999 23.7002 21.5999 22.2002 22.5999 19.2002Z" fill="black"/>
<path d="M31.0001 22.2998C31.0001 23.5998 31.6001 23.6998 33.5001 23.8998V24.7998H26.6001V23.8998C27.7001 23.6998 28.6001 23.5998 28.6001 22.3998V12.3998H26.7001V11.4998L28.6001 10.7998V10.2998C28.6001 7.0998 30.4001 4.7998 33.5001 4.7998C35.3001 4.7998 36.5001 5.4998 36.5001 6.7998C36.5001 7.3998 36.1001 7.8998 35.7001 8.1998H34.4001V7.4998C34.4001 6.4998 34.1001 5.7998 33.0001 5.7998C31.7001 5.7998 31.0001 7.1998 31.0001 9.5998V10.9998H34.4001V12.3998H31.0001V22.2998Z" fill="black"/>
<path d="M53.4002 16H43.8002V21.8C43.8002 23.4 44.8002 23.6 46.5002 23.7V24.7H38.7002V23.7C40.4002 23.6 41.4002 23.4 41.4002 21.8V9.4C41.4002 7.8 40.5002 7.6 38.7002 7.5V6.5H46.5002V7.5C44.8002 7.6 43.8002 7.8 43.8002 9.4V14.8H53.4002V9.4C53.4002 7.8 52.4002 7.6 50.7002 7.5V6.5H58.5002V7.5C56.8002 7.6 55.8002 7.8 55.8002 9.4V21.8C55.8002 23.4 56.7002 23.6 58.5002 23.7V24.7H50.7002V23.7C52.4002 23.6 53.4002 23.4 53.4002 21.8V16Z" fill="black"/>
</svg>
