<svg width="134" height="34" viewBox="0 0 134 34" fill="none" xmlns="http://www.w3.org/2000/svg">
<g clip-path="url(#clip0_1303_3096)">
<path d="M2.69659 6.19259V8.56613H0V11.6612H2.69659V24.1035C2.69659 25.0475 3.67348 25.8038 4.90184 25.8038C6.1302 25.8038 7.1303 25.0533 7.1303 24.1093V11.667H10.7148V8.57194H7.1303V6.19259C7.1303 3.32964 9.37424 2.80154 12.4461 3.48439V0.389305C8.12073 -0.575974 2.69659 -0.127186 2.69659 6.19259ZM16.5084 11.667H16.4156V8.57194H12.8272V24.1131C12.8272 25.0571 13.7944 25.8135 15.0324 25.8135C16.2705 25.8135 17.2551 25.0571 17.2551 24.1131V16.2884C17.2551 12.5975 19.6596 11.6593 22.5709 11.6593V8.17731C19.9382 8.16377 17.4718 9.03233 16.5084 11.667ZM47.498 8.18505C43.2229 8.18505 39.7602 10.3033 39.7602 14.4661C39.7602 16.683 40.7449 18.3195 42.3137 19.366C42.1976 19.4415 42.0854 19.5189 41.9752 19.6001C40.0311 21.0374 39.8221 23.5154 41.6038 24.8676C40.7313 25.6413 39.4952 27.0264 39.4952 28.9569C39.4952 32.0211 42.3582 34 47.496 34C52.6339 34 56.5569 31.5916 56.5569 27.8833C56.5569 24.175 53.9802 22.7184 49.2796 22.7184H46.2058C44.0527 22.7184 44.2365 21.2308 44.9464 20.5905C44.9832 20.5577 45.0219 20.5267 45.0644 20.4938C45.8645 20.662 46.6804 20.7437 47.498 20.7376C51.775 20.7376 55.2357 18.6097 55.2357 14.4603C55.2453 13.6011 55.076 12.7493 54.7385 11.9591C55.3933 11.78 56.0678 11.6832 56.7465 11.6709V8.57581C54.8449 8.57581 53.6185 8.70348 52.3186 9.33604C51.0012 8.56033 49.3241 8.17538 47.498 8.17538V8.18505ZM45.1476 25.8193H49.2757C50.9703 25.8193 52.1251 26.3455 52.1251 27.8833C52.1251 29.9493 50.3532 30.901 47.4825 30.901C43.0759 30.8914 43.3389 27.2701 45.1476 25.8096V25.8193ZM47.498 17.6425C45.6699 17.6425 44.1843 16.9325 44.1843 14.4642C44.1843 11.9959 45.6699 11.2859 47.498 11.2859C49.326 11.2859 50.8136 11.9939 50.8136 14.4642C50.8136 16.9345 49.3299 17.6425 47.498 17.6425ZM30.6162 8.17538C25.8111 8.17538 22.8785 11.1486 22.8785 16.9925C22.8785 22.8364 25.8149 25.8096 30.6162 25.8096C35.4175 25.8096 38.3539 22.8364 38.3539 16.9925C38.3539 11.1486 35.4233 8.17538 30.6162 8.17538ZM30.6162 22.7087C28.7862 22.7087 27.3025 21.9659 27.3025 16.9925C27.3025 12.0191 28.7959 11.2801 30.6162 11.2801C32.4365 11.2801 33.9299 12.021 33.9299 16.9925C33.9299 21.964 32.4462 22.7087 30.6162 22.7087Z" fill="white"/>
<path d="M66.1561 9.04395C67.0034 9.04395 67.6546 9.20515 68.1099 9.52755C68.336 9.69019 68.5173 9.9075 68.6367 10.1592C68.7561 10.4109 68.8098 10.6887 68.7927 10.9668C68.7998 11.2758 68.7335 11.5821 68.5993 11.8605C68.4767 12.1054 68.2903 12.3126 68.0596 12.4601C67.7978 12.6251 67.5069 12.7387 67.2026 12.7948C66.8273 12.8681 66.4456 12.9031 66.0632 12.8993H65.392V15.1374H64.5486V9.19096C64.8098 9.12948 65.0758 9.09065 65.3436 9.0749C65.6435 9.05362 65.9124 9.04395 66.1561 9.04395ZM66.2257 9.7829C65.8659 9.7829 65.5893 9.79257 65.3978 9.80998V12.1777H66.0342C66.2932 12.179 66.5519 12.1602 66.808 12.1216C67.0111 12.0907 67.2073 12.0253 67.3883 11.9282C67.5445 11.8417 67.6732 11.713 67.7597 11.5568C67.8531 11.3711 67.8977 11.1647 67.8893 10.9571C67.8981 10.7551 67.852 10.5546 67.7559 10.3768C67.666 10.2269 67.5396 10.1025 67.3883 10.015C67.2234 9.91896 67.0426 9.85343 66.8544 9.82159C66.6463 9.79136 66.436 9.77842 66.2257 9.7829V9.7829Z" fill="white"/>
<path d="M71.0036 10.4964C71.2831 10.4891 71.5617 10.5323 71.8258 10.6241C72.0324 10.6961 72.2179 10.8184 72.3655 10.98C72.5042 11.138 72.6042 11.3261 72.6576 11.5294C72.7178 11.7579 72.7471 11.9934 72.7446 12.2296V15.0578L72.4525 15.1061C72.3287 15.1274 72.1875 15.1448 72.0308 15.1622C71.8741 15.1796 71.7039 15.1971 71.5221 15.2106C71.3402 15.2241 71.1584 15.2319 70.9785 15.2319C70.7409 15.2342 70.5039 15.2083 70.2724 15.1545C70.0725 15.1086 69.8834 15.0245 69.7153 14.9069C69.557 14.7911 69.4311 14.6365 69.3497 14.4581C69.2579 14.2465 69.2136 14.0174 69.2201 13.7869C69.2143 13.5627 69.2662 13.3409 69.371 13.1427C69.4712 12.9659 69.6134 12.8164 69.785 12.7074C69.9725 12.5917 70.1787 12.5093 70.3943 12.4637C70.6344 12.411 70.8797 12.385 71.1255 12.3863C71.2102 12.3862 71.2948 12.3907 71.3789 12.3999C71.462 12.4071 71.5447 12.4188 71.6265 12.4347L71.8316 12.4734L71.9535 12.4985V12.2722C71.9526 12.142 71.9377 12.0123 71.909 11.8853C71.8824 11.7593 71.829 11.6405 71.7523 11.5371C71.6719 11.4305 71.5652 11.3466 71.4428 11.2934C71.282 11.2255 71.1083 11.1938 70.934 11.2005C70.6993 11.1977 70.4648 11.2172 70.2337 11.2586C70.0809 11.2835 69.9307 11.3223 69.785 11.3746L69.6902 10.7053C69.859 10.6418 70.0341 10.5965 70.2125 10.5699C70.4736 10.5226 70.7383 10.498 71.0036 10.4964V10.4964ZM71.0733 14.5587C71.2667 14.5587 71.435 14.5587 71.582 14.5471C71.7069 14.541 71.8312 14.5248 71.9535 14.4987V13.1446C71.8624 13.1073 71.7668 13.0826 71.6691 13.0711C71.5121 13.0493 71.3537 13.0389 71.1952 13.0402C71.0657 13.041 70.9365 13.05 70.8083 13.0673C70.6782 13.083 70.5515 13.1196 70.433 13.1756C70.3234 13.2294 70.227 13.3067 70.1506 13.4019C70.0695 13.514 70.0299 13.6507 70.0384 13.7888C70.026 13.9054 70.0454 14.0233 70.0944 14.1298C70.1434 14.2364 70.2203 14.3277 70.3169 14.3943C70.5507 14.5123 70.812 14.5651 71.0733 14.5471V14.5587Z" fill="white"/>
<path d="M75.6696 10.5138C75.7393 10.5138 75.8186 10.5138 75.9095 10.5274C76.0004 10.5409 76.0875 10.5486 76.1745 10.5622L76.4144 10.6067C76.4687 10.6162 76.5223 10.6291 76.575 10.6454L76.4357 11.3495C76.3314 11.3168 76.2256 11.2896 76.1184 11.2682C75.9304 11.2321 75.7392 11.2159 75.5478 11.2199C75.3969 11.2196 75.2464 11.2358 75.099 11.2682L74.8088 11.3321V15.1371H73.9983V10.802C74.2315 10.7212 74.47 10.6566 74.7121 10.6086C75.027 10.543 75.348 10.5112 75.6696 10.5138V10.5138Z" fill="white"/>
<path d="M78.0295 10.611H79.7434V11.2899H78.0295V13.3869C78.0257 13.5752 78.0432 13.7634 78.0817 13.9478C78.1054 14.0748 78.1591 14.1941 78.2384 14.296C78.3064 14.3794 78.3971 14.4412 78.4995 14.474C78.6178 14.5108 78.7413 14.5285 78.8651 14.5262C79.0618 14.5321 79.258 14.5047 79.4455 14.445L79.755 14.327L79.9117 14.9963C79.7741 15.0584 79.6318 15.1095 79.4861 15.1491C79.2597 15.2134 79.025 15.244 78.7897 15.24C78.5307 15.2481 78.2724 15.2088 78.0275 15.124C77.8371 15.0523 77.6698 14.9299 77.5439 14.77C77.4154 14.5985 77.3274 14.4 77.2866 14.1896C77.2348 13.9272 77.2101 13.6601 77.2131 13.3927V9.34777L78.0237 9.2085L78.0295 10.611Z" fill="white"/>
<path d="M86.603 12.8745C86.6067 13.2035 86.5537 13.5307 86.4463 13.8417C86.35 14.1174 86.2009 14.3717 86.0072 14.5903C85.8193 14.798 85.5891 14.9629 85.3321 15.0739C84.7855 15.2984 84.1725 15.2984 83.6259 15.0739C83.3689 14.9629 83.1386 14.798 82.9508 14.5903C82.7571 14.3717 82.6079 14.1174 82.5117 13.8417C82.3024 13.2099 82.3024 12.5275 82.5117 11.8957C82.609 11.6211 82.7588 11.3682 82.9527 11.1509C83.1406 10.9433 83.3708 10.7784 83.6278 10.6673C83.8982 10.5549 84.1881 10.4971 84.4809 10.4971C84.7737 10.4971 85.0636 10.5549 85.334 10.6673C85.591 10.7784 85.8212 10.9433 86.0091 11.1509C86.2032 11.3706 86.3524 11.6263 86.4482 11.9034C86.5551 12.2158 86.6074 12.5443 86.603 12.8745V12.8745ZM85.7576 12.8745C85.7807 12.4428 85.6604 12.0157 85.4152 11.6597C85.3027 11.5196 85.1601 11.4066 84.9981 11.329C84.836 11.2513 84.6587 11.211 84.479 11.211C84.2993 11.211 84.1219 11.2513 83.9599 11.329C83.7978 11.4066 83.6553 11.5196 83.5427 11.6597C83.2976 12.0157 83.1772 12.4428 83.2003 12.8745C83.1772 13.3061 83.2976 13.7333 83.5427 14.0893C83.6557 14.2287 83.7984 14.3411 83.9604 14.4184C84.1223 14.4956 84.2995 14.5356 84.479 14.5356C84.6584 14.5356 84.8356 14.4956 84.9976 14.4184C85.1596 14.3411 85.3023 14.2287 85.4152 14.0893C85.6604 13.7333 85.7807 13.3061 85.7576 12.8745V12.8745Z" fill="white"/>
<path d="M89.4234 8.38263C89.629 8.37973 89.8344 8.39723 90.0366 8.43486C90.1596 8.45613 90.2806 8.48784 90.3983 8.52965L90.2494 9.22605C90.1551 9.18392 90.0565 9.15214 89.9553 9.13126C89.8006 9.09595 89.642 9.07971 89.4833 9.0829C89.1061 9.0829 88.843 9.18542 88.6921 9.39241C88.5297 9.6376 88.4503 9.92854 88.4658 10.2223V10.6092H90.2068V11.2881H88.4658V15.1377H87.6553V10.201C87.6223 9.71192 87.775 9.2284 88.0828 8.8469C88.3678 8.53868 88.8147 8.38392 89.4234 8.38263Z" fill="white"/>
<path d="M67.2082 25.9065C66.7926 25.913 66.3793 25.8421 65.9896 25.6976C65.6417 25.5668 65.3292 25.3568 65.0765 25.0844C64.8156 24.7995 64.6178 24.4626 64.4962 24.0959C64.3582 23.6627 64.2929 23.2098 64.3027 22.7553C64.2943 22.2978 64.3731 21.8428 64.5349 21.4148C64.6751 21.0461 64.8897 20.7102 65.1655 20.4282C65.4312 20.1582 65.7518 19.9484 66.1056 19.8131C66.4761 19.6715 66.8697 19.6007 67.2663 19.6041C67.4939 19.6022 67.7212 19.6216 67.9453 19.6622C68.1249 19.6936 68.3025 19.7356 68.4772 19.7879C68.6059 19.8253 68.7309 19.8745 68.8506 19.9349L69.0595 20.0491L68.7384 20.9447C68.5507 20.8379 68.3506 20.7547 68.1426 20.6971C67.8693 20.6171 67.5858 20.5773 67.3011 20.5791C67.051 20.5777 66.8029 20.6236 66.5699 20.7145C66.3487 20.8043 66.1505 20.9425 65.9896 21.1188C65.8149 21.3159 65.6832 21.5471 65.6027 21.7978C65.5047 22.1046 65.4576 22.4255 65.4634 22.7476C65.4609 23.0438 65.4973 23.3391 65.5717 23.6258C65.637 23.8766 65.7514 24.112 65.9083 24.3183C66.0614 24.5149 66.2608 24.6704 66.4886 24.771C66.7521 24.885 67.0374 24.9398 67.3243 24.9315C67.6443 24.9405 67.9638 24.9013 68.2722 24.8155C68.4666 24.7563 68.6561 24.6819 68.839 24.593L69.1349 25.4887C69.0453 25.545 68.95 25.5917 68.8506 25.6279C68.7128 25.6813 68.572 25.7265 68.4289 25.7634C68.2491 25.8112 68.0662 25.8461 67.8814 25.8678C67.6582 25.8959 67.4332 25.9088 67.2082 25.9065V25.9065Z" fill="white"/>
<path d="M71.5396 21.1113C71.8383 21.1033 72.1361 21.1471 72.4198 21.2409C72.6332 21.3097 72.8255 21.4317 72.9785 21.5956C73.1315 21.7594 73.2401 21.9596 73.2942 22.1771C73.3575 22.417 73.388 22.6642 73.3851 22.9122V25.6727C73.2226 25.7075 72.9769 25.75 72.65 25.7984C72.2823 25.8507 71.9111 25.8753 71.5396 25.8719C71.288 25.8745 71.0368 25.8485 70.791 25.7945C70.5823 25.7505 70.3848 25.6643 70.2107 25.5411C70.0498 25.4239 69.9208 25.2683 69.8354 25.0885C69.7402 24.8724 69.6946 24.6377 69.7019 24.4017C69.6946 24.1719 69.7465 23.9441 69.8528 23.7402C69.9529 23.5622 70.0951 23.4115 70.2668 23.3011C70.4515 23.1824 70.6569 23.0997 70.8723 23.0573C71.1081 23.0063 71.3487 22.981 71.5899 22.9819C71.7122 22.9823 71.8343 22.99 71.9555 23.0051C72.0937 23.0208 72.2307 23.0453 72.3656 23.0786V22.9045C72.366 22.787 72.351 22.6699 72.3212 22.5563C72.2945 22.4449 72.2403 22.3419 72.1636 22.2567C72.0869 22.1716 71.9901 22.107 71.882 22.0688C71.738 22.0184 71.5859 21.9948 71.4333 21.9992C71.2091 21.9976 70.9852 22.0151 70.7639 22.0514C70.595 22.0776 70.4287 22.1184 70.2668 22.1733L70.1372 21.3202C70.327 21.2598 70.521 21.2133 70.7175 21.1809C70.9889 21.133 71.2641 21.1097 71.5396 21.1113V21.1113ZM71.6267 25.0362C71.8748 25.0422 72.1228 25.0248 72.3676 24.984V23.8233C72.2843 23.8007 72.1996 23.7832 72.1142 23.7711C71.9931 23.7533 71.8709 23.7449 71.7486 23.746C71.6308 23.7458 71.5131 23.7542 71.3965 23.7711C71.2851 23.7864 71.1767 23.819 71.0754 23.8678C70.9823 23.9107 70.9022 23.9774 70.8433 24.0613C70.7824 24.1556 70.752 24.2664 70.7562 24.3785C70.7453 24.4782 70.7614 24.5789 70.8029 24.6702C70.8445 24.7614 70.9099 24.8398 70.9922 24.897C71.188 25.0016 71.409 25.0498 71.6306 25.0362H71.6267Z" fill="white"/>
<path d="M78.7782 23.5038C78.7811 23.828 78.7354 24.1507 78.6428 24.4614C78.5622 24.733 78.4309 24.987 78.2559 25.21C78.0863 25.4199 77.8696 25.5869 77.6234 25.6975C77.3538 25.8172 77.0613 25.8766 76.7664 25.8716C76.5665 25.8737 76.3672 25.8477 76.1745 25.7942C76.021 25.7523 75.8724 25.694 75.7315 25.6201V27.3862H74.6772V21.3721C74.892 21.314 75.157 21.2579 75.4704 21.2057C75.7985 21.1526 76.1304 21.1268 76.4627 21.1283C76.7926 21.1225 77.1206 21.1783 77.4299 21.2928C77.7041 21.3966 77.9524 21.559 78.1573 21.7686C78.3626 21.9823 78.5196 22.2376 78.6177 22.5173C78.7295 22.8339 78.7838 23.168 78.7782 23.5038V23.5038ZM77.6988 23.5212C77.7227 23.1297 77.6099 22.742 77.3796 22.4244C77.1694 22.1665 76.829 22.0375 76.3583 22.0375C76.2596 22.0375 76.1551 22.0375 76.0488 22.0511C75.9414 22.0591 75.8351 22.0779 75.7315 22.1072V24.709C75.8467 24.7842 75.9708 24.8446 76.101 24.8889C76.2589 24.9438 76.4251 24.9713 76.5923 24.9701C76.7537 24.9834 76.9158 24.9548 77.0629 24.887C77.21 24.8192 77.3371 24.7146 77.4319 24.5832C77.6263 24.2644 77.7193 23.8941 77.6988 23.5212V23.5212Z" fill="white"/>
<path d="M83.6259 25.3143C83.6259 26.0404 83.4415 26.5717 83.0727 26.9083C82.7039 27.2449 82.1397 27.4132 81.3801 27.4132C81.1071 27.4136 80.8346 27.3903 80.5657 27.3435C80.3216 27.2987 80.0816 27.234 79.848 27.1501L80.0414 26.2545C80.2395 26.3349 80.4448 26.3958 80.6547 26.4363C80.9 26.4842 81.1495 26.5075 81.3994 26.5059C81.8237 26.5059 82.1255 26.4189 82.3047 26.2448C82.4005 26.1413 82.4739 26.0191 82.5205 25.886C82.5671 25.7529 82.5858 25.6117 82.5755 25.471V25.2969C82.4419 25.3601 82.3035 25.4125 82.1616 25.4536C81.9729 25.5074 81.7774 25.5335 81.5813 25.531C81.3093 25.5342 81.0391 25.4869 80.7843 25.3917C80.5505 25.3037 80.3396 25.1642 80.1672 24.9835C79.9866 24.79 79.8501 24.5597 79.7668 24.3084C79.6656 24.0069 79.6172 23.6902 79.6236 23.3722C79.6203 23.0613 79.6714 22.7523 79.7745 22.4591C79.8694 22.1918 80.0212 21.9482 80.2194 21.7453C80.4208 21.5429 80.6628 21.3853 80.9294 21.283C81.2321 21.1687 81.5537 21.1129 81.8772 21.1186C82.2012 21.1174 82.5247 21.1433 82.8444 21.1959C83.152 21.2482 83.4132 21.3043 83.6279 21.3623L83.6259 25.3143ZM80.6934 23.3799C80.6934 23.8274 80.7901 24.1543 80.9835 24.3607C81.0805 24.4622 81.1978 24.5421 81.3278 24.5951C81.4579 24.6481 81.5976 24.673 81.7379 24.6682C81.8985 24.6693 82.0584 24.6458 82.2119 24.5986C82.3398 24.5616 82.4616 24.5062 82.5736 24.4342V22.0742C82.4816 22.054 82.3886 22.0385 82.2951 22.0277C82.1565 22.0106 82.0169 22.0028 81.8772 22.0045C81.7105 21.9957 81.544 22.0261 81.3911 22.0933C81.2383 22.1605 81.1033 22.2626 80.9971 22.3914C80.785 22.6769 80.6778 23.0266 80.6934 23.3818V23.3799Z" fill="white"/>
<path d="M84.7149 23.5214C84.7065 23.1662 84.7649 22.8125 84.8871 22.4788C84.9918 22.1981 85.1531 21.942 85.361 21.7263C85.5526 21.5288 85.7841 21.3745 86.04 21.2736C86.2889 21.1727 86.5549 21.1208 86.8234 21.1208C87.0954 21.1051 87.3674 21.1489 87.6207 21.2491C87.8739 21.3493 88.1022 21.5036 88.2897 21.7011C88.6418 22.088 88.8178 22.6683 88.8178 23.4421C88.8178 23.5001 88.8178 23.5646 88.8178 23.6356C88.8178 23.7071 88.8178 23.7729 88.8062 23.829H85.8021C85.807 23.9891 85.8437 24.1467 85.9101 24.2925C85.9765 24.4383 86.0713 24.5694 86.189 24.6782C86.4744 24.8957 86.8291 25.0023 87.1871 24.978C87.4224 24.98 87.6571 24.9566 87.8874 24.9084C88.0585 24.8739 88.2262 24.8241 88.3884 24.7595L88.5277 25.6222C88.4502 25.6588 88.37 25.6892 88.2878 25.7131C88.1735 25.749 88.0573 25.778 87.9396 25.8002C87.8081 25.8273 87.6688 25.8485 87.5179 25.866C87.3644 25.8832 87.21 25.8916 87.0556 25.8911C86.6992 25.8995 86.3445 25.8391 86.011 25.7131C85.7323 25.6067 85.4821 25.4372 85.2798 25.2179C85.0864 25.0014 84.9414 24.7462 84.8542 24.4693C84.7584 24.1626 84.7114 23.8427 84.7149 23.5214V23.5214ZM87.7694 23.0591C87.7705 22.9195 87.7503 22.7805 87.7094 22.6471C87.6723 22.5229 87.6112 22.4072 87.5295 22.3066C87.4513 22.2117 87.3537 22.1345 87.2432 22.0803C87.1122 22.0223 86.9706 21.9923 86.8273 21.9923C86.6841 21.9923 86.5424 22.0223 86.4114 22.0803C86.2931 22.1377 86.1878 22.2187 86.1019 22.3182C86.0179 22.4194 85.9524 22.5347 85.9085 22.6587C85.8629 22.7838 85.8311 22.9135 85.8137 23.0456L87.7694 23.0591Z" fill="white"/>
<path d="M92.532 23.3819C92.5558 23.0287 92.4941 22.6751 92.3521 22.3508C92.282 22.241 92.1825 22.153 92.0648 22.0969C91.9472 22.0409 91.8162 22.0189 91.6867 22.0336C91.5573 22.0339 91.4281 22.0423 91.2998 22.0587C91.1605 22.0762 91.0561 22.0916 90.9864 22.1032V25.7786H89.9341V21.372C90.1957 21.3012 90.4611 21.2457 90.7291 21.2057C91.0735 21.1526 91.4215 21.1267 91.7699 21.1283C92.0332 21.1191 92.2958 21.1605 92.5436 21.2502C92.7307 21.3222 92.9011 21.4314 93.0446 21.5713C93.1224 21.5167 93.2038 21.4676 93.2884 21.4242C93.3949 21.3683 93.5055 21.3204 93.6192 21.2811C93.7454 21.2354 93.8747 21.1986 94.0061 21.1708C94.1422 21.1422 94.2809 21.128 94.42 21.1283C94.7189 21.1178 95.0168 21.1698 95.2944 21.2811C95.51 21.3707 95.6967 21.5179 95.8341 21.7067C95.9711 21.9051 96.0635 22.1308 96.1049 22.3682C96.1555 22.6485 96.1801 22.9327 96.1784 23.2175V25.7767H95.1261V23.3819C95.1492 23.0293 95.0896 22.6763 94.952 22.3508C94.8359 22.14 94.6115 22.0336 94.2807 22.0336C94.1178 22.0323 93.9559 22.0605 93.8029 22.1168C93.6833 22.1561 93.5689 22.21 93.4625 22.2773C93.5102 22.4271 93.5426 22.5814 93.5592 22.7377C93.5791 22.9086 93.5901 23.0803 93.5921 23.2523V25.767H92.5398L92.532 23.3819Z" fill="white"/>
<path d="M98.6427 19.8918C98.6466 19.9795 98.6313 20.067 98.5979 20.1482C98.5645 20.2294 98.5138 20.3023 98.4493 20.3618C98.3265 20.4761 98.1643 20.5385 97.9966 20.5359C97.8258 20.5396 97.6602 20.4772 97.5343 20.3618C97.4698 20.3023 97.4191 20.2294 97.3857 20.1482C97.3522 20.067 97.3369 19.9795 97.3408 19.8918C97.3364 19.8026 97.3515 19.7135 97.3849 19.6307C97.4183 19.5478 97.4692 19.4732 97.5343 19.412C97.6602 19.2967 97.8258 19.2343 97.9966 19.2379C98.1643 19.2354 98.3265 19.2978 98.4493 19.412C98.5143 19.4732 98.5653 19.5478 98.5987 19.6307C98.6321 19.7135 98.6471 19.8026 98.6427 19.8918V19.8918ZM98.5286 25.7763H97.4762V21.2227H98.5286V25.7763Z" fill="white"/>
<path d="M99.8694 21.3723C100.13 21.3019 100.394 21.2463 100.661 21.2059C101.018 21.1517 101.379 21.1259 101.74 21.1286C102.058 21.119 102.374 21.1709 102.672 21.2814C102.903 21.3697 103.106 21.5155 103.264 21.705C103.418 21.8987 103.525 22.125 103.578 22.3666C103.642 22.6451 103.673 22.9301 103.67 23.2158V25.7751H102.616V23.3822C102.619 23.1741 102.603 22.9662 102.568 22.7612C102.546 22.6124 102.492 22.47 102.411 22.3434C102.34 22.2357 102.236 22.1532 102.115 22.1074C101.969 22.055 101.814 22.03 101.659 22.0339C101.519 22.0339 101.38 22.0423 101.241 22.059C101.096 22.0764 100.987 22.0919 100.92 22.1035V25.7789H99.8655L99.8694 21.3723Z" fill="white"/>
<path d="M106.137 19.8918C106.141 19.9795 106.125 20.067 106.092 20.1482C106.059 20.2294 106.008 20.3023 105.943 20.3618C105.821 20.4761 105.658 20.5385 105.491 20.5359C105.32 20.5396 105.154 20.4772 105.028 20.3618C104.964 20.3023 104.913 20.2294 104.88 20.1482C104.846 20.067 104.831 19.9795 104.835 19.8918C104.831 19.8026 104.846 19.7135 104.879 19.6307C104.912 19.5478 104.963 19.4732 105.028 19.412C105.154 19.2967 105.32 19.2343 105.491 19.2379C105.658 19.2354 105.821 19.2978 105.943 19.412C106.008 19.4732 106.059 19.5478 106.093 19.6307C106.126 19.7135 106.141 19.8026 106.137 19.8918V19.8918ZM106.023 25.7763H104.97V21.2227H106.023V25.7763Z" fill="white"/>
<path d="M109.454 19.7437H110.551V25.7771H109.454V19.7437Z" fill="white"/>
<path d="M111.934 21.3723C112.195 21.3017 112.459 21.2461 112.725 21.2059C113.083 21.1517 113.444 21.1258 113.805 21.1286C114.123 21.119 114.439 21.1709 114.737 21.2814C114.969 21.3702 115.174 21.5167 115.333 21.707C115.487 21.9006 115.594 22.1269 115.646 22.3685C115.71 22.6471 115.74 22.9321 115.737 23.2177V25.777H114.677V23.3822C114.68 23.1742 114.663 22.9664 114.629 22.7612C114.605 22.6129 114.552 22.4708 114.472 22.3434C114.4 22.2365 114.297 22.1542 114.176 22.1074C114.03 22.0551 113.875 22.0302 113.72 22.0339C113.58 22.0339 113.441 22.0423 113.302 22.059C113.157 22.0764 113.048 22.0919 112.979 22.1035V25.7789H111.927L111.934 21.3723Z" fill="white"/>
<path d="M118.078 25.7773C117.787 25.1802 117.488 24.4941 117.182 23.719C116.861 22.9022 116.582 22.0693 116.347 21.2236H117.471C117.534 21.479 117.608 21.7537 117.693 22.0477C117.778 22.3417 117.867 22.628 117.964 22.9259C118.061 23.2238 118.157 23.5063 118.262 23.779C118.366 24.0518 118.455 24.3032 118.544 24.5238C118.633 24.3032 118.726 24.0556 118.825 23.779C118.923 23.5024 119.018 23.22 119.117 22.9259C119.215 22.6319 119.31 22.3456 119.393 22.0477C119.477 21.7498 119.556 21.479 119.62 21.2236H120.709C120.457 22.1109 120.179 22.9427 119.873 23.719C119.567 24.4954 119.269 25.1815 118.977 25.7773H118.078Z" fill="white"/>
<path d="M121.127 23.5213C121.119 23.1625 121.179 22.8054 121.305 22.469C121.409 22.1883 121.571 21.9322 121.779 21.7165C121.97 21.5191 122.202 21.3647 122.458 21.2639C122.703 21.1641 122.966 21.1122 123.231 21.111C123.503 21.0953 123.775 21.1391 124.029 21.2393C124.282 21.3395 124.51 21.4938 124.698 21.6914C125.05 22.0782 125.226 22.6586 125.226 23.4323C125.226 23.4904 125.226 23.5549 125.226 23.6258C125.226 23.6974 125.226 23.7631 125.214 23.8192H122.222C122.226 23.9794 122.263 24.1369 122.33 24.2827C122.396 24.4285 122.491 24.5597 122.608 24.6684C122.894 24.886 123.249 24.9925 123.607 24.9683C123.842 24.9702 124.077 24.9468 124.307 24.8986C124.478 24.8642 124.646 24.8143 124.808 24.7497L124.947 25.6124C124.87 25.649 124.789 25.6794 124.707 25.7034C124.593 25.7392 124.477 25.7683 124.359 25.7904C124.228 25.8175 124.088 25.8388 123.937 25.8562C123.784 25.8734 123.629 25.8818 123.475 25.8813C123.119 25.8897 122.764 25.8293 122.43 25.7034C122.152 25.5969 121.902 25.4274 121.699 25.2082C121.506 24.9916 121.361 24.7364 121.274 24.4595C121.176 24.1563 121.127 23.8398 121.127 23.5213V23.5213ZM124.181 23.059C124.182 22.9194 124.162 22.7805 124.121 22.647C124.084 22.5228 124.023 22.4071 123.941 22.3065C123.863 22.2116 123.765 22.1344 123.655 22.0802C123.524 22.0222 123.382 21.9922 123.239 21.9922C123.096 21.9922 122.954 22.0222 122.823 22.0802C122.705 22.1376 122.6 22.2186 122.514 22.3181C122.43 22.4193 122.364 22.5346 122.32 22.6586C122.275 22.7837 122.243 22.9134 122.225 23.0455L124.181 23.059Z" fill="white"/>
<path d="M126.35 21.3723C126.61 21.3016 126.874 21.2461 127.141 21.2059C127.497 21.1504 127.858 21.1233 128.218 21.1247C128.536 21.1151 128.853 21.167 129.151 21.2775C129.382 21.3663 129.587 21.5128 129.747 21.703C129.899 21.8976 130.006 22.1236 130.06 22.3646C130.122 22.6433 130.153 22.9282 130.151 23.2138V25.7731H129.099V23.3821C129.101 23.1741 129.085 22.9663 129.05 22.7612C129.026 22.6128 128.973 22.4708 128.893 22.3433C128.821 22.2365 128.718 22.1542 128.598 22.1073C128.451 22.0551 128.296 22.0302 128.141 22.0338C128.001 22.0339 127.862 22.0423 127.723 22.059C127.578 22.0764 127.47 22.0919 127.4 22.1035V25.7789H126.348L126.35 21.3723Z" fill="white"/>
<path d="M131.389 20.0218L132.443 19.8477V21.223H134.062V22.1032H132.443V23.9564C132.421 24.2291 132.481 24.5023 132.617 24.7398C132.69 24.8239 132.781 24.8893 132.884 24.9304C132.987 24.9715 133.099 24.9871 133.209 24.9758C133.381 24.9778 133.552 24.957 133.718 24.9139C133.837 24.8827 133.955 24.8452 134.07 24.8017L134.244 25.6374C134.089 25.7015 133.929 25.7551 133.766 25.798C133.539 25.8575 133.305 25.8855 133.07 25.8811C132.793 25.889 132.516 25.8444 132.256 25.7496C132.052 25.6731 131.873 25.5428 131.737 25.3724C131.604 25.1942 131.512 24.9887 131.468 24.7708C131.413 24.5062 131.386 24.2364 131.389 23.9661V20.0218Z" fill="white"/>
</g>
<defs>
<clipPath id="clip0_1303_3096">
<rect width="134" height="34" fill="white"/>
</clipPath>
</defs>
</svg>
